ISO-10303-21;
HEADER;
/* Generated by software containing ST-Developer
 * from STEP Tools, Inc. (www.steptools.com) 
 */
/* OPTION: using custom renumber hook */

FILE_DESCRIPTION(
/* description */ ('STEP AP242 Edition 2',
'CAx-IF Rec.Pracs.---Representation and Presentation of Product Manufa
cturing Information (PMI)---4.0---2014-10-13',
'CAx-IF Rec.Pracs.---3D Tessellated Geometry---0.4---2014-09-14','2;1',
'CAx-IF Rec.Pracs.---User Defined Attributes---1.5---2016-08-15'),
/* implementation_level */ '2;1');

FILE_NAME(
/* name */ 'Arm_lower2 - Part 2',
/* time_stamp */ '2026-05-19T16:30:34Z',
/* author */ (''),
/* organization */ (''),
/* preprocessor_version */ 'ST-DEVELOPER v20',
/* originating_system */ 'ONSHAPE BY PTC INC, 1.215',
/* authorisation */ '  ');

FILE_SCHEMA (('AP242_MANAGED_MODEL_BASED_3D_ENGINEERING_MIM_LF { 1 0 10303 442 3 1 4 }'));
ENDSEC;

DATA;
#10=SHAPE_REPRESENTATION_RELATIONSHIP('','',#554,#11);
#11=ADVANCED_BREP_SHAPE_REPRESENTATION('',(#552),#1082);
#12=B_SPLINE_CURVE_WITH_KNOTS('',3,(#878,#879,#880,#881),.UNSPECIFIED.,
 .F.,.F.,(4,4),(6.93889390390723E-18,0.0197734940239878),.UNSPECIFIED.);
#13=B_SPLINE_CURVE_WITH_KNOTS('',3,(#883,#884,#885,#886),.UNSPECIFIED.,
 .F.,.F.,(4,4),(1.73472347597681E-18,0.00558947114975905),.UNSPECIFIED.);
#14=B_SPLINE_CURVE_WITH_KNOTS('',3,(#888,#889,#890,#891,#892),
 .UNSPECIFIED.,.F.,.F.,(4,1,4),(9.17143917123977E-13,0.0447432719370097,
0.0894865438731022),.UNSPECIFIED.);
#15=B_SPLINE_CURVE_WITH_KNOTS('',3,(#914,#915,#916,#917),.UNSPECIFIED.,
 .F.,.F.,(4,4),(6.93889390390723E-18,0.0197734940239878),.UNSPECIFIED.);
#16=B_SPLINE_CURVE_WITH_KNOTS('',3,(#995,#996,#997,#998),.UNSPECIFIED.,
 .F.,.F.,(4,4),(1.73472347597681E-18,0.00558947114975905),.UNSPECIFIED.);
#17=B_SPLINE_CURVE_WITH_KNOTS('',3,(#1001,#1002,#1003,#1004,#1005),
 .UNSPECIFIED.,.F.,.F.,(4,1,4),(0.,0.0447432719020082,0.0894865438040164),
 .UNSPECIFIED.);
#18=B_SPLINE_SURFACE_WITH_KNOTS('',3,1,((#818,#819),(#820,#821),(#822,#823),
(#824,#825),(#826,#827),(#828,#829),(#830,#831),(#832,#833),(#834,#835),
(#836,#837),(#838,#839),(#840,#841),(#842,#843),(#844,#845),(#846,#847),
(#848,#849),(#850,#851),(#852,#853),(#854,#855),(#856,#857),(#858,#859),
(#860,#861),(#862,#863),(#864,#865),(#866,#867),(#868,#869),(#870,#871),
(#872,#873),(#874,#875),(#876,#877)),.RULED_SURF.,.F.,.F.,.F.,(4,2,2,2,
2,2,2,2,2,2,2,2,2,2,4),(2,2),(0.,0.0625,0.125,0.1875,0.25,0.3125,0.375,
0.4375,0.5,0.5625,0.625,0.6875,0.75,0.8125,0.824919999999999),(0.,1.),
 .UNSPECIFIED.);
#19=B_SPLINE_SURFACE_WITH_KNOTS('',3,1,((#935,#936),(#937,#938),(#939,#940),
(#941,#942),(#943,#944),(#945,#946),(#947,#948),(#949,#950),(#951,#952),
(#953,#954),(#955,#956),(#957,#958),(#959,#960),(#961,#962),(#963,#964),
(#965,#966),(#967,#968),(#969,#970),(#971,#972),(#973,#974),(#975,#976),
(#977,#978),(#979,#980),(#981,#982),(#983,#984),(#985,#986),(#987,#988),
(#989,#990),(#991,#992),(#993,#994)),.RULED_SURF.,.F.,.F.,.F.,(4,2,2,2,
2,2,2,2,2,2,2,2,2,2,4),(2,2),(0.,0.0625,0.125,0.1875,0.25,0.3125,0.375,
0.4375,0.5,0.5625,0.625,0.6875,0.75,0.8125,0.824920000000001),(0.,1.),
 .UNSPECIFIED.);
#20=B_SPLINE_SURFACE_WITH_KNOTS('',3,1,((#1031,#1032),(#1033,#1034),(#1035,
#1036),(#1037,#1038),(#1039,#1040),(#1041,#1042),(#1043,#1044),(#1045,#1046),
(#1047,#1048),(#1049,#1050),(#1051,#1052),(#1053,#1054),(#1055,#1056),(#1057,
#1058),(#1059,#1060),(#1061,#1062),(#1063,#1064),(#1065,#1066)),
 .RULED_SURF.,.F.,.F.,.F.,(4,2,2,2,2,2,2,2,4),(2,2),(0.,0.125,0.25,0.375,
0.5,0.625,0.75,0.875,1.),(0.,1.),.UNSPECIFIED.);
#21=PLANE('',#560);
#22=PLANE('',#561);
#23=PLANE('',#562);
#24=PLANE('',#570);
#25=PLANE('',#577);
#26=PLANE('',#580);
#27=PLANE('',#581);
#28=PLANE('',#582);
#29=PLANE('',#583);
#30=PLANE('',#586);
#31=PLANE('',#587);
#32=PLANE('',#588);
#33=PLANE('',#589);
#34=PLANE('',#590);
#35=PLANE('',#591);
#36=PLANE('',#592);
#37=PLANE('',#594);
#38=PLANE('',#596);
#39=PLANE('',#604);
#40=PLANE('',#605);
#41=LINE('',#760,#86);
#42=LINE('',#764,#87);
#43=LINE('',#767,#88);
#44=LINE('',#769,#89);
#45=LINE('',#771,#90);
#46=LINE('',#773,#91);
#47=LINE('',#775,#92);
#48=LINE('',#777,#93);
#49=LINE('',#779,#94);
#50=LINE('',#781,#95);
#51=LINE('',#783,#96);
#52=LINE('',#785,#97);
#53=LINE('',#788,#98);
#54=LINE('',#790,#99);
#55=LINE('',#792,#100);
#56=LINE('',#802,#101);
#57=LINE('',#806,#102);
#58=LINE('',#808,#103);
#59=LINE('',#814,#104);
#60=LINE('',#815,#105);
#61=LINE('',#893,#106);
#62=LINE('',#895,#107);
#63=LINE('',#900,#108);
#64=LINE('',#904,#109);
#65=LINE('',#910,#110);
#66=LINE('',#912,#111);
#67=LINE('',#919,#112);
#68=LINE('',#921,#113);
#69=LINE('',#923,#114);
#70=LINE('',#925,#115);
#71=LINE('',#927,#116);
#72=LINE('',#929,#117);
#73=LINE('',#930,#118);
#74=LINE('',#932,#119);
#75=LINE('',#934,#120);
#76=LINE('',#1000,#121);
#77=LINE('',#1011,#122);
#78=LINE('',#1013,#123);
#79=LINE('',#1015,#124);
#80=LINE('',#1017,#125);
#81=LINE('',#1019,#126);
#82=LINE('',#1021,#127);
#83=LINE('',#1024,#128);
#84=LINE('',#1030,#129);
#85=LINE('',#1067,#130);
#86=VECTOR('',#614,1.);
#87=VECTOR('',#619,1.);
#88=VECTOR('',#620,1.);
#89=VECTOR('',#621,1.);
#90=VECTOR('',#622,1.);
#91=VECTOR('',#623,1.);
#92=VECTOR('',#624,1.);
#93=VECTOR('',#625,1.);
#94=VECTOR('',#628,1.);
#95=VECTOR('',#629,1.);
#96=VECTOR('',#630,1.);
#97=VECTOR('',#633,1.);
#98=VECTOR('',#634,1.);
#99=VECTOR('',#635,1.);
#100=VECTOR('',#636,1.);
#101=VECTOR('',#649,1.);
#102=VECTOR('',#654,1.);
#103=VECTOR('',#655,1.);
#104=VECTOR('',#660,1.);
#105=VECTOR('',#661,1.);
#106=VECTOR('',#664,1.);
#107=VECTOR('',#665,1.);
#108=VECTOR('',#670,1.);
#109=VECTOR('',#673,1.);
#110=VECTOR('',#680,1.);
#111=VECTOR('',#681,1.);
#112=VECTOR('',#682,1.);
#113=VECTOR('',#685,1.);
#114=VECTOR('',#686,1.);
#115=VECTOR('',#687,1.);
#116=VECTOR('',#688,1.);
#117=VECTOR('',#691,1.);
#118=VECTOR('',#692,1.);
#119=VECTOR('',#693,1.);
#120=VECTOR('',#696,1.);
#121=VECTOR('',#697,1.);
#122=VECTOR('',#704,1.);
#123=VECTOR('',#707,1.);
#124=VECTOR('',#708,1.);
#125=VECTOR('',#711,1.);
#126=VECTOR('',#714,1.);
#127=VECTOR('',#717,1.);
#128=VECTOR('',#722,1.);
#129=VECTOR('',#731,1.);
#130=VECTOR('',#732,1.);
#131=CIRCLE('',#558,0.034);
#132=CIRCLE('',#559,0.034);
#133=CIRCLE('',#564,0.03);
#134=CIRCLE('',#565,0.03);
#135=CIRCLE('',#568,0.034);
#136=CIRCLE('',#569,0.034);
#137=CIRCLE('',#571,0.04);
#138=CIRCLE('',#572,0.04);
#139=CIRCLE('',#573,0.04);
#140=CIRCLE('',#575,0.03);
#141=CIRCLE('',#576,0.03);
#142=CIRCLE('',#578,0.001);
#143=CIRCLE('',#579,0.001);
#144=CIRCLE('',#584,0.001);
#145=CIRCLE('',#585,0.001);
#146=CIRCLE('',#593,0.04);
#147=CIRCLE('',#601,0.001);
#148=CIRCLE('',#603,0.001);
#149=ORIENTED_EDGE('',*,*,#295,.F.);
#150=ORIENTED_EDGE('',*,*,#296,.F.);
#151=ORIENTED_EDGE('',*,*,#297,.T.);
#152=ORIENTED_EDGE('',*,*,#298,.F.);
#153=ORIENTED_EDGE('',*,*,#299,.T.);
#154=ORIENTED_EDGE('',*,*,#300,.T.);
#155=ORIENTED_EDGE('',*,*,#301,.F.);
#156=ORIENTED_EDGE('',*,*,#302,.T.);
#157=ORIENTED_EDGE('',*,*,#303,.F.);
#158=ORIENTED_EDGE('',*,*,#304,.T.);
#159=ORIENTED_EDGE('',*,*,#305,.T.);
#160=ORIENTED_EDGE('',*,*,#296,.T.);
#161=ORIENTED_EDGE('',*,*,#306,.T.);
#162=ORIENTED_EDGE('',*,*,#307,.F.);
#163=ORIENTED_EDGE('',*,*,#308,.T.);
#164=ORIENTED_EDGE('',*,*,#309,.F.);
#165=ORIENTED_EDGE('',*,*,#310,.T.);
#166=ORIENTED_EDGE('',*,*,#311,.T.);
#167=ORIENTED_EDGE('',*,*,#312,.F.);
#168=ORIENTED_EDGE('',*,*,#311,.F.);
#169=ORIENTED_EDGE('',*,*,#313,.T.);
#170=ORIENTED_EDGE('',*,*,#304,.F.);
#171=ORIENTED_EDGE('',*,*,#314,.F.);
#172=ORIENTED_EDGE('',*,*,#315,.F.);
#173=ORIENTED_EDGE('',*,*,#316,.F.);
#174=ORIENTED_EDGE('',*,*,#317,.F.);
#175=ORIENTED_EDGE('',*,*,#318,.F.);
#176=ORIENTED_EDGE('',*,*,#319,.F.);
#177=ORIENTED_EDGE('',*,*,#298,.T.);
#178=ORIENTED_EDGE('',*,*,#320,.F.);
#179=ORIENTED_EDGE('',*,*,#321,.F.);
#180=ORIENTED_EDGE('',*,*,#322,.T.);
#181=ORIENTED_EDGE('',*,*,#323,.T.);
#182=ORIENTED_EDGE('',*,*,#316,.T.);
#183=ORIENTED_EDGE('',*,*,#324,.F.);
#184=ORIENTED_EDGE('',*,*,#325,.F.);
#185=ORIENTED_EDGE('',*,*,#326,.F.);
#186=ORIENTED_EDGE('',*,*,#327,.F.);
#187=ORIENTED_EDGE('',*,*,#328,.F.);
#188=ORIENTED_EDGE('',*,*,#322,.F.);
#189=ORIENTED_EDGE('',*,*,#329,.T.);
#190=ORIENTED_EDGE('',*,*,#330,.T.);
#191=ORIENTED_EDGE('',*,*,#309,.T.);
#192=ORIENTED_EDGE('',*,*,#331,.F.);
#193=ORIENTED_EDGE('',*,*,#332,.F.);
#194=ORIENTED_EDGE('',*,*,#333,.T.);
#195=ORIENTED_EDGE('',*,*,#334,.T.);
#196=ORIENTED_EDGE('',*,*,#335,.F.);
#197=ORIENTED_EDGE('',*,*,#336,.F.);
#198=ORIENTED_EDGE('',*,*,#337,.T.);
#199=ORIENTED_EDGE('',*,*,#333,.F.);
#200=ORIENTED_EDGE('',*,*,#338,.F.);
#201=ORIENTED_EDGE('',*,*,#339,.F.);
#202=ORIENTED_EDGE('',*,*,#340,.T.);
#203=ORIENTED_EDGE('',*,*,#331,.T.);
#204=ORIENTED_EDGE('',*,*,#341,.T.);
#205=ORIENTED_EDGE('',*,*,#342,.T.);
#206=ORIENTED_EDGE('',*,*,#343,.F.);
#207=ORIENTED_EDGE('',*,*,#344,.T.);
#208=ORIENTED_EDGE('',*,*,#345,.F.);
#209=ORIENTED_EDGE('',*,*,#341,.F.);
#210=ORIENTED_EDGE('',*,*,#334,.F.);
#211=ORIENTED_EDGE('',*,*,#337,.F.);
#212=ORIENTED_EDGE('',*,*,#346,.F.);
#213=ORIENTED_EDGE('',*,*,#347,.T.);
#214=ORIENTED_EDGE('',*,*,#307,.T.);
#215=ORIENTED_EDGE('',*,*,#344,.F.);
#216=ORIENTED_EDGE('',*,*,#348,.T.);
#217=ORIENTED_EDGE('',*,*,#338,.T.);
#218=ORIENTED_EDGE('',*,*,#332,.T.);
#219=ORIENTED_EDGE('',*,*,#349,.T.);
#220=ORIENTED_EDGE('',*,*,#339,.T.);
#221=ORIENTED_EDGE('',*,*,#348,.F.);
#222=ORIENTED_EDGE('',*,*,#350,.F.);
#223=ORIENTED_EDGE('',*,*,#329,.F.);
#224=ORIENTED_EDGE('',*,*,#321,.T.);
#225=ORIENTED_EDGE('',*,*,#351,.T.);
#226=ORIENTED_EDGE('',*,*,#352,.F.);
#227=ORIENTED_EDGE('',*,*,#353,.F.);
#228=ORIENTED_EDGE('',*,*,#303,.T.);
#229=ORIENTED_EDGE('',*,*,#354,.F.);
#230=ORIENTED_EDGE('',*,*,#326,.T.);
#231=ORIENTED_EDGE('',*,*,#312,.T.);
#232=ORIENTED_EDGE('',*,*,#314,.T.);
#233=ORIENTED_EDGE('',*,*,#313,.F.);
#234=ORIENTED_EDGE('',*,*,#310,.F.);
#235=ORIENTED_EDGE('',*,*,#355,.T.);
#236=ORIENTED_EDGE('',*,*,#356,.T.);
#237=ORIENTED_EDGE('',*,*,#305,.F.);
#238=ORIENTED_EDGE('',*,*,#357,.F.);
#239=ORIENTED_EDGE('',*,*,#327,.T.);
#240=ORIENTED_EDGE('',*,*,#354,.T.);
#241=ORIENTED_EDGE('',*,*,#302,.F.);
#242=ORIENTED_EDGE('',*,*,#358,.T.);
#243=ORIENTED_EDGE('',*,*,#317,.T.);
#244=ORIENTED_EDGE('',*,*,#323,.F.);
#245=ORIENTED_EDGE('',*,*,#328,.T.);
#246=ORIENTED_EDGE('',*,*,#357,.T.);
#247=ORIENTED_EDGE('',*,*,#301,.T.);
#248=ORIENTED_EDGE('',*,*,#346,.T.);
#249=ORIENTED_EDGE('',*,*,#340,.F.);
#250=ORIENTED_EDGE('',*,*,#349,.F.);
#251=ORIENTED_EDGE('',*,*,#359,.T.);
#252=ORIENTED_EDGE('',*,*,#297,.F.);
#253=ORIENTED_EDGE('',*,*,#308,.F.);
#254=ORIENTED_EDGE('',*,*,#347,.F.);
#255=ORIENTED_EDGE('',*,*,#359,.F.);
#256=ORIENTED_EDGE('',*,*,#351,.F.);
#257=ORIENTED_EDGE('',*,*,#320,.T.);
#258=ORIENTED_EDGE('',*,*,#358,.F.);
#259=ORIENTED_EDGE('',*,*,#300,.F.);
#260=ORIENTED_EDGE('',*,*,#360,.T.);
#261=ORIENTED_EDGE('',*,*,#318,.T.);
#262=ORIENTED_EDGE('',*,*,#343,.T.);
#263=ORIENTED_EDGE('',*,*,#361,.T.);
#264=ORIENTED_EDGE('',*,*,#355,.F.);
#265=ORIENTED_EDGE('',*,*,#330,.F.);
#266=ORIENTED_EDGE('',*,*,#350,.T.);
#267=ORIENTED_EDGE('',*,*,#362,.T.);
#268=ORIENTED_EDGE('',*,*,#315,.T.);
#269=ORIENTED_EDGE('',*,*,#360,.F.);
#270=ORIENTED_EDGE('',*,*,#299,.F.);
#271=ORIENTED_EDGE('',*,*,#356,.F.);
#272=ORIENTED_EDGE('',*,*,#363,.T.);
#273=ORIENTED_EDGE('',*,*,#324,.T.);
#274=ORIENTED_EDGE('',*,*,#363,.F.);
#275=ORIENTED_EDGE('',*,*,#361,.F.);
#276=ORIENTED_EDGE('',*,*,#364,.T.);
#277=ORIENTED_EDGE('',*,*,#325,.T.);
#278=ORIENTED_EDGE('',*,*,#345,.T.);
#279=ORIENTED_EDGE('',*,*,#306,.F.);
#280=ORIENTED_EDGE('',*,*,#295,.T.);
#281=ORIENTED_EDGE('',*,*,#319,.T.);
#282=ORIENTED_EDGE('',*,*,#364,.F.);
#283=ORIENTED_EDGE('',*,*,#342,.F.);
#284=ORIENTED_EDGE('',*,*,#365,.T.);
#285=ORIENTED_EDGE('',*,*,#353,.T.);
#286=ORIENTED_EDGE('',*,*,#362,.F.);
#287=ORIENTED_EDGE('',*,*,#336,.T.);
#288=ORIENTED_EDGE('',*,*,#365,.F.);
#289=ORIENTED_EDGE('',*,*,#366,.T.);
#290=ORIENTED_EDGE('',*,*,#352,.T.);
#291=ORIENTED_EDGE('',*,*,#335,.T.);
#292=ORIENTED_EDGE('',*,*,#367,.F.);
#293=ORIENTED_EDGE('',*,*,#367,.T.);
#294=ORIENTED_EDGE('',*,*,#366,.F.);
#295=EDGE_CURVE('',#368,#369,#418,.F.);
#296=EDGE_CURVE('',#370,#368,#131,.F.);
#297=EDGE_CURVE('',#370,#371,#41,.T.);
#298=EDGE_CURVE('',#369,#371,#132,.T.);
#299=EDGE_CURVE('',#372,#373,#42,.T.);
#300=EDGE_CURVE('',#373,#374,#43,.T.);
#301=EDGE_CURVE('',#375,#374,#44,.T.);
#302=EDGE_CURVE('',#375,#376,#45,.T.);
#303=EDGE_CURVE('',#377,#376,#46,.T.);
#304=EDGE_CURVE('',#377,#378,#47,.F.);
#305=EDGE_CURVE('',#378,#372,#48,.T.);
#306=EDGE_CURVE('',#368,#379,#49,.F.);
#307=EDGE_CURVE('',#380,#379,#50,.T.);
#308=EDGE_CURVE('',#380,#370,#51,.T.);
#309=EDGE_CURVE('',#381,#382,#52,.T.);
#310=EDGE_CURVE('',#381,#383,#53,.T.);
#311=EDGE_CURVE('',#383,#384,#54,.F.);
#312=EDGE_CURVE('',#382,#384,#55,.T.);
#313=EDGE_CURVE('',#383,#378,#133,.F.);
#314=EDGE_CURVE('',#384,#377,#134,.F.);
#315=EDGE_CURVE('',#385,#386,#419,.T.);
#316=EDGE_CURVE('',#387,#385,#135,.T.);
#317=EDGE_CURVE('',#388,#387,#56,.T.);
#318=EDGE_CURVE('',#386,#388,#136,.F.);
#319=EDGE_CURVE('',#369,#389,#57,.F.);
#320=EDGE_CURVE('',#390,#371,#58,.T.);
#321=EDGE_CURVE('',#391,#390,#137,.T.);
#322=EDGE_CURVE('',#391,#392,#138,.T.);
#323=EDGE_CURVE('',#392,#387,#59,.T.);
#324=EDGE_CURVE('',#393,#385,#60,.F.);
#325=EDGE_CURVE('',#389,#393,#139,.T.);
#326=EDGE_CURVE('',#394,#382,#12,.T.);
#327=EDGE_CURVE('',#395,#394,#13,.T.);
#328=EDGE_CURVE('',#392,#395,#14,.T.);
#329=EDGE_CURVE('',#391,#396,#61,.T.);
#330=EDGE_CURVE('',#396,#381,#62,.T.);
#331=EDGE_CURVE('',#397,#398,#140,.F.);
#332=EDGE_CURVE('',#399,#397,#63,.F.);
#333=EDGE_CURVE('',#399,#400,#141,.F.);
#334=EDGE_CURVE('',#400,#398,#64,.F.);
#335=EDGE_CURVE('',#401,#401,#142,.T.);
#336=EDGE_CURVE('',#402,#402,#143,.T.);
#337=EDGE_CURVE('',#403,#400,#65,.T.);
#338=EDGE_CURVE('',#404,#399,#66,.T.);
#339=EDGE_CURVE('',#405,#404,#15,.T.);
#340=EDGE_CURVE('',#405,#403,#67,.T.);
#341=EDGE_CURVE('',#398,#406,#68,.T.);
#342=EDGE_CURVE('',#406,#407,#69,.F.);
#343=EDGE_CURVE('',#408,#407,#70,.T.);
#344=EDGE_CURVE('',#408,#397,#71,.T.);
#345=EDGE_CURVE('',#406,#379,#72,.T.);
#346=EDGE_CURVE('',#409,#403,#73,.T.);
#347=EDGE_CURVE('',#409,#380,#74,.T.);
#348=EDGE_CURVE('',#408,#404,#75,.T.);
#349=EDGE_CURVE('',#410,#405,#16,.T.);
#350=EDGE_CURVE('',#396,#408,#76,.T.);
#351=EDGE_CURVE('',#390,#410,#17,.T.);
#352=EDGE_CURVE('',#411,#411,#144,.T.);
#353=EDGE_CURVE('',#412,#412,#145,.T.);
#354=EDGE_CURVE('',#394,#376,#77,.T.);
#355=EDGE_CURVE('',#381,#413,#78,.T.);
#356=EDGE_CURVE('',#413,#372,#79,.T.);
#357=EDGE_CURVE('',#395,#375,#80,.T.);
#358=EDGE_CURVE('',#374,#388,#81,.T.);
#359=EDGE_CURVE('',#410,#409,#82,.T.);
#360=EDGE_CURVE('',#373,#386,#83,.T.);
#361=EDGE_CURVE('',#407,#413,#146,.F.);
#362=EDGE_CURVE('',#414,#414,#420,.T.);
#363=EDGE_CURVE('',#413,#393,#84,.T.);
#364=EDGE_CURVE('',#407,#389,#85,.T.);
#365=EDGE_CURVE('',#415,#415,#421,.F.);
#366=EDGE_CURVE('',#416,#416,#147,.F.);
#367=EDGE_CURVE('',#417,#417,#148,.F.);
#368=VERTEX_POINT('',#756);
#369=VERTEX_POINT('',#757);
#370=VERTEX_POINT('',#759);
#371=VERTEX_POINT('',#761);
#372=VERTEX_POINT('',#765);
#373=VERTEX_POINT('',#766);
#374=VERTEX_POINT('',#768);
#375=VERTEX_POINT('',#770);
#376=VERTEX_POINT('',#772);
#377=VERTEX_POINT('',#774);
#378=VERTEX_POINT('',#776);
#379=VERTEX_POINT('',#780);
#380=VERTEX_POINT('',#782);
#381=VERTEX_POINT('',#786);
#382=VERTEX_POINT('',#787);
#383=VERTEX_POINT('',#789);
#384=VERTEX_POINT('',#791);
#385=VERTEX_POINT('',#798);
#386=VERTEX_POINT('',#799);
#387=VERTEX_POINT('',#801);
#388=VERTEX_POINT('',#803);
#389=VERTEX_POINT('',#807);
#390=VERTEX_POINT('',#809);
#391=VERTEX_POINT('',#811);
#392=VERTEX_POINT('',#813);
#393=VERTEX_POINT('',#816);
#394=VERTEX_POINT('',#882);
#395=VERTEX_POINT('',#887);
#396=VERTEX_POINT('',#894);
#397=VERTEX_POINT('',#898);
#398=VERTEX_POINT('',#899);
#399=VERTEX_POINT('',#901);
#400=VERTEX_POINT('',#903);
#401=VERTEX_POINT('',#907);
#402=VERTEX_POINT('',#909);
#403=VERTEX_POINT('',#911);
#404=VERTEX_POINT('',#913);
#405=VERTEX_POINT('',#918);
#406=VERTEX_POINT('',#922);
#407=VERTEX_POINT('',#924);
#408=VERTEX_POINT('',#926);
#409=VERTEX_POINT('',#931);
#410=VERTEX_POINT('',#999);
#411=VERTEX_POINT('',#1008);
#412=VERTEX_POINT('',#1010);
#413=VERTEX_POINT('',#1014);
#414=VERTEX_POINT('',#1029);
#415=VERTEX_POINT('',#1070);
#416=VERTEX_POINT('',#1075);
#417=VERTEX_POINT('',#1078);
#418=ELLIPSE('',#557,1.22447213116511,0.034);
#419=ELLIPSE('',#567,1.22447213116511,0.034);
#420=ELLIPSE('',#595,0.00100038572807606,0.001);
#421=ELLIPSE('',#597,0.00100038572807606,0.001);
#422=EDGE_LOOP('',(#149,#150,#151,#152));
#423=EDGE_LOOP('',(#153,#154,#155,#156,#157,#158,#159));
#424=EDGE_LOOP('',(#160,#161,#162,#163));
#425=EDGE_LOOP('',(#164,#165,#166,#167));
#426=EDGE_LOOP('',(#168,#169,#170,#171));
#427=EDGE_LOOP('',(#172,#173,#174,#175));
#428=EDGE_LOOP('',(#176,#177,#178,#179,#180,#181,#182,#183,#184));
#429=EDGE_LOOP('',(#185,#186,#187,#188,#189,#190,#191));
#430=EDGE_LOOP('',(#192,#193,#194,#195));
#431=EDGE_LOOP('',(#196));
#432=EDGE_LOOP('',(#197));
#433=EDGE_LOOP('',(#198,#199,#200,#201,#202));
#434=EDGE_LOOP('',(#203,#204,#205,#206,#207));
#435=EDGE_LOOP('',(#208,#209,#210,#211,#212,#213,#214));
#436=EDGE_LOOP('',(#215,#216,#217,#218));
#437=EDGE_LOOP('',(#219,#220,#221,#222,#223,#224,#225));
#438=EDGE_LOOP('',(#226));
#439=EDGE_LOOP('',(#227));
#440=EDGE_LOOP('',(#228,#229,#230,#231,#232));
#441=EDGE_LOOP('',(#233,#234,#235,#236,#237));
#442=EDGE_LOOP('',(#238,#239,#240,#241));
#443=EDGE_LOOP('',(#242,#243,#244,#245,#246,#247));
#444=EDGE_LOOP('',(#248,#249,#250,#251));
#445=EDGE_LOOP('',(#252,#253,#254,#255,#256,#257));
#446=EDGE_LOOP('',(#258,#259,#260,#261));
#447=EDGE_LOOP('',(#262,#263,#264,#265,#266));
#448=EDGE_LOOP('',(#267));
#449=EDGE_LOOP('',(#268,#269,#270,#271,#272,#273));
#450=EDGE_LOOP('',(#274,#275,#276,#277));
#451=EDGE_LOOP('',(#278,#279,#280,#281,#282,#283));
#452=EDGE_LOOP('',(#284));
#453=EDGE_LOOP('',(#285));
#454=EDGE_LOOP('',(#286));
#455=EDGE_LOOP('',(#287));
#456=EDGE_LOOP('',(#288));
#457=EDGE_LOOP('',(#289));
#458=EDGE_LOOP('',(#290));
#459=EDGE_LOOP('',(#291));
#460=EDGE_LOOP('',(#292));
#461=EDGE_LOOP('',(#293));
#462=EDGE_LOOP('',(#294));
#463=FACE_BOUND('',#422,.T.);
#464=FACE_BOUND('',#423,.T.);
#465=FACE_BOUND('',#424,.T.);
#466=FACE_BOUND('',#425,.T.);
#467=FACE_BOUND('',#426,.T.);
#468=FACE_BOUND('',#427,.T.);
#469=FACE_BOUND('',#428,.T.);
#470=FACE_BOUND('',#429,.T.);
#471=FACE_BOUND('',#430,.T.);
#472=FACE_BOUND('',#431,.T.);
#473=FACE_BOUND('',#432,.T.);
#474=FACE_BOUND('',#433,.T.);
#475=FACE_BOUND('',#434,.T.);
#476=FACE_BOUND('',#435,.T.);
#477=FACE_BOUND('',#436,.T.);
#478=FACE_BOUND('',#437,.T.);
#479=FACE_BOUND('',#438,.T.);
#480=FACE_BOUND('',#439,.T.);
#481=FACE_BOUND('',#440,.T.);
#482=FACE_BOUND('',#441,.T.);
#483=FACE_BOUND('',#442,.T.);
#484=FACE_BOUND('',#443,.T.);
#485=FACE_BOUND('',#444,.T.);
#486=FACE_BOUND('',#445,.T.);
#487=FACE_BOUND('',#446,.T.);
#488=FACE_BOUND('',#447,.T.);
#489=FACE_BOUND('',#448,.T.);
#490=FACE_BOUND('',#449,.T.);
#491=FACE_BOUND('',#450,.T.);
#492=FACE_BOUND('',#451,.T.);
#493=FACE_BOUND('',#452,.T.);
#494=FACE_BOUND('',#453,.T.);
#495=FACE_BOUND('',#454,.T.);
#496=FACE_BOUND('',#455,.T.);
#497=FACE_BOUND('',#456,.T.);
#498=FACE_BOUND('',#457,.T.);
#499=FACE_BOUND('',#458,.T.);
#500=FACE_BOUND('',#459,.T.);
#501=FACE_BOUND('',#460,.T.);
#502=FACE_BOUND('',#461,.T.);
#503=FACE_BOUND('',#462,.T.);
#504=CYLINDRICAL_SURFACE('',#556,0.034);
#505=CYLINDRICAL_SURFACE('',#563,0.03);
#506=CYLINDRICAL_SURFACE('',#566,0.034);
#507=CYLINDRICAL_SURFACE('',#574,0.03);
#508=CYLINDRICAL_SURFACE('',#598,0.001);
#509=CYLINDRICAL_SURFACE('',#599,0.001);
#510=CYLINDRICAL_SURFACE('',#600,0.001);
#511=CYLINDRICAL_SURFACE('',#602,0.001);
#512=ADVANCED_FACE('',(#463),#504,.F.);
#513=ADVANCED_FACE('',(#464),#21,.T.);
#514=ADVANCED_FACE('',(#465),#22,.F.);
#515=ADVANCED_FACE('',(#466),#23,.T.);
#516=ADVANCED_FACE('',(#467),#505,.T.);
#517=ADVANCED_FACE('',(#468),#506,.F.);
#518=ADVANCED_FACE('',(#469),#24,.T.);
#519=ADVANCED_FACE('',(#470),#18,.F.);
#520=ADVANCED_FACE('',(#471),#507,.T.);
#521=ADVANCED_FACE('',(#472,#473,#474),#25,.T.);
#522=ADVANCED_FACE('',(#475),#26,.F.);
#523=ADVANCED_FACE('',(#476),#27,.T.);
#524=ADVANCED_FACE('',(#477),#28,.T.);
#525=ADVANCED_FACE('',(#478),#19,.T.);
#526=ADVANCED_FACE('',(#479,#480,#481),#29,.T.);
#527=ADVANCED_FACE('',(#482),#30,.F.);
#528=ADVANCED_FACE('',(#483),#31,.F.);
#529=ADVANCED_FACE('',(#484),#32,.F.);
#530=ADVANCED_FACE('',(#485),#33,.T.);
#531=ADVANCED_FACE('',(#486),#34,.T.);
#532=ADVANCED_FACE('',(#487),#35,.F.);
#533=ADVANCED_FACE('',(#488),#36,.F.);
#534=ADVANCED_FACE('',(#489,#490),#37,.F.);
#535=ADVANCED_FACE('',(#491),#20,.F.);
#536=ADVANCED_FACE('',(#492,#493),#38,.T.);
#537=ADVANCED_FACE('',(#494,#495),#508,.F.);
#538=ADVANCED_FACE('',(#496,#497),#509,.F.);
#539=ADVANCED_FACE('',(#498,#499),#510,.F.);
#540=ADVANCED_FACE('',(#500,#501),#511,.F.);
#541=ADVANCED_FACE('',(#502),#39,.F.);
#542=ADVANCED_FACE('',(#503),#40,.T.);
#543=CLOSED_SHELL('',(#512,#513,#514,#515,#516,#517,#518,#519,#520,#521,
#522,#523,#524,#525,#526,#527,#528,#529,#530,#531,#532,#533,#534,#535,#536,
#537,#538,#539,#540,#541,#542));
#544=STYLED_ITEM('',(#545),#552);
#545=PRESENTATION_STYLE_ASSIGNMENT((#546));
#546=SURFACE_STYLE_USAGE(.BOTH.,#547);
#547=SURFACE_SIDE_STYLE('',(#548));
#548=SURFACE_STYLE_FILL_AREA(#549);
#549=FILL_AREA_STYLE('',(#550));
#550=FILL_AREA_STYLE_COLOUR('',#551);
#551=COLOUR_RGB('',0.764705882352941,0.545098039215686,0.803921568627451);
#552=MANIFOLD_SOLID_BREP('Part 2',#543);
#553=SHAPE_DEFINITION_REPRESENTATION(#1087,#554);
#554=SHAPE_REPRESENTATION('Part 2',(#555),#1082);
#555=AXIS2_PLACEMENT_3D('',#753,#606,#607);
#556=AXIS2_PLACEMENT_3D('',#754,#608,#609);
#557=AXIS2_PLACEMENT_3D('',#755,#610,#611);
#558=AXIS2_PLACEMENT_3D('',#758,#612,#613);
#559=AXIS2_PLACEMENT_3D('',#762,#615,#616);
#560=AXIS2_PLACEMENT_3D('',#763,#617,#618);
#561=AXIS2_PLACEMENT_3D('',#778,#626,#627);
#562=AXIS2_PLACEMENT_3D('',#784,#631,#632);
#563=AXIS2_PLACEMENT_3D('',#793,#637,#638);
#564=AXIS2_PLACEMENT_3D('',#794,#639,#640);
#565=AXIS2_PLACEMENT_3D('',#795,#641,#642);
#566=AXIS2_PLACEMENT_3D('',#796,#643,#644);
#567=AXIS2_PLACEMENT_3D('',#797,#645,#646);
#568=AXIS2_PLACEMENT_3D('',#800,#647,#648);
#569=AXIS2_PLACEMENT_3D('',#804,#650,#651);
#570=AXIS2_PLACEMENT_3D('',#805,#652,#653);
#571=AXIS2_PLACEMENT_3D('',#810,#656,#657);
#572=AXIS2_PLACEMENT_3D('',#812,#658,#659);
#573=AXIS2_PLACEMENT_3D('',#817,#662,#663);
#574=AXIS2_PLACEMENT_3D('',#896,#666,#667);
#575=AXIS2_PLACEMENT_3D('',#897,#668,#669);
#576=AXIS2_PLACEMENT_3D('',#902,#671,#672);
#577=AXIS2_PLACEMENT_3D('',#905,#674,#675);
#578=AXIS2_PLACEMENT_3D('',#906,#676,#677);
#579=AXIS2_PLACEMENT_3D('',#908,#678,#679);
#580=AXIS2_PLACEMENT_3D('',#920,#683,#684);
#581=AXIS2_PLACEMENT_3D('',#928,#689,#690);
#582=AXIS2_PLACEMENT_3D('',#933,#694,#695);
#583=AXIS2_PLACEMENT_3D('',#1006,#698,#699);
#584=AXIS2_PLACEMENT_3D('',#1007,#700,#701);
#585=AXIS2_PLACEMENT_3D('',#1009,#702,#703);
#586=AXIS2_PLACEMENT_3D('',#1012,#705,#706);
#587=AXIS2_PLACEMENT_3D('',#1016,#709,#710);
#588=AXIS2_PLACEMENT_3D('',#1018,#712,#713);
#589=AXIS2_PLACEMENT_3D('',#1020,#715,#716);
#590=AXIS2_PLACEMENT_3D('',#1022,#718,#719);
#591=AXIS2_PLACEMENT_3D('',#1023,#720,#721);
#592=AXIS2_PLACEMENT_3D('',#1025,#723,#724);
#593=AXIS2_PLACEMENT_3D('',#1026,#725,#726);
#594=AXIS2_PLACEMENT_3D('',#1027,#727,#728);
#595=AXIS2_PLACEMENT_3D('',#1028,#729,#730);
#596=AXIS2_PLACEMENT_3D('',#1068,#733,#734);
#597=AXIS2_PLACEMENT_3D('',#1069,#735,#736);
#598=AXIS2_PLACEMENT_3D('',#1071,#737,#738);
#599=AXIS2_PLACEMENT_3D('',#1072,#739,#740);
#600=AXIS2_PLACEMENT_3D('',#1073,#741,#742);
#601=AXIS2_PLACEMENT_3D('',#1074,#743,#744);
#602=AXIS2_PLACEMENT_3D('',#1076,#745,#746);
#603=AXIS2_PLACEMENT_3D('',#1077,#747,#748);
#604=AXIS2_PLACEMENT_3D('',#1079,#749,#750);
#605=AXIS2_PLACEMENT_3D('',#1080,#751,#752);
#606=DIRECTION('',(0.,0.,1.));
#607=DIRECTION('',(1.,0.,0.));
#608=DIRECTION('',(1.,0.,0.));
#609=DIRECTION('',(0.,1.22464679914735E-16,1.));
#610=DIRECTION('',(0.027767067240353,1.22417460063389E-16,0.999614420652718));
#611=DIRECTION('',(0.999614420652718,-3.40048500176076E-18,-0.027767067240353));
#612=DIRECTION('',(-1.,0.,0.));
#613=DIRECTION('',(0.,-1.22464679914735E-16,-1.));
#614=DIRECTION('',(1.,0.,0.));
#615=DIRECTION('',(-1.,0.,0.));
#616=DIRECTION('',(0.,1.22464679914735E-16,1.));
#617=DIRECTION('',(0.,-1.,1.22464679914735E-16));
#618=DIRECTION('',(-1.,0.,0.));
#619=DIRECTION('',(0.999614420652718,3.40048500176076E-18,0.027767067240353));
#620=DIRECTION('',(0.,1.22464679914735E-16,1.));
#621=DIRECTION('',(1.,0.,0.));
#622=DIRECTION('',(3.3848262945889E-16,1.22464679914735E-16,1.));
#623=DIRECTION('',(1.,-1.40298806261604E-32,-1.14562669301292E-16));
#624=DIRECTION('',(0.,1.22464679914735E-16,1.));
#625=DIRECTION('',(1.,0.,0.));
#626=DIRECTION('',(-1.,0.,0.));
#627=DIRECTION('',(0.,-1.22464679914735E-16,-1.));
#628=DIRECTION('',(0.,1.,-1.22464679914735E-16));
#629=DIRECTION('',(0.,1.22464679914735E-16,1.));
#630=DIRECTION('',(0.,1.,-1.22464679914735E-16));
#631=DIRECTION('',(0.,1.,-1.22464679914735E-16));
#632=DIRECTION('',(1.,0.,0.));
#633=DIRECTION('',(-2.77555756156289E-16,1.22464679914735E-16,1.));
#634=DIRECTION('',(-1.,0.,0.));
#635=DIRECTION('',(0.,-1.22464679914735E-16,-1.));
#636=DIRECTION('',(-1.,1.40298806261604E-32,1.14562669301292E-16));
#637=DIRECTION('',(0.,-1.22464679914735E-16,-1.));
#638=DIRECTION('',(1.,0.,0.));
#639=DIRECTION('',(0.,-1.22464679914735E-16,-1.));
#640=DIRECTION('',(1.,0.,0.));
#641=DIRECTION('',(-1.14562669301292E-16,-1.22464679914735E-16,-1.));
#642=DIRECTION('',(1.,-1.40298806261604E-32,-1.14562669301292E-16));
#643=DIRECTION('',(1.,0.,0.));
#644=DIRECTION('',(0.,1.22464679914735E-16,1.));
#645=DIRECTION('',(-0.027767067240353,1.22417460063389E-16,0.999614420652718));
#646=DIRECTION('',(0.999614420652718,3.40048500176076E-18,0.027767067240353));
#647=DIRECTION('',(-1.,0.,0.));
#648=DIRECTION('',(0.,1.22464679914735E-16,1.));
#649=DIRECTION('',(1.,0.,0.));
#650=DIRECTION('',(-1.,0.,0.));
#651=DIRECTION('',(0.,-1.22464679914735E-16,-1.));
#652=DIRECTION('',(1.,0.,0.));
#653=DIRECTION('',(0.,-1.,1.22464679914735E-16));
#654=DIRECTION('',(0.,-1.,1.22464679914735E-16));
#655=DIRECTION('',(0.,-1.,1.22464679914735E-16));
#656=DIRECTION('',(-1.,0.,0.));
#657=DIRECTION('',(0.,1.22464679914735E-16,1.));
#658=DIRECTION('',(1.,0.,0.));
#659=DIRECTION('',(0.,-1.22464679914735E-16,-1.));
#660=DIRECTION('',(0.,-1.,1.22464679914735E-16));
#661=DIRECTION('',(0.,1.,1.18613090738941E-17));
#662=DIRECTION('',(1.,0.,0.));
#663=DIRECTION('',(0.,1.22464679914735E-16,1.));
#664=DIRECTION('',(-0.98328200498446,-0.182089260182308,1.03163378640681E-16));
#665=DIRECTION('',(-2.77555756156289E-16,1.22464679914735E-16,1.));
#666=DIRECTION('',(0.,-1.22464679914735E-16,-1.));
#667=DIRECTION('',(1.,0.,0.));
#668=DIRECTION('',(0.,-1.22464679914735E-16,-1.));
#669=DIRECTION('',(1.,0.,0.));
#670=DIRECTION('',(0.,-1.22464679914735E-16,-1.));
#671=DIRECTION('',(1.14562669301292E-16,-1.22464679914735E-16,-1.));
#672=DIRECTION('',(1.,1.40298806261604E-32,1.14562669301292E-16));
#673=DIRECTION('',(0.,-1.22464679914735E-16,-1.));
#674=DIRECTION('',(0.,-1.22464679914735E-16,-1.));
#675=DIRECTION('',(1.,0.,0.));
#676=DIRECTION('',(0.,-1.22464679914735E-16,-1.));
#677=DIRECTION('',(1.,0.,0.));
#678=DIRECTION('',(0.,-1.22464679914735E-16,-1.));
#679=DIRECTION('',(1.,0.,0.));
#680=DIRECTION('',(-1.,-2.02326052596264E-32,-1.65211759616839E-16));
#681=DIRECTION('',(-1.,-1.40298806261604E-32,-1.14562669301292E-16));
#682=DIRECTION('',(0.,-1.,1.22464679914735E-16));
#683=DIRECTION('',(0.,-1.22464679914735E-16,-1.));
#684=DIRECTION('',(1.,0.,0.));
#685=DIRECTION('',(1.,0.,0.));
#686=DIRECTION('',(0.,-1.,1.22464679914735E-16));
#687=DIRECTION('',(0.,-1.,1.22464679914735E-16));
#688=DIRECTION('',(-1.,0.,0.));
#689=DIRECTION('',(0.,-1.,1.22464679914735E-16));
#690=DIRECTION('',(-1.,0.,0.));
#691=DIRECTION('',(0.999614420652718,-3.40048500176076E-18,-0.027767067240353));
#692=DIRECTION('',(3.3848262945889E-16,-1.22464679914735E-16,-1.));
#693=DIRECTION('',(1.,0.,0.));
#694=DIRECTION('',(0.,1.,-1.22464679914735E-16));
#695=DIRECTION('',(1.,0.,0.));
#696=DIRECTION('',(-2.77555756156289E-16,-1.22464679914735E-16,-1.));
#697=DIRECTION('',(-2.77555756156289E-16,-1.22464679914735E-16,-1.));
#698=DIRECTION('',(0.,1.22464679914735E-16,1.));
#699=DIRECTION('',(1.,0.,0.));
#700=DIRECTION('',(0.,1.22464679914735E-16,1.));
#701=DIRECTION('',(-1.,0.,0.));
#702=DIRECTION('',(0.,1.22464679914735E-16,1.));
#703=DIRECTION('',(-1.,0.,0.));
#704=DIRECTION('',(0.,-1.,1.22464679914735E-16));
#705=DIRECTION('',(0.,1.22464679914735E-16,1.));
#706=DIRECTION('',(1.,0.,0.));
#707=DIRECTION('',(0.,-1.,1.22464679914735E-16));
#708=DIRECTION('',(0.,-1.,1.22464679914735E-16));
#709=DIRECTION('',(-1.,0.,0.));
#710=DIRECTION('',(0.,-1.22464679914735E-16,-1.));
#711=DIRECTION('',(0.,-1.,1.22464679914735E-16));
#712=DIRECTION('',(0.,-1.22464679914735E-16,-1.));
#713=DIRECTION('',(1.,0.,0.));
#714=DIRECTION('',(0.,1.,-1.22464679914735E-16));
#715=DIRECTION('',(1.,0.,0.));
#716=DIRECTION('',(0.,1.22464679914735E-16,1.));
#717=DIRECTION('',(0.,-1.,1.22464679914735E-16));
#718=DIRECTION('',(5.89478777407934E-17,-1.22464679914735E-16,-1.));
#719=DIRECTION('',(1.,7.21903297917921E-33,5.89478777407934E-17));
#720=DIRECTION('',(-1.,0.,0.));
#721=DIRECTION('',(0.,-1.22464679914735E-16,-1.));
#722=DIRECTION('',(0.,1.,-1.22464679914735E-16));
#723=DIRECTION('',(1.,0.,0.));
#724=DIRECTION('',(0.,-1.,1.22464679914735E-16));
#725=DIRECTION('',(-1.,0.,0.));
#726=DIRECTION('',(0.,-1.22464679914735E-16,-1.));
#727=DIRECTION('',(-0.027767067240353,1.22417460063389E-16,0.999614420652718));
#728=DIRECTION('',(-0.999614420652718,-3.40048500176076E-18,-0.027767067240353));
#729=DIRECTION('',(-0.027767067240353,1.22417460063389E-16,0.999614420652718));
#730=DIRECTION('',(0.999614420652718,3.40048500176076E-18,0.027767067240353));
#731=DIRECTION('',(0.984353047954937,0.174073058411352,0.0273431402209702));
#732=DIRECTION('',(0.984353047954937,0.174073058411353,-0.0273431402209702));
#733=DIRECTION('',(0.027767067240353,1.22417460063389E-16,0.999614420652718));
#734=DIRECTION('',(-0.999614420652718,3.40048500176076E-18,0.027767067240353));
#735=DIRECTION('',(0.027767067240353,1.22417460063389E-16,0.999614420652718));
#736=DIRECTION('',(-0.999614420652718,3.40048500176076E-18,0.027767067240353));
#737=DIRECTION('',(0.,1.22464679914735E-16,1.));
#738=DIRECTION('',(-1.,0.,0.));
#739=DIRECTION('',(0.,1.22464679914735E-16,1.));
#740=DIRECTION('',(-1.,0.,0.));
#741=DIRECTION('',(0.,1.22464679914735E-16,1.));
#742=DIRECTION('',(-1.,0.,0.));
#743=DIRECTION('',(0.,1.22464679914735E-16,1.));
#744=DIRECTION('',(-1.,0.,0.));
#745=DIRECTION('',(0.,1.22464679914735E-16,1.));
#746=DIRECTION('',(-1.,0.,0.));
#747=DIRECTION('',(0.,1.22464679914735E-16,1.));
#748=DIRECTION('',(-1.,0.,0.));
#749=DIRECTION('',(0.,1.22464679914735E-16,1.));
#750=DIRECTION('',(-1.,0.,0.));
#751=DIRECTION('',(0.,1.22464679914735E-16,1.));
#752=DIRECTION('',(-1.,0.,0.));
#753=CARTESIAN_POINT('',(0.,0.,0.));
#754=CARTESIAN_POINT('',(0.131,0.,1.98364941940433E-17));
#755=CARTESIAN_POINT('',(-0.328000000000004,0.,1.98364941940433E-17));
#756=CARTESIAN_POINT('',(0.125,0.0315857518862892,-0.0125833333333333));
#757=CARTESIAN_POINT('',(0.14,0.0314165561448101,-0.013));
#758=CARTESIAN_POINT('',(0.125,0.,1.98364941940433E-17));
#759=CARTESIAN_POINT('',(0.125,0.0305122926047847,-0.015));
#760=CARTESIAN_POINT('',(0.131,0.0305122926047847,-0.015));
#761=CARTESIAN_POINT('',(0.14,0.0305122926047847,-0.015));
#762=CARTESIAN_POINT('',(0.14,0.,1.98364941940433E-17));
#763=CARTESIAN_POINT('',(0.0267157287525381,0.01,-0.01525));
#764=CARTESIAN_POINT('',(0.032,0.01,0.01));
#765=CARTESIAN_POINT('',(0.032,0.01,0.01));
#766=CARTESIAN_POINT('',(0.125,0.01,0.0125833333333333));
#767=CARTESIAN_POINT('',(0.125,0.01,-0.0075));
#768=CARTESIAN_POINT('',(0.125,0.01,0.015));
#769=CARTESIAN_POINT('',(0.085,0.01,0.015));
#770=CARTESIAN_POINT('',(0.0517157287525381,0.01,0.015));
#771=CARTESIAN_POINT('',(0.0517157287525381,0.01,0.01025));
#772=CARTESIAN_POINT('',(0.0517157287525381,0.01,0.0205));
#773=CARTESIAN_POINT('',(0.0267157287525381,0.01,0.0205));
#774=CARTESIAN_POINT('',(0.0076393202250021,0.01,0.0205));
#775=CARTESIAN_POINT('',(0.0076393202250021,0.01,0.0125));
#776=CARTESIAN_POINT('',(0.00763932022500211,0.01,0.01));
#777=CARTESIAN_POINT('',(0.0267157287525381,0.01,0.01));
#778=CARTESIAN_POINT('',(0.125,-0.015,-0.0075));
#779=CARTESIAN_POINT('',(0.125,-0.015,-0.0125833333333333));
#780=CARTESIAN_POINT('',(0.125,0.01,-0.0125833333333333));
#781=CARTESIAN_POINT('',(0.125,0.01,-0.0075));
#782=CARTESIAN_POINT('',(0.125,0.01,-0.015));
#783=CARTESIAN_POINT('',(0.125,0.,-0.015));
#784=CARTESIAN_POINT('',(0.016,0.02,-0.0125));
#785=CARTESIAN_POINT('',(0.032,0.02,0.0125));
#786=CARTESIAN_POINT('',(0.032,0.02,0.01));
#787=CARTESIAN_POINT('',(0.032,0.02,0.0205));
#788=CARTESIAN_POINT('',(0.032002,0.02,0.01));
#789=CARTESIAN_POINT('',(0.03,0.02,0.01));
#790=CARTESIAN_POINT('',(0.03,0.02,-0.0125));
#791=CARTESIAN_POINT('',(0.03,0.02,0.0205));
#792=CARTESIAN_POINT('',(0.016,0.02,0.0205));
#793=CARTESIAN_POINT('',(0.03,-0.01,-0.0125));
#794=CARTESIAN_POINT('',(0.03,-0.01,0.01));
#795=CARTESIAN_POINT('',(0.03,-0.01,0.0205));
#796=CARTESIAN_POINT('',(0.131,0.,1.98364941940433E-17));
#797=CARTESIAN_POINT('',(-0.328000000000004,0.,1.98364941940433E-17));
#798=CARTESIAN_POINT('',(0.14,0.0314165561448101,0.013));
#799=CARTESIAN_POINT('',(0.125,0.0315857518862892,0.0125833333333333));
#800=CARTESIAN_POINT('',(0.14,0.,1.98364941940433E-17));
#801=CARTESIAN_POINT('',(0.14,0.0305122926047847,0.015));
#802=CARTESIAN_POINT('',(0.131,0.0305122926047847,0.015));
#803=CARTESIAN_POINT('',(0.125,0.0305122926047847,0.015));
#804=CARTESIAN_POINT('',(0.125,0.,1.98364941940433E-17));
#805=CARTESIAN_POINT('',(0.14,0.,-0.02));
#806=CARTESIAN_POINT('',(0.14,0.0229142803193777,-0.013));
#807=CARTESIAN_POINT('',(0.14,0.0358285606387555,-0.013));
#808=CARTESIAN_POINT('',(0.14,0.335593660483547,-0.015));
#809=CARTESIAN_POINT('',(0.14,0.0370809920345105,-0.015));
#810=CARTESIAN_POINT('',(0.14,0.,2.20436423846523E-17));
#811=CARTESIAN_POINT('',(0.14,0.04,2.6484534483153E-17));
#812=CARTESIAN_POINT('',(0.14,0.,2.69422295812418E-17));
#813=CARTESIAN_POINT('',(0.14,0.0370809924354783,0.015));
#814=CARTESIAN_POINT('',(0.14,0.335593660483547,0.015));
#815=CARTESIAN_POINT('',(0.14,0.0229142803193777,0.013));
#816=CARTESIAN_POINT('',(0.14,0.0358285606387555,0.013));
#817=CARTESIAN_POINT('',(0.14,-0.00199999999999961,-1.94975832946321E-17));
#818=CARTESIAN_POINT('',(0.14,0.04,2.84761329833589E-17));
#819=CARTESIAN_POINT('',(0.032,0.02,2.20436423846523E-17));
#820=CARTESIAN_POINT('',(0.14,0.04,0.000872664748452081));
#821=CARTESIAN_POINT('',(0.032,0.02,0.000520833333333353));
#822=CARTESIAN_POINT('',(0.14,0.0399714319268528,0.0017453289851598));
#823=CARTESIAN_POINT('',(0.032,0.02,0.00104166666666669));
#824=CARTESIAN_POINT('',(0.14,0.0398572819322355,0.0034869213532517));
#825=CARTESIAN_POINT('',(0.032,0.02,0.00208333333333336));
#826=CARTESIAN_POINT('',(0.14,0.0397717000456689,0.00435584882965451));
#827=CARTESIAN_POINT('',(0.032,0.02,0.00260416666666669));
#828=CARTESIAN_POINT('',(0.14,0.0395438888642359,0.00608624654794968));
#829=CARTESIAN_POINT('',(0.032,0.02,0.00364583333333336));
#830=CARTESIAN_POINT('',(0.14,0.0394016596390271,0.00694771626073855));
#831=CARTESIAN_POINT('',(0.032,0.02,0.00416666666666669));
#832=CARTESIAN_POINT('',(0.14,0.0390611627932314,0.00865950950055177));
#833=CARTESIAN_POINT('',(0.032,0.02,0.00520833333333336));
#834=CARTESIAN_POINT('',(0.14,0.038862895276758,0.00950983250416131));
#835=CARTESIAN_POINT('',(0.032,0.02,0.00572916666666669));
#836=CARTESIAN_POINT('',(0.14,0.0384111708263674,0.0111956911040404));
#837=CARTESIAN_POINT('',(0.032,0.02,0.00677083333333336));
#838=CARTESIAN_POINT('',(0.14,0.0381577140305737,0.0120312261848252));
#839=CARTESIAN_POINT('',(0.032,0.02,0.00729166666666669));
#840=CARTESIAN_POINT('',(0.14,0.0375966963290347,0.0136839310394278));
#841=CARTESIAN_POINT('',(0.032,0.02,0.00833333333333336));
#842=CARTESIAN_POINT('',(0.14,0.0372891355948317,0.0145011003078982));
#843=CARTESIAN_POINT('',(0.032,0.02,0.00885416666666669));
#844=CARTESIAN_POINT('',(0.14,0.0366212270060713,0.016113574281309));
#845=CARTESIAN_POINT('',(0.032,0.02,0.00989583333333336));
#846=CARTESIAN_POINT('',(0.14,0.0362608793557403,0.0169088784932034));
#847=CARTESIAN_POINT('',(0.032,0.02,0.0104166666666667));
#848=CARTESIAN_POINT('',(0.14,0.0354889399668748,0.0184742167243167));
#849=CARTESIAN_POINT('',(0.032,0.02,0.0114583333333334));
#850=CARTESIAN_POINT('',(0.14,0.0350773484643761,0.0192442502649025));
#851=CARTESIAN_POINT('',(0.032,0.02,0.0119791666666667));
#852=CARTESIAN_POINT('',(0.14,0.034204683838379,0.0207557497350976));
#853=CARTESIAN_POINT('',(0.032,0.02,0.0130208333333334));
#854=CARTESIAN_POINT('',(0.14,0.033743610981715,0.0214972152025361));
#855=CARTESIAN_POINT('',(0.032,0.02,0.0135416666666667));
#856=CARTESIAN_POINT('',(0.14,0.0327739580024886,0.0229484034390322));
#857=CARTESIAN_POINT('',(0.032,0.02,0.0145833333333334));
#858=CARTESIAN_POINT('',(0.14,0.0322653781764168,0.02365812576436));
#859=CARTESIAN_POINT('',(0.032,0.02,0.0151041666666667));
#860=CARTESIAN_POINT('',(0.14,0.031202889046882,0.0250427885563377));
#861=CARTESIAN_POINT('',(0.032,0.02,0.0161458333333334));
#862=CARTESIAN_POINT('',(0.14,0.0306489800682962,0.0257177285995993));
#863=CARTESIAN_POINT('',(0.032,0.02,0.0166666666666667));
#864=CARTESIAN_POINT('',(0.14,0.029498204530022,0.0270299366084062));
#865=CARTESIAN_POINT('',(0.032,0.02,0.0177083333333334));
#866=CARTESIAN_POINT('',(0.14,0.0289013383222061,0.0276672041727177));
#867=CARTESIAN_POINT('',(0.032,0.02,0.0182291666666667));
#868=CARTESIAN_POINT('',(0.14,0.0276672041727177,0.0289013383222061));
#869=CARTESIAN_POINT('',(0.032,0.02,0.0192708333333334));
#870=CARTESIAN_POINT('',(0.14,0.0270299366084062,0.029498204530022));
#871=CARTESIAN_POINT('',(0.032,0.02,0.0197916666666667));
#872=CARTESIAN_POINT('',(0.14,0.0262434516162477,0.030187933356642));
#873=CARTESIAN_POINT('',(0.032,0.02,0.020416));
#874=CARTESIAN_POINT('',(0.14,0.0261123268001293,0.0303014262244528));
#875=CARTESIAN_POINT('',(0.032,0.02,0.0205195));
#876=CARTESIAN_POINT('',(0.14,0.0259804694926499,0.030414061598554));
#877=CARTESIAN_POINT('',(0.032,0.02,0.020623));
#878=CARTESIAN_POINT('',(0.0517157287525381,0.0215103329676018,0.0205));
#879=CARTESIAN_POINT('',(0.0451530567395266,0.0208863023562265,0.0205));
#880=CARTESIAN_POINT('',(0.0385818260783964,0.0203739954431453,0.0205));
#881=CARTESIAN_POINT('',(0.032,0.02,0.0205));
#882=CARTESIAN_POINT('',(0.0517157287525381,0.0215103329676018,0.0205));
#883=CARTESIAN_POINT('',(0.0517157287525381,0.0225064191757127,0.015));
#884=CARTESIAN_POINT('',(0.0517157287525381,0.0222247265621533,0.0168424495364915));
#885=CARTESIAN_POINT('',(0.0517157287525381,0.0218922028040024,0.0186756932180611));
#886=CARTESIAN_POINT('',(0.0517157287525381,0.0215103329676018,0.0205));
#887=CARTESIAN_POINT('',(0.0517157287525381,0.0225064191757127,0.015));
#888=CARTESIAN_POINT('',(0.140000000030676,0.0370809922663691,0.01499999993159));
#889=CARTESIAN_POINT('',(0.125321277011154,0.0344392868757453,0.01499999993159));
#890=CARTESIAN_POINT('',(0.0959450536414835,0.0292537408088888,0.0150000000342051));
#891=CARTESIAN_POINT('',(0.0664908141649592,0.0245510924896073,0.015));
#892=CARTESIAN_POINT('',(0.0517157287525381,0.0225064191757127,0.015));
#893=CARTESIAN_POINT('',(0.086,0.03,1.63781034870044E-17));
#894=CARTESIAN_POINT('',(0.032,0.02,2.20436423846523E-17));
#895=CARTESIAN_POINT('',(0.032,0.02,0.0125));
#896=CARTESIAN_POINT('',(0.03,-0.01,-0.0125));
#897=CARTESIAN_POINT('',(0.03,-0.01,-0.01));
#898=CARTESIAN_POINT('',(0.03,0.02,-0.01));
#899=CARTESIAN_POINT('',(0.00763932022500211,0.01,-0.01));
#900=CARTESIAN_POINT('',(0.03,0.02,-0.0125));
#901=CARTESIAN_POINT('',(0.03,0.02,-0.0205));
#902=CARTESIAN_POINT('',(0.03,-0.01,-0.0205));
#903=CARTESIAN_POINT('',(0.0076393202250021,0.01,-0.0205));
#904=CARTESIAN_POINT('',(0.0076393202250021,0.01,-0.0125));
#905=CARTESIAN_POINT('',(0.0112157287525381,0.01,-0.0205));
#906=CARTESIAN_POINT('',(0.0497157287525381,0.0133537634599405,-0.0205));
#907=CARTESIAN_POINT('',(0.0507157287525381,0.0133537634599405,-0.0205));
#908=CARTESIAN_POINT('',(0.0397157287525381,0.0133537634599405,-0.0205));
#909=CARTESIAN_POINT('',(0.0407157287525381,0.0133537634599405,-0.0205));
#910=CARTESIAN_POINT('',(0.0412157287525381,0.01,-0.0205));
#911=CARTESIAN_POINT('',(0.0517157287525381,0.01,-0.0205));
#912=CARTESIAN_POINT('',(0.016,0.02,-0.0205));
#913=CARTESIAN_POINT('',(0.032,0.02,-0.0205));
#914=CARTESIAN_POINT('',(0.0517157287525381,0.0215103329676018,-0.0205));
#915=CARTESIAN_POINT('',(0.0451530567395266,0.0208863023562265,-0.0205));
#916=CARTESIAN_POINT('',(0.0385818260783964,0.0203739954431453,-0.0205));
#917=CARTESIAN_POINT('',(0.032,0.02,-0.0205));
#918=CARTESIAN_POINT('',(0.0517157287525381,0.0215103329676018,-0.0205));
#919=CARTESIAN_POINT('',(0.0517157287525381,0.335593660483547,-0.0205));
#920=CARTESIAN_POINT('',(0.01,0.166142477258362,-0.01));
#921=CARTESIAN_POINT('',(0.0267157287525381,0.01,-0.01));
#922=CARTESIAN_POINT('',(0.032,0.01,-0.01));
#923=CARTESIAN_POINT('',(0.032,0.166142477258362,-0.01));
#924=CARTESIAN_POINT('',(0.032,0.0167298334620741,-0.01));
#925=CARTESIAN_POINT('',(0.032,0.166142477258362,-0.01));
#926=CARTESIAN_POINT('',(0.032,0.02,-0.01));
#927=CARTESIAN_POINT('',(0.032002,0.02,-0.01));
#928=CARTESIAN_POINT('',(0.0267157287525381,0.01,-0.01525));
#929=CARTESIAN_POINT('',(0.032,0.01,-0.01));
#930=CARTESIAN_POINT('',(0.0517157287525381,0.01,-0.01025));
#931=CARTESIAN_POINT('',(0.0517157287525381,0.01,-0.015));
#932=CARTESIAN_POINT('',(0.085,0.01,-0.015));
#933=CARTESIAN_POINT('',(0.016,0.02,-0.0125));
#934=CARTESIAN_POINT('',(0.032,0.02,-0.0125));
#935=CARTESIAN_POINT('',(0.14,0.04,1.07125645893564E-17));
#936=CARTESIAN_POINT('',(0.032,0.02,2.20436423846523E-17));
#937=CARTESIAN_POINT('',(0.14,0.04,-0.000872664748452042));
#938=CARTESIAN_POINT('',(0.032,0.02,-0.000520833333333309));
#939=CARTESIAN_POINT('',(0.14,0.0399714319268528,-0.00174532898515976));
#940=CARTESIAN_POINT('',(0.032,0.02,-0.00104166666666665));
#941=CARTESIAN_POINT('',(0.14,0.0398572819322355,-0.00348692135325166));
#942=CARTESIAN_POINT('',(0.032,0.02,-0.00208333333333332));
#943=CARTESIAN_POINT('',(0.14,0.0397717000456689,-0.00435584882965447));
#944=CARTESIAN_POINT('',(0.032,0.02,-0.00260416666666665));
#945=CARTESIAN_POINT('',(0.14,0.0395438888642359,-0.00608624654794964));
#946=CARTESIAN_POINT('',(0.032,0.02,-0.00364583333333331));
#947=CARTESIAN_POINT('',(0.14,0.0394016596390271,-0.00694771626073851));
#948=CARTESIAN_POINT('',(0.032,0.02,-0.00416666666666665));
#949=CARTESIAN_POINT('',(0.14,0.0390611627932314,-0.00865950950055173));
#950=CARTESIAN_POINT('',(0.032,0.02,-0.00520833333333331));
#951=CARTESIAN_POINT('',(0.14,0.038862895276758,-0.00950983250416127));
#952=CARTESIAN_POINT('',(0.032,0.02,-0.00572916666666665));
#953=CARTESIAN_POINT('',(0.14,0.0384111708263674,-0.0111956911040404));
#954=CARTESIAN_POINT('',(0.032,0.02,-0.00677083333333331));
#955=CARTESIAN_POINT('',(0.14,0.0381577140305737,-0.0120312261848252));
#956=CARTESIAN_POINT('',(0.032,0.02,-0.00729166666666665));
#957=CARTESIAN_POINT('',(0.14,0.0375966963290347,-0.0136839310394277));
#958=CARTESIAN_POINT('',(0.032,0.02,-0.00833333333333331));
#959=CARTESIAN_POINT('',(0.14,0.0372891355948317,-0.0145011003078982));
#960=CARTESIAN_POINT('',(0.032,0.02,-0.00885416666666665));
#961=CARTESIAN_POINT('',(0.14,0.0366212270060713,-0.016113574281309));
#962=CARTESIAN_POINT('',(0.032,0.02,-0.00989583333333331));
#963=CARTESIAN_POINT('',(0.14,0.0362608793557403,-0.0169088784932034));
#964=CARTESIAN_POINT('',(0.032,0.02,-0.0104166666666666));
#965=CARTESIAN_POINT('',(0.14,0.0354889399668748,-0.0184742167243167));
#966=CARTESIAN_POINT('',(0.032,0.02,-0.0114583333333333));
#967=CARTESIAN_POINT('',(0.14,0.0350773484643761,-0.0192442502649024));
#968=CARTESIAN_POINT('',(0.032,0.02,-0.0119791666666666));
#969=CARTESIAN_POINT('',(0.14,0.034204683838379,-0.0207557497350976));
#970=CARTESIAN_POINT('',(0.032,0.02,-0.0130208333333333));
#971=CARTESIAN_POINT('',(0.14,0.033743610981715,-0.0214972152025361));
#972=CARTESIAN_POINT('',(0.032,0.02,-0.0135416666666666));
#973=CARTESIAN_POINT('',(0.14,0.0327739580024886,-0.0229484034390321));
#974=CARTESIAN_POINT('',(0.032,0.02,-0.0145833333333333));
#975=CARTESIAN_POINT('',(0.14,0.0322653781764168,-0.02365812576436));
#976=CARTESIAN_POINT('',(0.032,0.02,-0.0151041666666666));
#977=CARTESIAN_POINT('',(0.14,0.031202889046882,-0.0250427885563376));
#978=CARTESIAN_POINT('',(0.032,0.02,-0.0161458333333333));
#979=CARTESIAN_POINT('',(0.14,0.0306489800682962,-0.0257177285995993));
#980=CARTESIAN_POINT('',(0.032,0.02,-0.0166666666666666));
#981=CARTESIAN_POINT('',(0.14,0.029498204530022,-0.0270299366084062));
#982=CARTESIAN_POINT('',(0.032,0.02,-0.0177083333333333));
#983=CARTESIAN_POINT('',(0.14,0.0289013383222061,-0.0276672041727177));
#984=CARTESIAN_POINT('',(0.032,0.02,-0.0182291666666667));
#985=CARTESIAN_POINT('',(0.14,0.0276672041727177,-0.0289013383222061));
#986=CARTESIAN_POINT('',(0.032,0.02,-0.0192708333333333));
#987=CARTESIAN_POINT('',(0.14,0.0270299366084062,-0.029498204530022));
#988=CARTESIAN_POINT('',(0.032,0.02,-0.0197916666666666));
#989=CARTESIAN_POINT('',(0.14,0.0262434516162477,-0.030187933356642));
#990=CARTESIAN_POINT('',(0.032,0.02,-0.020416));
#991=CARTESIAN_POINT('',(0.14,0.0261123268001293,-0.0303014262244528));
#992=CARTESIAN_POINT('',(0.032,0.02,-0.0205195));
#993=CARTESIAN_POINT('',(0.14,0.0259804694926498,-0.030414061598554));
#994=CARTESIAN_POINT('',(0.032,0.02,-0.020623));
#995=CARTESIAN_POINT('',(0.0517157287525381,0.0225064191757127,-0.015));
#996=CARTESIAN_POINT('',(0.0517157287525381,0.0222247265621533,-0.0168424495364915));
#997=CARTESIAN_POINT('',(0.0517157287525381,0.0218922028040024,-0.0186756932180611));
#998=CARTESIAN_POINT('',(0.0517157287525381,0.0215103329676018,-0.0205));
#999=CARTESIAN_POINT('',(0.0517157287525381,0.0225064191757127,-0.015));
#1000=CARTESIAN_POINT('',(0.032,0.02,-0.0125));
#1001=CARTESIAN_POINT('',(0.14,0.0370809920329488,-0.0149999999993636));
#1002=CARTESIAN_POINT('',(0.125321276991063,0.0344392866456959,-0.0149999999993636));
#1003=CARTESIAN_POINT('',(0.0959450535874932,0.0292537409129842,-0.0150000000003181));
#1004=CARTESIAN_POINT('',(0.0664908141532537,0.0245510924879875,-0.015));
#1005=CARTESIAN_POINT('',(0.0517157287525381,0.0225064191757127,-0.015));
#1006=CARTESIAN_POINT('',(0.0112157287525381,0.01,0.0205));
#1007=CARTESIAN_POINT('',(0.0497157287525381,0.0133537634599405,0.0205));
#1008=CARTESIAN_POINT('',(0.0487157287525381,0.0133537634599405,0.0205));
#1009=CARTESIAN_POINT('',(0.0397157287525381,0.0133537634599405,0.0205));
#1010=CARTESIAN_POINT('',(0.0387157287525381,0.0133537634599405,0.0205));
#1011=CARTESIAN_POINT('',(0.0517157287525381,0.335593660483547,0.0205));
#1012=CARTESIAN_POINT('',(0.01,0.166142477258362,0.01));
#1013=CARTESIAN_POINT('',(0.032,0.166142477258362,0.01));
#1014=CARTESIAN_POINT('',(0.032,0.0167298334620741,0.01));
#1015=CARTESIAN_POINT('',(0.032,0.166142477258362,0.01));
#1016=CARTESIAN_POINT('',(0.0517157287525381,0.335593660483547,0.01775));
#1017=CARTESIAN_POINT('',(0.0517157287525381,0.335593660483547,0.015));
#1018=CARTESIAN_POINT('',(0.085,0.335593660483547,0.015));
#1019=CARTESIAN_POINT('',(0.125,0.,0.015));
#1020=CARTESIAN_POINT('',(0.0517157287525381,0.335593660483547,-0.01775));
#1021=CARTESIAN_POINT('',(0.0517157287525381,0.335593660483547,-0.015));
#1022=CARTESIAN_POINT('',(0.0958578643762691,0.335593660483547,-0.015));
#1023=CARTESIAN_POINT('',(0.125,-0.015,-0.0075));
#1024=CARTESIAN_POINT('',(0.125,-0.015,0.0125833333333333));
#1025=CARTESIAN_POINT('',(0.032,0.02,2.20436423846523E-17));
#1026=CARTESIAN_POINT('',(0.032,-0.022,2.8921882417048E-17));
#1027=CARTESIAN_POINT('',(-0.000252891287586736,0.2,0.0091040863531226));
#1028=CARTESIAN_POINT('',(0.0397157287525381,0.0133537634599405,0.0102143257986816));
#1029=CARTESIAN_POINT('',(0.0407157287525381,0.0133537634599405,0.0102421035764594));
#1030=CARTESIAN_POINT('',(0.086,0.0262791970504148,0.0115));
#1031=CARTESIAN_POINT('',(0.032,0.0167298334620741,-0.01));
#1032=CARTESIAN_POINT('',(0.14,0.0358285606387555,-0.013));
#1033=CARTESIAN_POINT('',(0.032,0.0169404003670003,-0.0091844778839585));
#1034=CARTESIAN_POINT('',(0.14,0.0361871568060977,-0.0119565248568361));
#1035=CARTESIAN_POINT('',(0.032,0.0171252003136693,-0.00836230321058024));
#1036=CARTESIAN_POINT('',(0.14,0.0365025525157769,-0.0108982053789802));
#1037=CARTESIAN_POINT('',(0.032,0.0174425294491447,-0.00670792704371344));
#1038=CARTESIAN_POINT('',(0.14,0.037044786161839,-0.00875911549694657));
#1039=CARTESIAN_POINT('',(0.032,0.0175750585281082,-0.00587572608851341));
#1040=CARTESIAN_POINT('',(0.14,0.0372716235459739,-0.00767834713827786));
#1041=CARTESIAN_POINT('',(0.032,0.0177873171732651,-0.00420461731010471));
#1042=CARTESIAN_POINT('',(0.14,0.0376351876372216,-0.00550175714429744));
#1043=CARTESIAN_POINT('',(0.032,0.0178670466831366,-0.00336570993031696));
#1044=CARTESIAN_POINT('',(0.14,0.0377719140602668,-0.00440593720964501));
#1045=CARTESIAN_POINT('',(0.032,0.0179733881106127,-0.0016845348107887));
#1046=CARTESIAN_POINT('',(0.14,0.0379543203129168,-0.00220674399181837));
#1047=CARTESIAN_POINT('',(0.032,0.018,-0.000842267517140228));
#1048=CARTESIAN_POINT('',(0.14,0.038,-0.00110337242696427));
#1049=CARTESIAN_POINT('',(0.032,0.018,0.000842267517140291));
#1050=CARTESIAN_POINT('',(0.14,0.038,0.00110337242696435));
#1051=CARTESIAN_POINT('',(0.032,0.0179733881106127,0.0016845348107888));
#1052=CARTESIAN_POINT('',(0.14,0.0379543203129168,0.00220674399181841));
#1053=CARTESIAN_POINT('',(0.032,0.0178670466831366,0.00336570993031706));
#1054=CARTESIAN_POINT('',(0.14,0.0377719140602668,0.00440593720964505));
#1055=CARTESIAN_POINT('',(0.032,0.0177873171732651,0.00420461731010478));
#1056=CARTESIAN_POINT('',(0.14,0.0376351876372216,0.00550175714429752));
#1057=CARTESIAN_POINT('',(0.032,0.0175750585281082,0.00587572608851347));
#1058=CARTESIAN_POINT('',(0.14,0.0372716235459739,0.00767834713827794));
#1059=CARTESIAN_POINT('',(0.032,0.0174425294491447,0.0067079270437135));
#1060=CARTESIAN_POINT('',(0.14,0.037044786161839,0.00875911549694656));
#1061=CARTESIAN_POINT('',(0.032,0.0171252003136693,0.00836230321058031));
#1062=CARTESIAN_POINT('',(0.14,0.0365025525157769,0.0108982053789802));
#1063=CARTESIAN_POINT('',(0.032,0.0169404003670003,0.00918447788395854));
#1064=CARTESIAN_POINT('',(0.14,0.0361871568060977,0.0119565248568362));
#1065=CARTESIAN_POINT('',(0.032,0.0167298334620741,0.01));
#1066=CARTESIAN_POINT('',(0.14,0.0358285606387555,0.013));
#1067=CARTESIAN_POINT('',(0.032,0.0167298334620741,-0.01));
#1068=CARTESIAN_POINT('',(-0.000252891287586736,0.2,-0.0091040863531226));
#1069=CARTESIAN_POINT('',(0.0397157287525381,0.0133537634599405,-0.0102143257986816));
#1070=CARTESIAN_POINT('',(0.0387157287525381,0.0133537634599405,-0.0101865480209038));
#1071=CARTESIAN_POINT('',(0.0397157287525381,0.0133537634599405,-0.256673049789351));
#1072=CARTESIAN_POINT('',(0.0397157287525381,0.0133537634599405,-0.256673049789351));
#1073=CARTESIAN_POINT('',(0.0497157287525381,0.0133537634599405,-0.256673049789351));
#1074=CARTESIAN_POINT('',(0.0497157287525381,0.0133537634599405,0.015));
#1075=CARTESIAN_POINT('',(0.0487157287525381,0.0133537634599405,0.015));
#1076=CARTESIAN_POINT('',(0.0497157287525381,0.0133537634599405,-0.256673049789351));
#1077=CARTESIAN_POINT('',(0.0497157287525381,0.0133537634599405,-0.015));
#1078=CARTESIAN_POINT('',(0.0487157287525381,0.0133537634599405,-0.015));
#1079=CARTESIAN_POINT('',(0.085,0.009998,-0.015));
#1080=CARTESIAN_POINT('',(0.085,0.009998,0.015));
#1081=MECHANICAL_DESIGN_GEOMETRIC_PRESENTATION_REPRESENTATION('',(#544),
#1082);
#1082=(
GEOMETRIC_REPRESENTATION_CONTEXT(3)
GLOBAL_UNCERTAINTY_ASSIGNED_CONTEXT((#1083))
GLOBAL_UNIT_ASSIGNED_CONTEXT((#1086,#1085,#1084))
REPRESENTATION_CONTEXT('Part 2','TOP_LEVEL_ASSEMBLY_PART')
);
#1083=UNCERTAINTY_MEASURE_WITH_UNIT(LENGTH_MEASURE(2.E-5),#1086,
'DISTANCE_ACCURACY_VALUE','Maximum Tolerance applied to model');
#1084=(
NAMED_UNIT(*)
SI_UNIT($,.STERADIAN.)
SOLID_ANGLE_UNIT()
);
#1085=(
NAMED_UNIT(*)
PLANE_ANGLE_UNIT()
SI_UNIT($,.RADIAN.)
);
#1086=(
LENGTH_UNIT()
NAMED_UNIT(*)
SI_UNIT($,.METRE.)
);
#1087=PRODUCT_DEFINITION_SHAPE('','',#1088);
#1088=PRODUCT_DEFINITION('','',#1090,#1089);
#1089=PRODUCT_DEFINITION_CONTEXT('',#1096,'design');
#1090=PRODUCT_DEFINITION_FORMATION_WITH_SPECIFIED_SOURCE('','',#1092,
 .NOT_KNOWN.);
#1091=PRODUCT_RELATED_PRODUCT_CATEGORY('','',(#1092));
#1092=PRODUCT('Part 2','Part 2','Part 2',(#1094));
#1093=PRODUCT_CATEGORY('','');
#1094=PRODUCT_CONTEXT('',#1096,'mechanical');
#1095=APPLICATION_PROTOCOL_DEFINITION('international standard',
'ap242_managed_model_based_3d_engineering',2020,#1096);
#1096=APPLICATION_CONTEXT('managed model based 3d engineering');
ENDSEC;
END-ISO-10303-21;
