ISO-10303-21;
HEADER;
/* Generated by software containing ST-Developer
 * from STEP Tools, Inc. (www.steptools.com) 
 */
/* OPTION: using custom renumber hook */

FILE_DESCRIPTION(
/* description */ ('STEP AP242 Edition 2',
'CAx-IF Rec.Pracs.---Representation and Presentation of Product Manufa
cturing Information (PMI)---4.0---2014-10-13',
'CAx-IF Rec.Pracs.---3D Tessellated Geometry---0.4---2014-09-14','2;1',
'CAx-IF Rec.Pracs.---User Defined Attributes---1.5---2016-08-15'),
/* implementation_level */ '2;1');

FILE_NAME(
/* name */ 'Arm_upper3.0 - Part 1',
/* time_stamp */ '2026-05-19T16:29:45Z',
/* author */ (''),
/* organization */ (''),
/* preprocessor_version */ 'ST-DEVELOPER v20',
/* originating_system */ 'ONSHAPE BY PTC INC, 1.215',
/* authorisation */ '  ');

FILE_SCHEMA (('AP242_MANAGED_MODEL_BASED_3D_ENGINEERING_MIM_LF { 1 0 10303 442 3 1 4 }'));
ENDSEC;

DATA;
#10=SHAPE_REPRESENTATION_RELATIONSHIP('','',#856,#11);
#11=ADVANCED_BREP_SHAPE_REPRESENTATION('',(#854),#1653);
#12=B_SPLINE_CURVE_WITH_KNOTS('',3,(#1245,#1246,#1247,#1248),
 .UNSPECIFIED.,.F.,.F.,(4,4),(1.40536070459898E-17,0.0150473086806664),
 .UNSPECIFIED.);
#13=B_SPLINE_CURVE_WITH_KNOTS('',3,(#1250,#1251,#1252,#1253,#1254),
 .UNSPECIFIED.,.F.,.F.,(4,1,4),(0.,0.0221771520575856,0.0443543041151711),
 .UNSPECIFIED.);
#14=B_SPLINE_CURVE_WITH_KNOTS('',3,(#1288,#1289,#1290,#1291,#1292,#1293,
#1294,#1295,#1296,#1297,#1298),.UNSPECIFIED.,.T.,.F.,(1,1,1,1,1,1,1,1,1,
1,1,1,1,1,1),(-0.00355226510857436,-0.00236817673904957,-0.00118408836952479,
5.40349525067944E-19,0.00118408836952479,0.00236817673904957,0.00355226510857436,
0.00473635347809915,0.00592044184762393,0.00710453021714872,0.00828861858667351,
0.00947270695619829,0.0106567953257231,0.0118408836952479,0.0130249720647727),
 .UNSPECIFIED.);
#15=B_SPLINE_CURVE_WITH_KNOTS('',3,(#1327,#1328,#1329,#1330,#1331,#1332,
#1333),.UNSPECIFIED.,.F.,.F.,(4,1,1,1,4),(1.70856245538874E-18,0.0145742575307318,
0.0291485150614637,0.0437227725921955,0.0582970301229274),.UNSPECIFIED.);
#16=CIRCLE('',#862,0.04);
#17=CIRCLE('',#863,0.04);
#18=CIRCLE('',#866,0.011);
#19=CIRCLE('',#872,0.001);
#20=CIRCLE('',#873,0.001);
#21=CIRCLE('',#874,0.001);
#22=CIRCLE('',#875,0.001);
#23=CIRCLE('',#876,0.001);
#24=CIRCLE('',#877,0.001);
#25=CIRCLE('',#878,0.001);
#26=CIRCLE('',#879,0.001);
#27=CIRCLE('',#881,0.011);
#28=CIRCLE('',#882,0.03);
#29=CIRCLE('',#883,0.001);
#30=CIRCLE('',#884,0.001);
#31=CIRCLE('',#885,0.001);
#32=CIRCLE('',#887,0.04);
#33=CIRCLE('',#888,0.03);
#34=CIRCLE('',#889,0.001);
#35=CIRCLE('',#890,0.001);
#36=CIRCLE('',#891,0.001);
#37=CIRCLE('',#892,0.025);
#38=CIRCLE('',#893,0.02);
#39=CIRCLE('',#895,0.04);
#40=CIRCLE('',#899,0.025);
#41=CIRCLE('',#902,0.02);
#42=CIRCLE('',#903,0.02);
#43=CIRCLE('',#906,0.011);
#44=CIRCLE('',#911,0.011);
#45=CIRCLE('',#914,0.001);
#46=CIRCLE('',#917,0.001);
#47=CIRCLE('',#920,0.001);
#48=CIRCLE('',#931,0.001);
#49=CIRCLE('',#939,0.0015);
#50=CIRCLE('',#940,0.0015);
#51=CIRCLE('',#941,0.0015);
#52=CIRCLE('',#946,0.0015);
#53=CIRCLE('',#949,0.0015);
#54=CIRCLE('',#952,0.0015);
#55=B_SPLINE_SURFACE_WITH_KNOTS('',3,3,((#1218,#1219,#1220,#1221),(#1222,
#1223,#1224,#1225),(#1226,#1227,#1228,#1229),(#1230,#1231,#1232,#1233),
(#1234,#1235,#1236,#1237),(#1238,#1239,#1240,#1241)),.UNSPECIFIED.,.F.,
 .F.,.F.,(4,2,4),(4,4),(0.,0.5,1.),(-0.00600002502003179,1.),
 .UNSPECIFIED.);
#56=B_SPLINE_SURFACE_WITH_KNOTS('',3,3,((#1259,#1260,#1261,#1262),(#1263,
#1264,#1265,#1266),(#1267,#1268,#1269,#1270),(#1271,#1272,#1273,#1274),
(#1275,#1276,#1277,#1278),(#1279,#1280,#1281,#1282)),.UNSPECIFIED.,.F.,
 .F.,.F.,(4,2,4),(4,4),(0.,0.5,1.),(-0.00600001971414492,1.),
 .UNSPECIFIED.);
#57=B_SPLINE_SURFACE_WITH_KNOTS('',3,1,((#1334,#1335),(#1336,#1337),(#1338,
#1339),(#1340,#1341),(#1342,#1343),(#1344,#1345),(#1346,#1347),(#1348,#1349),
(#1350,#1351),(#1352,#1353),(#1354,#1355),(#1356,#1357),(#1358,#1359),(#1360,
#1361),(#1362,#1363),(#1364,#1365),(#1366,#1367),(#1368,#1369),(#1370,#1371),
(#1372,#1373),(#1374,#1375),(#1376,#1377),(#1378,#1379),(#1380,#1381),(#1382,
#1383),(#1384,#1385)),.RULED_SURF.,.F.,.F.,.F.,(4,2,2,2,2,2,2,2,2,2,2,2,
4),(2,2),(0.262266666666666,0.3125,0.375,0.4375,0.5,0.5625,0.625,0.6875,
0.75,0.8125,0.875,0.9375,1.),(0.,1.),.UNSPECIFIED.);
#58=B_SPLINE_SURFACE_WITH_KNOTS('',3,1,((#1444,#1445,#1446),(#1447,#1448,
#1449),(#1450,#1451,#1452),(#1453,#1454,#1455),(#1456,#1457,#1458),(#1459,
#1460,#1461),(#1462,#1463,#1464),(#1465,#1466,#1467),(#1468,#1469,#1470),
(#1471,#1472,#1473),(#1474,#1475,#1476),(#1477,#1478,#1479),(#1480,#1481,
#1482),(#1483,#1484,#1485),(#1486,#1487,#1488),(#1489,#1490,#1491),(#1492,
#1493,#1494),(#1495,#1496,#1497),(#1498,#1499,#1500),(#1501,#1502,#1503),
(#1504,#1505,#1506),(#1507,#1508,#1509),(#1510,#1511,#1512),(#1513,#1514,
#1515),(#1516,#1517,#1518),(#1519,#1520,#1521),(#1522,#1523,#1524),(#1525,
#1526,#1527),(#1528,#1529,#1530),(#1531,#1532,#1533),(#1534,#1535,#1536),
(#1537,#1538,#1539),(#1540,#1541,#1542),(#1543,#1544,#1545)),
 .RULED_SURF.,.F.,.F.,.F.,(4,2,2,2,2,2,2,2,2,2,2,2,2,2,2,2,4),(2,1,2),(0.,
0.0625,0.125,0.1875,0.25,0.3125,0.375,0.4375,0.5,0.5625,0.625,0.6875,0.75,
0.8125,0.875,0.9375,1.),(-0.00600004807300377,0.,1.),.UNSPECIFIED.);
#59=PLANE('',#861);
#60=PLANE('',#864);
#61=PLANE('',#865);
#62=PLANE('',#867);
#63=PLANE('',#871);
#64=PLANE('',#880);
#65=PLANE('',#886);
#66=PLANE('',#896);
#67=PLANE('',#897);
#68=PLANE('',#900);
#69=PLANE('',#904);
#70=PLANE('',#905);
#71=PLANE('',#915);
#72=PLANE('',#918);
#73=PLANE('',#921);
#74=PLANE('',#932);
#75=PLANE('',#933);
#76=PLANE('',#934);
#77=PLANE('',#935);
#78=PLANE('',#936);
#79=PLANE('',#937);
#80=PLANE('',#938);
#81=PLANE('',#943);
#82=PLANE('',#944);
#83=PLANE('',#947);
#84=PLANE('',#950);
#85=PLANE('',#953);
#86=ELLIPSE('',#859,0.00177850058983516,0.00162788832504888);
#87=ELLIPSE('',#860,0.00169956530757873,0.00162788832504888);
#88=ELLIPSE('',#868,0.00163878003404972,0.0015);
#89=ELLIPSE('',#869,0.00248300005159048,0.001);
#90=ELLIPSE('',#870,0.00248300005159048,0.001);
#91=ELLIPSE('',#923,0.00143245925368856,0.001);
#92=ELLIPSE('',#926,0.00143245925368856,0.001);
#93=ELLIPSE('',#929,0.00143245925368855,0.001);
#94=ELLIPSE('',#930,0.00348010216963685,0.001);
#95=ORIENTED_EDGE('',*,*,#301,.F.);
#96=ORIENTED_EDGE('',*,*,#302,.F.);
#97=ORIENTED_EDGE('',*,*,#303,.F.);
#98=ORIENTED_EDGE('',*,*,#304,.T.);
#99=ORIENTED_EDGE('',*,*,#305,.T.);
#100=ORIENTED_EDGE('',*,*,#306,.T.);
#101=ORIENTED_EDGE('',*,*,#307,.F.);
#102=ORIENTED_EDGE('',*,*,#308,.F.);
#103=ORIENTED_EDGE('',*,*,#309,.F.);
#104=ORIENTED_EDGE('',*,*,#310,.T.);
#105=ORIENTED_EDGE('',*,*,#311,.F.);
#106=ORIENTED_EDGE('',*,*,#312,.T.);
#107=ORIENTED_EDGE('',*,*,#313,.F.);
#108=ORIENTED_EDGE('',*,*,#314,.F.);
#109=ORIENTED_EDGE('',*,*,#315,.F.);
#110=ORIENTED_EDGE('',*,*,#313,.T.);
#111=ORIENTED_EDGE('',*,*,#316,.T.);
#112=ORIENTED_EDGE('',*,*,#317,.T.);
#113=ORIENTED_EDGE('',*,*,#318,.F.);
#114=ORIENTED_EDGE('',*,*,#307,.T.);
#115=ORIENTED_EDGE('',*,*,#319,.T.);
#116=ORIENTED_EDGE('',*,*,#320,.T.);
#117=ORIENTED_EDGE('',*,*,#321,.T.);
#118=ORIENTED_EDGE('',*,*,#322,.F.);
#119=ORIENTED_EDGE('',*,*,#323,.T.);
#120=ORIENTED_EDGE('',*,*,#324,.F.);
#121=ORIENTED_EDGE('',*,*,#325,.F.);
#122=ORIENTED_EDGE('',*,*,#326,.T.);
#123=ORIENTED_EDGE('',*,*,#327,.F.);
#124=ORIENTED_EDGE('',*,*,#302,.T.);
#125=ORIENTED_EDGE('',*,*,#328,.T.);
#126=ORIENTED_EDGE('',*,*,#329,.F.);
#127=ORIENTED_EDGE('',*,*,#330,.F.);
#128=ORIENTED_EDGE('',*,*,#331,.T.);
#129=ORIENTED_EDGE('',*,*,#331,.F.);
#130=ORIENTED_EDGE('',*,*,#332,.T.);
#131=ORIENTED_EDGE('',*,*,#333,.F.);
#132=ORIENTED_EDGE('',*,*,#334,.F.);
#133=ORIENTED_EDGE('',*,*,#335,.T.);
#134=ORIENTED_EDGE('',*,*,#336,.F.);
#135=ORIENTED_EDGE('',*,*,#337,.F.);
#136=ORIENTED_EDGE('',*,*,#338,.T.);
#137=ORIENTED_EDGE('',*,*,#339,.F.);
#138=ORIENTED_EDGE('',*,*,#340,.T.);
#139=ORIENTED_EDGE('',*,*,#341,.T.);
#140=ORIENTED_EDGE('',*,*,#342,.T.);
#141=ORIENTED_EDGE('',*,*,#303,.T.);
#142=ORIENTED_EDGE('',*,*,#327,.T.);
#143=ORIENTED_EDGE('',*,*,#333,.T.);
#144=ORIENTED_EDGE('',*,*,#343,.F.);
#145=ORIENTED_EDGE('',*,*,#316,.F.);
#146=ORIENTED_EDGE('',*,*,#312,.F.);
#147=ORIENTED_EDGE('',*,*,#344,.T.);
#148=ORIENTED_EDGE('',*,*,#345,.F.);
#149=ORIENTED_EDGE('',*,*,#346,.T.);
#150=ORIENTED_EDGE('',*,*,#308,.T.);
#151=ORIENTED_EDGE('',*,*,#347,.T.);
#152=ORIENTED_EDGE('',*,*,#348,.F.);
#153=ORIENTED_EDGE('',*,*,#349,.F.);
#154=ORIENTED_EDGE('',*,*,#350,.F.);
#155=ORIENTED_EDGE('',*,*,#321,.F.);
#156=ORIENTED_EDGE('',*,*,#351,.F.);
#157=ORIENTED_EDGE('',*,*,#352,.F.);
#158=ORIENTED_EDGE('',*,*,#353,.F.);
#159=ORIENTED_EDGE('',*,*,#354,.F.);
#160=ORIENTED_EDGE('',*,*,#355,.F.);
#161=ORIENTED_EDGE('',*,*,#356,.F.);
#162=ORIENTED_EDGE('',*,*,#357,.F.);
#163=ORIENTED_EDGE('',*,*,#358,.T.);
#164=ORIENTED_EDGE('',*,*,#359,.F.);
#165=ORIENTED_EDGE('',*,*,#360,.F.);
#166=ORIENTED_EDGE('',*,*,#320,.F.);
#167=ORIENTED_EDGE('',*,*,#309,.T.);
#168=ORIENTED_EDGE('',*,*,#315,.T.);
#169=ORIENTED_EDGE('',*,*,#361,.T.);
#170=ORIENTED_EDGE('',*,*,#362,.T.);
#171=ORIENTED_EDGE('',*,*,#351,.T.);
#172=ORIENTED_EDGE('',*,*,#332,.F.);
#173=ORIENTED_EDGE('',*,*,#361,.F.);
#174=ORIENTED_EDGE('',*,*,#314,.T.);
#175=ORIENTED_EDGE('',*,*,#343,.T.);
#176=ORIENTED_EDGE('',*,*,#363,.T.);
#177=ORIENTED_EDGE('',*,*,#364,.T.);
#178=ORIENTED_EDGE('',*,*,#365,.F.);
#179=ORIENTED_EDGE('',*,*,#344,.F.);
#180=ORIENTED_EDGE('',*,*,#366,.T.);
#181=ORIENTED_EDGE('',*,*,#352,.T.);
#182=ORIENTED_EDGE('',*,*,#362,.F.);
#183=ORIENTED_EDGE('',*,*,#330,.T.);
#184=ORIENTED_EDGE('',*,*,#358,.F.);
#185=ORIENTED_EDGE('',*,*,#367,.F.);
#186=ORIENTED_EDGE('',*,*,#368,.T.);
#187=ORIENTED_EDGE('',*,*,#369,.T.);
#188=ORIENTED_EDGE('',*,*,#357,.T.);
#189=ORIENTED_EDGE('',*,*,#370,.F.);
#190=ORIENTED_EDGE('',*,*,#371,.F.);
#191=ORIENTED_EDGE('',*,*,#367,.T.);
#192=ORIENTED_EDGE('',*,*,#360,.T.);
#193=ORIENTED_EDGE('',*,*,#372,.F.);
#194=ORIENTED_EDGE('',*,*,#373,.F.);
#195=ORIENTED_EDGE('',*,*,#370,.T.);
#196=ORIENTED_EDGE('',*,*,#359,.T.);
#197=ORIENTED_EDGE('',*,*,#369,.F.);
#198=ORIENTED_EDGE('',*,*,#374,.T.);
#199=ORIENTED_EDGE('',*,*,#372,.T.);
#200=ORIENTED_EDGE('',*,*,#375,.F.);
#201=ORIENTED_EDGE('',*,*,#374,.F.);
#202=ORIENTED_EDGE('',*,*,#368,.F.);
#203=ORIENTED_EDGE('',*,*,#371,.T.);
#204=ORIENTED_EDGE('',*,*,#373,.T.);
#205=ORIENTED_EDGE('',*,*,#376,.T.);
#206=ORIENTED_EDGE('',*,*,#375,.T.);
#207=ORIENTED_EDGE('',*,*,#349,.T.);
#208=ORIENTED_EDGE('',*,*,#355,.T.);
#209=ORIENTED_EDGE('',*,*,#350,.T.);
#210=ORIENTED_EDGE('',*,*,#356,.T.);
#211=ORIENTED_EDGE('',*,*,#348,.T.);
#212=ORIENTED_EDGE('',*,*,#354,.T.);
#213=ORIENTED_EDGE('',*,*,#377,.T.);
#214=ORIENTED_EDGE('',*,*,#322,.T.);
#215=ORIENTED_EDGE('',*,*,#345,.T.);
#216=ORIENTED_EDGE('',*,*,#376,.F.);
#217=ORIENTED_EDGE('',*,*,#318,.T.);
#218=ORIENTED_EDGE('',*,*,#353,.T.);
#219=ORIENTED_EDGE('',*,*,#366,.F.);
#220=ORIENTED_EDGE('',*,*,#347,.F.);
#221=ORIENTED_EDGE('',*,*,#378,.F.);
#222=ORIENTED_EDGE('',*,*,#339,.T.);
#223=ORIENTED_EDGE('',*,*,#378,.T.);
#224=ORIENTED_EDGE('',*,*,#379,.T.);
#225=ORIENTED_EDGE('',*,*,#338,.F.);
#226=ORIENTED_EDGE('',*,*,#379,.F.);
#227=ORIENTED_EDGE('',*,*,#380,.T.);
#228=ORIENTED_EDGE('',*,*,#340,.F.);
#229=ORIENTED_EDGE('',*,*,#380,.F.);
#230=ORIENTED_EDGE('',*,*,#381,.T.);
#231=ORIENTED_EDGE('',*,*,#337,.T.);
#232=ORIENTED_EDGE('',*,*,#325,.T.);
#233=ORIENTED_EDGE('',*,*,#336,.T.);
#234=ORIENTED_EDGE('',*,*,#382,.F.);
#235=ORIENTED_EDGE('',*,*,#335,.F.);
#236=ORIENTED_EDGE('',*,*,#326,.F.);
#237=ORIENTED_EDGE('',*,*,#341,.F.);
#238=ORIENTED_EDGE('',*,*,#383,.T.);
#239=ORIENTED_EDGE('',*,*,#384,.T.);
#240=ORIENTED_EDGE('',*,*,#385,.F.);
#241=ORIENTED_EDGE('',*,*,#334,.T.);
#242=ORIENTED_EDGE('',*,*,#385,.T.);
#243=ORIENTED_EDGE('',*,*,#386,.F.);
#244=ORIENTED_EDGE('',*,*,#387,.T.);
#245=ORIENTED_EDGE('',*,*,#377,.F.);
#246=ORIENTED_EDGE('',*,*,#365,.T.);
#247=ORIENTED_EDGE('',*,*,#388,.T.);
#248=ORIENTED_EDGE('',*,*,#389,.F.);
#249=ORIENTED_EDGE('',*,*,#386,.T.);
#250=ORIENTED_EDGE('',*,*,#329,.T.);
#251=ORIENTED_EDGE('',*,*,#390,.F.);
#252=ORIENTED_EDGE('',*,*,#391,.T.);
#253=ORIENTED_EDGE('',*,*,#392,.T.);
#254=ORIENTED_EDGE('',*,*,#363,.F.);
#255=ORIENTED_EDGE('',*,*,#305,.F.);
#256=ORIENTED_EDGE('',*,*,#346,.F.);
#257=ORIENTED_EDGE('',*,*,#323,.F.);
#258=ORIENTED_EDGE('',*,*,#387,.F.);
#259=ORIENTED_EDGE('',*,*,#389,.T.);
#260=ORIENTED_EDGE('',*,*,#393,.T.);
#261=ORIENTED_EDGE('',*,*,#391,.F.);
#262=ORIENTED_EDGE('',*,*,#394,.F.);
#263=ORIENTED_EDGE('',*,*,#311,.T.);
#264=ORIENTED_EDGE('',*,*,#395,.F.);
#265=ORIENTED_EDGE('',*,*,#394,.T.);
#266=ORIENTED_EDGE('',*,*,#396,.T.);
#267=ORIENTED_EDGE('',*,*,#384,.F.);
#268=ORIENTED_EDGE('',*,*,#397,.T.);
#269=ORIENTED_EDGE('',*,*,#304,.F.);
#270=ORIENTED_EDGE('',*,*,#342,.F.);
#271=ORIENTED_EDGE('',*,*,#398,.F.);
#272=ORIENTED_EDGE('',*,*,#399,.F.);
#273=ORIENTED_EDGE('',*,*,#400,.F.);
#274=ORIENTED_EDGE('',*,*,#382,.T.);
#275=ORIENTED_EDGE('',*,*,#381,.F.);
#276=ORIENTED_EDGE('',*,*,#328,.F.);
#277=ORIENTED_EDGE('',*,*,#301,.T.);
#278=ORIENTED_EDGE('',*,*,#397,.F.);
#279=ORIENTED_EDGE('',*,*,#383,.F.);
#280=ORIENTED_EDGE('',*,*,#396,.F.);
#281=ORIENTED_EDGE('',*,*,#390,.T.);
#282=ORIENTED_EDGE('',*,*,#317,.F.);
#283=ORIENTED_EDGE('',*,*,#324,.T.);
#284=ORIENTED_EDGE('',*,*,#393,.F.);
#285=ORIENTED_EDGE('',*,*,#388,.F.);
#286=ORIENTED_EDGE('',*,*,#364,.F.);
#287=ORIENTED_EDGE('',*,*,#392,.F.);
#288=ORIENTED_EDGE('',*,*,#319,.F.);
#289=ORIENTED_EDGE('',*,*,#306,.F.);
#290=ORIENTED_EDGE('',*,*,#395,.T.);
#291=ORIENTED_EDGE('',*,*,#310,.F.);
#292=ORIENTED_EDGE('',*,*,#401,.F.);
#293=ORIENTED_EDGE('',*,*,#400,.T.);
#294=ORIENTED_EDGE('',*,*,#401,.T.);
#295=ORIENTED_EDGE('',*,*,#402,.F.);
#296=ORIENTED_EDGE('',*,*,#399,.T.);
#297=ORIENTED_EDGE('',*,*,#402,.T.);
#298=ORIENTED_EDGE('',*,*,#403,.F.);
#299=ORIENTED_EDGE('',*,*,#398,.T.);
#300=ORIENTED_EDGE('',*,*,#403,.T.);
#301=EDGE_CURVE('',#404,#405,#480,.T.);
#302=EDGE_CURVE('',#406,#404,#86,.T.);
#303=EDGE_CURVE('',#407,#406,#481,.T.);
#304=EDGE_CURVE('',#407,#405,#87,.T.);
#305=EDGE_CURVE('',#408,#409,#482,.T.);
#306=EDGE_CURVE('',#409,#410,#483,.T.);
#307=EDGE_CURVE('',#411,#410,#484,.T.);
#308=EDGE_CURVE('',#408,#411,#485,.T.);
#309=EDGE_CURVE('',#412,#413,#16,.T.);
#310=EDGE_CURVE('',#412,#414,#12,.T.);
#311=EDGE_CURVE('',#415,#414,#13,.T.);
#312=EDGE_CURVE('',#415,#416,#486,.T.);
#313=EDGE_CURVE('',#413,#416,#487,.T.);
#314=EDGE_CURVE('',#417,#418,#488,.T.);
#315=EDGE_CURVE('',#413,#417,#17,.T.);
#316=EDGE_CURVE('',#416,#418,#489,.F.);
#317=EDGE_CURVE('',#419,#419,#14,.T.);
#318=EDGE_CURVE('',#411,#420,#490,.T.);
#319=EDGE_CURVE('',#410,#412,#491,.T.);
#320=EDGE_CURVE('',#412,#421,#492,.T.);
#321=EDGE_CURVE('',#421,#420,#493,.T.);
#322=EDGE_CURVE('',#422,#423,#18,.F.);
#323=EDGE_CURVE('',#422,#423,#494,.T.);
#324=EDGE_CURVE('',#424,#424,#88,.T.);
#325=EDGE_CURVE('',#425,#425,#89,.T.);
#326=EDGE_CURVE('',#426,#426,#90,.F.);
#327=EDGE_CURVE('',#406,#427,#495,.F.);
#328=EDGE_CURVE('',#404,#428,#496,.T.);
#329=EDGE_CURVE('',#429,#428,#497,.F.);
#330=EDGE_CURVE('',#430,#429,#498,.T.);
#331=EDGE_CURVE('',#430,#427,#15,.T.);
#332=EDGE_CURVE('',#430,#431,#499,.T.);
#333=EDGE_CURVE('',#427,#431,#500,.F.);
#334=EDGE_CURVE('',#432,#432,#19,.T.);
#335=EDGE_CURVE('',#433,#433,#20,.T.);
#336=EDGE_CURVE('',#434,#434,#21,.T.);
#337=EDGE_CURVE('',#435,#435,#22,.T.);
#338=EDGE_CURVE('',#436,#436,#23,.T.);
#339=EDGE_CURVE('',#437,#437,#24,.T.);
#340=EDGE_CURVE('',#438,#438,#25,.T.);
#341=EDGE_CURVE('',#439,#439,#26,.T.);
#342=EDGE_CURVE('',#415,#407,#501,.F.);
#343=EDGE_CURVE('',#418,#431,#502,.F.);
#344=EDGE_CURVE('',#440,#441,#503,.T.);
#345=EDGE_CURVE('',#423,#441,#27,.F.);
#346=EDGE_CURVE('',#423,#408,#504,.T.);
#347=EDGE_CURVE('',#411,#440,#28,.F.);
#348=EDGE_CURVE('',#442,#442,#29,.F.);
#349=EDGE_CURVE('',#443,#443,#30,.F.);
#350=EDGE_CURVE('',#444,#444,#31,.F.);
#351=EDGE_CURVE('',#445,#421,#32,.T.);
#352=EDGE_CURVE('',#446,#445,#505,.T.);
#353=EDGE_CURVE('',#420,#446,#33,.T.);
#354=EDGE_CURVE('',#447,#447,#34,.T.);
#355=EDGE_CURVE('',#448,#448,#35,.T.);
#356=EDGE_CURVE('',#449,#449,#36,.T.);
#357=EDGE_CURVE('',#450,#451,#37,.T.);
#358=EDGE_CURVE('',#450,#452,#506,.T.);
#359=EDGE_CURVE('',#453,#452,#38,.T.);
#360=EDGE_CURVE('',#451,#453,#507,.T.);
#361=EDGE_CURVE('',#417,#430,#39,.T.);
#362=EDGE_CURVE('',#430,#445,#508,.T.);
#363=EDGE_CURVE('',#429,#454,#509,.T.);
#364=EDGE_CURVE('',#454,#455,#510,.F.);
#365=EDGE_CURVE('',#441,#455,#511,.T.);
#366=EDGE_CURVE('',#440,#446,#512,.T.);
#367=EDGE_CURVE('',#456,#450,#513,.T.);
#368=EDGE_CURVE('',#456,#457,#514,.T.);
#369=EDGE_CURVE('',#457,#452,#515,.T.);
#370=EDGE_CURVE('',#458,#451,#516,.T.);
#371=EDGE_CURVE('',#456,#458,#40,.T.);
#372=EDGE_CURVE('',#459,#453,#517,.T.);
#373=EDGE_CURVE('',#458,#459,#518,.T.);
#374=EDGE_CURVE('',#457,#459,#41,.T.);
#375=EDGE_CURVE('',#460,#460,#42,.T.);
#376=EDGE_CURVE('',#461,#461,#43,.F.);
#377=EDGE_CURVE('',#441,#422,#44,.F.);
#378=EDGE_CURVE('',#462,#462,#45,.T.);
#379=EDGE_CURVE('',#463,#463,#46,.T.);
#380=EDGE_CURVE('',#464,#464,#47,.T.);
#381=EDGE_CURVE('',#465,#465,#91,.T.);
#382=EDGE_CURVE('',#466,#466,#92,.F.);
#383=EDGE_CURVE('',#467,#468,#93,.T.);
#384=EDGE_CURVE('',#468,#467,#94,.T.);
#385=EDGE_CURVE('',#469,#469,#48,.T.);
#386=EDGE_CURVE('',#470,#441,#519,.T.);
#387=EDGE_CURVE('',#470,#422,#520,.T.);
#388=EDGE_CURVE('',#455,#471,#521,.T.);
#389=EDGE_CURVE('',#470,#471,#522,.T.);
#390=EDGE_CURVE('',#472,#428,#523,.T.);
#391=EDGE_CURVE('',#472,#473,#524,.T.);
#392=EDGE_CURVE('',#473,#454,#525,.T.);
#393=EDGE_CURVE('',#471,#473,#526,.F.);
#394=EDGE_CURVE('',#409,#472,#527,.T.);
#395=EDGE_CURVE('',#409,#414,#528,.F.);
#396=EDGE_CURVE('',#472,#467,#529,.T.);
#397=EDGE_CURVE('',#468,#405,#530,.T.);
#398=EDGE_CURVE('',#474,#474,#49,.T.);
#399=EDGE_CURVE('',#475,#475,#50,.T.);
#400=EDGE_CURVE('',#476,#476,#51,.T.);
#401=EDGE_CURVE('',#477,#477,#52,.T.);
#402=EDGE_CURVE('',#478,#478,#53,.T.);
#403=EDGE_CURVE('',#479,#479,#54,.T.);
#404=VERTEX_POINT('',#1202);
#405=VERTEX_POINT('',#1203);
#406=VERTEX_POINT('',#1205);
#407=VERTEX_POINT('',#1207);
#408=VERTEX_POINT('',#1211);
#409=VERTEX_POINT('',#1212);
#410=VERTEX_POINT('',#1214);
#411=VERTEX_POINT('',#1216);
#412=VERTEX_POINT('',#1243);
#413=VERTEX_POINT('',#1244);
#414=VERTEX_POINT('',#1249);
#415=VERTEX_POINT('',#1255);
#416=VERTEX_POINT('',#1257);
#417=VERTEX_POINT('',#1284);
#418=VERTEX_POINT('',#1285);
#419=VERTEX_POINT('',#1299);
#420=VERTEX_POINT('',#1302);
#421=VERTEX_POINT('',#1305);
#422=VERTEX_POINT('',#1309);
#423=VERTEX_POINT('',#1310);
#424=VERTEX_POINT('',#1314);
#425=VERTEX_POINT('',#1316);
#426=VERTEX_POINT('',#1318);
#427=VERTEX_POINT('',#1320);
#428=VERTEX_POINT('',#1322);
#429=VERTEX_POINT('',#1324);
#430=VERTEX_POINT('',#1326);
#431=VERTEX_POINT('',#1387);
#432=VERTEX_POINT('',#1391);
#433=VERTEX_POINT('',#1393);
#434=VERTEX_POINT('',#1395);
#435=VERTEX_POINT('',#1397);
#436=VERTEX_POINT('',#1399);
#437=VERTEX_POINT('',#1401);
#438=VERTEX_POINT('',#1403);
#439=VERTEX_POINT('',#1405);
#440=VERTEX_POINT('',#1410);
#441=VERTEX_POINT('',#1411);
#442=VERTEX_POINT('',#1416);
#443=VERTEX_POINT('',#1418);
#444=VERTEX_POINT('',#1420);
#445=VERTEX_POINT('',#1423);
#446=VERTEX_POINT('',#1425);
#447=VERTEX_POINT('',#1428);
#448=VERTEX_POINT('',#1430);
#449=VERTEX_POINT('',#1432);
#450=VERTEX_POINT('',#1434);
#451=VERTEX_POINT('',#1435);
#452=VERTEX_POINT('',#1437);
#453=VERTEX_POINT('',#1439);
#454=VERTEX_POINT('',#1548);
#455=VERTEX_POINT('',#1550);
#456=VERTEX_POINT('',#1555);
#457=VERTEX_POINT('',#1557);
#458=VERTEX_POINT('',#1561);
#459=VERTEX_POINT('',#1565);
#460=VERTEX_POINT('',#1570);
#461=VERTEX_POINT('',#1574);
#462=VERTEX_POINT('',#1583);
#463=VERTEX_POINT('',#1587);
#464=VERTEX_POINT('',#1591);
#465=VERTEX_POINT('',#1595);
#466=VERTEX_POINT('',#1599);
#467=VERTEX_POINT('',#1603);
#468=VERTEX_POINT('',#1604);
#469=VERTEX_POINT('',#1607);
#470=VERTEX_POINT('',#1611);
#471=VERTEX_POINT('',#1615);
#472=VERTEX_POINT('',#1619);
#473=VERTEX_POINT('',#1621);
#474=VERTEX_POINT('',#1632);
#475=VERTEX_POINT('',#1634);
#476=VERTEX_POINT('',#1636);
#477=VERTEX_POINT('',#1642);
#478=VERTEX_POINT('',#1646);
#479=VERTEX_POINT('',#1650);
#480=LINE('',#1201,#531);
#481=LINE('',#1206,#532);
#482=LINE('',#1210,#533);
#483=LINE('',#1213,#534);
#484=LINE('',#1215,#535);
#485=LINE('',#1217,#536);
#486=LINE('',#1256,#537);
#487=LINE('',#1258,#538);
#488=LINE('',#1283,#539);
#489=LINE('',#1287,#540);
#490=LINE('',#1301,#541);
#491=LINE('',#1303,#542);
#492=LINE('',#1304,#543);
#493=LINE('',#1306,#544);
#494=LINE('',#1311,#545);
#495=LINE('',#1319,#546);
#496=LINE('',#1321,#547);
#497=LINE('',#1323,#548);
#498=LINE('',#1325,#549);
#499=LINE('',#1386,#550);
#500=LINE('',#1388,#551);
#501=LINE('',#1406,#552);
#502=LINE('',#1407,#553);
#503=LINE('',#1409,#554);
#504=LINE('',#1413,#555);
#505=LINE('',#1424,#556);
#506=LINE('',#1436,#557);
#507=LINE('',#1440,#558);
#508=LINE('',#1443,#559);
#509=LINE('',#1547,#560);
#510=LINE('',#1549,#561);
#511=LINE('',#1551,#562);
#512=LINE('',#1552,#563);
#513=LINE('',#1554,#564);
#514=LINE('',#1556,#565);
#515=LINE('',#1558,#566);
#516=LINE('',#1560,#567);
#517=LINE('',#1564,#568);
#518=LINE('',#1566,#569);
#519=LINE('',#1610,#570);
#520=LINE('',#1612,#571);
#521=LINE('',#1614,#572);
#522=LINE('',#1616,#573);
#523=LINE('',#1618,#574);
#524=LINE('',#1620,#575);
#525=LINE('',#1622,#576);
#526=LINE('',#1624,#577);
#527=LINE('',#1625,#578);
#528=LINE('',#1627,#579);
#529=LINE('',#1628,#580);
#530=LINE('',#1629,#581);
#531=VECTOR('',#958,1.);
#532=VECTOR('',#961,1.);
#533=VECTOR('',#966,1.);
#534=VECTOR('',#967,1.);
#535=VECTOR('',#968,1.);
#536=VECTOR('',#969,1.);
#537=VECTOR('',#972,1.);
#538=VECTOR('',#973,1.);
#539=VECTOR('',#974,1.);
#540=VECTOR('',#977,1.);
#541=VECTOR('',#980,1.);
#542=VECTOR('',#981,1.);
#543=VECTOR('',#982,1.);
#544=VECTOR('',#983,1.);
#545=VECTOR('',#988,1.);
#546=VECTOR('',#997,1.);
#547=VECTOR('',#998,1.);
#548=VECTOR('',#999,1.);
#549=VECTOR('',#1000,1.);
#550=VECTOR('',#1001,1.);
#551=VECTOR('',#1002,1.);
#552=VECTOR('',#1021,1.);
#553=VECTOR('',#1022,1.);
#554=VECTOR('',#1025,1.);
#555=VECTOR('',#1028,1.);
#556=VECTOR('',#1041,1.);
#557=VECTOR('',#1052,1.);
#558=VECTOR('',#1055,1.);
#559=VECTOR('',#1060,1.);
#560=VECTOR('',#1063,1.);
#561=VECTOR('',#1064,1.);
#562=VECTOR('',#1065,1.);
#563=VECTOR('',#1066,1.);
#564=VECTOR('',#1069,1.);
#565=VECTOR('',#1070,1.);
#566=VECTOR('',#1071,1.);
#567=VECTOR('',#1074,1.);
#568=VECTOR('',#1079,1.);
#569=VECTOR('',#1080,1.);
#570=VECTOR('',#1147,1.);
#571=VECTOR('',#1148,1.);
#572=VECTOR('',#1151,1.);
#573=VECTOR('',#1152,1.);
#574=VECTOR('',#1155,1.);
#575=VECTOR('',#1156,1.);
#576=VECTOR('',#1157,1.);
#577=VECTOR('',#1160,1.);
#578=VECTOR('',#1161,1.);
#579=VECTOR('',#1164,1.);
#580=VECTOR('',#1165,1.);
#581=VECTOR('',#1166,1.);
#582=EDGE_LOOP('',(#95,#96,#97,#98));
#583=EDGE_LOOP('',(#99,#100,#101,#102));
#584=EDGE_LOOP('',(#103,#104,#105,#106,#107));
#585=EDGE_LOOP('',(#108,#109,#110,#111));
#586=EDGE_LOOP('',(#112));
#587=EDGE_LOOP('',(#113,#114,#115,#116,#117));
#588=EDGE_LOOP('',(#118,#119));
#589=EDGE_LOOP('',(#120));
#590=EDGE_LOOP('',(#121));
#591=EDGE_LOOP('',(#122));
#592=EDGE_LOOP('',(#123,#124,#125,#126,#127,#128));
#593=EDGE_LOOP('',(#129,#130,#131));
#594=EDGE_LOOP('',(#132));
#595=EDGE_LOOP('',(#133));
#596=EDGE_LOOP('',(#134));
#597=EDGE_LOOP('',(#135));
#598=EDGE_LOOP('',(#136));
#599=EDGE_LOOP('',(#137));
#600=EDGE_LOOP('',(#138));
#601=EDGE_LOOP('',(#139));
#602=EDGE_LOOP('',(#140,#141,#142,#143,#144,#145,#146));
#603=EDGE_LOOP('',(#147,#148,#149,#150,#151));
#604=EDGE_LOOP('',(#152));
#605=EDGE_LOOP('',(#153));
#606=EDGE_LOOP('',(#154));
#607=EDGE_LOOP('',(#155,#156,#157,#158));
#608=EDGE_LOOP('',(#159));
#609=EDGE_LOOP('',(#160));
#610=EDGE_LOOP('',(#161));
#611=EDGE_LOOP('',(#162,#163,#164,#165));
#612=EDGE_LOOP('',(#166,#167,#168,#169,#170,#171));
#613=EDGE_LOOP('',(#172,#173,#174,#175));
#614=EDGE_LOOP('',(#176,#177,#178,#179,#180,#181,#182,#183));
#615=EDGE_LOOP('',(#184,#185,#186,#187));
#616=EDGE_LOOP('',(#188,#189,#190,#191));
#617=EDGE_LOOP('',(#192,#193,#194,#195));
#618=EDGE_LOOP('',(#196,#197,#198,#199));
#619=EDGE_LOOP('',(#200));
#620=EDGE_LOOP('',(#201,#202,#203,#204));
#621=EDGE_LOOP('',(#205));
#622=EDGE_LOOP('',(#206));
#623=EDGE_LOOP('',(#207));
#624=EDGE_LOOP('',(#208));
#625=EDGE_LOOP('',(#209));
#626=EDGE_LOOP('',(#210));
#627=EDGE_LOOP('',(#211));
#628=EDGE_LOOP('',(#212));
#629=EDGE_LOOP('',(#213,#214,#215));
#630=EDGE_LOOP('',(#216));
#631=EDGE_LOOP('',(#217,#218,#219,#220));
#632=EDGE_LOOP('',(#221));
#633=EDGE_LOOP('',(#222));
#634=EDGE_LOOP('',(#223));
#635=EDGE_LOOP('',(#224));
#636=EDGE_LOOP('',(#225));
#637=EDGE_LOOP('',(#226));
#638=EDGE_LOOP('',(#227));
#639=EDGE_LOOP('',(#228));
#640=EDGE_LOOP('',(#229));
#641=EDGE_LOOP('',(#230));
#642=EDGE_LOOP('',(#231));
#643=EDGE_LOOP('',(#232));
#644=EDGE_LOOP('',(#233));
#645=EDGE_LOOP('',(#234));
#646=EDGE_LOOP('',(#235));
#647=EDGE_LOOP('',(#236));
#648=EDGE_LOOP('',(#237));
#649=EDGE_LOOP('',(#238,#239));
#650=EDGE_LOOP('',(#240));
#651=EDGE_LOOP('',(#241));
#652=EDGE_LOOP('',(#242));
#653=EDGE_LOOP('',(#243,#244,#245));
#654=EDGE_LOOP('',(#246,#247,#248,#249));
#655=EDGE_LOOP('',(#250,#251,#252,#253,#254));
#656=EDGE_LOOP('',(#255,#256,#257,#258,#259,#260,#261,#262));
#657=EDGE_LOOP('',(#263,#264,#265,#266,#267,#268,#269,#270));
#658=EDGE_LOOP('',(#271));
#659=EDGE_LOOP('',(#272));
#660=EDGE_LOOP('',(#273));
#661=EDGE_LOOP('',(#274));
#662=EDGE_LOOP('',(#275));
#663=EDGE_LOOP('',(#276,#277,#278,#279,#280,#281));
#664=EDGE_LOOP('',(#282));
#665=EDGE_LOOP('',(#283));
#666=EDGE_LOOP('',(#284,#285,#286,#287));
#667=EDGE_LOOP('',(#288,#289,#290,#291));
#668=EDGE_LOOP('',(#292));
#669=EDGE_LOOP('',(#293));
#670=EDGE_LOOP('',(#294));
#671=EDGE_LOOP('',(#295));
#672=EDGE_LOOP('',(#296));
#673=EDGE_LOOP('',(#297));
#674=EDGE_LOOP('',(#298));
#675=EDGE_LOOP('',(#299));
#676=EDGE_LOOP('',(#300));
#677=FACE_BOUND('',#582,.T.);
#678=FACE_BOUND('',#583,.T.);
#679=FACE_BOUND('',#584,.T.);
#680=FACE_BOUND('',#585,.T.);
#681=FACE_BOUND('',#586,.T.);
#682=FACE_BOUND('',#587,.T.);
#683=FACE_BOUND('',#588,.T.);
#684=FACE_BOUND('',#589,.T.);
#685=FACE_BOUND('',#590,.T.);
#686=FACE_BOUND('',#591,.T.);
#687=FACE_BOUND('',#592,.T.);
#688=FACE_BOUND('',#593,.T.);
#689=FACE_BOUND('',#594,.T.);
#690=FACE_BOUND('',#595,.T.);
#691=FACE_BOUND('',#596,.T.);
#692=FACE_BOUND('',#597,.T.);
#693=FACE_BOUND('',#598,.T.);
#694=FACE_BOUND('',#599,.T.);
#695=FACE_BOUND('',#600,.T.);
#696=FACE_BOUND('',#601,.T.);
#697=FACE_BOUND('',#602,.T.);
#698=FACE_BOUND('',#603,.T.);
#699=FACE_BOUND('',#604,.T.);
#700=FACE_BOUND('',#605,.T.);
#701=FACE_BOUND('',#606,.T.);
#702=FACE_BOUND('',#607,.T.);
#703=FACE_BOUND('',#608,.T.);
#704=FACE_BOUND('',#609,.T.);
#705=FACE_BOUND('',#610,.T.);
#706=FACE_BOUND('',#611,.T.);
#707=FACE_BOUND('',#612,.T.);
#708=FACE_BOUND('',#613,.T.);
#709=FACE_BOUND('',#614,.T.);
#710=FACE_BOUND('',#615,.T.);
#711=FACE_BOUND('',#616,.T.);
#712=FACE_BOUND('',#617,.T.);
#713=FACE_BOUND('',#618,.T.);
#714=FACE_BOUND('',#619,.T.);
#715=FACE_BOUND('',#620,.T.);
#716=FACE_BOUND('',#621,.T.);
#717=FACE_BOUND('',#622,.T.);
#718=FACE_BOUND('',#623,.T.);
#719=FACE_BOUND('',#624,.T.);
#720=FACE_BOUND('',#625,.T.);
#721=FACE_BOUND('',#626,.T.);
#722=FACE_BOUND('',#627,.T.);
#723=FACE_BOUND('',#628,.T.);
#724=FACE_BOUND('',#629,.T.);
#725=FACE_BOUND('',#630,.T.);
#726=FACE_BOUND('',#631,.T.);
#727=FACE_BOUND('',#632,.T.);
#728=FACE_BOUND('',#633,.T.);
#729=FACE_BOUND('',#634,.T.);
#730=FACE_BOUND('',#635,.T.);
#731=FACE_BOUND('',#636,.T.);
#732=FACE_BOUND('',#637,.T.);
#733=FACE_BOUND('',#638,.T.);
#734=FACE_BOUND('',#639,.T.);
#735=FACE_BOUND('',#640,.T.);
#736=FACE_BOUND('',#641,.T.);
#737=FACE_BOUND('',#642,.T.);
#738=FACE_BOUND('',#643,.T.);
#739=FACE_BOUND('',#644,.T.);
#740=FACE_BOUND('',#645,.T.);
#741=FACE_BOUND('',#646,.T.);
#742=FACE_BOUND('',#647,.T.);
#743=FACE_BOUND('',#648,.T.);
#744=FACE_BOUND('',#649,.T.);
#745=FACE_BOUND('',#650,.T.);
#746=FACE_BOUND('',#651,.T.);
#747=FACE_BOUND('',#652,.T.);
#748=FACE_BOUND('',#653,.T.);
#749=FACE_BOUND('',#654,.T.);
#750=FACE_BOUND('',#655,.T.);
#751=FACE_BOUND('',#656,.T.);
#752=FACE_BOUND('',#657,.T.);
#753=FACE_BOUND('',#658,.T.);
#754=FACE_BOUND('',#659,.T.);
#755=FACE_BOUND('',#660,.T.);
#756=FACE_BOUND('',#661,.T.);
#757=FACE_BOUND('',#662,.T.);
#758=FACE_BOUND('',#663,.T.);
#759=FACE_BOUND('',#664,.T.);
#760=FACE_BOUND('',#665,.T.);
#761=FACE_BOUND('',#666,.T.);
#762=FACE_BOUND('',#667,.T.);
#763=FACE_BOUND('',#668,.T.);
#764=FACE_BOUND('',#669,.T.);
#765=FACE_BOUND('',#670,.T.);
#766=FACE_BOUND('',#671,.T.);
#767=FACE_BOUND('',#672,.T.);
#768=FACE_BOUND('',#673,.T.);
#769=FACE_BOUND('',#674,.T.);
#770=FACE_BOUND('',#675,.T.);
#771=FACE_BOUND('',#676,.T.);
#772=CYLINDRICAL_SURFACE('',#858,0.00162788832504888);
#773=CYLINDRICAL_SURFACE('',#894,0.04);
#774=CYLINDRICAL_SURFACE('',#898,0.025);
#775=CYLINDRICAL_SURFACE('',#901,0.02);
#776=CYLINDRICAL_SURFACE('',#907,0.001);
#777=CYLINDRICAL_SURFACE('',#908,0.001);
#778=CYLINDRICAL_SURFACE('',#909,0.001);
#779=CYLINDRICAL_SURFACE('',#910,0.011);
#780=CYLINDRICAL_SURFACE('',#912,0.03);
#781=CYLINDRICAL_SURFACE('',#913,0.001);
#782=CYLINDRICAL_SURFACE('',#916,0.001);
#783=CYLINDRICAL_SURFACE('',#919,0.001);
#784=CYLINDRICAL_SURFACE('',#922,0.001);
#785=CYLINDRICAL_SURFACE('',#924,0.001);
#786=CYLINDRICAL_SURFACE('',#925,0.001);
#787=CYLINDRICAL_SURFACE('',#927,0.001);
#788=CYLINDRICAL_SURFACE('',#928,0.001);
#789=CYLINDRICAL_SURFACE('',#942,0.0015);
#790=CYLINDRICAL_SURFACE('',#945,0.0015);
#791=CYLINDRICAL_SURFACE('',#948,0.0015);
#792=CYLINDRICAL_SURFACE('',#951,0.0015);
#793=ADVANCED_FACE('',(#677),#772,.T.);
#794=ADVANCED_FACE('',(#678),#59,.T.);
#795=ADVANCED_FACE('',(#679),#55,.F.);
#796=ADVANCED_FACE('',(#680,#681),#56,.F.);
#797=ADVANCED_FACE('',(#682),#60,.T.);
#798=ADVANCED_FACE('',(#683),#61,.T.);
#799=ADVANCED_FACE('',(#684,#685,#686,#687),#62,.T.);
#800=ADVANCED_FACE('',(#688),#57,.T.);
#801=ADVANCED_FACE('',(#689,#690,#691,#692,#693,#694,#695,#696,#697),#63,
 .T.);
#802=ADVANCED_FACE('',(#698,#699,#700,#701),#64,.F.);
#803=ADVANCED_FACE('',(#702,#703,#704,#705,#706),#65,.F.);
#804=ADVANCED_FACE('',(#707),#773,.T.);
#805=ADVANCED_FACE('',(#708),#58,.F.);
#806=ADVANCED_FACE('',(#709),#66,.T.);
#807=ADVANCED_FACE('',(#710),#67,.T.);
#808=ADVANCED_FACE('',(#711),#774,.T.);
#809=ADVANCED_FACE('',(#712),#68,.F.);
#810=ADVANCED_FACE('',(#713,#714),#775,.T.);
#811=ADVANCED_FACE('',(#715),#69,.T.);
#812=ADVANCED_FACE('',(#716,#717),#70,.T.);
#813=ADVANCED_FACE('',(#718,#719),#776,.F.);
#814=ADVANCED_FACE('',(#720,#721),#777,.F.);
#815=ADVANCED_FACE('',(#722,#723),#778,.F.);
#816=ADVANCED_FACE('',(#724,#725),#779,.F.);
#817=ADVANCED_FACE('',(#726),#780,.T.);
#818=ADVANCED_FACE('',(#727,#728),#781,.F.);
#819=ADVANCED_FACE('',(#729),#71,.T.);
#820=ADVANCED_FACE('',(#730,#731),#782,.F.);
#821=ADVANCED_FACE('',(#732),#72,.T.);
#822=ADVANCED_FACE('',(#733,#734),#783,.F.);
#823=ADVANCED_FACE('',(#735),#73,.T.);
#824=ADVANCED_FACE('',(#736,#737),#784,.F.);
#825=ADVANCED_FACE('',(#738,#739),#785,.F.);
#826=ADVANCED_FACE('',(#740,#741),#786,.F.);
#827=ADVANCED_FACE('',(#742,#743),#787,.F.);
#828=ADVANCED_FACE('',(#744,#745,#746),#788,.F.);
#829=ADVANCED_FACE('',(#747),#74,.T.);
#830=ADVANCED_FACE('',(#748),#75,.T.);
#831=ADVANCED_FACE('',(#749),#76,.F.);
#832=ADVANCED_FACE('',(#750),#77,.T.);
#833=ADVANCED_FACE('',(#751),#78,.T.);
#834=ADVANCED_FACE('',(#752),#79,.T.);
#835=ADVANCED_FACE('',(#753,#754,#755,#756,#757,#758),#80,.T.);
#836=ADVANCED_FACE('',(#759,#760),#789,.F.);
#837=ADVANCED_FACE('',(#761),#81,.F.);
#838=ADVANCED_FACE('',(#762),#82,.T.);
#839=ADVANCED_FACE('',(#763,#764),#790,.F.);
#840=ADVANCED_FACE('',(#765),#83,.T.);
#841=ADVANCED_FACE('',(#766,#767),#791,.F.);
#842=ADVANCED_FACE('',(#768),#84,.T.);
#843=ADVANCED_FACE('',(#769,#770),#792,.F.);
#844=ADVANCED_FACE('',(#771),#85,.T.);
#845=CLOSED_SHELL('',(#793,#794,#795,#796,#797,#798,#799,#800,#801,#802,
#803,#804,#805,#806,#807,#808,#809,#810,#811,#812,#813,#814,#815,#816,#817,
#818,#819,#820,#821,#822,#823,#824,#825,#826,#827,#828,#829,#830,#831,#832,
#833,#834,#835,#836,#837,#838,#839,#840,#841,#842,#843,#844));
#846=STYLED_ITEM('',(#847),#854);
#847=PRESENTATION_STYLE_ASSIGNMENT((#848));
#848=SURFACE_STYLE_USAGE(.BOTH.,#849);
#849=SURFACE_SIDE_STYLE('',(#850));
#850=SURFACE_STYLE_FILL_AREA(#851);
#851=FILL_AREA_STYLE('',(#852));
#852=FILL_AREA_STYLE_COLOUR('',#853);
#853=COLOUR_RGB('',0.972549019607843,0.529411764705882,0.00392156862745098);
#854=MANIFOLD_SOLID_BREP('Part 1',#845);
#855=SHAPE_DEFINITION_REPRESENTATION(#1658,#856);
#856=SHAPE_REPRESENTATION('Part 1',(#857),#1653);
#857=AXIS2_PLACEMENT_3D('',#1199,#954,#955);
#858=AXIS2_PLACEMENT_3D('',#1200,#956,#957);
#859=AXIS2_PLACEMENT_3D('',#1204,#959,#960);
#860=AXIS2_PLACEMENT_3D('',#1208,#962,#963);
#861=AXIS2_PLACEMENT_3D('',#1209,#964,#965);
#862=AXIS2_PLACEMENT_3D('',#1242,#970,#971);
#863=AXIS2_PLACEMENT_3D('',#1286,#975,#976);
#864=AXIS2_PLACEMENT_3D('',#1300,#978,#979);
#865=AXIS2_PLACEMENT_3D('',#1307,#984,#985);
#866=AXIS2_PLACEMENT_3D('',#1308,#986,#987);
#867=AXIS2_PLACEMENT_3D('',#1312,#989,#990);
#868=AXIS2_PLACEMENT_3D('',#1313,#991,#992);
#869=AXIS2_PLACEMENT_3D('',#1315,#993,#994);
#870=AXIS2_PLACEMENT_3D('',#1317,#995,#996);
#871=AXIS2_PLACEMENT_3D('',#1389,#1003,#1004);
#872=AXIS2_PLACEMENT_3D('',#1390,#1005,#1006);
#873=AXIS2_PLACEMENT_3D('',#1392,#1007,#1008);
#874=AXIS2_PLACEMENT_3D('',#1394,#1009,#1010);
#875=AXIS2_PLACEMENT_3D('',#1396,#1011,#1012);
#876=AXIS2_PLACEMENT_3D('',#1398,#1013,#1014);
#877=AXIS2_PLACEMENT_3D('',#1400,#1015,#1016);
#878=AXIS2_PLACEMENT_3D('',#1402,#1017,#1018);
#879=AXIS2_PLACEMENT_3D('',#1404,#1019,#1020);
#880=AXIS2_PLACEMENT_3D('',#1408,#1023,#1024);
#881=AXIS2_PLACEMENT_3D('',#1412,#1026,#1027);
#882=AXIS2_PLACEMENT_3D('',#1414,#1029,#1030);
#883=AXIS2_PLACEMENT_3D('',#1415,#1031,#1032);
#884=AXIS2_PLACEMENT_3D('',#1417,#1033,#1034);
#885=AXIS2_PLACEMENT_3D('',#1419,#1035,#1036);
#886=AXIS2_PLACEMENT_3D('',#1421,#1037,#1038);
#887=AXIS2_PLACEMENT_3D('',#1422,#1039,#1040);
#888=AXIS2_PLACEMENT_3D('',#1426,#1042,#1043);
#889=AXIS2_PLACEMENT_3D('',#1427,#1044,#1045);
#890=AXIS2_PLACEMENT_3D('',#1429,#1046,#1047);
#891=AXIS2_PLACEMENT_3D('',#1431,#1048,#1049);
#892=AXIS2_PLACEMENT_3D('',#1433,#1050,#1051);
#893=AXIS2_PLACEMENT_3D('',#1438,#1053,#1054);
#894=AXIS2_PLACEMENT_3D('',#1441,#1056,#1057);
#895=AXIS2_PLACEMENT_3D('',#1442,#1058,#1059);
#896=AXIS2_PLACEMENT_3D('',#1546,#1061,#1062);
#897=AXIS2_PLACEMENT_3D('',#1553,#1067,#1068);
#898=AXIS2_PLACEMENT_3D('',#1559,#1072,#1073);
#899=AXIS2_PLACEMENT_3D('',#1562,#1075,#1076);
#900=AXIS2_PLACEMENT_3D('',#1563,#1077,#1078);
#901=AXIS2_PLACEMENT_3D('',#1567,#1081,#1082);
#902=AXIS2_PLACEMENT_3D('',#1568,#1083,#1084);
#903=AXIS2_PLACEMENT_3D('',#1569,#1085,#1086);
#904=AXIS2_PLACEMENT_3D('',#1571,#1087,#1088);
#905=AXIS2_PLACEMENT_3D('',#1572,#1089,#1090);
#906=AXIS2_PLACEMENT_3D('',#1573,#1091,#1092);
#907=AXIS2_PLACEMENT_3D('',#1575,#1093,#1094);
#908=AXIS2_PLACEMENT_3D('',#1576,#1095,#1096);
#909=AXIS2_PLACEMENT_3D('',#1577,#1097,#1098);
#910=AXIS2_PLACEMENT_3D('',#1578,#1099,#1100);
#911=AXIS2_PLACEMENT_3D('',#1579,#1101,#1102);
#912=AXIS2_PLACEMENT_3D('',#1580,#1103,#1104);
#913=AXIS2_PLACEMENT_3D('',#1581,#1105,#1106);
#914=AXIS2_PLACEMENT_3D('',#1582,#1107,#1108);
#915=AXIS2_PLACEMENT_3D('',#1584,#1109,#1110);
#916=AXIS2_PLACEMENT_3D('',#1585,#1111,#1112);
#917=AXIS2_PLACEMENT_3D('',#1586,#1113,#1114);
#918=AXIS2_PLACEMENT_3D('',#1588,#1115,#1116);
#919=AXIS2_PLACEMENT_3D('',#1589,#1117,#1118);
#920=AXIS2_PLACEMENT_3D('',#1590,#1119,#1120);
#921=AXIS2_PLACEMENT_3D('',#1592,#1121,#1122);
#922=AXIS2_PLACEMENT_3D('',#1593,#1123,#1124);
#923=AXIS2_PLACEMENT_3D('',#1594,#1125,#1126);
#924=AXIS2_PLACEMENT_3D('',#1596,#1127,#1128);
#925=AXIS2_PLACEMENT_3D('',#1597,#1129,#1130);
#926=AXIS2_PLACEMENT_3D('',#1598,#1131,#1132);
#927=AXIS2_PLACEMENT_3D('',#1600,#1133,#1134);
#928=AXIS2_PLACEMENT_3D('',#1601,#1135,#1136);
#929=AXIS2_PLACEMENT_3D('',#1602,#1137,#1138);
#930=AXIS2_PLACEMENT_3D('',#1605,#1139,#1140);
#931=AXIS2_PLACEMENT_3D('',#1606,#1141,#1142);
#932=AXIS2_PLACEMENT_3D('',#1608,#1143,#1144);
#933=AXIS2_PLACEMENT_3D('',#1609,#1145,#1146);
#934=AXIS2_PLACEMENT_3D('',#1613,#1149,#1150);
#935=AXIS2_PLACEMENT_3D('',#1617,#1153,#1154);
#936=AXIS2_PLACEMENT_3D('',#1623,#1158,#1159);
#937=AXIS2_PLACEMENT_3D('',#1626,#1162,#1163);
#938=AXIS2_PLACEMENT_3D('',#1630,#1167,#1168);
#939=AXIS2_PLACEMENT_3D('',#1631,#1169,#1170);
#940=AXIS2_PLACEMENT_3D('',#1633,#1171,#1172);
#941=AXIS2_PLACEMENT_3D('',#1635,#1173,#1174);
#942=AXIS2_PLACEMENT_3D('',#1637,#1175,#1176);
#943=AXIS2_PLACEMENT_3D('',#1638,#1177,#1178);
#944=AXIS2_PLACEMENT_3D('',#1639,#1179,#1180);
#945=AXIS2_PLACEMENT_3D('',#1640,#1181,#1182);
#946=AXIS2_PLACEMENT_3D('',#1641,#1183,#1184);
#947=AXIS2_PLACEMENT_3D('',#1643,#1185,#1186);
#948=AXIS2_PLACEMENT_3D('',#1644,#1187,#1188);
#949=AXIS2_PLACEMENT_3D('',#1645,#1189,#1190);
#950=AXIS2_PLACEMENT_3D('',#1647,#1191,#1192);
#951=AXIS2_PLACEMENT_3D('',#1648,#1193,#1194);
#952=AXIS2_PLACEMENT_3D('',#1649,#1195,#1196);
#953=AXIS2_PLACEMENT_3D('',#1651,#1197,#1198);
#954=DIRECTION('',(0.,0.,1.));
#955=DIRECTION('',(1.,0.,0.));
#956=DIRECTION('',(1.65391307104234E-16,8.26956535521173E-17,-1.));
#957=DIRECTION('',(-1.,0.,-1.65391307104234E-16));
#958=DIRECTION('',(1.26123457516206E-16,1.22970371078301E-16,-1.));
#959=DIRECTION('',(-0.402738614266017,0.,0.915315032422765));
#960=DIRECTION('',(-0.915315032422766,2.05333312036216E-16,-0.402738614266017));
#961=DIRECTION('',(0.,-8.26956535521173E-17,1.));
#962=DIRECTION('',(0.287347885566346,9.15555531791455E-17,0.957826285221152));
#963=DIRECTION('',(0.957826285221152,5.92974500610078E-16,-0.287347885566346));
#964=DIRECTION('',(3.09772049281573E-16,-1.,0.));
#965=DIRECTION('',(1.,3.09772049281573E-16,0.));
#966=DIRECTION('',(1.,3.09772049281573E-16,0.));
#967=DIRECTION('',(-0.707106781186547,-2.19041916669053E-16,0.707106781186548));
#968=DIRECTION('',(1.,3.09772049281573E-16,0.));
#969=DIRECTION('',(0.,0.,1.));
#970=DIRECTION('',(-1.,0.,0.));
#971=DIRECTION('',(0.,0.,1.));
#972=DIRECTION('',(0.,4.62592926927148E-16,-1.));
#973=DIRECTION('',(0.995719831250739,-2.07275828011958E-16,0.0924230363816318));
#974=DIRECTION('',(0.995719831250739,-3.45459713353264E-16,0.0924230363816325));
#975=DIRECTION('',(-1.,0.,0.));
#976=DIRECTION('',(0.,0.,1.));
#977=DIRECTION('',(0.,1.,-3.46944695195362E-16));
#978=DIRECTION('',(0.,0.,1.));
#979=DIRECTION('',(1.,0.,0.));
#980=DIRECTION('',(-1.,0.,0.));
#981=DIRECTION('',(0.,1.,0.));
#982=DIRECTION('',(-1.,0.,0.));
#983=DIRECTION('',(0.,-1.,-1.22464679914735E-16));
#984=DIRECTION('',(-1.,-1.15648231731787E-16,0.));
#985=DIRECTION('',(1.15648231731787E-16,-1.,0.));
#986=DIRECTION('',(-1.,-1.15648231731787E-16,0.));
#987=DIRECTION('',(1.15648231731787E-16,-1.,0.));
#988=DIRECTION('',(-1.15648231731787E-16,1.,0.));
#989=DIRECTION('',(-0.402738614266017,0.,0.915315032422765));
#990=DIRECTION('',(0.915315032422766,0.,0.402738614266017));
#991=DIRECTION('',(-0.402738614266017,0.,0.915315032422765));
#992=DIRECTION('',(-0.915315032422766,0.,-0.402738614266017));
#993=DIRECTION('',(-0.402738614266017,0.,0.915315032422765));
#994=DIRECTION('',(0.915315032422766,0.,0.402738614266017));
#995=DIRECTION('',(-0.402738614266017,0.,0.915315032422765));
#996=DIRECTION('',(0.915315032422766,0.,0.402738614266017));
#997=DIRECTION('',(0.,1.,0.));
#998=DIRECTION('',(-0.682912123050164,-0.66583931997391,-0.300481334142073));
#999=DIRECTION('',(-0.915315032422766,-1.09504722390224E-16,-0.402738614266017));
#1000=DIRECTION('',(0.,1.,0.));
#1001=DIRECTION('',(0.928476690885259,0.371390676354103,-1.81928961212089E-16));
#1002=DIRECTION('',(0.,4.62592926927148E-16,1.));
#1003=DIRECTION('',(1.,0.,0.));
#1004=DIRECTION('',(0.,1.,0.));
#1005=DIRECTION('',(1.,0.,0.));
#1006=DIRECTION('',(0.,0.,-1.));
#1007=DIRECTION('',(-1.,0.,0.));
#1008=DIRECTION('',(0.,0.,-1.));
#1009=DIRECTION('',(1.,0.,0.));
#1010=DIRECTION('',(0.,0.,-1.));
#1011=DIRECTION('',(1.,0.,0.));
#1012=DIRECTION('',(0.,0.,-1.));
#1013=DIRECTION('',(-1.,0.,0.));
#1014=DIRECTION('',(0.,0.,-1.));
#1015=DIRECTION('',(1.,0.,0.));
#1016=DIRECTION('',(0.,0.,-1.));
#1017=DIRECTION('',(-1.,0.,0.));
#1018=DIRECTION('',(0.,0.,-1.));
#1019=DIRECTION('',(-1.,0.,0.));
#1020=DIRECTION('',(0.,0.,-1.));
#1021=DIRECTION('',(0.,1.,-9.55868037783138E-17));
#1022=DIRECTION('',(0.,4.62592926927148E-16,-1.));
#1023=DIRECTION('',(-1.,-1.15648231731787E-16,0.));
#1024=DIRECTION('',(1.15648231731787E-16,-1.,0.));
#1025=DIRECTION('',(-1.15648231731787E-16,1.,0.));
#1026=DIRECTION('',(-1.,-1.15648231731787E-16,0.));
#1027=DIRECTION('',(1.15648231731787E-16,-1.,0.));
#1028=DIRECTION('',(-1.15648231731787E-16,1.,0.));
#1029=DIRECTION('',(-1.,-1.15648231731787E-16,0.));
#1030=DIRECTION('',(1.15648231731787E-16,-1.,0.));
#1031=DIRECTION('',(-1.,-1.15648231731787E-16,0.));
#1032=DIRECTION('',(1.15648231731787E-16,-1.,0.));
#1033=DIRECTION('',(-1.,-1.15648231731787E-16,0.));
#1034=DIRECTION('',(1.15648231731787E-16,-1.,0.));
#1035=DIRECTION('',(-1.,-1.15648231731787E-16,0.));
#1036=DIRECTION('',(1.15648231731787E-16,-1.,0.));
#1037=DIRECTION('',(1.,0.,0.));
#1038=DIRECTION('',(0.,1.,0.));
#1039=DIRECTION('',(1.,0.,0.));
#1040=DIRECTION('',(0.,0.,-1.));
#1041=DIRECTION('',(0.,-1.,0.));
#1042=DIRECTION('',(1.,0.,0.));
#1043=DIRECTION('',(0.,0.,1.));
#1044=DIRECTION('',(-1.,0.,0.));
#1045=DIRECTION('',(0.,0.,1.));
#1046=DIRECTION('',(-1.,0.,0.));
#1047=DIRECTION('',(0.,0.,1.));
#1048=DIRECTION('',(-1.,0.,0.));
#1049=DIRECTION('',(0.,0.,1.));
#1050=DIRECTION('',(-1.,0.,0.));
#1051=DIRECTION('',(0.,0.,1.));
#1052=DIRECTION('',(0.,-0.866025403784439,0.5));
#1053=DIRECTION('',(-1.,0.,0.));
#1054=DIRECTION('',(0.,0.,1.));
#1055=DIRECTION('',(0.,-0.866025403784439,-0.5));
#1056=DIRECTION('',(1.,0.,0.));
#1057=DIRECTION('',(0.,0.,-1.));
#1058=DIRECTION('',(-1.,0.,0.));
#1059=DIRECTION('',(0.,0.,1.));
#1060=DIRECTION('',(-1.,0.,0.));
#1061=DIRECTION('',(0.,0.,1.));
#1062=DIRECTION('',(1.,0.,0.));
#1063=DIRECTION('',(-1.,-1.19636101791504E-16,0.));
#1064=DIRECTION('',(0.707106781186548,-0.707106781186547,0.));
#1065=DIRECTION('',(1.,2.56996070515082E-16,0.));
#1066=DIRECTION('',(-1.,0.,0.));
#1067=DIRECTION('',(0.,0.5,0.866025403784439));
#1068=DIRECTION('',(0.,-0.866025403784439,0.5));
#1069=DIRECTION('',(1.,0.,0.));
#1070=DIRECTION('',(0.,-0.866025403784439,0.5));
#1071=DIRECTION('',(1.,0.,0.));
#1072=DIRECTION('',(1.,0.,0.));
#1073=DIRECTION('',(0.,0.,-1.));
#1074=DIRECTION('',(1.,0.,0.));
#1075=DIRECTION('',(-1.,0.,0.));
#1076=DIRECTION('',(0.,0.,1.));
#1077=DIRECTION('',(0.,-0.5,0.866025403784439));
#1078=DIRECTION('',(0.,-0.866025403784439,-0.5));
#1079=DIRECTION('',(1.,0.,0.));
#1080=DIRECTION('',(0.,-0.866025403784439,-0.5));
#1081=DIRECTION('',(1.,0.,0.));
#1082=DIRECTION('',(0.,0.,-1.));
#1083=DIRECTION('',(-1.,0.,0.));
#1084=DIRECTION('',(0.,0.,1.));
#1085=DIRECTION('',(-1.,0.,0.));
#1086=DIRECTION('',(0.,0.,1.));
#1087=DIRECTION('',(-1.,0.,0.));
#1088=DIRECTION('',(0.,-1.,0.));
#1089=DIRECTION('',(-1.,0.,0.));
#1090=DIRECTION('',(0.,-1.,0.));
#1091=DIRECTION('',(-1.,0.,0.));
#1092=DIRECTION('',(0.,0.,1.));
#1093=DIRECTION('',(-1.,0.,0.));
#1094=DIRECTION('',(0.,0.,1.));
#1095=DIRECTION('',(-1.,0.,0.));
#1096=DIRECTION('',(0.,0.,1.));
#1097=DIRECTION('',(-1.,0.,0.));
#1098=DIRECTION('',(0.,0.,1.));
#1099=DIRECTION('',(-1.,0.,0.));
#1100=DIRECTION('',(0.,0.,1.));
#1101=DIRECTION('',(-1.,-1.15648231731787E-16,0.));
#1102=DIRECTION('',(1.15648231731787E-16,-1.,0.));
#1103=DIRECTION('',(-1.,0.,0.));
#1104=DIRECTION('',(0.,0.,1.));
#1105=DIRECTION('',(1.,0.,0.));
#1106=DIRECTION('',(0.,0.,-1.));
#1107=DIRECTION('',(1.,0.,0.));
#1108=DIRECTION('',(0.,0.,-1.));
#1109=DIRECTION('',(1.,0.,0.));
#1110=DIRECTION('',(0.,1.,0.));
#1111=DIRECTION('',(1.,0.,0.));
#1112=DIRECTION('',(0.,0.,-1.));
#1113=DIRECTION('',(-1.,0.,0.));
#1114=DIRECTION('',(0.,0.,-1.));
#1115=DIRECTION('',(1.,0.,0.));
#1116=DIRECTION('',(0.,1.,0.));
#1117=DIRECTION('',(1.,0.,0.));
#1118=DIRECTION('',(0.,0.,-1.));
#1119=DIRECTION('',(-1.,0.,0.));
#1120=DIRECTION('',(0.,0.,-1.));
#1121=DIRECTION('',(1.,0.,0.));
#1122=DIRECTION('',(0.,1.,0.));
#1123=DIRECTION('',(1.,0.,0.));
#1124=DIRECTION('',(0.,0.,-1.));
#1125=DIRECTION('',(-0.69810013612954,0.716000139620041,0.));
#1126=DIRECTION('',(0.716000139620041,0.69810013612954,0.));
#1127=DIRECTION('',(1.,0.,0.));
#1128=DIRECTION('',(0.,0.,-1.));
#1129=DIRECTION('',(1.,0.,0.));
#1130=DIRECTION('',(0.,0.,-1.));
#1131=DIRECTION('',(-0.69810013612954,0.716000139620041,0.));
#1132=DIRECTION('',(0.716000139620041,0.69810013612954,0.));
#1133=DIRECTION('',(1.,0.,0.));
#1134=DIRECTION('',(0.,0.,-1.));
#1135=DIRECTION('',(1.,0.,0.));
#1136=DIRECTION('',(0.,0.,-1.));
#1137=DIRECTION('',(-0.69810013612954,0.716000139620041,0.));
#1138=DIRECTION('',(0.716000139620041,0.69810013612954,0.));
#1139=DIRECTION('',(0.287347885566346,9.15555531791455E-17,0.957826285221152));
#1140=DIRECTION('',(0.957826285221152,-2.74666659537436E-17,-0.287347885566346));
#1141=DIRECTION('',(1.,0.,0.));
#1142=DIRECTION('',(0.,0.,-1.));
#1143=DIRECTION('',(1.,0.,0.));
#1144=DIRECTION('',(0.,1.,0.));
#1145=DIRECTION('',(1.,1.15648231731787E-16,0.));
#1146=DIRECTION('',(-1.15648231731787E-16,1.,0.));
#1147=DIRECTION('',(0.,0.,1.));
#1148=DIRECTION('',(-1.15648231731787E-16,1.,0.));
#1149=DIRECTION('',(2.56996070515082E-16,-1.,0.));
#1150=DIRECTION('',(1.,2.56996070515082E-16,0.));
#1151=DIRECTION('',(0.,0.,-1.));
#1152=DIRECTION('',(1.,2.56996070515082E-16,0.));
#1153=DIRECTION('',(-1.19636101791504E-16,1.,0.));
#1154=DIRECTION('',(-1.,-1.19636101791504E-16,0.));
#1155=DIRECTION('',(0.,0.,1.));
#1156=DIRECTION('',(-1.,-1.19636101791504E-16,0.));
#1157=DIRECTION('',(0.,0.,1.));
#1158=DIRECTION('',(0.,0.,1.));
#1159=DIRECTION('',(1.,0.,0.));
#1160=DIRECTION('',(-0.707106781186548,0.707106781186547,0.));
#1161=DIRECTION('',(3.18622679261046E-16,-1.,0.));
#1162=DIRECTION('',(0.287347885566346,9.15555531791455E-17,0.957826285221152));
#1163=DIRECTION('',(0.957826285221152,0.,-0.287347885566346));
#1164=DIRECTION('',(3.18622679261046E-16,-1.,0.));
#1165=DIRECTION('',(0.700032814807309,0.682531994437126,-0.210009844442193));
#1166=DIRECTION('',(0.700032814807309,0.682531994437126,-0.210009844442193));
#1167=DIRECTION('',(-0.69810013612954,0.716000139620041,0.));
#1168=DIRECTION('',(-0.716000139620041,-0.69810013612954,0.));
#1169=DIRECTION('',(-0.69810013612954,0.716000139620041,0.));
#1170=DIRECTION('',(-0.716000139620041,-0.69810013612954,0.));
#1171=DIRECTION('',(-0.69810013612954,0.716000139620041,0.));
#1172=DIRECTION('',(-0.716000139620041,-0.69810013612954,0.));
#1173=DIRECTION('',(-0.69810013612954,0.716000139620041,0.));
#1174=DIRECTION('',(-0.716000139620041,-0.69810013612954,0.));
#1175=DIRECTION('',(0.,0.,-1.));
#1176=DIRECTION('',(-1.,0.,0.));
#1177=DIRECTION('',(-0.707106781186547,-0.707106781186548,0.));
#1178=DIRECTION('',(0.,0.,1.));
#1179=DIRECTION('',(0.707106781186548,2.19041916669053E-16,0.707106781186547));
#1180=DIRECTION('',(0.707106781186547,0.,-0.707106781186548));
#1181=DIRECTION('',(-0.69810013612954,0.716000139620041,0.));
#1182=DIRECTION('',(-0.716000139620041,-0.69810013612954,0.));
#1183=DIRECTION('',(-0.69810013612954,0.716000139620041,0.));
#1184=DIRECTION('',(-0.716000139620041,-0.69810013612954,0.));
#1185=DIRECTION('',(-0.69810013612954,0.716000139620041,0.));
#1186=DIRECTION('',(-0.716000139620041,-0.69810013612954,0.));
#1187=DIRECTION('',(-0.69810013612954,0.716000139620041,0.));
#1188=DIRECTION('',(-0.716000139620041,-0.69810013612954,0.));
#1189=DIRECTION('',(-0.69810013612954,0.716000139620041,0.));
#1190=DIRECTION('',(-0.716000139620041,-0.69810013612954,0.));
#1191=DIRECTION('',(-0.69810013612954,0.716000139620041,0.));
#1192=DIRECTION('',(-0.716000139620041,-0.69810013612954,0.));
#1193=DIRECTION('',(-0.69810013612954,0.716000139620041,0.));
#1194=DIRECTION('',(-0.716000139620041,-0.69810013612954,0.));
#1195=DIRECTION('',(-0.69810013612954,0.716000139620041,0.));
#1196=DIRECTION('',(-0.716000139620041,-0.69810013612954,0.));
#1197=DIRECTION('',(-0.69810013612954,0.716000139620041,0.));
#1198=DIRECTION('',(-0.716000139620041,-0.69810013612954,0.));
#1199=CARTESIAN_POINT('',(0.,0.,0.));
#1200=CARTESIAN_POINT('',(0.0483721116749511,0.0161392222802693,0.0207837003499976));
#1201=CARTESIAN_POINT('',(0.0472356826136308,0.01730479054829,0.0207837003499976));
#1202=CARTESIAN_POINT('',(0.0472356826136308,0.01730479054829,0.0207837003499976));
#1203=CARTESIAN_POINT('',(0.0472356826136308,0.01730479054829,-0.0211707047840893));
#1204=CARTESIAN_POINT('',(0.0483721116749511,0.0161392222802693,0.0212837291369785));
#1205=CARTESIAN_POINT('',(0.05,0.0161392222802693,0.022));
#1206=CARTESIAN_POINT('',(0.05,0.0161392222802693,0.0207837003499976));
#1207=CARTESIAN_POINT('',(0.05,0.0161392222802693,-0.022));
#1208=CARTESIAN_POINT('',(0.0483721116749511,0.0161392222802693,-0.0215116335024853));
#1209=CARTESIAN_POINT('',(-0.018,0.03,-0.01));
#1210=CARTESIAN_POINT('',(-0.018,0.03,-0.01));
#1211=CARTESIAN_POINT('',(-0.046,0.03,-0.01));
#1212=CARTESIAN_POINT('',(0.01,0.03,-0.01));
#1213=CARTESIAN_POINT('',(0.005,0.03,-0.005));
#1214=CARTESIAN_POINT('',(-3.46944253126135E-18,0.03,-5.31699497645915E-18));
#1215=CARTESIAN_POINT('',(-0.023,0.03,0.));
#1216=CARTESIAN_POINT('',(-0.046,0.03,1.83697019872103E-18));
#1217=CARTESIAN_POINT('',(-0.046,0.03,-0.01));
#1218=CARTESIAN_POINT('',(-0.000300001251001589,0.0401200005004006,0.));
#1219=CARTESIAN_POINT('',(0.0164666658326656,0.0334133336669338,0.));
#1220=CARTESIAN_POINT('',(0.0332333329163328,0.0267066668334669,0.));
#1221=CARTESIAN_POINT('',(0.05,0.02,0.));
#1222=CARTESIAN_POINT('',(-0.000300001251001589,0.0401200005004006,-0.00699320594511475));
#1223=CARTESIAN_POINT('',(0.0164666658326656,0.0334133336669338,-0.00632880396340984));
#1224=CARTESIAN_POINT('',(0.0332333329163328,0.0267066668334669,-0.00566440198170492));
#1225=CARTESIAN_POINT('',(0.05,0.02,-0.005));
#1226=CARTESIAN_POINT('',(-0.000300001251001589,0.0382404651569536,-0.0139777262308638));
#1227=CARTESIAN_POINT('',(0.0164666658326656,0.0321603101046357,-0.0126518174872425));
#1228=CARTESIAN_POINT('',(0.0332333329163328,0.0260801550523179,-0.0113259087436213));
#1229=CARTESIAN_POINT('',(0.05,0.02,-0.01));
#1230=CARTESIAN_POINT('',(-0.000300001251001589,0.0312172600722554,-0.0260822740193365));
#1231=CARTESIAN_POINT('',(0.0164666658326656,0.0274781733815036,-0.0240548493462243));
#1232=CARTESIAN_POINT('',(0.0332333329163328,0.0237390866907518,-0.0220274246731122));
#1233=CARTESIAN_POINT('',(0.05,0.02,-0.02));
#1234=CARTESIAN_POINT('',(-0.000300001251001589,0.0260822748728193,-0.0311872594543967));
#1235=CARTESIAN_POINT('',(0.0164666658326656,0.0240548499152129,-0.0291248396362645));
#1236=CARTESIAN_POINT('',(0.0332333329163328,0.0220274249576064,-0.0270624198181322));
#1237=CARTESIAN_POINT('',(0.05,0.02,-0.025));
#1238=CARTESIAN_POINT('',(-0.000300001251001589,0.02,-0.0346688623644042));
#1239=CARTESIAN_POINT('',(0.0164666658326656,0.02,-0.0331125749096028));
#1240=CARTESIAN_POINT('',(0.0332333329163328,0.02,-0.0315562874548014));
#1241=CARTESIAN_POINT('',(0.05,0.02,-0.03));
#1242=CARTESIAN_POINT('',(0.,0.,-2.4492935982947E-18));
#1243=CARTESIAN_POINT('',(-6.56716302407708E-18,0.04,-5.31699497645915E-18));
#1244=CARTESIAN_POINT('',(3.46944695195361E-18,0.02,-0.0346410161513775));
#1245=CARTESIAN_POINT('',(-2.08166817117217E-17,0.04,0.));
#1246=CARTESIAN_POINT('',(0.00342190696692077,0.0386312372132317,-0.0034219069669208));
#1247=CARTESIAN_POINT('',(0.00674234463377009,0.0368676664325337,-0.00674234463377009));
#1248=CARTESIAN_POINT('',(0.01,0.0348598153212888,-0.01));
#1249=CARTESIAN_POINT('',(0.01,0.0348598153212888,-0.01));
#1250=CARTESIAN_POINT('',(0.05,0.02,-0.022));
#1251=CARTESIAN_POINT('',(0.0429876829706105,0.0212304640543447,-0.0198963048911831));
#1252=CARTESIAN_POINT('',(0.0295064020373678,0.0259449421525353,-0.0158519206112104));
#1253=CARTESIAN_POINT('',(0.0165070106217834,0.0319031330290528,-0.011952103186535));
#1254=CARTESIAN_POINT('',(0.01,0.0348598153212888,-0.01));
#1255=CARTESIAN_POINT('',(0.05,0.02,-0.022));
#1256=CARTESIAN_POINT('',(0.05,0.02,-0.015));
#1257=CARTESIAN_POINT('',(0.05,0.02,-0.03));
#1258=CARTESIAN_POINT('',(0.025,0.02,-0.0323205080756888));
#1259=CARTESIAN_POINT('',(-0.000300000985707246,0.02,-0.0346688623397795));
#1260=CARTESIAN_POINT('',(0.0164666660095285,0.02,-0.0331125748931863));
#1261=CARTESIAN_POINT('',(0.0332333330047642,0.02,-0.0315562874465932));
#1262=CARTESIAN_POINT('',(0.05,0.02,-0.03));
#1263=CARTESIAN_POINT('',(-0.000300000985707246,0.0139577252906881,-0.0381804653563661));
#1264=CARTESIAN_POINT('',(0.0164666660095285,0.0137495946382366,-0.0354536435709108));
#1265=CARTESIAN_POINT('',(0.0332333330047642,0.0135414639857851,-0.0327268217854554));
#1266=CARTESIAN_POINT('',(0.05,0.0133333333333336,-0.03));
#1267=CARTESIAN_POINT('',(-0.000300000985707246,0.00698320491622826,-0.0400600001971414));
#1268=CARTESIAN_POINT('',(0.0164666660095285,0.0068776921663744,-0.0367066667980943));
#1269=CARTESIAN_POINT('',(0.0332333330047642,0.00677217941652054,-0.0333533333990471));
#1270=CARTESIAN_POINT('',(0.05,0.00666666666666667,-0.03));
#1271=CARTESIAN_POINT('',(-0.000300000985707246,-0.00698320491622825,-0.0400600001971414));
#1272=CARTESIAN_POINT('',(0.0164666660095285,-0.00687769216637439,-0.0367066667980943));
#1273=CARTESIAN_POINT('',(0.0332333330047642,-0.00677217941652053,-0.0333533333990471));
#1274=CARTESIAN_POINT('',(0.05,-0.00666666666666666,-0.03));
#1275=CARTESIAN_POINT('',(-0.000300000985707246,-0.0139577252906877,-0.0381804653563661));
#1276=CARTESIAN_POINT('',(0.0164666660095285,-0.0137495946382362,-0.0354536435709108));
#1277=CARTESIAN_POINT('',(0.0332333330047642,-0.0135414639857847,-0.0327268217854554));
#1278=CARTESIAN_POINT('',(0.05,-0.0133333333333332,-0.03));
#1279=CARTESIAN_POINT('',(-0.000300000985707246,-0.02,-0.0346688623397795));
#1280=CARTESIAN_POINT('',(0.0164666660095285,-0.02,-0.0331125748931863));
#1281=CARTESIAN_POINT('',(0.0332333330047642,-0.02,-0.0315562874465932));
#1282=CARTESIAN_POINT('',(0.05,-0.02,-0.03));
#1283=CARTESIAN_POINT('',(0.025,-0.02,-0.0323205080756888));
#1284=CARTESIAN_POINT('',(0.,-0.02,-0.0346410161513775));
#1285=CARTESIAN_POINT('',(0.05,-0.02,-0.03));
#1286=CARTESIAN_POINT('',(0.,0.,-2.4492935982947E-18));
#1287=CARTESIAN_POINT('',(0.05,0.,-0.03));
#1288=CARTESIAN_POINT('',(0.0438344835364784,0.00118522979709569,-0.0312309904477852));
#1289=CARTESIAN_POINT('',(0.0433328612293135,-1.88489265051385E-7,-0.0313344835650342));
#1290=CARTESIAN_POINT('',(0.0438340715462675,-0.00118447584003546,-0.0312310752920778));
#1291=CARTESIAN_POINT('',(0.0449987701430848,-0.00165758887597185,-0.0309964413575631));
#1292=CARTESIAN_POINT('',(0.0461659156766961,-0.0011851673045971,-0.0307658109837606));
#1293=CARTESIAN_POINT('',(0.0466665942741579,-4.46123161298119E-7,-0.0306671827460612));
#1294=CARTESIAN_POINT('',(0.0461677064506966,0.0011832144761304,-0.0307654581849699));
#1295=CARTESIAN_POINT('',(0.0450000918921053,0.001657888840845,-0.0309961774127949));
#1296=CARTESIAN_POINT('',(0.0438344835364784,0.00118522979709569,-0.0312309904477852));
#1297=CARTESIAN_POINT('',(0.0433328612293135,-1.88489265051385E-7,-0.0313344835650342));
#1298=CARTESIAN_POINT('',(0.0438340715462675,-0.00118447584003546,-0.0312310752920778));
#1299=CARTESIAN_POINT('',(0.0435,5.20417042793042E-18,-0.0313));
#1300=CARTESIAN_POINT('',(-0.023,0.,0.));
#1301=CARTESIAN_POINT('',(2.000000000002E-6,0.03,3.67394039744206E-18));
#1302=CARTESIAN_POINT('',(-0.05,0.03,3.67394039744206E-18));
#1303=CARTESIAN_POINT('',(0.,0.,0.));
#1304=CARTESIAN_POINT('',(2.000000000002E-6,0.04,4.89858719658941E-18));
#1305=CARTESIAN_POINT('',(-0.05,0.04,4.89858719658941E-18));
#1306=CARTESIAN_POINT('',(-0.05,0.035,4.28626379701574E-18));
#1307=CARTESIAN_POINT('',(-0.046,-3.46944695195361E-18,0.151006758243367));
#1308=CARTESIAN_POINT('',(-0.046,0.,6.73555739531044E-19));
#1309=CARTESIAN_POINT('',(-0.046,-0.00458257569495584,-0.01));
#1310=CARTESIAN_POINT('',(-0.046,0.00458257569495584,-0.01));
#1311=CARTESIAN_POINT('',(-0.046,-3.46944695195361E-18,-0.01));
#1312=CARTESIAN_POINT('',(1.39728025769925E-18,0.,-3.17563694931648E-18));
#1313=CARTESIAN_POINT('',(0.045,4.09184768075549E-18,0.0198));
#1314=CARTESIAN_POINT('',(0.0435,4.09184768075549E-18,0.01914));
#1315=CARTESIAN_POINT('',(0.0454545454545454,-0.0105,0.02));
#1316=CARTESIAN_POINT('',(0.0477272727272727,-0.0105,0.021));
#1317=CARTESIAN_POINT('',(0.0454545454545454,0.0105,0.02));
#1318=CARTESIAN_POINT('',(0.0477272727272727,0.0105,0.021));
#1319=CARTESIAN_POINT('',(0.05,-3.46944695195361E-18,0.022));
#1320=CARTESIAN_POINT('',(0.05,-0.02,0.022));
#1321=CARTESIAN_POINT('',(0.0130729051288927,-0.0160039174993296,0.00575207825671279));
#1322=CARTESIAN_POINT('',(0.01,-0.019,0.0044));
#1323=CARTESIAN_POINT('',(3.30167530967527E-18,-0.019,-2.33770312644704E-18));
#1324=CARTESIAN_POINT('',(-3.46944278745523E-18,-0.019,-5.31699508918446E-18));
#1325=CARTESIAN_POINT('',(0.,0.,0.));
#1326=CARTESIAN_POINT('',(0.,-0.04,0.));
#1327=CARTESIAN_POINT('',(6.98640128849627E-19,-0.04,3.31076872193117E-18));
#1328=CARTESIAN_POINT('',(0.00417678856776999,-0.038329284572892,0.0018377869698188));
#1329=CARTESIAN_POINT('',(0.0124502394697753,-0.0347630559445975,0.00547810536670112));
#1330=CARTESIAN_POINT('',(0.0247248462443351,-0.0290504455409741,0.0108789323475074));
#1331=CARTESIAN_POINT('',(0.037075610191426,-0.02351896970694,0.0163132684842274));
#1332=CARTESIAN_POINT('',(0.0455779793359928,-0.0207759400283566,0.0200543109078368));
#1333=CARTESIAN_POINT('',(0.05,-0.02,0.022));
#1334=CARTESIAN_POINT('',(0.,-0.0286452562334188,0.0279186180612857));
#1335=CARTESIAN_POINT('',(0.05,-0.02,0.022132));
#1336=CARTESIAN_POINT('',(0.,-0.0291348008418737,0.0274163298204154));
#1337=CARTESIAN_POINT('',(0.05,-0.02,0.0216296666666667));
#1338=CARTESIAN_POINT('',(0.,-0.0296111339695113,0.0269011652624753));
#1339=CARTESIAN_POINT('',(0.05,-0.02,0.0211273333333333));
#1340=CARTESIAN_POINT('',(0.,-0.0306489800682962,0.0257177285995993));
#1341=CARTESIAN_POINT('',(0.05,-0.02,0.02));
#1342=CARTESIAN_POINT('',(0.,-0.031202889046882,0.0250427885563377));
#1343=CARTESIAN_POINT('',(0.05,-0.02,0.019375));
#1344=CARTESIAN_POINT('',(0.,-0.0322653781764168,0.02365812576436));
#1345=CARTESIAN_POINT('',(0.05,-0.02,0.018125));
#1346=CARTESIAN_POINT('',(0.,-0.0327739580024886,0.0229484034390322));
#1347=CARTESIAN_POINT('',(0.05,-0.02,0.0175));
#1348=CARTESIAN_POINT('',(0.,-0.033743610981715,0.0214972152025361));
#1349=CARTESIAN_POINT('',(0.05,-0.02,0.01625));
#1350=CARTESIAN_POINT('',(0.,-0.034204683838379,0.0207557497350976));
#1351=CARTESIAN_POINT('',(0.05,-0.02,0.015625));
#1352=CARTESIAN_POINT('',(0.,-0.0350773484643761,0.0192442502649024));
#1353=CARTESIAN_POINT('',(0.05,-0.02,0.014375));
#1354=CARTESIAN_POINT('',(0.,-0.0354889399668748,0.0184742167243167));
#1355=CARTESIAN_POINT('',(0.05,-0.02,0.01375));
#1356=CARTESIAN_POINT('',(0.,-0.0362608793557403,0.0169088784932034));
#1357=CARTESIAN_POINT('',(0.05,-0.02,0.0125));
#1358=CARTESIAN_POINT('',(0.,-0.0366212270060713,0.016113574281309));
#1359=CARTESIAN_POINT('',(0.05,-0.02,0.011875));
#1360=CARTESIAN_POINT('',(0.,-0.0372891355948317,0.0145011003078982));
#1361=CARTESIAN_POINT('',(0.05,-0.02,0.010625));
#1362=CARTESIAN_POINT('',(0.,-0.0375966963290347,0.0136839310394278));
#1363=CARTESIAN_POINT('',(0.05,-0.02,0.01));
#1364=CARTESIAN_POINT('',(0.,-0.0381577140305738,0.0120312261848252));
#1365=CARTESIAN_POINT('',(0.05,-0.02,0.00875));
#1366=CARTESIAN_POINT('',(0.,-0.0384111708263674,0.0111956911040404));
#1367=CARTESIAN_POINT('',(0.05,-0.02,0.008125));
#1368=CARTESIAN_POINT('',(0.,-0.0388628952767581,0.00950983250416127));
#1369=CARTESIAN_POINT('',(0.05,-0.02,0.006875));
#1370=CARTESIAN_POINT('',(0.,-0.0390611627932314,0.00865950950055176));
#1371=CARTESIAN_POINT('',(0.05,-0.02,0.00625));
#1372=CARTESIAN_POINT('',(0.,-0.0394016596390271,0.00694771626073854));
#1373=CARTESIAN_POINT('',(0.05,-0.02,0.005));
#1374=CARTESIAN_POINT('',(0.,-0.0395438888642359,0.00608624654794966));
#1375=CARTESIAN_POINT('',(0.05,-0.02,0.004375));
#1376=CARTESIAN_POINT('',(0.,-0.0397717000456689,0.00435584882965448));
#1377=CARTESIAN_POINT('',(0.05,-0.02,0.003125));
#1378=CARTESIAN_POINT('',(0.,-0.0398572819322355,0.0034869213532517));
#1379=CARTESIAN_POINT('',(0.05,-0.02,0.0025));
#1380=CARTESIAN_POINT('',(0.,-0.0399714319268528,0.0017453289851598));
#1381=CARTESIAN_POINT('',(0.05,-0.02,0.00125));
#1382=CARTESIAN_POINT('',(0.,-0.04,0.000872664748452047));
#1383=CARTESIAN_POINT('',(0.05,-0.02,0.000625));
#1384=CARTESIAN_POINT('',(0.,-0.04,9.79717439317883E-18));
#1385=CARTESIAN_POINT('',(0.05,-0.02,0.));
#1386=CARTESIAN_POINT('',(0.025,-0.03,4.89858719658941E-18));
#1387=CARTESIAN_POINT('',(0.05,-0.02,3.85185988877447E-34));
#1388=CARTESIAN_POINT('',(0.05,-0.02,0.015));
#1389=CARTESIAN_POINT('',(0.05,0.,0.015));
#1390=CARTESIAN_POINT('',(0.05,0.0105,-0.02));
#1391=CARTESIAN_POINT('',(0.05,0.0105,-0.021));
#1392=CARTESIAN_POINT('',(0.05,0.0085,0.0085));
#1393=CARTESIAN_POINT('',(0.05,0.0085,0.0075));
#1394=CARTESIAN_POINT('',(0.05,-0.0105,0.02));
#1395=CARTESIAN_POINT('',(0.05,-0.0105,0.019));
#1396=CARTESIAN_POINT('',(0.05,0.0085,-0.0085));
#1397=CARTESIAN_POINT('',(0.05,0.0085,-0.0095));
#1398=CARTESIAN_POINT('',(0.05,-0.0105,-0.02));
#1399=CARTESIAN_POINT('',(0.05,-0.0105,-0.021));
#1400=CARTESIAN_POINT('',(0.05,-0.0085,0.0085));
#1401=CARTESIAN_POINT('',(0.05,-0.0085,0.0075));
#1402=CARTESIAN_POINT('',(0.05,-0.0085,-0.0085));
#1403=CARTESIAN_POINT('',(0.05,-0.0085,-0.0095));
#1404=CARTESIAN_POINT('',(0.05,0.0105,0.02));
#1405=CARTESIAN_POINT('',(0.05,0.0105,0.019));
#1406=CARTESIAN_POINT('',(0.05,-2.10290968312291E-18,-0.022));
#1407=CARTESIAN_POINT('',(0.05,-0.02,-0.015));
#1408=CARTESIAN_POINT('',(-0.046,-3.46944695195361E-18,0.151006758243367));
#1409=CARTESIAN_POINT('',(-0.046,-3.46944695195361E-18,0.));
#1410=CARTESIAN_POINT('',(-0.046,-0.03,0.));
#1411=CARTESIAN_POINT('',(-0.046,-0.011,0.));
#1412=CARTESIAN_POINT('',(-0.046,0.,6.73555739531044E-19));
#1413=CARTESIAN_POINT('',(-0.046,-3.46944695195361E-18,-0.01));
#1414=CARTESIAN_POINT('',(-0.046,0.,1.83697019872103E-18));
#1415=CARTESIAN_POINT('',(-0.046,0.0284,6.12323399573677E-20));
#1416=CARTESIAN_POINT('',(-0.046,0.0274,6.12323399573677E-20));
#1417=CARTESIAN_POINT('',(-0.046,0.0214,0.007));
#1418=CARTESIAN_POINT('',(-0.046,0.0204,0.007));
#1419=CARTESIAN_POINT('',(-0.046,0.0214,-0.007));
#1420=CARTESIAN_POINT('',(-0.046,0.0204,-0.007));
#1421=CARTESIAN_POINT('',(-0.05,0.,0.02));
#1422=CARTESIAN_POINT('',(-0.05,0.,2.4492935982947E-18));
#1423=CARTESIAN_POINT('',(-0.05,-0.04,0.));
#1424=CARTESIAN_POINT('',(-0.05,-0.035,0.));
#1425=CARTESIAN_POINT('',(-0.05,-0.03,0.));
#1426=CARTESIAN_POINT('',(-0.05,0.,1.83697019872103E-18));
#1427=CARTESIAN_POINT('',(-0.05,0.0284,6.12323399573677E-20));
#1428=CARTESIAN_POINT('',(-0.05,0.0284,0.001));
#1429=CARTESIAN_POINT('',(-0.05,0.0214,0.007));
#1430=CARTESIAN_POINT('',(-0.05,0.0214,0.008));
#1431=CARTESIAN_POINT('',(-0.05,0.0214,-0.007));
#1432=CARTESIAN_POINT('',(-0.05,0.0214,-0.006));
#1433=CARTESIAN_POINT('',(-0.05,-3.46944695195361E-18,0.));
#1434=CARTESIAN_POINT('',(-0.05,0.021650635094611,-0.0125));
#1435=CARTESIAN_POINT('',(-0.05,0.021650635094611,0.0125));
#1436=CARTESIAN_POINT('',(-0.05,0.0194855715851498,-0.01125));
#1437=CARTESIAN_POINT('',(-0.05,0.0173205080756888,-0.01));
#1438=CARTESIAN_POINT('',(-0.05,1.7347234759768E-18,8.67361737988404E-19));
#1439=CARTESIAN_POINT('',(-0.05,0.0173205080756888,0.01));
#1440=CARTESIAN_POINT('',(-0.05,0.0194855715851498,0.01125));
#1441=CARTESIAN_POINT('',(-0.05,0.,2.4492935982947E-18));
#1442=CARTESIAN_POINT('',(0.,0.,-2.4492935982947E-18));
#1443=CARTESIAN_POINT('',(2.000000000002E-6,-0.04,0.));
#1444=CARTESIAN_POINT('',(-0.000300002403650189,-0.02,-0.0346688624713934));
#1445=CARTESIAN_POINT('',(0.,-0.02,-0.0346410161513775));
#1446=CARTESIAN_POINT('',(0.05,-0.02,-0.03));
#1447=CARTESIAN_POINT('',(-0.000300002403650189,-0.0207602843765246,-0.0342336621119919));
#1448=CARTESIAN_POINT('',(0.,-0.0207557498411466,-0.0342046837771516));
#1449=CARTESIAN_POINT('',(0.05,-0.02,-0.029375));
#1450=CARTESIAN_POINT('',(-0.000300002403650189,-0.0215061985657269,-0.0337735728876632));
#1451=CARTESIAN_POINT('',(0.,-0.0214972152025361,-0.033743610981715));
#1452=CARTESIAN_POINT('',(0.05,-0.02,-0.02875));
#1453=CARTESIAN_POINT('',(-0.000300002403650189,-0.0229660940014049,-0.0328056020040385));
#1454=CARTESIAN_POINT('',(0.,-0.0229484034390321,-0.0327739580024886));
#1455=CARTESIAN_POINT('',(0.05,-0.02,-0.0275));
#1456=CARTESIAN_POINT('',(-0.000300002403650189,-0.0236800746948032,-0.032297720704607));
#1457=CARTESIAN_POINT('',(0.,-0.02365812576436,-0.0322653781764168));
#1458=CARTESIAN_POINT('',(0.05,-0.02,-0.026875));
#1459=CARTESIAN_POINT('',(-0.000300002403650189,-0.0250730455300977,-0.0312363566493092));
#1460=CARTESIAN_POINT('',(0.,-0.0250427885563376,-0.0312028890468821));
#1461=CARTESIAN_POINT('',(0.05,-0.02,-0.025625));
#1462=CARTESIAN_POINT('',(-0.000300002403650189,-0.0257520352460653,-0.0306828742202694));
#1463=CARTESIAN_POINT('',(0.,-0.0257177285995993,-0.0306489800682962));
#1464=CARTESIAN_POINT('',(0.05,-0.02,-0.025));
#1465=CARTESIAN_POINT('',(-0.000300002403650189,-0.0270721165660068,-0.0295326940335356));
#1466=CARTESIAN_POINT('',(0.,-0.0270299366084061,-0.029498204530022));
#1467=CARTESIAN_POINT('',(0.05,-0.02,-0.02375));
#1468=CARTESIAN_POINT('',(-0.000300002403650189,-0.0277132077663395,-0.0289359966298253));
#1469=CARTESIAN_POINT('',(0.,-0.0276672041727177,-0.0289013383222061));
#1470=CARTESIAN_POINT('',(0.05,-0.02,-0.023125));
#1471=CARTESIAN_POINT('',(-0.000300002403650189,-0.0289547467800534,-0.0277019576762027));
#1472=CARTESIAN_POINT('',(0.,-0.0289013383222061,-0.0276672041727177));
#1473=CARTESIAN_POINT('',(0.05,-0.02,-0.021875));
#1474=CARTESIAN_POINT('',(-0.000300002403650189,-0.0295551942138094,-0.0270646165059155));
#1475=CARTESIAN_POINT('',(0.,-0.029498204530022,-0.0270299366084062));
#1476=CARTESIAN_POINT('',(0.05,-0.02,-0.02125));
#1477=CARTESIAN_POINT('',(-0.000300002403650189,-0.0307128744606344,-0.0257520352460653));
#1478=CARTESIAN_POINT('',(0.,-0.0306489800682962,-0.0257177285995993));
#1479=CARTESIAN_POINT('',(0.05,-0.02,-0.02));
#1480=CARTESIAN_POINT('',(-0.000300002403650189,-0.0312701069197198,-0.0250767955601433));
#1481=CARTESIAN_POINT('',(0.,-0.031202889046882,-0.0250427885563377));
#1482=CARTESIAN_POINT('',(0.05,-0.02,-0.019375));
#1483=CARTESIAN_POINT('',(-0.000300002403650189,-0.0323389710351089,-0.0236913247849401));
#1484=CARTESIAN_POINT('',(0.,-0.0322653781764168,-0.02365812576436));
#1485=CARTESIAN_POINT('',(0.05,-0.02,-0.018125));
#1486=CARTESIAN_POINT('',(-0.000300002403650189,-0.0328506023645861,-0.0229810941215875));
#1487=CARTESIAN_POINT('',(0.,-0.0327739580024886,-0.0229484034390322));
#1488=CARTESIAN_POINT('',(0.05,-0.02,-0.0175));
#1489=CARTESIAN_POINT('',(-0.000300002403650189,-0.033826073308302,-0.0215286987460007));
#1490=CARTESIAN_POINT('',(0.,-0.033743610981715,-0.0214972152025361));
#1491=CARTESIAN_POINT('',(0.05,-0.02,-0.01625));
#1492=CARTESIAN_POINT('',(-0.000300002403650189,-0.0342899126242711,-0.0207865344801587));
#1493=CARTESIAN_POINT('',(0.,-0.034204683838379,-0.0207557497350976));
#1494=CARTESIAN_POINT('',(0.05,-0.02,-0.015625));
#1495=CARTESIAN_POINT('',(-0.000300002403650189,-0.0351678132799758,-0.0192734660005713));
#1496=CARTESIAN_POINT('',(0.,-0.0350773484643761,-0.0192442502649024));
#1497=CARTESIAN_POINT('',(0.05,-0.02,-0.014375));
#1498=CARTESIAN_POINT('',(-0.000300002403650189,-0.0355818743512759,-0.0185025622517699));
#1499=CARTESIAN_POINT('',(0.,-0.0354889399668748,-0.0184742167243167));
#1500=CARTESIAN_POINT('',(0.05,-0.02,-0.01375));
#1501=CARTESIAN_POINT('',(-0.000300002403650189,-0.036358445413584,-0.0169353319761107));
#1502=CARTESIAN_POINT('',(0.,-0.0362608793557403,-0.0169088784932034));
#1503=CARTESIAN_POINT('',(0.05,-0.02,-0.0125));
#1504=CARTESIAN_POINT('',(-0.000300002403650189,-0.03672095516714,-0.0161390059307579));
#1505=CARTESIAN_POINT('',(0.,-0.0366212270060713,-0.016113574281309));
#1506=CARTESIAN_POINT('',(0.05,-0.02,-0.011875));
#1507=CARTESIAN_POINT('',(-0.000300002403650189,-0.0373928712395413,-0.0145243570960814));
#1508=CARTESIAN_POINT('',(0.,-0.0372891355948317,-0.0145011003078982));
#1509=CARTESIAN_POINT('',(0.05,-0.02,-0.010625));
#1510=CARTESIAN_POINT('',(-0.000300002403650189,-0.037702277352935,-0.013706034802762));
#1511=CARTESIAN_POINT('',(0.,-0.0375966963290347,-0.0136839310394278));
#1512=CARTESIAN_POINT('',(0.05,-0.02,-0.01));
#1513=CARTESIAN_POINT('',(-0.000300002403650189,-0.0382666611876531,-0.0120509136996725));
#1514=CARTESIAN_POINT('',(0.,-0.0381577140305738,-0.0120312261848252));
#1515=CARTESIAN_POINT('',(0.05,-0.02,-0.00875));
#1516=CARTESIAN_POINT('',(-0.000300002403650189,-0.0385216387364059,-0.011214115398282));
#1517=CARTESIAN_POINT('',(0.,-0.0384111708263674,-0.0111956911040404));
#1518=CARTESIAN_POINT('',(0.05,-0.02,-0.008125));
#1519=CARTESIAN_POINT('',(-0.000300002403650189,-0.0389760735552147,-0.00952564162585055));
#1520=CARTESIAN_POINT('',(0.,-0.0388628952767581,-0.00950983250416127));
#1521=CARTESIAN_POINT('',(0.05,-0.02,-0.006875));
#1522=CARTESIAN_POINT('',(-0.000300002403650189,-0.0391755306863181,-0.00867396667338743));
#1523=CARTESIAN_POINT('',(0.,-0.0390611627932314,-0.00865950950055176));
#1524=CARTESIAN_POINT('',(0.05,-0.02,-0.00625));
#1525=CARTESIAN_POINT('',(-0.000300002403650189,-0.0395180705295573,-0.00695940265193554));
#1526=CARTESIAN_POINT('',(0.,-0.0394016596390271,-0.00694771626073854));
#1527=CARTESIAN_POINT('',(0.05,-0.02,-0.005));
#1528=CARTESIAN_POINT('',(-0.000300002403650189,-0.0396611531369548,-0.00609651410950212));
#1529=CARTESIAN_POINT('',(0.,-0.0395438888642359,-0.00608624654794966));
#1530=CARTESIAN_POINT('',(0.05,-0.02,-0.004375));
#1531=CARTESIAN_POINT('',(-0.000300002403650189,-0.039890331196428,-0.00436323398180301));
#1532=CARTESIAN_POINT('',(0.,-0.0397717000456689,-0.00435584882965448));
#1533=CARTESIAN_POINT('',(0.05,-0.02,-0.003125));
#1534=CARTESIAN_POINT('',(-0.000300002403650189,-0.0399764265784281,-0.00349284292881548));
#1535=CARTESIAN_POINT('',(0.,-0.0398572819322355,-0.0034869213532517));
#1536=CARTESIAN_POINT('',(0.05,-0.02,-0.0025));
#1537=CARTESIAN_POINT('',(-0.000300002403650189,-0.0400912614785006,-0.00174830098288271));
#1538=CARTESIAN_POINT('',(0.,-0.0399714319268528,-0.0017453289851598));
#1539=CARTESIAN_POINT('',(0.05,-0.02,-0.00125));
#1540=CARTESIAN_POINT('',(-0.000300002403650189,-0.0401200009614601,-0.000874150748848748));
#1541=CARTESIAN_POINT('',(0.,-0.04,-0.000872664748452047));
#1542=CARTESIAN_POINT('',(0.05,-0.02,-0.000625));
#1543=CARTESIAN_POINT('',(-0.000300002403650189,-0.0401200009614601,-9.8559579105175E-18));
#1544=CARTESIAN_POINT('',(0.,-0.04,-9.79717439317883E-18));
#1545=CARTESIAN_POINT('',(0.05,-0.02,0.));
#1546=CARTESIAN_POINT('',(-0.023,0.,0.));
#1547=CARTESIAN_POINT('',(-0.023,-0.019,0.));
#1548=CARTESIAN_POINT('',(-0.019,-0.019,0.));
#1549=CARTESIAN_POINT('',(-0.0305,-0.0075,0.));
#1550=CARTESIAN_POINT('',(-0.027,-0.011,0.));
#1551=CARTESIAN_POINT('',(-0.023,-0.011,0.));
#1552=CARTESIAN_POINT('',(2.000000000002E-6,-0.03,0.));
#1553=CARTESIAN_POINT('',(-0.052,0.0194855715851498,-0.01125));
#1554=CARTESIAN_POINT('',(-0.052,0.021650635094611,-0.0125));
#1555=CARTESIAN_POINT('',(-0.052,0.021650635094611,-0.0125));
#1556=CARTESIAN_POINT('',(-0.052,0.0194855715851498,-0.01125));
#1557=CARTESIAN_POINT('',(-0.052,0.0173205080756888,-0.01));
#1558=CARTESIAN_POINT('',(-0.052,0.0173205080756888,-0.01));
#1559=CARTESIAN_POINT('',(-0.052,-3.46944695195361E-18,0.));
#1560=CARTESIAN_POINT('',(-0.052,0.021650635094611,0.0125));
#1561=CARTESIAN_POINT('',(-0.052,0.021650635094611,0.0125));
#1562=CARTESIAN_POINT('',(-0.052,-3.46944695195361E-18,0.));
#1563=CARTESIAN_POINT('',(-0.052,0.0194855715851498,0.01125));
#1564=CARTESIAN_POINT('',(-0.052,0.0173205080756888,0.01));
#1565=CARTESIAN_POINT('',(-0.052,0.0173205080756888,0.01));
#1566=CARTESIAN_POINT('',(-0.052,0.0194855715851498,0.01125));
#1567=CARTESIAN_POINT('',(-0.052,1.7347234759768E-18,8.67361737988404E-19));
#1568=CARTESIAN_POINT('',(-0.052,1.7347234759768E-18,8.67361737988404E-19));
#1569=CARTESIAN_POINT('',(-0.061,1.7347234759768E-18,8.67361737988404E-19));
#1570=CARTESIAN_POINT('',(-0.061,1.7347234759768E-18,0.02));
#1571=CARTESIAN_POINT('',(-0.052,0.,0.));
#1572=CARTESIAN_POINT('',(-0.061,-0.00167468245269452,0.));
#1573=CARTESIAN_POINT('',(-0.061,0.,6.73555739531044E-19));
#1574=CARTESIAN_POINT('',(-0.061,0.,0.011));
#1575=CARTESIAN_POINT('',(-0.045998,0.0214,0.007));
#1576=CARTESIAN_POINT('',(-0.045998,0.0214,-0.007));
#1577=CARTESIAN_POINT('',(-0.045998,0.0284,6.12323399573677E-20));
#1578=CARTESIAN_POINT('',(-0.045998,0.,6.73555739531044E-19));
#1579=CARTESIAN_POINT('',(-0.046,0.,6.73555739531044E-19));
#1580=CARTESIAN_POINT('',(2.000000000002E-6,0.,1.83697019872103E-18));
#1581=CARTESIAN_POINT('',(0.03,-0.0085,0.0085));
#1582=CARTESIAN_POINT('',(0.03,-0.0085,0.0085));
#1583=CARTESIAN_POINT('',(0.03,-0.0085,0.0075));
#1584=CARTESIAN_POINT('',(0.03,0.,0.));
#1585=CARTESIAN_POINT('',(0.03,-0.0105,-0.02));
#1586=CARTESIAN_POINT('',(0.03,-0.0105,-0.02));
#1587=CARTESIAN_POINT('',(0.03,-0.0105,-0.021));
#1588=CARTESIAN_POINT('',(0.03,0.,0.));
#1589=CARTESIAN_POINT('',(0.03,-0.0085,-0.0085));
#1590=CARTESIAN_POINT('',(0.03,-0.0085,-0.0085));
#1591=CARTESIAN_POINT('',(0.03,-0.0085,-0.0095));
#1592=CARTESIAN_POINT('',(0.03,0.,0.));
#1593=CARTESIAN_POINT('',(0.03,0.0085,-0.0085));
#1594=CARTESIAN_POINT('',(0.0382051282051282,0.0085,-0.0085));
#1595=CARTESIAN_POINT('',(0.0392307692307692,0.0095,-0.0085));
#1596=CARTESIAN_POINT('',(0.03,-0.0105,0.02));
#1597=CARTESIAN_POINT('',(0.03,0.0085,0.0085));
#1598=CARTESIAN_POINT('',(0.0382051282051282,0.0085,0.0085));
#1599=CARTESIAN_POINT('',(0.0392307692307692,0.0095,0.0085));
#1600=CARTESIAN_POINT('',(0.03,0.0105,0.02));
#1601=CARTESIAN_POINT('',(0.03,0.0105,-0.02));
#1602=CARTESIAN_POINT('',(0.0402564102564103,0.0105,-0.02));
#1603=CARTESIAN_POINT('',(0.0400610360909958,0.0103095101887209,-0.0190183108272987));
#1604=CARTESIAN_POINT('',(0.0409840089540493,0.011209408730198,-0.0192952026862148));
#1605=CARTESIAN_POINT('',(0.0433333333333333,0.0105,-0.02));
#1606=CARTESIAN_POINT('',(0.03,0.0105,-0.02));
#1607=CARTESIAN_POINT('',(0.03,0.0105,-0.021));
#1608=CARTESIAN_POINT('',(0.03,0.,0.));
#1609=CARTESIAN_POINT('',(-0.046,-3.46944695195361E-18,-0.01));
#1610=CARTESIAN_POINT('',(-0.046,-0.011,-0.01));
#1611=CARTESIAN_POINT('',(-0.046,-0.011,-0.01));
#1612=CARTESIAN_POINT('',(-0.046,-3.46944695195361E-18,-0.01));
#1613=CARTESIAN_POINT('',(-0.0325,-0.011,-0.01));
#1614=CARTESIAN_POINT('',(-0.027,-0.011,-0.01));
#1615=CARTESIAN_POINT('',(-0.027,-0.011,-0.01));
#1616=CARTESIAN_POINT('',(-0.0325,-0.011,-0.01));
#1617=CARTESIAN_POINT('',(-0.0045,-0.019,-0.01));
#1618=CARTESIAN_POINT('',(0.01,-0.019,-0.01));
#1619=CARTESIAN_POINT('',(0.01,-0.019,-0.01));
#1620=CARTESIAN_POINT('',(-0.0045,-0.019,-0.01));
#1621=CARTESIAN_POINT('',(-0.019,-0.019,-0.01));
#1622=CARTESIAN_POINT('',(-0.019,-0.019,-0.01));
#1623=CARTESIAN_POINT('',(-0.02,0.,-0.01));
#1624=CARTESIAN_POINT('',(-0.019,-0.019,-0.01));
#1625=CARTESIAN_POINT('',(0.01,0.0055,-0.01));
#1626=CARTESIAN_POINT('',(-0.00192660550458716,-6.1386020775064E-19,-0.00642201834862386));
#1627=CARTESIAN_POINT('',(0.01,0.0055,-0.01));
#1628=CARTESIAN_POINT('',(0.01,-0.019,-0.01));
#1629=CARTESIAN_POINT('',(0.01,-0.019,-0.01));
#1630=CARTESIAN_POINT('',(0.0143703941044537,-0.0147388657481576,0.));
#1631=CARTESIAN_POINT('',(0.0207400020943006,-0.00852849795805688,1.74240661676085E-18));
#1632=CARTESIAN_POINT('',(0.0196660018848705,-0.00957564816225119,1.74240661676085E-18));
#1633=CARTESIAN_POINT('',(0.0314800041886013,0.00194300408388621,3.57937681548188E-18));
#1634=CARTESIAN_POINT('',(0.0304060039791712,0.0008958538796919,3.57937681548188E-18));
#1635=CARTESIAN_POINT('',(0.0422200062829019,0.0124145061258293,5.41634701420291E-18));
#1636=CARTESIAN_POINT('',(0.0411460060734718,0.011367355921635,5.41634701420291E-18));
#1637=CARTESIAN_POINT('',(0.045,4.09184768075549E-18,0.153701304405954));
#1638=CARTESIAN_POINT('',(-0.019,-0.019,-0.01));
#1639=CARTESIAN_POINT('',(0.005,0.055,-0.005));
#1640=CARTESIAN_POINT('',(0.0471067072358086,0.00740250514848902,5.41634701420291E-18));
#1641=CARTESIAN_POINT('',(0.0471067072358086,0.00740250514848902,5.41634701420291E-18));
#1642=CARTESIAN_POINT('',(0.0460327070263785,0.00635535494429471,5.41634701420291E-18));
#1643=CARTESIAN_POINT('',(0.0335045422597222,-0.00585960570319524,-0.000193502217045841));
#1644=CARTESIAN_POINT('',(0.036366705141508,-0.00306899689345408,3.57937681548188E-18));
#1645=CARTESIAN_POINT('',(0.036366705141508,-0.00306899689345408,3.57937681548188E-18));
#1646=CARTESIAN_POINT('',(0.0352927049320779,-0.00411614709764838,3.57937681548188E-18));
#1647=CARTESIAN_POINT('',(0.0335045422597222,-0.00585960570319524,-0.000193502217045841));
#1648=CARTESIAN_POINT('',(0.0256267030472074,-0.0135404989353972,1.74240661676085E-18));
#1649=CARTESIAN_POINT('',(0.0256267030472074,-0.0135404989353972,1.74240661676085E-18));
#1650=CARTESIAN_POINT('',(0.0245527028377773,-0.0145876491395915,1.74240661676085E-18));
#1651=CARTESIAN_POINT('',(0.0335045422597222,-0.00585960570319524,-0.000193502217045841));
#1652=MECHANICAL_DESIGN_GEOMETRIC_PRESENTATION_REPRESENTATION('',(#846),
#1653);
#1653=(
GEOMETRIC_REPRESENTATION_CONTEXT(3)
GLOBAL_UNCERTAINTY_ASSIGNED_CONTEXT((#1654))
GLOBAL_UNIT_ASSIGNED_CONTEXT((#1657,#1656,#1655))
REPRESENTATION_CONTEXT('Part 1','TOP_LEVEL_ASSEMBLY_PART')
);
#1654=UNCERTAINTY_MEASURE_WITH_UNIT(LENGTH_MEASURE(2.E-5),#1657,
'DISTANCE_ACCURACY_VALUE','Maximum Tolerance applied to model');
#1655=(
NAMED_UNIT(*)
SI_UNIT($,.STERADIAN.)
SOLID_ANGLE_UNIT()
);
#1656=(
NAMED_UNIT(*)
PLANE_ANGLE_UNIT()
SI_UNIT($,.RADIAN.)
);
#1657=(
LENGTH_UNIT()
NAMED_UNIT(*)
SI_UNIT($,.METRE.)
);
#1658=PRODUCT_DEFINITION_SHAPE('','',#1659);
#1659=PRODUCT_DEFINITION('','',#1661,#1660);
#1660=PRODUCT_DEFINITION_CONTEXT('',#1667,'design');
#1661=PRODUCT_DEFINITION_FORMATION_WITH_SPECIFIED_SOURCE('','',#1663,
 .NOT_KNOWN.);
#1662=PRODUCT_RELATED_PRODUCT_CATEGORY('','',(#1663));
#1663=PRODUCT('Part 1','Part 1','Part 1',(#1665));
#1664=PRODUCT_CATEGORY('','');
#1665=PRODUCT_CONTEXT('',#1667,'mechanical');
#1666=APPLICATION_PROTOCOL_DEFINITION('international standard',
'ap242_managed_model_based_3d_engineering',2020,#1667);
#1667=APPLICATION_CONTEXT('managed model based 3d engineering');
ENDSEC;
END-ISO-10303-21;
