ISO-10303-21;
HEADER;
/* Generated by software containing ST-Developer
 * from STEP Tools, Inc. (www.steptools.com) 
 */
/* OPTION: using custom renumber hook */

FILE_DESCRIPTION(
/* description */ ('STEP AP242 Edition 2',
'CAx-IF Rec.Pracs.---Representation and Presentation of Product Manufa
cturing Information (PMI)---4.0---2014-10-13',
'CAx-IF Rec.Pracs.---3D Tessellated Geometry---0.4---2014-09-14','2;1',
'CAx-IF Rec.Pracs.---User Defined Attributes---1.5---2016-08-15'),
/* implementation_level */ '2;1');

FILE_NAME(
/* name */ 'Arm_lower1 - Part 2',
/* time_stamp */ '2026-05-19T16:30:17Z',
/* author */ (''),
/* organization */ (''),
/* preprocessor_version */ 'ST-DEVELOPER v20',
/* originating_system */ 'ONSHAPE BY PTC INC, 1.215',
/* authorisation */ '  ');

FILE_SCHEMA (('AP242_MANAGED_MODEL_BASED_3D_ENGINEERING_MIM_LF { 1 0 10303 442 3 1 4 }'));
ENDSEC;

DATA;
#10=SHAPE_REPRESENTATION_RELATIONSHIP('','',#558,#11);
#11=ADVANCED_BREP_SHAPE_REPRESENTATION('',(#556),#1114);
#12=B_SPLINE_CURVE_WITH_KNOTS('',3,(#841,#842,#843,#844),.UNSPECIFIED.,
 .F.,.F.,(4,4),(0.187645358761071,0.21269911802218),.UNSPECIFIED.);
#13=B_SPLINE_CURVE_WITH_KNOTS('',3,(#846,#847,#848,#849),.UNSPECIFIED.,
 .F.,.F.,(4,4),(2.21478660837381E-18,0.0100127683409245),.UNSPECIFIED.);
#14=B_SPLINE_CURVE_WITH_KNOTS('',3,(#855,#856,#857,#858),.UNSPECIFIED.,
 .F.,.F.,(4,4),(0.,0.0701196415946139),.UNSPECIFIED.);
#15=B_SPLINE_CURVE_WITH_KNOTS('',3,(#860,#861,#862,#863),.UNSPECIFIED.,
 .F.,.F.,(4,4),(0.,0.00414075151626925),.UNSPECIFIED.);
#16=B_SPLINE_CURVE_WITH_KNOTS('',3,(#865,#866,#867,#868),.UNSPECIFIED.,
 .F.,.F.,(4,4),(0.,0.0300033022761353),.UNSPECIFIED.);
#17=B_SPLINE_CURVE_WITH_KNOTS('',3,(#884,#885,#886,#887),.UNSPECIFIED.,
 .F.,.F.,(4,4),(0.,0.0701196415944241),.UNSPECIFIED.);
#18=B_SPLINE_CURVE_WITH_KNOTS('',3,(#971,#972,#973,#974),.UNSPECIFIED.,
 .F.,.F.,(4,4),(0.187645358761072,0.212699118022181),.UNSPECIFIED.);
#19=B_SPLINE_CURVE_WITH_KNOTS('',3,(#979,#980,#981,#982),.UNSPECIFIED.,
 .F.,.F.,(4,4),(0.,0.0300033022761353),.UNSPECIFIED.);
#20=B_SPLINE_CURVE_WITH_KNOTS('',3,(#984,#985,#986,#987),.UNSPECIFIED.,
 .F.,.F.,(4,4),(0.,0.00414075151626925),.UNSPECIFIED.);
#21=B_SPLINE_CURVE_WITH_KNOTS('',3,(#988,#989,#990,#991),.UNSPECIFIED.,
 .F.,.F.,(4,4),(1.73472347597681E-18,0.0100127683409245),.UNSPECIFIED.);
#22=B_SPLINE_SURFACE_WITH_KNOTS('',3,1,((#782,#783),(#784,#785),(#786,#787),
(#788,#789),(#790,#791),(#792,#793),(#794,#795),(#796,#797),(#798,#799),
(#800,#801),(#802,#803),(#804,#805),(#806,#807),(#808,#809),(#810,#811),
(#812,#813),(#814,#815),(#816,#817),(#818,#819),(#820,#821),(#822,#823),
(#824,#825),(#826,#827),(#828,#829),(#830,#831),(#832,#833),(#834,#835),
(#836,#837)),.RULED_SURF.,.F.,.F.,.F.,(4,2,2,2,2,2,2,2,2,2,2,2,2,4),(2,
2),(0.,0.0625,0.125,0.1875,0.25,0.3125,0.375,0.4375,0.5,0.5625,0.625,0.6875,
0.75,0.8048),(0.,1.),.UNSPECIFIED.);
#23=B_SPLINE_SURFACE_WITH_KNOTS('',3,1,((#915,#916),(#917,#918),(#919,#920),
(#921,#922),(#923,#924),(#925,#926),(#927,#928),(#929,#930),(#931,#932),
(#933,#934),(#935,#936),(#937,#938),(#939,#940),(#941,#942),(#943,#944),
(#945,#946),(#947,#948),(#949,#950),(#951,#952),(#953,#954),(#955,#956),
(#957,#958),(#959,#960),(#961,#962),(#963,#964),(#965,#966),(#967,#968),
(#969,#970)),.RULED_SURF.,.F.,.F.,.F.,(4,2,2,2,2,2,2,2,2,2,2,2,2,4),(2,
2),(0.,0.0625,0.125,0.1875,0.25,0.3125,0.375,0.4375,0.5,0.5625,0.625,0.6875,
0.75,0.8048),(0.,1.),.UNSPECIFIED.);
#24=B_SPLINE_SURFACE_WITH_KNOTS('',3,1,((#1045,#1046),(#1047,#1048),(#1049,
#1050),(#1051,#1052),(#1053,#1054),(#1055,#1056),(#1057,#1058),(#1059,#1060),
(#1061,#1062),(#1063,#1064),(#1065,#1066),(#1067,#1068),(#1069,#1070),(#1071,
#1072),(#1073,#1074),(#1075,#1076),(#1077,#1078),(#1079,#1080),(#1081,#1082),
(#1083,#1084),(#1085,#1086),(#1087,#1088),(#1089,#1090),(#1091,#1092),(#1093,
#1094),(#1095,#1096),(#1097,#1098),(#1099,#1100),(#1101,#1102),(#1103,#1104),
(#1105,#1106),(#1107,#1108),(#1109,#1110),(#1111,#1112)),.RULED_SURF.,.F.,
 .F.,.F.,(4,2,2,2,2,2,2,2,2,2,2,2,2,2,2,2,4),(2,2),(0.,0.0625,0.125,0.1875,
0.25,0.3125,0.375,0.4375,0.5,0.5625,0.625,0.6875,0.75,0.8125,0.875,0.9375,
1.),(0.,1.),.UNSPECIFIED.);
#25=PLANE('',#567);
#26=PLANE('',#568);
#27=PLANE('',#573);
#28=PLANE('',#577);
#29=PLANE('',#578);
#30=PLANE('',#583);
#31=PLANE('',#586);
#32=PLANE('',#590);
#33=PLANE('',#591);
#34=PLANE('',#592);
#35=PLANE('',#593);
#36=PLANE('',#596);
#37=PLANE('',#598);
#38=PLANE('',#599);
#39=PLANE('',#603);
#40=PLANE('',#604);
#41=PLANE('',#606);
#42=PLANE('',#607);
#43=LINE('',#756,#86);
#44=LINE('',#765,#87);
#45=LINE('',#767,#88);
#46=LINE('',#769,#89);
#47=LINE('',#771,#90);
#48=LINE('',#773,#91);
#49=LINE('',#775,#92);
#50=LINE('',#777,#93);
#51=LINE('',#779,#94);
#52=LINE('',#781,#95);
#53=LINE('',#838,#96);
#54=LINE('',#851,#97);
#55=LINE('',#872,#98);
#56=LINE('',#876,#99);
#57=LINE('',#877,#100);
#58=LINE('',#890,#101);
#59=LINE('',#892,#102);
#60=LINE('',#894,#103);
#61=LINE('',#896,#104);
#62=LINE('',#898,#105);
#63=LINE('',#900,#106);
#64=LINE('',#901,#107);
#65=LINE('',#909,#108);
#66=LINE('',#912,#109);
#67=LINE('',#977,#110);
#68=LINE('',#993,#111);
#69=LINE('',#996,#112);
#70=LINE('',#998,#113);
#71=LINE('',#999,#114);
#72=LINE('',#1001,#115);
#73=LINE('',#1003,#116);
#74=LINE('',#1005,#117);
#75=LINE('',#1011,#118);
#76=LINE('',#1012,#119);
#77=LINE('',#1014,#120);
#78=LINE('',#1016,#121);
#79=LINE('',#1018,#122);
#80=LINE('',#1024,#123);
#81=LINE('',#1026,#124);
#82=LINE('',#1028,#125);
#83=LINE('',#1038,#126);
#84=LINE('',#1042,#127);
#85=LINE('',#1044,#128);
#86=VECTOR('',#616,1.);
#87=VECTOR('',#627,1.);
#88=VECTOR('',#628,1.);
#89=VECTOR('',#629,1.);
#90=VECTOR('',#632,1.);
#91=VECTOR('',#633,1.);
#92=VECTOR('',#634,1.);
#93=VECTOR('',#635,1.);
#94=VECTOR('',#636,1.);
#95=VECTOR('',#637,1.);
#96=VECTOR('',#638,1.);
#97=VECTOR('',#639,1.);
#98=VECTOR('',#646,1.);
#99=VECTOR('',#651,1.);
#100=VECTOR('',#652,1.);
#101=VECTOR('',#661,1.);
#102=VECTOR('',#662,1.);
#103=VECTOR('',#663,1.);
#104=VECTOR('',#664,1.);
#105=VECTOR('',#665,1.);
#106=VECTOR('',#668,1.);
#107=VECTOR('',#669,1.);
#108=VECTOR('',#680,1.);
#109=VECTOR('',#683,1.);
#110=VECTOR('',#686,1.);
#111=VECTOR('',#689,1.);
#112=VECTOR('',#690,1.);
#113=VECTOR('',#691,1.);
#114=VECTOR('',#692,1.);
#115=VECTOR('',#693,1.);
#116=VECTOR('',#694,1.);
#117=VECTOR('',#697,1.);
#118=VECTOR('',#704,1.);
#119=VECTOR('',#705,1.);
#120=VECTOR('',#708,1.);
#121=VECTOR('',#711,1.);
#122=VECTOR('',#712,1.);
#123=VECTOR('',#719,1.);
#124=VECTOR('',#722,1.);
#125=VECTOR('',#723,1.);
#126=VECTOR('',#738,1.);
#127=VECTOR('',#745,1.);
#128=VECTOR('',#748,1.);
#129=CIRCLE('',#562,0.034);
#130=CIRCLE('',#563,0.034);
#131=CIRCLE('',#566,0.001);
#132=CIRCLE('',#569,0.04);
#133=CIRCLE('',#571,0.03);
#134=CIRCLE('',#572,0.03);
#135=CIRCLE('',#575,0.001);
#136=CIRCLE('',#576,0.001);
#137=CIRCLE('',#581,0.034);
#138=CIRCLE('',#582,0.034);
#139=CIRCLE('',#584,0.04);
#140=CIRCLE('',#585,0.038);
#141=CIRCLE('',#588,0.03);
#142=CIRCLE('',#589,0.03);
#143=CIRCLE('',#594,0.001);
#144=CIRCLE('',#595,0.001);
#145=CIRCLE('',#597,0.001);
#146=CIRCLE('',#605,0.038);
#147=ORIENTED_EDGE('',*,*,#297,.F.);
#148=ORIENTED_EDGE('',*,*,#298,.T.);
#149=ORIENTED_EDGE('',*,*,#299,.T.);
#150=ORIENTED_EDGE('',*,*,#300,.F.);
#151=ORIENTED_EDGE('',*,*,#301,.T.);
#152=ORIENTED_EDGE('',*,*,#302,.T.);
#153=ORIENTED_EDGE('',*,*,#298,.F.);
#154=ORIENTED_EDGE('',*,*,#303,.T.);
#155=ORIENTED_EDGE('',*,*,#304,.T.);
#156=ORIENTED_EDGE('',*,*,#305,.T.);
#157=ORIENTED_EDGE('',*,*,#306,.T.);
#158=ORIENTED_EDGE('',*,*,#307,.F.);
#159=ORIENTED_EDGE('',*,*,#308,.T.);
#160=ORIENTED_EDGE('',*,*,#309,.F.);
#161=ORIENTED_EDGE('',*,*,#310,.F.);
#162=ORIENTED_EDGE('',*,*,#311,.T.);
#163=ORIENTED_EDGE('',*,*,#304,.F.);
#164=ORIENTED_EDGE('',*,*,#312,.F.);
#165=ORIENTED_EDGE('',*,*,#313,.T.);
#166=ORIENTED_EDGE('',*,*,#314,.F.);
#167=ORIENTED_EDGE('',*,*,#315,.F.);
#168=ORIENTED_EDGE('',*,*,#316,.T.);
#169=ORIENTED_EDGE('',*,*,#317,.T.);
#170=ORIENTED_EDGE('',*,*,#318,.F.);
#171=ORIENTED_EDGE('',*,*,#319,.T.);
#172=ORIENTED_EDGE('',*,*,#320,.F.);
#173=ORIENTED_EDGE('',*,*,#321,.F.);
#174=ORIENTED_EDGE('',*,*,#322,.F.);
#175=ORIENTED_EDGE('',*,*,#308,.F.);
#176=ORIENTED_EDGE('',*,*,#321,.T.);
#177=ORIENTED_EDGE('',*,*,#323,.T.);
#178=ORIENTED_EDGE('',*,*,#312,.T.);
#179=ORIENTED_EDGE('',*,*,#324,.F.);
#180=ORIENTED_EDGE('',*,*,#325,.T.);
#181=ORIENTED_EDGE('',*,*,#326,.F.);
#182=ORIENTED_EDGE('',*,*,#327,.T.);
#183=ORIENTED_EDGE('',*,*,#328,.T.);
#184=ORIENTED_EDGE('',*,*,#329,.T.);
#185=ORIENTED_EDGE('',*,*,#330,.T.);
#186=ORIENTED_EDGE('',*,*,#331,.T.);
#187=ORIENTED_EDGE('',*,*,#332,.F.);
#188=ORIENTED_EDGE('',*,*,#305,.F.);
#189=ORIENTED_EDGE('',*,*,#311,.F.);
#190=ORIENTED_EDGE('',*,*,#333,.F.);
#191=ORIENTED_EDGE('',*,*,#317,.F.);
#192=ORIENTED_EDGE('',*,*,#334,.T.);
#193=ORIENTED_EDGE('',*,*,#299,.F.);
#194=ORIENTED_EDGE('',*,*,#335,.F.);
#195=ORIENTED_EDGE('',*,*,#336,.F.);
#196=ORIENTED_EDGE('',*,*,#331,.F.);
#197=ORIENTED_EDGE('',*,*,#337,.T.);
#198=ORIENTED_EDGE('',*,*,#338,.F.);
#199=ORIENTED_EDGE('',*,*,#300,.T.);
#200=ORIENTED_EDGE('',*,*,#334,.F.);
#201=ORIENTED_EDGE('',*,*,#316,.F.);
#202=ORIENTED_EDGE('',*,*,#339,.T.);
#203=ORIENTED_EDGE('',*,*,#332,.T.);
#204=ORIENTED_EDGE('',*,*,#336,.T.);
#205=ORIENTED_EDGE('',*,*,#340,.F.);
#206=ORIENTED_EDGE('',*,*,#341,.F.);
#207=ORIENTED_EDGE('',*,*,#342,.F.);
#208=ORIENTED_EDGE('',*,*,#343,.T.);
#209=ORIENTED_EDGE('',*,*,#344,.F.);
#210=ORIENTED_EDGE('',*,*,#345,.T.);
#211=ORIENTED_EDGE('',*,*,#327,.F.);
#212=ORIENTED_EDGE('',*,*,#339,.F.);
#213=ORIENTED_EDGE('',*,*,#315,.T.);
#214=ORIENTED_EDGE('',*,*,#346,.F.);
#215=ORIENTED_EDGE('',*,*,#347,.T.);
#216=ORIENTED_EDGE('',*,*,#348,.T.);
#217=ORIENTED_EDGE('',*,*,#349,.F.);
#218=ORIENTED_EDGE('',*,*,#329,.F.);
#219=ORIENTED_EDGE('',*,*,#350,.T.);
#220=ORIENTED_EDGE('',*,*,#351,.T.);
#221=ORIENTED_EDGE('',*,*,#352,.F.);
#222=ORIENTED_EDGE('',*,*,#353,.F.);
#223=ORIENTED_EDGE('',*,*,#354,.T.);
#224=ORIENTED_EDGE('',*,*,#352,.T.);
#225=ORIENTED_EDGE('',*,*,#355,.T.);
#226=ORIENTED_EDGE('',*,*,#356,.F.);
#227=ORIENTED_EDGE('',*,*,#353,.T.);
#228=ORIENTED_EDGE('',*,*,#357,.T.);
#229=ORIENTED_EDGE('',*,*,#343,.F.);
#230=ORIENTED_EDGE('',*,*,#325,.F.);
#231=ORIENTED_EDGE('',*,*,#302,.F.);
#232=ORIENTED_EDGE('',*,*,#309,.T.);
#233=ORIENTED_EDGE('',*,*,#322,.T.);
#234=ORIENTED_EDGE('',*,*,#324,.T.);
#235=ORIENTED_EDGE('',*,*,#319,.F.);
#236=ORIENTED_EDGE('',*,*,#358,.T.);
#237=ORIENTED_EDGE('',*,*,#320,.T.);
#238=ORIENTED_EDGE('',*,*,#307,.T.);
#239=ORIENTED_EDGE('',*,*,#359,.T.);
#240=ORIENTED_EDGE('',*,*,#360,.T.);
#241=ORIENTED_EDGE('',*,*,#313,.F.);
#242=ORIENTED_EDGE('',*,*,#323,.F.);
#243=ORIENTED_EDGE('',*,*,#326,.T.);
#244=ORIENTED_EDGE('',*,*,#361,.F.);
#245=ORIENTED_EDGE('',*,*,#362,.F.);
#246=ORIENTED_EDGE('',*,*,#355,.F.);
#247=ORIENTED_EDGE('',*,*,#351,.F.);
#248=ORIENTED_EDGE('',*,*,#363,.F.);
#249=ORIENTED_EDGE('',*,*,#344,.T.);
#250=ORIENTED_EDGE('',*,*,#357,.F.);
#251=ORIENTED_EDGE('',*,*,#354,.F.);
#252=ORIENTED_EDGE('',*,*,#356,.T.);
#253=ORIENTED_EDGE('',*,*,#342,.T.);
#254=ORIENTED_EDGE('',*,*,#364,.F.);
#255=ORIENTED_EDGE('',*,*,#365,.F.);
#256=ORIENTED_EDGE('',*,*,#347,.F.);
#257=ORIENTED_EDGE('',*,*,#366,.F.);
#258=ORIENTED_EDGE('',*,*,#328,.F.);
#259=ORIENTED_EDGE('',*,*,#345,.F.);
#260=ORIENTED_EDGE('',*,*,#363,.T.);
#261=ORIENTED_EDGE('',*,*,#350,.F.);
#262=ORIENTED_EDGE('',*,*,#310,.T.);
#263=ORIENTED_EDGE('',*,*,#358,.F.);
#264=ORIENTED_EDGE('',*,*,#318,.T.);
#265=ORIENTED_EDGE('',*,*,#333,.T.);
#266=ORIENTED_EDGE('',*,*,#367,.T.);
#267=ORIENTED_EDGE('',*,*,#362,.T.);
#268=ORIENTED_EDGE('',*,*,#366,.T.);
#269=ORIENTED_EDGE('',*,*,#361,.T.);
#270=ORIENTED_EDGE('',*,*,#330,.F.);
#271=ORIENTED_EDGE('',*,*,#349,.T.);
#272=ORIENTED_EDGE('',*,*,#368,.T.);
#273=ORIENTED_EDGE('',*,*,#337,.F.);
#274=ORIENTED_EDGE('',*,*,#360,.F.);
#275=ORIENTED_EDGE('',*,*,#369,.T.);
#276=ORIENTED_EDGE('',*,*,#364,.T.);
#277=ORIENTED_EDGE('',*,*,#346,.T.);
#278=ORIENTED_EDGE('',*,*,#314,.T.);
#279=ORIENTED_EDGE('',*,*,#303,.F.);
#280=ORIENTED_EDGE('',*,*,#297,.T.);
#281=ORIENTED_EDGE('',*,*,#338,.T.);
#282=ORIENTED_EDGE('',*,*,#370,.F.);
#283=ORIENTED_EDGE('',*,*,#359,.F.);
#284=ORIENTED_EDGE('',*,*,#306,.F.);
#285=ORIENTED_EDGE('',*,*,#301,.F.);
#286=ORIENTED_EDGE('',*,*,#365,.T.);
#287=ORIENTED_EDGE('',*,*,#371,.T.);
#288=ORIENTED_EDGE('',*,*,#340,.T.);
#289=ORIENTED_EDGE('',*,*,#335,.T.);
#290=ORIENTED_EDGE('',*,*,#368,.F.);
#291=ORIENTED_EDGE('',*,*,#348,.F.);
#292=ORIENTED_EDGE('',*,*,#367,.F.);
#293=ORIENTED_EDGE('',*,*,#371,.F.);
#294=ORIENTED_EDGE('',*,*,#369,.F.);
#295=ORIENTED_EDGE('',*,*,#370,.T.);
#296=ORIENTED_EDGE('',*,*,#341,.T.);
#297=EDGE_CURVE('',#372,#373,#424,.T.);
#298=EDGE_CURVE('',#372,#374,#129,.T.);
#299=EDGE_CURVE('',#374,#375,#43,.T.);
#300=EDGE_CURVE('',#373,#375,#130,.T.);
#301=EDGE_CURVE('',#376,#376,#425,.F.);
#302=EDGE_CURVE('',#377,#377,#131,.T.);
#303=EDGE_CURVE('',#372,#378,#44,.T.);
#304=EDGE_CURVE('',#378,#379,#45,.T.);
#305=EDGE_CURVE('',#379,#374,#46,.T.);
#306=EDGE_CURVE('',#378,#380,#47,.T.);
#307=EDGE_CURVE('',#381,#380,#48,.T.);
#308=EDGE_CURVE('',#381,#382,#49,.T.);
#309=EDGE_CURVE('',#383,#382,#50,.T.);
#310=EDGE_CURVE('',#384,#383,#51,.T.);
#311=EDGE_CURVE('',#384,#379,#52,.T.);
#312=EDGE_CURVE('',#385,#386,#53,.T.);
#313=EDGE_CURVE('',#385,#387,#12,.T.);
#314=EDGE_CURVE('',#388,#387,#13,.T.);
#315=EDGE_CURVE('',#389,#388,#54,.T.);
#316=EDGE_CURVE('',#389,#390,#132,.T.);
#317=EDGE_CURVE('',#390,#391,#14,.T.);
#318=EDGE_CURVE('',#392,#391,#15,.T.);
#319=EDGE_CURVE('',#392,#386,#16,.T.);
#320=EDGE_CURVE('',#393,#381,#133,.F.);
#321=EDGE_CURVE('',#394,#393,#55,.F.);
#322=EDGE_CURVE('',#382,#394,#134,.F.);
#323=EDGE_CURVE('',#393,#385,#56,.T.);
#324=EDGE_CURVE('',#394,#386,#57,.T.);
#325=EDGE_CURVE('',#395,#395,#135,.T.);
#326=EDGE_CURVE('',#396,#396,#136,.F.);
#327=EDGE_CURVE('',#397,#398,#17,.T.);
#328=EDGE_CURVE('',#398,#399,#58,.T.);
#329=EDGE_CURVE('',#399,#400,#59,.T.);
#330=EDGE_CURVE('',#400,#401,#60,.T.);
#331=EDGE_CURVE('',#401,#402,#61,.T.);
#332=EDGE_CURVE('',#397,#402,#62,.T.);
#333=EDGE_CURVE('',#391,#384,#63,.T.);
#334=EDGE_CURVE('',#390,#375,#64,.T.);
#335=EDGE_CURVE('',#403,#404,#426,.F.);
#336=EDGE_CURVE('',#402,#403,#137,.T.);
#337=EDGE_CURVE('',#401,#404,#138,.T.);
#338=EDGE_CURVE('',#373,#405,#65,.F.);
#339=EDGE_CURVE('',#389,#397,#139,.T.);
#340=EDGE_CURVE('',#406,#403,#66,.T.);
#341=EDGE_CURVE('',#405,#406,#140,.T.);
#342=EDGE_CURVE('',#407,#408,#18,.T.);
#343=EDGE_CURVE('',#407,#409,#67,.T.);
#344=EDGE_CURVE('',#410,#409,#19,.T.);
#345=EDGE_CURVE('',#410,#398,#20,.T.);
#346=EDGE_CURVE('',#408,#388,#21,.T.);
#347=EDGE_CURVE('',#411,#412,#68,.T.);
#348=EDGE_CURVE('',#412,#413,#69,.T.);
#349=EDGE_CURVE('',#400,#413,#70,.T.);
#350=EDGE_CURVE('',#399,#414,#71,.T.);
#351=EDGE_CURVE('',#414,#415,#72,.T.);
#352=EDGE_CURVE('',#411,#415,#73,.T.);
#353=EDGE_CURVE('',#416,#417,#74,.F.);
#354=EDGE_CURVE('',#416,#411,#141,.F.);
#355=EDGE_CURVE('',#415,#417,#142,.F.);
#356=EDGE_CURVE('',#416,#407,#75,.T.);
#357=EDGE_CURVE('',#417,#409,#76,.T.);
#358=EDGE_CURVE('',#392,#383,#77,.T.);
#359=EDGE_CURVE('',#380,#418,#78,.T.);
#360=EDGE_CURVE('',#418,#387,#79,.T.);
#361=EDGE_CURVE('',#419,#419,#143,.T.);
#362=EDGE_CURVE('',#420,#420,#144,.T.);
#363=EDGE_CURVE('',#410,#414,#80,.T.);
#364=EDGE_CURVE('',#421,#408,#81,.T.);
#365=EDGE_CURVE('',#412,#421,#82,.T.);
#366=EDGE_CURVE('',#422,#422,#145,.F.);
#367=EDGE_CURVE('',#423,#423,#427,.T.);
#368=EDGE_CURVE('',#413,#404,#83,.F.);
#369=EDGE_CURVE('',#418,#421,#146,.T.);
#370=EDGE_CURVE('',#418,#405,#84,.T.);
#371=EDGE_CURVE('',#421,#406,#85,.T.);
#372=VERTEX_POINT('',#752);
#373=VERTEX_POINT('',#753);
#374=VERTEX_POINT('',#755);
#375=VERTEX_POINT('',#757);
#376=VERTEX_POINT('',#761);
#377=VERTEX_POINT('',#763);
#378=VERTEX_POINT('',#766);
#379=VERTEX_POINT('',#768);
#380=VERTEX_POINT('',#772);
#381=VERTEX_POINT('',#774);
#382=VERTEX_POINT('',#776);
#383=VERTEX_POINT('',#778);
#384=VERTEX_POINT('',#780);
#385=VERTEX_POINT('',#839);
#386=VERTEX_POINT('',#840);
#387=VERTEX_POINT('',#845);
#388=VERTEX_POINT('',#850);
#389=VERTEX_POINT('',#852);
#390=VERTEX_POINT('',#854);
#391=VERTEX_POINT('',#859);
#392=VERTEX_POINT('',#864);
#393=VERTEX_POINT('',#871);
#394=VERTEX_POINT('',#873);
#395=VERTEX_POINT('',#880);
#396=VERTEX_POINT('',#882);
#397=VERTEX_POINT('',#888);
#398=VERTEX_POINT('',#889);
#399=VERTEX_POINT('',#891);
#400=VERTEX_POINT('',#893);
#401=VERTEX_POINT('',#895);
#402=VERTEX_POINT('',#897);
#403=VERTEX_POINT('',#904);
#404=VERTEX_POINT('',#905);
#405=VERTEX_POINT('',#910);
#406=VERTEX_POINT('',#913);
#407=VERTEX_POINT('',#975);
#408=VERTEX_POINT('',#976);
#409=VERTEX_POINT('',#978);
#410=VERTEX_POINT('',#983);
#411=VERTEX_POINT('',#994);
#412=VERTEX_POINT('',#995);
#413=VERTEX_POINT('',#997);
#414=VERTEX_POINT('',#1000);
#415=VERTEX_POINT('',#1002);
#416=VERTEX_POINT('',#1006);
#417=VERTEX_POINT('',#1007);
#418=VERTEX_POINT('',#1017);
#419=VERTEX_POINT('',#1021);
#420=VERTEX_POINT('',#1023);
#421=VERTEX_POINT('',#1027);
#422=VERTEX_POINT('',#1030);
#423=VERTEX_POINT('',#1035);
#424=ELLIPSE('',#561,0.320558204543263,0.034);
#425=ELLIPSE('',#565,0.0010056727985671,0.001);
#426=ELLIPSE('',#580,0.320558204543263,0.034);
#427=ELLIPSE('',#601,0.0010056727985671,0.001);
#428=EDGE_LOOP('',(#147,#148,#149,#150));
#429=EDGE_LOOP('',(#151));
#430=EDGE_LOOP('',(#152));
#431=EDGE_LOOP('',(#153,#154,#155,#156));
#432=EDGE_LOOP('',(#157,#158,#159,#160,#161,#162,#163));
#433=EDGE_LOOP('',(#164,#165,#166,#167,#168,#169,#170,#171));
#434=EDGE_LOOP('',(#172,#173,#174,#175));
#435=EDGE_LOOP('',(#176,#177,#178,#179));
#436=EDGE_LOOP('',(#180));
#437=EDGE_LOOP('',(#181));
#438=EDGE_LOOP('',(#182,#183,#184,#185,#186,#187));
#439=EDGE_LOOP('',(#188,#189,#190,#191,#192,#193));
#440=EDGE_LOOP('',(#194,#195,#196,#197));
#441=EDGE_LOOP('',(#198,#199,#200,#201,#202,#203,#204,#205,#206));
#442=EDGE_LOOP('',(#207,#208,#209,#210,#211,#212,#213,#214));
#443=EDGE_LOOP('',(#215,#216,#217,#218,#219,#220,#221));
#444=EDGE_LOOP('',(#222,#223,#224,#225));
#445=EDGE_LOOP('',(#226,#227,#228,#229));
#446=EDGE_LOOP('',(#230));
#447=EDGE_LOOP('',(#231));
#448=EDGE_LOOP('',(#232,#233,#234,#235,#236));
#449=EDGE_LOOP('',(#237,#238,#239,#240,#241,#242));
#450=EDGE_LOOP('',(#243));
#451=EDGE_LOOP('',(#244));
#452=EDGE_LOOP('',(#245));
#453=EDGE_LOOP('',(#246,#247,#248,#249,#250));
#454=EDGE_LOOP('',(#251,#252,#253,#254,#255,#256));
#455=EDGE_LOOP('',(#257));
#456=EDGE_LOOP('',(#258,#259,#260,#261));
#457=EDGE_LOOP('',(#262,#263,#264,#265));
#458=EDGE_LOOP('',(#266));
#459=EDGE_LOOP('',(#267));
#460=EDGE_LOOP('',(#268));
#461=EDGE_LOOP('',(#269));
#462=EDGE_LOOP('',(#270,#271,#272,#273));
#463=EDGE_LOOP('',(#274,#275,#276,#277,#278));
#464=EDGE_LOOP('',(#279,#280,#281,#282,#283,#284));
#465=EDGE_LOOP('',(#285));
#466=EDGE_LOOP('',(#286,#287,#288,#289,#290,#291));
#467=EDGE_LOOP('',(#292));
#468=EDGE_LOOP('',(#293,#294,#295,#296));
#469=FACE_BOUND('',#428,.T.);
#470=FACE_BOUND('',#429,.T.);
#471=FACE_BOUND('',#430,.T.);
#472=FACE_BOUND('',#431,.T.);
#473=FACE_BOUND('',#432,.T.);
#474=FACE_BOUND('',#433,.T.);
#475=FACE_BOUND('',#434,.T.);
#476=FACE_BOUND('',#435,.T.);
#477=FACE_BOUND('',#436,.T.);
#478=FACE_BOUND('',#437,.T.);
#479=FACE_BOUND('',#438,.T.);
#480=FACE_BOUND('',#439,.T.);
#481=FACE_BOUND('',#440,.T.);
#482=FACE_BOUND('',#441,.T.);
#483=FACE_BOUND('',#442,.T.);
#484=FACE_BOUND('',#443,.T.);
#485=FACE_BOUND('',#444,.T.);
#486=FACE_BOUND('',#445,.T.);
#487=FACE_BOUND('',#446,.T.);
#488=FACE_BOUND('',#447,.T.);
#489=FACE_BOUND('',#448,.T.);
#490=FACE_BOUND('',#449,.T.);
#491=FACE_BOUND('',#450,.T.);
#492=FACE_BOUND('',#451,.T.);
#493=FACE_BOUND('',#452,.T.);
#494=FACE_BOUND('',#453,.T.);
#495=FACE_BOUND('',#454,.T.);
#496=FACE_BOUND('',#455,.T.);
#497=FACE_BOUND('',#456,.T.);
#498=FACE_BOUND('',#457,.T.);
#499=FACE_BOUND('',#458,.T.);
#500=FACE_BOUND('',#459,.T.);
#501=FACE_BOUND('',#460,.T.);
#502=FACE_BOUND('',#461,.T.);
#503=FACE_BOUND('',#462,.T.);
#504=FACE_BOUND('',#463,.T.);
#505=FACE_BOUND('',#464,.T.);
#506=FACE_BOUND('',#465,.T.);
#507=FACE_BOUND('',#466,.T.);
#508=FACE_BOUND('',#467,.T.);
#509=FACE_BOUND('',#468,.T.);
#510=CYLINDRICAL_SURFACE('',#560,0.034);
#511=CYLINDRICAL_SURFACE('',#564,0.001);
#512=CYLINDRICAL_SURFACE('',#570,0.03);
#513=CYLINDRICAL_SURFACE('',#574,0.001);
#514=CYLINDRICAL_SURFACE('',#579,0.034);
#515=CYLINDRICAL_SURFACE('',#587,0.03);
#516=CYLINDRICAL_SURFACE('',#600,0.001);
#517=CYLINDRICAL_SURFACE('',#602,0.001);
#518=ADVANCED_FACE('',(#469),#510,.F.);
#519=ADVANCED_FACE('',(#470,#471),#511,.F.);
#520=ADVANCED_FACE('',(#472),#25,.F.);
#521=ADVANCED_FACE('',(#473),#26,.T.);
#522=ADVANCED_FACE('',(#474),#22,.T.);
#523=ADVANCED_FACE('',(#475),#512,.T.);
#524=ADVANCED_FACE('',(#476),#27,.T.);
#525=ADVANCED_FACE('',(#477,#478),#513,.F.);
#526=ADVANCED_FACE('',(#479),#28,.F.);
#527=ADVANCED_FACE('',(#480),#29,.T.);
#528=ADVANCED_FACE('',(#481),#514,.F.);
#529=ADVANCED_FACE('',(#482),#30,.T.);
#530=ADVANCED_FACE('',(#483),#23,.F.);
#531=ADVANCED_FACE('',(#484),#31,.T.);
#532=ADVANCED_FACE('',(#485),#515,.T.);
#533=ADVANCED_FACE('',(#486),#32,.T.);
#534=ADVANCED_FACE('',(#487,#488,#489),#33,.T.);
#535=ADVANCED_FACE('',(#490,#491),#34,.F.);
#536=ADVANCED_FACE('',(#492,#493,#494),#35,.T.);
#537=ADVANCED_FACE('',(#495,#496),#36,.F.);
#538=ADVANCED_FACE('',(#497),#37,.T.);
#539=ADVANCED_FACE('',(#498),#38,.F.);
#540=ADVANCED_FACE('',(#499,#500),#516,.F.);
#541=ADVANCED_FACE('',(#501,#502),#517,.F.);
#542=ADVANCED_FACE('',(#503),#39,.F.);
#543=ADVANCED_FACE('',(#504),#40,.F.);
#544=ADVANCED_FACE('',(#505,#506),#41,.F.);
#545=ADVANCED_FACE('',(#507,#508),#42,.T.);
#546=ADVANCED_FACE('',(#509),#24,.F.);
#547=CLOSED_SHELL('',(#518,#519,#520,#521,#522,#523,#524,#525,#526,#527,
#528,#529,#530,#531,#532,#533,#534,#535,#536,#537,#538,#539,#540,#541,#542,
#543,#544,#545,#546));
#548=STYLED_ITEM('',(#549),#556);
#549=PRESENTATION_STYLE_ASSIGNMENT((#550));
#550=SURFACE_STYLE_USAGE(.BOTH.,#551);
#551=SURFACE_SIDE_STYLE('',(#552));
#552=SURFACE_STYLE_FILL_AREA(#553);
#553=FILL_AREA_STYLE('',(#554));
#554=FILL_AREA_STYLE_COLOUR('',#555);
#555=COLOUR_RGB('',0.513725490196078,0.737254901960784,0.407843137254902);
#556=MANIFOLD_SOLID_BREP('Part 2',#547);
#557=SHAPE_DEFINITION_REPRESENTATION(#1119,#558);
#558=SHAPE_REPRESENTATION('Part 2',(#559),#1114);
#559=AXIS2_PLACEMENT_3D('',#749,#608,#609);
#560=AXIS2_PLACEMENT_3D('',#750,#610,#611);
#561=AXIS2_PLACEMENT_3D('',#751,#612,#613);
#562=AXIS2_PLACEMENT_3D('',#754,#614,#615);
#563=AXIS2_PLACEMENT_3D('',#758,#617,#618);
#564=AXIS2_PLACEMENT_3D('',#759,#619,#620);
#565=AXIS2_PLACEMENT_3D('',#760,#621,#622);
#566=AXIS2_PLACEMENT_3D('',#762,#623,#624);
#567=AXIS2_PLACEMENT_3D('',#764,#625,#626);
#568=AXIS2_PLACEMENT_3D('',#770,#630,#631);
#569=AXIS2_PLACEMENT_3D('',#853,#640,#641);
#570=AXIS2_PLACEMENT_3D('',#869,#642,#643);
#571=AXIS2_PLACEMENT_3D('',#870,#644,#645);
#572=AXIS2_PLACEMENT_3D('',#874,#647,#648);
#573=AXIS2_PLACEMENT_3D('',#875,#649,#650);
#574=AXIS2_PLACEMENT_3D('',#878,#653,#654);
#575=AXIS2_PLACEMENT_3D('',#879,#655,#656);
#576=AXIS2_PLACEMENT_3D('',#881,#657,#658);
#577=AXIS2_PLACEMENT_3D('',#883,#659,#660);
#578=AXIS2_PLACEMENT_3D('',#899,#666,#667);
#579=AXIS2_PLACEMENT_3D('',#902,#670,#671);
#580=AXIS2_PLACEMENT_3D('',#903,#672,#673);
#581=AXIS2_PLACEMENT_3D('',#906,#674,#675);
#582=AXIS2_PLACEMENT_3D('',#907,#676,#677);
#583=AXIS2_PLACEMENT_3D('',#908,#678,#679);
#584=AXIS2_PLACEMENT_3D('',#911,#681,#682);
#585=AXIS2_PLACEMENT_3D('',#914,#684,#685);
#586=AXIS2_PLACEMENT_3D('',#992,#687,#688);
#587=AXIS2_PLACEMENT_3D('',#1004,#695,#696);
#588=AXIS2_PLACEMENT_3D('',#1008,#698,#699);
#589=AXIS2_PLACEMENT_3D('',#1009,#700,#701);
#590=AXIS2_PLACEMENT_3D('',#1010,#702,#703);
#591=AXIS2_PLACEMENT_3D('',#1013,#706,#707);
#592=AXIS2_PLACEMENT_3D('',#1015,#709,#710);
#593=AXIS2_PLACEMENT_3D('',#1019,#713,#714);
#594=AXIS2_PLACEMENT_3D('',#1020,#715,#716);
#595=AXIS2_PLACEMENT_3D('',#1022,#717,#718);
#596=AXIS2_PLACEMENT_3D('',#1025,#720,#721);
#597=AXIS2_PLACEMENT_3D('',#1029,#724,#725);
#598=AXIS2_PLACEMENT_3D('',#1031,#726,#727);
#599=AXIS2_PLACEMENT_3D('',#1032,#728,#729);
#600=AXIS2_PLACEMENT_3D('',#1033,#730,#731);
#601=AXIS2_PLACEMENT_3D('',#1034,#732,#733);
#602=AXIS2_PLACEMENT_3D('',#1036,#734,#735);
#603=AXIS2_PLACEMENT_3D('',#1037,#736,#737);
#604=AXIS2_PLACEMENT_3D('',#1039,#739,#740);
#605=AXIS2_PLACEMENT_3D('',#1040,#741,#742);
#606=AXIS2_PLACEMENT_3D('',#1041,#743,#744);
#607=AXIS2_PLACEMENT_3D('',#1043,#746,#747);
#608=DIRECTION('',(0.,0.,1.));
#609=DIRECTION('',(1.,0.,0.));
#610=DIRECTION('',(1.,0.,0.));
#611=DIRECTION('',(0.,1.22464679914735E-16,1.));
#612=DIRECTION('',(-0.106064981392206,-1.21773881215864E-16,-0.994359200551929));
#613=DIRECTION('',(0.994359200551929,-1.29892139963588E-17,-0.106064981392206));
#614=DIRECTION('',(-1.,0.,0.));
#615=DIRECTION('',(0.,-1.22464679914735E-16,-1.));
#616=DIRECTION('',(1.,0.,0.));
#617=DIRECTION('',(-1.,0.,0.));
#618=DIRECTION('',(0.,1.22464679914735E-16,1.));
#619=DIRECTION('',(0.,1.22464679914735E-16,1.));
#620=DIRECTION('',(-1.,0.,0.));
#621=DIRECTION('',(-0.106064981392206,-1.21773881215864E-16,-0.994359200551929));
#622=DIRECTION('',(-0.994359200551929,1.29892139963588E-17,0.106064981392206));
#623=DIRECTION('',(0.,-1.22464679914735E-16,-1.));
#624=DIRECTION('',(1.,0.,0.));
#625=DIRECTION('',(-1.,0.,0.));
#626=DIRECTION('',(0.,-1.22464679914735E-16,-1.));
#627=DIRECTION('',(0.,-1.,1.22464679914735E-16));
#628=DIRECTION('',(0.,-1.22464679914735E-16,-1.));
#629=DIRECTION('',(0.,1.,-1.22464679914735E-16));
#630=DIRECTION('',(0.,-1.,1.22464679914735E-16));
#631=DIRECTION('',(-1.,0.,0.));
#632=DIRECTION('',(-0.994359200551929,1.29892139963588E-17,0.106064981392206));
#633=DIRECTION('',(1.,0.,0.));
#634=DIRECTION('',(0.,-1.22464679914735E-16,-1.));
#635=DIRECTION('',(-1.,-1.28752942561259E-32,-1.05134756119806E-16));
#636=DIRECTION('',(0.,-1.22464679914735E-16,-1.));
#637=DIRECTION('',(1.,0.,0.));
#638=DIRECTION('',(-2.31296463463574E-16,-1.22464679914735E-16,-1.));
#639=DIRECTION('',(-0.995037190209989,-0.099503719020999,1.00562747014588E-16));
#640=DIRECTION('',(-1.,0.,0.));
#641=DIRECTION('',(0.,1.22464679914735E-16,1.));
#642=DIRECTION('',(0.,-1.22464679914735E-16,-1.));
#643=DIRECTION('',(1.,0.,0.));
#644=DIRECTION('',(0.,-1.22464679914735E-16,-1.));
#645=DIRECTION('',(1.,0.,0.));
#646=DIRECTION('',(0.,-1.22464679914735E-16,-1.));
#647=DIRECTION('',(0.,1.22464679914735E-16,1.));
#648=DIRECTION('',(-1.,0.,0.));
#649=DIRECTION('',(0.,1.,-1.22464679914735E-16));
#650=DIRECTION('',(1.,0.,0.));
#651=DIRECTION('',(1.,0.,0.));
#652=DIRECTION('',(1.,0.,0.));
#653=DIRECTION('',(0.,1.22464679914735E-16,1.));
#654=DIRECTION('',(-1.,0.,0.));
#655=DIRECTION('',(0.,-1.22464679914735E-16,-1.));
#656=DIRECTION('',(1.,0.,0.));
#657=DIRECTION('',(0.,-5.10076676829455E-17,1.));
#658=DIRECTION('',(0.,-1.,-5.10076676829455E-17));
#659=DIRECTION('',(0.,-1.22464679914735E-16,-1.));
#660=DIRECTION('',(1.,0.,0.));
#661=DIRECTION('',(0.,-1.,1.22464679914735E-16));
#662=DIRECTION('',(1.,0.,0.));
#663=DIRECTION('',(0.,1.,-1.22464679914735E-16));
#664=DIRECTION('',(1.,0.,0.));
#665=DIRECTION('',(0.,-1.,1.22464679914735E-16));
#666=DIRECTION('',(4.95635278850517E-17,-1.22464679914735E-16,-1.));
#667=DIRECTION('',(1.,6.06978157788791E-33,4.95635278850517E-17));
#668=DIRECTION('',(0.,-1.,1.22464679914735E-16));
#669=DIRECTION('',(0.,-1.,1.22464679914735E-16));
#670=DIRECTION('',(1.,0.,0.));
#671=DIRECTION('',(0.,1.22464679914735E-16,1.));
#672=DIRECTION('',(0.106064981392206,-1.21773881215864E-16,-0.994359200551929));
#673=DIRECTION('',(0.994359200551929,1.29892139963588E-17,0.106064981392206));
#674=DIRECTION('',(-1.,0.,0.));
#675=DIRECTION('',(0.,1.22464679914735E-16,1.));
#676=DIRECTION('',(-1.,0.,0.));
#677=DIRECTION('',(0.,-1.22464679914735E-16,-1.));
#678=DIRECTION('',(1.,0.,0.));
#679=DIRECTION('',(0.,-1.,1.22464679914735E-16));
#680=DIRECTION('',(0.,-1.,1.22464679914735E-16));
#681=DIRECTION('',(1.,0.,0.));
#682=DIRECTION('',(0.,-1.22464679914735E-16,-1.));
#683=DIRECTION('',(0.,-1.,1.22464679914735E-16));
#684=DIRECTION('',(1.,0.,0.));
#685=DIRECTION('',(0.,1.22464679914735E-16,1.));
#686=DIRECTION('',(-2.31296463463574E-16,1.22464679914735E-16,1.));
#687=DIRECTION('',(0.,-1.,1.22464679914735E-16));
#688=DIRECTION('',(-1.,0.,0.));
#689=DIRECTION('',(1.,0.,0.));
#690=DIRECTION('',(0.994359200551929,1.29892139963588E-17,0.106064981392206));
#691=DIRECTION('',(0.,-1.22464679914735E-16,-1.));
#692=DIRECTION('',(0.,1.22464679914735E-16,1.));
#693=DIRECTION('',(-1.,1.28752942561259E-32,1.05134756119806E-16));
#694=DIRECTION('',(0.,1.22464679914735E-16,1.));
#695=DIRECTION('',(0.,-1.22464679914735E-16,-1.));
#696=DIRECTION('',(1.,0.,0.));
#697=DIRECTION('',(0.,-1.22464679914735E-16,-1.));
#698=DIRECTION('',(0.,-1.22464679914735E-16,-1.));
#699=DIRECTION('',(1.,0.,0.));
#700=DIRECTION('',(0.,1.22464679914735E-16,1.));
#701=DIRECTION('',(-1.,0.,0.));
#702=DIRECTION('',(0.,1.,-1.22464679914735E-16));
#703=DIRECTION('',(1.,0.,0.));
#704=DIRECTION('',(1.,0.,0.));
#705=DIRECTION('',(1.,0.,0.));
#706=DIRECTION('',(0.,-1.22464679914735E-16,-1.));
#707=DIRECTION('',(1.,0.,0.));
#708=DIRECTION('',(0.,-1.,1.22464679914735E-16));
#709=DIRECTION('',(0.,-1.22464679914735E-16,-1.));
#710=DIRECTION('',(1.,0.,0.));
#711=DIRECTION('',(0.,1.,5.10076676829455E-17));
#712=DIRECTION('',(0.,1.,5.10076676829455E-17));
#713=DIRECTION('',(0.,1.22464679914735E-16,1.));
#714=DIRECTION('',(1.,0.,0.));
#715=DIRECTION('',(0.,1.22464679914735E-16,1.));
#716=DIRECTION('',(-1.,0.,0.));
#717=DIRECTION('',(0.,1.22464679914735E-16,1.));
#718=DIRECTION('',(-1.,0.,0.));
#719=DIRECTION('',(0.,-1.,1.22464679914735E-16));
#720=DIRECTION('',(0.,1.22464679914735E-16,1.));
#721=DIRECTION('',(1.,0.,0.));
#722=DIRECTION('',(0.,1.,5.10076676829455E-17));
#723=DIRECTION('',(0.,1.,5.10076676829455E-17));
#724=DIRECTION('',(0.,-5.10076676829455E-17,1.));
#725=DIRECTION('',(0.,-1.,-5.10076676829455E-17));
#726=DIRECTION('',(1.,0.,0.));
#727=DIRECTION('',(0.,1.22464679914735E-16,1.));
#728=DIRECTION('',(-1.,0.,0.));
#729=DIRECTION('',(0.,-1.22464679914735E-16,-1.));
#730=DIRECTION('',(0.,1.22464679914735E-16,1.));
#731=DIRECTION('',(-1.,0.,0.));
#732=DIRECTION('',(0.106064981392206,-1.21773881215864E-16,-0.994359200551929));
#733=DIRECTION('',(0.994359200551929,1.29892139963588E-17,0.106064981392206));
#734=DIRECTION('',(0.,1.22464679914735E-16,1.));
#735=DIRECTION('',(-1.,0.,0.));
#736=DIRECTION('',(-1.,0.,0.));
#737=DIRECTION('',(0.,-1.22464679914735E-16,-1.));
#738=DIRECTION('',(0.,-1.,1.22464679914735E-16));
#739=DIRECTION('',(1.,0.,0.));
#740=DIRECTION('',(0.,-1.,1.22464679914735E-16));
#741=DIRECTION('',(1.,0.,0.));
#742=DIRECTION('',(0.,-1.22464679914735E-16,-1.));
#743=DIRECTION('',(-0.106064981392206,-1.21773881215864E-16,-0.994359200551929));
#744=DIRECTION('',(0.994359200551929,-1.29892139963588E-17,-0.106064981392206));
#745=DIRECTION('',(0.993405517219338,0.0437866065360513,-0.105963255170063));
#746=DIRECTION('',(0.106064981392206,-1.21773881215864E-16,-0.994359200551929));
#747=DIRECTION('',(0.994359200551929,1.29892139963588E-17,0.106064981392206));
#748=DIRECTION('',(0.993405517219338,0.0437866065360513,0.105963255170063));
#749=CARTESIAN_POINT('',(0.,0.,0.));
#750=CARTESIAN_POINT('',(0.141,0.,8.73828586120873E-18));
#751=CARTESIAN_POINT('',(-0.01875,0.,8.73828586120873E-18));
#752=CARTESIAN_POINT('',(0.128,0.0301823318442355,-0.0156533333333333));
#753=CARTESIAN_POINT('',(0.15,0.028844410203712,-0.018));
#754=CARTESIAN_POINT('',(0.128,0.,8.73828586120873E-18));
#755=CARTESIAN_POINT('',(0.128,0.0274954541697351,-0.02));
#756=CARTESIAN_POINT('',(0.141,0.0274954541697351,-0.02));
#757=CARTESIAN_POINT('',(0.15,0.0274954541697351,-0.02));
#758=CARTESIAN_POINT('',(0.15,0.,8.73828586120873E-18));
#759=CARTESIAN_POINT('',(0.077,0.0220548624109913,-0.255091332600887));
#760=CARTESIAN_POINT('',(0.077,0.0220548624109914,-0.0102133333333333));
#761=CARTESIAN_POINT('',(0.076,0.0220548624109914,-0.0101066666666667));
#762=CARTESIAN_POINT('',(0.077,0.0220548624109914,-0.024));
#763=CARTESIAN_POINT('',(0.078,0.0220548624109914,-0.024));
#764=CARTESIAN_POINT('',(0.128,0.13,-0.01));
#765=CARTESIAN_POINT('',(0.128,0.13,-0.0156533333333334));
#766=CARTESIAN_POINT('',(0.128,0.015,-0.0156533333333333));
#767=CARTESIAN_POINT('',(0.128,0.015,-0.02));
#768=CARTESIAN_POINT('',(0.128,0.015,-0.02));
#769=CARTESIAN_POINT('',(0.128,0.,-0.02));
#770=CARTESIAN_POINT('',(0.04,0.015,-0.017));
#771=CARTESIAN_POINT('',(0.10120188082264,0.015,-0.0127948672877483));
#772=CARTESIAN_POINT('',(0.075,0.015,-0.01));
#773=CARTESIAN_POINT('',(0.04,0.015,-0.01));
#774=CARTESIAN_POINT('',(0.00401923788646683,0.015,-0.01));
#775=CARTESIAN_POINT('',(0.00401923788646684,0.015,-0.015));
#776=CARTESIAN_POINT('',(0.00401923788646685,0.015,-0.024));
#777=CARTESIAN_POINT('',(0.0635,0.015,-0.024));
#778=CARTESIAN_POINT('',(0.08,0.015,-0.024));
#779=CARTESIAN_POINT('',(0.08,0.015,-0.012));
#780=CARTESIAN_POINT('',(0.08,0.015,-0.02));
#781=CARTESIAN_POINT('',(0.1015,0.015,-0.02));
#782=CARTESIAN_POINT('',(0.15,0.04,4.58933059361963E-18));
#783=CARTESIAN_POINT('',(0.05,0.03,1.46957615897682E-17));
#784=CARTESIAN_POINT('',(0.15,0.04,-0.000872664748452048));
#785=CARTESIAN_POINT('',(0.05,0.03,-0.000624999999999985));
#786=CARTESIAN_POINT('',(0.15,0.0399714319268528,-0.00174532898515976));
#787=CARTESIAN_POINT('',(0.05,0.03,-0.00124999999999998));
#788=CARTESIAN_POINT('',(0.15,0.0398572819322355,-0.00348692135325166));
#789=CARTESIAN_POINT('',(0.05,0.03,-0.0025));
#790=CARTESIAN_POINT('',(0.15,0.0397717000456689,-0.00435584882965448));
#791=CARTESIAN_POINT('',(0.05,0.03,-0.003125));
#792=CARTESIAN_POINT('',(0.15,0.0395438888642359,-0.00608624654794965));
#793=CARTESIAN_POINT('',(0.05,0.03,-0.004375));
#794=CARTESIAN_POINT('',(0.15,0.0394016596390271,-0.00694771626073852));
#795=CARTESIAN_POINT('',(0.05,0.03,-0.005));
#796=CARTESIAN_POINT('',(0.15,0.0390611627932314,-0.00865950950055174));
#797=CARTESIAN_POINT('',(0.05,0.03,-0.00625));
#798=CARTESIAN_POINT('',(0.15,0.038862895276758,-0.00950983250416128));
#799=CARTESIAN_POINT('',(0.05,0.03,-0.006875));
#800=CARTESIAN_POINT('',(0.15,0.0384111708263674,-0.0111956911040404));
#801=CARTESIAN_POINT('',(0.05,0.03,-0.008125));
#802=CARTESIAN_POINT('',(0.15,0.0381577140305738,-0.0120312261848252));
#803=CARTESIAN_POINT('',(0.05,0.03,-0.00875));
#804=CARTESIAN_POINT('',(0.15,0.0375966963290347,-0.0136839310394277));
#805=CARTESIAN_POINT('',(0.05,0.03,-0.01));
#806=CARTESIAN_POINT('',(0.15,0.0372891355948317,-0.0145011003078982));
#807=CARTESIAN_POINT('',(0.05,0.03,-0.010625));
#808=CARTESIAN_POINT('',(0.15,0.0366212270060713,-0.016113574281309));
#809=CARTESIAN_POINT('',(0.05,0.03,-0.011875));
#810=CARTESIAN_POINT('',(0.15,0.0362608793557403,-0.0169088784932034));
#811=CARTESIAN_POINT('',(0.05,0.03,-0.0125));
#812=CARTESIAN_POINT('',(0.15,0.0354889399668748,-0.0184742167243167));
#813=CARTESIAN_POINT('',(0.05,0.03,-0.01375));
#814=CARTESIAN_POINT('',(0.15,0.0350773484643761,-0.0192442502649024));
#815=CARTESIAN_POINT('',(0.05,0.03,-0.014375));
#816=CARTESIAN_POINT('',(0.15,0.034204683838379,-0.0207557497350976));
#817=CARTESIAN_POINT('',(0.05,0.03,-0.015625));
#818=CARTESIAN_POINT('',(0.15,0.033743610981715,-0.0214972152025361));
#819=CARTESIAN_POINT('',(0.05,0.03,-0.01625));
#820=CARTESIAN_POINT('',(0.15,0.0327739580024886,-0.0229484034390321));
#821=CARTESIAN_POINT('',(0.05,0.03,-0.0175));
#822=CARTESIAN_POINT('',(0.15,0.0322653781764168,-0.02365812576436));
#823=CARTESIAN_POINT('',(0.05,0.03,-0.018125));
#824=CARTESIAN_POINT('',(0.15,0.031202889046882,-0.0250427885563376));
#825=CARTESIAN_POINT('',(0.05,0.03,-0.019375));
#826=CARTESIAN_POINT('',(0.15,0.0306489800682962,-0.0257177285995993));
#827=CARTESIAN_POINT('',(0.05,0.03,-0.02));
#828=CARTESIAN_POINT('',(0.15,0.029498204530022,-0.0270299366084062));
#829=CARTESIAN_POINT('',(0.05,0.03,-0.02125));
#830=CARTESIAN_POINT('',(0.15,0.0289013383222061,-0.0276672041727177));
#831=CARTESIAN_POINT('',(0.05,0.03,-0.021875));
#832=CARTESIAN_POINT('',(0.15,0.0277432268363262,-0.0288253156585976));
#833=CARTESIAN_POINT('',(0.05,0.03,-0.023048));
#834=CARTESIAN_POINT('',(0.15,0.0271866527283738,-0.0293508300828097));
#835=CARTESIAN_POINT('',(0.05,0.03,-0.023596));
#836=CARTESIAN_POINT('',(0.15,0.0266154683812881,-0.0298599533540017));
#837=CARTESIAN_POINT('',(0.05,0.03,-0.024144));
#838=CARTESIAN_POINT('',(0.05,0.03,-0.015));
#839=CARTESIAN_POINT('',(0.05,0.03,-0.01));
#840=CARTESIAN_POINT('',(0.05,0.03,-0.024));
#841=CARTESIAN_POINT('',(0.05,0.03,-0.00999999999999999));
#842=CARTESIAN_POINT('',(0.0583359628549836,0.0306325081383791,-0.00999999999999999));
#843=CARTESIAN_POINT('',(0.0666689924620608,0.031301075382112,-0.00999999999999998));
#844=CARTESIAN_POINT('',(0.0750000000000001,0.031994500396617,-0.00999999999999998));
#845=CARTESIAN_POINT('',(0.075,0.031994500396617,-0.01));
#846=CARTESIAN_POINT('',(0.075,0.0325,1.43895998899814E-17));
#847=CARTESIAN_POINT('',(0.075,0.0325,-0.00334185099496734));
#848=CARTESIAN_POINT('',(0.075,0.0323313956189839,-0.00667517904516146));
#849=CARTESIAN_POINT('',(0.075,0.031994500396617,-0.01));
#850=CARTESIAN_POINT('',(0.075,0.0325,1.66100459392317E-17));
#851=CARTESIAN_POINT('',(0.1,0.035,9.64254609169393E-18));
#852=CARTESIAN_POINT('',(0.15,0.04,2.03613004874162E-17));
#853=CARTESIAN_POINT('',(0.15,0.,1.59204083889156E-17));
#854=CARTESIAN_POINT('',(0.15,0.0346410161565575,-0.02));
#855=CARTESIAN_POINT('',(0.15,0.0346410161546165,-0.019999999998876));
#856=CARTESIAN_POINT('',(0.126692043306537,0.0328864473662058,-0.019999999998876));
#857=CARTESIAN_POINT('',(0.103360839590819,0.0314254352841946,-0.02));
#858=CARTESIAN_POINT('',(0.08,0.0306252936883213,-0.02));
#859=CARTESIAN_POINT('',(0.08,0.0306252936883212,-0.02));
#860=CARTESIAN_POINT('',(0.08,0.0295548624109913,-0.024));
#861=CARTESIAN_POINT('',(0.08,0.0299444776629624,-0.0226754454946681));
#862=CARTESIAN_POINT('',(0.08,0.0303012361563985,-0.0213420982638344));
#863=CARTESIAN_POINT('',(0.08,0.0306252936883213,-0.02));
#864=CARTESIAN_POINT('',(0.08,0.0295548624109913,-0.024));
#865=CARTESIAN_POINT('',(0.08,0.0295548624109913,-0.024));
#866=CARTESIAN_POINT('',(0.069997474456774,0.0295330328928773,-0.024));
#867=CARTESIAN_POINT('',(0.0599974031499643,0.0296766063744327,-0.024));
#868=CARTESIAN_POINT('',(0.05,0.03,-0.024));
#869=CARTESIAN_POINT('',(0.03,0.,-0.015));
#870=CARTESIAN_POINT('',(0.03,0.,-0.01));
#871=CARTESIAN_POINT('',(0.03,0.03,-0.01));
#872=CARTESIAN_POINT('',(0.03,0.03,-0.015));
#873=CARTESIAN_POINT('',(0.03,0.03,-0.024));
#874=CARTESIAN_POINT('',(0.03,0.,-0.024));
#875=CARTESIAN_POINT('',(0.025,0.03,-0.015));
#876=CARTESIAN_POINT('',(0.025,0.03,-0.01));
#877=CARTESIAN_POINT('',(0.025,0.03,-0.024));
#878=CARTESIAN_POINT('',(0.065,0.0220548624109913,-0.255091332600887));
#879=CARTESIAN_POINT('',(0.065,0.0220548624109914,-0.024));
#880=CARTESIAN_POINT('',(0.066,0.0220548624109914,-0.024));
#881=CARTESIAN_POINT('',(0.065,0.0220548624109914,-0.01));
#882=CARTESIAN_POINT('',(0.065,0.0210548624109913,-0.01));
#883=CARTESIAN_POINT('',(0.115,0.294606095008156,0.02));
#884=CARTESIAN_POINT('',(0.15,0.0346410161513776,0.02));
#885=CARTESIAN_POINT('',(0.126692043306573,0.032886447363119,0.02));
#886=CARTESIAN_POINT('',(0.103360839590737,0.0314254352841918,0.02));
#887=CARTESIAN_POINT('',(0.08,0.0306252936883213,0.02));
#888=CARTESIAN_POINT('',(0.15,0.0346410161513775,0.02));
#889=CARTESIAN_POINT('',(0.08,0.0306252936883212,0.02));
#890=CARTESIAN_POINT('',(0.08,0.294606095008156,0.02));
#891=CARTESIAN_POINT('',(0.08,0.015,0.02));
#892=CARTESIAN_POINT('',(0.1015,0.015,0.02));
#893=CARTESIAN_POINT('',(0.128,0.015,0.02));
#894=CARTESIAN_POINT('',(0.128,0.,0.02));
#895=CARTESIAN_POINT('',(0.128,0.0274954541697351,0.02));
#896=CARTESIAN_POINT('',(0.141,0.0274954541697351,0.02));
#897=CARTESIAN_POINT('',(0.15,0.0274954541697351,0.02));
#898=CARTESIAN_POINT('',(0.15,0.294606095008156,0.02));
#899=CARTESIAN_POINT('',(0.115,0.294606095008156,-0.02));
#900=CARTESIAN_POINT('',(0.08,0.294606095008156,-0.02));
#901=CARTESIAN_POINT('',(0.15,0.294606095008156,-0.02));
#902=CARTESIAN_POINT('',(0.141,0.,8.73828586120873E-18));
#903=CARTESIAN_POINT('',(-0.01875,0.,8.73828586120873E-18));
#904=CARTESIAN_POINT('',(0.15,0.028844410203712,0.018));
#905=CARTESIAN_POINT('',(0.128,0.0301823318442355,0.0156533333333334));
#906=CARTESIAN_POINT('',(0.15,0.,8.73828586120873E-18));
#907=CARTESIAN_POINT('',(0.128,0.,8.73828586120873E-18));
#908=CARTESIAN_POINT('',(0.15,0.,-0.02));
#909=CARTESIAN_POINT('',(0.15,0.0267332005306815,-0.018));
#910=CARTESIAN_POINT('',(0.15,0.033466401061363,-0.018));
#911=CARTESIAN_POINT('',(0.15,0.,2.0818995585505E-17));
#912=CARTESIAN_POINT('',(0.15,0.0267332005306815,0.018));
#913=CARTESIAN_POINT('',(0.15,0.033466401061363,0.018));
#914=CARTESIAN_POINT('',(0.15,2.77555756156289E-17,2.01044254631871E-17));
#915=CARTESIAN_POINT('',(0.15,0.04,2.23528989876221E-17));
#916=CARTESIAN_POINT('',(0.05,0.03,1.46957615897682E-17));
#917=CARTESIAN_POINT('',(0.15,0.04,0.000872664748452075));
#918=CARTESIAN_POINT('',(0.05,0.03,0.000625000000000014));
#919=CARTESIAN_POINT('',(0.15,0.0399714319268528,0.00174532898515979));
#920=CARTESIAN_POINT('',(0.05,0.03,0.00125000000000001));
#921=CARTESIAN_POINT('',(0.15,0.0398572819322355,0.00348692135325169));
#922=CARTESIAN_POINT('',(0.05,0.03,0.0025));
#923=CARTESIAN_POINT('',(0.15,0.0397717000456689,0.0043558488296545));
#924=CARTESIAN_POINT('',(0.05,0.03,0.003125));
#925=CARTESIAN_POINT('',(0.15,0.0395438888642359,0.00608624654794968));
#926=CARTESIAN_POINT('',(0.05,0.03,0.004375));
#927=CARTESIAN_POINT('',(0.15,0.0394016596390271,0.00694771626073854));
#928=CARTESIAN_POINT('',(0.05,0.03,0.005));
#929=CARTESIAN_POINT('',(0.15,0.0390611627932314,0.00865950950055176));
#930=CARTESIAN_POINT('',(0.05,0.03,0.00625));
#931=CARTESIAN_POINT('',(0.15,0.038862895276758,0.00950983250416131));
#932=CARTESIAN_POINT('',(0.05,0.03,0.006875));
#933=CARTESIAN_POINT('',(0.15,0.0384111708263674,0.0111956911040404));
#934=CARTESIAN_POINT('',(0.05,0.03,0.008125));
#935=CARTESIAN_POINT('',(0.15,0.0381577140305738,0.0120312261848252));
#936=CARTESIAN_POINT('',(0.05,0.03,0.00875));
#937=CARTESIAN_POINT('',(0.15,0.0375966963290347,0.0136839310394278));
#938=CARTESIAN_POINT('',(0.05,0.03,0.01));
#939=CARTESIAN_POINT('',(0.15,0.0372891355948317,0.0145011003078982));
#940=CARTESIAN_POINT('',(0.05,0.03,0.010625));
#941=CARTESIAN_POINT('',(0.15,0.0366212270060713,0.016113574281309));
#942=CARTESIAN_POINT('',(0.05,0.03,0.011875));
#943=CARTESIAN_POINT('',(0.15,0.0362608793557403,0.0169088784932034));
#944=CARTESIAN_POINT('',(0.05,0.03,0.0125));
#945=CARTESIAN_POINT('',(0.15,0.0354889399668748,0.0184742167243167));
#946=CARTESIAN_POINT('',(0.05,0.03,0.01375));
#947=CARTESIAN_POINT('',(0.15,0.0350773484643761,0.0192442502649025));
#948=CARTESIAN_POINT('',(0.05,0.03,0.014375));
#949=CARTESIAN_POINT('',(0.15,0.034204683838379,0.0207557497350976));
#950=CARTESIAN_POINT('',(0.05,0.03,0.015625));
#951=CARTESIAN_POINT('',(0.15,0.033743610981715,0.0214972152025361));
#952=CARTESIAN_POINT('',(0.05,0.03,0.01625));
#953=CARTESIAN_POINT('',(0.15,0.0327739580024886,0.0229484034390321));
#954=CARTESIAN_POINT('',(0.05,0.03,0.0175));
#955=CARTESIAN_POINT('',(0.15,0.0322653781764168,0.02365812576436));
#956=CARTESIAN_POINT('',(0.05,0.03,0.018125));
#957=CARTESIAN_POINT('',(0.15,0.031202889046882,0.0250427885563377));
#958=CARTESIAN_POINT('',(0.05,0.03,0.019375));
#959=CARTESIAN_POINT('',(0.15,0.0306489800682962,0.0257177285995993));
#960=CARTESIAN_POINT('',(0.05,0.03,0.02));
#961=CARTESIAN_POINT('',(0.15,0.029498204530022,0.0270299366084062));
#962=CARTESIAN_POINT('',(0.05,0.03,0.02125));
#963=CARTESIAN_POINT('',(0.15,0.0289013383222061,0.0276672041727177));
#964=CARTESIAN_POINT('',(0.05,0.03,0.021875));
#965=CARTESIAN_POINT('',(0.15,0.0277432268363262,0.0288253156585977));
#966=CARTESIAN_POINT('',(0.05,0.03,0.023048));
#967=CARTESIAN_POINT('',(0.15,0.0271866527283738,0.0293508300828097));
#968=CARTESIAN_POINT('',(0.05,0.03,0.023596));
#969=CARTESIAN_POINT('',(0.15,0.0266154683812881,0.0298599533540018));
#970=CARTESIAN_POINT('',(0.05,0.03,0.024144));
#971=CARTESIAN_POINT('',(0.05,0.03,0.01));
#972=CARTESIAN_POINT('',(0.0583359628549836,0.0306325081383791,0.01));
#973=CARTESIAN_POINT('',(0.0666689924620608,0.031301075382112,0.01));
#974=CARTESIAN_POINT('',(0.0750000000000001,0.031994500396617,0.01));
#975=CARTESIAN_POINT('',(0.05,0.03,0.01));
#976=CARTESIAN_POINT('',(0.075,0.031994500396617,0.01));
#977=CARTESIAN_POINT('',(0.05,0.03,0.015));
#978=CARTESIAN_POINT('',(0.05,0.03,0.024));
#979=CARTESIAN_POINT('',(0.08,0.0295548624109913,0.024));
#980=CARTESIAN_POINT('',(0.069997474456774,0.0295330328928773,0.024));
#981=CARTESIAN_POINT('',(0.0599974031499643,0.0296766063744327,0.024));
#982=CARTESIAN_POINT('',(0.05,0.03,0.024));
#983=CARTESIAN_POINT('',(0.08,0.0295548624109913,0.024));
#984=CARTESIAN_POINT('',(0.08,0.0295548624109913,0.024));
#985=CARTESIAN_POINT('',(0.08,0.0299444776629624,0.0226754454946681));
#986=CARTESIAN_POINT('',(0.08,0.0303012361563985,0.0213420982638344));
#987=CARTESIAN_POINT('',(0.08,0.0306252936883213,0.02));
#988=CARTESIAN_POINT('',(0.075,0.031994500396617,0.01));
#989=CARTESIAN_POINT('',(0.075,0.0323313956189839,0.00667517904516147));
#990=CARTESIAN_POINT('',(0.075,0.0325,0.00334185099496735));
#991=CARTESIAN_POINT('',(0.075,0.0325,1.66100459392317E-17));
#992=CARTESIAN_POINT('',(0.04,0.015,-0.017));
#993=CARTESIAN_POINT('',(0.04,0.015,0.01));
#994=CARTESIAN_POINT('',(0.00401923788646683,0.015,0.01));
#995=CARTESIAN_POINT('',(0.075,0.015,0.01));
#996=CARTESIAN_POINT('',(0.099092547020566,0.015,0.0125698716821937));
#997=CARTESIAN_POINT('',(0.128,0.015,0.0156533333333334));
#998=CARTESIAN_POINT('',(0.128,0.015,-0.02));
#999=CARTESIAN_POINT('',(0.08,0.015,0.012));
#1000=CARTESIAN_POINT('',(0.08,0.015,0.024));
#1001=CARTESIAN_POINT('',(0.0635,0.015,0.024));
#1002=CARTESIAN_POINT('',(0.00401923788646685,0.015,0.024));
#1003=CARTESIAN_POINT('',(0.00401923788646684,0.015,0.015));
#1004=CARTESIAN_POINT('',(0.03,0.,-0.015));
#1005=CARTESIAN_POINT('',(0.03,0.03,-0.015));
#1006=CARTESIAN_POINT('',(0.03,0.03,0.01));
#1007=CARTESIAN_POINT('',(0.03,0.03,0.024));
#1008=CARTESIAN_POINT('',(0.03,0.,0.01));
#1009=CARTESIAN_POINT('',(0.03,0.,0.024));
#1010=CARTESIAN_POINT('',(0.025,0.03,-0.015));
#1011=CARTESIAN_POINT('',(0.025,0.03,0.01));
#1012=CARTESIAN_POINT('',(0.025,0.03,0.024));
#1013=CARTESIAN_POINT('',(0.0135,0.015,-0.024));
#1014=CARTESIAN_POINT('',(0.08,0.294606095008156,-0.024));
#1015=CARTESIAN_POINT('',(0.01,0.17465249196573,-0.01));
#1016=CARTESIAN_POINT('',(0.075,0.025,-0.01));
#1017=CARTESIAN_POINT('',(0.075,0.0301606055596467,-0.01));
#1018=CARTESIAN_POINT('',(0.075,0.025,-0.01));
#1019=CARTESIAN_POINT('',(0.0135,0.015,0.024));
#1020=CARTESIAN_POINT('',(0.065,0.0220548624109914,0.024));
#1021=CARTESIAN_POINT('',(0.064,0.0220548624109914,0.024));
#1022=CARTESIAN_POINT('',(0.077,0.0220548624109914,0.024));
#1023=CARTESIAN_POINT('',(0.076,0.0220548624109914,0.024));
#1024=CARTESIAN_POINT('',(0.08,0.294606095008156,0.024));
#1025=CARTESIAN_POINT('',(0.01,0.17465249196573,0.01));
#1026=CARTESIAN_POINT('',(0.075,0.025,0.01));
#1027=CARTESIAN_POINT('',(0.075,0.0301606055596467,0.01));
#1028=CARTESIAN_POINT('',(0.075,0.025,0.01));
#1029=CARTESIAN_POINT('',(0.065,0.0220548624109914,0.01));
#1030=CARTESIAN_POINT('',(0.065,0.0210548624109913,0.01));
#1031=CARTESIAN_POINT('',(0.08,0.294606095008156,0.012));
#1032=CARTESIAN_POINT('',(0.08,0.294606095008156,-0.012));
#1033=CARTESIAN_POINT('',(0.077,0.0220548624109913,-0.255091332600887));
#1034=CARTESIAN_POINT('',(0.077,0.0220548624109914,0.0102133333333333));
#1035=CARTESIAN_POINT('',(0.078,0.0220548624109914,0.01032));
#1036=CARTESIAN_POINT('',(0.065,0.0220548624109913,-0.255091332600887));
#1037=CARTESIAN_POINT('',(0.128,0.13,-0.01));
#1038=CARTESIAN_POINT('',(0.128,0.13,0.0156533333333334));
#1039=CARTESIAN_POINT('',(0.075,0.0256696972201766,1.52260707336332E-17));
#1040=CARTESIAN_POINT('',(0.075,-0.00650000000000012,2.17678076206213E-17));
#1041=CARTESIAN_POINT('',(-0.000210933380207419,0.15,-0.00197750043944456));
#1042=CARTESIAN_POINT('',(0.075,0.0301606055596467,-0.01));
#1043=CARTESIAN_POINT('',(-0.000210933380207418,0.15,0.00197750043944455));
#1044=CARTESIAN_POINT('',(0.1125,0.0318135033105049,0.014));
#1045=CARTESIAN_POINT('',(0.075,0.0301606055596467,-0.01));
#1046=CARTESIAN_POINT('',(0.15,0.033466401061363,-0.018));
#1047=CARTESIAN_POINT('',(0.075,0.0302715614011545,-0.00959322916599449));
#1048=CARTESIAN_POINT('',(0.15,0.033836503148312,-0.0173118897291398));
#1049=CARTESIAN_POINT('',(0.075,0.0303757465733718,-0.00918461149767823));
#1050=CARTESIAN_POINT('',(0.15,0.0341853757549063,-0.0166123615317124));
#1051=CARTESIAN_POINT('',(0.075,0.0305704601666676,-0.00836413514586754));
#1052=CARTESIAN_POINT('',(0.15,0.034839335593342,-0.0151931289265558));
#1053=CARTESIAN_POINT('',(0.075,0.0306609885827204,-0.00795227648297979));
#1054=CARTESIAN_POINT('',(0.15,0.0351444226264476,-0.0144734249373842));
#1055=CARTESIAN_POINT('',(0.075,0.0308282883641065,-0.00712577445004648));
#1056=CARTESIAN_POINT('',(0.15,0.0357096507643372,-0.0130165784080736));
#1057=CARTESIAN_POINT('',(0.075,0.0309050597260169,-0.00671113109691139));
#1058=CARTESIAN_POINT('',(0.15,0.0359697917327652,-0.0122794362193855));
#1059=CARTESIAN_POINT('',(0.075,0.0310447603431347,-0.00587951906905724));
#1060=CARTESIAN_POINT('',(0.15,0.0364441382291317,-0.0107905171284972));
#1061=CARTESIAN_POINT('',(0.075,0.0311076895954836,-0.00546255041135322));
#1062=CARTESIAN_POINT('',(0.15,0.0366583436426386,-0.0100387405854854));
#1063=CARTESIAN_POINT('',(0.075,0.0312196362732418,-0.00462674973617183));
#1064=CARTESIAN_POINT('',(0.15,0.037040004240225,-0.00852341228901735));
#1065=CARTESIAN_POINT('',(0.075,0.0312686536963605,-0.00420791773579518));
#1066=CARTESIAN_POINT('',(0.15,0.0372074593322323,-0.0077598609011204));
#1067=CARTESIAN_POINT('',(0.075,0.0313527224084118,-0.00336885440150581));
#1068=CARTESIAN_POINT('',(0.15,0.0374949823202989,-0.00622388720695767));
#1069=CARTESIAN_POINT('',(0.075,0.0313877736956243,-0.00294862308476057));
#1070=CARTESIAN_POINT('',(0.15,0.0376150501469959,-0.00545146527123161));
#1071=CARTESIAN_POINT('',(0.075,0.0314438713017749,-0.00210722669430067));
#1072=CARTESIAN_POINT('',(0.15,0.0378073418831487,-0.00390068851552692));
#1073=CARTESIAN_POINT('',(0.075,0.031464917619565,-0.00168606163780124));
#1074=CARTESIAN_POINT('',(0.15,0.0378795657462161,-0.00312233406965912));
#1075=CARTESIAN_POINT('',(0.075,0.0314929819689647,-0.000843264378914188));
#1076=CARTESIAN_POINT('',(0.15,0.0379758948162609,-0.00156265289451756));
#1077=CARTESIAN_POINT('',(0.075,0.0315,-0.000421632193770441));
#1078=CARTESIAN_POINT('',(0.15,0.038,-0.000781326541502752));
#1079=CARTESIAN_POINT('',(0.075,0.0315,0.000421632193770471));
#1080=CARTESIAN_POINT('',(0.15,0.038,0.000781326541502769));
#1081=CARTESIAN_POINT('',(0.075,0.0314929819689648,0.00084326437891421));
#1082=CARTESIAN_POINT('',(0.15,0.0379758948162609,0.00156265289451759));
#1083=CARTESIAN_POINT('',(0.075,0.0314649176195651,0.00168606163780126));
#1084=CARTESIAN_POINT('',(0.15,0.0378795657462161,0.00312233406965914));
#1085=CARTESIAN_POINT('',(0.075,0.0314438713017749,0.00210722669430071));
#1086=CARTESIAN_POINT('',(0.15,0.0378073418831487,0.00390068851552693));
#1087=CARTESIAN_POINT('',(0.075,0.0313877736956243,0.0029486230847606));
#1088=CARTESIAN_POINT('',(0.15,0.0376150501469959,0.00545146527123163));
#1089=CARTESIAN_POINT('',(0.075,0.0313527224084118,0.00336885440150584));
#1090=CARTESIAN_POINT('',(0.15,0.0374949823202989,0.00622388720695769));
#1091=CARTESIAN_POINT('',(0.075,0.0312686536963605,0.0042079177357952));
#1092=CARTESIAN_POINT('',(0.15,0.0372074593322323,0.00775986090112042));
#1093=CARTESIAN_POINT('',(0.075,0.0312196362732418,0.00462674973617186));
#1094=CARTESIAN_POINT('',(0.15,0.037040004240225,0.00852341228901737));
#1095=CARTESIAN_POINT('',(0.075,0.0311076895954836,0.00546255041135325));
#1096=CARTESIAN_POINT('',(0.15,0.0366583436426386,0.0100387405854854));
#1097=CARTESIAN_POINT('',(0.075,0.0310447603431347,0.00587951906905727));
#1098=CARTESIAN_POINT('',(0.15,0.0364441382291317,0.0107905171284973));
#1099=CARTESIAN_POINT('',(0.075,0.0309050597260169,0.00671113109691142));
#1100=CARTESIAN_POINT('',(0.15,0.0359697917327652,0.0122794362193855));
#1101=CARTESIAN_POINT('',(0.075,0.0308282883641065,0.00712577445004651));
#1102=CARTESIAN_POINT('',(0.15,0.0357096507643372,0.0130165784080736));
#1103=CARTESIAN_POINT('',(0.075,0.0306609885827204,0.00795227648297982));
#1104=CARTESIAN_POINT('',(0.15,0.0351444226264476,0.0144734249373842));
#1105=CARTESIAN_POINT('',(0.075,0.0305704601666676,0.00836413514586756));
#1106=CARTESIAN_POINT('',(0.15,0.0348393355933421,0.0151931289265558));
#1107=CARTESIAN_POINT('',(0.075,0.0303757465733718,0.00918461149767825));
#1108=CARTESIAN_POINT('',(0.15,0.0341853757549063,0.0166123615317124));
#1109=CARTESIAN_POINT('',(0.075,0.0302715614011545,0.00959322916599455));
#1110=CARTESIAN_POINT('',(0.15,0.033836503148312,0.0173118897291398));
#1111=CARTESIAN_POINT('',(0.075,0.0301606055596467,0.01));
#1112=CARTESIAN_POINT('',(0.15,0.033466401061363,0.018));
#1113=MECHANICAL_DESIGN_GEOMETRIC_PRESENTATION_REPRESENTATION('',(#548),
#1114);
#1114=(
GEOMETRIC_REPRESENTATION_CONTEXT(3)
GLOBAL_UNCERTAINTY_ASSIGNED_CONTEXT((#1115))
GLOBAL_UNIT_ASSIGNED_CONTEXT((#1118,#1117,#1116))
REPRESENTATION_CONTEXT('Part 2','TOP_LEVEL_ASSEMBLY_PART')
);
#1115=UNCERTAINTY_MEASURE_WITH_UNIT(LENGTH_MEASURE(2.E-5),#1118,
'DISTANCE_ACCURACY_VALUE','Maximum Tolerance applied to model');
#1116=(
NAMED_UNIT(*)
SI_UNIT($,.STERADIAN.)
SOLID_ANGLE_UNIT()
);
#1117=(
NAMED_UNIT(*)
PLANE_ANGLE_UNIT()
SI_UNIT($,.RADIAN.)
);
#1118=(
LENGTH_UNIT()
NAMED_UNIT(*)
SI_UNIT($,.METRE.)
);
#1119=PRODUCT_DEFINITION_SHAPE('','',#1120);
#1120=PRODUCT_DEFINITION('','',#1122,#1121);
#1121=PRODUCT_DEFINITION_CONTEXT('',#1128,'design');
#1122=PRODUCT_DEFINITION_FORMATION_WITH_SPECIFIED_SOURCE('','',#1124,
 .NOT_KNOWN.);
#1123=PRODUCT_RELATED_PRODUCT_CATEGORY('','',(#1124));
#1124=PRODUCT('Part 2','Part 2','Part 2',(#1126));
#1125=PRODUCT_CATEGORY('','');
#1126=PRODUCT_CONTEXT('',#1128,'mechanical');
#1127=APPLICATION_PROTOCOL_DEFINITION('international standard',
'ap242_managed_model_based_3d_engineering',2020,#1128);
#1128=APPLICATION_CONTEXT('managed model based 3d engineering');
ENDSEC;
END-ISO-10303-21;
