ISO-10303-21;
HEADER;
/* Generated by software containing ST-Developer
 * from STEP Tools, Inc. (www.steptools.com) 
 */
/* OPTION: using custom renumber hook */

FILE_DESCRIPTION(
/* description */ ('STEP AP242 Edition 2',
'CAx-IF Rec.Pracs.---Representation and Presentation of Product Manufa
cturing Information (PMI)---4.0---2014-10-13',
'CAx-IF Rec.Pracs.---3D Tessellated Geometry---0.4---2014-09-14','2;1',
'CAx-IF Rec.Pracs.---User Defined Attributes---1.5---2016-08-15'),
/* implementation_level */ '2;1');

FILE_NAME(
/* name */ 'Arm_upper3.0 - Part 3',
/* time_stamp */ '2026-05-19T16:29:58Z',
/* author */ (''),
/* organization */ (''),
/* preprocessor_version */ 'ST-DEVELOPER v20',
/* originating_system */ 'ONSHAPE BY PTC INC, 1.215',
/* authorisation */ '  ');

FILE_SCHEMA (('AP242_MANAGED_MODEL_BASED_3D_ENGINEERING_MIM_LF { 1 0 10303 442 3 1 4 }'));
ENDSEC;

DATA;
#10=SHAPE_REPRESENTATION_RELATIONSHIP('','',#645,#11);
#11=ADVANCED_BREP_SHAPE_REPRESENTATION('',(#643),#1373);
#12=(
BOUNDED_SURFACE()
B_SPLINE_SURFACE(3,2,((#1320,#1321,#1322),(#1323,#1324,#1325),(#1326,#1327,
#1328),(#1329,#1330,#1331),(#1332,#1333,#1334),(#1335,#1336,#1337),(#1338,
#1339,#1340),(#1341,#1342,#1343),(#1344,#1345,#1346),(#1347,#1348,#1349),
(#1350,#1351,#1352),(#1353,#1354,#1355),(#1356,#1357,#1358),(#1359,#1360,
#1361),(#1362,#1363,#1364),(#1365,#1366,#1367),(#1368,#1369,#1370)),
 .UNSPECIFIED.,.F.,.F.,.F.)
B_SPLINE_SURFACE_WITH_KNOTS((4,1,1,1,1,1,1,1,1,1,1,1,1,1,4),(3,3),(0.0272201696996128,
0.0284520952654144,0.0296840208312161,0.0321478719628195,0.0346117230944228,
0.0370755742260262,0.0420032764892329,0.0469309787524396,0.0518586810156463,
0.056786383278853,0.0592502344104564,0.0617140855420597,0.0641779366736631,
0.0654098622394648,0.0666417878052664),(0.,1.),.UNSPECIFIED.)
GEOMETRIC_REPRESENTATION_ITEM()
RATIONAL_B_SPLINE_SURFACE(((1.,0.61267658109018,1.),(1.,0.621234859118694,
1.),(1.,0.637799499506426,1.),(1.,0.668456083631118,1.),(1.,0.702320123659108,
1.),(1.,0.735417402957733,1.),(1.,0.770423639525054,1.),(1.,0.798142645388496,
1.),(1.,0.80892301051578,1.),(1.,0.798160196817534,1.),(1.,0.770436938914301,
1.),(1.,0.735396580643829,1.),(1.,0.702250197212315,1.),(1.,0.668318946211183,
1.),(1.,0.637747227439282,1.),(1.,0.62122447445793,1.),(1.,0.612690233906047,
1.)))
REPRESENTATION_ITEM('')
SURFACE()
);
#13=B_SPLINE_SURFACE_WITH_KNOTS('',3,3,((#953,#954,#955,#956),(#957,#958,
#959,#960),(#961,#962,#963,#964),(#965,#966,#967,#968),(#969,#970,#971,
#972),(#973,#974,#975,#976)),.UNSPECIFIED.,.F.,.F.,.F.,(4,2,4),(4,4),(0.,
0.5,1.),(-0.00600002502003178,1.),.UNSPECIFIED.);
#14=B_SPLINE_SURFACE_WITH_KNOTS('',3,3,((#1008,#1009,#1010,#1011),(#1012,
#1013,#1014,#1015),(#1016,#1017,#1018,#1019),(#1020,#1021,#1022,#1023),
(#1024,#1025,#1026,#1027),(#1028,#1029,#1030,#1031)),.UNSPECIFIED.,.F.,
 .F.,.F.,(4,2,4),(4,4),(0.,0.5,1.),(-0.00600004807300396,1.),
 .UNSPECIFIED.);
#15=B_SPLINE_SURFACE_WITH_KNOTS('',3,3,((#1046,#1047,#1048,#1049),(#1050,
#1051,#1052,#1053),(#1054,#1055,#1056,#1057),(#1058,#1059,#1060,#1061),
(#1062,#1063,#1064,#1065),(#1066,#1067,#1068,#1069)),.UNSPECIFIED.,.F.,
 .F.,.F.,(4,2,4),(4,4),(0.,0.5,1.),(-0.00600001971414492,1.),
 .UNSPECIFIED.);
#16=B_SPLINE_SURFACE_WITH_KNOTS('',3,1,((#1116,#1117),(#1118,#1119),(#1120,
#1121),(#1122,#1123),(#1124,#1125),(#1126,#1127),(#1128,#1129)),
 .RULED_SURF.,.F.,.F.,.F.,(4,3,4),(2,2),(-0.465711999028245,0.,1.),(0.,
1.),.PIECEWISE_BEZIER_KNOTS.);
#17=B_SPLINE_SURFACE_WITH_KNOTS('',3,3,((#1140,#1141,#1142,#1143),(#1144,
#1145,#1146,#1147),(#1148,#1149,#1150,#1151),(#1152,#1153,#1154,#1155),
(#1156,#1157,#1158,#1159),(#1160,#1161,#1162,#1163),(#1164,#1165,#1166,
#1167),(#1168,#1169,#1170,#1171),(#1172,#1173,#1174,#1175),(#1176,#1177,
#1178,#1179),(#1180,#1181,#1182,#1183),(#1184,#1185,#1186,#1187),(#1188,
#1189,#1190,#1191),(#1192,#1193,#1194,#1195),(#1196,#1197,#1198,#1199),
(#1200,#1201,#1202,#1203),(#1204,#1205,#1206,#1207),(#1208,#1209,#1210,
#1211)),.UNSPECIFIED.,.F.,.F.,.F.,(4,2,2,2,2,2,2,2,4),(4,4),(0.,0.125,0.25,
0.375,0.5,0.625,0.75,0.875,1.),(0.0725662713824766,1.00553174819397),
 .UNSPECIFIED.);
#18=B_SPLINE_SURFACE_WITH_KNOTS('',3,1,((#1226,#1227),(#1228,#1229),(#1230,
#1231),(#1232,#1233),(#1234,#1235),(#1236,#1237),(#1238,#1239)),
 .RULED_SURF.,.F.,.F.,.F.,(4,3,4),(2,2),(0.,1.,1.46571199902822),(0.,1.),
 .PIECEWISE_BEZIER_KNOTS.);
#19=B_SPLINE_SURFACE_WITH_KNOTS('',3,3,((#1248,#1249,#1250,#1251),(#1252,
#1253,#1254,#1255),(#1256,#1257,#1258,#1259),(#1260,#1261,#1262,#1263),
(#1264,#1265,#1266,#1267),(#1268,#1269,#1270,#1271),(#1272,#1273,#1274,
#1275),(#1276,#1277,#1278,#1279),(#1280,#1281,#1282,#1283),(#1284,#1285,
#1286,#1287),(#1288,#1289,#1290,#1291),(#1292,#1293,#1294,#1295),(#1296,
#1297,#1298,#1299),(#1300,#1301,#1302,#1303),(#1304,#1305,#1306,#1307),
(#1308,#1309,#1310,#1311),(#1312,#1313,#1314,#1315),(#1316,#1317,#1318,
#1319)),.UNSPECIFIED.,.F.,.F.,.F.,(4,2,2,2,2,2,2,2,4),(4,4),(0.,0.125,0.25,
0.375,0.5,0.625,0.75,0.875,1.),(0.,1.00600022131608),.UNSPECIFIED.);
#20=CYLINDRICAL_SURFACE('',#662,0.03);
#21=CYLINDRICAL_SURFACE('',#671,0.001);
#22=CYLINDRICAL_SURFACE('',#673,0.04);
#23=CYLINDRICAL_SURFACE('',#677,0.0015);
#24=CYLINDRICAL_SURFACE('',#681,0.001);
#25=CIRCLE('',#654,0.03);
#26=CIRCLE('',#658,0.039);
#27=CIRCLE('',#659,0.0320028048253696);
#28=CIRCLE('',#660,0.04);
#29=CIRCLE('',#661,0.03);
#30=CIRCLE('',#663,0.03);
#31=CIRCLE('',#664,0.04);
#32=CIRCLE('',#666,0.001);
#33=CIRCLE('',#674,0.04);
#34=CIRCLE('',#675,0.04);
#35=CIRCLE('',#682,0.001);
#36=ELLIPSE('',#648,0.00348010216963685,0.001);
#37=ELLIPSE('',#669,0.00143245925368855,0.001);
#38=ELLIPSE('',#672,0.00248300005159048,0.001);
#39=ELLIPSE('',#678,0.00163878003404972,0.0015);
#40=ELLIPSE('',#680,0.00248300005159048,0.001);
#41=B_SPLINE_CURVE_WITH_KNOTS('',3,(#843,#844,#845,#846,#847),
 .UNSPECIFIED.,.F.,.F.,(4,1,4),(0.,0.0221771520575856,0.0443543041151711),
 .UNSPECIFIED.);
#42=B_SPLINE_CURVE_WITH_KNOTS('',3,(#880,#881,#882,#883),.UNSPECIFIED.,
 .F.,.F.,(4,4),(0.,0.00938600466016211),.UNSPECIFIED.);
#43=B_SPLINE_CURVE_WITH_KNOTS('',3,(#900,#901,#902,#903,#904),
 .UNSPECIFIED.,.F.,.F.,(4,1,4),(3.58630741987647E-16,0.0101331280372961,
0.0202662560745919),.UNSPECIFIED.);
#44=B_SPLINE_CURVE_WITH_KNOTS('',3,(#919,#920,#921,#922),.UNSPECIFIED.,
 .F.,.F.,(4,4),(4.80192640361449E-17,0.00237867022669873),.UNSPECIFIED.);
#45=B_SPLINE_CURVE_WITH_KNOTS('',3,(#925,#926,#927,#928),.UNSPECIFIED.,
 .F.,.F.,(4,4),(8.73267483461129E-15,0.0110536645757806),.UNSPECIFIED.);
#46=B_SPLINE_CURVE_WITH_KNOTS('',3,(#930,#931,#932,#933),.UNSPECIFIED.,
 .F.,.F.,(4,4),(0.,0.00502836588094805),.UNSPECIFIED.);
#47=B_SPLINE_CURVE_WITH_KNOTS('',3,(#936,#937,#938,#939),.UNSPECIFIED.,
 .F.,.F.,(4,4),(8.90015423273685E-18,0.0150473086806664),.UNSPECIFIED.);
#48=B_SPLINE_CURVE_WITH_KNOTS('',3,(#1032,#1033,#1034,#1035,#1036,#1037,
#1038),.UNSPECIFIED.,.F.,.F.,(4,1,1,1,4),(3.44285960288215E-18,0.0145730673334757,
0.0291461346669514,0.0437192020004271,0.0582922693339028),.UNSPECIFIED.);
#49=B_SPLINE_CURVE_WITH_KNOTS('',3,(#1070,#1071,#1072,#1073,#1074,#1075,
#1076,#1077,#1078,#1079,#1080),.UNSPECIFIED.,.T.,.F.,(1,1,1,1,1,1,1,1,1,
1,1,1,1,1,1),(-0.00355226510857436,-0.00236817673904957,-0.00118408836952479,
5.40349525067944E-19,0.00118408836952479,0.00236817673904958,0.00355226510857436,
0.00473635347809915,0.00592044184762394,0.00710453021714872,0.00828861858667351,
0.0094727069561983,0.0106567953257231,0.0118408836952479,0.0130249720647727),
 .UNSPECIFIED.);
#50=B_SPLINE_CURVE_WITH_KNOTS('',3,(#1096,#1097,#1098,#1099,#1100,#1101,
#1102,#1103,#1104,#1105,#1106),.UNSPECIFIED.,.F.,.F.,(4,1,1,1,1,1,1,1,4),
(0.,0.00488855831099408,0.00977711662198817,0.0146656749329823,0.0195542332439763,
0.0244427915549704,0.0293313498659645,0.0342199081769586,0.0391084664879527),
 .UNSPECIFIED.);
#51=B_SPLINE_CURVE_WITH_KNOTS('',3,(#1131,#1132,#1133,#1134,#1135,#1136,
#1137),.UNSPECIFIED.,.F.,.F.,(4,1,1,1,4),(0.,0.00231614105684463,0.00463228211368925,
0.00694842317053388,0.0092645642273785),.UNSPECIFIED.);
#52=B_SPLINE_CURVE_WITH_KNOTS('',3,(#1212,#1213,#1214,#1215,#1216,#1217,
#1218,#1219,#1220,#1221,#1222),.UNSPECIFIED.,.F.,.F.,(4,1,1,1,1,1,1,1,4),
(-6.00000000357472E-8,0.00542784890515726,0.0108557578103146,0.0162836667154719,
0.0217115756206291,0.0271394845257864,0.0325673934309437,0.037995302336101,
0.0434232112412583),.UNSPECIFIED.);
#53=B_SPLINE_CURVE_WITH_KNOTS('',3,(#1240,#1241,#1242,#1243,#1244,#1245,
#1246),.UNSPECIFIED.,.F.,.F.,(4,1,1,1,4),(1.30968750346023E-17,0.00231614008567391,
0.00463228017134781,0.00694842025702171,0.00926456034269561),
 .UNSPECIFIED.);
#54=ORIENTED_EDGE('',*,*,#230,.F.);
#55=ORIENTED_EDGE('',*,*,#231,.F.);
#56=ORIENTED_EDGE('',*,*,#232,.T.);
#57=ORIENTED_EDGE('',*,*,#233,.F.);
#58=ORIENTED_EDGE('',*,*,#234,.F.);
#59=ORIENTED_EDGE('',*,*,#235,.T.);
#60=ORIENTED_EDGE('',*,*,#236,.F.);
#61=ORIENTED_EDGE('',*,*,#237,.F.);
#62=ORIENTED_EDGE('',*,*,#238,.F.);
#63=ORIENTED_EDGE('',*,*,#239,.T.);
#64=ORIENTED_EDGE('',*,*,#240,.T.);
#65=ORIENTED_EDGE('',*,*,#241,.F.);
#66=ORIENTED_EDGE('',*,*,#242,.F.);
#67=ORIENTED_EDGE('',*,*,#243,.F.);
#68=ORIENTED_EDGE('',*,*,#244,.T.);
#69=ORIENTED_EDGE('',*,*,#245,.F.);
#70=ORIENTED_EDGE('',*,*,#246,.F.);
#71=ORIENTED_EDGE('',*,*,#247,.T.);
#72=ORIENTED_EDGE('',*,*,#248,.F.);
#73=ORIENTED_EDGE('',*,*,#240,.F.);
#74=ORIENTED_EDGE('',*,*,#249,.F.);
#75=ORIENTED_EDGE('',*,*,#250,.T.);
#76=ORIENTED_EDGE('',*,*,#231,.T.);
#77=ORIENTED_EDGE('',*,*,#251,.F.);
#78=ORIENTED_EDGE('',*,*,#252,.F.);
#79=ORIENTED_EDGE('',*,*,#253,.T.);
#80=ORIENTED_EDGE('',*,*,#254,.F.);
#81=ORIENTED_EDGE('',*,*,#247,.F.);
#82=ORIENTED_EDGE('',*,*,#255,.T.);
#83=ORIENTED_EDGE('',*,*,#256,.T.);
#84=ORIENTED_EDGE('',*,*,#257,.T.);
#85=ORIENTED_EDGE('',*,*,#258,.F.);
#86=ORIENTED_EDGE('',*,*,#259,.T.);
#87=ORIENTED_EDGE('',*,*,#260,.F.);
#88=ORIENTED_EDGE('',*,*,#261,.F.);
#89=ORIENTED_EDGE('',*,*,#262,.F.);
#90=ORIENTED_EDGE('',*,*,#263,.F.);
#91=ORIENTED_EDGE('',*,*,#264,.F.);
#92=ORIENTED_EDGE('',*,*,#265,.T.);
#93=ORIENTED_EDGE('',*,*,#257,.F.);
#94=ORIENTED_EDGE('',*,*,#266,.F.);
#95=ORIENTED_EDGE('',*,*,#267,.F.);
#96=ORIENTED_EDGE('',*,*,#268,.F.);
#97=ORIENTED_EDGE('',*,*,#264,.T.);
#98=ORIENTED_EDGE('',*,*,#263,.T.);
#99=ORIENTED_EDGE('',*,*,#269,.F.);
#100=ORIENTED_EDGE('',*,*,#250,.F.);
#101=ORIENTED_EDGE('',*,*,#262,.T.);
#102=ORIENTED_EDGE('',*,*,#270,.T.);
#103=ORIENTED_EDGE('',*,*,#232,.F.);
#104=ORIENTED_EDGE('',*,*,#269,.T.);
#105=ORIENTED_EDGE('',*,*,#271,.F.);
#106=ORIENTED_EDGE('',*,*,#272,.F.);
#107=ORIENTED_EDGE('',*,*,#273,.F.);
#108=ORIENTED_EDGE('',*,*,#274,.F.);
#109=ORIENTED_EDGE('',*,*,#245,.T.);
#110=ORIENTED_EDGE('',*,*,#275,.T.);
#111=ORIENTED_EDGE('',*,*,#260,.T.);
#112=ORIENTED_EDGE('',*,*,#276,.F.);
#113=ORIENTED_EDGE('',*,*,#259,.F.);
#114=ORIENTED_EDGE('',*,*,#266,.T.);
#115=ORIENTED_EDGE('',*,*,#256,.F.);
#116=ORIENTED_EDGE('',*,*,#277,.T.);
#117=ORIENTED_EDGE('',*,*,#238,.T.);
#118=ORIENTED_EDGE('',*,*,#276,.T.);
#119=ORIENTED_EDGE('',*,*,#278,.T.);
#120=ORIENTED_EDGE('',*,*,#279,.T.);
#121=ORIENTED_EDGE('',*,*,#280,.F.);
#122=ORIENTED_EDGE('',*,*,#233,.T.);
#123=ORIENTED_EDGE('',*,*,#270,.F.);
#124=ORIENTED_EDGE('',*,*,#281,.F.);
#125=ORIENTED_EDGE('',*,*,#254,.T.);
#126=ORIENTED_EDGE('',*,*,#282,.T.);
#127=ORIENTED_EDGE('',*,*,#241,.T.);
#128=ORIENTED_EDGE('',*,*,#248,.T.);
#129=ORIENTED_EDGE('',*,*,#283,.F.);
#130=ORIENTED_EDGE('',*,*,#284,.T.);
#131=ORIENTED_EDGE('',*,*,#236,.T.);
#132=ORIENTED_EDGE('',*,*,#285,.T.);
#133=ORIENTED_EDGE('',*,*,#234,.T.);
#134=ORIENTED_EDGE('',*,*,#286,.F.);
#135=ORIENTED_EDGE('',*,*,#287,.T.);
#136=ORIENTED_EDGE('',*,*,#242,.T.);
#137=ORIENTED_EDGE('',*,*,#282,.F.);
#138=ORIENTED_EDGE('',*,*,#253,.F.);
#139=ORIENTED_EDGE('',*,*,#288,.F.);
#140=ORIENTED_EDGE('',*,*,#289,.F.);
#141=ORIENTED_EDGE('',*,*,#290,.F.);
#142=ORIENTED_EDGE('',*,*,#283,.T.);
#143=ORIENTED_EDGE('',*,*,#291,.F.);
#144=ORIENTED_EDGE('',*,*,#285,.F.);
#145=ORIENTED_EDGE('',*,*,#235,.F.);
#146=ORIENTED_EDGE('',*,*,#281,.T.);
#147=ORIENTED_EDGE('',*,*,#261,.T.);
#148=ORIENTED_EDGE('',*,*,#275,.F.);
#149=ORIENTED_EDGE('',*,*,#244,.F.);
#150=ORIENTED_EDGE('',*,*,#292,.F.);
#151=ORIENTED_EDGE('',*,*,#293,.F.);
#152=ORIENTED_EDGE('',*,*,#278,.F.);
#153=ORIENTED_EDGE('',*,*,#294,.T.);
#154=ORIENTED_EDGE('',*,*,#295,.F.);
#155=ORIENTED_EDGE('',*,*,#296,.F.);
#156=ORIENTED_EDGE('',*,*,#292,.T.);
#157=ORIENTED_EDGE('',*,*,#280,.T.);
#158=ORIENTED_EDGE('',*,*,#297,.T.);
#159=ORIENTED_EDGE('',*,*,#295,.T.);
#160=ORIENTED_EDGE('',*,*,#298,.F.);
#161=ORIENTED_EDGE('',*,*,#296,.T.);
#162=ORIENTED_EDGE('',*,*,#297,.F.);
#163=ORIENTED_EDGE('',*,*,#279,.F.);
#164=ORIENTED_EDGE('',*,*,#293,.T.);
#165=ORIENTED_EDGE('',*,*,#299,.F.);
#166=ORIENTED_EDGE('',*,*,#300,.T.);
#167=ORIENTED_EDGE('',*,*,#299,.T.);
#168=ORIENTED_EDGE('',*,*,#294,.F.);
#169=ORIENTED_EDGE('',*,*,#243,.T.);
#170=ORIENTED_EDGE('',*,*,#287,.F.);
#171=ORIENTED_EDGE('',*,*,#286,.T.);
#172=ORIENTED_EDGE('',*,*,#298,.T.);
#173=ORIENTED_EDGE('',*,*,#301,.F.);
#174=ORIENTED_EDGE('',*,*,#300,.F.);
#175=ORIENTED_EDGE('',*,*,#291,.T.);
#176=ORIENTED_EDGE('',*,*,#301,.T.);
#177=ORIENTED_EDGE('',*,*,#302,.F.);
#178=ORIENTED_EDGE('',*,*,#302,.T.);
#179=ORIENTED_EDGE('',*,*,#255,.F.);
#180=ORIENTED_EDGE('',*,*,#246,.T.);
#181=ORIENTED_EDGE('',*,*,#239,.F.);
#182=ORIENTED_EDGE('',*,*,#277,.F.);
#183=ORIENTED_EDGE('',*,*,#303,.F.);
#184=ORIENTED_EDGE('',*,*,#304,.T.);
#185=ORIENTED_EDGE('',*,*,#288,.T.);
#186=ORIENTED_EDGE('',*,*,#252,.T.);
#187=ORIENTED_EDGE('',*,*,#251,.T.);
#188=ORIENTED_EDGE('',*,*,#230,.T.);
#189=ORIENTED_EDGE('',*,*,#305,.F.);
#190=ORIENTED_EDGE('',*,*,#306,.F.);
#191=ORIENTED_EDGE('',*,*,#307,.T.);
#192=ORIENTED_EDGE('',*,*,#303,.T.);
#193=ORIENTED_EDGE('',*,*,#308,.T.);
#194=ORIENTED_EDGE('',*,*,#306,.T.);
#195=ORIENTED_EDGE('',*,*,#309,.T.);
#196=ORIENTED_EDGE('',*,*,#290,.T.);
#197=ORIENTED_EDGE('',*,*,#273,.T.);
#198=ORIENTED_EDGE('',*,*,#310,.F.);
#199=ORIENTED_EDGE('',*,*,#289,.T.);
#200=ORIENTED_EDGE('',*,*,#311,.T.);
#201=ORIENTED_EDGE('',*,*,#312,.T.);
#202=ORIENTED_EDGE('',*,*,#312,.F.);
#203=ORIENTED_EDGE('',*,*,#313,.T.);
#204=ORIENTED_EDGE('',*,*,#314,.T.);
#205=ORIENTED_EDGE('',*,*,#258,.T.);
#206=ORIENTED_EDGE('',*,*,#265,.F.);
#207=ORIENTED_EDGE('',*,*,#268,.T.);
#208=ORIENTED_EDGE('',*,*,#315,.T.);
#209=ORIENTED_EDGE('',*,*,#274,.T.);
#210=ORIENTED_EDGE('',*,*,#249,.T.);
#211=ORIENTED_EDGE('',*,*,#314,.F.);
#212=ORIENTED_EDGE('',*,*,#316,.T.);
#213=ORIENTED_EDGE('',*,*,#307,.F.);
#214=ORIENTED_EDGE('',*,*,#317,.T.);
#215=ORIENTED_EDGE('',*,*,#271,.T.);
#216=ORIENTED_EDGE('',*,*,#315,.F.);
#217=ORIENTED_EDGE('',*,*,#267,.T.);
#218=ORIENTED_EDGE('',*,*,#317,.F.);
#219=ORIENTED_EDGE('',*,*,#308,.F.);
#220=ORIENTED_EDGE('',*,*,#310,.T.);
#221=ORIENTED_EDGE('',*,*,#272,.T.);
#222=ORIENTED_EDGE('',*,*,#316,.F.);
#223=ORIENTED_EDGE('',*,*,#313,.F.);
#224=ORIENTED_EDGE('',*,*,#311,.F.);
#225=ORIENTED_EDGE('',*,*,#304,.F.);
#226=ORIENTED_EDGE('',*,*,#305,.T.);
#227=ORIENTED_EDGE('',*,*,#237,.T.);
#228=ORIENTED_EDGE('',*,*,#284,.F.);
#229=ORIENTED_EDGE('',*,*,#309,.F.);
#230=EDGE_CURVE('',#318,#319,#375,.T.);
#231=EDGE_CURVE('',#320,#318,#376,.T.);
#232=EDGE_CURVE('',#320,#321,#377,.F.);
#233=EDGE_CURVE('',#322,#321,#41,.T.);
#234=EDGE_CURVE('',#323,#322,#378,.T.);
#235=EDGE_CURVE('',#323,#324,#36,.T.);
#236=EDGE_CURVE('',#325,#324,#379,.T.);
#237=EDGE_CURVE('',#319,#325,#380,.T.);
#238=EDGE_CURVE('',#326,#327,#381,.T.);
#239=EDGE_CURVE('',#326,#328,#382,.T.);
#240=EDGE_CURVE('',#328,#329,#383,.T.);
#241=EDGE_CURVE('',#330,#329,#384,.F.);
#242=EDGE_CURVE('',#331,#330,#385,.T.);
#243=EDGE_CURVE('',#332,#331,#386,.T.);
#244=EDGE_CURVE('',#332,#333,#387,.T.);
#245=EDGE_CURVE('',#327,#333,#388,.T.);
#246=EDGE_CURVE('',#334,#328,#389,.T.);
#247=EDGE_CURVE('',#334,#335,#390,.T.);
#248=EDGE_CURVE('',#329,#335,#391,.T.);
#249=EDGE_CURVE('',#336,#337,#42,.T.);
#250=EDGE_CURVE('',#336,#320,#392,.T.);
#251=EDGE_CURVE('',#338,#318,#393,.T.);
#252=EDGE_CURVE('',#339,#338,#394,.T.);
#253=EDGE_CURVE('',#339,#340,#395,.T.);
#254=EDGE_CURVE('',#335,#340,#396,.F.);
#255=EDGE_CURVE('',#334,#341,#397,.T.);
#256=EDGE_CURVE('',#341,#342,#398,.T.);
#257=EDGE_CURVE('',#342,#343,#399,.T.);
#258=EDGE_CURVE('',#337,#343,#43,.T.);
#259=EDGE_CURVE('',#344,#345,#400,.T.);
#260=EDGE_CURVE('',#346,#345,#401,.T.);
#261=EDGE_CURVE('',#347,#346,#402,.T.);
#262=EDGE_CURVE('',#348,#347,#403,.T.);
#263=EDGE_CURVE('',#344,#348,#404,.T.);
#264=EDGE_CURVE('',#349,#344,#405,.T.);
#265=EDGE_CURVE('',#349,#343,#44,.T.);
#266=EDGE_CURVE('',#344,#342,#25,.T.);
#267=EDGE_CURVE('',#350,#336,#45,.T.);
#268=EDGE_CURVE('',#349,#350,#46,.T.);
#269=EDGE_CURVE('',#320,#348,#406,.T.);
#270=EDGE_CURVE('',#347,#321,#47,.T.);
#271=EDGE_CURVE('',#351,#352,#407,.T.);
#272=EDGE_CURVE('',#353,#351,#26,.F.);
#273=EDGE_CURVE('',#354,#353,#408,.T.);
#274=EDGE_CURVE('',#352,#354,#27,.F.);
#275=EDGE_CURVE('',#333,#346,#28,.T.);
#276=EDGE_CURVE('',#327,#345,#29,.T.);
#277=EDGE_CURVE('',#341,#326,#30,.T.);
#278=EDGE_CURVE('',#347,#355,#31,.T.);
#279=EDGE_CURVE('',#355,#356,#409,.T.);
#280=EDGE_CURVE('',#322,#356,#410,.T.);
#281=EDGE_CURVE('',#357,#357,#32,.T.);
#282=EDGE_CURVE('',#340,#330,#411,.T.);
#283=EDGE_CURVE('',#358,#359,#412,.T.);
#284=EDGE_CURVE('',#358,#325,#413,.T.);
#285=EDGE_CURVE('',#324,#323,#37,.T.);
#286=EDGE_CURVE('',#359,#322,#414,.F.);
#287=EDGE_CURVE('',#359,#331,#415,.T.);
#288=EDGE_CURVE('',#360,#339,#416,.T.);
#289=EDGE_CURVE('',#361,#360,#417,.T.);
#290=EDGE_CURVE('',#358,#361,#418,.T.);
#291=EDGE_CURVE('',#362,#362,#38,.F.);
#292=EDGE_CURVE('',#363,#332,#33,.T.);
#293=EDGE_CURVE('',#355,#363,#34,.T.);
#294=EDGE_CURVE('',#332,#364,#48,.T.);
#295=EDGE_CURVE('',#365,#364,#419,.F.);
#296=EDGE_CURVE('',#363,#365,#420,.T.);
#297=EDGE_CURVE('',#356,#365,#421,.F.);
#298=EDGE_CURVE('',#322,#364,#422,.T.);
#299=EDGE_CURVE('',#366,#366,#49,.T.);
#300=EDGE_CURVE('',#367,#367,#39,.T.);
#301=EDGE_CURVE('',#368,#368,#40,.T.);
#302=EDGE_CURVE('',#369,#369,#35,.T.);
#303=EDGE_CURVE('',#370,#338,#423,.T.);
#304=EDGE_CURVE('',#370,#360,#50,.T.);
#305=EDGE_CURVE('',#371,#319,#424,.T.);
#306=EDGE_CURVE('',#372,#371,#425,.T.);
#307=EDGE_CURVE('',#372,#370,#426,.T.);
#308=EDGE_CURVE('',#361,#372,#427,.T.);
#309=EDGE_CURVE('',#371,#358,#428,.T.);
#310=EDGE_CURVE('',#361,#353,#429,.T.);
#311=EDGE_CURVE('',#360,#373,#51,.T.);
#312=EDGE_CURVE('',#373,#354,#430,.T.);
#313=EDGE_CURVE('',#373,#374,#52,.T.);
#314=EDGE_CURVE('',#374,#337,#431,.T.);
#315=EDGE_CURVE('',#350,#352,#432,.T.);
#316=EDGE_CURVE('',#374,#370,#53,.T.);
#317=EDGE_CURVE('',#372,#351,#433,.T.);
#318=VERTEX_POINT('',#837);
#319=VERTEX_POINT('',#838);
#320=VERTEX_POINT('',#840);
#321=VERTEX_POINT('',#842);
#322=VERTEX_POINT('',#848);
#323=VERTEX_POINT('',#850);
#324=VERTEX_POINT('',#852);
#325=VERTEX_POINT('',#854);
#326=VERTEX_POINT('',#858);
#327=VERTEX_POINT('',#859);
#328=VERTEX_POINT('',#861);
#329=VERTEX_POINT('',#863);
#330=VERTEX_POINT('',#865);
#331=VERTEX_POINT('',#867);
#332=VERTEX_POINT('',#869);
#333=VERTEX_POINT('',#871);
#334=VERTEX_POINT('',#875);
#335=VERTEX_POINT('',#877);
#336=VERTEX_POINT('',#884);
#337=VERTEX_POINT('',#885);
#338=VERTEX_POINT('',#888);
#339=VERTEX_POINT('',#890);
#340=VERTEX_POINT('',#892);
#341=VERTEX_POINT('',#895);
#342=VERTEX_POINT('',#897);
#343=VERTEX_POINT('',#899);
#344=VERTEX_POINT('',#907);
#345=VERTEX_POINT('',#908);
#346=VERTEX_POINT('',#910);
#347=VERTEX_POINT('',#912);
#348=VERTEX_POINT('',#914);
#349=VERTEX_POINT('',#918);
#350=VERTEX_POINT('',#929);
#351=VERTEX_POINT('',#942);
#352=VERTEX_POINT('',#943);
#353=VERTEX_POINT('',#945);
#354=VERTEX_POINT('',#947);
#355=VERTEX_POINT('',#978);
#356=VERTEX_POINT('',#980);
#357=VERTEX_POINT('',#984);
#358=VERTEX_POINT('',#989);
#359=VERTEX_POINT('',#990);
#360=VERTEX_POINT('',#997);
#361=VERTEX_POINT('',#999);
#362=VERTEX_POINT('',#1003);
#363=VERTEX_POINT('',#1006);
#364=VERTEX_POINT('',#1039);
#365=VERTEX_POINT('',#1041);
#366=VERTEX_POINT('',#1081);
#367=VERTEX_POINT('',#1084);
#368=VERTEX_POINT('',#1087);
#369=VERTEX_POINT('',#1090);
#370=VERTEX_POINT('',#1095);
#371=VERTEX_POINT('',#1109);
#372=VERTEX_POINT('',#1111);
#373=VERTEX_POINT('',#1138);
#374=VERTEX_POINT('',#1223);
#375=LINE('',#836,#434);
#376=LINE('',#839,#435);
#377=LINE('',#841,#436);
#378=LINE('',#849,#437);
#379=LINE('',#853,#438);
#380=LINE('',#855,#439);
#381=LINE('',#857,#440);
#382=LINE('',#860,#441);
#383=LINE('',#862,#442);
#384=LINE('',#864,#443);
#385=LINE('',#866,#444);
#386=LINE('',#868,#445);
#387=LINE('',#870,#446);
#388=LINE('',#872,#447);
#389=LINE('',#874,#448);
#390=LINE('',#876,#449);
#391=LINE('',#878,#450);
#392=LINE('',#886,#451);
#393=LINE('',#887,#452);
#394=LINE('',#889,#453);
#395=LINE('',#891,#454);
#396=LINE('',#893,#455);
#397=LINE('',#894,#456);
#398=LINE('',#896,#457);
#399=LINE('',#898,#458);
#400=LINE('',#906,#459);
#401=LINE('',#909,#460);
#402=LINE('',#911,#461);
#403=LINE('',#913,#462);
#404=LINE('',#915,#463);
#405=LINE('',#917,#464);
#406=LINE('',#934,#465);
#407=LINE('',#941,#466);
#408=LINE('',#946,#467);
#409=LINE('',#979,#468);
#410=LINE('',#981,#469);
#411=LINE('',#986,#470);
#412=LINE('',#988,#471);
#413=LINE('',#991,#472);
#414=LINE('',#993,#473);
#415=LINE('',#995,#474);
#416=LINE('',#996,#475);
#417=LINE('',#998,#476);
#418=LINE('',#1000,#477);
#419=LINE('',#1040,#478);
#420=LINE('',#1042,#479);
#421=LINE('',#1044,#480);
#422=LINE('',#1045,#481);
#423=LINE('',#1094,#482);
#424=LINE('',#1108,#483);
#425=LINE('',#1110,#484);
#426=LINE('',#1112,#485);
#427=LINE('',#1114,#486);
#428=LINE('',#1115,#487);
#429=LINE('',#1130,#488);
#430=LINE('',#1139,#489);
#431=LINE('',#1224,#490);
#432=LINE('',#1225,#491);
#433=LINE('',#1247,#492);
#434=VECTOR('',#693,1.);
#435=VECTOR('',#694,1.);
#436=VECTOR('',#695,1.);
#437=VECTOR('',#696,1.);
#438=VECTOR('',#699,1.);
#439=VECTOR('',#700,1.);
#440=VECTOR('',#703,1.);
#441=VECTOR('',#704,1.);
#442=VECTOR('',#705,1.);
#443=VECTOR('',#706,1.);
#444=VECTOR('',#707,1.);
#445=VECTOR('',#708,1.);
#446=VECTOR('',#709,1.);
#447=VECTOR('',#710,1.);
#448=VECTOR('',#713,1.);
#449=VECTOR('',#714,1.);
#450=VECTOR('',#715,1.);
#451=VECTOR('',#718,1.);
#452=VECTOR('',#719,1.);
#453=VECTOR('',#720,1.);
#454=VECTOR('',#721,1.);
#455=VECTOR('',#722,1.);
#456=VECTOR('',#723,1.);
#457=VECTOR('',#724,1.);
#458=VECTOR('',#725,1.);
#459=VECTOR('',#728,1.);
#460=VECTOR('',#729,1.);
#461=VECTOR('',#730,1.);
#462=VECTOR('',#731,1.);
#463=VECTOR('',#732,1.);
#464=VECTOR('',#735,1.);
#465=VECTOR('',#740,1.);
#466=VECTOR('',#745,1.);
#467=VECTOR('',#748,1.);
#468=VECTOR('',#761,1.);
#469=VECTOR('',#762,1.);
#470=VECTOR('',#769,1.);
#471=VECTOR('',#772,1.);
#472=VECTOR('',#773,1.);
#473=VECTOR('',#776,1.);
#474=VECTOR('',#779,1.);
#475=VECTOR('',#780,1.);
#476=VECTOR('',#781,1.);
#477=VECTOR('',#782,1.);
#478=VECTOR('',#793,1.);
#479=VECTOR('',#794,1.);
#480=VECTOR('',#797,1.);
#481=VECTOR('',#798,1.);
#482=VECTOR('',#817,1.);
#483=VECTOR('',#820,1.);
#484=VECTOR('',#821,1.);
#485=VECTOR('',#822,1.);
#486=VECTOR('',#825,1.);
#487=VECTOR('',#826,1.);
#488=VECTOR('',#827,1.);
#489=VECTOR('',#828,1.);
#490=VECTOR('',#829,1.);
#491=VECTOR('',#830,1.);
#492=VECTOR('',#831,1.);
#493=EDGE_LOOP('',(#54,#55,#56,#57,#58,#59,#60,#61));
#494=EDGE_LOOP('',(#62,#63,#64,#65,#66,#67,#68,#69));
#495=EDGE_LOOP('',(#70,#71,#72,#73));
#496=EDGE_LOOP('',(#74,#75,#76,#77,#78,#79,#80,#81,#82,#83,#84,#85));
#497=EDGE_LOOP('',(#86,#87,#88,#89,#90));
#498=EDGE_LOOP('',(#91,#92,#93,#94));
#499=EDGE_LOOP('',(#95,#96,#97,#98,#99,#100));
#500=EDGE_LOOP('',(#101,#102,#103,#104));
#501=EDGE_LOOP('',(#105,#106,#107,#108));
#502=EDGE_LOOP('',(#109,#110,#111,#112));
#503=EDGE_LOOP('',(#113,#114,#115,#116,#117,#118));
#504=EDGE_LOOP('',(#119,#120,#121,#122,#123));
#505=EDGE_LOOP('',(#124));
#506=EDGE_LOOP('',(#125,#126,#127,#128));
#507=EDGE_LOOP('',(#129,#130,#131,#132,#133,#134));
#508=EDGE_LOOP('',(#135,#136,#137,#138,#139,#140,#141,#142));
#509=EDGE_LOOP('',(#143));
#510=EDGE_LOOP('',(#144,#145));
#511=EDGE_LOOP('',(#146));
#512=EDGE_LOOP('',(#147,#148,#149,#150,#151,#152));
#513=EDGE_LOOP('',(#153,#154,#155,#156));
#514=EDGE_LOOP('',(#157,#158,#159,#160));
#515=EDGE_LOOP('',(#161,#162,#163,#164));
#516=EDGE_LOOP('',(#165));
#517=EDGE_LOOP('',(#166));
#518=EDGE_LOOP('',(#167));
#519=EDGE_LOOP('',(#168,#169,#170,#171,#172));
#520=EDGE_LOOP('',(#173));
#521=EDGE_LOOP('',(#174));
#522=EDGE_LOOP('',(#175));
#523=EDGE_LOOP('',(#176));
#524=EDGE_LOOP('',(#177));
#525=EDGE_LOOP('',(#178));
#526=EDGE_LOOP('',(#179,#180,#181,#182));
#527=EDGE_LOOP('',(#183,#184,#185,#186));
#528=EDGE_LOOP('',(#187,#188,#189,#190,#191,#192));
#529=EDGE_LOOP('',(#193,#194,#195,#196));
#530=EDGE_LOOP('',(#197,#198,#199,#200,#201));
#531=EDGE_LOOP('',(#202,#203,#204,#205,#206,#207,#208,#209));
#532=EDGE_LOOP('',(#210,#211,#212,#213,#214,#215,#216,#217));
#533=EDGE_LOOP('',(#218,#219,#220,#221));
#534=EDGE_LOOP('',(#222,#223,#224,#225));
#535=EDGE_LOOP('',(#226,#227,#228,#229));
#536=FACE_BOUND('',#493,.T.);
#537=FACE_BOUND('',#494,.T.);
#538=FACE_BOUND('',#495,.T.);
#539=FACE_BOUND('',#496,.T.);
#540=FACE_BOUND('',#497,.T.);
#541=FACE_BOUND('',#498,.T.);
#542=FACE_BOUND('',#499,.T.);
#543=FACE_BOUND('',#500,.T.);
#544=FACE_BOUND('',#501,.T.);
#545=FACE_BOUND('',#502,.T.);
#546=FACE_BOUND('',#503,.T.);
#547=FACE_BOUND('',#504,.T.);
#548=FACE_BOUND('',#505,.T.);
#549=FACE_BOUND('',#506,.T.);
#550=FACE_BOUND('',#507,.T.);
#551=FACE_BOUND('',#508,.T.);
#552=FACE_BOUND('',#509,.T.);
#553=FACE_BOUND('',#510,.T.);
#554=FACE_BOUND('',#511,.T.);
#555=FACE_BOUND('',#512,.T.);
#556=FACE_BOUND('',#513,.T.);
#557=FACE_BOUND('',#514,.T.);
#558=FACE_BOUND('',#515,.T.);
#559=FACE_BOUND('',#516,.T.);
#560=FACE_BOUND('',#517,.T.);
#561=FACE_BOUND('',#518,.T.);
#562=FACE_BOUND('',#519,.T.);
#563=FACE_BOUND('',#520,.T.);
#564=FACE_BOUND('',#521,.T.);
#565=FACE_BOUND('',#522,.T.);
#566=FACE_BOUND('',#523,.T.);
#567=FACE_BOUND('',#524,.T.);
#568=FACE_BOUND('',#525,.T.);
#569=FACE_BOUND('',#526,.T.);
#570=FACE_BOUND('',#527,.T.);
#571=FACE_BOUND('',#528,.T.);
#572=FACE_BOUND('',#529,.T.);
#573=FACE_BOUND('',#530,.T.);
#574=FACE_BOUND('',#531,.T.);
#575=FACE_BOUND('',#532,.T.);
#576=FACE_BOUND('',#533,.T.);
#577=FACE_BOUND('',#534,.T.);
#578=FACE_BOUND('',#535,.T.);
#579=PLANE('',#647);
#580=PLANE('',#649);
#581=PLANE('',#650);
#582=PLANE('',#651);
#583=PLANE('',#652);
#584=PLANE('',#653);
#585=PLANE('',#655);
#586=PLANE('',#656);
#587=PLANE('',#657);
#588=PLANE('',#665);
#589=PLANE('',#667);
#590=PLANE('',#668);
#591=PLANE('',#670);
#592=PLANE('',#676);
#593=PLANE('',#679);
#594=PLANE('',#683);
#595=PLANE('',#684);
#596=PLANE('',#685);
#597=PLANE('',#686);
#598=PLANE('',#687);
#599=PLANE('',#688);
#600=ADVANCED_FACE('',(#536),#579,.T.);
#601=ADVANCED_FACE('',(#537),#580,.T.);
#602=ADVANCED_FACE('',(#538),#581,.F.);
#603=ADVANCED_FACE('',(#539),#582,.T.);
#604=ADVANCED_FACE('',(#540),#583,.T.);
#605=ADVANCED_FACE('',(#541),#584,.F.);
#606=ADVANCED_FACE('',(#542),#585,.T.);
#607=ADVANCED_FACE('',(#543),#586,.T.);
#608=ADVANCED_FACE('',(#544,#545),#587,.F.);
#609=ADVANCED_FACE('',(#546),#20,.F.);
#610=ADVANCED_FACE('',(#547),#13,.T.);
#611=ADVANCED_FACE('',(#548),#588,.T.);
#612=ADVANCED_FACE('',(#549),#589,.F.);
#613=ADVANCED_FACE('',(#550),#590,.T.);
#614=ADVANCED_FACE('',(#551),#591,.T.);
#615=ADVANCED_FACE('',(#552,#553,#554),#21,.F.);
#616=ADVANCED_FACE('',(#555),#22,.T.);
#617=ADVANCED_FACE('',(#556),#14,.T.);
#618=ADVANCED_FACE('',(#557),#592,.T.);
#619=ADVANCED_FACE('',(#558,#559),#15,.T.);
#620=ADVANCED_FACE('',(#560,#561),#23,.F.);
#621=ADVANCED_FACE('',(#562,#563,#564,#565),#593,.F.);
#622=ADVANCED_FACE('',(#566,#567),#24,.F.);
#623=ADVANCED_FACE('',(#568),#594,.T.);
#624=ADVANCED_FACE('',(#569),#595,.T.);
#625=ADVANCED_FACE('',(#570),#596,.F.);
#626=ADVANCED_FACE('',(#571),#597,.F.);
#627=ADVANCED_FACE('',(#572),#598,.T.);
#628=ADVANCED_FACE('',(#573),#16,.F.);
#629=ADVANCED_FACE('',(#574),#17,.F.);
#630=ADVANCED_FACE('',(#575),#18,.F.);
#631=ADVANCED_FACE('',(#576),#19,.F.);
#632=ADVANCED_FACE('',(#577),#12,.T.);
#633=ADVANCED_FACE('',(#578),#599,.T.);
#634=CLOSED_SHELL('',(#600,#601,#602,#603,#604,#605,#606,#607,#608,#609,
#610,#611,#612,#613,#614,#615,#616,#617,#618,#619,#620,#621,#622,#623,#624,
#625,#626,#627,#628,#629,#630,#631,#632,#633));
#635=STYLED_ITEM('',(#636),#643);
#636=PRESENTATION_STYLE_ASSIGNMENT((#637));
#637=SURFACE_STYLE_USAGE(.BOTH.,#638);
#638=SURFACE_SIDE_STYLE('',(#639));
#639=SURFACE_STYLE_FILL_AREA(#640);
#640=FILL_AREA_STYLE('',(#641));
#641=FILL_AREA_STYLE_COLOUR('',#642);
#642=COLOUR_RGB('',0.972549019607843,0.529411764705882,0.00392156862745098);
#643=MANIFOLD_SOLID_BREP('Part 3',#634);
#644=SHAPE_DEFINITION_REPRESENTATION(#1378,#645);
#645=SHAPE_REPRESENTATION('Part 3',(#646),#1373);
#646=AXIS2_PLACEMENT_3D('',#834,#689,#690);
#647=AXIS2_PLACEMENT_3D('',#835,#691,#692);
#648=AXIS2_PLACEMENT_3D('',#851,#697,#698);
#649=AXIS2_PLACEMENT_3D('',#856,#701,#702);
#650=AXIS2_PLACEMENT_3D('',#873,#711,#712);
#651=AXIS2_PLACEMENT_3D('',#879,#716,#717);
#652=AXIS2_PLACEMENT_3D('',#905,#726,#727);
#653=AXIS2_PLACEMENT_3D('',#916,#733,#734);
#654=AXIS2_PLACEMENT_3D('',#923,#736,#737);
#655=AXIS2_PLACEMENT_3D('',#924,#738,#739);
#656=AXIS2_PLACEMENT_3D('',#935,#741,#742);
#657=AXIS2_PLACEMENT_3D('',#940,#743,#744);
#658=AXIS2_PLACEMENT_3D('',#944,#746,#747);
#659=AXIS2_PLACEMENT_3D('',#948,#749,#750);
#660=AXIS2_PLACEMENT_3D('',#949,#751,#752);
#661=AXIS2_PLACEMENT_3D('',#950,#753,#754);
#662=AXIS2_PLACEMENT_3D('',#951,#755,#756);
#663=AXIS2_PLACEMENT_3D('',#952,#757,#758);
#664=AXIS2_PLACEMENT_3D('',#977,#759,#760);
#665=AXIS2_PLACEMENT_3D('',#982,#763,#764);
#666=AXIS2_PLACEMENT_3D('',#983,#765,#766);
#667=AXIS2_PLACEMENT_3D('',#985,#767,#768);
#668=AXIS2_PLACEMENT_3D('',#987,#770,#771);
#669=AXIS2_PLACEMENT_3D('',#992,#774,#775);
#670=AXIS2_PLACEMENT_3D('',#994,#777,#778);
#671=AXIS2_PLACEMENT_3D('',#1001,#783,#784);
#672=AXIS2_PLACEMENT_3D('',#1002,#785,#786);
#673=AXIS2_PLACEMENT_3D('',#1004,#787,#788);
#674=AXIS2_PLACEMENT_3D('',#1005,#789,#790);
#675=AXIS2_PLACEMENT_3D('',#1007,#791,#792);
#676=AXIS2_PLACEMENT_3D('',#1043,#795,#796);
#677=AXIS2_PLACEMENT_3D('',#1082,#799,#800);
#678=AXIS2_PLACEMENT_3D('',#1083,#801,#802);
#679=AXIS2_PLACEMENT_3D('',#1085,#803,#804);
#680=AXIS2_PLACEMENT_3D('',#1086,#805,#806);
#681=AXIS2_PLACEMENT_3D('',#1088,#807,#808);
#682=AXIS2_PLACEMENT_3D('',#1089,#809,#810);
#683=AXIS2_PLACEMENT_3D('',#1091,#811,#812);
#684=AXIS2_PLACEMENT_3D('',#1092,#813,#814);
#685=AXIS2_PLACEMENT_3D('',#1093,#815,#816);
#686=AXIS2_PLACEMENT_3D('',#1107,#818,#819);
#687=AXIS2_PLACEMENT_3D('',#1113,#823,#824);
#688=AXIS2_PLACEMENT_3D('',#1371,#832,#833);
#689=DIRECTION('',(0.,0.,1.));
#690=DIRECTION('',(1.,0.,0.));
#691=DIRECTION('',(0.287347885566346,9.15555531791455E-17,-0.957826285221152));
#692=DIRECTION('',(0.957826285221152,0.,0.287347885566346));
#693=DIRECTION('',(0.957826285221151,0.,0.287347885566346));
#694=DIRECTION('',(3.18622679261046E-16,-1.,0.));
#695=DIRECTION('',(3.18622679261046E-16,-1.,0.));
#696=DIRECTION('',(0.700032814807309,0.682531994437126,0.210009844442193));
#697=DIRECTION('',(-0.287347885566346,-9.15555531791455E-17,0.957826285221152));
#698=DIRECTION('',(0.957826285221152,-2.74666659537436E-17,0.287347885566346));
#699=DIRECTION('',(0.700032814807309,0.682531994437126,0.210009844442193));
#700=DIRECTION('',(0.,-1.,0.));
#701=DIRECTION('',(0.,0.,-1.));
#702=DIRECTION('',(1.,0.,0.));
#703=DIRECTION('',(-1.,0.,0.));
#704=DIRECTION('',(-1.15648231731787E-16,1.,0.));
#705=DIRECTION('',(1.,2.56996070515082E-16,0.));
#706=DIRECTION('',(0.707106781186548,-0.707106781186547,0.));
#707=DIRECTION('',(-1.,-1.19636101791504E-16,0.));
#708=DIRECTION('',(0.,1.,0.));
#709=DIRECTION('',(-1.,0.,0.));
#710=DIRECTION('',(0.,-1.,0.));
#711=DIRECTION('',(2.56996070515082E-16,-1.,0.));
#712=DIRECTION('',(1.,2.56996070515082E-16,0.));
#713=DIRECTION('',(0.,0.,-1.));
#714=DIRECTION('',(1.,2.56996070515082E-16,0.));
#715=DIRECTION('',(0.,0.,1.));
#716=DIRECTION('',(0.,0.,-1.));
#717=DIRECTION('',(1.,0.,0.));
#718=DIRECTION('',(1.,3.09772049281573E-16,0.));
#719=DIRECTION('',(1.,0.,0.));
#720=DIRECTION('',(4.56506177888634E-17,1.,0.));
#721=DIRECTION('',(-1.,-1.19636101791504E-16,0.));
#722=DIRECTION('',(-0.707106781186548,0.707106781186547,0.));
#723=DIRECTION('',(-1.15648231731787E-16,1.,0.));
#724=DIRECTION('',(-1.,-1.15648231731787E-16,0.));
#725=DIRECTION('',(-1.15648231731787E-16,1.,0.));
#726=DIRECTION('',(0.,0.,-1.));
#727=DIRECTION('',(1.,0.,0.));
#728=DIRECTION('',(-1.,0.,0.));
#729=DIRECTION('',(0.,-1.,1.22464679914735E-16));
#730=DIRECTION('',(-1.,0.,0.));
#731=DIRECTION('',(0.,1.,0.));
#732=DIRECTION('',(1.,3.09772049281573E-16,0.));
#733=DIRECTION('',(-1.,-1.15648231731787E-16,0.));
#734=DIRECTION('',(1.15648231731787E-16,-1.,0.));
#735=DIRECTION('',(0.,0.,-1.));
#736=DIRECTION('',(1.,1.15648231731787E-16,0.));
#737=DIRECTION('',(1.15648231731787E-16,-1.,0.));
#738=DIRECTION('',(3.09772049281573E-16,-1.,0.));
#739=DIRECTION('',(1.,3.09772049281573E-16,0.));
#740=DIRECTION('',(-0.707106781186547,-2.19041916669053E-16,-0.707106781186548));
#741=DIRECTION('',(0.707106781186548,2.19041916669053E-16,-0.707106781186547));
#742=DIRECTION('',(0.707106781186547,0.,0.707106781186548));
#743=DIRECTION('',(1.,0.,0.));
#744=DIRECTION('',(0.,1.,0.));
#745=DIRECTION('',(0.,-1.,0.));
#746=DIRECTION('',(1.,0.,0.));
#747=DIRECTION('',(0.,0.,1.));
#748=DIRECTION('',(0.,-1.,0.));
#749=DIRECTION('',(-1.,0.,0.));
#750=DIRECTION('',(0.,0.,1.));
#751=DIRECTION('',(-1.,0.,0.));
#752=DIRECTION('',(0.,0.,1.));
#753=DIRECTION('',(-1.,0.,0.));
#754=DIRECTION('',(0.,0.,-1.));
#755=DIRECTION('',(-1.,0.,0.));
#756=DIRECTION('',(0.,0.,-1.));
#757=DIRECTION('',(1.,1.15648231731787E-16,0.));
#758=DIRECTION('',(1.15648231731787E-16,-1.,0.));
#759=DIRECTION('',(1.,0.,0.));
#760=DIRECTION('',(0.,0.,-1.));
#761=DIRECTION('',(0.995719831250739,-2.07275828011958E-16,-0.0924230363816318));
#762=DIRECTION('',(0.,4.62592926927148E-16,1.));
#763=DIRECTION('',(1.,0.,0.));
#764=DIRECTION('',(0.,1.,0.));
#765=DIRECTION('',(-1.,0.,0.));
#766=DIRECTION('',(0.,0.,1.));
#767=DIRECTION('',(-0.707106781186547,-0.707106781186548,0.));
#768=DIRECTION('',(0.,0.,-1.));
#769=DIRECTION('',(0.,0.,-1.));
#770=DIRECTION('',(-0.69810013612954,0.716000139620041,0.));
#771=DIRECTION('',(-0.716000139620041,-0.69810013612954,0.));
#772=DIRECTION('',(0.,0.,-1.));
#773=DIRECTION('',(0.537287700050539,0.523855507549276,-0.660982098535726));
#774=DIRECTION('',(0.69810013612954,-0.716000139620041,0.));
#775=DIRECTION('',(0.716000139620041,0.69810013612954,0.));
#776=DIRECTION('',(-0.682912123050164,-0.665839319973909,-0.300481334142073));
#777=DIRECTION('',(-1.19636101791504E-16,1.,0.));
#778=DIRECTION('',(-1.,-1.19636101791504E-16,0.));
#779=DIRECTION('',(-0.915315032422766,-1.09504722390224E-16,-0.402738614266017));
#780=DIRECTION('',(0.,0.,-1.));
#781=DIRECTION('',(0.,0.,-1.));
#782=DIRECTION('',(-1.,-1.19636101791504E-16,0.));
#783=DIRECTION('',(1.,0.,0.));
#784=DIRECTION('',(0.,0.,1.));
#785=DIRECTION('',(0.402738614266017,1.24757165866005E-16,-0.915315032422766));
#786=DIRECTION('',(0.915315032422766,-5.48931529810422E-17,0.402738614266017));
#787=DIRECTION('',(1.,0.,0.));
#788=DIRECTION('',(0.,0.,1.));
#789=DIRECTION('',(1.,0.,0.));
#790=DIRECTION('',(0.,0.,-1.));
#791=DIRECTION('',(1.,0.,0.));
#792=DIRECTION('',(0.,0.,-1.));
#793=DIRECTION('',(0.,4.62592926927148E-16,1.));
#794=DIRECTION('',(0.995719831250739,-3.45459713353264E-16,-0.0924230363816325));
#795=DIRECTION('',(1.,0.,0.));
#796=DIRECTION('',(0.,1.,0.));
#797=DIRECTION('',(0.,1.,3.46944695195362E-16));
#798=DIRECTION('',(3.09772049281573E-16,-1.,0.));
#799=DIRECTION('',(0.,0.,1.));
#800=DIRECTION('',(-1.,0.,0.));
#801=DIRECTION('',(0.402738614266017,1.24757165866005E-16,-0.915315032422766));
#802=DIRECTION('',(0.915315032422766,2.8353901333183E-16,0.402738614266017));
#803=DIRECTION('',(-0.402738614266017,-1.24757165866005E-16,0.915315032422766));
#804=DIRECTION('',(-0.915315032422766,0.,-0.402738614266017));
#805=DIRECTION('',(0.402738614266017,1.24757165866005E-16,-0.915315032422766));
#806=DIRECTION('',(0.915315032422766,-5.48931529810422E-17,0.402738614266017));
#807=DIRECTION('',(1.,0.,0.));
#808=DIRECTION('',(0.,0.,1.));
#809=DIRECTION('',(1.,0.,0.));
#810=DIRECTION('',(0.,0.,1.));
#811=DIRECTION('',(1.,0.,0.));
#812=DIRECTION('',(0.,1.,0.));
#813=DIRECTION('',(-1.,-1.15648231731787E-16,0.));
#814=DIRECTION('',(1.15648231731787E-16,-1.,0.));
#815=DIRECTION('',(-1.,4.56506177888634E-17,0.));
#816=DIRECTION('',(-4.56506177888634E-17,-1.,0.));
#817=DIRECTION('',(0.,0.,-1.));
#818=DIRECTION('',(0.,1.,0.));
#819=DIRECTION('',(0.,0.,1.));
#820=DIRECTION('',(0.630762145021715,0.,-0.775976234434796));
#821=DIRECTION('',(1.,0.,0.));
#822=DIRECTION('',(0.,0.,-1.));
#823=DIRECTION('',(0.,0.,-1.));
#824=DIRECTION('',(1.,0.,0.));
#825=DIRECTION('',(4.56506177888634E-17,1.,0.));
#826=DIRECTION('',(3.18622679261046E-16,-1.,0.));
#827=DIRECTION('',(-0.766298897742137,-0.340358933215149,-0.544923660616633));
#828=DIRECTION('',(-0.903136298373593,-0.260648695657812,-0.341184823830026));
#829=DIRECTION('',(-0.903136298373579,0.26064869565787,-0.341184823830018));
#830=DIRECTION('',(-0.903136298373579,0.26064869565787,-0.341184823830018));
#831=DIRECTION('',(-0.766298897742101,0.34035893321528,-0.544923660616602));
#832=DIRECTION('',(-0.775976234434796,0.,-0.630762145021715));
#833=DIRECTION('',(-0.630762145021715,0.,0.775976234434796));
#834=CARTESIAN_POINT('',(0.,0.,0.));
#835=CARTESIAN_POINT('',(-0.00192660550458716,-6.1386020775064E-19,0.00642201834862387));
#836=CARTESIAN_POINT('',(0.01,0.019,0.01));
#837=CARTESIAN_POINT('',(0.01,0.019,0.01));
#838=CARTESIAN_POINT('',(0.0250305180454979,0.019,0.0145091554136494));
#839=CARTESIAN_POINT('',(0.01,0.0055,0.01));
#840=CARTESIAN_POINT('',(0.01,0.03,0.01));
#841=CARTESIAN_POINT('',(0.01,0.0055,0.01));
#842=CARTESIAN_POINT('',(0.01,0.0348598153212888,0.01));
#843=CARTESIAN_POINT('',(0.05,0.02,0.022));
#844=CARTESIAN_POINT('',(0.0429876829706105,0.0212304640543447,0.0198963048911831));
#845=CARTESIAN_POINT('',(0.0295064020373678,0.0259449421525353,0.0158519206112104));
#846=CARTESIAN_POINT('',(0.0165070106217834,0.0319031330290528,0.011952103186535));
#847=CARTESIAN_POINT('',(0.01,0.0348598153212888,0.01));
#848=CARTESIAN_POINT('',(0.05,0.02,0.022));
#849=CARTESIAN_POINT('',(0.01,-0.019,0.01));
#850=CARTESIAN_POINT('',(0.0409840089540493,0.011209408730198,0.0192952026862148));
#851=CARTESIAN_POINT('',(0.0433333333333333,0.0105,0.02));
#852=CARTESIAN_POINT('',(0.0400610360909958,0.0103095101887209,0.0190183108272987));
#853=CARTESIAN_POINT('',(0.01,-0.019,0.01));
#854=CARTESIAN_POINT('',(0.0250305180454979,-0.00434524490563955,0.0145091554136494));
#855=CARTESIAN_POINT('',(0.0250305180454979,0.0336567550943604,0.0145091554136494));
#856=CARTESIAN_POINT('',(-0.023,0.,0.));
#857=CARTESIAN_POINT('',(2.000000000002E-6,-0.03,0.));
#858=CARTESIAN_POINT('',(-0.045,-0.03,0.));
#859=CARTESIAN_POINT('',(-0.05,-0.03,0.));
#860=CARTESIAN_POINT('',(-0.045,-3.35379872022183E-18,0.));
#861=CARTESIAN_POINT('',(-0.045,-0.011,0.));
#862=CARTESIAN_POINT('',(-0.023,-0.011,0.));
#863=CARTESIAN_POINT('',(-0.027,-0.011,0.));
#864=CARTESIAN_POINT('',(-0.0305,-0.0075,0.));
#865=CARTESIAN_POINT('',(-0.019,-0.019,0.));
#866=CARTESIAN_POINT('',(-0.023,-0.019,0.));
#867=CARTESIAN_POINT('',(1.17093878835357E-17,-0.019,0.));
#868=CARTESIAN_POINT('',(0.,0.,0.));
#869=CARTESIAN_POINT('',(1.82146009184487E-17,-0.04,0.));
#870=CARTESIAN_POINT('',(2.000000000002E-6,-0.04,0.));
#871=CARTESIAN_POINT('',(-0.05,-0.04,0.));
#872=CARTESIAN_POINT('',(-0.05,-0.035,0.));
#873=CARTESIAN_POINT('',(-0.0325,-0.011,0.01));
#874=CARTESIAN_POINT('',(-0.045,-0.011,0.01));
#875=CARTESIAN_POINT('',(-0.045,-0.011,0.01));
#876=CARTESIAN_POINT('',(-0.0325,-0.011,0.01));
#877=CARTESIAN_POINT('',(-0.027,-0.011,0.01));
#878=CARTESIAN_POINT('',(-0.027,-0.011,0.01));
#879=CARTESIAN_POINT('',(-0.02,0.,0.01));
#880=CARTESIAN_POINT('',(-0.0341522456740952,0.03,0.01));
#881=CARTESIAN_POINT('',(-0.0317794799038118,0.0279479324524166,0.01));
#882=CARTESIAN_POINT('',(-0.029038705819192,0.026386199894555,0.01));
#883=CARTESIAN_POINT('',(-0.0261764705882354,0.0251116128843463,0.01));
#884=CARTESIAN_POINT('',(-0.0341522456740952,0.03,0.01));
#885=CARTESIAN_POINT('',(-0.0261764705882354,0.0251116128843463,0.01));
#886=CARTESIAN_POINT('',(-0.018,0.03,0.01));
#887=CARTESIAN_POINT('',(0.0025,0.019,0.01));
#888=CARTESIAN_POINT('',(-0.005,0.019,0.01));
#889=CARTESIAN_POINT('',(-0.005,0.,0.01));
#890=CARTESIAN_POINT('',(-0.005,-0.019,0.01));
#891=CARTESIAN_POINT('',(-0.0045,-0.019,0.01));
#892=CARTESIAN_POINT('',(-0.019,-0.019,0.01));
#893=CARTESIAN_POINT('',(-0.019,-0.019,0.01));
#894=CARTESIAN_POINT('',(-0.045,-3.35379872022183E-18,0.01));
#895=CARTESIAN_POINT('',(-0.045,0.0282842712474619,0.01));
#896=CARTESIAN_POINT('',(-0.045,0.0282842712474619,0.01));
#897=CARTESIAN_POINT('',(-0.046,0.0282842712474619,0.01));
#898=CARTESIAN_POINT('',(-0.046,-3.46944695195361E-18,0.01));
#899=CARTESIAN_POINT('',(-0.046,0.0293245473654238,0.01));
#900=CARTESIAN_POINT('',(-0.0261764705882355,0.0251116128843478,0.01));
#901=CARTESIAN_POINT('',(-0.0295487592540082,0.0254920742950617,0.01));
#902=CARTESIAN_POINT('',(-0.0361732456876731,0.0268180724711916,0.01));
#903=CARTESIAN_POINT('',(-0.042730309394062,0.0284613213482676,0.01));
#904=CARTESIAN_POINT('',(-0.046,0.0293245473654237,0.01));
#905=CARTESIAN_POINT('',(-0.023,0.,0.));
#906=CARTESIAN_POINT('',(2.000000000002E-6,0.03,0.));
#907=CARTESIAN_POINT('',(-0.046,0.03,0.));
#908=CARTESIAN_POINT('',(-0.05,0.03,0.));
#909=CARTESIAN_POINT('',(-0.05,0.035,0.));
#910=CARTESIAN_POINT('',(-0.05,0.04,0.));
#911=CARTESIAN_POINT('',(2.000000000002E-6,0.04,0.));
#912=CARTESIAN_POINT('',(-6.56716302407708E-18,0.04,0.));
#913=CARTESIAN_POINT('',(0.,0.,0.));
#914=CARTESIAN_POINT('',(-3.46944253126135E-18,0.03,0.));
#915=CARTESIAN_POINT('',(-0.023,0.03,0.));
#916=CARTESIAN_POINT('',(-0.046,-3.46944695195361E-18,-0.151006758243367));
#917=CARTESIAN_POINT('',(-0.046,0.03,0.01));
#918=CARTESIAN_POINT('',(-0.046,0.03,0.00771924666265139));
#919=CARTESIAN_POINT('',(-0.046,0.03,0.00771924666265134));
#920=CARTESIAN_POINT('',(-0.046,0.029805285614431,0.00848851164292817));
#921=CARTESIAN_POINT('',(-0.046,0.0295800650399903,0.00924874211460349));
#922=CARTESIAN_POINT('',(-0.046,0.0293245473654238,0.01));
#923=CARTESIAN_POINT('',(-0.046,0.,0.));
#924=CARTESIAN_POINT('',(-0.018,0.03,0.01));
#925=CARTESIAN_POINT('',(-0.0431145175387698,0.03,0.00360118226313146));
#926=CARTESIAN_POINT('',(-0.0397947510406981,0.03,0.00522620784573102));
#927=CARTESIAN_POINT('',(-0.0367565009545737,0.03,0.00737632962784908));
#928=CARTESIAN_POINT('',(-0.0341522456740952,0.03,0.01));
#929=CARTESIAN_POINT('',(-0.0431145175387615,0.0299999999999976,0.00360118226313458));
#930=CARTESIAN_POINT('',(-0.046,0.03,0.00771924666265139));
#931=CARTESIAN_POINT('',(-0.0448129747162933,0.03,0.00650435215032533));
#932=CARTESIAN_POINT('',(-0.0437578180475692,0.03,0.00519705874890813));
#933=CARTESIAN_POINT('',(-0.0431145175387606,0.03,0.00360118226313498));
#934=CARTESIAN_POINT('',(0.005,0.03,0.005));
#935=CARTESIAN_POINT('',(0.005,0.055,0.005));
#936=CARTESIAN_POINT('',(-2.08166817117217E-17,0.04,0.));
#937=CARTESIAN_POINT('',(0.00342190696692077,0.0386312372132317,0.0034219069669208));
#938=CARTESIAN_POINT('',(0.00674234463377009,0.0368676664325337,0.00674234463377009));
#939=CARTESIAN_POINT('',(0.01,0.0348598153212888,0.01));
#940=CARTESIAN_POINT('',(-0.05,0.,-0.02));
#941=CARTESIAN_POINT('',(-0.05,0.0354871773792359,0.00100000000000006));
#942=CARTESIAN_POINT('',(-0.05,0.038987177379238,0.00100000000000011));
#943=CARTESIAN_POINT('',(-0.05,0.0319871773792358,0.00100000000000006));
#944=CARTESIAN_POINT('',(-0.05,4.30211422042248E-15,0.));
#945=CARTESIAN_POINT('',(-0.05,-0.0389871773792337,0.000999999999999945));
#946=CARTESIAN_POINT('',(-0.05,-0.0354871773792358,0.001));
#947=CARTESIAN_POINT('',(-0.05,-0.0319871773792358,0.001));
#948=CARTESIAN_POINT('',(-0.05,3.12944115066216E-15,0.));
#949=CARTESIAN_POINT('',(-0.05,0.,0.));
#950=CARTESIAN_POINT('',(-0.05,0.,0.));
#951=CARTESIAN_POINT('',(-0.045998,0.,0.));
#952=CARTESIAN_POINT('',(-0.045,1.15648231731787E-19,0.));
#953=CARTESIAN_POINT('',(-0.000300001251001589,0.0401200005004006,0.));
#954=CARTESIAN_POINT('',(0.0164666658326656,0.0334133336669338,0.));
#955=CARTESIAN_POINT('',(0.0332333329163328,0.0267066668334669,0.));
#956=CARTESIAN_POINT('',(0.05,0.02,0.));
#957=CARTESIAN_POINT('',(-0.000300001251001589,0.0401200005004006,0.0069932059451147));
#958=CARTESIAN_POINT('',(0.0164666658326656,0.0334133336669338,0.0063288039634098));
#959=CARTESIAN_POINT('',(0.0332333329163328,0.0267066668334669,0.0056644019817049));
#960=CARTESIAN_POINT('',(0.05,0.02,0.005));
#961=CARTESIAN_POINT('',(-0.000300001251001589,0.0382404651569536,0.0139777262308638));
#962=CARTESIAN_POINT('',(0.0164666658326656,0.0321603101046357,0.0126518174872425));
#963=CARTESIAN_POINT('',(0.0332333329163328,0.0260801550523179,0.0113259087436213));
#964=CARTESIAN_POINT('',(0.05,0.02,0.01));
#965=CARTESIAN_POINT('',(-0.000300001251001589,0.0312172600722554,0.0260822740193365));
#966=CARTESIAN_POINT('',(0.0164666658326656,0.0274781733815036,0.0240548493462243));
#967=CARTESIAN_POINT('',(0.0332333329163328,0.0237390866907518,0.0220274246731122));
#968=CARTESIAN_POINT('',(0.05,0.02,0.02));
#969=CARTESIAN_POINT('',(-0.000300001251001589,0.0260822748728193,0.0311872594543971));
#970=CARTESIAN_POINT('',(0.0164666658326656,0.0240548499152129,0.0291248396362648));
#971=CARTESIAN_POINT('',(0.0332333329163328,0.0220274249576064,0.0270624198181324));
#972=CARTESIAN_POINT('',(0.05,0.02,0.025));
#973=CARTESIAN_POINT('',(-0.000300001251001589,0.02,0.0346688623644042));
#974=CARTESIAN_POINT('',(0.0164666658326656,0.02,0.0331125749096028));
#975=CARTESIAN_POINT('',(0.0332333329163328,0.02,0.0315562874548014));
#976=CARTESIAN_POINT('',(0.05,0.02,0.03));
#977=CARTESIAN_POINT('',(0.,0.,0.));
#978=CARTESIAN_POINT('',(3.46944695195361E-18,0.02,0.0346410161513775));
#979=CARTESIAN_POINT('',(0.025,0.02,0.0323205080756888));
#980=CARTESIAN_POINT('',(0.05,0.02,0.03));
#981=CARTESIAN_POINT('',(0.05,0.02,0.015));
#982=CARTESIAN_POINT('',(0.03,0.,0.));
#983=CARTESIAN_POINT('',(0.03,0.0105,0.02));
#984=CARTESIAN_POINT('',(0.03,0.0105,0.021));
#985=CARTESIAN_POINT('',(-0.019,-0.019,0.01));
#986=CARTESIAN_POINT('',(-0.019,-0.019,0.01));
#987=CARTESIAN_POINT('',(0.0143703941044537,-0.0147388657481576,0.));
#988=CARTESIAN_POINT('',(0.01,-0.019,0.01));
#989=CARTESIAN_POINT('',(0.01,-0.019,0.033));
#990=CARTESIAN_POINT('',(0.01,-0.019,0.0044));
#991=CARTESIAN_POINT('',(0.017515259022749,-0.0116726224528198,0.0237545777068247));
#992=CARTESIAN_POINT('',(0.0402564102564103,0.0105,0.02));
#993=CARTESIAN_POINT('',(0.0130729051288927,-0.0160039174993296,0.0057520782567128));
#994=CARTESIAN_POINT('',(-0.0045,-0.019,0.01));
#995=CARTESIAN_POINT('',(-8.37801608579124E-5,-0.019,-3.68632707774819E-5));
#996=CARTESIAN_POINT('',(-0.005,-0.019,0.033));
#997=CARTESIAN_POINT('',(-0.005,-0.019,0.0111454473305927));
#998=CARTESIAN_POINT('',(-0.005,-0.019,0.033));
#999=CARTESIAN_POINT('',(-0.005,-0.019,0.033));
#1000=CARTESIAN_POINT('',(-0.0045,-0.019,0.033));
#1001=CARTESIAN_POINT('',(0.03,0.0105,0.02));
#1002=CARTESIAN_POINT('',(0.0454545454545454,0.0105,0.02));
#1003=CARTESIAN_POINT('',(0.0477272727272727,0.0105,0.021));
#1004=CARTESIAN_POINT('',(-0.05,0.,0.));
#1005=CARTESIAN_POINT('',(0.,0.,0.));
#1006=CARTESIAN_POINT('',(0.,-0.02,0.0346410161513776));
#1007=CARTESIAN_POINT('',(0.,0.,0.));
#1008=CARTESIAN_POINT('',(-0.000300002403650198,-0.02,0.0346688624713934));
#1009=CARTESIAN_POINT('',(0.0164666650642332,-0.02,0.033112574980929));
#1010=CARTESIAN_POINT('',(0.0332333325321166,-0.02,0.0315562874904645));
#1011=CARTESIAN_POINT('',(0.05,-0.02,0.03));
#1012=CARTESIAN_POINT('',(-0.000300002403650198,-0.0260822750121972,0.0311872595961808));
#1013=CARTESIAN_POINT('',(0.0164666650642332,-0.0240548500081314,0.0291248397307872));
#1014=CARTESIAN_POINT('',(0.0332333325321166,-0.0220274250040657,0.0270624198653936));
#1015=CARTESIAN_POINT('',(0.05,-0.02,0.025));
#1016=CARTESIAN_POINT('',(-0.000300002403650198,-0.0312172603293045,0.0260822741587147));
#1017=CARTESIAN_POINT('',(0.0164666650642332,-0.0274781735528697,0.0240548494391432));
#1018=CARTESIAN_POINT('',(0.0332333325321166,-0.0237390867764348,0.0220274247195716));
#1019=CARTESIAN_POINT('',(0.05,-0.02,0.02));
#1020=CARTESIAN_POINT('',(-0.000300002403650198,-0.0382404655749424,0.0139777263220153));
#1021=CARTESIAN_POINT('',(0.0164666650642332,-0.032160310383295,0.0126518175480102));
#1022=CARTESIAN_POINT('',(0.0332333325321166,-0.0260801551916475,0.0113259087740051));
#1023=CARTESIAN_POINT('',(0.05,-0.02,0.01));
#1024=CARTESIAN_POINT('',(-0.000300002403650198,-0.0401200009614601,0.00699320599078988));
#1025=CARTESIAN_POINT('',(0.0164666650642332,-0.0334133339743067,0.00632880399385992));
#1026=CARTESIAN_POINT('',(0.0332333325321166,-0.0267066669871534,0.00566440199692996));
#1027=CARTESIAN_POINT('',(0.05,-0.02,0.005));
#1028=CARTESIAN_POINT('',(-0.000300002403650198,-0.0401200009614601,1.39610552018083E-17));
#1029=CARTESIAN_POINT('',(0.0164666650642332,-0.0334133339743067,9.30737013453886E-18));
#1030=CARTESIAN_POINT('',(0.0332333325321166,-0.0267066669871534,4.65368506726943E-18));
#1031=CARTESIAN_POINT('',(0.05,-0.02,0.));
#1032=CARTESIAN_POINT('',(1.38777878078145E-17,-0.04,0.));
#1033=CARTESIAN_POINT('',(0.00417626814513133,-0.0383294927419475,0.00183755798385778));
#1034=CARTESIAN_POINT('',(0.0124488462524411,-0.0347636856464794,0.00547749235107403));
#1035=CARTESIAN_POINT('',(0.0247242074221821,-0.029050749951769,0.0108786512657601));
#1036=CARTESIAN_POINT('',(0.0370657318107958,-0.0235234307478183,0.0163089219967501));
#1037=CARTESIAN_POINT('',(0.0455703880536354,-0.0207772720845127,0.0200509707435996));
#1038=CARTESIAN_POINT('',(0.05,-0.02,0.022));
#1039=CARTESIAN_POINT('',(0.05,-0.02,0.022));
#1040=CARTESIAN_POINT('',(0.05,-0.02,0.015));
#1041=CARTESIAN_POINT('',(0.05,-0.02,0.03));
#1042=CARTESIAN_POINT('',(0.025,-0.02,0.0323205080756888));
#1043=CARTESIAN_POINT('',(0.05,0.,-0.015));
#1044=CARTESIAN_POINT('',(0.05,0.,0.03));
#1045=CARTESIAN_POINT('',(0.05,0.242059573567135,0.022));
#1046=CARTESIAN_POINT('',(-0.000300000985707246,0.02,0.0346688623397795));
#1047=CARTESIAN_POINT('',(0.0164666660095285,0.02,0.0331125748931863));
#1048=CARTESIAN_POINT('',(0.0332333330047642,0.02,0.0315562874465932));
#1049=CARTESIAN_POINT('',(0.05,0.02,0.03));
#1050=CARTESIAN_POINT('',(-0.000300000985707246,0.0139577252906881,0.0381804653563657));
#1051=CARTESIAN_POINT('',(0.0164666660095285,0.0137495946382366,0.0354536435709105));
#1052=CARTESIAN_POINT('',(0.0332333330047642,0.0135414639857851,0.0327268217854552));
#1053=CARTESIAN_POINT('',(0.05,0.0133333333333336,0.03));
#1054=CARTESIAN_POINT('',(-0.000300000985707246,0.00698320491622826,0.0400600001971414));
#1055=CARTESIAN_POINT('',(0.0164666660095285,0.0068776921663744,0.0367066667980943));
#1056=CARTESIAN_POINT('',(0.0332333330047642,0.00677217941652054,0.0333533333990471));
#1057=CARTESIAN_POINT('',(0.05,0.00666666666666667,0.03));
#1058=CARTESIAN_POINT('',(-0.000300000985707246,-0.00698320491622825,0.0400600001971414));
#1059=CARTESIAN_POINT('',(0.0164666660095285,-0.00687769216637439,0.0367066667980943));
#1060=CARTESIAN_POINT('',(0.0332333330047642,-0.00677217941652053,0.0333533333990471));
#1061=CARTESIAN_POINT('',(0.05,-0.00666666666666666,0.03));
#1062=CARTESIAN_POINT('',(-0.000300000985707246,-0.0139577252906877,0.0381804653563658));
#1063=CARTESIAN_POINT('',(0.0164666660095285,-0.0137495946382362,0.0354536435709105));
#1064=CARTESIAN_POINT('',(0.0332333330047642,-0.0135414639857847,0.0327268217854553));
#1065=CARTESIAN_POINT('',(0.05,-0.0133333333333332,0.03));
#1066=CARTESIAN_POINT('',(-0.000300000985707246,-0.02,0.0346688623397795));
#1067=CARTESIAN_POINT('',(0.0164666660095285,-0.02,0.0331125748931864));
#1068=CARTESIAN_POINT('',(0.0332333330047642,-0.02,0.0315562874465932));
#1069=CARTESIAN_POINT('',(0.05,-0.02,0.03));
#1070=CARTESIAN_POINT('',(0.0438344835364784,0.00118522979709569,0.0312309904477852));
#1071=CARTESIAN_POINT('',(0.0433328612293135,-1.88489265050734E-7,0.0313344835650343));
#1072=CARTESIAN_POINT('',(0.0438340715462675,-0.00118447584003546,0.0312310752920778));
#1073=CARTESIAN_POINT('',(0.0449987701430848,-0.00165758887597185,0.0309964413575631));
#1074=CARTESIAN_POINT('',(0.0461659156766961,-0.0011851673045971,0.0307658109837606));
#1075=CARTESIAN_POINT('',(0.0466665942741579,-4.46123161296891E-7,0.0306671827460612));
#1076=CARTESIAN_POINT('',(0.0461677064506966,0.0011832144761304,0.0307654581849699));
#1077=CARTESIAN_POINT('',(0.0450000918921053,0.001657888840845,0.0309961774127949));
#1078=CARTESIAN_POINT('',(0.0438344835364784,0.00118522979709569,0.0312309904477852));
#1079=CARTESIAN_POINT('',(0.0433328612293135,-1.88489265050734E-7,0.0313344835650343));
#1080=CARTESIAN_POINT('',(0.0438340715462675,-0.00118447584003546,0.0312310752920778));
#1081=CARTESIAN_POINT('',(0.0435,5.20417042793042E-18,0.0313));
#1082=CARTESIAN_POINT('',(0.045,4.09184768075549E-18,-0.153701304405954));
#1083=CARTESIAN_POINT('',(0.045,4.09184768075549E-18,0.0198));
#1084=CARTESIAN_POINT('',(0.0465,4.55650575467785E-18,0.02046));
#1085=CARTESIAN_POINT('',(0.025,0.242059573567135,0.011));
#1086=CARTESIAN_POINT('',(0.0454545454545454,-0.0105,0.02));
#1087=CARTESIAN_POINT('',(0.0477272727272727,-0.0105,0.021));
#1088=CARTESIAN_POINT('',(0.03,-0.0105,0.02));
#1089=CARTESIAN_POINT('',(0.03,-0.0105,0.02));
#1090=CARTESIAN_POINT('',(0.03,-0.0105,0.021));
#1091=CARTESIAN_POINT('',(0.03,0.,0.));
#1092=CARTESIAN_POINT('',(-0.045,-3.35379872022183E-18,-0.151006758243367));
#1093=CARTESIAN_POINT('',(-0.005,0.,0.033));
#1094=CARTESIAN_POINT('',(-0.005,0.019,0.033));
#1095=CARTESIAN_POINT('',(-0.005,0.019,0.0111454473305931));
#1096=CARTESIAN_POINT('',(-0.005,0.019,0.0111454473305931));
#1097=CARTESIAN_POINT('',(-0.005,0.0174899929047941,0.0117612850189594));
#1098=CARTESIAN_POINT('',(-0.00499999999999995,0.014379352781727,0.0127708876560633));
#1099=CARTESIAN_POINT('',(-0.00500000000000005,0.0096460805485917,0.0137046345991205));
#1100=CARTESIAN_POINT('',(-0.00499999999999999,0.00485423611012224,0.014211996289761));
#1101=CARTESIAN_POINT('',(-0.005,4.50231155938223E-6,0.0143729467367038));
#1102=CARTESIAN_POINT('',(-0.00500000000000002,-0.00484642202192936,0.0142125392323464));
#1103=CARTESIAN_POINT('',(-0.005,-0.00964038652314322,0.0137056451761597));
#1104=CARTESIAN_POINT('',(-0.005,-0.0143807809437198,0.0127707169218895));
#1105=CARTESIAN_POINT('',(-0.005,-0.0174910396802102,0.0117608581045727));
#1106=CARTESIAN_POINT('',(-0.005,-0.019,0.0111454473305927));
#1107=CARTESIAN_POINT('',(0.0025,0.019,0.033));
#1108=CARTESIAN_POINT('',(0.017515259022749,0.019,0.0237545777068247));
#1109=CARTESIAN_POINT('',(0.01,0.019,0.033));
#1110=CARTESIAN_POINT('',(0.0025,0.019,0.033));
#1111=CARTESIAN_POINT('',(-0.005,0.019,0.033));
#1112=CARTESIAN_POINT('',(-0.005,0.019,0.033));
#1113=CARTESIAN_POINT('',(-0.018,0.0055,0.033));
#1114=CARTESIAN_POINT('',(-0.005,0.,0.033));
#1115=CARTESIAN_POINT('',(0.01,0.0055,0.033));
#1116=CARTESIAN_POINT('',(-0.005,-0.019,0.0110143200145762));
#1117=CARTESIAN_POINT('',(-0.05,-0.0287271933860381,0.001));
#1118=CARTESIAN_POINT('',(-0.005,-0.019,0.0133428800097175));
#1119=CARTESIAN_POINT('',(-0.05,-0.0298138547171041,0.001));
#1120=CARTESIAN_POINT('',(-0.005,-0.019,0.0156714400048587));
#1121=CARTESIAN_POINT('',(-0.05,-0.03090051604817,0.001));
#1122=CARTESIAN_POINT('',(-0.005,-0.019,0.018));
#1123=CARTESIAN_POINT('',(-0.05,-0.0319871773792358,0.001));
#1124=CARTESIAN_POINT('',(-0.005,-0.019,0.023));
#1125=CARTESIAN_POINT('',(-0.05,-0.0343205107125692,0.001));
#1126=CARTESIAN_POINT('',(-0.005,-0.019,0.028));
#1127=CARTESIAN_POINT('',(-0.05,-0.0366538440459025,0.001));
#1128=CARTESIAN_POINT('',(-0.005,-0.019,0.033));
#1129=CARTESIAN_POINT('',(-0.05,-0.0389871773792358,0.001));
#1130=CARTESIAN_POINT('',(-0.0275,-0.0289935886896157,0.017));
#1131=CARTESIAN_POINT('',(-0.005,-0.019,0.0111454473305927));
#1132=CARTESIAN_POINT('',(-0.005,-0.019,0.0119274628919162));
#1133=CARTESIAN_POINT('',(-0.00531433571699332,-0.0190677535529136,0.0134782513734663));
#1134=CARTESIAN_POINT('',(-0.00678283780230936,-0.0194613780783131,0.0153340683943228));
#1135=CARTESIAN_POINT('',(-0.00896025702723164,-0.0201167195208166,0.0161569163087479));
#1136=CARTESIAN_POINT('',(-0.0104653494791925,-0.0205773214027955,0.0159353124189716));
#1137=CARTESIAN_POINT('',(-0.0111723196233395,-0.0207813557731033,0.0156682348089607));
#1138=CARTESIAN_POINT('',(-0.0111723196233396,-0.0207813557731029,0.0156682348089606));
#1139=CARTESIAN_POINT('',(-0.0275,-0.0254935886896163,0.0095));
#1140=CARTESIAN_POINT('',(-0.00826548221221145,0.0199424310381942,0.0167663733864979));
#1141=CARTESIAN_POINT('',(-0.0222599643643838,0.0239812937502133,0.0114795690178995));
#1142=CARTESIAN_POINT('',(-0.0362544465165562,0.0280201564622323,0.00619276464930108));
#1143=CARTESIAN_POINT('',(-0.0502489286687286,0.0320590191742514,0.000905960280702672));
#1144=CARTESIAN_POINT('',(-0.00826548221221145,0.0184646843812697,0.017064171447219));
#1145=CARTESIAN_POINT('',(-0.0222599643643838,0.0229560471415162,0.0130536042083556));
#1146=CARTESIAN_POINT('',(-0.0362544465165562,0.0274474099017627,0.00904303696949214));
#1147=CARTESIAN_POINT('',(-0.0502489286687286,0.0319387726620093,0.0050324697306287));
#1148=CARTESIAN_POINT('',(-0.00826548221221145,0.0169289349701607,0.0173600475470518));
#1149=CARTESIAN_POINT('',(-0.0222599643643838,0.0216242223905408,0.0146174807226078));
#1150=CARTESIAN_POINT('',(-0.0362544465165562,0.0263195098109209,0.0118749138981639));
#1151=CARTESIAN_POINT('',(-0.0502489286687286,0.031014797231301,0.00913234707371991));
#1152=CARTESIAN_POINT('',(-0.00826548221221145,0.0137511853854427,0.0179050793554719));
#1153=CARTESIAN_POINT('',(-0.0222599643643838,0.018398976084425,0.0174982894300042));
#1154=CARTESIAN_POINT('',(-0.0362544465165562,0.0230467667834073,0.0170914995045365));
#1155=CARTESIAN_POINT('',(-0.0502489286687286,0.0276945574823896,0.0166847095790688));
#1156=CARTESIAN_POINT('',(-0.00826548221221145,0.0121092726973721,0.0181540369286611));
#1157=CARTESIAN_POINT('',(-0.0222599643643838,0.0165060169410129,0.0188141743628393));
#1158=CARTESIAN_POINT('',(-0.0362544465165562,0.0209027611846536,0.0194743117970174));
#1159=CARTESIAN_POINT('',(-0.0502489286687286,0.0252995054282944,0.0201344492311956));
#1160=CARTESIAN_POINT('',(-0.00826548221221145,0.00874451122357487,0.0185687571144698));
#1161=CARTESIAN_POINT('',(-0.0222599643643838,0.0122923045121438,0.0210062106879738));
#1162=CARTESIAN_POINT('',(-0.0362544465165562,0.0158400978007128,0.0234436642614778));
#1163=CARTESIAN_POINT('',(-0.0502489286687286,0.0193878910892818,0.0258811178349818));
#1164=CARTESIAN_POINT('',(-0.00826548221221145,0.00702181783475045,0.0187343691123672));
#1165=CARTESIAN_POINT('',(-0.0222599643643838,0.00997237258929745,0.0218815659942541));
#1166=CARTESIAN_POINT('',(-0.0362544465165562,0.0129229273438445,0.0250287628761411));
#1167=CARTESIAN_POINT('',(-0.0502489286687286,0.0158734820983915,0.028175959758028));
#1168=CARTESIAN_POINT('',(-0.00826548221221145,0.00353265198078423,0.0189580968484837));
#1169=CARTESIAN_POINT('',(-0.0222599643643838,0.00510111097505536,0.0230640966288585));
#1170=CARTESIAN_POINT('',(-0.0362544465165562,0.00666956996932649,0.0271700964092333));
#1171=CARTESIAN_POINT('',(-0.0502489286687286,0.00823802896359762,0.0312760961896081));
#1172=CARTESIAN_POINT('',(-0.00826548221221145,0.00176638009272103,0.0190161313350736));
#1173=CARTESIAN_POINT('',(-0.0222599643643838,0.00255084144966387,0.0233708424952734));
#1174=CARTESIAN_POINT('',(-0.0362544465165562,0.00333530280660671,0.0277255536554731));
#1175=CARTESIAN_POINT('',(-0.0502489286687286,0.00411976416354955,0.0320802648156728));
#1176=CARTESIAN_POINT('',(-0.00826548221221145,-0.00176638009272059,0.0190161313350736));
#1177=CARTESIAN_POINT('',(-0.0222599643643838,-0.00255084144966155,0.0233708424952734));
#1178=CARTESIAN_POINT('',(-0.0362544465165562,-0.00333530280660252,0.0277255536554731));
#1179=CARTESIAN_POINT('',(-0.0502489286687286,-0.00411976416354349,0.0320802648156728));
#1180=CARTESIAN_POINT('',(-0.00826548221221145,-0.00353265198078379,0.0189580968484837));
#1181=CARTESIAN_POINT('',(-0.0222599643643838,-0.00510111097505304,0.0230640966288585));
#1182=CARTESIAN_POINT('',(-0.0362544465165562,-0.00666956996932229,0.0271700964092333));
#1183=CARTESIAN_POINT('',(-0.0502489286687286,-0.00823802896359154,0.0312760961896081));
#1184=CARTESIAN_POINT('',(-0.00826548221221145,-0.00702181783475001,0.0187343691123672));
#1185=CARTESIAN_POINT('',(-0.0222599643643838,-0.00997237258929514,0.0218815659942541));
#1186=CARTESIAN_POINT('',(-0.0362544465165562,-0.0129229273438403,0.025028762876141));
#1187=CARTESIAN_POINT('',(-0.0502489286687286,-0.0158734820983854,0.0281759597580278));
#1188=CARTESIAN_POINT('',(-0.00826548221221145,-0.00874451122357442,0.0185687571144698));
#1189=CARTESIAN_POINT('',(-0.0222599643643838,-0.0122923045121415,0.0210062106879737));
#1190=CARTESIAN_POINT('',(-0.0362544465165562,-0.0158400978007085,0.0234436642614777));
#1191=CARTESIAN_POINT('',(-0.0502489286687286,-0.0193878910892756,0.0258811178349816));
#1192=CARTESIAN_POINT('',(-0.00826548221221145,-0.0121092726973717,0.0181540369286611));
#1193=CARTESIAN_POINT('',(-0.0222599643643838,-0.0165060169410106,0.0188141743628392));
#1194=CARTESIAN_POINT('',(-0.0362544465165562,-0.0209027611846495,0.0194743117970173));
#1195=CARTESIAN_POINT('',(-0.0502489286687286,-0.0252995054282884,0.0201344492311954));
#1196=CARTESIAN_POINT('',(-0.00826548221221145,-0.0137511853854422,0.0179050793554719));
#1197=CARTESIAN_POINT('',(-0.0222599643643838,-0.0183989760844226,0.0174982894300041));
#1198=CARTESIAN_POINT('',(-0.0362544465165562,-0.023046766783403,0.0170914995045364));
#1199=CARTESIAN_POINT('',(-0.0502489286687286,-0.0276945574823834,0.0166847095790686));
#1200=CARTESIAN_POINT('',(-0.00826548221221145,-0.0169289349701603,0.0173600475470517));
#1201=CARTESIAN_POINT('',(-0.0222599643643838,-0.0216242223905384,0.0146174807226077));
#1202=CARTESIAN_POINT('',(-0.0362544465165562,-0.0263195098109166,0.0118749138981637));
#1203=CARTESIAN_POINT('',(-0.0502489286687286,-0.0310147972312948,0.00913234707371965));
#1204=CARTESIAN_POINT('',(-0.00826548221221145,-0.0184646843812693,0.017064171447219));
#1205=CARTESIAN_POINT('',(-0.0222599643643838,-0.0229560471415138,0.0130536042083554));
#1206=CARTESIAN_POINT('',(-0.0362544465165562,-0.0274474099017584,0.00904303696949183));
#1207=CARTESIAN_POINT('',(-0.0502489286687286,-0.0319387726620029,0.00503246973062824));
#1208=CARTESIAN_POINT('',(-0.00826548221221145,-0.0199424310381938,0.0167663733864979));
#1209=CARTESIAN_POINT('',(-0.0222599643643838,-0.0239812937502109,0.0114795690178994));
#1210=CARTESIAN_POINT('',(-0.0362544465165562,-0.028020156462228,0.00619276464930092));
#1211=CARTESIAN_POINT('',(-0.0502489286687286,-0.0320590191742451,0.000905960280702435));
#1212=CARTESIAN_POINT('',(-0.0111723196233396,-0.0207813557731029,0.0156682348089606));
#1213=CARTESIAN_POINT('',(-0.0107825512901448,-0.0191824995989227,0.0164201103386444));
#1214=CARTESIAN_POINT('',(-0.0100356200885267,-0.0158100864653339,0.0176057279405712));
#1215=CARTESIAN_POINT('',(-0.00917674513796876,-0.0106326852940409,0.0185675379211188));
#1216=CARTESIAN_POINT('',(-0.00863720786808053,-0.00536068048841315,0.0190115031040582));
#1217=CARTESIAN_POINT('',(-0.00845276948052763,7.35444025666296E-6,0.0191347717836364));
#1218=CARTESIAN_POINT('',(-0.0086380916339419,0.00537315908285148,0.0190109284735148));
#1219=CARTESIAN_POINT('',(-0.00917825489647345,0.010642100493459,0.0185658883527127));
#1220=CARTESIAN_POINT('',(-0.0100347370111169,0.01580505920341,0.0176068233762713));
#1221=CARTESIAN_POINT('',(-0.0107825512929834,0.0191824995980507,0.0164201103382603));
#1222=CARTESIAN_POINT('',(-0.0111723196233393,0.0207813557731036,0.0156682348089607));
#1223=CARTESIAN_POINT('',(-0.0111723196233393,0.0207813557731032,0.0156682348089607));
#1224=CARTESIAN_POINT('',(-0.0275,0.0254935886896179,0.0095));
#1225=CARTESIAN_POINT('',(-0.0275,0.0254935886896179,0.0095));
#1226=CARTESIAN_POINT('',(-0.005,0.019,0.033));
#1227=CARTESIAN_POINT('',(-0.05,0.0389871773792358,0.00100000000000006));
#1228=CARTESIAN_POINT('',(-0.005,0.019,0.028));
#1229=CARTESIAN_POINT('',(-0.05,0.0366538440459026,0.00100000000000006));
#1230=CARTESIAN_POINT('',(-0.005,0.019,0.023));
#1231=CARTESIAN_POINT('',(-0.05,0.0343205107125692,0.00100000000000006));
#1232=CARTESIAN_POINT('',(-0.005,0.019,0.018));
#1233=CARTESIAN_POINT('',(-0.05,0.0319871773792358,0.00100000000000006));
#1234=CARTESIAN_POINT('',(-0.005,0.019,0.0156714400048589));
#1235=CARTESIAN_POINT('',(-0.05,0.03090051604817,0.00100000000000006));
#1236=CARTESIAN_POINT('',(-0.005,0.019,0.0133428800097178));
#1237=CARTESIAN_POINT('',(-0.05,0.0298138547171042,0.00100000000000006));
#1238=CARTESIAN_POINT('',(-0.005,0.019,0.0110143200145766));
#1239=CARTESIAN_POINT('',(-0.05,0.0287271933860383,0.00100000000000006));
#1240=CARTESIAN_POINT('',(-0.0111723196233391,0.0207813557731036,0.0156682348089607));
#1241=CARTESIAN_POINT('',(-0.0104659036199693,0.0205774813300082,0.0159351030769004));
#1242=CARTESIAN_POINT('',(-0.00896575822017477,0.0201184852007098,0.0161542001752007));
#1243=CARTESIAN_POINT('',(-0.00680191233289816,0.0194668584051693,0.0153480782330208));
#1244=CARTESIAN_POINT('',(-0.00531369798726619,0.0190674131697749,0.0134843902800739));
#1245=CARTESIAN_POINT('',(-0.005,0.019,0.0119280774307344));
#1246=CARTESIAN_POINT('',(-0.005,0.019,0.0111454473305931));
#1247=CARTESIAN_POINT('',(-0.0275,0.02899358868962,0.017));
#1248=CARTESIAN_POINT('',(-0.005,-0.019,0.033));
#1249=CARTESIAN_POINT('',(-0.0200900033197412,-0.0257023682889969,0.0222693309726284));
#1250=CARTESIAN_POINT('',(-0.0351800066394825,-0.0324047365779938,0.0115386619452568));
#1251=CARTESIAN_POINT('',(-0.0502700099592237,-0.0391071048669907,0.000807992917885268));
#1252=CARTESIAN_POINT('',(-0.005,-0.0174166666666666,0.033));
#1253=CARTESIAN_POINT('',(-0.0200900033197412,-0.0246068010507708,0.0239527374911044));
#1254=CARTESIAN_POINT('',(-0.0351800066394825,-0.0317969354348751,0.0149054749822089));
#1255=CARTESIAN_POINT('',(-0.0502700099592237,-0.0389870698189793,0.0058582124733133));
#1256=CARTESIAN_POINT('',(-0.005,-0.0158333333333333,0.033));
#1257=CARTESIAN_POINT('',(-0.0200900033197412,-0.0231821270146717,0.0256270796589537));
#1258=CARTESIAN_POINT('',(-0.0351800066394825,-0.0305309206960102,0.0182541593179073));
#1259=CARTESIAN_POINT('',(-0.0502700099592237,-0.0378797143773486,0.010881238976861));
#1260=CARTESIAN_POINT('',(-0.005,-0.0126666666666666,0.033));
#1261=CARTESIAN_POINT('',(-0.0200900033197412,-0.0197289009903375,0.0287132681103467));
#1262=CARTESIAN_POINT('',(-0.0351800066394825,-0.0267911353140085,0.0244265362206933));
#1263=CARTESIAN_POINT('',(-0.0502700099592237,-0.0338533696376794,0.02013980433104));
#1264=CARTESIAN_POINT('',(-0.005,-0.0110833333333333,0.033));
#1265=CARTESIAN_POINT('',(-0.0200900033197412,-0.0177008458990265,0.0301239760943268));
#1266=CARTESIAN_POINT('',(-0.0351800066394825,-0.0243183584647196,0.0272479521886536));
#1267=CARTESIAN_POINT('',(-0.0502700099592237,-0.0309358710304128,0.0243719282829804));
#1268=CARTESIAN_POINT('',(-0.005,-0.00791666666666667,0.033));
#1269=CARTESIAN_POINT('',(-0.0200900033197412,-0.0131842520947775,0.032474723802776));
#1270=CARTESIAN_POINT('',(-0.0351800066394825,-0.0184518375228884,0.0319494476055519));
#1271=CARTESIAN_POINT('',(-0.0502700099592237,-0.0237194229509992,0.0314241714083279));
#1272=CARTESIAN_POINT('',(-0.005,-0.00633333333333333,0.033));
#1273=CARTESIAN_POINT('',(-0.0200900033197412,-0.0106966020734388,0.0334138973378197));
#1274=CARTESIAN_POINT('',(-0.0351800066394825,-0.0150598708135443,0.0338277946756393));
#1275=CARTESIAN_POINT('',(-0.0502700099592237,-0.0194231395536498,0.034241692013459));
#1276=CARTESIAN_POINT('',(-0.005,-0.00316666666666667,0.033));
#1277=CARTESIAN_POINT('',(-0.0200900033197412,-0.00547207516875005,0.0346827694309394));
#1278=CARTESIAN_POINT('',(-0.0351800066394825,-0.00777748367083344,0.0363655388618789));
#1279=CARTESIAN_POINT('',(-0.0502700099592237,-0.0100828921729168,0.0380483082928183));
#1280=CARTESIAN_POINT('',(-0.005,-0.00158333333333333,0.033));
#1281=CARTESIAN_POINT('',(-0.0200900033197412,-0.00273634783194473,0.0350120004426322));
#1282=CARTESIAN_POINT('',(-0.0351800066394825,-0.00388936233055613,0.0370240008852643));
#1283=CARTESIAN_POINT('',(-0.0502700099592237,-0.00504237682916753,0.0390360013278965));
#1284=CARTESIAN_POINT('',(-0.005,0.00158333333333333,0.033));
#1285=CARTESIAN_POINT('',(-0.0200900033197412,0.00273634783194752,0.0350120004426322));
#1286=CARTESIAN_POINT('',(-0.0351800066394825,0.00388936233056172,0.0370240008852643));
#1287=CARTESIAN_POINT('',(-0.0502700099592237,0.00504237682917591,0.0390360013278965));
#1288=CARTESIAN_POINT('',(-0.005,0.00316666666666666,0.033));
#1289=CARTESIAN_POINT('',(-0.0200900033197412,0.00547207516875284,0.0346827694309395));
#1290=CARTESIAN_POINT('',(-0.0351800066394825,0.00777748367083902,0.0363655388618789));
#1291=CARTESIAN_POINT('',(-0.0502700099592237,0.0100828921729252,0.0380483082928184));
#1292=CARTESIAN_POINT('',(-0.005,0.00633333333333333,0.033));
#1293=CARTESIAN_POINT('',(-0.0200900033197412,0.0106966020734416,0.0334138973378197));
#1294=CARTESIAN_POINT('',(-0.0351800066394825,0.0150598708135499,0.0338277946756394));
#1295=CARTESIAN_POINT('',(-0.0502700099592237,0.0194231395536582,0.0342416920134591));
#1296=CARTESIAN_POINT('',(-0.005,0.00791666666666667,0.033));
#1297=CARTESIAN_POINT('',(-0.0200900033197412,0.0131842520947803,0.032474723802776));
#1298=CARTESIAN_POINT('',(-0.0351800066394825,0.0184518375228939,0.0319494476055521));
#1299=CARTESIAN_POINT('',(-0.0502700099592237,0.0237194229510076,0.0314241714083281));
#1300=CARTESIAN_POINT('',(-0.005,0.0110833333333333,0.033));
#1301=CARTESIAN_POINT('',(-0.0200900033197412,0.0177008458990293,0.0301239760943269));
#1302=CARTESIAN_POINT('',(-0.0351800066394825,0.0243183584647254,0.0272479521886537));
#1303=CARTESIAN_POINT('',(-0.0502700099592237,0.0309358710304214,0.0243719282829806));
#1304=CARTESIAN_POINT('',(-0.005,0.0126666666666666,0.033));
#1305=CARTESIAN_POINT('',(-0.0200900033197412,0.0197289009903404,0.0287132681103467));
#1306=CARTESIAN_POINT('',(-0.0351800066394825,0.0267911353140142,0.0244265362206934));
#1307=CARTESIAN_POINT('',(-0.0502700099592237,0.0338533696376879,0.0201398043310402));
#1308=CARTESIAN_POINT('',(-0.005,0.0158333333333333,0.033));
#1309=CARTESIAN_POINT('',(-0.0200900033197412,0.0231821270146746,0.0256270796589538));
#1310=CARTESIAN_POINT('',(-0.0351800066394825,0.0305309206960158,0.0182541593179076));
#1311=CARTESIAN_POINT('',(-0.0502700099592237,0.037879714377357,0.0108812389768614));
#1312=CARTESIAN_POINT('',(-0.005,0.0174166666666666,0.033));
#1313=CARTESIAN_POINT('',(-0.0200900033197412,0.0246068010507737,0.0239527374911044));
#1314=CARTESIAN_POINT('',(-0.0351800066394825,0.0317969354348807,0.0149054749822089));
#1315=CARTESIAN_POINT('',(-0.0502700099592237,0.0389870698189878,0.00585821247331329));
#1316=CARTESIAN_POINT('',(-0.005,0.019,0.033));
#1317=CARTESIAN_POINT('',(-0.0200900033197412,0.0257023682889998,0.0222693309726285));
#1318=CARTESIAN_POINT('',(-0.0351800066394825,0.0324047365779996,0.011538661945257));
#1319=CARTESIAN_POINT('',(-0.0502700099592237,0.0391071048669994,0.000807992917885532));
#1320=CARTESIAN_POINT('',(-0.0112462740698365,0.0210622007719751,0.0155332858472448));
#1321=CARTESIAN_POINT('',(-0.00500000000000002,0.0216750841370232,0.0170195320858642));
#1322=CARTESIAN_POINT('',(-0.00500000000000002,0.0192162214362671,0.0110567736742476));
#1323=CARTESIAN_POINT('',(-0.0111414049393227,0.0206625621721442,0.0157272806900073));
#1324=CARTESIAN_POINT('',(-0.00499999999997991,0.0212066313188352,0.0170588355474828));
#1325=CARTESIAN_POINT('',(-0.00500000000000002,0.0188366538978041,0.0112132959411228));
#1326=CARTESIAN_POINT('',(-0.0109340244456163,0.0197937828280481,0.0161222710909833));
#1327=CARTESIAN_POINT('',(-0.00500000000000883,0.02019888667503,0.0171714673351226));
#1328=CARTESIAN_POINT('',(-0.00499999999999997,0.0180733724377132,0.011516571312781));
#1329=CARTESIAN_POINT('',(-0.0105355458185609,0.0180486433358235,0.016805873195311));
#1330=CARTESIAN_POINT('',(-0.00499999999999514,0.0182553083990953,0.017357418947866));
#1331=CARTESIAN_POINT('',(-0.00500000000000002,0.0165202036713428,0.0120660010050072));
#1332=CARTESIAN_POINT('',(-0.0100719533420132,0.0158187134004207,0.0175005475324093));
#1333=CARTESIAN_POINT('',(-0.00500000000000163,0.0158713745300424,0.0175529680015958));
#1334=CARTESIAN_POINT('',(-0.00500000000000005,0.0145439490398473,0.0126537879813648));
#1335=CARTESIAN_POINT('',(-0.00959451802738205,0.013155013206631,0.0180997249638094));
#1336=CARTESIAN_POINT('',(-0.0049999999999996,0.0131082277925343,0.0177215737747473));
#1337=CARTESIAN_POINT('',(-0.005,0.0121594843339216,0.0132077979367174));
#1338=CARTESIAN_POINT('',(-0.00906877997583163,0.00961516764048128,0.0186591492101733));
#1339=CARTESIAN_POINT('',(-0.00500000000000022,0.00956365121598095,0.0178770753213605));
#1340=CARTESIAN_POINT('',(-0.005,0.00895394133037872,0.0137764664541157));
#1341=CARTESIAN_POINT('',(-0.00863089084869466,0.00523719880263057,0.0190151434992313));
#1342=CARTESIAN_POINT('',(-0.00499999999999991,0.00520923176756762,0.0179777858000838));
#1343=CARTESIAN_POINT('',(-0.00499999999999999,0.00491258986496767,0.0142092657843302));
#1344=CARTESIAN_POINT('',(-0.00845621934023897,2.2804050546255E-6,0.0191327583714702));
#1345=CARTESIAN_POINT('',(-0.00500000000000004,2.26914684463279E-6,0.0180109450597581));
#1346=CARTESIAN_POINT('',(-0.005,2.14593128520951E-6,0.0143743805369264));
#1347=CARTESIAN_POINT('',(-0.00863060752101076,-0.00523358604400351,0.0190153429244873));
#1348=CARTESIAN_POINT('',(-0.00499999999999992,-0.00520564990128988,0.0179778430823645));
#1349=CARTESIAN_POINT('',(-0.00500000000000001,-0.00490922890161536,0.0142095351417684));
#1350=CARTESIAN_POINT('',(-0.00906858282858145,-0.00961400543309159,0.0186593706692916));
#1351=CARTESIAN_POINT('',(-0.00500000000000011,-0.00956257644115403,0.0178771322304943));
#1352=CARTESIAN_POINT('',(-0.00499999999999988,-0.00895289628534671,0.0137766845781148));
#1353=CARTESIAN_POINT('',(-0.00959482874946258,-0.0131570666893596,0.0180993872150801));
#1354=CARTESIAN_POINT('',(-0.0049999999999996,-0.0131103714335994,0.017721477765398));
#1355=CARTESIAN_POINT('',(-0.00500000000000002,-0.0121613440374017,0.0132074580513502));
#1356=CARTESIAN_POINT('',(-0.0100729606173127,-0.0158241569244238,0.0174992671212769));
#1357=CARTESIAN_POINT('',(-0.00500000000000173,-0.015877245772046,0.017552586852476));
#1358=CARTESIAN_POINT('',(-0.00500000000000006,-0.0145488016292546,0.0126526161779948));
#1359=CARTESIAN_POINT('',(-0.0105373678151927,-0.0180569137587315,0.0168029108584336));
#1360=CARTESIAN_POINT('',(-0.00499999999999481,-0.0182643083495344,0.0173566039033609));
#1361=CARTESIAN_POINT('',(-0.00499999999999999,-0.0165275421650518,0.0120635746701269));
#1362=CARTESIAN_POINT('',(-0.0109346791506812,-0.0197965004513046,0.0161210331993699));
#1363=CARTESIAN_POINT('',(-0.00500000000000942,-0.0202019499380505,0.0171711317067751));
#1364=CARTESIAN_POINT('',(-0.00500000000000001,-0.0180757766652039,0.0115156150308143));
#1365=CARTESIAN_POINT('',(-0.0111415298558987,-0.0206630447326265,0.0157270375698924));
#1366=CARTESIAN_POINT('',(-0.00499999999997866,-0.0212071747603479,0.017058788298988));
#1367=CARTESIAN_POINT('',(-0.00500000000000002,-0.018837114727232,0.0112131011134235));
#1368=CARTESIAN_POINT('',(-0.0112461067727616,-0.0210615632362013,0.015533595316395));
#1369=CARTESIAN_POINT('',(-0.00500000000000002,-0.0216743263894932,0.0170195956599791));
#1370=CARTESIAN_POINT('',(-0.00500000000000002,-0.0192156159214731,0.0110570233665515));
#1371=CARTESIAN_POINT('',(0.017515259022749,0.0263293775471802,0.0237545777068247));
#1372=MECHANICAL_DESIGN_GEOMETRIC_PRESENTATION_REPRESENTATION('',(#635),
#1373);
#1373=(
GEOMETRIC_REPRESENTATION_CONTEXT(3)
GLOBAL_UNCERTAINTY_ASSIGNED_CONTEXT((#1374))
GLOBAL_UNIT_ASSIGNED_CONTEXT((#1377,#1376,#1375))
REPRESENTATION_CONTEXT('Part 3','TOP_LEVEL_ASSEMBLY_PART')
);
#1374=UNCERTAINTY_MEASURE_WITH_UNIT(LENGTH_MEASURE(2.E-5),#1377,
'DISTANCE_ACCURACY_VALUE','Maximum Tolerance applied to model');
#1375=(
NAMED_UNIT(*)
SI_UNIT($,.STERADIAN.)
SOLID_ANGLE_UNIT()
);
#1376=(
NAMED_UNIT(*)
PLANE_ANGLE_UNIT()
SI_UNIT($,.RADIAN.)
);
#1377=(
LENGTH_UNIT()
NAMED_UNIT(*)
SI_UNIT($,.METRE.)
);
#1378=PRODUCT_DEFINITION_SHAPE('','',#1379);
#1379=PRODUCT_DEFINITION('','',#1381,#1380);
#1380=PRODUCT_DEFINITION_CONTEXT('',#1387,'design');
#1381=PRODUCT_DEFINITION_FORMATION_WITH_SPECIFIED_SOURCE('','',#1383,
 .NOT_KNOWN.);
#1382=PRODUCT_RELATED_PRODUCT_CATEGORY('','',(#1383));
#1383=PRODUCT('Part 3','Part 3','Part 3',(#1385));
#1384=PRODUCT_CATEGORY('','');
#1385=PRODUCT_CONTEXT('',#1387,'mechanical');
#1386=APPLICATION_PROTOCOL_DEFINITION('international standard',
'ap242_managed_model_based_3d_engineering',2020,#1387);
#1387=APPLICATION_CONTEXT('managed model based 3d engineering');
ENDSEC;
END-ISO-10303-21;
