ISO-10303-21;
HEADER;
/* Generated by software containing ST-Developer
 * from STEP Tools, Inc. (www.steptools.com) 
 */
/* OPTION: using custom renumber hook */

FILE_DESCRIPTION(
/* description */ ('STEP AP242 Edition 2',
'CAx-IF Rec.Pracs.---Representation and Presentation of Product Manufa
cturing Information (PMI)---4.0---2014-10-13',
'CAx-IF Rec.Pracs.---3D Tessellated Geometry---0.4---2014-09-14','2;1',
'CAx-IF Rec.Pracs.---User Defined Attributes---1.5---2016-08-15'),
/* implementation_level */ '2;1');

FILE_NAME(
/* name */ 'Shoulder2.0 - Part 2',
/* time_stamp */ '2026-05-19T16:29:31Z',
/* author */ (''),
/* organization */ (''),
/* preprocessor_version */ 'ST-DEVELOPER v20',
/* originating_system */ 'ONSHAPE BY PTC INC, 1.215',
/* authorisation */ '  ');

FILE_SCHEMA (('AP242_MANAGED_MODEL_BASED_3D_ENGINEERING_MIM_LF { 1 0 10303 442 3 1 4 }'));
ENDSEC;

DATA;
#10=SHAPE_REPRESENTATION_RELATIONSHIP('','',#543,#11);
#11=ADVANCED_BREP_SHAPE_REPRESENTATION('',(#541),#1139);
#12=B_SPLINE_SURFACE_WITH_KNOTS('',3,1,((#825,#826,#827),(#828,#829,#830),
(#831,#832,#833),(#834,#835,#836),(#837,#838,#839),(#840,#841,#842),(#843,
#844,#845),(#846,#847,#848),(#849,#850,#851),(#852,#853,#854),(#855,#856,
#857),(#858,#859,#860),(#861,#862,#863),(#864,#865,#866),(#867,#868,#869),
(#870,#871,#872),(#873,#874,#875),(#876,#877,#878),(#879,#880,#881),(#882,
#883,#884),(#885,#886,#887),(#888,#889,#890),(#891,#892,#893),(#894,#895,
#896),(#897,#898,#899),(#900,#901,#902),(#903,#904,#905),(#906,#907,#908)),
 .RULED_SURF.,.F.,.F.,.F.,(4,2,2,2,2,2,2,2,2,2,2,2,2,4),(2,1,2),(0.,0.0625,
0.125,0.1875,0.25,0.3125,0.375,0.4375,0.5,0.5625,0.625,0.6875,0.75,0.8048),
(-0.0060000334701497,0.,1.),.UNSPECIFIED.);
#13=B_SPLINE_SURFACE_WITH_KNOTS('',1,3,((#926,#927,#928,#929,#930,#931,
#932,#933,#934,#935,#936,#937,#938,#939,#940,#941),(#942,#943,#944,#945,
#946,#947,#948,#949,#950,#951,#952,#953,#954,#955,#956,#957),(#958,#959,
#960,#961,#962,#963,#964,#965,#966,#967,#968,#969,#970,#971,#972,#973)),
 .RULED_SURF.,.F.,.F.,.F.,(2,1,2),(4,2,2,2,2,2,2,4),(0.,1.,1.00600007901863),
(0.055324569229891,0.0555619183573357,0.0559458704338611,0.0563298225103864,
0.0570977266634371,0.0578656308164878,0.0594014391225891,0.0619538969206131),
 .UNSPECIFIED.);
#14=B_SPLINE_SURFACE_WITH_KNOTS('',3,1,((#989,#990,#991),(#992,#993,#994),
(#995,#996,#997),(#998,#999,#1000),(#1001,#1002,#1003),(#1004,#1005,#1006),
(#1007,#1008,#1009),(#1010,#1011,#1012),(#1013,#1014,#1015),(#1016,#1017,
#1018),(#1019,#1020,#1021),(#1022,#1023,#1024),(#1025,#1026,#1027),(#1028,
#1029,#1030),(#1031,#1032,#1033),(#1034,#1035,#1036),(#1037,#1038,#1039),
(#1040,#1041,#1042),(#1043,#1044,#1045),(#1046,#1047,#1048),(#1049,#1050,
#1051),(#1052,#1053,#1054),(#1055,#1056,#1057),(#1058,#1059,#1060),(#1061,
#1062,#1063),(#1064,#1065,#1066),(#1067,#1068,#1069),(#1070,#1071,#1072)),
 .RULED_SURF.,.F.,.F.,.F.,(4,2,2,2,2,2,2,2,2,2,2,2,2,4),(2,1,2),(0.,0.0625,
0.125,0.1875,0.25,0.3125,0.375,0.4375,0.5,0.5625,0.625,0.6875,0.75,0.8048),
(-0.00600003347014938,0.,1.),.UNSPECIFIED.);
#15=B_SPLINE_SURFACE_WITH_KNOTS('',1,3,((#1086,#1087,#1088,#1089,#1090,
#1091,#1092,#1093,#1094,#1095,#1096,#1097,#1098,#1099,#1100,#1101),(#1102,
#1103,#1104,#1105,#1106,#1107,#1108,#1109,#1110,#1111,#1112,#1113,#1114,
#1115,#1116,#1117)),.RULED_SURF.,.F.,.F.,.F.,(2,2),(4,2,2,2,2,2,2,4),(0.,
1.),(0.0553245697344654,0.0555619183573357,0.0559458704338611,0.0563298225103864,
0.0570977266634371,0.0578656308164878,0.0594014391225891,0.0619538969176037),
 .UNSPECIFIED.);
#16=B_SPLINE_CURVE_WITH_KNOTS('',3,(#789,#790,#791,#792),.UNSPECIFIED.,
 .F.,.F.,(4,4),(0.,0.0254087026824482),.UNSPECIFIED.);
#17=B_SPLINE_CURVE_WITH_KNOTS('',3,(#794,#795,#796,#797),.UNSPECIFIED.,
 .F.,.F.,(4,4),(0.,0.0200729021756289),.UNSPECIFIED.);
#18=B_SPLINE_CURVE_WITH_KNOTS('',3,(#821,#822,#823,#824),.UNSPECIFIED.,
 .F.,.F.,(4,4),(0.,0.397538744302488),.UNSPECIFIED.);
#19=B_SPLINE_CURVE_WITH_KNOTS('',3,(#909,#910,#911,#912),.UNSPECIFIED.,
 .F.,.F.,(4,4),(0.,0.025415149064396),.UNSPECIFIED.);
#20=B_SPLINE_CURVE_WITH_KNOTS('',3,(#914,#915,#916,#917),.UNSPECIFIED.,
 .F.,.F.,(4,4),(0.,1.),.UNSPECIFIED.);
#21=B_SPLINE_CURVE_WITH_KNOTS('',3,(#919,#920,#921,#922),.UNSPECIFIED.,
 .F.,.F.,(4,4),(0.,0.0141622164737803),.UNSPECIFIED.);
#22=B_SPLINE_CURVE_WITH_KNOTS('',3,(#974,#975,#976,#977),.UNSPECIFIED.,
 .F.,.F.,(4,4),(0.,0.0200765655746799),.UNSPECIFIED.);
#23=B_SPLINE_CURVE_WITH_KNOTS('',3,(#978,#979,#980,#981),.UNSPECIFIED.,
 .F.,.F.,(4,4),(0.,0.0194946816416868),.UNSPECIFIED.);
#24=B_SPLINE_CURVE_WITH_KNOTS('',3,(#983,#984,#985,#986),.UNSPECIFIED.,
 .F.,.F.,(4,4),(0.,0.397538740993098),.UNSPECIFIED.);
#25=B_SPLINE_CURVE_WITH_KNOTS('',3,(#1073,#1074,#1075,#1076),
 .UNSPECIFIED.,.F.,.F.,(4,4),(0.,1.),.UNSPECIFIED.);
#26=B_SPLINE_CURVE_WITH_KNOTS('',3,(#1082,#1083,#1084,#1085),
 .UNSPECIFIED.,.F.,.F.,(4,4),(6.94756210704194E-17,0.014162216654918),
 .UNSPECIFIED.);
#27=B_SPLINE_CURVE_WITH_KNOTS('',3,(#1118,#1119,#1120,#1121),
 .UNSPECIFIED.,.F.,.F.,(4,4),(0.,0.0194940492658583),.UNSPECIFIED.);
#28=CYLINDRICAL_SURFACE('',#553,0.03);
#29=CYLINDRICAL_SURFACE('',#556,0.03);
#30=CYLINDRICAL_SURFACE('',#562,0.00125);
#31=CYLINDRICAL_SURFACE('',#565,0.00125);
#32=CYLINDRICAL_SURFACE('',#567,0.00125);
#33=CYLINDRICAL_SURFACE('',#570,0.00125);
#34=CIRCLE('',#547,0.04);
#35=CIRCLE('',#548,0.04);
#36=CIRCLE('',#554,0.03);
#37=CIRCLE('',#555,0.03);
#38=CIRCLE('',#557,0.03);
#39=CIRCLE('',#558,0.03);
#40=CIRCLE('',#560,0.00125);
#41=CIRCLE('',#561,0.00125);
#42=CIRCLE('',#563,0.00125);
#43=CIRCLE('',#564,0.00125);
#44=CIRCLE('',#566,0.00125);
#45=CIRCLE('',#568,0.00125);
#46=CIRCLE('',#569,0.00125);
#47=CIRCLE('',#571,0.00125);
#48=ORIENTED_EDGE('',*,*,#192,.T.);
#49=ORIENTED_EDGE('',*,*,#193,.T.);
#50=ORIENTED_EDGE('',*,*,#194,.T.);
#51=ORIENTED_EDGE('',*,*,#195,.F.);
#52=ORIENTED_EDGE('',*,*,#196,.T.);
#53=ORIENTED_EDGE('',*,*,#197,.T.);
#54=ORIENTED_EDGE('',*,*,#198,.T.);
#55=ORIENTED_EDGE('',*,*,#199,.T.);
#56=ORIENTED_EDGE('',*,*,#200,.T.);
#57=ORIENTED_EDGE('',*,*,#201,.T.);
#58=ORIENTED_EDGE('',*,*,#202,.F.);
#59=ORIENTED_EDGE('',*,*,#203,.F.);
#60=ORIENTED_EDGE('',*,*,#204,.T.);
#61=ORIENTED_EDGE('',*,*,#205,.F.);
#62=ORIENTED_EDGE('',*,*,#206,.F.);
#63=ORIENTED_EDGE('',*,*,#207,.F.);
#64=ORIENTED_EDGE('',*,*,#208,.T.);
#65=ORIENTED_EDGE('',*,*,#209,.F.);
#66=ORIENTED_EDGE('',*,*,#210,.F.);
#67=ORIENTED_EDGE('',*,*,#211,.F.);
#68=ORIENTED_EDGE('',*,*,#212,.F.);
#69=ORIENTED_EDGE('',*,*,#207,.T.);
#70=ORIENTED_EDGE('',*,*,#213,.T.);
#71=ORIENTED_EDGE('',*,*,#214,.T.);
#72=ORIENTED_EDGE('',*,*,#215,.F.);
#73=ORIENTED_EDGE('',*,*,#216,.F.);
#74=ORIENTED_EDGE('',*,*,#217,.T.);
#75=ORIENTED_EDGE('',*,*,#218,.F.);
#76=ORIENTED_EDGE('',*,*,#219,.T.);
#77=ORIENTED_EDGE('',*,*,#211,.T.);
#78=ORIENTED_EDGE('',*,*,#220,.F.);
#79=ORIENTED_EDGE('',*,*,#221,.T.);
#80=ORIENTED_EDGE('',*,*,#222,.T.);
#81=ORIENTED_EDGE('',*,*,#214,.F.);
#82=ORIENTED_EDGE('',*,*,#223,.T.);
#83=ORIENTED_EDGE('',*,*,#192,.F.);
#84=ORIENTED_EDGE('',*,*,#224,.F.);
#85=ORIENTED_EDGE('',*,*,#225,.T.);
#86=ORIENTED_EDGE('',*,*,#226,.T.);
#87=ORIENTED_EDGE('',*,*,#218,.T.);
#88=ORIENTED_EDGE('',*,*,#227,.T.);
#89=ORIENTED_EDGE('',*,*,#228,.F.);
#90=ORIENTED_EDGE('',*,*,#229,.F.);
#91=ORIENTED_EDGE('',*,*,#210,.T.);
#92=ORIENTED_EDGE('',*,*,#230,.T.);
#93=ORIENTED_EDGE('',*,*,#196,.F.);
#94=ORIENTED_EDGE('',*,*,#231,.F.);
#95=ORIENTED_EDGE('',*,*,#232,.F.);
#96=ORIENTED_EDGE('',*,*,#233,.T.);
#97=ORIENTED_EDGE('',*,*,#220,.T.);
#98=ORIENTED_EDGE('',*,*,#234,.T.);
#99=ORIENTED_EDGE('',*,*,#235,.F.);
#100=ORIENTED_EDGE('',*,*,#229,.T.);
#101=ORIENTED_EDGE('',*,*,#236,.F.);
#102=ORIENTED_EDGE('',*,*,#237,.T.);
#103=ORIENTED_EDGE('',*,*,#238,.F.);
#104=ORIENTED_EDGE('',*,*,#228,.T.);
#105=ORIENTED_EDGE('',*,*,#239,.F.);
#106=ORIENTED_EDGE('',*,*,#240,.F.);
#107=ORIENTED_EDGE('',*,*,#216,.T.);
#108=ORIENTED_EDGE('',*,*,#241,.F.);
#109=ORIENTED_EDGE('',*,*,#242,.T.);
#110=ORIENTED_EDGE('',*,*,#203,.T.);
#111=ORIENTED_EDGE('',*,*,#243,.T.);
#112=ORIENTED_EDGE('',*,*,#244,.T.);
#113=ORIENTED_EDGE('',*,*,#245,.T.);
#114=ORIENTED_EDGE('',*,*,#194,.F.);
#115=ORIENTED_EDGE('',*,*,#246,.F.);
#116=ORIENTED_EDGE('',*,*,#247,.F.);
#117=ORIENTED_EDGE('',*,*,#244,.F.);
#118=ORIENTED_EDGE('',*,*,#248,.T.);
#119=ORIENTED_EDGE('',*,*,#242,.F.);
#120=ORIENTED_EDGE('',*,*,#249,.F.);
#121=ORIENTED_EDGE('',*,*,#233,.F.);
#122=ORIENTED_EDGE('',*,*,#250,.F.);
#123=ORIENTED_EDGE('',*,*,#251,.T.);
#124=ORIENTED_EDGE('',*,*,#221,.F.);
#125=ORIENTED_EDGE('',*,*,#252,.F.);
#126=ORIENTED_EDGE('',*,*,#231,.T.);
#127=ORIENTED_EDGE('',*,*,#204,.F.);
#128=ORIENTED_EDGE('',*,*,#247,.T.);
#129=ORIENTED_EDGE('',*,*,#253,.T.);
#130=ORIENTED_EDGE('',*,*,#254,.T.);
#131=ORIENTED_EDGE('',*,*,#255,.F.);
#132=ORIENTED_EDGE('',*,*,#250,.T.);
#133=ORIENTED_EDGE('',*,*,#232,.T.);
#134=ORIENTED_EDGE('',*,*,#252,.T.);
#135=ORIENTED_EDGE('',*,*,#256,.T.);
#136=ORIENTED_EDGE('',*,*,#257,.F.);
#137=ORIENTED_EDGE('',*,*,#225,.F.);
#138=ORIENTED_EDGE('',*,*,#258,.T.);
#139=ORIENTED_EDGE('',*,*,#254,.F.);
#140=ORIENTED_EDGE('',*,*,#215,.T.);
#141=ORIENTED_EDGE('',*,*,#224,.T.);
#142=ORIENTED_EDGE('',*,*,#195,.T.);
#143=ORIENTED_EDGE('',*,*,#245,.F.);
#144=ORIENTED_EDGE('',*,*,#249,.T.);
#145=ORIENTED_EDGE('',*,*,#241,.T.);
#146=ORIENTED_EDGE('',*,*,#222,.F.);
#147=ORIENTED_EDGE('',*,*,#251,.F.);
#148=ORIENTED_EDGE('',*,*,#256,.F.);
#149=ORIENTED_EDGE('',*,*,#255,.T.);
#150=ORIENTED_EDGE('',*,*,#258,.F.);
#151=ORIENTED_EDGE('',*,*,#227,.F.);
#152=ORIENTED_EDGE('',*,*,#259,.F.);
#153=ORIENTED_EDGE('',*,*,#208,.F.);
#154=ORIENTED_EDGE('',*,*,#217,.F.);
#155=ORIENTED_EDGE('',*,*,#240,.T.);
#156=ORIENTED_EDGE('',*,*,#248,.F.);
#157=ORIENTED_EDGE('',*,*,#243,.F.);
#158=ORIENTED_EDGE('',*,*,#202,.T.);
#159=ORIENTED_EDGE('',*,*,#237,.F.);
#160=ORIENTED_EDGE('',*,*,#234,.F.);
#161=ORIENTED_EDGE('',*,*,#209,.T.);
#162=ORIENTED_EDGE('',*,*,#260,.T.);
#163=ORIENTED_EDGE('',*,*,#197,.F.);
#164=ORIENTED_EDGE('',*,*,#230,.F.);
#165=ORIENTED_EDGE('',*,*,#205,.T.);
#166=ORIENTED_EDGE('',*,*,#259,.T.);
#167=ORIENTED_EDGE('',*,*,#201,.F.);
#168=ORIENTED_EDGE('',*,*,#261,.F.);
#169=ORIENTED_EDGE('',*,*,#235,.T.);
#170=ORIENTED_EDGE('',*,*,#238,.T.);
#171=ORIENTED_EDGE('',*,*,#206,.T.);
#172=ORIENTED_EDGE('',*,*,#261,.T.);
#173=ORIENTED_EDGE('',*,*,#200,.F.);
#174=ORIENTED_EDGE('',*,*,#262,.F.);
#175=ORIENTED_EDGE('',*,*,#193,.F.);
#176=ORIENTED_EDGE('',*,*,#223,.F.);
#177=ORIENTED_EDGE('',*,*,#213,.F.);
#178=ORIENTED_EDGE('',*,*,#236,.T.);
#179=ORIENTED_EDGE('',*,*,#239,.T.);
#180=ORIENTED_EDGE('',*,*,#212,.T.);
#181=ORIENTED_EDGE('',*,*,#219,.F.);
#182=ORIENTED_EDGE('',*,*,#226,.F.);
#183=ORIENTED_EDGE('',*,*,#257,.T.);
#184=ORIENTED_EDGE('',*,*,#263,.T.);
#185=ORIENTED_EDGE('',*,*,#198,.F.);
#186=ORIENTED_EDGE('',*,*,#260,.F.);
#187=ORIENTED_EDGE('',*,*,#246,.T.);
#188=ORIENTED_EDGE('',*,*,#262,.T.);
#189=ORIENTED_EDGE('',*,*,#199,.F.);
#190=ORIENTED_EDGE('',*,*,#263,.F.);
#191=ORIENTED_EDGE('',*,*,#253,.F.);
#192=EDGE_CURVE('',#264,#265,#314,.F.);
#193=EDGE_CURVE('',#265,#266,#315,.T.);
#194=EDGE_CURVE('',#266,#267,#316,.T.);
#195=EDGE_CURVE('',#264,#267,#317,.T.);
#196=EDGE_CURVE('',#268,#269,#318,.T.);
#197=EDGE_CURVE('',#269,#270,#319,.T.);
#198=EDGE_CURVE('',#270,#271,#320,.T.);
#199=EDGE_CURVE('',#271,#272,#321,.T.);
#200=EDGE_CURVE('',#272,#273,#322,.T.);
#201=EDGE_CURVE('',#273,#274,#323,.T.);
#202=EDGE_CURVE('',#275,#274,#324,.T.);
#203=EDGE_CURVE('',#276,#275,#34,.T.);
#204=EDGE_CURVE('',#276,#268,#35,.T.);
#205=EDGE_CURVE('',#277,#278,#325,.T.);
#206=EDGE_CURVE('',#279,#277,#326,.T.);
#207=EDGE_CURVE('',#280,#279,#327,.T.);
#208=EDGE_CURVE('',#280,#278,#328,.T.);
#209=EDGE_CURVE('',#281,#282,#329,.T.);
#210=EDGE_CURVE('',#283,#281,#330,.T.);
#211=EDGE_CURVE('',#284,#283,#331,.T.);
#212=EDGE_CURVE('',#282,#284,#332,.T.);
#213=EDGE_CURVE('',#279,#285,#333,.T.);
#214=EDGE_CURVE('',#285,#286,#334,.T.);
#215=EDGE_CURVE('',#287,#286,#335,.T.);
#216=EDGE_CURVE('',#288,#287,#336,.T.);
#217=EDGE_CURVE('',#288,#280,#337,.T.);
#218=EDGE_CURVE('',#289,#290,#338,.T.);
#219=EDGE_CURVE('',#289,#284,#339,.T.);
#220=EDGE_CURVE('',#291,#283,#340,.T.);
#221=EDGE_CURVE('',#291,#292,#341,.T.);
#222=EDGE_CURVE('',#292,#290,#342,.T.);
#223=EDGE_CURVE('',#285,#265,#36,.F.);
#224=EDGE_CURVE('',#286,#264,#37,.F.);
#225=EDGE_CURVE('',#293,#294,#343,.F.);
#226=EDGE_CURVE('',#294,#289,#38,.F.);
#227=EDGE_CURVE('',#290,#293,#39,.F.);
#228=EDGE_CURVE('',#295,#295,#40,.T.);
#229=EDGE_CURVE('',#296,#296,#41,.T.);
#230=EDGE_CURVE('',#281,#269,#344,.T.);
#231=EDGE_CURVE('',#297,#268,#16,.T.);
#232=EDGE_CURVE('',#298,#297,#17,.T.);
#233=EDGE_CURVE('',#298,#291,#345,.T.);
#234=EDGE_CURVE('',#299,#299,#42,.T.);
#235=EDGE_CURVE('',#300,#300,#43,.F.);
#236=EDGE_CURVE('',#301,#301,#44,.F.);
#237=EDGE_CURVE('',#302,#302,#45,.T.);
#238=EDGE_CURVE('',#303,#303,#46,.F.);
#239=EDGE_CURVE('',#304,#304,#47,.F.);
#240=EDGE_CURVE('',#288,#305,#346,.T.);
#241=EDGE_CURVE('',#306,#287,#347,.T.);
#242=EDGE_CURVE('',#306,#305,#18,.T.);
#243=EDGE_CURVE('',#275,#307,#19,.T.);
#244=EDGE_CURVE('',#307,#308,#20,.T.);
#245=EDGE_CURVE('',#308,#267,#21,.T.);
#246=EDGE_CURVE('',#309,#266,#348,.T.);
#247=EDGE_CURVE('',#276,#309,#349,.T.);
#248=EDGE_CURVE('',#307,#305,#22,.T.);
#249=EDGE_CURVE('',#308,#306,#23,.T.);
#250=EDGE_CURVE('',#310,#298,#24,.T.);
#251=EDGE_CURVE('',#310,#292,#350,.T.);
#252=EDGE_CURVE('',#297,#311,#25,.F.);
#253=EDGE_CURVE('',#309,#312,#351,.T.);
#254=EDGE_CURVE('',#312,#313,#352,.T.);
#255=EDGE_CURVE('',#311,#313,#26,.T.);
#256=EDGE_CURVE('',#311,#310,#27,.F.);
#257=EDGE_CURVE('',#294,#312,#353,.T.);
#258=EDGE_CURVE('',#293,#313,#354,.T.);
#259=EDGE_CURVE('',#278,#274,#355,.T.);
#260=EDGE_CURVE('',#282,#270,#356,.T.);
#261=EDGE_CURVE('',#277,#273,#357,.T.);
#262=EDGE_CURVE('',#266,#272,#358,.T.);
#263=EDGE_CURVE('',#312,#271,#359,.T.);
#264=VERTEX_POINT('',#710);
#265=VERTEX_POINT('',#711);
#266=VERTEX_POINT('',#713);
#267=VERTEX_POINT('',#715);
#268=VERTEX_POINT('',#719);
#269=VERTEX_POINT('',#720);
#270=VERTEX_POINT('',#722);
#271=VERTEX_POINT('',#724);
#272=VERTEX_POINT('',#726);
#273=VERTEX_POINT('',#728);
#274=VERTEX_POINT('',#730);
#275=VERTEX_POINT('',#732);
#276=VERTEX_POINT('',#734);
#277=VERTEX_POINT('',#738);
#278=VERTEX_POINT('',#739);
#279=VERTEX_POINT('',#741);
#280=VERTEX_POINT('',#743);
#281=VERTEX_POINT('',#747);
#282=VERTEX_POINT('',#748);
#283=VERTEX_POINT('',#750);
#284=VERTEX_POINT('',#752);
#285=VERTEX_POINT('',#756);
#286=VERTEX_POINT('',#758);
#287=VERTEX_POINT('',#760);
#288=VERTEX_POINT('',#762);
#289=VERTEX_POINT('',#766);
#290=VERTEX_POINT('',#767);
#291=VERTEX_POINT('',#770);
#292=VERTEX_POINT('',#772);
#293=VERTEX_POINT('',#779);
#294=VERTEX_POINT('',#780);
#295=VERTEX_POINT('',#785);
#296=VERTEX_POINT('',#787);
#297=VERTEX_POINT('',#793);
#298=VERTEX_POINT('',#798);
#299=VERTEX_POINT('',#802);
#300=VERTEX_POINT('',#804);
#301=VERTEX_POINT('',#807);
#302=VERTEX_POINT('',#810);
#303=VERTEX_POINT('',#812);
#304=VERTEX_POINT('',#815);
#305=VERTEX_POINT('',#818);
#306=VERTEX_POINT('',#820);
#307=VERTEX_POINT('',#913);
#308=VERTEX_POINT('',#918);
#309=VERTEX_POINT('',#924);
#310=VERTEX_POINT('',#987);
#311=VERTEX_POINT('',#1077);
#312=VERTEX_POINT('',#1079);
#313=VERTEX_POINT('',#1081);
#314=LINE('',#709,#360);
#315=LINE('',#712,#361);
#316=LINE('',#714,#362);
#317=LINE('',#716,#363);
#318=LINE('',#718,#364);
#319=LINE('',#721,#365);
#320=LINE('',#723,#366);
#321=LINE('',#725,#367);
#322=LINE('',#727,#368);
#323=LINE('',#729,#369);
#324=LINE('',#731,#370);
#325=LINE('',#737,#371);
#326=LINE('',#740,#372);
#327=LINE('',#742,#373);
#328=LINE('',#744,#374);
#329=LINE('',#746,#375);
#330=LINE('',#749,#376);
#331=LINE('',#751,#377);
#332=LINE('',#753,#378);
#333=LINE('',#755,#379);
#334=LINE('',#757,#380);
#335=LINE('',#759,#381);
#336=LINE('',#761,#382);
#337=LINE('',#763,#383);
#338=LINE('',#765,#384);
#339=LINE('',#768,#385);
#340=LINE('',#769,#386);
#341=LINE('',#771,#387);
#342=LINE('',#773,#388);
#343=LINE('',#778,#389);
#344=LINE('',#788,#390);
#345=LINE('',#799,#391);
#346=LINE('',#817,#392);
#347=LINE('',#819,#393);
#348=LINE('',#923,#394);
#349=LINE('',#925,#395);
#350=LINE('',#988,#396);
#351=LINE('',#1078,#397);
#352=LINE('',#1080,#398);
#353=LINE('',#1123,#399);
#354=LINE('',#1124,#400);
#355=LINE('',#1128,#401);
#356=LINE('',#1130,#402);
#357=LINE('',#1132,#403);
#358=LINE('',#1134,#404);
#359=LINE('',#1136,#405);
#360=VECTOR('',#587,1.);
#361=VECTOR('',#588,1.);
#362=VECTOR('',#589,1.);
#363=VECTOR('',#590,1.);
#364=VECTOR('',#593,1.);
#365=VECTOR('',#594,1.);
#366=VECTOR('',#595,1.);
#367=VECTOR('',#596,1.);
#368=VECTOR('',#597,1.);
#369=VECTOR('',#598,1.);
#370=VECTOR('',#599,1.);
#371=VECTOR('',#606,1.);
#372=VECTOR('',#607,1.);
#373=VECTOR('',#608,1.);
#374=VECTOR('',#609,1.);
#375=VECTOR('',#612,1.);
#376=VECTOR('',#613,1.);
#377=VECTOR('',#614,1.);
#378=VECTOR('',#615,1.);
#379=VECTOR('',#618,1.);
#380=VECTOR('',#619,1.);
#381=VECTOR('',#620,1.);
#382=VECTOR('',#621,1.);
#383=VECTOR('',#622,1.);
#384=VECTOR('',#625,1.);
#385=VECTOR('',#626,1.);
#386=VECTOR('',#627,1.);
#387=VECTOR('',#628,1.);
#388=VECTOR('',#629,1.);
#389=VECTOR('',#638,1.);
#390=VECTOR('',#649,1.);
#391=VECTOR('',#650,1.);
#392=VECTOR('',#673,1.);
#393=VECTOR('',#674,1.);
#394=VECTOR('',#675,1.);
#395=VECTOR('',#676,1.);
#396=VECTOR('',#679,1.);
#397=VECTOR('',#680,1.);
#398=VECTOR('',#681,1.);
#399=VECTOR('',#684,1.);
#400=VECTOR('',#685,1.);
#401=VECTOR('',#692,1.);
#402=VECTOR('',#695,1.);
#403=VECTOR('',#698,1.);
#404=VECTOR('',#701,1.);
#405=VECTOR('',#704,1.);
#406=EDGE_LOOP('',(#48,#49,#50,#51));
#407=EDGE_LOOP('',(#52,#53,#54,#55,#56,#57,#58,#59,#60));
#408=EDGE_LOOP('',(#61,#62,#63,#64));
#409=EDGE_LOOP('',(#65,#66,#67,#68));
#410=EDGE_LOOP('',(#69,#70,#71,#72,#73,#74));
#411=EDGE_LOOP('',(#75,#76,#77,#78,#79,#80));
#412=EDGE_LOOP('',(#81,#82,#83,#84));
#413=EDGE_LOOP('',(#85,#86,#87,#88));
#414=EDGE_LOOP('',(#89));
#415=EDGE_LOOP('',(#90));
#416=EDGE_LOOP('',(#91,#92,#93,#94,#95,#96,#97));
#417=EDGE_LOOP('',(#98));
#418=EDGE_LOOP('',(#99));
#419=EDGE_LOOP('',(#100));
#420=EDGE_LOOP('',(#101));
#421=EDGE_LOOP('',(#102));
#422=EDGE_LOOP('',(#103));
#423=EDGE_LOOP('',(#104));
#424=EDGE_LOOP('',(#105));
#425=EDGE_LOOP('',(#106,#107,#108,#109));
#426=EDGE_LOOP('',(#110,#111,#112,#113,#114,#115,#116));
#427=EDGE_LOOP('',(#117,#118,#119,#120));
#428=EDGE_LOOP('',(#121,#122,#123,#124));
#429=EDGE_LOOP('',(#125,#126,#127,#128,#129,#130,#131));
#430=EDGE_LOOP('',(#132,#133,#134,#135));
#431=EDGE_LOOP('',(#136,#137,#138,#139));
#432=EDGE_LOOP('',(#140,#141,#142,#143,#144,#145));
#433=EDGE_LOOP('',(#146,#147,#148,#149,#150,#151));
#434=EDGE_LOOP('',(#152,#153,#154,#155,#156,#157,#158));
#435=EDGE_LOOP('',(#159));
#436=EDGE_LOOP('',(#160));
#437=EDGE_LOOP('',(#161,#162,#163,#164));
#438=EDGE_LOOP('',(#165,#166,#167,#168));
#439=EDGE_LOOP('',(#169));
#440=EDGE_LOOP('',(#170));
#441=EDGE_LOOP('',(#171,#172,#173,#174,#175,#176,#177));
#442=EDGE_LOOP('',(#178));
#443=EDGE_LOOP('',(#179));
#444=EDGE_LOOP('',(#180,#181,#182,#183,#184,#185,#186));
#445=EDGE_LOOP('',(#187,#188,#189,#190,#191));
#446=FACE_BOUND('',#406,.T.);
#447=FACE_BOUND('',#407,.T.);
#448=FACE_BOUND('',#408,.T.);
#449=FACE_BOUND('',#409,.T.);
#450=FACE_BOUND('',#410,.T.);
#451=FACE_BOUND('',#411,.T.);
#452=FACE_BOUND('',#412,.T.);
#453=FACE_BOUND('',#413,.T.);
#454=FACE_BOUND('',#414,.T.);
#455=FACE_BOUND('',#415,.T.);
#456=FACE_BOUND('',#416,.T.);
#457=FACE_BOUND('',#417,.T.);
#458=FACE_BOUND('',#418,.T.);
#459=FACE_BOUND('',#419,.T.);
#460=FACE_BOUND('',#420,.T.);
#461=FACE_BOUND('',#421,.T.);
#462=FACE_BOUND('',#422,.T.);
#463=FACE_BOUND('',#423,.T.);
#464=FACE_BOUND('',#424,.T.);
#465=FACE_BOUND('',#425,.T.);
#466=FACE_BOUND('',#426,.T.);
#467=FACE_BOUND('',#427,.T.);
#468=FACE_BOUND('',#428,.T.);
#469=FACE_BOUND('',#429,.T.);
#470=FACE_BOUND('',#430,.T.);
#471=FACE_BOUND('',#431,.T.);
#472=FACE_BOUND('',#432,.T.);
#473=FACE_BOUND('',#433,.T.);
#474=FACE_BOUND('',#434,.T.);
#475=FACE_BOUND('',#435,.T.);
#476=FACE_BOUND('',#436,.T.);
#477=FACE_BOUND('',#437,.T.);
#478=FACE_BOUND('',#438,.T.);
#479=FACE_BOUND('',#439,.T.);
#480=FACE_BOUND('',#440,.T.);
#481=FACE_BOUND('',#441,.T.);
#482=FACE_BOUND('',#442,.T.);
#483=FACE_BOUND('',#443,.T.);
#484=FACE_BOUND('',#444,.T.);
#485=FACE_BOUND('',#445,.T.);
#486=PLANE('',#545);
#487=PLANE('',#546);
#488=PLANE('',#549);
#489=PLANE('',#550);
#490=PLANE('',#551);
#491=PLANE('',#552);
#492=PLANE('',#559);
#493=PLANE('',#572);
#494=PLANE('',#573);
#495=PLANE('',#574);
#496=PLANE('',#575);
#497=PLANE('',#576);
#498=PLANE('',#577);
#499=PLANE('',#578);
#500=PLANE('',#579);
#501=PLANE('',#580);
#502=PLANE('',#581);
#503=PLANE('',#582);
#504=ADVANCED_FACE('',(#446),#486,.T.);
#505=ADVANCED_FACE('',(#447),#487,.T.);
#506=ADVANCED_FACE('',(#448),#488,.F.);
#507=ADVANCED_FACE('',(#449),#489,.F.);
#508=ADVANCED_FACE('',(#450),#490,.T.);
#509=ADVANCED_FACE('',(#451),#491,.T.);
#510=ADVANCED_FACE('',(#452),#28,.T.);
#511=ADVANCED_FACE('',(#453),#29,.T.);
#512=ADVANCED_FACE('',(#454,#455,#456),#492,.T.);
#513=ADVANCED_FACE('',(#457,#458),#30,.F.);
#514=ADVANCED_FACE('',(#459,#460),#31,.F.);
#515=ADVANCED_FACE('',(#461,#462),#32,.F.);
#516=ADVANCED_FACE('',(#463,#464),#33,.F.);
#517=ADVANCED_FACE('',(#465),#493,.F.);
#518=ADVANCED_FACE('',(#466),#12,.T.);
#519=ADVANCED_FACE('',(#467),#13,.T.);
#520=ADVANCED_FACE('',(#468),#494,.F.);
#521=ADVANCED_FACE('',(#469),#14,.F.);
#522=ADVANCED_FACE('',(#470),#15,.F.);
#523=ADVANCED_FACE('',(#471),#495,.T.);
#524=ADVANCED_FACE('',(#472),#496,.T.);
#525=ADVANCED_FACE('',(#473),#497,.T.);
#526=ADVANCED_FACE('',(#474,#475,#476),#498,.T.);
#527=ADVANCED_FACE('',(#477),#499,.T.);
#528=ADVANCED_FACE('',(#478),#500,.T.);
#529=ADVANCED_FACE('',(#479,#480,#481),#501,.T.);
#530=ADVANCED_FACE('',(#482,#483,#484),#502,.T.);
#531=ADVANCED_FACE('',(#485),#503,.T.);
#532=CLOSED_SHELL('',(#504,#505,#506,#507,#508,#509,#510,#511,#512,#513,
#514,#515,#516,#517,#518,#519,#520,#521,#522,#523,#524,#525,#526,#527,#528,
#529,#530,#531));
#533=STYLED_ITEM('',(#534),#541);
#534=PRESENTATION_STYLE_ASSIGNMENT((#535));
#535=SURFACE_STYLE_USAGE(.BOTH.,#536);
#536=SURFACE_SIDE_STYLE('',(#537));
#537=SURFACE_STYLE_FILL_AREA(#538);
#538=FILL_AREA_STYLE('',(#539));
#539=FILL_AREA_STYLE_COLOUR('',#540);
#540=COLOUR_RGB('',0.615686274509804,0.811764705882353,0.929411764705882);
#541=MANIFOLD_SOLID_BREP('Part 2',#532);
#542=SHAPE_DEFINITION_REPRESENTATION(#1144,#543);
#543=SHAPE_REPRESENTATION('Part 2',(#544),#1139);
#544=AXIS2_PLACEMENT_3D('',#707,#583,#584);
#545=AXIS2_PLACEMENT_3D('',#708,#585,#586);
#546=AXIS2_PLACEMENT_3D('',#717,#591,#592);
#547=AXIS2_PLACEMENT_3D('',#733,#600,#601);
#548=AXIS2_PLACEMENT_3D('',#735,#602,#603);
#549=AXIS2_PLACEMENT_3D('',#736,#604,#605);
#550=AXIS2_PLACEMENT_3D('',#745,#610,#611);
#551=AXIS2_PLACEMENT_3D('',#754,#616,#617);
#552=AXIS2_PLACEMENT_3D('',#764,#623,#624);
#553=AXIS2_PLACEMENT_3D('',#774,#630,#631);
#554=AXIS2_PLACEMENT_3D('',#775,#632,#633);
#555=AXIS2_PLACEMENT_3D('',#776,#634,#635);
#556=AXIS2_PLACEMENT_3D('',#777,#636,#637);
#557=AXIS2_PLACEMENT_3D('',#781,#639,#640);
#558=AXIS2_PLACEMENT_3D('',#782,#641,#642);
#559=AXIS2_PLACEMENT_3D('',#783,#643,#644);
#560=AXIS2_PLACEMENT_3D('',#784,#645,#646);
#561=AXIS2_PLACEMENT_3D('',#786,#647,#648);
#562=AXIS2_PLACEMENT_3D('',#800,#651,#652);
#563=AXIS2_PLACEMENT_3D('',#801,#653,#654);
#564=AXIS2_PLACEMENT_3D('',#803,#655,#656);
#565=AXIS2_PLACEMENT_3D('',#805,#657,#658);
#566=AXIS2_PLACEMENT_3D('',#806,#659,#660);
#567=AXIS2_PLACEMENT_3D('',#808,#661,#662);
#568=AXIS2_PLACEMENT_3D('',#809,#663,#664);
#569=AXIS2_PLACEMENT_3D('',#811,#665,#666);
#570=AXIS2_PLACEMENT_3D('',#813,#667,#668);
#571=AXIS2_PLACEMENT_3D('',#814,#669,#670);
#572=AXIS2_PLACEMENT_3D('',#816,#671,#672);
#573=AXIS2_PLACEMENT_3D('',#982,#677,#678);
#574=AXIS2_PLACEMENT_3D('',#1122,#682,#683);
#575=AXIS2_PLACEMENT_3D('',#1125,#686,#687);
#576=AXIS2_PLACEMENT_3D('',#1126,#688,#689);
#577=AXIS2_PLACEMENT_3D('',#1127,#690,#691);
#578=AXIS2_PLACEMENT_3D('',#1129,#693,#694);
#579=AXIS2_PLACEMENT_3D('',#1131,#696,#697);
#580=AXIS2_PLACEMENT_3D('',#1133,#699,#700);
#581=AXIS2_PLACEMENT_3D('',#1135,#702,#703);
#582=AXIS2_PLACEMENT_3D('',#1137,#705,#706);
#583=DIRECTION('',(0.,0.,1.));
#584=DIRECTION('',(1.,0.,0.));
#585=DIRECTION('',(0.,1.,1.22464679914735E-16));
#586=DIRECTION('',(1.,0.,0.));
#587=DIRECTION('',(0.,1.22464679914735E-16,-1.));
#588=DIRECTION('',(1.,0.,0.));
#589=DIRECTION('',(-2.31296463463574E-16,1.22464679914735E-16,-1.));
#590=DIRECTION('',(1.,0.,0.));
#591=DIRECTION('',(1.,0.,0.));
#592=DIRECTION('',(0.,-1.,-1.22464679914735E-16));
#593=DIRECTION('',(0.,-1.,-1.22464679914735E-16));
#594=DIRECTION('',(0.,1.22464679914735E-16,-1.));
#595=DIRECTION('',(0.,1.,1.22464679914735E-16));
#596=DIRECTION('',(0.,1.22464679914735E-16,-1.));
#597=DIRECTION('',(0.,-1.,-1.22464679914735E-16));
#598=DIRECTION('',(0.,1.22464679914735E-16,-1.));
#599=DIRECTION('',(0.,-1.,-1.22464679914735E-16));
#600=DIRECTION('',(-1.,0.,0.));
#601=DIRECTION('',(0.,-1.22464679914735E-16,1.));
#602=DIRECTION('',(1.,0.,0.));
#603=DIRECTION('',(0.,1.22464679914735E-16,-1.));
#604=DIRECTION('',(1.,0.,0.));
#605=DIRECTION('',(0.,-1.22464679914735E-16,1.));
#606=DIRECTION('',(0.,1.22464679914735E-16,-1.));
#607=DIRECTION('',(0.,-1.,-1.22464679914735E-16));
#608=DIRECTION('',(0.,-1.22464679914735E-16,1.));
#609=DIRECTION('',(0.,-1.,-1.22464679914735E-16));
#610=DIRECTION('',(1.,0.,0.));
#611=DIRECTION('',(0.,-1.22464679914735E-16,1.));
#612=DIRECTION('',(0.,1.22464679914735E-16,-1.));
#613=DIRECTION('',(0.,-1.,-1.22464679914735E-16));
#614=DIRECTION('',(0.,-1.22464679914735E-16,1.));
#615=DIRECTION('',(0.,1.,1.22464679914735E-16));
#616=DIRECTION('',(0.,-1.,-1.22464679914735E-16));
#617=DIRECTION('',(-1.,0.,0.));
#618=DIRECTION('',(-1.,0.,0.));
#619=DIRECTION('',(0.,1.22464679914735E-16,-1.));
#620=DIRECTION('',(-1.,0.,0.));
#621=DIRECTION('',(2.31296463463574E-16,-1.22464679914735E-16,1.));
#622=DIRECTION('',(1.,-1.63417196327752E-32,1.33440267382831E-16));
#623=DIRECTION('',(0.,-1.,-1.22464679914735E-16));
#624=DIRECTION('',(-1.,0.,0.));
#625=DIRECTION('',(0.,-1.22464679914735E-16,1.));
#626=DIRECTION('',(1.,0.,0.));
#627=DIRECTION('',(1.,1.63417196327752E-32,-1.33440267382831E-16));
#628=DIRECTION('',(2.31296463463574E-16,1.22464679914735E-16,-1.));
#629=DIRECTION('',(-1.,0.,0.));
#630=DIRECTION('',(0.,1.22464679914735E-16,-1.));
#631=DIRECTION('',(1.,0.,0.));
#632=DIRECTION('',(0.,-1.22464679914735E-16,1.));
#633=DIRECTION('',(-1.,0.,0.));
#634=DIRECTION('',(0.,-1.22464679914735E-16,1.));
#635=DIRECTION('',(-1.,0.,0.));
#636=DIRECTION('',(0.,-1.22464679914735E-16,1.));
#637=DIRECTION('',(1.,0.,0.));
#638=DIRECTION('',(0.,-1.22464679914735E-16,1.));
#639=DIRECTION('',(0.,1.22464679914735E-16,-1.));
#640=DIRECTION('',(1.,0.,0.));
#641=DIRECTION('',(0.,-1.22464679914735E-16,1.));
#642=DIRECTION('',(-1.,0.,0.));
#643=DIRECTION('',(0.,-1.22464679914735E-16,1.));
#644=DIRECTION('',(-1.,0.,0.));
#645=DIRECTION('',(0.,-1.22464679914735E-16,1.));
#646=DIRECTION('',(-1.,0.,0.));
#647=DIRECTION('',(0.,-1.22464679914735E-16,1.));
#648=DIRECTION('',(-1.,0.,0.));
#649=DIRECTION('',(1.,0.,0.));
#650=DIRECTION('',(0.,-1.,-1.22464679914735E-16));
#651=DIRECTION('',(0.,-1.22464679914735E-16,1.));
#652=DIRECTION('',(-1.,0.,0.));
#653=DIRECTION('',(1.33440267382831E-16,1.22464679914735E-16,-1.));
#654=DIRECTION('',(1.,-1.63417196327752E-32,1.33440267382831E-16));
#655=DIRECTION('',(0.,-1.22464679914735E-16,1.));
#656=DIRECTION('',(-1.,0.,0.));
#657=DIRECTION('',(0.,-1.22464679914735E-16,1.));
#658=DIRECTION('',(-1.,0.,0.));
#659=DIRECTION('',(0.,1.22464679914735E-16,-1.));
#660=DIRECTION('',(1.,0.,0.));
#661=DIRECTION('',(0.,-1.22464679914735E-16,1.));
#662=DIRECTION('',(-1.,0.,0.));
#663=DIRECTION('',(1.33440267382831E-16,1.22464679914735E-16,-1.));
#664=DIRECTION('',(1.,-1.63417196327752E-32,1.33440267382831E-16));
#665=DIRECTION('',(0.,-1.22464679914735E-16,1.));
#666=DIRECTION('',(-1.,0.,0.));
#667=DIRECTION('',(0.,-1.22464679914735E-16,1.));
#668=DIRECTION('',(-1.,0.,0.));
#669=DIRECTION('',(0.,1.22464679914735E-16,-1.));
#670=DIRECTION('',(1.,0.,0.));
#671=DIRECTION('',(1.,2.83256473634769E-32,-2.31296463463574E-16));
#672=DIRECTION('',(0.,-1.,-1.22464679914735E-16));
#673=DIRECTION('',(0.,1.,1.22464679914735E-16));
#674=DIRECTION('',(0.,-1.,-1.22464679914735E-16));
#675=DIRECTION('',(-2.31296463463574E-16,1.22464679914735E-16,-1.));
#676=DIRECTION('',(-0.970142500145332,-0.242535625036333,1.85712860477757E-16));
#677=DIRECTION('',(1.,-2.83256473634769E-32,2.31296463463574E-16));
#678=DIRECTION('',(0.,-1.,-1.22464679914735E-16));
#679=DIRECTION('',(0.,-1.,-1.22464679914735E-16));
#680=DIRECTION('',(-2.31296463463574E-16,-1.22464679914735E-16,1.));
#681=DIRECTION('',(-2.31296463463574E-16,-1.22464679914735E-16,1.));
#682=DIRECTION('',(0.,1.,1.22464679914735E-16));
#683=DIRECTION('',(1.,0.,0.));
#684=DIRECTION('',(1.,0.,0.));
#685=DIRECTION('',(1.,0.,0.));
#686=DIRECTION('',(0.,1.22464679914735E-16,-1.));
#687=DIRECTION('',(1.,0.,0.));
#688=DIRECTION('',(0.,-1.22464679914735E-16,1.));
#689=DIRECTION('',(1.,0.,0.));
#690=DIRECTION('',(1.33440267382831E-16,1.22464679914735E-16,-1.));
#691=DIRECTION('',(1.,-1.63417196327752E-32,1.33440267382831E-16));
#692=DIRECTION('',(1.,0.,0.));
#693=DIRECTION('',(0.,-1.,-1.22464679914735E-16));
#694=DIRECTION('',(0.,1.22464679914735E-16,-1.));
#695=DIRECTION('',(1.,0.,0.));
#696=DIRECTION('',(0.,-1.,-1.22464679914735E-16));
#697=DIRECTION('',(0.,1.22464679914735E-16,-1.));
#698=DIRECTION('',(1.,0.,0.));
#699=DIRECTION('',(0.,-1.22464679914735E-16,1.));
#700=DIRECTION('',(-1.,0.,0.));
#701=DIRECTION('',(1.,0.,0.));
#702=DIRECTION('',(0.,1.22464679914735E-16,-1.));
#703=DIRECTION('',(1.,0.,0.));
#704=DIRECTION('',(1.,0.,0.));
#705=DIRECTION('',(0.,-1.,-1.22464679914735E-16));
#706=DIRECTION('',(0.,1.22464679914735E-16,-1.));
#707=CARTESIAN_POINT('',(0.,0.,0.));
#708=CARTESIAN_POINT('',(0.025,0.03,-0.015));
#709=CARTESIAN_POINT('',(0.03,0.03,-0.015));
#710=CARTESIAN_POINT('',(0.03,0.03,-0.024));
#711=CARTESIAN_POINT('',(0.03,0.03,-0.0175));
#712=CARTESIAN_POINT('',(-0.143669358367395,0.03,-0.0175));
#713=CARTESIAN_POINT('',(0.05,0.03,-0.0175));
#714=CARTESIAN_POINT('',(0.05,0.03,-0.015));
#715=CARTESIAN_POINT('',(0.05,0.03,-0.024));
#716=CARTESIAN_POINT('',(0.025,0.03,-0.024));
#717=CARTESIAN_POINT('',(0.09,0.,-0.02));
#718=CARTESIAN_POINT('',(0.09,0.265191552511669,0.026));
#719=CARTESIAN_POINT('',(0.09,0.030397367362537,0.026));
#720=CARTESIAN_POINT('',(0.09,0.012,0.026));
#721=CARTESIAN_POINT('',(0.09,0.012,0.02175));
#722=CARTESIAN_POINT('',(0.09,0.012,0.0175));
#723=CARTESIAN_POINT('',(0.09,0.021,0.0175));
#724=CARTESIAN_POINT('',(0.09,0.03,0.0175));
#725=CARTESIAN_POINT('',(0.09,0.03,-1.46957615897682E-17));
#726=CARTESIAN_POINT('',(0.09,0.03,-0.0175));
#727=CARTESIAN_POINT('',(0.09,0.021,-0.0175));
#728=CARTESIAN_POINT('',(0.09,0.012,-0.0175));
#729=CARTESIAN_POINT('',(0.09,0.012,-0.02175));
#730=CARTESIAN_POINT('',(0.09,0.012,-0.026));
#731=CARTESIAN_POINT('',(0.09,0.265191552511669,-0.026));
#732=CARTESIAN_POINT('',(0.09,0.030397367362537,-0.026));
#733=CARTESIAN_POINT('',(0.09,0.,-2.0818995585505E-17));
#734=CARTESIAN_POINT('',(0.09,0.04,-2.03613004874162E-17));
#735=CARTESIAN_POINT('',(0.09,0.,-1.59204083889156E-17));
#736=CARTESIAN_POINT('',(0.087,0.015,-0.013));
#737=CARTESIAN_POINT('',(0.087,0.012,-0.013));
#738=CARTESIAN_POINT('',(0.087,0.012,-0.0175));
#739=CARTESIAN_POINT('',(0.087,0.012,-0.026));
#740=CARTESIAN_POINT('',(0.087,0.015,-0.0175));
#741=CARTESIAN_POINT('',(0.087,0.015,-0.0175));
#742=CARTESIAN_POINT('',(0.087,0.015,-0.013));
#743=CARTESIAN_POINT('',(0.087,0.015,-0.026));
#744=CARTESIAN_POINT('',(0.087,0.015,-0.026));
#745=CARTESIAN_POINT('',(0.087,0.015,-0.013));
#746=CARTESIAN_POINT('',(0.087,0.012,-0.013));
#747=CARTESIAN_POINT('',(0.087,0.012,0.026));
#748=CARTESIAN_POINT('',(0.087,0.012,0.0175));
#749=CARTESIAN_POINT('',(0.087,0.015,0.026));
#750=CARTESIAN_POINT('',(0.087,0.015,0.026));
#751=CARTESIAN_POINT('',(0.087,0.015,-0.013));
#752=CARTESIAN_POINT('',(0.087,0.015,0.0175));
#753=CARTESIAN_POINT('',(0.087,0.015,0.0175));
#754=CARTESIAN_POINT('',(0.0435,0.015,-0.017));
#755=CARTESIAN_POINT('',(0.0435,0.015,-0.0175));
#756=CARTESIAN_POINT('',(0.00401923788646683,0.015,-0.0175));
#757=CARTESIAN_POINT('',(0.00401923788646684,0.015,-0.015));
#758=CARTESIAN_POINT('',(0.00401923788646684,0.015,-0.024));
#759=CARTESIAN_POINT('',(0.054,0.015,-0.024));
#760=CARTESIAN_POINT('',(0.05,0.015,-0.024));
#761=CARTESIAN_POINT('',(0.05,0.015,-0.025));
#762=CARTESIAN_POINT('',(0.05,0.015,-0.026));
#763=CARTESIAN_POINT('',(0.074,0.015,-0.026));
#764=CARTESIAN_POINT('',(0.0435,0.015,-0.017));
#765=CARTESIAN_POINT('',(0.00401923788646684,0.015,0.015));
#766=CARTESIAN_POINT('',(0.00401923788646684,0.015,0.0175));
#767=CARTESIAN_POINT('',(0.00401923788646684,0.015,0.024));
#768=CARTESIAN_POINT('',(0.0435,0.015,0.0175));
#769=CARTESIAN_POINT('',(0.074,0.015,0.026));
#770=CARTESIAN_POINT('',(0.05,0.015,0.026));
#771=CARTESIAN_POINT('',(0.05,0.015,0.025));
#772=CARTESIAN_POINT('',(0.05,0.015,0.024));
#773=CARTESIAN_POINT('',(0.054,0.015,0.024));
#774=CARTESIAN_POINT('',(0.03,0.,-0.015));
#775=CARTESIAN_POINT('',(0.03,0.,-0.0175));
#776=CARTESIAN_POINT('',(0.03,0.,-0.024));
#777=CARTESIAN_POINT('',(0.03,0.,0.015));
#778=CARTESIAN_POINT('',(0.03,0.03,0.015));
#779=CARTESIAN_POINT('',(0.03,0.03,0.024));
#780=CARTESIAN_POINT('',(0.03,0.03,0.0175));
#781=CARTESIAN_POINT('',(0.03,0.,0.0175));
#782=CARTESIAN_POINT('',(0.03,0.,0.024));
#783=CARTESIAN_POINT('',(0.0470096189432334,0.265191552511669,0.026));
#784=CARTESIAN_POINT('',(0.082,0.023397367362537,0.026));
#785=CARTESIAN_POINT('',(0.08075,0.023397367362537,0.026));
#786=CARTESIAN_POINT('',(0.072,0.023397367362537,0.026));
#787=CARTESIAN_POINT('',(0.07075,0.023397367362537,0.026));
#788=CARTESIAN_POINT('',(-0.143669358367395,0.012,0.026));
#789=CARTESIAN_POINT('',(0.0646543403247443,0.0288528797983858,0.026));
#790=CARTESIAN_POINT('',(0.0731301609522523,0.0286603956451126,0.026));
#791=CARTESIAN_POINT('',(0.0815973645563064,0.029284492462189,0.026));
#792=CARTESIAN_POINT('',(0.09,0.030397367362537,0.026));
#793=CARTESIAN_POINT('',(0.0646542729391536,0.0288529021082643,0.0260000000001902));
#794=CARTESIAN_POINT('',(0.0500000000013571,0.0151370881446234,0.026));
#795=CARTESIAN_POINT('',(0.0550771254666933,0.0194984230710601,0.026));
#796=CARTESIAN_POINT('',(0.0599003243346618,0.0241425784324467,0.026));
#797=CARTESIAN_POINT('',(0.0646542055535444,0.0288529244190218,0.026));
#798=CARTESIAN_POINT('',(0.05,0.0151370881462032,0.0259999999975775));
#799=CARTESIAN_POINT('',(0.05,0.,0.026));
#800=CARTESIAN_POINT('',(0.072,0.023397367362537,-0.207669358367395));
#801=CARTESIAN_POINT('',(0.072,0.023397367362537,-0.026));
#802=CARTESIAN_POINT('',(0.07325,0.023397367362537,-0.026));
#803=CARTESIAN_POINT('',(0.072,0.023397367362537,-0.0175));
#804=CARTESIAN_POINT('',(0.07075,0.023397367362537,-0.0175));
#805=CARTESIAN_POINT('',(0.072,0.023397367362537,-0.207669358367395));
#806=CARTESIAN_POINT('',(0.072,0.023397367362537,0.0175));
#807=CARTESIAN_POINT('',(0.07325,0.023397367362537,0.0175));
#808=CARTESIAN_POINT('',(0.082,0.023397367362537,-0.207669358367395));
#809=CARTESIAN_POINT('',(0.082,0.023397367362537,-0.026));
#810=CARTESIAN_POINT('',(0.08325,0.023397367362537,-0.026));
#811=CARTESIAN_POINT('',(0.082,0.023397367362537,-0.0175));
#812=CARTESIAN_POINT('',(0.08075,0.023397367362537,-0.0175));
#813=CARTESIAN_POINT('',(0.082,0.023397367362537,-0.207669358367395));
#814=CARTESIAN_POINT('',(0.082,0.023397367362537,0.0175));
#815=CARTESIAN_POINT('',(0.08325,0.023397367362537,0.0175));
#816=CARTESIAN_POINT('',(0.05,0.,-0.015));
#817=CARTESIAN_POINT('',(0.05,0.,-0.026));
#818=CARTESIAN_POINT('',(0.05,0.0151370855342304,-0.0259999985662159));
#819=CARTESIAN_POINT('',(0.05,0.126895775404495,-0.024));
#820=CARTESIAN_POINT('',(0.05,0.0161830220772445,-0.024));
#821=CARTESIAN_POINT('',(0.05,0.0161830220772445,-0.0240000000212219));
#822=CARTESIAN_POINT('',(0.05,0.0159045719323051,-0.0245819322010291));
#823=CARTESIAN_POINT('',(0.05,0.015555925551231,-0.0252485978995604));
#824=CARTESIAN_POINT('',(0.05,0.0151370829340222,-0.0259999971168159));
#825=CARTESIAN_POINT('',(0.090240001338806,0.0400600003347015,-2.23988420682948E-17));
#826=CARTESIAN_POINT('',(0.09,0.04,-2.23528989876221E-17));
#827=CARTESIAN_POINT('',(0.05,0.03,-1.46957615897682E-17));
#828=CARTESIAN_POINT('',(0.090240001338806,0.0400600003347015,-0.000874150745232164));
#829=CARTESIAN_POINT('',(0.09,0.04,-0.000872664748452075));
#830=CARTESIAN_POINT('',(0.05,0.03,-0.000625000000000014));
#831=CARTESIAN_POINT('',(0.090240001338806,0.0400312608521592,-0.00174830097564948));
#832=CARTESIAN_POINT('',(0.09,0.0399714319268528,-0.00174532898515979));
#833=CARTESIAN_POINT('',(0.05,0.03,-0.00125000000000001));
#834=CARTESIAN_POINT('',(0.090240001338806,0.0399164259537536,-0.00349284291440361));
#835=CARTESIAN_POINT('',(0.09,0.0398572819322355,-0.00348692135325169));
#836=CARTESIAN_POINT('',(0.05,0.03,-0.0025));
#837=CARTESIAN_POINT('',(0.090240001338806,0.0398303305730032,-0.00436323396382912));
#838=CARTESIAN_POINT('',(0.09,0.0397717000456689,-0.0043558488296545));
#839=CARTESIAN_POINT('',(0.05,0.03,-0.003125));
#840=CARTESIAN_POINT('',(0.090240001338806,0.0396011525168567,-0.00609651408451306));
#841=CARTESIAN_POINT('',(0.09,0.0395438888642359,-0.00608624654794968));
#842=CARTESIAN_POINT('',(0.05,0.03,-0.004375));
#843=CARTESIAN_POINT('',(0.090240001338806,0.0394580699115362,-0.00695940262349333));
#844=CARTESIAN_POINT('',(0.09,0.0394016596390271,-0.00694771626073854));
#845=CARTESIAN_POINT('',(0.05,0.03,-0.005));
#846=CARTESIAN_POINT('',(0.090240001338806,0.0391155300732692,-0.00867396663820172));
#847=CARTESIAN_POINT('',(0.09,0.0390611627932314,-0.00865950950055176));
#848=CARTESIAN_POINT('',(0.05,0.03,-0.00625));
#849=CARTESIAN_POINT('',(0.090240001338806,0.038916072945061,-0.00952564158737452));
#850=CARTESIAN_POINT('',(0.09,0.038862895276758,-0.00950983250416131));
#851=CARTESIAN_POINT('',(0.05,0.03,-0.006875));
#852=CARTESIAN_POINT('',(0.090240001338806,0.0384616381328488,-0.0112141153534411));
#853=CARTESIAN_POINT('',(0.09,0.0384111708263674,-0.0111956911040404));
#854=CARTESIAN_POINT('',(0.05,0.03,-0.008125));
#855=CARTESIAN_POINT('',(0.090240001338806,0.0382066605877971,-0.0120509136517573));
#856=CARTESIAN_POINT('',(0.09,0.0381577140305738,-0.0120312261848252));
#857=CARTESIAN_POINT('',(0.05,0.03,-0.00875));
#858=CARTESIAN_POINT('',(0.090240001338806,0.0376422767612715,-0.0137060347489661));
#859=CARTESIAN_POINT('',(0.09,0.0375966963290347,-0.0136839310394278));
#860=CARTESIAN_POINT('',(0.05,0.03,-0.01));
#861=CARTESIAN_POINT('',(0.090240001338806,0.0373328706523691,-0.0145243570394793));
#862=CARTESIAN_POINT('',(0.09,0.0372891355948317,-0.0145011003078982));
#863=CARTESIAN_POINT('',(0.05,0.03,-0.010625));
#864=CARTESIAN_POINT('',(0.090240001338806,0.0366609545897212,-0.0161390058688626));
#865=CARTESIAN_POINT('',(0.09,0.0366212270060713,-0.016113574281309));
#866=CARTESIAN_POINT('',(0.05,0.03,-0.011875));
#867=CARTESIAN_POINT('',(0.090240001338806,0.0362984448414273,-0.0169353319117284));
#868=CARTESIAN_POINT('',(0.09,0.0362608793557403,-0.0169088784932034));
#869=CARTESIAN_POINT('',(0.05,0.03,-0.0125));
#870=CARTESIAN_POINT('',(0.090240001338806,0.0355218737903917,-0.0185025621827829));
#871=CARTESIAN_POINT('',(0.09,0.0354889399668748,-0.0184742167243167));
#872=CARTESIAN_POINT('',(0.05,0.03,-0.01375));
#873=CARTESIAN_POINT('',(0.090240001338806,0.035107812725102,-0.0192734659294664));
#874=CARTESIAN_POINT('',(0.09,0.0350773484643761,-0.0192442502649025));
#875=CARTESIAN_POINT('',(0.05,0.03,-0.014375));
#876=CARTESIAN_POINT('',(0.090240001338806,0.0342299120821406,-0.0207865344052351));
#877=CARTESIAN_POINT('',(0.09,0.034204683838379,-0.0207557497350976));
#878=CARTESIAN_POINT('',(0.05,0.03,-0.015625));
#879=CARTESIAN_POINT('',(0.090240001338806,0.0337660727729045,-0.0215286986693764));
#880=CARTESIAN_POINT('',(0.09,0.033743610981715,-0.0214972152025361));
#881=CARTESIAN_POINT('',(0.05,0.03,-0.01625));
#882=CARTESIAN_POINT('',(0.090240001338806,0.0327906018433483,-0.0229810940420252));
#883=CARTESIAN_POINT('',(0.09,0.0327739580024886,-0.0229484034390321));
#884=CARTESIAN_POINT('',(0.05,0.03,-0.0175));
#885=CARTESIAN_POINT('',(0.090240001338806,0.0322789705212978,-0.0236913247041407));
#886=CARTESIAN_POINT('',(0.09,0.0322653781764168,-0.02365812576436));
#887=CARTESIAN_POINT('',(0.05,0.03,-0.018125));
#888=CARTESIAN_POINT('',(0.090240001338806,0.0312101064214242,-0.0250767954773775));
#889=CARTESIAN_POINT('',(0.09,0.031202889046882,-0.0250427885563377));
#890=CARTESIAN_POINT('',(0.05,0.03,-0.019375));
#891=CARTESIAN_POINT('',(0.090240001338806,0.0306528739704274,-0.0257520351625702));
#892=CARTESIAN_POINT('',(0.09,0.0306489800682962,-0.0257177285995993));
#893=CARTESIAN_POINT('',(0.05,0.03,-0.02));
#894=CARTESIAN_POINT('',(0.090240001338806,0.029495193740407,-0.027064616421512));
#895=CARTESIAN_POINT('',(0.09,0.029498204530022,-0.0270299366084062));
#896=CARTESIAN_POINT('',(0.05,0.03,-0.02125));
#897=CARTESIAN_POINT('',(0.090240001338806,0.028894746315367,-0.0277019575916199));
#898=CARTESIAN_POINT('',(0.09,0.0289013383222061,-0.0276672041727177));
#899=CARTESIAN_POINT('',(0.05,0.03,-0.021875));
#900=CARTESIAN_POINT('',(0.090240001338806,0.0277296861218096,-0.0288599797459169));
#901=CARTESIAN_POINT('',(0.09,0.0277432268363262,-0.0288253156585977));
#902=CARTESIAN_POINT('',(0.05,0.03,-0.023048));
#903=CARTESIAN_POINT('',(0.090240001338806,0.0271697725505809,-0.0293853592559216));
#904=CARTESIAN_POINT('',(0.09,0.0271866527283738,-0.0293508300828097));
#905=CARTESIAN_POINT('',(0.05,0.03,-0.023596));
#906=CARTESIAN_POINT('',(0.090240001338806,0.026595161078295,-0.0298942492654396));
#907=CARTESIAN_POINT('',(0.09,0.0266154683812881,-0.0298599533540018));
#908=CARTESIAN_POINT('',(0.05,0.03,-0.024144));
#909=CARTESIAN_POINT('',(0.09,0.030397367362537,-0.026));
#910=CARTESIAN_POINT('',(0.0815973456727743,0.0292844899611869,-0.026));
#911=CARTESIAN_POINT('',(0.073130179850092,0.0286603952159465,-0.026));
#912=CARTESIAN_POINT('',(0.0646543403247443,0.0288528797983858,-0.026));
#913=CARTESIAN_POINT('',(0.0646542729391536,0.0288529021082643,-0.0260000000001903));
#914=CARTESIAN_POINT('',(0.0646542103139143,0.0288528798450497,-0.0260000074940498));
#915=CARTESIAN_POINT('',(0.0644779366953023,0.029120185574524,-0.0253209790843292));
#916=CARTESIAN_POINT('',(0.0643118853038114,0.0293620354295339,-0.0246533552267482));
#917=CARTESIAN_POINT('',(0.0641560561394416,0.0295823328058346,-0.0240000000306667));
#918=CARTESIAN_POINT('',(0.0641560562861391,0.0295823328192485,-0.024));
#919=CARTESIAN_POINT('',(0.0641560562861391,0.0295823328192485,-0.024));
#920=CARTESIAN_POINT('',(0.0594304805604836,0.0294880213470166,-0.024));
#921=CARTESIAN_POINT('',(0.0547115513037262,0.029618979640187,-0.024));
#922=CARTESIAN_POINT('',(0.05,0.03,-0.024));
#923=CARTESIAN_POINT('',(0.05,0.03,-0.015));
#924=CARTESIAN_POINT('',(0.05,0.03,-1.46957615897682E-17));
#925=CARTESIAN_POINT('',(0.07,0.035,-1.85243302886952E-17));
#926=CARTESIAN_POINT('',(0.0664328730584523,0.0257881993707304,-0.0320893511565221));
#927=CARTESIAN_POINT('',(0.0664056356360321,0.0258350740104774,-0.032015937422759));
#928=CARTESIAN_POINT('',(0.0663780873329531,0.0258826813528771,-0.0319408903627778));
#929=CARTESIAN_POINT('',(0.0662985798119094,0.0260354985262404,-0.0316952353196115));
#930=CARTESIAN_POINT('',(0.0662485222617437,0.0261331018205083,-0.0315347533166143));
#931=CARTESIAN_POINT('',(0.0661501724298973,0.0263202668911363,-0.0312217801257628));
#932=CARTESIAN_POINT('',(0.0661012831063034,0.0264122403518749,-0.0310650732120794));
#933=CARTESIAN_POINT('',(0.0659555164123382,0.0266834690963063,-0.0305943642505449));
#934=CARTESIAN_POINT('',(0.0658595371306563,0.0268580481009624,-0.0302797467067385));
#935=CARTESIAN_POINT('',(0.0656702044695574,0.0271953720720138,-0.0296493414824526));
#936=CARTESIAN_POINT('',(0.0655768567546183,0.0273580955155402,-0.0293336007497422));
#937=CARTESIAN_POINT('',(0.0653010151852504,0.0278295408941899,-0.0283851237841132));
#938=CARTESIAN_POINT('',(0.0651227294159954,0.0281215644563345,-0.027751106338608));
#939=CARTESIAN_POINT('',(0.0646645377245779,0.0288462951544901,-0.0260621120559955));
#940=CARTESIAN_POINT('',(0.064395481417785,0.0292444367797195,-0.0250061033059524));
#941=CARTESIAN_POINT('',(0.0641444471316032,0.0295987245144243,-0.0239512702517174));
#942=CARTESIAN_POINT('',(0.05,0.0151174752840978,-0.0260345914672264));
#943=CARTESIAN_POINT('',(0.05,0.0151569694748092,-0.025964970945326));
#944=CARTESIAN_POINT('',(0.05,0.0151963726572609,-0.0258953005997122));
#945=CARTESIAN_POINT('',(0.05,0.015299113430607,-0.0257127763726548));
#946=CARTESIAN_POINT('',(0.05,0.015361746000073,-0.0255995971602995));
#947=CARTESIAN_POINT('',(0.05,0.0154855507597852,-0.0253726063572328));
#948=CARTESIAN_POINT('',(0.05,0.0155466864438946,-0.0252587754161647));
#949=CARTESIAN_POINT('',(0.05,0.0157278492806988,-0.024916300426259));
#950=CARTESIAN_POINT('',(0.05,0.0158456327689785,-0.0246866744519095));
#951=CARTESIAN_POINT('',(0.05,0.0160754923354165,-0.0242249246913404));
#952=CARTESIAN_POINT('',(0.05,0.0161875690608684,-0.0239928011884075));
#953=CARTESIAN_POINT('',(0.05,0.0165156300531128,-0.0232928554879408));
#954=CARTESIAN_POINT('',(0.05,0.0167234453392031,-0.0228214579809897));
#955=CARTESIAN_POINT('',(0.05,0.0172501139595484,-0.0215550061108738));
#956=CARTESIAN_POINT('',(0.05,0.0175514356574034,-0.020752276370776));
#957=CARTESIAN_POINT('',(0.05,0.0178286547288882,-0.0199390022695626));
#958=CARTESIAN_POINT('',(0.0499014014631461,0.0150534500963919,-0.0259982624306518));
#959=CARTESIAN_POINT('',(0.0499015648898329,0.015092900003826,-0.0259286646683223));
#960=CARTESIAN_POINT('',(0.0499017301818282,0.0151322539606697,-0.0258590265834196));
#961=CARTESIAN_POINT('',(0.0499022072332371,0.0152346942716587,-0.0256768811462473));
#962=CARTESIAN_POINT('',(0.0499025075824935,0.0152971170140126,-0.0255639857543737));
#963=CARTESIAN_POINT('',(0.0499030976892561,0.0154205416068526,-0.0253375108524279));
#964=CARTESIAN_POINT('',(0.0499033910290608,0.0154814922618655,-0.0252239371705835));
#965=CARTESIAN_POINT('',(0.0499042656407429,0.015662114696107,-0.0248822315946404));
#966=CARTESIAN_POINT('',(0.0499048415240171,0.0157795574068006,-0.0246531155764236));
#967=CARTESIAN_POINT('',(0.0499059775349445,0.0160087721783193,-0.0241923777619638));
#968=CARTESIAN_POINT('',(0.0499065376286104,0.0161205450194606,-0.0239607559690169));
#969=CARTESIAN_POINT('',(0.0499081926998232,0.0164477456940566,-0.0232623014757797));
#970=CARTESIAN_POINT('',(0.0499092624285266,0.0166550557238365,-0.0227918797013099));
#971=CARTESIAN_POINT('',(0.0499120116148808,0.0171805359560644,-0.0215279631190577));
#972=CARTESIAN_POINT('',(0.049913625973982,0.0174812767267045,-0.0207267530730334));
#973=CARTESIAN_POINT('',(0.0499151321995355,0.0177580333801201,-0.0199149283446257));
#974=CARTESIAN_POINT('',(0.0646542055535474,0.0288529244190174,-0.0260000000000043));
#975=CARTESIAN_POINT('',(0.059900330085186,0.0241425841303012,-0.0260000000000043));
#976=CARTESIAN_POINT('',(0.0550771050507874,0.0194984054278656,-0.026));
#977=CARTESIAN_POINT('',(0.0499999987103072,0.0151370870355901,-0.026));
#978=CARTESIAN_POINT('',(0.0641560567526323,0.0295823267126857,-0.024));
#979=CARTESIAN_POINT('',(0.0595481807969244,0.0250001118952128,-0.024));
#980=CARTESIAN_POINT('',(0.0548764293595688,0.020478719868531,-0.024));
#981=CARTESIAN_POINT('',(0.0499999999949633,0.0161830220829622,-0.024));
#982=CARTESIAN_POINT('',(0.05,0.,0.015));
#983=CARTESIAN_POINT('',(0.05,0.0161830220772445,0.0240000000212219));
#984=CARTESIAN_POINT('',(0.05,0.0159045719346231,0.0245819321961847));
#985=CARTESIAN_POINT('',(0.05,0.0155559255570357,0.0252485978884609));
#986=CARTESIAN_POINT('',(0.05,0.0151370829444824,0.0259999970980504));
#987=CARTESIAN_POINT('',(0.0500000000005507,0.0161830220381656,0.024000000099662));
#988=CARTESIAN_POINT('',(0.05,0.126895775404495,0.024));
#989=CARTESIAN_POINT('',(0.090240001338806,0.0400600003347015,-4.52869166937898E-18));
#990=CARTESIAN_POINT('',(0.09,0.04,-4.58933059361963E-18));
#991=CARTESIAN_POINT('',(0.05,0.03,-1.46957615897682E-17));
#992=CARTESIAN_POINT('',(0.090240001338806,0.0400600003347015,0.000874150745232137));
#993=CARTESIAN_POINT('',(0.09,0.04,0.000872664748452048));
#994=CARTESIAN_POINT('',(0.05,0.03,0.000624999999999985));
#995=CARTESIAN_POINT('',(0.090240001338806,0.0400312608521592,0.00174830097564946));
#996=CARTESIAN_POINT('',(0.09,0.0399714319268528,0.00174532898515976));
#997=CARTESIAN_POINT('',(0.05,0.03,0.00124999999999998));
#998=CARTESIAN_POINT('',(0.090240001338806,0.0399164259537536,0.00349284291440358));
#999=CARTESIAN_POINT('',(0.09,0.0398572819322355,0.00348692135325166));
#1000=CARTESIAN_POINT('',(0.05,0.03,0.0025));
#1001=CARTESIAN_POINT('',(0.090240001338806,0.0398303305730032,0.0043632339638291));
#1002=CARTESIAN_POINT('',(0.09,0.0397717000456689,0.00435584882965448));
#1003=CARTESIAN_POINT('',(0.05,0.03,0.003125));
#1004=CARTESIAN_POINT('',(0.090240001338806,0.0396011525168567,0.00609651408451302));
#1005=CARTESIAN_POINT('',(0.09,0.0395438888642359,0.00608624654794965));
#1006=CARTESIAN_POINT('',(0.05,0.03,0.004375));
#1007=CARTESIAN_POINT('',(0.090240001338806,0.0394580699115362,0.00695940262349331));
#1008=CARTESIAN_POINT('',(0.09,0.0394016596390271,0.00694771626073852));
#1009=CARTESIAN_POINT('',(0.05,0.03,0.005));
#1010=CARTESIAN_POINT('',(0.090240001338806,0.0391155300732692,0.00867396663820169));
#1011=CARTESIAN_POINT('',(0.09,0.0390611627932314,0.00865950950055174));
#1012=CARTESIAN_POINT('',(0.05,0.03,0.00625));
#1013=CARTESIAN_POINT('',(0.090240001338806,0.038916072945061,0.00952564158737449));
#1014=CARTESIAN_POINT('',(0.09,0.038862895276758,0.00950983250416128));
#1015=CARTESIAN_POINT('',(0.05,0.03,0.006875));
#1016=CARTESIAN_POINT('',(0.090240001338806,0.0384616381328487,0.0112141153534411));
#1017=CARTESIAN_POINT('',(0.09,0.0384111708263674,0.0111956911040404));
#1018=CARTESIAN_POINT('',(0.05,0.03,0.008125));
#1019=CARTESIAN_POINT('',(0.090240001338806,0.0382066605877971,0.0120509136517572));
#1020=CARTESIAN_POINT('',(0.09,0.0381577140305738,0.0120312261848252));
#1021=CARTESIAN_POINT('',(0.05,0.03,0.00875));
#1022=CARTESIAN_POINT('',(0.090240001338806,0.0376422767612715,0.013706034748966));
#1023=CARTESIAN_POINT('',(0.09,0.0375966963290347,0.0136839310394277));
#1024=CARTESIAN_POINT('',(0.05,0.03,0.01));
#1025=CARTESIAN_POINT('',(0.090240001338806,0.0373328706523691,0.0145243570394792));
#1026=CARTESIAN_POINT('',(0.09,0.0372891355948317,0.0145011003078982));
#1027=CARTESIAN_POINT('',(0.05,0.03,0.010625));
#1028=CARTESIAN_POINT('',(0.090240001338806,0.0366609545897212,0.0161390058688626));
#1029=CARTESIAN_POINT('',(0.09,0.0366212270060713,0.016113574281309));
#1030=CARTESIAN_POINT('',(0.05,0.03,0.011875));
#1031=CARTESIAN_POINT('',(0.090240001338806,0.0362984448414273,0.0169353319117284));
#1032=CARTESIAN_POINT('',(0.09,0.0362608793557403,0.0169088784932034));
#1033=CARTESIAN_POINT('',(0.05,0.03,0.0125));
#1034=CARTESIAN_POINT('',(0.090240001338806,0.0355218737903917,0.0185025621827828));
#1035=CARTESIAN_POINT('',(0.09,0.0354889399668748,0.0184742167243167));
#1036=CARTESIAN_POINT('',(0.05,0.03,0.01375));
#1037=CARTESIAN_POINT('',(0.090240001338806,0.035107812725102,0.0192734659294664));
#1038=CARTESIAN_POINT('',(0.09,0.0350773484643761,0.0192442502649024));
#1039=CARTESIAN_POINT('',(0.05,0.03,0.014375));
#1040=CARTESIAN_POINT('',(0.090240001338806,0.0342299120821406,0.0207865344052351));
#1041=CARTESIAN_POINT('',(0.09,0.034204683838379,0.0207557497350976));
#1042=CARTESIAN_POINT('',(0.05,0.03,0.015625));
#1043=CARTESIAN_POINT('',(0.090240001338806,0.0337660727729045,0.0215286986693764));
#1044=CARTESIAN_POINT('',(0.09,0.033743610981715,0.0214972152025361));
#1045=CARTESIAN_POINT('',(0.05,0.03,0.01625));
#1046=CARTESIAN_POINT('',(0.090240001338806,0.0327906018433483,0.0229810940420252));
#1047=CARTESIAN_POINT('',(0.09,0.0327739580024886,0.0229484034390321));
#1048=CARTESIAN_POINT('',(0.05,0.03,0.0175));
#1049=CARTESIAN_POINT('',(0.090240001338806,0.0322789705212978,0.0236913247041407));
#1050=CARTESIAN_POINT('',(0.09,0.0322653781764168,0.02365812576436));
#1051=CARTESIAN_POINT('',(0.05,0.03,0.018125));
#1052=CARTESIAN_POINT('',(0.090240001338806,0.0312101064214242,0.0250767954773774));
#1053=CARTESIAN_POINT('',(0.09,0.031202889046882,0.0250427885563376));
#1054=CARTESIAN_POINT('',(0.05,0.03,0.019375));
#1055=CARTESIAN_POINT('',(0.090240001338806,0.0306528739704274,0.0257520351625702));
#1056=CARTESIAN_POINT('',(0.09,0.0306489800682962,0.0257177285995993));
#1057=CARTESIAN_POINT('',(0.05,0.03,0.02));
#1058=CARTESIAN_POINT('',(0.090240001338806,0.029495193740407,0.027064616421512));
#1059=CARTESIAN_POINT('',(0.09,0.029498204530022,0.0270299366084062));
#1060=CARTESIAN_POINT('',(0.05,0.03,0.02125));
#1061=CARTESIAN_POINT('',(0.090240001338806,0.028894746315367,0.0277019575916199));
#1062=CARTESIAN_POINT('',(0.09,0.0289013383222061,0.0276672041727177));
#1063=CARTESIAN_POINT('',(0.05,0.03,0.021875));
#1064=CARTESIAN_POINT('',(0.090240001338806,0.0277296861218096,0.0288599797459168));
#1065=CARTESIAN_POINT('',(0.09,0.0277432268363262,0.0288253156585976));
#1066=CARTESIAN_POINT('',(0.05,0.03,0.023048));
#1067=CARTESIAN_POINT('',(0.090240001338806,0.0271697725505809,0.0293853592559216));
#1068=CARTESIAN_POINT('',(0.09,0.0271866527283738,0.0293508300828097));
#1069=CARTESIAN_POINT('',(0.05,0.03,0.023596));
#1070=CARTESIAN_POINT('',(0.090240001338806,0.026595161078295,0.0298942492654395));
#1071=CARTESIAN_POINT('',(0.09,0.0266154683812881,0.0298599533540017));
#1072=CARTESIAN_POINT('',(0.05,0.03,0.024144));
#1073=CARTESIAN_POINT('',(0.0641560564343568,0.02958233238891,0.0240000012671764));
#1074=CARTESIAN_POINT('',(0.0643118855127906,0.0293620351250591,0.0246533560669329));
#1075=CARTESIAN_POINT('',(0.0644779368059765,0.0291201854066949,0.0253209795106601));
#1076=CARTESIAN_POINT('',(0.0646542103139143,0.0288528798450497,0.0260000074940498));
#1077=CARTESIAN_POINT('',(0.0641560565420072,0.0295823290877248,0.0240000001283312));
#1078=CARTESIAN_POINT('',(0.05,0.03,0.015));
#1079=CARTESIAN_POINT('',(0.05,0.03,0.0175));
#1080=CARTESIAN_POINT('',(0.05,0.03,0.015));
#1081=CARTESIAN_POINT('',(0.05,0.03,0.024));
#1082=CARTESIAN_POINT('',(0.0641560564674624,0.0295823328228673,0.024));
#1083=CARTESIAN_POINT('',(0.0594304806813462,0.0294880213437484,0.024));
#1084=CARTESIAN_POINT('',(0.0547115513641407,0.0296189796353013,0.024));
#1085=CARTESIAN_POINT('',(0.05,0.03,0.024));
#1086=CARTESIAN_POINT('',(0.0664328728847423,0.0257881996696792,0.0320893506883169));
#1087=CARTESIAN_POINT('',(0.0664056355189036,0.0258350742128919,0.0320159371036776));
#1088=CARTESIAN_POINT('',(0.0663780872683831,0.0258826814769838,0.0319408901632751));
#1089=CARTESIAN_POINT('',(0.0662985798119094,0.0260354985262404,0.0316952353196115));
#1090=CARTESIAN_POINT('',(0.0662485222617437,0.0261331018205083,0.0315347533166143));
#1091=CARTESIAN_POINT('',(0.0661501724298973,0.0263202668911363,0.0312217801257627));
#1092=CARTESIAN_POINT('',(0.0661012831063034,0.0264122403518749,0.0310650732120793));
#1093=CARTESIAN_POINT('',(0.0659555164123382,0.0266834690963063,0.0305943642505449));
#1094=CARTESIAN_POINT('',(0.0658595371306563,0.0268580481009624,0.0302797467067384));
#1095=CARTESIAN_POINT('',(0.0656702044695574,0.0271953720720138,0.0296493414824526));
#1096=CARTESIAN_POINT('',(0.0655768567546183,0.0273580955155402,0.0293336007497422));
#1097=CARTESIAN_POINT('',(0.0653010151852504,0.0278295408941899,0.0283851237841132));
#1098=CARTESIAN_POINT('',(0.0651227294159954,0.0281215644563345,0.0277511063386079));
#1099=CARTESIAN_POINT('',(0.0646645377249152,0.0288462951539566,0.0260621120572388));
#1100=CARTESIAN_POINT('',(0.0643954814184195,0.0292444367787807,0.0250061033084425));
#1101=CARTESIAN_POINT('',(0.0641444471324912,0.0295987245131712,0.0239512702554484));
#1102=CARTESIAN_POINT('',(0.05,0.0151174755359768,0.0260345910232129));
#1103=CARTESIAN_POINT('',(0.05,0.0151569696423417,0.0259649706491052));
#1104=CARTESIAN_POINT('',(0.05,0.0151963727406993,0.0258953004514797));
#1105=CARTESIAN_POINT('',(0.05,0.015299113430607,0.0257127763726548));
#1106=CARTESIAN_POINT('',(0.05,0.015361746000073,0.0255995971602994));
#1107=CARTESIAN_POINT('',(0.05,0.0154855507597852,0.0253726063572327));
#1108=CARTESIAN_POINT('',(0.05,0.0155466864438946,0.0252587754161647));
#1109=CARTESIAN_POINT('',(0.05,0.0157278492806988,0.024916300426259));
#1110=CARTESIAN_POINT('',(0.05,0.0158456327689785,0.0246866744519094));
#1111=CARTESIAN_POINT('',(0.05,0.0160754923354165,0.0242249246913404));
#1112=CARTESIAN_POINT('',(0.05,0.0161875690608684,0.0239928011884075));
#1113=CARTESIAN_POINT('',(0.05,0.0165156300531128,0.0232928554879408));
#1114=CARTESIAN_POINT('',(0.05,0.0167234453392031,0.0228214579809896));
#1115=CARTESIAN_POINT('',(0.05,0.0172501139591608,0.021555006111806));
#1116=CARTESIAN_POINT('',(0.05,0.0175514356566929,0.0207522763726688));
#1117=CARTESIAN_POINT('',(0.05,0.0178286547279076,0.0199390022724392));
#1118=CARTESIAN_POINT('',(0.0499999999949633,0.0161830220829622,0.024));
#1119=CARTESIAN_POINT('',(0.0548764293595688,0.020478719868531,0.024));
#1120=CARTESIAN_POINT('',(0.0595481807969244,0.0250001118952128,0.024));
#1121=CARTESIAN_POINT('',(0.0641560567526323,0.0295823267126857,0.024));
#1122=CARTESIAN_POINT('',(0.025,0.03,-0.015));
#1123=CARTESIAN_POINT('',(-0.143669358367395,0.03,0.0175));
#1124=CARTESIAN_POINT('',(0.025,0.03,0.024));
#1125=CARTESIAN_POINT('',(0.0135,0.015,-0.024));
#1126=CARTESIAN_POINT('',(0.0135,0.015,0.024));
#1127=CARTESIAN_POINT('',(0.074,0.265191552511669,-0.026));
#1128=CARTESIAN_POINT('',(-0.143669358367395,0.012,-0.026));
#1129=CARTESIAN_POINT('',(-0.143669358367395,0.012,0.02175));
#1130=CARTESIAN_POINT('',(-0.143669358367395,0.012,0.0175));
#1131=CARTESIAN_POINT('',(-0.143669358367395,0.012,-0.02175));
#1132=CARTESIAN_POINT('',(-0.143669358367395,0.012,-0.0175));
#1133=CARTESIAN_POINT('',(-0.143669358367395,0.021,-0.0175));
#1134=CARTESIAN_POINT('',(-0.143669358367395,0.03,-0.0175));
#1135=CARTESIAN_POINT('',(-0.143669358367395,0.021,0.0175));
#1136=CARTESIAN_POINT('',(-0.143669358367395,0.03,0.0175));
#1137=CARTESIAN_POINT('',(-0.143669358367395,0.03,-1.46957615897682E-17));
#1138=MECHANICAL_DESIGN_GEOMETRIC_PRESENTATION_REPRESENTATION('',(#533),
#1139);
#1139=(
GEOMETRIC_REPRESENTATION_CONTEXT(3)
GLOBAL_UNCERTAINTY_ASSIGNED_CONTEXT((#1140))
GLOBAL_UNIT_ASSIGNED_CONTEXT((#1143,#1142,#1141))
REPRESENTATION_CONTEXT('Part 2','TOP_LEVEL_ASSEMBLY_PART')
);
#1140=UNCERTAINTY_MEASURE_WITH_UNIT(LENGTH_MEASURE(2.01813047561975E-5),
#1143,'DISTANCE_ACCURACY_VALUE','Maximum Tolerance applied to model');
#1141=(
NAMED_UNIT(*)
SI_UNIT($,.STERADIAN.)
SOLID_ANGLE_UNIT()
);
#1142=(
NAMED_UNIT(*)
PLANE_ANGLE_UNIT()
SI_UNIT($,.RADIAN.)
);
#1143=(
LENGTH_UNIT()
NAMED_UNIT(*)
SI_UNIT($,.METRE.)
);
#1144=PRODUCT_DEFINITION_SHAPE('','',#1145);
#1145=PRODUCT_DEFINITION('','',#1147,#1146);
#1146=PRODUCT_DEFINITION_CONTEXT('',#1153,'design');
#1147=PRODUCT_DEFINITION_FORMATION_WITH_SPECIFIED_SOURCE('','',#1149,
 .NOT_KNOWN.);
#1148=PRODUCT_RELATED_PRODUCT_CATEGORY('','',(#1149));
#1149=PRODUCT('Part 2','Part 2','Part 2',(#1151));
#1150=PRODUCT_CATEGORY('','');
#1151=PRODUCT_CONTEXT('',#1153,'mechanical');
#1152=APPLICATION_PROTOCOL_DEFINITION('international standard',
'ap242_managed_model_based_3d_engineering',2020,#1153);
#1153=APPLICATION_CONTEXT('managed model based 3d engineering');
ENDSEC;
END-ISO-10303-21;
