ISO-10303-21;
HEADER;
/* Generated by software containing ST-Developer
 * from STEP Tools, Inc. (www.steptools.com) 
 */
/* OPTION: using custom renumber hook */

FILE_DESCRIPTION(
/* description */ ('STEP AP242 Edition 2',
'CAx-IF Rec.Pracs.---Representation and Presentation of Product Manufa
cturing Information (PMI)---4.0---2014-10-13',
'CAx-IF Rec.Pracs.---3D Tessellated Geometry---0.4---2014-09-14','2;1',
'CAx-IF Rec.Pracs.---User Defined Attributes---1.5---2016-08-15'),
/* implementation_level */ '2;1');

FILE_NAME(
/* name */ 'Finger_tip',
/* time_stamp */ '2026-05-19T16:26:45Z',
/* author */ (''),
/* organization */ (''),
/* preprocessor_version */ 'ST-DEVELOPER v20',
/* originating_system */ 'ONSHAPE BY PTC INC, 1.215',
/* authorisation */ '  ');

FILE_SCHEMA (('AP242_MANAGED_MODEL_BASED_3D_ENGINEERING_MIM_LF { 1 0 10303 442 3 1 4 }'));
ENDSEC;

DATA;
#10=SHAPE_REPRESENTATION_RELATIONSHIP('','',#931,#11);
#11=ADVANCED_BREP_SHAPE_REPRESENTATION('',(#929),#1511);
#12=TOROIDAL_SURFACE('',#982,0.011,0.004);
#13=TOROIDAL_SURFACE('',#987,0.011,0.004);
#14=B_SPLINE_CURVE_WITH_KNOTS('',3,(#1471,#1472,#1473,#1474,#1475),
 .UNSPECIFIED.,.F.,.F.,(4,1,4),(0.,0.00315165427630627,0.00630330855261254),
 .UNSPECIFIED.);
#15=B_SPLINE_CURVE_WITH_KNOTS('',3,(#1477,#1478,#1479,#1480,#1481),
 .UNSPECIFIED.,.F.,.F.,(4,1,4),(4.33680868994202E-19,0.00312455412148183,
0.00624910824296366),.UNSPECIFIED.);
#16=B_SPLINE_CURVE_WITH_KNOTS('',3,(#1486,#1487,#1488,#1489,#1490),
 .UNSPECIFIED.,.F.,.F.,(4,1,4),(0.,0.00315165427630627,0.00630330855261254),
 .UNSPECIFIED.);
#17=B_SPLINE_CURVE_WITH_KNOTS('',3,(#1492,#1493,#1494,#1495,#1496),
 .UNSPECIFIED.,.F.,.F.,(4,1,4),(4.33680868994202E-19,0.00312455412148183,
0.00624910824296366),.UNSPECIFIED.);
#18=ELLIPSE('',#979,0.00565685424949238,0.004);
#19=ELLIPSE('',#984,0.00565685424949238,0.004);
#20=CYLINDRICAL_SURFACE('',#959,0.015);
#21=CYLINDRICAL_SURFACE('',#963,0.015);
#22=CYLINDRICAL_SURFACE('',#965,0.0025);
#23=CYLINDRICAL_SURFACE('',#978,0.004);
#24=CYLINDRICAL_SURFACE('',#980,0.004);
#25=CYLINDRICAL_SURFACE('',#981,0.004);
#26=CYLINDRICAL_SURFACE('',#983,0.004);
#27=CYLINDRICAL_SURFACE('',#985,0.004);
#28=CYLINDRICAL_SURFACE('',#986,0.004);
#29=CYLINDRICAL_SURFACE('',#990,0.0005);
#30=CYLINDRICAL_SURFACE('',#991,0.0005);
#31=CYLINDRICAL_SURFACE('',#992,0.0005);
#32=CIRCLE('',#937,0.0005);
#33=CIRCLE('',#938,0.0005);
#34=CIRCLE('',#939,0.0005);
#35=CIRCLE('',#942,0.0025);
#36=CIRCLE('',#943,0.015);
#37=CIRCLE('',#945,0.0025);
#38=CIRCLE('',#946,0.015);
#39=CIRCLE('',#948,0.011);
#40=CIRCLE('',#951,0.0005);
#41=CIRCLE('',#952,0.0005);
#42=CIRCLE('',#953,0.0005);
#43=CIRCLE('',#955,0.011);
#44=CIRCLE('',#960,0.015);
#45=CIRCLE('',#964,0.015);
#46=CIRCLE('',#968,0.004);
#47=CIRCLE('',#970,0.004);
#48=CIRCLE('',#974,0.004);
#49=CIRCLE('',#975,0.004);
#50=CIRCLE('',#976,0.004);
#51=CIRCLE('',#977,0.004);
#52=ORIENTED_EDGE('',*,*,#308,.T.);
#53=ORIENTED_EDGE('',*,*,#309,.T.);
#54=ORIENTED_EDGE('',*,*,#310,.F.);
#55=ORIENTED_EDGE('',*,*,#311,.F.);
#56=ORIENTED_EDGE('',*,*,#312,.T.);
#57=ORIENTED_EDGE('',*,*,#313,.T.);
#58=ORIENTED_EDGE('',*,*,#314,.F.);
#59=ORIENTED_EDGE('',*,*,#315,.F.);
#60=ORIENTED_EDGE('',*,*,#316,.T.);
#61=ORIENTED_EDGE('',*,*,#317,.T.);
#62=ORIENTED_EDGE('',*,*,#318,.F.);
#63=ORIENTED_EDGE('',*,*,#319,.F.);
#64=ORIENTED_EDGE('',*,*,#320,.F.);
#65=ORIENTED_EDGE('',*,*,#321,.F.);
#66=ORIENTED_EDGE('',*,*,#322,.F.);
#67=ORIENTED_EDGE('',*,*,#323,.T.);
#68=ORIENTED_EDGE('',*,*,#324,.T.);
#69=ORIENTED_EDGE('',*,*,#325,.F.);
#70=ORIENTED_EDGE('',*,*,#326,.F.);
#71=ORIENTED_EDGE('',*,*,#327,.T.);
#72=ORIENTED_EDGE('',*,*,#328,.T.);
#73=ORIENTED_EDGE('',*,*,#329,.F.);
#74=ORIENTED_EDGE('',*,*,#330,.F.);
#75=ORIENTED_EDGE('',*,*,#331,.T.);
#76=ORIENTED_EDGE('',*,*,#332,.T.);
#77=ORIENTED_EDGE('',*,*,#333,.T.);
#78=ORIENTED_EDGE('',*,*,#334,.F.);
#79=ORIENTED_EDGE('',*,*,#335,.F.);
#80=ORIENTED_EDGE('',*,*,#336,.T.);
#81=ORIENTED_EDGE('',*,*,#337,.T.);
#82=ORIENTED_EDGE('',*,*,#338,.F.);
#83=ORIENTED_EDGE('',*,*,#339,.T.);
#84=ORIENTED_EDGE('',*,*,#340,.T.);
#85=ORIENTED_EDGE('',*,*,#341,.F.);
#86=ORIENTED_EDGE('',*,*,#308,.F.);
#87=ORIENTED_EDGE('',*,*,#342,.T.);
#88=ORIENTED_EDGE('',*,*,#343,.T.);
#89=ORIENTED_EDGE('',*,*,#344,.F.);
#90=ORIENTED_EDGE('',*,*,#312,.F.);
#91=ORIENTED_EDGE('',*,*,#345,.T.);
#92=ORIENTED_EDGE('',*,*,#346,.T.);
#93=ORIENTED_EDGE('',*,*,#347,.F.);
#94=ORIENTED_EDGE('',*,*,#316,.F.);
#95=ORIENTED_EDGE('',*,*,#348,.T.);
#96=ORIENTED_EDGE('',*,*,#349,.F.);
#97=ORIENTED_EDGE('',*,*,#350,.T.);
#98=ORIENTED_EDGE('',*,*,#351,.T.);
#99=ORIENTED_EDGE('',*,*,#334,.T.);
#100=ORIENTED_EDGE('',*,*,#352,.T.);
#101=ORIENTED_EDGE('',*,*,#329,.T.);
#102=ORIENTED_EDGE('',*,*,#353,.T.);
#103=ORIENTED_EDGE('',*,*,#354,.T.);
#104=ORIENTED_EDGE('',*,*,#355,.F.);
#105=ORIENTED_EDGE('',*,*,#356,.F.);
#106=ORIENTED_EDGE('',*,*,#357,.F.);
#107=ORIENTED_EDGE('',*,*,#327,.F.);
#108=ORIENTED_EDGE('',*,*,#358,.F.);
#109=ORIENTED_EDGE('',*,*,#359,.F.);
#110=ORIENTED_EDGE('',*,*,#360,.F.);
#111=ORIENTED_EDGE('',*,*,#361,.F.);
#112=ORIENTED_EDGE('',*,*,#362,.T.);
#113=ORIENTED_EDGE('',*,*,#363,.F.);
#114=ORIENTED_EDGE('',*,*,#318,.T.);
#115=ORIENTED_EDGE('',*,*,#364,.T.);
#116=ORIENTED_EDGE('',*,*,#365,.F.);
#117=ORIENTED_EDGE('',*,*,#366,.F.);
#118=ORIENTED_EDGE('',*,*,#314,.T.);
#119=ORIENTED_EDGE('',*,*,#367,.T.);
#120=ORIENTED_EDGE('',*,*,#368,.F.);
#121=ORIENTED_EDGE('',*,*,#369,.F.);
#122=ORIENTED_EDGE('',*,*,#310,.T.);
#123=ORIENTED_EDGE('',*,*,#370,.T.);
#124=ORIENTED_EDGE('',*,*,#371,.F.);
#125=ORIENTED_EDGE('',*,*,#372,.F.);
#126=ORIENTED_EDGE('',*,*,#373,.T.);
#127=ORIENTED_EDGE('',*,*,#374,.T.);
#128=ORIENTED_EDGE('',*,*,#375,.T.);
#129=ORIENTED_EDGE('',*,*,#376,.T.);
#130=ORIENTED_EDGE('',*,*,#377,.T.);
#131=ORIENTED_EDGE('',*,*,#378,.T.);
#132=ORIENTED_EDGE('',*,*,#379,.F.);
#133=ORIENTED_EDGE('',*,*,#338,.T.);
#134=ORIENTED_EDGE('',*,*,#380,.T.);
#135=ORIENTED_EDGE('',*,*,#373,.F.);
#136=ORIENTED_EDGE('',*,*,#381,.F.);
#137=ORIENTED_EDGE('',*,*,#382,.F.);
#138=ORIENTED_EDGE('',*,*,#383,.F.);
#139=ORIENTED_EDGE('',*,*,#384,.F.);
#140=ORIENTED_EDGE('',*,*,#336,.F.);
#141=ORIENTED_EDGE('',*,*,#385,.T.);
#142=ORIENTED_EDGE('',*,*,#356,.T.);
#143=ORIENTED_EDGE('',*,*,#386,.F.);
#144=ORIENTED_EDGE('',*,*,#387,.T.);
#145=ORIENTED_EDGE('',*,*,#388,.T.);
#146=ORIENTED_EDGE('',*,*,#389,.T.);
#147=ORIENTED_EDGE('',*,*,#390,.T.);
#148=ORIENTED_EDGE('',*,*,#328,.F.);
#149=ORIENTED_EDGE('',*,*,#357,.T.);
#150=ORIENTED_EDGE('',*,*,#385,.F.);
#151=ORIENTED_EDGE('',*,*,#353,.F.);
#152=ORIENTED_EDGE('',*,*,#391,.F.);
#153=ORIENTED_EDGE('',*,*,#392,.T.);
#154=ORIENTED_EDGE('',*,*,#331,.F.);
#155=ORIENTED_EDGE('',*,*,#351,.F.);
#156=ORIENTED_EDGE('',*,*,#340,.F.);
#157=ORIENTED_EDGE('',*,*,#393,.T.);
#158=ORIENTED_EDGE('',*,*,#371,.T.);
#159=ORIENTED_EDGE('',*,*,#394,.F.);
#160=ORIENTED_EDGE('',*,*,#343,.F.);
#161=ORIENTED_EDGE('',*,*,#395,.T.);
#162=ORIENTED_EDGE('',*,*,#368,.T.);
#163=ORIENTED_EDGE('',*,*,#396,.F.);
#164=ORIENTED_EDGE('',*,*,#346,.F.);
#165=ORIENTED_EDGE('',*,*,#397,.T.);
#166=ORIENTED_EDGE('',*,*,#365,.T.);
#167=ORIENTED_EDGE('',*,*,#398,.F.);
#168=ORIENTED_EDGE('',*,*,#399,.T.);
#169=ORIENTED_EDGE('',*,*,#400,.T.);
#170=ORIENTED_EDGE('',*,*,#401,.F.);
#171=ORIENTED_EDGE('',*,*,#402,.T.);
#172=ORIENTED_EDGE('',*,*,#403,.T.);
#173=ORIENTED_EDGE('',*,*,#349,.T.);
#174=ORIENTED_EDGE('',*,*,#404,.F.);
#175=ORIENTED_EDGE('',*,*,#362,.F.);
#176=ORIENTED_EDGE('',*,*,#405,.T.);
#177=ORIENTED_EDGE('',*,*,#406,.T.);
#178=ORIENTED_EDGE('',*,*,#399,.F.);
#179=ORIENTED_EDGE('',*,*,#361,.T.);
#180=ORIENTED_EDGE('',*,*,#407,.T.);
#181=ORIENTED_EDGE('',*,*,#408,.T.);
#182=ORIENTED_EDGE('',*,*,#409,.F.);
#183=ORIENTED_EDGE('',*,*,#359,.T.);
#184=ORIENTED_EDGE('',*,*,#409,.T.);
#185=ORIENTED_EDGE('',*,*,#410,.T.);
#186=ORIENTED_EDGE('',*,*,#405,.F.);
#187=ORIENTED_EDGE('',*,*,#360,.T.);
#188=ORIENTED_EDGE('',*,*,#403,.F.);
#189=ORIENTED_EDGE('',*,*,#411,.T.);
#190=ORIENTED_EDGE('',*,*,#391,.T.);
#191=ORIENTED_EDGE('',*,*,#350,.F.);
#192=ORIENTED_EDGE('',*,*,#335,.T.);
#193=ORIENTED_EDGE('',*,*,#354,.F.);
#194=ORIENTED_EDGE('',*,*,#404,.T.);
#195=ORIENTED_EDGE('',*,*,#348,.F.);
#196=ORIENTED_EDGE('',*,*,#319,.T.);
#197=ORIENTED_EDGE('',*,*,#363,.T.);
#198=ORIENTED_EDGE('',*,*,#412,.F.);
#199=ORIENTED_EDGE('',*,*,#413,.T.);
#200=ORIENTED_EDGE('',*,*,#407,.F.);
#201=ORIENTED_EDGE('',*,*,#358,.T.);
#202=ORIENTED_EDGE('',*,*,#326,.T.);
#203=ORIENTED_EDGE('',*,*,#333,.F.);
#204=ORIENTED_EDGE('',*,*,#414,.T.);
#205=ORIENTED_EDGE('',*,*,#415,.T.);
#206=ORIENTED_EDGE('',*,*,#330,.T.);
#207=ORIENTED_EDGE('',*,*,#352,.F.);
#208=ORIENTED_EDGE('',*,*,#416,.F.);
#209=ORIENTED_EDGE('',*,*,#417,.F.);
#210=ORIENTED_EDGE('',*,*,#418,.F.);
#211=ORIENTED_EDGE('',*,*,#323,.F.);
#212=ORIENTED_EDGE('',*,*,#415,.F.);
#213=ORIENTED_EDGE('',*,*,#419,.T.);
#214=ORIENTED_EDGE('',*,*,#325,.T.);
#215=ORIENTED_EDGE('',*,*,#420,.F.);
#216=ORIENTED_EDGE('',*,*,#421,.T.);
#217=ORIENTED_EDGE('',*,*,#422,.T.);
#218=ORIENTED_EDGE('',*,*,#423,.T.);
#219=ORIENTED_EDGE('',*,*,#412,.T.);
#220=ORIENTED_EDGE('',*,*,#424,.F.);
#221=ORIENTED_EDGE('',*,*,#416,.T.);
#222=ORIENTED_EDGE('',*,*,#425,.T.);
#223=ORIENTED_EDGE('',*,*,#376,.F.);
#224=ORIENTED_EDGE('',*,*,#426,.T.);
#225=ORIENTED_EDGE('',*,*,#401,.T.);
#226=ORIENTED_EDGE('',*,*,#427,.T.);
#227=ORIENTED_EDGE('',*,*,#386,.T.);
#228=ORIENTED_EDGE('',*,*,#428,.T.);
#229=ORIENTED_EDGE('',*,*,#422,.F.);
#230=ORIENTED_EDGE('',*,*,#337,.F.);
#231=ORIENTED_EDGE('',*,*,#384,.T.);
#232=ORIENTED_EDGE('',*,*,#355,.T.);
#233=ORIENTED_EDGE('',*,*,#380,.F.);
#234=ORIENTED_EDGE('',*,*,#428,.F.);
#235=ORIENTED_EDGE('',*,*,#390,.F.);
#236=ORIENTED_EDGE('',*,*,#429,.F.);
#237=ORIENTED_EDGE('',*,*,#408,.F.);
#238=ORIENTED_EDGE('',*,*,#413,.F.);
#239=ORIENTED_EDGE('',*,*,#423,.F.);
#240=ORIENTED_EDGE('',*,*,#429,.T.);
#241=ORIENTED_EDGE('',*,*,#389,.F.);
#242=ORIENTED_EDGE('',*,*,#430,.F.);
#243=ORIENTED_EDGE('',*,*,#410,.F.);
#244=ORIENTED_EDGE('',*,*,#427,.F.);
#245=ORIENTED_EDGE('',*,*,#400,.F.);
#246=ORIENTED_EDGE('',*,*,#431,.F.);
#247=ORIENTED_EDGE('',*,*,#387,.F.);
#248=ORIENTED_EDGE('',*,*,#430,.T.);
#249=ORIENTED_EDGE('',*,*,#388,.F.);
#250=ORIENTED_EDGE('',*,*,#431,.T.);
#251=ORIENTED_EDGE('',*,*,#406,.F.);
#252=ORIENTED_EDGE('',*,*,#414,.F.);
#253=ORIENTED_EDGE('',*,*,#332,.F.);
#254=ORIENTED_EDGE('',*,*,#432,.F.);
#255=ORIENTED_EDGE('',*,*,#377,.F.);
#256=ORIENTED_EDGE('',*,*,#425,.F.);
#257=ORIENTED_EDGE('',*,*,#419,.F.);
#258=ORIENTED_EDGE('',*,*,#432,.T.);
#259=ORIENTED_EDGE('',*,*,#392,.F.);
#260=ORIENTED_EDGE('',*,*,#433,.F.);
#261=ORIENTED_EDGE('',*,*,#378,.F.);
#262=ORIENTED_EDGE('',*,*,#426,.F.);
#263=ORIENTED_EDGE('',*,*,#375,.F.);
#264=ORIENTED_EDGE('',*,*,#434,.F.);
#265=ORIENTED_EDGE('',*,*,#402,.F.);
#266=ORIENTED_EDGE('',*,*,#433,.T.);
#267=ORIENTED_EDGE('',*,*,#411,.F.);
#268=ORIENTED_EDGE('',*,*,#434,.T.);
#269=ORIENTED_EDGE('',*,*,#374,.F.);
#270=ORIENTED_EDGE('',*,*,#424,.T.);
#271=ORIENTED_EDGE('',*,*,#421,.F.);
#272=ORIENTED_EDGE('',*,*,#435,.F.);
#273=ORIENTED_EDGE('',*,*,#417,.T.);
#274=ORIENTED_EDGE('',*,*,#418,.T.);
#275=ORIENTED_EDGE('',*,*,#435,.T.);
#276=ORIENTED_EDGE('',*,*,#420,.T.);
#277=ORIENTED_EDGE('',*,*,#324,.F.);
#278=ORIENTED_EDGE('',*,*,#383,.T.);
#279=ORIENTED_EDGE('',*,*,#322,.T.);
#280=ORIENTED_EDGE('',*,*,#382,.T.);
#281=ORIENTED_EDGE('',*,*,#321,.T.);
#282=ORIENTED_EDGE('',*,*,#381,.T.);
#283=ORIENTED_EDGE('',*,*,#320,.T.);
#284=ORIENTED_EDGE('',*,*,#315,.T.);
#285=ORIENTED_EDGE('',*,*,#366,.T.);
#286=ORIENTED_EDGE('',*,*,#397,.F.);
#287=ORIENTED_EDGE('',*,*,#345,.F.);
#288=ORIENTED_EDGE('',*,*,#347,.T.);
#289=ORIENTED_EDGE('',*,*,#398,.T.);
#290=ORIENTED_EDGE('',*,*,#364,.F.);
#291=ORIENTED_EDGE('',*,*,#317,.F.);
#292=ORIENTED_EDGE('',*,*,#344,.T.);
#293=ORIENTED_EDGE('',*,*,#396,.T.);
#294=ORIENTED_EDGE('',*,*,#367,.F.);
#295=ORIENTED_EDGE('',*,*,#313,.F.);
#296=ORIENTED_EDGE('',*,*,#311,.T.);
#297=ORIENTED_EDGE('',*,*,#369,.T.);
#298=ORIENTED_EDGE('',*,*,#395,.F.);
#299=ORIENTED_EDGE('',*,*,#342,.F.);
#300=ORIENTED_EDGE('',*,*,#341,.T.);
#301=ORIENTED_EDGE('',*,*,#394,.T.);
#302=ORIENTED_EDGE('',*,*,#370,.F.);
#303=ORIENTED_EDGE('',*,*,#309,.F.);
#304=ORIENTED_EDGE('',*,*,#379,.T.);
#305=ORIENTED_EDGE('',*,*,#372,.T.);
#306=ORIENTED_EDGE('',*,*,#393,.F.);
#307=ORIENTED_EDGE('',*,*,#339,.F.);
#308=EDGE_CURVE('',#436,#437,#522,.T.);
#309=EDGE_CURVE('',#437,#438,#523,.T.);
#310=EDGE_CURVE('',#439,#438,#524,.T.);
#311=EDGE_CURVE('',#436,#439,#525,.T.);
#312=EDGE_CURVE('',#440,#441,#526,.T.);
#313=EDGE_CURVE('',#441,#442,#527,.T.);
#314=EDGE_CURVE('',#443,#442,#528,.T.);
#315=EDGE_CURVE('',#440,#443,#529,.T.);
#316=EDGE_CURVE('',#444,#445,#530,.T.);
#317=EDGE_CURVE('',#445,#446,#531,.T.);
#318=EDGE_CURVE('',#447,#446,#532,.T.);
#319=EDGE_CURVE('',#444,#447,#533,.T.);
#320=EDGE_CURVE('',#448,#448,#32,.T.);
#321=EDGE_CURVE('',#449,#449,#33,.T.);
#322=EDGE_CURVE('',#450,#450,#34,.T.);
#323=EDGE_CURVE('',#451,#452,#534,.T.);
#324=EDGE_CURVE('',#452,#453,#535,.T.);
#325=EDGE_CURVE('',#454,#453,#536,.T.);
#326=EDGE_CURVE('',#455,#454,#537,.T.);
#327=EDGE_CURVE('',#455,#456,#538,.T.);
#328=EDGE_CURVE('',#456,#457,#539,.T.);
#329=EDGE_CURVE('',#458,#457,#540,.T.);
#330=EDGE_CURVE('',#451,#458,#541,.T.);
#331=EDGE_CURVE('',#459,#460,#542,.T.);
#332=EDGE_CURVE('',#460,#461,#543,.T.);
#333=EDGE_CURVE('',#461,#462,#544,.T.);
#334=EDGE_CURVE('',#459,#462,#545,.T.);
#335=EDGE_CURVE('',#463,#463,#35,.T.);
#336=EDGE_CURVE('',#464,#465,#546,.T.);
#337=EDGE_CURVE('',#465,#466,#547,.T.);
#338=EDGE_CURVE('',#467,#466,#548,.T.);
#339=EDGE_CURVE('',#467,#468,#549,.T.);
#340=EDGE_CURVE('',#468,#469,#550,.T.);
#341=EDGE_CURVE('',#437,#469,#551,.T.);
#342=EDGE_CURVE('',#436,#470,#552,.T.);
#343=EDGE_CURVE('',#470,#471,#553,.T.);
#344=EDGE_CURVE('',#441,#471,#554,.T.);
#345=EDGE_CURVE('',#440,#472,#555,.T.);
#346=EDGE_CURVE('',#472,#473,#556,.T.);
#347=EDGE_CURVE('',#445,#473,#557,.T.);
#348=EDGE_CURVE('',#444,#474,#558,.T.);
#349=EDGE_CURVE('',#475,#474,#559,.T.);
#350=EDGE_CURVE('',#475,#476,#36,.T.);
#351=EDGE_CURVE('',#476,#459,#560,.T.);
#352=EDGE_CURVE('',#462,#458,#561,.T.);
#353=EDGE_CURVE('',#457,#464,#562,.T.);
#354=EDGE_CURVE('',#477,#477,#37,.T.);
#355=EDGE_CURVE('',#478,#479,#563,.T.);
#356=EDGE_CURVE('',#480,#478,#564,.T.);
#357=EDGE_CURVE('',#456,#480,#565,.T.);
#358=EDGE_CURVE('',#481,#455,#566,.T.);
#359=EDGE_CURVE('',#482,#481,#567,.T.);
#360=EDGE_CURVE('',#483,#482,#568,.T.);
#361=EDGE_CURVE('',#484,#483,#38,.T.);
#362=EDGE_CURVE('',#484,#485,#569,.T.);
#363=EDGE_CURVE('',#447,#485,#570,.T.);
#364=EDGE_CURVE('',#446,#486,#571,.T.);
#365=EDGE_CURVE('',#487,#486,#572,.T.);
#366=EDGE_CURVE('',#443,#487,#573,.T.);
#367=EDGE_CURVE('',#442,#488,#574,.T.);
#368=EDGE_CURVE('',#489,#488,#575,.T.);
#369=EDGE_CURVE('',#439,#489,#576,.T.);
#370=EDGE_CURVE('',#438,#490,#577,.T.);
#371=EDGE_CURVE('',#491,#490,#578,.T.);
#372=EDGE_CURVE('',#492,#491,#579,.T.);
#373=EDGE_CURVE('',#492,#479,#580,.T.);
#374=EDGE_CURVE('',#493,#494,#39,.T.);
#375=EDGE_CURVE('',#494,#495,#581,.T.);
#376=EDGE_CURVE('',#495,#496,#582,.T.);
#377=EDGE_CURVE('',#496,#497,#583,.F.);
#378=EDGE_CURVE('',#497,#493,#584,.T.);
#379=EDGE_CURVE('',#467,#492,#585,.T.);
#380=EDGE_CURVE('',#466,#479,#586,.T.);
#381=EDGE_CURVE('',#498,#498,#40,.F.);
#382=EDGE_CURVE('',#499,#499,#41,.F.);
#383=EDGE_CURVE('',#500,#500,#42,.F.);
#384=EDGE_CURVE('',#465,#478,#587,.T.);
#385=EDGE_CURVE('',#464,#480,#588,.T.);
#386=EDGE_CURVE('',#501,#502,#589,.T.);
#387=EDGE_CURVE('',#501,#503,#590,.F.);
#388=EDGE_CURVE('',#503,#504,#43,.F.);
#389=EDGE_CURVE('',#504,#505,#591,.F.);
#390=EDGE_CURVE('',#505,#502,#592,.T.);
#391=EDGE_CURVE('',#506,#476,#593,.T.);
#392=EDGE_CURVE('',#506,#460,#594,.F.);
#393=EDGE_CURVE('',#468,#491,#595,.T.);
#394=EDGE_CURVE('',#469,#490,#596,.T.);
#395=EDGE_CURVE('',#470,#489,#597,.T.);
#396=EDGE_CURVE('',#471,#488,#598,.T.);
#397=EDGE_CURVE('',#472,#487,#599,.T.);
#398=EDGE_CURVE('',#473,#486,#600,.T.);
#399=EDGE_CURVE('',#484,#507,#601,.T.);
#400=EDGE_CURVE('',#507,#508,#602,.T.);
#401=EDGE_CURVE('',#509,#508,#603,.T.);
#402=EDGE_CURVE('',#509,#510,#604,.F.);
#403=EDGE_CURVE('',#510,#475,#605,.T.);
#404=EDGE_CURVE('',#485,#474,#606,.T.);
#405=EDGE_CURVE('',#483,#511,#607,.T.);
#406=EDGE_CURVE('',#511,#507,#44,.T.);
#407=EDGE_CURVE('',#481,#512,#608,.T.);
#408=EDGE_CURVE('',#512,#513,#609,.F.);
#409=EDGE_CURVE('',#482,#513,#610,.T.);
#410=EDGE_CURVE('',#513,#511,#611,.T.);
#411=EDGE_CURVE('',#510,#506,#45,.F.);
#412=EDGE_CURVE('',#514,#454,#612,.T.);
#413=EDGE_CURVE('',#514,#512,#46,.T.);
#414=EDGE_CURVE('',#461,#515,#47,.T.);
#415=EDGE_CURVE('',#515,#451,#613,.T.);
#416=EDGE_CURVE('',#516,#517,#614,.T.);
#417=EDGE_CURVE('',#518,#516,#615,.T.);
#418=EDGE_CURVE('',#452,#518,#616,.T.);
#419=EDGE_CURVE('',#515,#517,#617,.T.);
#420=EDGE_CURVE('',#519,#453,#618,.T.);
#421=EDGE_CURVE('',#519,#520,#619,.T.);
#422=EDGE_CURVE('',#520,#521,#620,.T.);
#423=EDGE_CURVE('',#521,#514,#621,.F.);
#424=EDGE_CURVE('',#516,#520,#622,.T.);
#425=EDGE_CURVE('',#517,#496,#48,.T.);
#426=EDGE_CURVE('',#495,#509,#49,.T.);
#427=EDGE_CURVE('',#508,#501,#50,.T.);
#428=EDGE_CURVE('',#502,#521,#51,.T.);
#429=EDGE_CURVE('',#513,#505,#18,.F.);
#430=EDGE_CURVE('',#511,#504,#14,.T.);
#431=EDGE_CURVE('',#503,#507,#15,.F.);
#432=EDGE_CURVE('',#497,#460,#19,.T.);
#433=EDGE_CURVE('',#493,#506,#16,.F.);
#434=EDGE_CURVE('',#510,#494,#17,.T.);
#435=EDGE_CURVE('',#518,#519,#623,.T.);
#436=VERTEX_POINT('',#1238);
#437=VERTEX_POINT('',#1239);
#438=VERTEX_POINT('',#1241);
#439=VERTEX_POINT('',#1243);
#440=VERTEX_POINT('',#1247);
#441=VERTEX_POINT('',#1248);
#442=VERTEX_POINT('',#1250);
#443=VERTEX_POINT('',#1252);
#444=VERTEX_POINT('',#1256);
#445=VERTEX_POINT('',#1257);
#446=VERTEX_POINT('',#1259);
#447=VERTEX_POINT('',#1261);
#448=VERTEX_POINT('',#1265);
#449=VERTEX_POINT('',#1267);
#450=VERTEX_POINT('',#1269);
#451=VERTEX_POINT('',#1271);
#452=VERTEX_POINT('',#1272);
#453=VERTEX_POINT('',#1274);
#454=VERTEX_POINT('',#1276);
#455=VERTEX_POINT('',#1278);
#456=VERTEX_POINT('',#1280);
#457=VERTEX_POINT('',#1282);
#458=VERTEX_POINT('',#1284);
#459=VERTEX_POINT('',#1288);
#460=VERTEX_POINT('',#1289);
#461=VERTEX_POINT('',#1291);
#462=VERTEX_POINT('',#1293);
#463=VERTEX_POINT('',#1297);
#464=VERTEX_POINT('',#1299);
#465=VERTEX_POINT('',#1300);
#466=VERTEX_POINT('',#1302);
#467=VERTEX_POINT('',#1304);
#468=VERTEX_POINT('',#1306);
#469=VERTEX_POINT('',#1308);
#470=VERTEX_POINT('',#1311);
#471=VERTEX_POINT('',#1313);
#472=VERTEX_POINT('',#1316);
#473=VERTEX_POINT('',#1318);
#474=VERTEX_POINT('',#1321);
#475=VERTEX_POINT('',#1323);
#476=VERTEX_POINT('',#1325);
#477=VERTEX_POINT('',#1331);
#478=VERTEX_POINT('',#1333);
#479=VERTEX_POINT('',#1334);
#480=VERTEX_POINT('',#1336);
#481=VERTEX_POINT('',#1339);
#482=VERTEX_POINT('',#1341);
#483=VERTEX_POINT('',#1343);
#484=VERTEX_POINT('',#1345);
#485=VERTEX_POINT('',#1347);
#486=VERTEX_POINT('',#1350);
#487=VERTEX_POINT('',#1352);
#488=VERTEX_POINT('',#1355);
#489=VERTEX_POINT('',#1357);
#490=VERTEX_POINT('',#1360);
#491=VERTEX_POINT('',#1362);
#492=VERTEX_POINT('',#1364);
#493=VERTEX_POINT('',#1368);
#494=VERTEX_POINT('',#1369);
#495=VERTEX_POINT('',#1371);
#496=VERTEX_POINT('',#1373);
#497=VERTEX_POINT('',#1375);
#498=VERTEX_POINT('',#1382);
#499=VERTEX_POINT('',#1384);
#500=VERTEX_POINT('',#1386);
#501=VERTEX_POINT('',#1391);
#502=VERTEX_POINT('',#1392);
#503=VERTEX_POINT('',#1394);
#504=VERTEX_POINT('',#1396);
#505=VERTEX_POINT('',#1398);
#506=VERTEX_POINT('',#1403);
#507=VERTEX_POINT('',#1413);
#508=VERTEX_POINT('',#1415);
#509=VERTEX_POINT('',#1417);
#510=VERTEX_POINT('',#1419);
#511=VERTEX_POINT('',#1424);
#512=VERTEX_POINT('',#1428);
#513=VERTEX_POINT('',#1430);
#514=VERTEX_POINT('',#1440);
#515=VERTEX_POINT('',#1444);
#516=VERTEX_POINT('',#1448);
#517=VERTEX_POINT('',#1449);
#518=VERTEX_POINT('',#1451);
#519=VERTEX_POINT('',#1456);
#520=VERTEX_POINT('',#1458);
#521=VERTEX_POINT('',#1460);
#522=LINE('',#1237,#624);
#523=LINE('',#1240,#625);
#524=LINE('',#1242,#626);
#525=LINE('',#1244,#627);
#526=LINE('',#1246,#628);
#527=LINE('',#1249,#629);
#528=LINE('',#1251,#630);
#529=LINE('',#1253,#631);
#530=LINE('',#1255,#632);
#531=LINE('',#1258,#633);
#532=LINE('',#1260,#634);
#533=LINE('',#1262,#635);
#534=LINE('',#1270,#636);
#535=LINE('',#1273,#637);
#536=LINE('',#1275,#638);
#537=LINE('',#1277,#639);
#538=LINE('',#1279,#640);
#539=LINE('',#1281,#641);
#540=LINE('',#1283,#642);
#541=LINE('',#1285,#643);
#542=LINE('',#1287,#644);
#543=LINE('',#1290,#645);
#544=LINE('',#1292,#646);
#545=LINE('',#1294,#647);
#546=LINE('',#1298,#648);
#547=LINE('',#1301,#649);
#548=LINE('',#1303,#650);
#549=LINE('',#1305,#651);
#550=LINE('',#1307,#652);
#551=LINE('',#1309,#653);
#552=LINE('',#1310,#654);
#553=LINE('',#1312,#655);
#554=LINE('',#1314,#656);
#555=LINE('',#1315,#657);
#556=LINE('',#1317,#658);
#557=LINE('',#1319,#659);
#558=LINE('',#1320,#660);
#559=LINE('',#1322,#661);
#560=LINE('',#1326,#662);
#561=LINE('',#1327,#663);
#562=LINE('',#1328,#664);
#563=LINE('',#1332,#665);
#564=LINE('',#1335,#666);
#565=LINE('',#1337,#667);
#566=LINE('',#1338,#668);
#567=LINE('',#1340,#669);
#568=LINE('',#1342,#670);
#569=LINE('',#1346,#671);
#570=LINE('',#1348,#672);
#571=LINE('',#1349,#673);
#572=LINE('',#1351,#674);
#573=LINE('',#1353,#675);
#574=LINE('',#1354,#676);
#575=LINE('',#1356,#677);
#576=LINE('',#1358,#678);
#577=LINE('',#1359,#679);
#578=LINE('',#1361,#680);
#579=LINE('',#1363,#681);
#580=LINE('',#1365,#682);
#581=LINE('',#1370,#683);
#582=LINE('',#1372,#684);
#583=LINE('',#1374,#685);
#584=LINE('',#1376,#686);
#585=LINE('',#1378,#687);
#586=LINE('',#1379,#688);
#587=LINE('',#1387,#689);
#588=LINE('',#1388,#690);
#589=LINE('',#1390,#691);
#590=LINE('',#1393,#692);
#591=LINE('',#1397,#693);
#592=LINE('',#1399,#694);
#593=LINE('',#1402,#695);
#594=LINE('',#1404,#696);
#595=LINE('',#1406,#697);
#596=LINE('',#1407,#698);
#597=LINE('',#1408,#699);
#598=LINE('',#1409,#700);
#599=LINE('',#1410,#701);
#600=LINE('',#1411,#702);
#601=LINE('',#1412,#703);
#602=LINE('',#1414,#704);
#603=LINE('',#1416,#705);
#604=LINE('',#1418,#706);
#605=LINE('',#1420,#707);
#606=LINE('',#1421,#708);
#607=LINE('',#1423,#709);
#608=LINE('',#1427,#710);
#609=LINE('',#1429,#711);
#610=LINE('',#1431,#712);
#611=LINE('',#1433,#713);
#612=LINE('',#1439,#714);
#613=LINE('',#1445,#715);
#614=LINE('',#1447,#716);
#615=LINE('',#1450,#717);
#616=LINE('',#1452,#718);
#617=LINE('',#1453,#719);
#618=LINE('',#1455,#720);
#619=LINE('',#1457,#721);
#620=LINE('',#1459,#722);
#621=LINE('',#1461,#723);
#622=LINE('',#1463,#724);
#623=LINE('',#1499,#725);
#624=VECTOR('',#1003,1.);
#625=VECTOR('',#1004,1.);
#626=VECTOR('',#1005,1.);
#627=VECTOR('',#1006,1.);
#628=VECTOR('',#1009,1.);
#629=VECTOR('',#1010,1.);
#630=VECTOR('',#1011,1.);
#631=VECTOR('',#1012,1.);
#632=VECTOR('',#1015,1.);
#633=VECTOR('',#1016,1.);
#634=VECTOR('',#1017,1.);
#635=VECTOR('',#1018,1.);
#636=VECTOR('',#1027,1.);
#637=VECTOR('',#1028,1.);
#638=VECTOR('',#1029,1.);
#639=VECTOR('',#1030,1.);
#640=VECTOR('',#1031,1.);
#641=VECTOR('',#1032,1.);
#642=VECTOR('',#1033,1.);
#643=VECTOR('',#1034,1.);
#644=VECTOR('',#1037,1.);
#645=VECTOR('',#1038,1.);
#646=VECTOR('',#1039,1.);
#647=VECTOR('',#1040,1.);
#648=VECTOR('',#1045,1.);
#649=VECTOR('',#1046,1.);
#650=VECTOR('',#1047,1.);
#651=VECTOR('',#1048,1.);
#652=VECTOR('',#1049,1.);
#653=VECTOR('',#1050,1.);
#654=VECTOR('',#1051,1.);
#655=VECTOR('',#1052,1.);
#656=VECTOR('',#1053,1.);
#657=VECTOR('',#1054,1.);
#658=VECTOR('',#1055,1.);
#659=VECTOR('',#1056,1.);
#660=VECTOR('',#1057,1.);
#661=VECTOR('',#1058,1.);
#662=VECTOR('',#1061,1.);
#663=VECTOR('',#1062,1.);
#664=VECTOR('',#1063,1.);
#665=VECTOR('',#1068,1.);
#666=VECTOR('',#1069,1.);
#667=VECTOR('',#1070,1.);
#668=VECTOR('',#1071,1.);
#669=VECTOR('',#1072,1.);
#670=VECTOR('',#1073,1.);
#671=VECTOR('',#1076,1.);
#672=VECTOR('',#1077,1.);
#673=VECTOR('',#1078,1.);
#674=VECTOR('',#1079,1.);
#675=VECTOR('',#1080,1.);
#676=VECTOR('',#1081,1.);
#677=VECTOR('',#1082,1.);
#678=VECTOR('',#1083,1.);
#679=VECTOR('',#1084,1.);
#680=VECTOR('',#1085,1.);
#681=VECTOR('',#1086,1.);
#682=VECTOR('',#1087,1.);
#683=VECTOR('',#1092,1.);
#684=VECTOR('',#1093,1.);
#685=VECTOR('',#1094,1.);
#686=VECTOR('',#1095,1.);
#687=VECTOR('',#1098,1.);
#688=VECTOR('',#1099,1.);
#689=VECTOR('',#1108,1.);
#690=VECTOR('',#1109,1.);
#691=VECTOR('',#1112,1.);
#692=VECTOR('',#1113,1.);
#693=VECTOR('',#1116,1.);
#694=VECTOR('',#1117,1.);
#695=VECTOR('',#1122,1.);
#696=VECTOR('',#1123,1.);
#697=VECTOR('',#1126,1.);
#698=VECTOR('',#1127,1.);
#699=VECTOR('',#1128,1.);
#700=VECTOR('',#1129,1.);
#701=VECTOR('',#1130,1.);
#702=VECTOR('',#1131,1.);
#703=VECTOR('',#1132,1.);
#704=VECTOR('',#1133,1.);
#705=VECTOR('',#1134,1.);
#706=VECTOR('',#1135,1.);
#707=VECTOR('',#1136,1.);
#708=VECTOR('',#1137,1.);
#709=VECTOR('',#1140,1.);
#710=VECTOR('',#1145,1.);
#711=VECTOR('',#1146,1.);
#712=VECTOR('',#1147,1.);
#713=VECTOR('',#1150,1.);
#714=VECTOR('',#1161,1.);
#715=VECTOR('',#1168,1.);
#716=VECTOR('',#1171,1.);
#717=VECTOR('',#1172,1.);
#718=VECTOR('',#1173,1.);
#719=VECTOR('',#1174,1.);
#720=VECTOR('',#1177,1.);
#721=VECTOR('',#1178,1.);
#722=VECTOR('',#1179,1.);
#723=VECTOR('',#1180,1.);
#724=VECTOR('',#1183,1.);
#725=VECTOR('',#1214,1.);
#726=EDGE_LOOP('',(#52,#53,#54,#55));
#727=EDGE_LOOP('',(#56,#57,#58,#59));
#728=EDGE_LOOP('',(#60,#61,#62,#63));
#729=EDGE_LOOP('',(#64));
#730=EDGE_LOOP('',(#65));
#731=EDGE_LOOP('',(#66));
#732=EDGE_LOOP('',(#67,#68,#69,#70,#71,#72,#73,#74));
#733=EDGE_LOOP('',(#75,#76,#77,#78));
#734=EDGE_LOOP('',(#79));
#735=EDGE_LOOP('',(#80,#81,#82,#83,#84,#85,#86,#87,#88,#89,#90,#91,#92,
#93,#94,#95,#96,#97,#98,#99,#100,#101,#102));
#736=EDGE_LOOP('',(#103));
#737=EDGE_LOOP('',(#104,#105,#106,#107,#108,#109,#110,#111,#112,#113,#114,
#115,#116,#117,#118,#119,#120,#121,#122,#123,#124,#125,#126));
#738=EDGE_LOOP('',(#127,#128,#129,#130,#131));
#739=EDGE_LOOP('',(#132,#133,#134,#135));
#740=EDGE_LOOP('',(#136));
#741=EDGE_LOOP('',(#137));
#742=EDGE_LOOP('',(#138));
#743=EDGE_LOOP('',(#139,#140,#141,#142));
#744=EDGE_LOOP('',(#143,#144,#145,#146,#147));
#745=EDGE_LOOP('',(#148,#149,#150,#151));
#746=EDGE_LOOP('',(#152,#153,#154,#155));
#747=EDGE_LOOP('',(#156,#157,#158,#159));
#748=EDGE_LOOP('',(#160,#161,#162,#163));
#749=EDGE_LOOP('',(#164,#165,#166,#167));
#750=EDGE_LOOP('',(#168,#169,#170,#171,#172,#173,#174,#175));
#751=EDGE_LOOP('',(#176,#177,#178,#179));
#752=EDGE_LOOP('',(#180,#181,#182,#183));
#753=EDGE_LOOP('',(#184,#185,#186,#187));
#754=EDGE_LOOP('',(#188,#189,#190,#191));
#755=EDGE_LOOP('',(#192));
#756=EDGE_LOOP('',(#193));
#757=EDGE_LOOP('',(#194,#195,#196,#197));
#758=EDGE_LOOP('',(#198,#199,#200,#201,#202));
#759=EDGE_LOOP('',(#203,#204,#205,#206,#207));
#760=EDGE_LOOP('',(#208,#209,#210,#211,#212,#213));
#761=EDGE_LOOP('',(#214,#215,#216,#217,#218,#219));
#762=EDGE_LOOP('',(#220,#221,#222,#223,#224,#225,#226,#227,#228,#229));
#763=EDGE_LOOP('',(#230,#231,#232,#233));
#764=EDGE_LOOP('',(#234,#235,#236,#237,#238,#239));
#765=EDGE_LOOP('',(#240,#241,#242,#243));
#766=EDGE_LOOP('',(#244,#245,#246,#247));
#767=EDGE_LOOP('',(#248,#249,#250,#251));
#768=EDGE_LOOP('',(#252,#253,#254,#255,#256,#257));
#769=EDGE_LOOP('',(#258,#259,#260,#261));
#770=EDGE_LOOP('',(#262,#263,#264,#265));
#771=EDGE_LOOP('',(#266,#267,#268,#269));
#772=EDGE_LOOP('',(#270,#271,#272,#273));
#773=EDGE_LOOP('',(#274,#275,#276,#277));
#774=EDGE_LOOP('',(#278));
#775=EDGE_LOOP('',(#279));
#776=EDGE_LOOP('',(#280));
#777=EDGE_LOOP('',(#281));
#778=EDGE_LOOP('',(#282));
#779=EDGE_LOOP('',(#283));
#780=EDGE_LOOP('',(#284,#285,#286,#287));
#781=EDGE_LOOP('',(#288,#289,#290,#291));
#782=EDGE_LOOP('',(#292,#293,#294,#295));
#783=EDGE_LOOP('',(#296,#297,#298,#299));
#784=EDGE_LOOP('',(#300,#301,#302,#303));
#785=EDGE_LOOP('',(#304,#305,#306,#307));
#786=FACE_BOUND('',#726,.T.);
#787=FACE_BOUND('',#727,.T.);
#788=FACE_BOUND('',#728,.T.);
#789=FACE_BOUND('',#729,.T.);
#790=FACE_BOUND('',#730,.T.);
#791=FACE_BOUND('',#731,.T.);
#792=FACE_BOUND('',#732,.T.);
#793=FACE_BOUND('',#733,.T.);
#794=FACE_BOUND('',#734,.T.);
#795=FACE_BOUND('',#735,.T.);
#796=FACE_BOUND('',#736,.T.);
#797=FACE_BOUND('',#737,.T.);
#798=FACE_BOUND('',#738,.T.);
#799=FACE_BOUND('',#739,.T.);
#800=FACE_BOUND('',#740,.T.);
#801=FACE_BOUND('',#741,.T.);
#802=FACE_BOUND('',#742,.T.);
#803=FACE_BOUND('',#743,.T.);
#804=FACE_BOUND('',#744,.T.);
#805=FACE_BOUND('',#745,.T.);
#806=FACE_BOUND('',#746,.T.);
#807=FACE_BOUND('',#747,.T.);
#808=FACE_BOUND('',#748,.T.);
#809=FACE_BOUND('',#749,.T.);
#810=FACE_BOUND('',#750,.T.);
#811=FACE_BOUND('',#751,.T.);
#812=FACE_BOUND('',#752,.T.);
#813=FACE_BOUND('',#753,.T.);
#814=FACE_BOUND('',#754,.T.);
#815=FACE_BOUND('',#755,.T.);
#816=FACE_BOUND('',#756,.T.);
#817=FACE_BOUND('',#757,.T.);
#818=FACE_BOUND('',#758,.T.);
#819=FACE_BOUND('',#759,.T.);
#820=FACE_BOUND('',#760,.T.);
#821=FACE_BOUND('',#761,.T.);
#822=FACE_BOUND('',#762,.T.);
#823=FACE_BOUND('',#763,.T.);
#824=FACE_BOUND('',#764,.T.);
#825=FACE_BOUND('',#765,.T.);
#826=FACE_BOUND('',#766,.T.);
#827=FACE_BOUND('',#767,.T.);
#828=FACE_BOUND('',#768,.T.);
#829=FACE_BOUND('',#769,.T.);
#830=FACE_BOUND('',#770,.T.);
#831=FACE_BOUND('',#771,.T.);
#832=FACE_BOUND('',#772,.T.);
#833=FACE_BOUND('',#773,.T.);
#834=FACE_BOUND('',#774,.T.);
#835=FACE_BOUND('',#775,.T.);
#836=FACE_BOUND('',#776,.T.);
#837=FACE_BOUND('',#777,.T.);
#838=FACE_BOUND('',#778,.T.);
#839=FACE_BOUND('',#779,.T.);
#840=FACE_BOUND('',#780,.T.);
#841=FACE_BOUND('',#781,.T.);
#842=FACE_BOUND('',#782,.T.);
#843=FACE_BOUND('',#783,.T.);
#844=FACE_BOUND('',#784,.T.);
#845=FACE_BOUND('',#785,.T.);
#846=PLANE('',#933);
#847=PLANE('',#934);
#848=PLANE('',#935);
#849=PLANE('',#936);
#850=PLANE('',#940);
#851=PLANE('',#941);
#852=PLANE('',#944);
#853=PLANE('',#947);
#854=PLANE('',#949);
#855=PLANE('',#950);
#856=PLANE('',#954);
#857=PLANE('',#956);
#858=PLANE('',#957);
#859=PLANE('',#958);
#860=PLANE('',#961);
#861=PLANE('',#962);
#862=PLANE('',#966);
#863=PLANE('',#967);
#864=PLANE('',#969);
#865=PLANE('',#971);
#866=PLANE('',#972);
#867=PLANE('',#973);
#868=PLANE('',#988);
#869=PLANE('',#989);
#870=PLANE('',#993);
#871=PLANE('',#994);
#872=PLANE('',#995);
#873=PLANE('',#996);
#874=PLANE('',#997);
#875=PLANE('',#998);
#876=ADVANCED_FACE('',(#786),#846,.T.);
#877=ADVANCED_FACE('',(#787),#847,.T.);
#878=ADVANCED_FACE('',(#788),#848,.T.);
#879=ADVANCED_FACE('',(#789,#790,#791,#792),#849,.T.);
#880=ADVANCED_FACE('',(#793),#850,.T.);
#881=ADVANCED_FACE('',(#794,#795),#851,.T.);
#882=ADVANCED_FACE('',(#796,#797),#852,.F.);
#883=ADVANCED_FACE('',(#798),#853,.T.);
#884=ADVANCED_FACE('',(#799),#854,.T.);
#885=ADVANCED_FACE('',(#800,#801,#802,#803),#855,.F.);
#886=ADVANCED_FACE('',(#804),#856,.F.);
#887=ADVANCED_FACE('',(#805),#857,.F.);
#888=ADVANCED_FACE('',(#806),#858,.T.);
#889=ADVANCED_FACE('',(#807,#808,#809,#810),#859,.T.);
#890=ADVANCED_FACE('',(#811),#20,.T.);
#891=ADVANCED_FACE('',(#812),#860,.F.);
#892=ADVANCED_FACE('',(#813),#861,.T.);
#893=ADVANCED_FACE('',(#814),#21,.T.);
#894=ADVANCED_FACE('',(#815,#816),#22,.T.);
#895=ADVANCED_FACE('',(#817),#862,.F.);
#896=ADVANCED_FACE('',(#818),#863,.T.);
#897=ADVANCED_FACE('',(#819),#864,.T.);
#898=ADVANCED_FACE('',(#820),#865,.T.);
#899=ADVANCED_FACE('',(#821),#866,.F.);
#900=ADVANCED_FACE('',(#822,#823),#867,.T.);
#901=ADVANCED_FACE('',(#824),#23,.T.);
#902=ADVANCED_FACE('',(#825),#24,.T.);
#903=ADVANCED_FACE('',(#826),#25,.T.);
#904=ADVANCED_FACE('',(#827),#12,.T.);
#905=ADVANCED_FACE('',(#828),#26,.T.);
#906=ADVANCED_FACE('',(#829),#27,.T.);
#907=ADVANCED_FACE('',(#830),#28,.T.);
#908=ADVANCED_FACE('',(#831),#13,.T.);
#909=ADVANCED_FACE('',(#832),#868,.F.);
#910=ADVANCED_FACE('',(#833),#869,.T.);
#911=ADVANCED_FACE('',(#834,#835),#29,.F.);
#912=ADVANCED_FACE('',(#836,#837),#30,.F.);
#913=ADVANCED_FACE('',(#838,#839),#31,.F.);
#914=ADVANCED_FACE('',(#840),#870,.T.);
#915=ADVANCED_FACE('',(#841),#871,.F.);
#916=ADVANCED_FACE('',(#842),#872,.F.);
#917=ADVANCED_FACE('',(#843),#873,.T.);
#918=ADVANCED_FACE('',(#844),#874,.F.);
#919=ADVANCED_FACE('',(#845),#875,.T.);
#920=CLOSED_SHELL('',(#876,#877,#878,#879,#880,#881,#882,#883,#884,#885,
#886,#887,#888,#889,#890,#891,#892,#893,#894,#895,#896,#897,#898,#899,#900,
#901,#902,#903,#904,#905,#906,#907,#908,#909,#910,#911,#912,#913,#914,#915,
#916,#917,#918,#919));
#921=STYLED_ITEM('',(#922),#929);
#922=PRESENTATION_STYLE_ASSIGNMENT((#923));
#923=SURFACE_STYLE_USAGE(.BOTH.,#924);
#924=SURFACE_SIDE_STYLE('',(#925));
#925=SURFACE_STYLE_FILL_AREA(#926);
#926=FILL_AREA_STYLE('',(#927));
#927=FILL_AREA_STYLE_COLOUR('',#928);
#928=COLOUR_RGB('',0.682352941176471,0.333333333333334,0.737254901960784);
#929=MANIFOLD_SOLID_BREP('Part 1',#920);
#930=SHAPE_DEFINITION_REPRESENTATION(#1516,#931);
#931=SHAPE_REPRESENTATION('Part 1',(#932),#1511);
#932=AXIS2_PLACEMENT_3D('',#1235,#999,#1000);
#933=AXIS2_PLACEMENT_3D('',#1236,#1001,#1002);
#934=AXIS2_PLACEMENT_3D('',#1245,#1007,#1008);
#935=AXIS2_PLACEMENT_3D('',#1254,#1013,#1014);
#936=AXIS2_PLACEMENT_3D('',#1263,#1019,#1020);
#937=AXIS2_PLACEMENT_3D('',#1264,#1021,#1022);
#938=AXIS2_PLACEMENT_3D('',#1266,#1023,#1024);
#939=AXIS2_PLACEMENT_3D('',#1268,#1025,#1026);
#940=AXIS2_PLACEMENT_3D('',#1286,#1035,#1036);
#941=AXIS2_PLACEMENT_3D('',#1295,#1041,#1042);
#942=AXIS2_PLACEMENT_3D('',#1296,#1043,#1044);
#943=AXIS2_PLACEMENT_3D('',#1324,#1059,#1060);
#944=AXIS2_PLACEMENT_3D('',#1329,#1064,#1065);
#945=AXIS2_PLACEMENT_3D('',#1330,#1066,#1067);
#946=AXIS2_PLACEMENT_3D('',#1344,#1074,#1075);
#947=AXIS2_PLACEMENT_3D('',#1366,#1088,#1089);
#948=AXIS2_PLACEMENT_3D('',#1367,#1090,#1091);
#949=AXIS2_PLACEMENT_3D('',#1377,#1096,#1097);
#950=AXIS2_PLACEMENT_3D('',#1380,#1100,#1101);
#951=AXIS2_PLACEMENT_3D('',#1381,#1102,#1103);
#952=AXIS2_PLACEMENT_3D('',#1383,#1104,#1105);
#953=AXIS2_PLACEMENT_3D('',#1385,#1106,#1107);
#954=AXIS2_PLACEMENT_3D('',#1389,#1110,#1111);
#955=AXIS2_PLACEMENT_3D('',#1395,#1114,#1115);
#956=AXIS2_PLACEMENT_3D('',#1400,#1118,#1119);
#957=AXIS2_PLACEMENT_3D('',#1401,#1120,#1121);
#958=AXIS2_PLACEMENT_3D('',#1405,#1124,#1125);
#959=AXIS2_PLACEMENT_3D('',#1422,#1138,#1139);
#960=AXIS2_PLACEMENT_3D('',#1425,#1141,#1142);
#961=AXIS2_PLACEMENT_3D('',#1426,#1143,#1144);
#962=AXIS2_PLACEMENT_3D('',#1432,#1148,#1149);
#963=AXIS2_PLACEMENT_3D('',#1434,#1151,#1152);
#964=AXIS2_PLACEMENT_3D('',#1435,#1153,#1154);
#965=AXIS2_PLACEMENT_3D('',#1436,#1155,#1156);
#966=AXIS2_PLACEMENT_3D('',#1437,#1157,#1158);
#967=AXIS2_PLACEMENT_3D('',#1438,#1159,#1160);
#968=AXIS2_PLACEMENT_3D('',#1441,#1162,#1163);
#969=AXIS2_PLACEMENT_3D('',#1442,#1164,#1165);
#970=AXIS2_PLACEMENT_3D('',#1443,#1166,#1167);
#971=AXIS2_PLACEMENT_3D('',#1446,#1169,#1170);
#972=AXIS2_PLACEMENT_3D('',#1454,#1175,#1176);
#973=AXIS2_PLACEMENT_3D('',#1462,#1181,#1182);
#974=AXIS2_PLACEMENT_3D('',#1464,#1184,#1185);
#975=AXIS2_PLACEMENT_3D('',#1465,#1186,#1187);
#976=AXIS2_PLACEMENT_3D('',#1466,#1188,#1189);
#977=AXIS2_PLACEMENT_3D('',#1467,#1190,#1191);
#978=AXIS2_PLACEMENT_3D('',#1468,#1192,#1193);
#979=AXIS2_PLACEMENT_3D('',#1469,#1194,#1195);
#980=AXIS2_PLACEMENT_3D('',#1470,#1196,#1197);
#981=AXIS2_PLACEMENT_3D('',#1476,#1198,#1199);
#982=AXIS2_PLACEMENT_3D('',#1482,#1200,#1201);
#983=AXIS2_PLACEMENT_3D('',#1483,#1202,#1203);
#984=AXIS2_PLACEMENT_3D('',#1484,#1204,#1205);
#985=AXIS2_PLACEMENT_3D('',#1485,#1206,#1207);
#986=AXIS2_PLACEMENT_3D('',#1491,#1208,#1209);
#987=AXIS2_PLACEMENT_3D('',#1497,#1210,#1211);
#988=AXIS2_PLACEMENT_3D('',#1498,#1212,#1213);
#989=AXIS2_PLACEMENT_3D('',#1500,#1215,#1216);
#990=AXIS2_PLACEMENT_3D('',#1501,#1217,#1218);
#991=AXIS2_PLACEMENT_3D('',#1502,#1219,#1220);
#992=AXIS2_PLACEMENT_3D('',#1503,#1221,#1222);
#993=AXIS2_PLACEMENT_3D('',#1504,#1223,#1224);
#994=AXIS2_PLACEMENT_3D('',#1505,#1225,#1226);
#995=AXIS2_PLACEMENT_3D('',#1506,#1227,#1228);
#996=AXIS2_PLACEMENT_3D('',#1507,#1229,#1230);
#997=AXIS2_PLACEMENT_3D('',#1508,#1231,#1232);
#998=AXIS2_PLACEMENT_3D('',#1509,#1233,#1234);
#999=DIRECTION('',(0.,0.,1.));
#1000=DIRECTION('',(1.,0.,0.));
#1001=DIRECTION('',(0.,-1.,0.));
#1002=DIRECTION('',(0.,0.,-1.));
#1003=DIRECTION('',(0.,0.,-1.));
#1004=DIRECTION('',(1.,0.,0.));
#1005=DIRECTION('',(0.,0.,-1.));
#1006=DIRECTION('',(1.,0.,0.));
#1007=DIRECTION('',(0.,-1.,0.));
#1008=DIRECTION('',(0.,0.,-1.));
#1009=DIRECTION('',(0.,0.,-1.));
#1010=DIRECTION('',(1.,0.,0.));
#1011=DIRECTION('',(0.,0.,-1.));
#1012=DIRECTION('',(1.,0.,0.));
#1013=DIRECTION('',(0.,-1.,0.));
#1014=DIRECTION('',(0.,0.,-1.));
#1015=DIRECTION('',(0.,0.,-1.));
#1016=DIRECTION('',(1.,0.,0.));
#1017=DIRECTION('',(0.,0.,-1.));
#1018=DIRECTION('',(1.,0.,0.));
#1019=DIRECTION('',(0.,-1.,-5.78241158658936E-17));
#1020=DIRECTION('',(0.,5.78241158658936E-17,-1.));
#1021=DIRECTION('',(0.,-1.,-5.78241158658936E-17));
#1022=DIRECTION('',(0.,5.78241158658936E-17,-1.));
#1023=DIRECTION('',(0.,-1.,-5.78241158658936E-17));
#1024=DIRECTION('',(0.,5.78241158658936E-17,-1.));
#1025=DIRECTION('',(0.,-1.,-5.78241158658936E-17));
#1026=DIRECTION('',(0.,5.78241158658936E-17,-1.));
#1027=DIRECTION('',(0.,5.78241158658936E-17,-1.));
#1028=DIRECTION('',(1.,0.,0.));
#1029=DIRECTION('',(0.,5.78241158658936E-17,-1.));
#1030=DIRECTION('',(1.,0.,0.));
#1031=DIRECTION('',(6.26930320438554E-33,5.78241158658936E-17,-1.));
#1032=DIRECTION('',(-1.,0.,0.));
#1033=DIRECTION('',(-6.26930320438554E-33,5.78241158658936E-17,-1.));
#1034=DIRECTION('',(1.,0.,0.));
#1035=DIRECTION('',(2.89120579329468E-16,-1.,0.));
#1036=DIRECTION('',(1.,2.89120579329468E-16,0.));
#1037=DIRECTION('',(-1.,-2.89120579329468E-16,0.));
#1038=DIRECTION('',(0.,0.,-1.));
#1039=DIRECTION('',(1.,0.,0.));
#1040=DIRECTION('',(0.,0.,-1.));
#1041=DIRECTION('',(1.,1.0842021724855E-16,0.));
#1042=DIRECTION('',(-1.0842021724855E-16,1.,0.));
#1043=DIRECTION('',(1.,0.,0.));
#1044=DIRECTION('',(0.,0.,-1.));
#1045=DIRECTION('',(0.,0.,-1.));
#1046=DIRECTION('',(-1.0842021724855E-16,1.,0.));
#1047=DIRECTION('',(0.,0.,-1.));
#1048=DIRECTION('',(-1.23908819712629E-16,1.,0.));
#1049=DIRECTION('',(0.,0.,1.));
#1050=DIRECTION('',(-1.23908819712629E-16,1.,0.));
#1051=DIRECTION('',(-1.23908819712629E-16,1.,0.));
#1052=DIRECTION('',(1.0842021724855E-16,1.34342211522547E-32,1.));
#1053=DIRECTION('',(-1.23908819712629E-16,1.,0.));
#1054=DIRECTION('',(-1.23908819712629E-16,1.,0.));
#1055=DIRECTION('',(1.0842021724855E-16,1.34342211522547E-32,1.));
#1056=DIRECTION('',(-1.23908819712629E-16,1.,0.));
#1057=DIRECTION('',(0.,1.,0.));
#1058=DIRECTION('',(0.,0.,-1.));
#1059=DIRECTION('',(1.,1.0842021724855E-16,0.));
#1060=DIRECTION('',(-1.0842021724855E-16,1.,0.));
#1061=DIRECTION('',(1.0842021724855E-16,-1.,0.));
#1062=DIRECTION('',(-1.0842021724855E-16,1.,0.));
#1063=DIRECTION('',(0.,1.,0.));
#1064=DIRECTION('',(1.,-1.0842021724855E-16,0.));
#1065=DIRECTION('',(1.0842021724855E-16,1.,0.));
#1066=DIRECTION('',(1.,0.,0.));
#1067=DIRECTION('',(0.,0.,-1.));
#1068=DIRECTION('',(1.0842021724855E-16,1.,0.));
#1069=DIRECTION('',(0.,0.,-1.));
#1070=DIRECTION('',(0.,1.,0.));
#1071=DIRECTION('',(1.0842021724855E-16,1.,0.));
#1072=DIRECTION('',(0.,0.,-1.));
#1073=DIRECTION('',(-1.0842021724855E-16,-1.,0.));
#1074=DIRECTION('',(1.,-1.0842021724855E-16,0.));
#1075=DIRECTION('',(1.0842021724855E-16,1.,0.));
#1076=DIRECTION('',(0.,0.,-1.));
#1077=DIRECTION('',(0.,1.,0.));
#1078=DIRECTION('',(-1.23908819712629E-16,1.,0.));
#1079=DIRECTION('',(1.0842021724855E-16,1.34342211522547E-32,1.));
#1080=DIRECTION('',(-1.23908819712629E-16,1.,0.));
#1081=DIRECTION('',(-1.23908819712629E-16,1.,0.));
#1082=DIRECTION('',(1.0842021724855E-16,1.34342211522547E-32,1.));
#1083=DIRECTION('',(-1.23908819712629E-16,1.,0.));
#1084=DIRECTION('',(-1.23908819712629E-16,1.,0.));
#1085=DIRECTION('',(1.0842021724855E-16,1.34342211522547E-32,1.));
#1086=DIRECTION('',(-1.23908819712629E-16,1.,0.));
#1087=DIRECTION('',(0.,0.,-1.));
#1088=DIRECTION('',(-1.,0.,0.));
#1089=DIRECTION('',(0.,0.,1.));
#1090=DIRECTION('',(-1.,0.,0.));
#1091=DIRECTION('',(0.,0.,1.));
#1092=DIRECTION('',(0.,0.,-1.));
#1093=DIRECTION('',(0.,-1.,0.));
#1094=DIRECTION('',(0.,0.,-1.));
#1095=DIRECTION('',(0.,1.,0.));
#1096=DIRECTION('',(0.,-1.,0.));
#1097=DIRECTION('',(0.,0.,-1.));
#1098=DIRECTION('',(1.,0.,0.));
#1099=DIRECTION('',(1.,0.,0.));
#1100=DIRECTION('',(-4.33680868994201E-16,-1.,0.));
#1101=DIRECTION('',(1.,-4.33680868994201E-16,0.));
#1102=DIRECTION('',(-4.33680868994201E-16,-1.,0.));
#1103=DIRECTION('',(1.,-4.33680868994201E-16,0.));
#1104=DIRECTION('',(-4.33680868994201E-16,-1.,0.));
#1105=DIRECTION('',(1.,-4.33680868994201E-16,0.));
#1106=DIRECTION('',(-4.33680868994201E-16,-1.,0.));
#1107=DIRECTION('',(1.,-4.33680868994201E-16,0.));
#1108=DIRECTION('',(1.,-4.33680868994201E-16,0.));
#1109=DIRECTION('',(1.,0.,0.));
#1110=DIRECTION('',(-1.,0.,0.));
#1111=DIRECTION('',(0.,0.,1.));
#1112=DIRECTION('',(0.,-1.,0.));
#1113=DIRECTION('',(0.,0.,-1.));
#1114=DIRECTION('',(-1.,0.,0.));
#1115=DIRECTION('',(0.,0.,1.));
#1116=DIRECTION('',(0.,1.,0.));
#1117=DIRECTION('',(0.,0.,-1.));
#1118=DIRECTION('',(0.,0.,-1.));
#1119=DIRECTION('',(-1.,0.,0.));
#1120=DIRECTION('',(0.,0.,1.));
#1121=DIRECTION('',(1.,0.,0.));
#1122=DIRECTION('',(1.,0.,0.));
#1123=DIRECTION('',(0.,1.,0.));
#1124=DIRECTION('',(-1.23908819712629E-16,1.,0.));
#1125=DIRECTION('',(-1.,-1.23908819712629E-16,0.));
#1126=DIRECTION('',(1.,1.23908819712629E-16,0.));
#1127=DIRECTION('',(1.,1.23908819712629E-16,0.));
#1128=DIRECTION('',(1.,1.23908819712629E-16,0.));
#1129=DIRECTION('',(1.,1.23908819712629E-16,0.));
#1130=DIRECTION('',(1.,1.23908819712629E-16,0.));
#1131=DIRECTION('',(1.,1.23908819712629E-16,0.));
#1132=DIRECTION('',(1.,0.,0.));
#1133=DIRECTION('',(0.,0.,-1.));
#1134=DIRECTION('',(1.,0.,0.));
#1135=DIRECTION('',(0.,0.,-1.));
#1136=DIRECTION('',(1.,0.,0.));
#1137=DIRECTION('',(-1.,-1.23908819712629E-16,0.));
#1138=DIRECTION('',(1.,0.,0.));
#1139=DIRECTION('',(0.,0.,-1.));
#1140=DIRECTION('',(1.,0.,0.));
#1141=DIRECTION('',(-1.,0.,0.));
#1142=DIRECTION('',(0.,0.,1.));
#1143=DIRECTION('',(2.89120579329468E-16,1.,0.));
#1144=DIRECTION('',(-1.,2.89120579329468E-16,0.));
#1145=DIRECTION('',(1.,0.,0.));
#1146=DIRECTION('',(0.,0.,-1.));
#1147=DIRECTION('',(1.,-2.89120579329468E-16,0.));
#1148=DIRECTION('',(0.,0.,1.));
#1149=DIRECTION('',(1.,0.,0.));
#1150=DIRECTION('',(0.,1.,0.));
#1151=DIRECTION('',(1.,0.,0.));
#1152=DIRECTION('',(0.,0.,-1.));
#1153=DIRECTION('',(-1.,0.,0.));
#1154=DIRECTION('',(0.,0.,1.));
#1155=DIRECTION('',(1.,0.,0.));
#1156=DIRECTION('',(0.,0.,-1.));
#1157=DIRECTION('',(0.,0.,-1.));
#1158=DIRECTION('',(-1.,0.,0.));
#1159=DIRECTION('',(0.,0.,-1.));
#1160=DIRECTION('',(-1.,0.,0.));
#1161=DIRECTION('',(0.,1.,0.));
#1162=DIRECTION('',(0.,0.,-1.));
#1163=DIRECTION('',(-1.,0.,0.));
#1164=DIRECTION('',(0.,0.,-1.));
#1165=DIRECTION('',(-1.,0.,0.));
#1166=DIRECTION('',(0.,0.,-1.));
#1167=DIRECTION('',(-1.,0.,0.));
#1168=DIRECTION('',(0.,1.,0.));
#1169=DIRECTION('',(1.,0.,0.));
#1170=DIRECTION('',(0.,1.,0.));
#1171=DIRECTION('',(0.,-1.,0.));
#1172=DIRECTION('',(0.,0.,-1.));
#1173=DIRECTION('',(0.,1.,0.));
#1174=DIRECTION('',(0.,0.,-1.));
#1175=DIRECTION('',(1.,0.,0.));
#1176=DIRECTION('',(0.,1.,0.));
#1177=DIRECTION('',(0.,-1.,0.));
#1178=DIRECTION('',(0.,0.,-1.));
#1179=DIRECTION('',(0.,-1.,0.));
#1180=DIRECTION('',(0.,0.,-1.));
#1181=DIRECTION('',(0.,0.,-1.));
#1182=DIRECTION('',(-1.,0.,0.));
#1183=DIRECTION('',(1.,0.,0.));
#1184=DIRECTION('',(0.,0.,-1.));
#1185=DIRECTION('',(-1.,0.,0.));
#1186=DIRECTION('',(0.,0.,-1.));
#1187=DIRECTION('',(-1.,0.,0.));
#1188=DIRECTION('',(0.,0.,-1.));
#1189=DIRECTION('',(-1.,0.,0.));
#1190=DIRECTION('',(0.,0.,-1.));
#1191=DIRECTION('',(-1.,0.,0.));
#1192=DIRECTION('',(0.,0.,-1.));
#1193=DIRECTION('',(-1.,0.,0.));
#1194=DIRECTION('',(0.,-0.707106781186548,-0.707106781186548));
#1195=DIRECTION('',(0.,-0.707106781186548,0.707106781186548));
#1196=DIRECTION('',(0.,-1.,0.));
#1197=DIRECTION('',(0.,0.,-1.));
#1198=DIRECTION('',(0.,0.,1.));
#1199=DIRECTION('',(1.,0.,0.));
#1200=DIRECTION('',(-1.,0.,0.));
#1201=DIRECTION('',(0.,0.,1.));
#1202=DIRECTION('',(0.,0.,-1.));
#1203=DIRECTION('',(-1.,0.,0.));
#1204=DIRECTION('',(0.,0.707106781186548,0.707106781186548));
#1205=DIRECTION('',(0.,0.707106781186548,-0.707106781186548));
#1206=DIRECTION('',(0.,1.,0.));
#1207=DIRECTION('',(0.,0.,1.));
#1208=DIRECTION('',(0.,0.,-1.));
#1209=DIRECTION('',(-1.,0.,0.));
#1210=DIRECTION('',(-1.,0.,0.));
#1211=DIRECTION('',(0.,0.,1.));
#1212=DIRECTION('',(0.,1.,0.));
#1213=DIRECTION('',(0.,0.,1.));
#1214=DIRECTION('',(1.,0.,0.));
#1215=DIRECTION('',(0.,0.,-1.));
#1216=DIRECTION('',(1.,0.,0.));
#1217=DIRECTION('',(0.,-1.,-5.78241158658936E-17));
#1218=DIRECTION('',(0.,5.78241158658936E-17,-1.));
#1219=DIRECTION('',(0.,-1.,-5.78241158658936E-17));
#1220=DIRECTION('',(0.,5.78241158658936E-17,-1.));
#1221=DIRECTION('',(0.,-1.,-5.78241158658936E-17));
#1222=DIRECTION('',(0.,5.78241158658936E-17,-1.));
#1223=DIRECTION('',(0.,0.,1.));
#1224=DIRECTION('',(1.,0.,0.));
#1225=DIRECTION('',(0.,0.,1.));
#1226=DIRECTION('',(1.,0.,0.));
#1227=DIRECTION('',(0.,0.,1.));
#1228=DIRECTION('',(1.,0.,0.));
#1229=DIRECTION('',(0.,0.,1.));
#1230=DIRECTION('',(1.,0.,0.));
#1231=DIRECTION('',(0.,0.,1.));
#1232=DIRECTION('',(1.,0.,0.));
#1233=DIRECTION('',(0.,0.,1.));
#1234=DIRECTION('',(1.,0.,0.));
#1235=CARTESIAN_POINT('',(0.,0.,0.));
#1236=CARTESIAN_POINT('',(-0.0005,0.0055,0.02));
#1237=CARTESIAN_POINT('',(-0.001,0.0055,0.02));
#1238=CARTESIAN_POINT('',(-0.001,0.0055,-0.0015));
#1239=CARTESIAN_POINT('',(-0.001,0.0055,-0.003));
#1240=CARTESIAN_POINT('',(3.59360358930567E-18,0.0055,-0.003));
#1241=CARTESIAN_POINT('',(0.001,0.0055,-0.003));
#1242=CARTESIAN_POINT('',(0.001,0.0055,0.02));
#1243=CARTESIAN_POINT('',(0.001,0.0055,-0.0015));
#1244=CARTESIAN_POINT('',(3.37676315480857E-18,0.0055,-0.0015));
#1245=CARTESIAN_POINT('',(-0.0005,0.0055,0.02));
#1246=CARTESIAN_POINT('',(-0.001,0.0055,0.02));
#1247=CARTESIAN_POINT('',(-0.001,0.0055,0.002));
#1248=CARTESIAN_POINT('',(-0.001,0.0055,0.0005));
#1249=CARTESIAN_POINT('',(3.15992272031146E-18,0.0055,0.0005));
#1250=CARTESIAN_POINT('',(0.001,0.0055,0.0005));
#1251=CARTESIAN_POINT('',(0.001,0.0055,0.02));
#1252=CARTESIAN_POINT('',(0.001,0.0055,0.002));
#1253=CARTESIAN_POINT('',(2.72624185131726E-18,0.0055,0.002));
#1254=CARTESIAN_POINT('',(-0.0005,0.0055,0.02));
#1255=CARTESIAN_POINT('',(-0.001,0.0055,0.02));
#1256=CARTESIAN_POINT('',(-0.001,0.0055,0.005));
#1257=CARTESIAN_POINT('',(-0.001,0.0055,0.004));
#1258=CARTESIAN_POINT('',(2.29256098232307E-18,0.0055,0.004));
#1259=CARTESIAN_POINT('',(0.001,0.0055,0.004));
#1260=CARTESIAN_POINT('',(0.001,0.0055,0.02));
#1261=CARTESIAN_POINT('',(0.001,0.0055,0.005));
#1262=CARTESIAN_POINT('',(-0.0005,0.0055,0.005));
#1263=CARTESIAN_POINT('',(-0.0045,-0.0045,0.0015));
#1264=CARTESIAN_POINT('',(-1.51788304147971E-18,-0.0045,0.0005));
#1265=CARTESIAN_POINT('',(-1.51788304147971E-18,-0.0045,0.));
#1266=CARTESIAN_POINT('',(-1.51788304147971E-18,-0.0045,0.0035));
#1267=CARTESIAN_POINT('',(-1.51788304147971E-18,-0.0045,0.003));
#1268=CARTESIAN_POINT('',(-1.51788304147971E-18,-0.0045,0.0065));
#1269=CARTESIAN_POINT('',(-1.51788304147971E-18,-0.0045,0.006));
#1270=CARTESIAN_POINT('',(-0.0045,-0.0045,0.0015));
#1271=CARTESIAN_POINT('',(-0.0045,-0.0045,0.009));
#1272=CARTESIAN_POINT('',(-0.0045,-0.0045,-0.001));
#1273=CARTESIAN_POINT('',(-0.0045,-0.0045,-0.001));
#1274=CARTESIAN_POINT('',(0.0045,-0.0045,-0.001));
#1275=CARTESIAN_POINT('',(0.0045,-0.0045,0.0015));
#1276=CARTESIAN_POINT('',(0.0045,-0.0045,0.009));
#1277=CARTESIAN_POINT('',(-0.0045,-0.0045,0.009));
#1278=CARTESIAN_POINT('',(0.001,-0.0045,0.009));
#1279=CARTESIAN_POINT('',(0.001,-0.0045,0.02));
#1280=CARTESIAN_POINT('',(0.001,-0.0045,0.008));
#1281=CARTESIAN_POINT('',(-0.001,-0.0045,0.008));
#1282=CARTESIAN_POINT('',(-0.001,-0.0045,0.008));
#1283=CARTESIAN_POINT('',(-0.001,-0.0045,0.02));
#1284=CARTESIAN_POINT('',(-0.001,-0.0045,0.009));
#1285=CARTESIAN_POINT('',(-0.0045,-0.0045,0.009));
#1286=CARTESIAN_POINT('',(-0.004,-0.0075,0.02));
#1287=CARTESIAN_POINT('',(-0.004,-0.0075,0.02));
#1288=CARTESIAN_POINT('',(-0.001,-0.0075,0.02));
#1289=CARTESIAN_POINT('',(-0.003,-0.0075,0.02));
#1290=CARTESIAN_POINT('',(-0.003,-0.0075,0.02));
#1291=CARTESIAN_POINT('',(-0.003,-0.0075,0.009));
#1292=CARTESIAN_POINT('',(-0.0045,-0.0075,0.009));
#1293=CARTESIAN_POINT('',(-0.001,-0.0075,0.009));
#1294=CARTESIAN_POINT('',(-0.001,-0.0075,0.02));
#1295=CARTESIAN_POINT('',(-0.001,-0.0065,0.02));
#1296=CARTESIAN_POINT('',(-0.001,-0.001,0.014));
#1297=CARTESIAN_POINT('',(-0.001,-0.001,0.0115));
#1298=CARTESIAN_POINT('',(-0.001,0.0035,0.02));
#1299=CARTESIAN_POINT('',(-0.001,0.0035,0.008));
#1300=CARTESIAN_POINT('',(-0.001,0.0035,-0.006));
#1301=CARTESIAN_POINT('',(-0.001,-0.0065,-0.006));
#1302=CARTESIAN_POINT('',(-0.001,0.0055,-0.006));
#1303=CARTESIAN_POINT('',(-0.001,0.0055,0.02));
#1304=CARTESIAN_POINT('',(-0.001,0.0055,-0.005));
#1305=CARTESIAN_POINT('',(-0.001,-0.007502,-0.005));
#1306=CARTESIAN_POINT('',(-0.001,0.0075,-0.005));
#1307=CARTESIAN_POINT('',(-0.001,0.0075,-0.004));
#1308=CARTESIAN_POINT('',(-0.001,0.0075,-0.003));
#1309=CARTESIAN_POINT('',(-0.001,-0.007502,-0.003));
#1310=CARTESIAN_POINT('',(-0.001,-0.007502,-0.0015));
#1311=CARTESIAN_POINT('',(-0.001,0.0075,-0.0015));
#1312=CARTESIAN_POINT('',(-0.001,0.0075,-0.0005));
#1313=CARTESIAN_POINT('',(-0.001,0.0075,0.0005));
#1314=CARTESIAN_POINT('',(-0.001,-0.007502,0.0005));
#1315=CARTESIAN_POINT('',(-0.001,-0.007502,0.002));
#1316=CARTESIAN_POINT('',(-0.001,0.0075,0.002));
#1317=CARTESIAN_POINT('',(-0.001,0.0075,0.003));
#1318=CARTESIAN_POINT('',(-0.001,0.0075,0.004));
#1319=CARTESIAN_POINT('',(-0.001,-0.007502,0.004));
#1320=CARTESIAN_POINT('',(-0.001,0.00550474603049468,0.005));
#1321=CARTESIAN_POINT('',(-0.001,0.0075,0.005));
#1322=CARTESIAN_POINT('',(-0.001,0.0075,0.02));
#1323=CARTESIAN_POINT('',(-0.001,0.0075,0.006));
#1324=CARTESIAN_POINT('',(-0.001,-0.00749932430149589,0.0058576254989315));
#1325=CARTESIAN_POINT('',(-0.001,-0.0025,0.02));
#1326=CARTESIAN_POINT('',(-0.001,-0.0065,0.02));
#1327=CARTESIAN_POINT('',(-0.001,-0.0065,0.009));
#1328=CARTESIAN_POINT('',(-0.001,-0.000999999999999988,0.008));
#1329=CARTESIAN_POINT('',(0.001,-0.0065,0.02));
#1330=CARTESIAN_POINT('',(0.001,-0.001,0.014));
#1331=CARTESIAN_POINT('',(0.001,-0.001,0.0115));
#1332=CARTESIAN_POINT('',(0.001,-0.0065,-0.006));
#1333=CARTESIAN_POINT('',(0.001,0.0035,-0.006));
#1334=CARTESIAN_POINT('',(0.001,0.0055,-0.006));
#1335=CARTESIAN_POINT('',(0.001,0.0035,0.02));
#1336=CARTESIAN_POINT('',(0.001,0.0035,0.008));
#1337=CARTESIAN_POINT('',(0.001,-0.000999999999999988,0.008));
#1338=CARTESIAN_POINT('',(0.001,-0.0065,0.009));
#1339=CARTESIAN_POINT('',(0.001,-0.0075,0.009));
#1340=CARTESIAN_POINT('',(0.001,-0.0075,0.02));
#1341=CARTESIAN_POINT('',(0.001,-0.0075,0.02));
#1342=CARTESIAN_POINT('',(0.001,-0.0065,0.02));
#1343=CARTESIAN_POINT('',(0.001,-0.0025,0.02));
#1344=CARTESIAN_POINT('',(0.001,-0.00749932430149589,0.0058576254989315));
#1345=CARTESIAN_POINT('',(0.001,0.0075,0.006));
#1346=CARTESIAN_POINT('',(0.001,0.0075,0.02));
#1347=CARTESIAN_POINT('',(0.001,0.0075,0.005));
#1348=CARTESIAN_POINT('',(0.001,0.00550474603049468,0.005));
#1349=CARTESIAN_POINT('',(0.001,-0.007502,0.004));
#1350=CARTESIAN_POINT('',(0.001,0.0075,0.004));
#1351=CARTESIAN_POINT('',(0.001,0.0075,0.003));
#1352=CARTESIAN_POINT('',(0.001,0.0075,0.002));
#1353=CARTESIAN_POINT('',(0.001,-0.007502,0.002));
#1354=CARTESIAN_POINT('',(0.001,-0.007502,0.0005));
#1355=CARTESIAN_POINT('',(0.001,0.0075,0.0005));
#1356=CARTESIAN_POINT('',(0.001,0.0075,-0.0005));
#1357=CARTESIAN_POINT('',(0.001,0.0075,-0.0015));
#1358=CARTESIAN_POINT('',(0.001,-0.007502,-0.0015));
#1359=CARTESIAN_POINT('',(0.001,-0.007502,-0.003));
#1360=CARTESIAN_POINT('',(0.001,0.0075,-0.003));
#1361=CARTESIAN_POINT('',(0.001,0.0075,-0.004));
#1362=CARTESIAN_POINT('',(0.001,0.0075,-0.005));
#1363=CARTESIAN_POINT('',(0.001,-0.007502,-0.005));
#1364=CARTESIAN_POINT('',(0.001,0.0055,-0.005));
#1365=CARTESIAN_POINT('',(0.001,0.0055,0.02));
#1366=CARTESIAN_POINT('',(-0.007,8.67361737988404E-19,0.02));
#1367=CARTESIAN_POINT('',(-0.007,-0.00749932430149589,0.0058576254989315));
#1368=CARTESIAN_POINT('',(-0.007,-0.00324112756108153,0.016));
#1369=CARTESIAN_POINT('',(-0.007,0.0035,0.00597954723826396));
#1370=CARTESIAN_POINT('',(-0.007,0.0035,0.02));
#1371=CARTESIAN_POINT('',(-0.007,0.0035,-0.006));
#1372=CARTESIAN_POINT('',(-0.007,8.67361737988404E-19,-0.006));
#1373=CARTESIAN_POINT('',(-0.007,-0.0035,-0.006));
#1374=CARTESIAN_POINT('',(-0.007,-0.0035,0.02));
#1375=CARTESIAN_POINT('',(-0.007,-0.0035,0.016));
#1376=CARTESIAN_POINT('',(-0.007,8.67361737988404E-19,0.016));
#1377=CARTESIAN_POINT('',(-0.0005,0.0055,0.02));
#1378=CARTESIAN_POINT('',(4.02728445829987E-18,0.0055,-0.005));
#1379=CARTESIAN_POINT('',(-0.0005,0.0055,-0.006));
#1380=CARTESIAN_POINT('',(0.0005,0.0035,0.02));
#1381=CARTESIAN_POINT('',(-1.51788304147971E-18,0.0035,0.0005));
#1382=CARTESIAN_POINT('',(0.000499999999999998,0.0035,0.0005));
#1383=CARTESIAN_POINT('',(-1.51788304147971E-18,0.0035,0.0035));
#1384=CARTESIAN_POINT('',(0.000499999999999998,0.0035,0.0035));
#1385=CARTESIAN_POINT('',(-1.51788304147971E-18,0.0035,0.0065));
#1386=CARTESIAN_POINT('',(0.000499999999999998,0.0035,0.0065));
#1387=CARTESIAN_POINT('',(0.0005,0.0035,-0.006));
#1388=CARTESIAN_POINT('',(-0.001,0.0035,0.008));
#1389=CARTESIAN_POINT('',(0.007,8.67361737988404E-19,0.02));
#1390=CARTESIAN_POINT('',(0.007,8.67361737988404E-19,-0.006));
#1391=CARTESIAN_POINT('',(0.007,0.0035,-0.006));
#1392=CARTESIAN_POINT('',(0.007,-0.0035,-0.006));
#1393=CARTESIAN_POINT('',(0.007,0.0035,0.006));
#1394=CARTESIAN_POINT('',(0.007,0.0035,0.00597954723826373));
#1395=CARTESIAN_POINT('',(0.007,-0.00749932430149589,0.0058576254989315));
#1396=CARTESIAN_POINT('',(0.007,-0.00324112756108153,0.016));
#1397=CARTESIAN_POINT('',(0.007,-0.0075,0.016));
#1398=CARTESIAN_POINT('',(0.007,-0.0035,0.016));
#1399=CARTESIAN_POINT('',(0.007,-0.0035,0.02));
#1400=CARTESIAN_POINT('',(-0.001,-0.000999999999999988,0.008));
#1401=CARTESIAN_POINT('',(0.,0.,0.02));
#1402=CARTESIAN_POINT('',(-0.0449655335859781,-0.0025,0.02));
#1403=CARTESIAN_POINT('',(-0.003,-0.0025,0.02));
#1404=CARTESIAN_POINT('',(-0.003,0.,0.02));
#1405=CARTESIAN_POINT('',(-0.0035,0.0075,0.02));
#1406=CARTESIAN_POINT('',(2.16840434497101E-18,0.0075,-0.005));
#1407=CARTESIAN_POINT('',(1.7347234759768E-18,0.0075,-0.003));
#1408=CARTESIAN_POINT('',(1.51788304147971E-18,0.0075,-0.0015));
#1409=CARTESIAN_POINT('',(1.3010426069826E-18,0.0075,0.0005));
#1410=CARTESIAN_POINT('',(8.67361737988404E-19,0.0075,0.002));
#1411=CARTESIAN_POINT('',(4.33680868994202E-19,0.0075,0.004));
#1412=CARTESIAN_POINT('',(-0.0449655335859781,0.0075,0.006));
#1413=CARTESIAN_POINT('',(0.003,0.0075,0.006));
#1414=CARTESIAN_POINT('',(0.003,0.0075,-0.006));
#1415=CARTESIAN_POINT('',(0.003,0.0075,-0.006));
#1416=CARTESIAN_POINT('',(-0.0449655335859781,0.0075,-0.006));
#1417=CARTESIAN_POINT('',(-0.003,0.0075,-0.006));
#1418=CARTESIAN_POINT('',(-0.003,0.0075,0.02));
#1419=CARTESIAN_POINT('',(-0.003,0.0075,0.006));
#1420=CARTESIAN_POINT('',(-0.0449655335859781,0.0075,0.006));
#1421=CARTESIAN_POINT('',(-0.0035,0.0075,0.005));
#1422=CARTESIAN_POINT('',(-0.0449655335859781,-0.00749932430149589,0.0058576254989315));
#1423=CARTESIAN_POINT('',(-0.0449655335859781,-0.0025,0.02));
#1424=CARTESIAN_POINT('',(0.003,-0.0025,0.02));
#1425=CARTESIAN_POINT('',(0.003,-0.00749932430149589,0.0058576254989315));
#1426=CARTESIAN_POINT('',(0.004,-0.0075,0.02));
#1427=CARTESIAN_POINT('',(-0.0045,-0.0075,0.009));
#1428=CARTESIAN_POINT('',(0.003,-0.0075,0.009));
#1429=CARTESIAN_POINT('',(0.003,-0.0075,0.02));
#1430=CARTESIAN_POINT('',(0.003,-0.0075,0.02));
#1431=CARTESIAN_POINT('',(0.004,-0.0075,0.02));
#1432=CARTESIAN_POINT('',(0.,0.,0.02));
#1433=CARTESIAN_POINT('',(0.003,-0.0025,0.02));
#1434=CARTESIAN_POINT('',(-0.0449655335859781,-0.00749932430149589,0.0058576254989315));
#1435=CARTESIAN_POINT('',(-0.003,-0.00749932430149589,0.0058576254989315));
#1436=CARTESIAN_POINT('',(-0.001,-0.001,0.014));
#1437=CARTESIAN_POINT('',(-0.001,0.00550474603049468,0.005));
#1438=CARTESIAN_POINT('',(-0.0045,-0.006,0.009));
#1439=CARTESIAN_POINT('',(0.0045,-0.006,0.009));
#1440=CARTESIAN_POINT('',(0.0045,-0.00720809924354783,0.009));
#1441=CARTESIAN_POINT('',(0.003,-0.0035,0.009));
#1442=CARTESIAN_POINT('',(-0.0045,-0.006,0.009));
#1443=CARTESIAN_POINT('',(-0.003,-0.0035,0.009));
#1444=CARTESIAN_POINT('',(-0.0045,-0.00720809924354783,0.009));
#1445=CARTESIAN_POINT('',(-0.0045,-0.006,0.009));
#1446=CARTESIAN_POINT('',(-0.0045,0.,-0.0055));
#1447=CARTESIAN_POINT('',(-0.0045,-0.006,-0.006));
#1448=CARTESIAN_POINT('',(-0.0045,0.0015,-0.006));
#1449=CARTESIAN_POINT('',(-0.0045,-0.00720809924354783,-0.006));
#1450=CARTESIAN_POINT('',(-0.0045,0.0015,-0.001));
#1451=CARTESIAN_POINT('',(-0.0045,0.0015,-0.001));
#1452=CARTESIAN_POINT('',(-0.0045,-0.003,-0.001));
#1453=CARTESIAN_POINT('',(-0.0045,-0.00720809924354783,0.009));
#1454=CARTESIAN_POINT('',(0.0045,0.,-0.0055));
#1455=CARTESIAN_POINT('',(0.0045,-0.006,-0.001));
#1456=CARTESIAN_POINT('',(0.0045,0.0015,-0.001));
#1457=CARTESIAN_POINT('',(0.0045,0.0015,-0.001));
#1458=CARTESIAN_POINT('',(0.0045,0.0015,-0.006));
#1459=CARTESIAN_POINT('',(0.0045,-0.006,-0.006));
#1460=CARTESIAN_POINT('',(0.0045,-0.00720809924354783,-0.006));
#1461=CARTESIAN_POINT('',(0.0045,-0.00720809924354783,-0.006));
#1462=CARTESIAN_POINT('',(-0.0449655335859781,0.0015,-0.006));
#1463=CARTESIAN_POINT('',(0.,0.0015,-0.006));
#1464=CARTESIAN_POINT('',(-0.003,-0.0035,-0.006));
#1465=CARTESIAN_POINT('',(-0.003,0.0035,-0.006));
#1466=CARTESIAN_POINT('',(0.003,0.0035,-0.006));
#1467=CARTESIAN_POINT('',(0.003,-0.0035,-0.006));
#1468=CARTESIAN_POINT('',(0.003,-0.0035,0.02));
#1469=CARTESIAN_POINT('',(0.003,-0.0035,0.016));
#1470=CARTESIAN_POINT('',(0.003,0.,0.016));
#1471=CARTESIAN_POINT('',(0.003,-0.0025,0.02));
#1472=CARTESIAN_POINT('',(0.00406575856809828,-0.0025,0.02));
#1473=CARTESIAN_POINT('',(0.00614809749955541,-0.00264781989294296,0.0191176818890466));
#1474=CARTESIAN_POINT('',(0.007,-0.00303379881089487,0.0170298930381797));
#1475=CARTESIAN_POINT('',(0.007,-0.00324112756108153,0.016));
#1476=CARTESIAN_POINT('',(0.003,0.0035,0.02));
#1477=CARTESIAN_POINT('',(0.003,0.0075,0.00600000000000064));
#1478=CARTESIAN_POINT('',(0.00405651376075989,0.0075,0.00600000000000064));
#1479=CARTESIAN_POINT('',(0.0061268989929125,0.00663774230107241,0.00599600979592671));
#1480=CARTESIAN_POINT('',(0.007,0.00454161962972756,0.00598530428671332));
#1481=CARTESIAN_POINT('',(0.007,0.0035,0.00597954723826373));
#1482=CARTESIAN_POINT('',(0.003,-0.00749932430149589,0.0058576254989315));
#1483=CARTESIAN_POINT('',(-0.003,-0.0035,0.02));
#1484=CARTESIAN_POINT('',(-0.003,-0.0035,0.016));
#1485=CARTESIAN_POINT('',(-0.003,8.67361737988404E-19,0.016));
#1486=CARTESIAN_POINT('',(-0.003,-0.0025,0.02));
#1487=CARTESIAN_POINT('',(-0.00406575856809828,-0.0025,0.02));
#1488=CARTESIAN_POINT('',(-0.00614809749955541,-0.00264781989294296,0.0191176818890466));
#1489=CARTESIAN_POINT('',(-0.007,-0.00303379881089487,0.0170298930381797));
#1490=CARTESIAN_POINT('',(-0.007,-0.00324112756108153,0.016));
#1491=CARTESIAN_POINT('',(-0.003,0.0035,0.02));
#1492=CARTESIAN_POINT('',(-0.003,0.0075,0.00600000000000074));
#1493=CARTESIAN_POINT('',(-0.00405651376075989,0.0075,0.00600000000000074));
#1494=CARTESIAN_POINT('',(-0.0061268989929125,0.00663774230107234,0.00599600979594062));
#1495=CARTESIAN_POINT('',(-0.007,0.00454161962972771,0.00598530428668504));
#1496=CARTESIAN_POINT('',(-0.007,0.0035,0.00597954723826396));
#1497=CARTESIAN_POINT('',(-0.003,-0.00749932430149589,0.0058576254989315));
#1498=CARTESIAN_POINT('',(0.,0.0015,-0.001));
#1499=CARTESIAN_POINT('',(0.,0.0015,-0.001));
#1500=CARTESIAN_POINT('',(-6.93889390390723E-18,-3.46944695195361E-18,-0.001));
#1501=CARTESIAN_POINT('',(-1.51788304147971E-18,0.007502,0.0065));
#1502=CARTESIAN_POINT('',(-1.51788304147971E-18,0.007502,0.0035));
#1503=CARTESIAN_POINT('',(-1.51788304147971E-18,0.007502,0.0005));
#1504=CARTESIAN_POINT('',(2.72624185131726E-18,-0.007502,0.002));
#1505=CARTESIAN_POINT('',(2.29256098232307E-18,-0.007502,0.004));
#1506=CARTESIAN_POINT('',(3.15992272031146E-18,-0.007502,0.0005));
#1507=CARTESIAN_POINT('',(3.37676315480857E-18,-0.007502,-0.0015));
#1508=CARTESIAN_POINT('',(3.59360358930567E-18,-0.007502,-0.003));
#1509=CARTESIAN_POINT('',(4.02728445829987E-18,-0.007502,-0.005));
#1510=MECHANICAL_DESIGN_GEOMETRIC_PRESENTATION_REPRESENTATION('',(#921),
#1511);
#1511=(
GEOMETRIC_REPRESENTATION_CONTEXT(3)
GLOBAL_UNCERTAINTY_ASSIGNED_CONTEXT((#1512))
GLOBAL_UNIT_ASSIGNED_CONTEXT((#1515,#1514,#1513))
REPRESENTATION_CONTEXT('Part 1','TOP_LEVEL_ASSEMBLY_PART')
);
#1512=UNCERTAINTY_MEASURE_WITH_UNIT(LENGTH_MEASURE(2.E-5),#1515,
'DISTANCE_ACCURACY_VALUE','Maximum Tolerance applied to model');
#1513=(
NAMED_UNIT(*)
SI_UNIT($,.STERADIAN.)
SOLID_ANGLE_UNIT()
);
#1514=(
NAMED_UNIT(*)
PLANE_ANGLE_UNIT()
SI_UNIT($,.RADIAN.)
);
#1515=(
LENGTH_UNIT()
NAMED_UNIT(*)
SI_UNIT($,.METRE.)
);
#1516=PRODUCT_DEFINITION_SHAPE('','',#1517);
#1517=PRODUCT_DEFINITION('','',#1519,#1518);
#1518=PRODUCT_DEFINITION_CONTEXT('',#1525,'design');
#1519=PRODUCT_DEFINITION_FORMATION_WITH_SPECIFIED_SOURCE('','',#1521,
 .NOT_KNOWN.);
#1520=PRODUCT_RELATED_PRODUCT_CATEGORY('','',(#1521));
#1521=PRODUCT('Part 1','Part 1','Part 1',(#1523));
#1522=PRODUCT_CATEGORY('','');
#1523=PRODUCT_CONTEXT('',#1525,'mechanical');
#1524=APPLICATION_PROTOCOL_DEFINITION('international standard',
'ap242_managed_model_based_3d_engineering',2020,#1525);
#1525=APPLICATION_CONTEXT('managed model based 3d engineering');
ENDSEC;
END-ISO-10303-21;
