ISO-10303-21;
HEADER;
/* Generated by software containing ST-Developer
 * from STEP Tools, Inc. (www.steptools.com) 
 */
/* OPTION: using custom renumber hook */

FILE_DESCRIPTION(
/* description */ ('STEP AP242 Edition 2',
'CAx-IF Rec.Pracs.---Representation and Presentation of Product Manufa
cturing Information (PMI)---4.0---2014-10-13',
'CAx-IF Rec.Pracs.---3D Tessellated Geometry---0.4---2014-09-14','2;1',
'CAx-IF Rec.Pracs.---User Defined Attributes---1.5---2016-08-15'),
/* implementation_level */ '2;1');

FILE_NAME(
/* name */ 'Spring_finger_base - Part 1',
/* time_stamp */ '2026-05-19T16:26:55Z',
/* author */ (''),
/* organization */ (''),
/* preprocessor_version */ 'ST-DEVELOPER v20',
/* originating_system */ 'ONSHAPE BY PTC INC, 1.215',
/* authorisation */ '  ');

FILE_SCHEMA (('AP242_MANAGED_MODEL_BASED_3D_ENGINEERING_MIM_LF { 1 0 10303 442 3 1 4 }'));
ENDSEC;

DATA;
#10=SHAPE_REPRESENTATION_RELATIONSHIP('','',#777,#11);
#11=ADVANCED_BREP_SHAPE_REPRESENTATION('',(#775),#1308);
#12=ELLIPSE('',#854,0.00707106781186547,0.005);
#13=ELLIPSE('',#856,0.00707106781186547,0.005);
#14=ELLIPSE('',#858,0.00707106781186547,0.005);
#15=ELLIPSE('',#860,0.00707106781186547,0.005);
#16=B_SPLINE_CURVE_WITH_KNOTS('',3,(#1238,#1239,#1240,#1241,#1242),
 .UNSPECIFIED.,.F.,.F.,(4,1,4),(0.,0.000627819830786381,0.00125563966157276),
 .UNSPECIFIED.);
#17=B_SPLINE_CURVE_WITH_KNOTS('',3,(#1244,#1245,#1246,#1247,#1248),
 .UNSPECIFIED.,.F.,.F.,(4,1,4),(0.,0.000627819830786391,0.00125563966157278),
 .UNSPECIFIED.);
#18=B_SPLINE_CURVE_WITH_KNOTS('',3,(#1286,#1287,#1288,#1289,#1290,#1291,
#1292,#1293,#1294,#1295,#1296),.UNSPECIFIED.,.T.,.F.,(1,1,1,1,1,1,1,1,1,
1,1,1,1,1,1),(-0.00184493798739233,-0.00122995865826155,-0.000614979329130777,
3.21408605251785E-19,0.000614979329130777,0.00122995865826155,0.00184493798739233,
0.00245991731652311,0.00307489664565388,0.00368987597478466,0.00430485530391544,
0.00491983463304621,0.00553481396217699,0.00614979329130777,0.00676477262043855),
 .UNSPECIFIED.);
#19=CYLINDRICAL_SURFACE('',#799,0.00804166666666667);
#20=CYLINDRICAL_SURFACE('',#826,0.00075);
#21=CYLINDRICAL_SURFACE('',#827,0.00075);
#22=CYLINDRICAL_SURFACE('',#828,0.00075);
#23=CYLINDRICAL_SURFACE('',#829,0.00075);
#24=CYLINDRICAL_SURFACE('',#830,0.00075);
#25=CYLINDRICAL_SURFACE('',#831,0.00075);
#26=CYLINDRICAL_SURFACE('',#839,0.00075);
#27=CYLINDRICAL_SURFACE('',#840,0.00075);
#28=CYLINDRICAL_SURFACE('',#841,0.00075);
#29=CYLINDRICAL_SURFACE('',#844,0.00075);
#30=CYLINDRICAL_SURFACE('',#845,0.00075);
#31=CYLINDRICAL_SURFACE('',#846,0.00075);
#32=CYLINDRICAL_SURFACE('',#847,0.00075);
#33=CYLINDRICAL_SURFACE('',#848,0.00075);
#34=CYLINDRICAL_SURFACE('',#849,0.00075);
#35=CYLINDRICAL_SURFACE('',#852,0.00075);
#36=CYLINDRICAL_SURFACE('',#853,0.005);
#37=CYLINDRICAL_SURFACE('',#855,0.005);
#38=CYLINDRICAL_SURFACE('',#857,0.005);
#39=CYLINDRICAL_SURFACE('',#859,0.005);
#40=CYLINDRICAL_SURFACE('',#861,0.005);
#41=CIRCLE('',#780,0.00075);
#42=CIRCLE('',#781,0.00075);
#43=CIRCLE('',#782,0.00804166666666667);
#44=CIRCLE('',#783,0.00075);
#45=CIRCLE('',#784,0.00075);
#46=CIRCLE('',#785,0.00075);
#47=CIRCLE('',#786,0.00075);
#48=CIRCLE('',#788,0.00804166666666667);
#49=CIRCLE('',#790,0.00075);
#50=CIRCLE('',#791,0.00075);
#51=CIRCLE('',#792,0.00075);
#52=CIRCLE('',#793,0.00075);
#53=CIRCLE('',#794,0.00075);
#54=CIRCLE('',#796,0.005);
#55=CIRCLE('',#803,0.00075);
#56=CIRCLE('',#804,0.00075);
#57=CIRCLE('',#805,0.00075);
#58=CIRCLE('',#806,0.00075);
#59=CIRCLE('',#807,0.00075);
#60=CIRCLE('',#808,0.00075);
#61=CIRCLE('',#809,0.00075);
#62=CIRCLE('',#810,0.00075);
#63=CIRCLE('',#811,0.00075);
#64=CIRCLE('',#813,0.005);
#65=CIRCLE('',#815,0.005);
#66=CIRCLE('',#817,0.00075);
#67=CIRCLE('',#818,0.00075);
#68=CIRCLE('',#819,0.00075);
#69=CIRCLE('',#821,0.005);
#70=CIRCLE('',#823,0.00075);
#71=CIRCLE('',#824,0.00075);
#72=CIRCLE('',#825,0.00075);
#73=CIRCLE('',#834,0.00075);
#74=CIRCLE('',#835,0.00075);
#75=CIRCLE('',#836,0.00075);
#76=CIRCLE('',#837,0.005);
#77=CIRCLE('',#838,0.005);
#78=CIRCLE('',#843,0.00075);
#79=CIRCLE('',#851,0.00075);
#80=ORIENTED_EDGE('',*,*,#272,.F.);
#81=ORIENTED_EDGE('',*,*,#273,.T.);
#82=ORIENTED_EDGE('',*,*,#274,.F.);
#83=ORIENTED_EDGE('',*,*,#275,.T.);
#84=ORIENTED_EDGE('',*,*,#276,.T.);
#85=ORIENTED_EDGE('',*,*,#277,.T.);
#86=ORIENTED_EDGE('',*,*,#278,.F.);
#87=ORIENTED_EDGE('',*,*,#279,.T.);
#88=ORIENTED_EDGE('',*,*,#280,.T.);
#89=ORIENTED_EDGE('',*,*,#281,.T.);
#90=ORIENTED_EDGE('',*,*,#282,.F.);
#91=ORIENTED_EDGE('',*,*,#283,.T.);
#92=ORIENTED_EDGE('',*,*,#284,.F.);
#93=ORIENTED_EDGE('',*,*,#285,.F.);
#94=ORIENTED_EDGE('',*,*,#286,.T.);
#95=ORIENTED_EDGE('',*,*,#287,.F.);
#96=ORIENTED_EDGE('',*,*,#288,.T.);
#97=ORIENTED_EDGE('',*,*,#289,.T.);
#98=ORIENTED_EDGE('',*,*,#290,.T.);
#99=ORIENTED_EDGE('',*,*,#291,.F.);
#100=ORIENTED_EDGE('',*,*,#292,.F.);
#101=ORIENTED_EDGE('',*,*,#293,.T.);
#102=ORIENTED_EDGE('',*,*,#294,.T.);
#103=ORIENTED_EDGE('',*,*,#295,.T.);
#104=ORIENTED_EDGE('',*,*,#296,.T.);
#105=ORIENTED_EDGE('',*,*,#297,.F.);
#106=ORIENTED_EDGE('',*,*,#298,.F.);
#107=ORIENTED_EDGE('',*,*,#299,.F.);
#108=ORIENTED_EDGE('',*,*,#300,.F.);
#109=ORIENTED_EDGE('',*,*,#301,.F.);
#110=ORIENTED_EDGE('',*,*,#302,.F.);
#111=ORIENTED_EDGE('',*,*,#303,.T.);
#112=ORIENTED_EDGE('',*,*,#304,.T.);
#113=ORIENTED_EDGE('',*,*,#305,.F.);
#114=ORIENTED_EDGE('',*,*,#306,.F.);
#115=ORIENTED_EDGE('',*,*,#307,.F.);
#116=ORIENTED_EDGE('',*,*,#308,.T.);
#117=ORIENTED_EDGE('',*,*,#309,.T.);
#118=ORIENTED_EDGE('',*,*,#310,.T.);
#119=ORIENTED_EDGE('',*,*,#276,.F.);
#120=ORIENTED_EDGE('',*,*,#311,.T.);
#121=ORIENTED_EDGE('',*,*,#307,.T.);
#122=ORIENTED_EDGE('',*,*,#312,.T.);
#123=ORIENTED_EDGE('',*,*,#313,.F.);
#124=ORIENTED_EDGE('',*,*,#292,.T.);
#125=ORIENTED_EDGE('',*,*,#314,.F.);
#126=ORIENTED_EDGE('',*,*,#315,.F.);
#127=ORIENTED_EDGE('',*,*,#316,.F.);
#128=ORIENTED_EDGE('',*,*,#277,.F.);
#129=ORIENTED_EDGE('',*,*,#313,.T.);
#130=ORIENTED_EDGE('',*,*,#317,.T.);
#131=ORIENTED_EDGE('',*,*,#318,.T.);
#132=ORIENTED_EDGE('',*,*,#282,.T.);
#133=ORIENTED_EDGE('',*,*,#319,.T.);
#134=ORIENTED_EDGE('',*,*,#289,.F.);
#135=ORIENTED_EDGE('',*,*,#320,.F.);
#136=ORIENTED_EDGE('',*,*,#297,.T.);
#137=ORIENTED_EDGE('',*,*,#321,.F.);
#138=ORIENTED_EDGE('',*,*,#283,.F.);
#139=ORIENTED_EDGE('',*,*,#320,.T.);
#140=ORIENTED_EDGE('',*,*,#296,.F.);
#141=ORIENTED_EDGE('',*,*,#322,.F.);
#142=ORIENTED_EDGE('',*,*,#284,.T.);
#143=ORIENTED_EDGE('',*,*,#321,.T.);
#144=ORIENTED_EDGE('',*,*,#323,.F.);
#145=ORIENTED_EDGE('',*,*,#272,.T.);
#146=ORIENTED_EDGE('',*,*,#322,.T.);
#147=ORIENTED_EDGE('',*,*,#295,.F.);
#148=ORIENTED_EDGE('',*,*,#324,.T.);
#149=ORIENTED_EDGE('',*,*,#325,.T.);
#150=ORIENTED_EDGE('',*,*,#326,.T.);
#151=ORIENTED_EDGE('',*,*,#327,.T.);
#152=ORIENTED_EDGE('',*,*,#328,.F.);
#153=ORIENTED_EDGE('',*,*,#329,.F.);
#154=ORIENTED_EDGE('',*,*,#330,.F.);
#155=ORIENTED_EDGE('',*,*,#331,.F.);
#156=ORIENTED_EDGE('',*,*,#332,.F.);
#157=ORIENTED_EDGE('',*,*,#333,.F.);
#158=ORIENTED_EDGE('',*,*,#334,.F.);
#159=ORIENTED_EDGE('',*,*,#335,.F.);
#160=ORIENTED_EDGE('',*,*,#336,.F.);
#161=ORIENTED_EDGE('',*,*,#309,.F.);
#162=ORIENTED_EDGE('',*,*,#337,.T.);
#163=ORIENTED_EDGE('',*,*,#278,.T.);
#164=ORIENTED_EDGE('',*,*,#316,.T.);
#165=ORIENTED_EDGE('',*,*,#338,.F.);
#166=ORIENTED_EDGE('',*,*,#291,.T.);
#167=ORIENTED_EDGE('',*,*,#339,.T.);
#168=ORIENTED_EDGE('',*,*,#303,.F.);
#169=ORIENTED_EDGE('',*,*,#340,.F.);
#170=ORIENTED_EDGE('',*,*,#314,.T.);
#171=ORIENTED_EDGE('',*,*,#341,.T.);
#172=ORIENTED_EDGE('',*,*,#342,.T.);
#173=ORIENTED_EDGE('',*,*,#343,.T.);
#174=ORIENTED_EDGE('',*,*,#338,.T.);
#175=ORIENTED_EDGE('',*,*,#315,.T.);
#176=ORIENTED_EDGE('',*,*,#340,.T.);
#177=ORIENTED_EDGE('',*,*,#310,.F.);
#178=ORIENTED_EDGE('',*,*,#305,.T.);
#179=ORIENTED_EDGE('',*,*,#344,.T.);
#180=ORIENTED_EDGE('',*,*,#293,.F.);
#181=ORIENTED_EDGE('',*,*,#318,.F.);
#182=ORIENTED_EDGE('',*,*,#345,.T.);
#183=ORIENTED_EDGE('',*,*,#346,.F.);
#184=ORIENTED_EDGE('',*,*,#347,.F.);
#185=ORIENTED_EDGE('',*,*,#348,.F.);
#186=ORIENTED_EDGE('',*,*,#317,.F.);
#187=ORIENTED_EDGE('',*,*,#312,.F.);
#188=ORIENTED_EDGE('',*,*,#306,.T.);
#189=ORIENTED_EDGE('',*,*,#345,.F.);
#190=ORIENTED_EDGE('',*,*,#287,.T.);
#191=ORIENTED_EDGE('',*,*,#348,.T.);
#192=ORIENTED_EDGE('',*,*,#285,.T.);
#193=ORIENTED_EDGE('',*,*,#347,.T.);
#194=ORIENTED_EDGE('',*,*,#274,.T.);
#195=ORIENTED_EDGE('',*,*,#349,.T.);
#196=ORIENTED_EDGE('',*,*,#346,.T.);
#197=ORIENTED_EDGE('',*,*,#280,.F.);
#198=ORIENTED_EDGE('',*,*,#350,.T.);
#199=ORIENTED_EDGE('',*,*,#343,.F.);
#200=ORIENTED_EDGE('',*,*,#286,.F.);
#201=ORIENTED_EDGE('',*,*,#342,.F.);
#202=ORIENTED_EDGE('',*,*,#288,.F.);
#203=ORIENTED_EDGE('',*,*,#341,.F.);
#204=ORIENTED_EDGE('',*,*,#351,.T.);
#205=ORIENTED_EDGE('',*,*,#352,.T.);
#206=ORIENTED_EDGE('',*,*,#324,.F.);
#207=ORIENTED_EDGE('',*,*,#353,.T.);
#208=ORIENTED_EDGE('',*,*,#354,.F.);
#209=ORIENTED_EDGE('',*,*,#355,.F.);
#210=ORIENTED_EDGE('',*,*,#356,.F.);
#211=ORIENTED_EDGE('',*,*,#357,.T.);
#212=ORIENTED_EDGE('',*,*,#358,.T.);
#213=ORIENTED_EDGE('',*,*,#351,.F.);
#214=ORIENTED_EDGE('',*,*,#359,.T.);
#215=ORIENTED_EDGE('',*,*,#360,.F.);
#216=ORIENTED_EDGE('',*,*,#323,.T.);
#217=ORIENTED_EDGE('',*,*,#356,.T.);
#218=ORIENTED_EDGE('',*,*,#336,.T.);
#219=ORIENTED_EDGE('',*,*,#355,.T.);
#220=ORIENTED_EDGE('',*,*,#335,.T.);
#221=ORIENTED_EDGE('',*,*,#354,.T.);
#222=ORIENTED_EDGE('',*,*,#334,.T.);
#223=ORIENTED_EDGE('',*,*,#361,.F.);
#224=ORIENTED_EDGE('',*,*,#361,.T.);
#225=ORIENTED_EDGE('',*,*,#333,.T.);
#226=ORIENTED_EDGE('',*,*,#302,.T.);
#227=ORIENTED_EDGE('',*,*,#332,.T.);
#228=ORIENTED_EDGE('',*,*,#301,.T.);
#229=ORIENTED_EDGE('',*,*,#331,.T.);
#230=ORIENTED_EDGE('',*,*,#300,.T.);
#231=ORIENTED_EDGE('',*,*,#330,.T.);
#232=ORIENTED_EDGE('',*,*,#299,.T.);
#233=ORIENTED_EDGE('',*,*,#329,.T.);
#234=ORIENTED_EDGE('',*,*,#298,.T.);
#235=ORIENTED_EDGE('',*,*,#328,.T.);
#236=ORIENTED_EDGE('',*,*,#362,.F.);
#237=ORIENTED_EDGE('',*,*,#362,.T.);
#238=ORIENTED_EDGE('',*,*,#363,.T.);
#239=ORIENTED_EDGE('',*,*,#359,.F.);
#240=ORIENTED_EDGE('',*,*,#353,.F.);
#241=ORIENTED_EDGE('',*,*,#364,.F.);
#242=ORIENTED_EDGE('',*,*,#364,.T.);
#243=ORIENTED_EDGE('',*,*,#327,.F.);
#244=ORIENTED_EDGE('',*,*,#365,.F.);
#245=ORIENTED_EDGE('',*,*,#281,.F.);
#246=ORIENTED_EDGE('',*,*,#350,.F.);
#247=ORIENTED_EDGE('',*,*,#279,.F.);
#248=ORIENTED_EDGE('',*,*,#337,.F.);
#249=ORIENTED_EDGE('',*,*,#308,.F.);
#250=ORIENTED_EDGE('',*,*,#311,.F.);
#251=ORIENTED_EDGE('',*,*,#275,.F.);
#252=ORIENTED_EDGE('',*,*,#349,.F.);
#253=ORIENTED_EDGE('',*,*,#273,.F.);
#254=ORIENTED_EDGE('',*,*,#360,.T.);
#255=ORIENTED_EDGE('',*,*,#365,.T.);
#256=ORIENTED_EDGE('',*,*,#326,.F.);
#257=ORIENTED_EDGE('',*,*,#366,.F.);
#258=ORIENTED_EDGE('',*,*,#319,.F.);
#259=ORIENTED_EDGE('',*,*,#363,.F.);
#260=ORIENTED_EDGE('',*,*,#366,.T.);
#261=ORIENTED_EDGE('',*,*,#325,.F.);
#262=ORIENTED_EDGE('',*,*,#367,.F.);
#263=ORIENTED_EDGE('',*,*,#357,.F.);
#264=ORIENTED_EDGE('',*,*,#294,.F.);
#265=ORIENTED_EDGE('',*,*,#344,.F.);
#266=ORIENTED_EDGE('',*,*,#304,.F.);
#267=ORIENTED_EDGE('',*,*,#339,.F.);
#268=ORIENTED_EDGE('',*,*,#290,.F.);
#269=ORIENTED_EDGE('',*,*,#367,.T.);
#270=ORIENTED_EDGE('',*,*,#352,.F.);
#271=ORIENTED_EDGE('',*,*,#358,.F.);
#272=EDGE_CURVE('',#368,#369,#440,.T.);
#273=EDGE_CURVE('',#368,#370,#441,.F.);
#274=EDGE_CURVE('',#371,#370,#41,.T.);
#275=EDGE_CURVE('',#371,#372,#442,.F.);
#276=EDGE_CURVE('',#372,#373,#443,.T.);
#277=EDGE_CURVE('',#373,#374,#444,.T.);
#278=EDGE_CURVE('',#375,#374,#445,.T.);
#279=EDGE_CURVE('',#375,#376,#446,.F.);
#280=EDGE_CURVE('',#376,#377,#42,.F.);
#281=EDGE_CURVE('',#377,#378,#447,.F.);
#282=EDGE_CURVE('',#379,#378,#448,.T.);
#283=EDGE_CURVE('',#379,#380,#43,.T.);
#284=EDGE_CURVE('',#369,#380,#449,.T.);
#285=EDGE_CURVE('',#381,#381,#44,.T.);
#286=EDGE_CURVE('',#382,#382,#45,.F.);
#287=EDGE_CURVE('',#383,#383,#46,.T.);
#288=EDGE_CURVE('',#384,#384,#47,.F.);
#289=EDGE_CURVE('',#385,#386,#450,.T.);
#290=EDGE_CURVE('',#386,#387,#451,.T.);
#291=EDGE_CURVE('',#388,#387,#452,.T.);
#292=EDGE_CURVE('',#389,#388,#453,.T.);
#293=EDGE_CURVE('',#389,#390,#454,.T.);
#294=EDGE_CURVE('',#390,#391,#455,.T.);
#295=EDGE_CURVE('',#391,#392,#456,.T.);
#296=EDGE_CURVE('',#392,#393,#457,.T.);
#297=EDGE_CURVE('',#385,#393,#48,.T.);
#298=EDGE_CURVE('',#394,#394,#49,.T.);
#299=EDGE_CURVE('',#395,#395,#50,.T.);
#300=EDGE_CURVE('',#396,#396,#51,.T.);
#301=EDGE_CURVE('',#397,#397,#52,.T.);
#302=EDGE_CURVE('',#398,#398,#53,.T.);
#303=EDGE_CURVE('',#399,#400,#458,.T.);
#304=EDGE_CURVE('',#400,#401,#459,.F.);
#305=EDGE_CURVE('',#402,#401,#460,.T.);
#306=EDGE_CURVE('',#403,#402,#461,.T.);
#307=EDGE_CURVE('',#404,#403,#462,.T.);
#308=EDGE_CURVE('',#404,#405,#463,.F.);
#309=EDGE_CURVE('',#405,#406,#464,.T.);
#310=EDGE_CURVE('',#406,#399,#465,.T.);
#311=EDGE_CURVE('',#372,#404,#54,.F.);
#312=EDGE_CURVE('',#403,#407,#466,.T.);
#313=EDGE_CURVE('',#373,#407,#467,.T.);
#314=EDGE_CURVE('',#408,#388,#468,.T.);
#315=EDGE_CURVE('',#409,#408,#469,.T.);
#316=EDGE_CURVE('',#374,#409,#470,.T.);
#317=EDGE_CURVE('',#407,#410,#471,.T.);
#318=EDGE_CURVE('',#410,#389,#472,.T.);
#319=EDGE_CURVE('',#378,#386,#473,.T.);
#320=EDGE_CURVE('',#379,#385,#474,.T.);
#321=EDGE_CURVE('',#380,#393,#475,.T.);
#322=EDGE_CURVE('',#369,#392,#476,.T.);
#323=EDGE_CURVE('',#368,#391,#477,.T.);
#324=EDGE_CURVE('',#411,#412,#478,.T.);
#325=EDGE_CURVE('',#412,#413,#479,.F.);
#326=EDGE_CURVE('',#413,#414,#480,.F.);
#327=EDGE_CURVE('',#414,#411,#481,.T.);
#328=EDGE_CURVE('',#415,#415,#55,.T.);
#329=EDGE_CURVE('',#416,#416,#56,.T.);
#330=EDGE_CURVE('',#417,#417,#57,.T.);
#331=EDGE_CURVE('',#418,#418,#58,.T.);
#332=EDGE_CURVE('',#419,#419,#59,.T.);
#333=EDGE_CURVE('',#420,#420,#60,.T.);
#334=EDGE_CURVE('',#421,#421,#61,.T.);
#335=EDGE_CURVE('',#422,#422,#62,.T.);
#336=EDGE_CURVE('',#423,#423,#63,.T.);
#337=EDGE_CURVE('',#405,#375,#64,.T.);
#338=EDGE_CURVE('',#406,#409,#482,.T.);
#339=EDGE_CURVE('',#387,#400,#65,.F.);
#340=EDGE_CURVE('',#408,#399,#483,.T.);
#341=EDGE_CURVE('',#424,#424,#66,.T.);
#342=EDGE_CURVE('',#425,#425,#67,.T.);
#343=EDGE_CURVE('',#426,#426,#68,.T.);
#344=EDGE_CURVE('',#401,#390,#69,.T.);
#345=EDGE_CURVE('',#410,#402,#484,.T.);
#346=EDGE_CURVE('',#427,#427,#70,.T.);
#347=EDGE_CURVE('',#428,#428,#71,.T.);
#348=EDGE_CURVE('',#429,#429,#72,.T.);
#349=EDGE_CURVE('',#370,#371,#16,.T.);
#350=EDGE_CURVE('',#376,#377,#17,.T.);
#351=EDGE_CURVE('',#430,#431,#485,.T.);
#352=EDGE_CURVE('',#431,#412,#486,.F.);
#353=EDGE_CURVE('',#411,#430,#487,.T.);
#354=EDGE_CURVE('',#432,#432,#73,.F.);
#355=EDGE_CURVE('',#433,#433,#74,.F.);
#356=EDGE_CURVE('',#434,#434,#75,.F.);
#357=EDGE_CURVE('',#391,#435,#488,.T.);
#358=EDGE_CURVE('',#435,#431,#76,.F.);
#359=EDGE_CURVE('',#430,#436,#77,.F.);
#360=EDGE_CURVE('',#368,#436,#489,.T.);
#361=EDGE_CURVE('',#437,#437,#78,.F.);
#362=EDGE_CURVE('',#438,#438,#79,.F.);
#363=EDGE_CURVE('',#439,#439,#18,.T.);
#364=EDGE_CURVE('',#436,#411,#12,.F.);
#365=EDGE_CURVE('',#378,#414,#13,.T.);
#366=EDGE_CURVE('',#386,#413,#14,.T.);
#367=EDGE_CURVE('',#435,#412,#15,.F.);
#368=VERTEX_POINT('',#1083);
#369=VERTEX_POINT('',#1084);
#370=VERTEX_POINT('',#1086);
#371=VERTEX_POINT('',#1088);
#372=VERTEX_POINT('',#1090);
#373=VERTEX_POINT('',#1092);
#374=VERTEX_POINT('',#1094);
#375=VERTEX_POINT('',#1096);
#376=VERTEX_POINT('',#1098);
#377=VERTEX_POINT('',#1100);
#378=VERTEX_POINT('',#1102);
#379=VERTEX_POINT('',#1104);
#380=VERTEX_POINT('',#1106);
#381=VERTEX_POINT('',#1109);
#382=VERTEX_POINT('',#1111);
#383=VERTEX_POINT('',#1113);
#384=VERTEX_POINT('',#1115);
#385=VERTEX_POINT('',#1118);
#386=VERTEX_POINT('',#1119);
#387=VERTEX_POINT('',#1121);
#388=VERTEX_POINT('',#1123);
#389=VERTEX_POINT('',#1125);
#390=VERTEX_POINT('',#1127);
#391=VERTEX_POINT('',#1129);
#392=VERTEX_POINT('',#1131);
#393=VERTEX_POINT('',#1133);
#394=VERTEX_POINT('',#1137);
#395=VERTEX_POINT('',#1139);
#396=VERTEX_POINT('',#1141);
#397=VERTEX_POINT('',#1143);
#398=VERTEX_POINT('',#1145);
#399=VERTEX_POINT('',#1147);
#400=VERTEX_POINT('',#1148);
#401=VERTEX_POINT('',#1150);
#402=VERTEX_POINT('',#1152);
#403=VERTEX_POINT('',#1154);
#404=VERTEX_POINT('',#1156);
#405=VERTEX_POINT('',#1158);
#406=VERTEX_POINT('',#1160);
#407=VERTEX_POINT('',#1165);
#408=VERTEX_POINT('',#1169);
#409=VERTEX_POINT('',#1171);
#410=VERTEX_POINT('',#1174);
#411=VERTEX_POINT('',#1187);
#412=VERTEX_POINT('',#1188);
#413=VERTEX_POINT('',#1190);
#414=VERTEX_POINT('',#1192);
#415=VERTEX_POINT('',#1195);
#416=VERTEX_POINT('',#1197);
#417=VERTEX_POINT('',#1199);
#418=VERTEX_POINT('',#1201);
#419=VERTEX_POINT('',#1203);
#420=VERTEX_POINT('',#1205);
#421=VERTEX_POINT('',#1207);
#422=VERTEX_POINT('',#1209);
#423=VERTEX_POINT('',#1211);
#424=VERTEX_POINT('',#1220);
#425=VERTEX_POINT('',#1222);
#426=VERTEX_POINT('',#1224);
#427=VERTEX_POINT('',#1230);
#428=VERTEX_POINT('',#1232);
#429=VERTEX_POINT('',#1234);
#430=VERTEX_POINT('',#1253);
#431=VERTEX_POINT('',#1254);
#432=VERTEX_POINT('',#1259);
#433=VERTEX_POINT('',#1261);
#434=VERTEX_POINT('',#1263);
#435=VERTEX_POINT('',#1265);
#436=VERTEX_POINT('',#1268);
#437=VERTEX_POINT('',#1275);
#438=VERTEX_POINT('',#1284);
#439=VERTEX_POINT('',#1297);
#440=LINE('',#1082,#490);
#441=LINE('',#1085,#491);
#442=LINE('',#1089,#492);
#443=LINE('',#1091,#493);
#444=LINE('',#1093,#494);
#445=LINE('',#1095,#495);
#446=LINE('',#1097,#496);
#447=LINE('',#1101,#497);
#448=LINE('',#1103,#498);
#449=LINE('',#1107,#499);
#450=LINE('',#1117,#500);
#451=LINE('',#1120,#501);
#452=LINE('',#1122,#502);
#453=LINE('',#1124,#503);
#454=LINE('',#1126,#504);
#455=LINE('',#1128,#505);
#456=LINE('',#1130,#506);
#457=LINE('',#1132,#507);
#458=LINE('',#1146,#508);
#459=LINE('',#1149,#509);
#460=LINE('',#1151,#510);
#461=LINE('',#1153,#511);
#462=LINE('',#1155,#512);
#463=LINE('',#1157,#513);
#464=LINE('',#1159,#514);
#465=LINE('',#1161,#515);
#466=LINE('',#1164,#516);
#467=LINE('',#1166,#517);
#468=LINE('',#1168,#518);
#469=LINE('',#1170,#519);
#470=LINE('',#1172,#520);
#471=LINE('',#1173,#521);
#472=LINE('',#1175,#522);
#473=LINE('',#1177,#523);
#474=LINE('',#1178,#524);
#475=LINE('',#1180,#525);
#476=LINE('',#1182,#526);
#477=LINE('',#1184,#527);
#478=LINE('',#1186,#528);
#479=LINE('',#1189,#529);
#480=LINE('',#1191,#530);
#481=LINE('',#1193,#531);
#482=LINE('',#1214,#532);
#483=LINE('',#1217,#533);
#484=LINE('',#1227,#534);
#485=LINE('',#1252,#535);
#486=LINE('',#1255,#536);
#487=LINE('',#1256,#537);
#488=LINE('',#1264,#538);
#489=LINE('',#1269,#539);
#490=VECTOR('',#866,1.);
#491=VECTOR('',#867,1.);
#492=VECTOR('',#870,1.);
#493=VECTOR('',#871,1.);
#494=VECTOR('',#872,1.);
#495=VECTOR('',#873,1.);
#496=VECTOR('',#874,1.);
#497=VECTOR('',#877,1.);
#498=VECTOR('',#878,1.);
#499=VECTOR('',#881,1.);
#500=VECTOR('',#892,1.);
#501=VECTOR('',#893,1.);
#502=VECTOR('',#894,1.);
#503=VECTOR('',#895,1.);
#504=VECTOR('',#896,1.);
#505=VECTOR('',#897,1.);
#506=VECTOR('',#898,1.);
#507=VECTOR('',#899,1.);
#508=VECTOR('',#914,1.);
#509=VECTOR('',#915,1.);
#510=VECTOR('',#916,1.);
#511=VECTOR('',#917,1.);
#512=VECTOR('',#918,1.);
#513=VECTOR('',#919,1.);
#514=VECTOR('',#920,1.);
#515=VECTOR('',#921,1.);
#516=VECTOR('',#926,1.);
#517=VECTOR('',#927,1.);
#518=VECTOR('',#930,1.);
#519=VECTOR('',#931,1.);
#520=VECTOR('',#932,1.);
#521=VECTOR('',#933,1.);
#522=VECTOR('',#934,1.);
#523=VECTOR('',#937,1.);
#524=VECTOR('',#938,1.);
#525=VECTOR('',#941,1.);
#526=VECTOR('',#944,1.);
#527=VECTOR('',#947,1.);
#528=VECTOR('',#950,1.);
#529=VECTOR('',#951,1.);
#530=VECTOR('',#952,1.);
#531=VECTOR('',#953,1.);
#532=VECTOR('',#976,1.);
#533=VECTOR('',#981,1.);
#534=VECTOR('',#994,1.);
#535=VECTOR('',#1017,1.);
#536=VECTOR('',#1018,1.);
#537=VECTOR('',#1019,1.);
#538=VECTOR('',#1028,1.);
#539=VECTOR('',#1033,1.);
#540=EDGE_LOOP('',(#80,#81,#82,#83,#84,#85,#86,#87,#88,#89,#90,#91,#92));
#541=EDGE_LOOP('',(#93));
#542=EDGE_LOOP('',(#94));
#543=EDGE_LOOP('',(#95));
#544=EDGE_LOOP('',(#96));
#545=EDGE_LOOP('',(#97,#98,#99,#100,#101,#102,#103,#104,#105));
#546=EDGE_LOOP('',(#106));
#547=EDGE_LOOP('',(#107));
#548=EDGE_LOOP('',(#108));
#549=EDGE_LOOP('',(#109));
#550=EDGE_LOOP('',(#110));
#551=EDGE_LOOP('',(#111,#112,#113,#114,#115,#116,#117,#118));
#552=EDGE_LOOP('',(#119,#120,#121,#122,#123));
#553=EDGE_LOOP('',(#124,#125,#126,#127,#128,#129,#130,#131));
#554=EDGE_LOOP('',(#132,#133,#134,#135));
#555=EDGE_LOOP('',(#136,#137,#138,#139));
#556=EDGE_LOOP('',(#140,#141,#142,#143));
#557=EDGE_LOOP('',(#144,#145,#146,#147));
#558=EDGE_LOOP('',(#148,#149,#150,#151));
#559=EDGE_LOOP('',(#152));
#560=EDGE_LOOP('',(#153));
#561=EDGE_LOOP('',(#154));
#562=EDGE_LOOP('',(#155));
#563=EDGE_LOOP('',(#156));
#564=EDGE_LOOP('',(#157));
#565=EDGE_LOOP('',(#158));
#566=EDGE_LOOP('',(#159));
#567=EDGE_LOOP('',(#160));
#568=EDGE_LOOP('',(#161,#162,#163,#164,#165));
#569=EDGE_LOOP('',(#166,#167,#168,#169,#170));
#570=EDGE_LOOP('',(#171));
#571=EDGE_LOOP('',(#172));
#572=EDGE_LOOP('',(#173));
#573=EDGE_LOOP('',(#174,#175,#176,#177));
#574=EDGE_LOOP('',(#178,#179,#180,#181,#182));
#575=EDGE_LOOP('',(#183));
#576=EDGE_LOOP('',(#184));
#577=EDGE_LOOP('',(#185));
#578=EDGE_LOOP('',(#186,#187,#188,#189));
#579=EDGE_LOOP('',(#190));
#580=EDGE_LOOP('',(#191));
#581=EDGE_LOOP('',(#192));
#582=EDGE_LOOP('',(#193));
#583=EDGE_LOOP('',(#194,#195));
#584=EDGE_LOOP('',(#196));
#585=EDGE_LOOP('',(#197,#198));
#586=EDGE_LOOP('',(#199));
#587=EDGE_LOOP('',(#200));
#588=EDGE_LOOP('',(#201));
#589=EDGE_LOOP('',(#202));
#590=EDGE_LOOP('',(#203));
#591=EDGE_LOOP('',(#204,#205,#206,#207));
#592=EDGE_LOOP('',(#208));
#593=EDGE_LOOP('',(#209));
#594=EDGE_LOOP('',(#210));
#595=EDGE_LOOP('',(#211,#212,#213,#214,#215,#216));
#596=EDGE_LOOP('',(#217));
#597=EDGE_LOOP('',(#218));
#598=EDGE_LOOP('',(#219));
#599=EDGE_LOOP('',(#220));
#600=EDGE_LOOP('',(#221));
#601=EDGE_LOOP('',(#222));
#602=EDGE_LOOP('',(#223));
#603=EDGE_LOOP('',(#224));
#604=EDGE_LOOP('',(#225));
#605=EDGE_LOOP('',(#226));
#606=EDGE_LOOP('',(#227));
#607=EDGE_LOOP('',(#228));
#608=EDGE_LOOP('',(#229));
#609=EDGE_LOOP('',(#230));
#610=EDGE_LOOP('',(#231));
#611=EDGE_LOOP('',(#232));
#612=EDGE_LOOP('',(#233));
#613=EDGE_LOOP('',(#234));
#614=EDGE_LOOP('',(#235));
#615=EDGE_LOOP('',(#236));
#616=EDGE_LOOP('',(#237));
#617=EDGE_LOOP('',(#238));
#618=EDGE_LOOP('',(#239,#240,#241));
#619=EDGE_LOOP('',(#242,#243,#244,#245,#246,#247,#248,#249,#250,#251,#252,
#253,#254));
#620=EDGE_LOOP('',(#255,#256,#257,#258));
#621=EDGE_LOOP('',(#259));
#622=EDGE_LOOP('',(#260,#261,#262,#263,#264,#265,#266,#267,#268));
#623=EDGE_LOOP('',(#269,#270,#271));
#624=FACE_BOUND('',#540,.T.);
#625=FACE_BOUND('',#541,.T.);
#626=FACE_BOUND('',#542,.T.);
#627=FACE_BOUND('',#543,.T.);
#628=FACE_BOUND('',#544,.T.);
#629=FACE_BOUND('',#545,.T.);
#630=FACE_BOUND('',#546,.T.);
#631=FACE_BOUND('',#547,.T.);
#632=FACE_BOUND('',#548,.T.);
#633=FACE_BOUND('',#549,.T.);
#634=FACE_BOUND('',#550,.T.);
#635=FACE_BOUND('',#551,.T.);
#636=FACE_BOUND('',#552,.T.);
#637=FACE_BOUND('',#553,.T.);
#638=FACE_BOUND('',#554,.T.);
#639=FACE_BOUND('',#555,.T.);
#640=FACE_BOUND('',#556,.T.);
#641=FACE_BOUND('',#557,.T.);
#642=FACE_BOUND('',#558,.T.);
#643=FACE_BOUND('',#559,.T.);
#644=FACE_BOUND('',#560,.T.);
#645=FACE_BOUND('',#561,.T.);
#646=FACE_BOUND('',#562,.T.);
#647=FACE_BOUND('',#563,.T.);
#648=FACE_BOUND('',#564,.T.);
#649=FACE_BOUND('',#565,.T.);
#650=FACE_BOUND('',#566,.T.);
#651=FACE_BOUND('',#567,.T.);
#652=FACE_BOUND('',#568,.T.);
#653=FACE_BOUND('',#569,.T.);
#654=FACE_BOUND('',#570,.T.);
#655=FACE_BOUND('',#571,.T.);
#656=FACE_BOUND('',#572,.T.);
#657=FACE_BOUND('',#573,.T.);
#658=FACE_BOUND('',#574,.T.);
#659=FACE_BOUND('',#575,.T.);
#660=FACE_BOUND('',#576,.T.);
#661=FACE_BOUND('',#577,.T.);
#662=FACE_BOUND('',#578,.T.);
#663=FACE_BOUND('',#579,.T.);
#664=FACE_BOUND('',#580,.T.);
#665=FACE_BOUND('',#581,.T.);
#666=FACE_BOUND('',#582,.T.);
#667=FACE_BOUND('',#583,.T.);
#668=FACE_BOUND('',#584,.T.);
#669=FACE_BOUND('',#585,.T.);
#670=FACE_BOUND('',#586,.T.);
#671=FACE_BOUND('',#587,.T.);
#672=FACE_BOUND('',#588,.T.);
#673=FACE_BOUND('',#589,.T.);
#674=FACE_BOUND('',#590,.T.);
#675=FACE_BOUND('',#591,.T.);
#676=FACE_BOUND('',#592,.T.);
#677=FACE_BOUND('',#593,.T.);
#678=FACE_BOUND('',#594,.T.);
#679=FACE_BOUND('',#595,.T.);
#680=FACE_BOUND('',#596,.T.);
#681=FACE_BOUND('',#597,.T.);
#682=FACE_BOUND('',#598,.T.);
#683=FACE_BOUND('',#599,.T.);
#684=FACE_BOUND('',#600,.T.);
#685=FACE_BOUND('',#601,.T.);
#686=FACE_BOUND('',#602,.T.);
#687=FACE_BOUND('',#603,.T.);
#688=FACE_BOUND('',#604,.T.);
#689=FACE_BOUND('',#605,.T.);
#690=FACE_BOUND('',#606,.T.);
#691=FACE_BOUND('',#607,.T.);
#692=FACE_BOUND('',#608,.T.);
#693=FACE_BOUND('',#609,.T.);
#694=FACE_BOUND('',#610,.T.);
#695=FACE_BOUND('',#611,.T.);
#696=FACE_BOUND('',#612,.T.);
#697=FACE_BOUND('',#613,.T.);
#698=FACE_BOUND('',#614,.T.);
#699=FACE_BOUND('',#615,.T.);
#700=FACE_BOUND('',#616,.T.);
#701=FACE_BOUND('',#617,.T.);
#702=FACE_BOUND('',#618,.T.);
#703=FACE_BOUND('',#619,.T.);
#704=FACE_BOUND('',#620,.T.);
#705=FACE_BOUND('',#621,.T.);
#706=FACE_BOUND('',#622,.T.);
#707=FACE_BOUND('',#623,.T.);
#708=PLANE('',#779);
#709=PLANE('',#787);
#710=PLANE('',#789);
#711=PLANE('',#795);
#712=PLANE('',#797);
#713=PLANE('',#798);
#714=PLANE('',#800);
#715=PLANE('',#801);
#716=PLANE('',#802);
#717=PLANE('',#812);
#718=PLANE('',#814);
#719=PLANE('',#816);
#720=PLANE('',#820);
#721=PLANE('',#822);
#722=PLANE('',#832);
#723=PLANE('',#833);
#724=PLANE('',#842);
#725=PLANE('',#850);
#726=ADVANCED_FACE('',(#624,#625,#626,#627,#628),#708,.T.);
#727=ADVANCED_FACE('',(#629),#709,.F.);
#728=ADVANCED_FACE('',(#630,#631,#632,#633,#634,#635),#710,.T.);
#729=ADVANCED_FACE('',(#636),#711,.F.);
#730=ADVANCED_FACE('',(#637),#712,.F.);
#731=ADVANCED_FACE('',(#638),#713,.T.);
#732=ADVANCED_FACE('',(#639),#19,.T.);
#733=ADVANCED_FACE('',(#640),#714,.T.);
#734=ADVANCED_FACE('',(#641),#715,.T.);
#735=ADVANCED_FACE('',(#642,#643,#644,#645,#646,#647,#648,#649,#650,#651),
#716,.T.);
#736=ADVANCED_FACE('',(#652),#717,.T.);
#737=ADVANCED_FACE('',(#653),#718,.F.);
#738=ADVANCED_FACE('',(#654,#655,#656,#657),#719,.T.);
#739=ADVANCED_FACE('',(#658),#720,.T.);
#740=ADVANCED_FACE('',(#659,#660,#661,#662),#721,.T.);
#741=ADVANCED_FACE('',(#663,#664),#20,.F.);
#742=ADVANCED_FACE('',(#665,#666),#21,.F.);
#743=ADVANCED_FACE('',(#667,#668),#22,.F.);
#744=ADVANCED_FACE('',(#669,#670),#23,.F.);
#745=ADVANCED_FACE('',(#671,#672),#24,.F.);
#746=ADVANCED_FACE('',(#673,#674),#25,.F.);
#747=ADVANCED_FACE('',(#675),#722,.T.);
#748=ADVANCED_FACE('',(#676,#677,#678,#679),#723,.F.);
#749=ADVANCED_FACE('',(#680,#681),#26,.F.);
#750=ADVANCED_FACE('',(#682,#683),#27,.F.);
#751=ADVANCED_FACE('',(#684,#685),#28,.F.);
#752=ADVANCED_FACE('',(#686),#724,.T.);
#753=ADVANCED_FACE('',(#687,#688),#29,.F.);
#754=ADVANCED_FACE('',(#689,#690),#30,.F.);
#755=ADVANCED_FACE('',(#691,#692),#31,.F.);
#756=ADVANCED_FACE('',(#693,#694),#32,.F.);
#757=ADVANCED_FACE('',(#695,#696),#33,.F.);
#758=ADVANCED_FACE('',(#697,#698),#34,.F.);
#759=ADVANCED_FACE('',(#699),#725,.T.);
#760=ADVANCED_FACE('',(#700,#701),#35,.F.);
#761=ADVANCED_FACE('',(#702),#36,.T.);
#762=ADVANCED_FACE('',(#703),#37,.T.);
#763=ADVANCED_FACE('',(#704,#705),#38,.T.);
#764=ADVANCED_FACE('',(#706),#39,.T.);
#765=ADVANCED_FACE('',(#707),#40,.T.);
#766=CLOSED_SHELL('',(#726,#727,#728,#729,#730,#731,#732,#733,#734,#735,
#736,#737,#738,#739,#740,#741,#742,#743,#744,#745,#746,#747,#748,#749,#750,
#751,#752,#753,#754,#755,#756,#757,#758,#759,#760,#761,#762,#763,#764,#765));
#767=STYLED_ITEM('',(#768),#775);
#768=PRESENTATION_STYLE_ASSIGNMENT((#769));
#769=SURFACE_STYLE_USAGE(.BOTH.,#770);
#770=SURFACE_SIDE_STYLE('',(#771));
#771=SURFACE_STYLE_FILL_AREA(#772);
#772=FILL_AREA_STYLE('',(#773));
#773=FILL_AREA_STYLE_COLOUR('',#774);
#774=COLOUR_RGB('',0.980392156862745,0.713725490196078,0.00392156862745098);
#775=MANIFOLD_SOLID_BREP('Part 1',#766);
#776=SHAPE_DEFINITION_REPRESENTATION(#1313,#777);
#777=SHAPE_REPRESENTATION('Part 1',(#778),#1308);
#778=AXIS2_PLACEMENT_3D('',#1080,#862,#863);
#779=AXIS2_PLACEMENT_3D('',#1081,#864,#865);
#780=AXIS2_PLACEMENT_3D('',#1087,#868,#869);
#781=AXIS2_PLACEMENT_3D('',#1099,#875,#876);
#782=AXIS2_PLACEMENT_3D('',#1105,#879,#880);
#783=AXIS2_PLACEMENT_3D('',#1108,#882,#883);
#784=AXIS2_PLACEMENT_3D('',#1110,#884,#885);
#785=AXIS2_PLACEMENT_3D('',#1112,#886,#887);
#786=AXIS2_PLACEMENT_3D('',#1114,#888,#889);
#787=AXIS2_PLACEMENT_3D('',#1116,#890,#891);
#788=AXIS2_PLACEMENT_3D('',#1134,#900,#901);
#789=AXIS2_PLACEMENT_3D('',#1135,#902,#903);
#790=AXIS2_PLACEMENT_3D('',#1136,#904,#905);
#791=AXIS2_PLACEMENT_3D('',#1138,#906,#907);
#792=AXIS2_PLACEMENT_3D('',#1140,#908,#909);
#793=AXIS2_PLACEMENT_3D('',#1142,#910,#911);
#794=AXIS2_PLACEMENT_3D('',#1144,#912,#913);
#795=AXIS2_PLACEMENT_3D('',#1162,#922,#923);
#796=AXIS2_PLACEMENT_3D('',#1163,#924,#925);
#797=AXIS2_PLACEMENT_3D('',#1167,#928,#929);
#798=AXIS2_PLACEMENT_3D('',#1176,#935,#936);
#799=AXIS2_PLACEMENT_3D('',#1179,#939,#940);
#800=AXIS2_PLACEMENT_3D('',#1181,#942,#943);
#801=AXIS2_PLACEMENT_3D('',#1183,#945,#946);
#802=AXIS2_PLACEMENT_3D('',#1185,#948,#949);
#803=AXIS2_PLACEMENT_3D('',#1194,#954,#955);
#804=AXIS2_PLACEMENT_3D('',#1196,#956,#957);
#805=AXIS2_PLACEMENT_3D('',#1198,#958,#959);
#806=AXIS2_PLACEMENT_3D('',#1200,#960,#961);
#807=AXIS2_PLACEMENT_3D('',#1202,#962,#963);
#808=AXIS2_PLACEMENT_3D('',#1204,#964,#965);
#809=AXIS2_PLACEMENT_3D('',#1206,#966,#967);
#810=AXIS2_PLACEMENT_3D('',#1208,#968,#969);
#811=AXIS2_PLACEMENT_3D('',#1210,#970,#971);
#812=AXIS2_PLACEMENT_3D('',#1212,#972,#973);
#813=AXIS2_PLACEMENT_3D('',#1213,#974,#975);
#814=AXIS2_PLACEMENT_3D('',#1215,#977,#978);
#815=AXIS2_PLACEMENT_3D('',#1216,#979,#980);
#816=AXIS2_PLACEMENT_3D('',#1218,#982,#983);
#817=AXIS2_PLACEMENT_3D('',#1219,#984,#985);
#818=AXIS2_PLACEMENT_3D('',#1221,#986,#987);
#819=AXIS2_PLACEMENT_3D('',#1223,#988,#989);
#820=AXIS2_PLACEMENT_3D('',#1225,#990,#991);
#821=AXIS2_PLACEMENT_3D('',#1226,#992,#993);
#822=AXIS2_PLACEMENT_3D('',#1228,#995,#996);
#823=AXIS2_PLACEMENT_3D('',#1229,#997,#998);
#824=AXIS2_PLACEMENT_3D('',#1231,#999,#1000);
#825=AXIS2_PLACEMENT_3D('',#1233,#1001,#1002);
#826=AXIS2_PLACEMENT_3D('',#1235,#1003,#1004);
#827=AXIS2_PLACEMENT_3D('',#1236,#1005,#1006);
#828=AXIS2_PLACEMENT_3D('',#1237,#1007,#1008);
#829=AXIS2_PLACEMENT_3D('',#1243,#1009,#1010);
#830=AXIS2_PLACEMENT_3D('',#1249,#1011,#1012);
#831=AXIS2_PLACEMENT_3D('',#1250,#1013,#1014);
#832=AXIS2_PLACEMENT_3D('',#1251,#1015,#1016);
#833=AXIS2_PLACEMENT_3D('',#1257,#1020,#1021);
#834=AXIS2_PLACEMENT_3D('',#1258,#1022,#1023);
#835=AXIS2_PLACEMENT_3D('',#1260,#1024,#1025);
#836=AXIS2_PLACEMENT_3D('',#1262,#1026,#1027);
#837=AXIS2_PLACEMENT_3D('',#1266,#1029,#1030);
#838=AXIS2_PLACEMENT_3D('',#1267,#1031,#1032);
#839=AXIS2_PLACEMENT_3D('',#1270,#1034,#1035);
#840=AXIS2_PLACEMENT_3D('',#1271,#1036,#1037);
#841=AXIS2_PLACEMENT_3D('',#1272,#1038,#1039);
#842=AXIS2_PLACEMENT_3D('',#1273,#1040,#1041);
#843=AXIS2_PLACEMENT_3D('',#1274,#1042,#1043);
#844=AXIS2_PLACEMENT_3D('',#1276,#1044,#1045);
#845=AXIS2_PLACEMENT_3D('',#1277,#1046,#1047);
#846=AXIS2_PLACEMENT_3D('',#1278,#1048,#1049);
#847=AXIS2_PLACEMENT_3D('',#1279,#1050,#1051);
#848=AXIS2_PLACEMENT_3D('',#1280,#1052,#1053);
#849=AXIS2_PLACEMENT_3D('',#1281,#1054,#1055);
#850=AXIS2_PLACEMENT_3D('',#1282,#1056,#1057);
#851=AXIS2_PLACEMENT_3D('',#1283,#1058,#1059);
#852=AXIS2_PLACEMENT_3D('',#1285,#1060,#1061);
#853=AXIS2_PLACEMENT_3D('',#1298,#1062,#1063);
#854=AXIS2_PLACEMENT_3D('',#1299,#1064,#1065);
#855=AXIS2_PLACEMENT_3D('',#1300,#1066,#1067);
#856=AXIS2_PLACEMENT_3D('',#1301,#1068,#1069);
#857=AXIS2_PLACEMENT_3D('',#1302,#1070,#1071);
#858=AXIS2_PLACEMENT_3D('',#1303,#1072,#1073);
#859=AXIS2_PLACEMENT_3D('',#1304,#1074,#1075);
#860=AXIS2_PLACEMENT_3D('',#1305,#1076,#1077);
#861=AXIS2_PLACEMENT_3D('',#1306,#1078,#1079);
#862=DIRECTION('',(0.,0.,1.));
#863=DIRECTION('',(1.,0.,0.));
#864=DIRECTION('',(0.,-1.,0.));
#865=DIRECTION('',(1.,0.,0.));
#866=DIRECTION('',(0.,0.,-1.));
#867=DIRECTION('',(1.,0.,0.));
#868=DIRECTION('',(0.,-1.,0.));
#869=DIRECTION('',(0.,0.,-1.));
#870=DIRECTION('',(1.,0.,0.));
#871=DIRECTION('',(0.,0.,-1.));
#872=DIRECTION('',(-1.,0.,0.));
#873=DIRECTION('',(0.,0.,-1.));
#874=DIRECTION('',(1.,0.,0.));
#875=DIRECTION('',(0.,-1.,0.));
#876=DIRECTION('',(0.,0.,-1.));
#877=DIRECTION('',(1.,0.,0.));
#878=DIRECTION('',(0.,0.,1.));
#879=DIRECTION('',(0.,-1.,0.));
#880=DIRECTION('',(0.,0.,-1.));
#881=DIRECTION('',(-1.,0.,-1.13134139737618E-16));
#882=DIRECTION('',(0.,-1.,0.));
#883=DIRECTION('',(0.,0.,-1.));
#884=DIRECTION('',(0.,-1.,0.));
#885=DIRECTION('',(0.,0.,-1.));
#886=DIRECTION('',(0.,-1.,0.));
#887=DIRECTION('',(0.,0.,-1.));
#888=DIRECTION('',(0.,-1.,0.));
#889=DIRECTION('',(0.,0.,-1.));
#890=DIRECTION('',(0.,-1.,0.));
#891=DIRECTION('',(1.,0.,0.));
#892=DIRECTION('',(0.,0.,1.));
#893=DIRECTION('',(1.,0.,0.));
#894=DIRECTION('',(-1.92747052886312E-16,0.,1.));
#895=DIRECTION('',(-1.,0.,0.));
#896=DIRECTION('',(1.92747052886312E-16,0.,1.));
#897=DIRECTION('',(1.,0.,0.));
#898=DIRECTION('',(0.,0.,-1.));
#899=DIRECTION('',(-1.,0.,-1.13134139737618E-16));
#900=DIRECTION('',(0.,-1.,0.));
#901=DIRECTION('',(0.,0.,-1.));
#902=DIRECTION('',(0.,0.,-1.));
#903=DIRECTION('',(-1.,0.,0.));
#904=DIRECTION('',(0.,0.,-1.));
#905=DIRECTION('',(-1.,0.,0.));
#906=DIRECTION('',(0.,0.,-1.));
#907=DIRECTION('',(-1.,0.,0.));
#908=DIRECTION('',(0.,0.,-1.));
#909=DIRECTION('',(-1.,0.,0.));
#910=DIRECTION('',(0.,0.,-1.));
#911=DIRECTION('',(-1.,0.,0.));
#912=DIRECTION('',(0.,0.,-1.));
#913=DIRECTION('',(-1.,0.,0.));
#914=DIRECTION('',(0.,1.,0.));
#915=DIRECTION('',(-1.,0.,0.));
#916=DIRECTION('',(0.,1.,0.));
#917=DIRECTION('',(1.,0.,0.));
#918=DIRECTION('',(0.,1.,0.));
#919=DIRECTION('',(1.,0.,0.));
#920=DIRECTION('',(0.,1.,0.));
#921=DIRECTION('',(-1.,0.,-2.47817639425258E-16));
#922=DIRECTION('',(1.,0.,0.));
#923=DIRECTION('',(0.,0.,-1.));
#924=DIRECTION('',(1.,0.,0.));
#925=DIRECTION('',(0.,0.,-1.));
#926=DIRECTION('',(0.,0.,-1.));
#927=DIRECTION('',(0.,1.,0.));
#928=DIRECTION('',(0.,0.,-1.));
#929=DIRECTION('',(-1.,0.,0.));
#930=DIRECTION('',(0.,1.,0.));
#931=DIRECTION('',(-1.,0.,-2.47817639425258E-16));
#932=DIRECTION('',(0.,1.,0.));
#933=DIRECTION('',(1.,0.,0.));
#934=DIRECTION('',(0.,1.,0.));
#935=DIRECTION('',(-1.,0.,0.));
#936=DIRECTION('',(0.,0.,1.));
#937=DIRECTION('',(0.,1.,0.));
#938=DIRECTION('',(0.,1.,0.));
#939=DIRECTION('',(0.,1.,0.));
#940=DIRECTION('',(0.,0.,1.));
#941=DIRECTION('',(0.,1.,0.));
#942=DIRECTION('',(1.13134139737618E-16,0.,-1.));
#943=DIRECTION('',(-1.,0.,-1.13134139737618E-16));
#944=DIRECTION('',(0.,1.,0.));
#945=DIRECTION('',(1.,0.,0.));
#946=DIRECTION('',(0.,0.,-1.));
#947=DIRECTION('',(0.,1.,0.));
#948=DIRECTION('',(0.,0.,1.));
#949=DIRECTION('',(1.,0.,0.));
#950=DIRECTION('',(0.,1.,0.));
#951=DIRECTION('',(1.,0.,0.));
#952=DIRECTION('',(0.,1.,0.));
#953=DIRECTION('',(1.,0.,0.));
#954=DIRECTION('',(0.,0.,1.));
#955=DIRECTION('',(1.,0.,0.));
#956=DIRECTION('',(0.,0.,1.));
#957=DIRECTION('',(1.,0.,0.));
#958=DIRECTION('',(0.,0.,1.));
#959=DIRECTION('',(1.,0.,0.));
#960=DIRECTION('',(0.,0.,1.));
#961=DIRECTION('',(1.,0.,0.));
#962=DIRECTION('',(0.,0.,1.));
#963=DIRECTION('',(1.,0.,0.));
#964=DIRECTION('',(0.,0.,1.));
#965=DIRECTION('',(1.,0.,0.));
#966=DIRECTION('',(0.,0.,1.));
#967=DIRECTION('',(1.,0.,0.));
#968=DIRECTION('',(0.,0.,1.));
#969=DIRECTION('',(1.,0.,0.));
#970=DIRECTION('',(0.,0.,1.));
#971=DIRECTION('',(1.,0.,0.));
#972=DIRECTION('',(1.,0.,0.));
#973=DIRECTION('',(0.,0.,-1.));
#974=DIRECTION('',(1.,0.,0.));
#975=DIRECTION('',(0.,0.,-1.));
#976=DIRECTION('',(0.,0.,-1.));
#977=DIRECTION('',(-1.,0.,-1.92747052886312E-16));
#978=DIRECTION('',(-1.92747052886312E-16,0.,1.));
#979=DIRECTION('',(-1.,0.,-1.92747052886312E-16));
#980=DIRECTION('',(-1.92747052886312E-16,0.,1.));
#981=DIRECTION('',(-1.92747052886312E-16,0.,1.));
#982=DIRECTION('',(0.,1.,0.));
#983=DIRECTION('',(-1.,0.,0.));
#984=DIRECTION('',(0.,-1.,0.));
#985=DIRECTION('',(0.,0.,1.));
#986=DIRECTION('',(0.,-1.,0.));
#987=DIRECTION('',(0.,0.,1.));
#988=DIRECTION('',(0.,-1.,0.));
#989=DIRECTION('',(0.,0.,1.));
#990=DIRECTION('',(-1.,0.,1.92747052886312E-16));
#991=DIRECTION('',(1.92747052886312E-16,0.,1.));
#992=DIRECTION('',(-1.,0.,1.92747052886312E-16));
#993=DIRECTION('',(1.92747052886312E-16,0.,1.));
#994=DIRECTION('',(1.92747052886312E-16,0.,1.));
#995=DIRECTION('',(0.,1.,0.));
#996=DIRECTION('',(-1.,0.,0.));
#997=DIRECTION('',(0.,1.,0.));
#998=DIRECTION('',(0.,0.,1.));
#999=DIRECTION('',(0.,1.,0.));
#1000=DIRECTION('',(0.,0.,1.));
#1001=DIRECTION('',(0.,1.,0.));
#1002=DIRECTION('',(0.,0.,1.));
#1003=DIRECTION('',(0.,1.,0.));
#1004=DIRECTION('',(0.,0.,1.));
#1005=DIRECTION('',(0.,1.,0.));
#1006=DIRECTION('',(0.,0.,1.));
#1007=DIRECTION('',(0.,1.,0.));
#1008=DIRECTION('',(0.,0.,1.));
#1009=DIRECTION('',(0.,1.,0.));
#1010=DIRECTION('',(0.,0.,1.));
#1011=DIRECTION('',(0.,1.,0.));
#1012=DIRECTION('',(0.,0.,1.));
#1013=DIRECTION('',(0.,1.,0.));
#1014=DIRECTION('',(0.,0.,1.));
#1015=DIRECTION('',(1.,0.,0.));
#1016=DIRECTION('',(0.,0.,-1.));
#1017=DIRECTION('',(0.,1.,0.));
#1018=DIRECTION('',(0.,0.,-1.));
#1019=DIRECTION('',(0.,0.,-1.));
#1020=DIRECTION('',(0.,0.,1.));
#1021=DIRECTION('',(1.,0.,0.));
#1022=DIRECTION('',(0.,0.,1.));
#1023=DIRECTION('',(1.,0.,0.));
#1024=DIRECTION('',(0.,0.,1.));
#1025=DIRECTION('',(1.,0.,0.));
#1026=DIRECTION('',(0.,0.,1.));
#1027=DIRECTION('',(1.,0.,0.));
#1028=DIRECTION('',(1.,0.,0.));
#1029=DIRECTION('',(0.,0.,1.));
#1030=DIRECTION('',(1.,0.,0.));
#1031=DIRECTION('',(0.,0.,1.));
#1032=DIRECTION('',(1.,0.,0.));
#1033=DIRECTION('',(1.,0.,0.));
#1034=DIRECTION('',(0.,0.,1.));
#1035=DIRECTION('',(1.,0.,0.));
#1036=DIRECTION('',(0.,0.,1.));
#1037=DIRECTION('',(1.,0.,0.));
#1038=DIRECTION('',(0.,0.,1.));
#1039=DIRECTION('',(1.,0.,0.));
#1040=DIRECTION('',(0.,0.,1.));
#1041=DIRECTION('',(1.,0.,0.));
#1042=DIRECTION('',(0.,0.,1.));
#1043=DIRECTION('',(1.,0.,0.));
#1044=DIRECTION('',(0.,0.,1.));
#1045=DIRECTION('',(1.,0.,0.));
#1046=DIRECTION('',(0.,0.,1.));
#1047=DIRECTION('',(1.,0.,0.));
#1048=DIRECTION('',(0.,0.,1.));
#1049=DIRECTION('',(1.,0.,0.));
#1050=DIRECTION('',(0.,0.,1.));
#1051=DIRECTION('',(1.,0.,0.));
#1052=DIRECTION('',(0.,0.,1.));
#1053=DIRECTION('',(1.,0.,0.));
#1054=DIRECTION('',(0.,0.,1.));
#1055=DIRECTION('',(1.,0.,0.));
#1056=DIRECTION('',(0.,0.,1.));
#1057=DIRECTION('',(1.,0.,0.));
#1058=DIRECTION('',(0.,0.,1.));
#1059=DIRECTION('',(1.,0.,0.));
#1060=DIRECTION('',(0.,0.,1.));
#1061=DIRECTION('',(1.,0.,0.));
#1062=DIRECTION('',(0.,0.,-1.));
#1063=DIRECTION('',(-1.,0.,0.));
#1064=DIRECTION('',(0.707106781186548,0.,-0.707106781186548));
#1065=DIRECTION('',(0.707106781186548,0.,0.707106781186548));
#1066=DIRECTION('',(1.,0.,0.));
#1067=DIRECTION('',(0.,0.,-1.));
#1068=DIRECTION('',(-0.707106781186548,0.707106781186548,0.));
#1069=DIRECTION('',(0.707106781186548,0.707106781186548,0.));
#1070=DIRECTION('',(0.,1.,0.));
#1071=DIRECTION('',(0.,0.,1.));
#1072=DIRECTION('',(0.707106781186548,0.707106781186548,0.));
#1073=DIRECTION('',(-0.707106781186548,0.707106781186548,0.));
#1074=DIRECTION('',(-1.,0.,0.));
#1075=DIRECTION('',(0.,0.,1.));
#1076=DIRECTION('',(-0.707106781186548,0.,0.707106781186548));
#1077=DIRECTION('',(-0.707106781186548,0.,-0.707106781186548));
#1078=DIRECTION('',(0.,0.,1.));
#1079=DIRECTION('',(1.,0.,0.));
#1080=CARTESIAN_POINT('',(0.,0.,0.));
#1081=CARTESIAN_POINT('',(-0.0005,-0.0075,-2.08333333333345E-5));
#1082=CARTESIAN_POINT('',(0.017,-0.0075,0.0005));
#1083=CARTESIAN_POINT('',(0.017,-0.0075,0.003));
#1084=CARTESIAN_POINT('',(0.017,-0.0075,-0.007));
#1085=CARTESIAN_POINT('',(-0.0005,-0.0075,0.003));
#1086=CARTESIAN_POINT('',(0.0140590169943749,-0.0075,0.003));
#1087=CARTESIAN_POINT('',(0.0135,-0.0075,0.0025));
#1088=CARTESIAN_POINT('',(0.012940983005625,-0.0075,0.003));
#1089=CARTESIAN_POINT('',(-0.0005,-0.0075,0.003));
#1090=CARTESIAN_POINT('',(0.012,-0.0075,0.003));
#1091=CARTESIAN_POINT('',(0.012,-0.0075,0.));
#1092=CARTESIAN_POINT('',(0.012,-0.0075,-0.0045));
#1093=CARTESIAN_POINT('',(0.,-0.0075,-0.0045));
#1094=CARTESIAN_POINT('',(-0.012,-0.0075,-0.0045));
#1095=CARTESIAN_POINT('',(-0.012,-0.0075,0.));
#1096=CARTESIAN_POINT('',(-0.012,-0.0075,0.003));
#1097=CARTESIAN_POINT('',(-0.0005,-0.0075,0.003));
#1098=CARTESIAN_POINT('',(-0.012940983005625,-0.0075,0.003));
#1099=CARTESIAN_POINT('',(-0.0135,-0.0075,0.0025));
#1100=CARTESIAN_POINT('',(-0.0140590169943749,-0.0075,0.003));
#1101=CARTESIAN_POINT('',(-0.0005,-0.0075,0.003));
#1102=CARTESIAN_POINT('',(-0.018,-0.0075,0.003));
#1103=CARTESIAN_POINT('',(-0.018,-0.0075,0.004));
#1104=CARTESIAN_POINT('',(-0.018,-0.0075,-9.8482013431433E-19));
#1105=CARTESIAN_POINT('',(-0.00995833333333333,-0.0075,-2.22713354313397E-18));
#1106=CARTESIAN_POINT('',(-0.006,-0.0075,-0.007));
#1107=CARTESIAN_POINT('',(0.0055,-0.0075,-0.007));
#1108=CARTESIAN_POINT('',(0.0135,-0.0075,-0.0025));
#1109=CARTESIAN_POINT('',(0.0135,-0.0075,-0.00325));
#1110=CARTESIAN_POINT('',(-0.0135,-0.0075,3.35274088104881E-18));
#1111=CARTESIAN_POINT('',(-0.0135,-0.0075,-0.000749999999999997));
#1112=CARTESIAN_POINT('',(0.0135,-0.0075,4.59242549680257E-20));
#1113=CARTESIAN_POINT('',(0.0135,-0.0075,-0.00075));
#1114=CARTESIAN_POINT('',(-0.0135,-0.0075,-0.0025));
#1115=CARTESIAN_POINT('',(-0.0135,-0.0075,-0.00325));
#1116=CARTESIAN_POINT('',(-0.0005,0.0075,-2.08333333333345E-5));
#1117=CARTESIAN_POINT('',(-0.018,0.0075,0.004));
#1118=CARTESIAN_POINT('',(-0.018,0.0075,-9.8482013431433E-19));
#1119=CARTESIAN_POINT('',(-0.018,0.0075,0.003));
#1120=CARTESIAN_POINT('',(0.032,0.0075,0.003));
#1121=CARTESIAN_POINT('',(-0.0155,0.0075,0.003));
#1122=CARTESIAN_POINT('',(-0.0155,0.0075,0.));
#1123=CARTESIAN_POINT('',(-0.0155,0.0075,-0.0045));
#1124=CARTESIAN_POINT('',(0.,0.0075,-0.0045));
#1125=CARTESIAN_POINT('',(0.0155,0.0075,-0.0045));
#1126=CARTESIAN_POINT('',(0.0155,0.0075,0.));
#1127=CARTESIAN_POINT('',(0.0155,0.0075,0.003));
#1128=CARTESIAN_POINT('',(0.032,0.0075,0.003));
#1129=CARTESIAN_POINT('',(0.017,0.0075,0.003));
#1130=CARTESIAN_POINT('',(0.017,0.0075,0.0005));
#1131=CARTESIAN_POINT('',(0.017,0.0075,-0.007));
#1132=CARTESIAN_POINT('',(0.0055,0.0075,-0.007));
#1133=CARTESIAN_POINT('',(-0.006,0.0075,-0.007));
#1134=CARTESIAN_POINT('',(-0.00995833333333333,0.0075,-2.22713354313397E-18));
#1135=CARTESIAN_POINT('',(0.,-0.0075,0.0045));
#1136=CARTESIAN_POINT('',(-0.01,4.59242549680257E-20,0.0045));
#1137=CARTESIAN_POINT('',(-0.01075,4.59242549680257E-20,0.0045));
#1138=CARTESIAN_POINT('',(-0.005,4.59242549680257E-20,0.0045));
#1139=CARTESIAN_POINT('',(-0.00575,4.59242549680257E-20,0.0045));
#1140=CARTESIAN_POINT('',(-3.46944695195361E-18,4.59242549680257E-20,0.0045));
#1141=CARTESIAN_POINT('',(-0.000750000000000003,4.59242549680257E-20,0.0045));
#1142=CARTESIAN_POINT('',(0.005,4.59242549680257E-20,0.0045));
#1143=CARTESIAN_POINT('',(0.00425,4.59242549680257E-20,0.0045));
#1144=CARTESIAN_POINT('',(0.01,4.59242549680257E-20,0.0045));
#1145=CARTESIAN_POINT('',(0.00925,4.59242549680257E-20,0.0045));
#1146=CARTESIAN_POINT('',(-0.0155,0.0015,0.0045));
#1147=CARTESIAN_POINT('',(-0.0155,0.0015,0.0045));
#1148=CARTESIAN_POINT('',(-0.0155,0.00726969600708473,0.0045));
#1149=CARTESIAN_POINT('',(-0.0155,0.00726969600708473,0.0045));
#1150=CARTESIAN_POINT('',(0.0155,0.00726969600708473,0.0045));
#1151=CARTESIAN_POINT('',(0.0155,0.0015,0.0045));
#1152=CARTESIAN_POINT('',(0.0155,0.0015,0.0045));
#1153=CARTESIAN_POINT('',(0.01375,0.0015,0.0045));
#1154=CARTESIAN_POINT('',(0.012,0.0015,0.0045));
#1155=CARTESIAN_POINT('',(0.012,-0.0075,0.0045));
#1156=CARTESIAN_POINT('',(0.012,-0.00726969600708473,0.0045));
#1157=CARTESIAN_POINT('',(0.012,-0.00726969600708473,0.0045));
#1158=CARTESIAN_POINT('',(-0.012,-0.00726969600708473,0.0045));
#1159=CARTESIAN_POINT('',(-0.012,-0.0075,0.0045));
#1160=CARTESIAN_POINT('',(-0.012,0.0015,0.0045));
#1161=CARTESIAN_POINT('',(-0.01375,0.0015,0.0045));
#1162=CARTESIAN_POINT('',(0.012,-0.0075,0.));
#1163=CARTESIAN_POINT('',(0.012,-0.0025,0.003));
#1164=CARTESIAN_POINT('',(0.012,0.0015,0.));
#1165=CARTESIAN_POINT('',(0.012,0.0015,-0.0045));
#1166=CARTESIAN_POINT('',(0.012,-0.0075,-0.0045));
#1167=CARTESIAN_POINT('',(0.,-0.0075,-0.0045));
#1168=CARTESIAN_POINT('',(-0.0155,0.0015,-0.0045));
#1169=CARTESIAN_POINT('',(-0.0155,0.0015,-0.0045));
#1170=CARTESIAN_POINT('',(-0.01375,0.0015,-0.0045));
#1171=CARTESIAN_POINT('',(-0.012,0.0015,-0.0045));
#1172=CARTESIAN_POINT('',(-0.012,-0.0075,-0.0045));
#1173=CARTESIAN_POINT('',(0.01375,0.0015,-0.0045));
#1174=CARTESIAN_POINT('',(0.0155,0.0015,-0.0045));
#1175=CARTESIAN_POINT('',(0.0155,0.0015,-0.0045));
#1176=CARTESIAN_POINT('',(-0.018,-0.0075,0.004));
#1177=CARTESIAN_POINT('',(-0.018,-0.0075,0.003));
#1178=CARTESIAN_POINT('',(-0.018,-0.0075,-9.8482013431433E-19));
#1179=CARTESIAN_POINT('',(-0.00995833333333333,-0.0075,-2.22713354313397E-18));
#1180=CARTESIAN_POINT('',(-0.006,-0.0075,-0.007));
#1181=CARTESIAN_POINT('',(0.0055,-0.0075,-0.007));
#1182=CARTESIAN_POINT('',(0.017,-0.0075,-0.007));
#1183=CARTESIAN_POINT('',(0.017,-0.0075,0.0005));
#1184=CARTESIAN_POINT('',(0.017,-0.007502,0.003));
#1185=CARTESIAN_POINT('',(-0.0005,-0.0075,0.008));
#1186=CARTESIAN_POINT('',(0.032,-0.007502,0.008));
#1187=CARTESIAN_POINT('',(0.032,-0.0025,0.008));
#1188=CARTESIAN_POINT('',(0.032,0.0025,0.008));
#1189=CARTESIAN_POINT('',(-0.018,0.0025,0.008));
#1190=CARTESIAN_POINT('',(-0.013,0.0025,0.008));
#1191=CARTESIAN_POINT('',(-0.013,-0.0075,0.008));
#1192=CARTESIAN_POINT('',(-0.013,-0.0025,0.008));
#1193=CARTESIAN_POINT('',(-0.0005,-0.0025,0.008));
#1194=CARTESIAN_POINT('',(-0.01,4.59242549680257E-20,0.008));
#1195=CARTESIAN_POINT('',(-0.00925,4.59242549680257E-20,0.008));
#1196=CARTESIAN_POINT('',(-0.005,4.59242549680257E-20,0.008));
#1197=CARTESIAN_POINT('',(-0.00425,4.59242549680257E-20,0.008));
#1198=CARTESIAN_POINT('',(-3.46944695195361E-18,4.59242549680257E-20,0.008));
#1199=CARTESIAN_POINT('',(0.000749999999999997,4.59242549680257E-20,0.008));
#1200=CARTESIAN_POINT('',(0.005,4.59242549680257E-20,0.008));
#1201=CARTESIAN_POINT('',(0.00575,4.59242549680257E-20,0.008));
#1202=CARTESIAN_POINT('',(0.01,4.59242549680257E-20,0.008));
#1203=CARTESIAN_POINT('',(0.01075,4.59242549680257E-20,0.008));
#1204=CARTESIAN_POINT('',(0.015,4.59242549680257E-20,0.008));
#1205=CARTESIAN_POINT('',(0.01575,4.59242549680257E-20,0.008));
#1206=CARTESIAN_POINT('',(0.02,4.59242549680257E-20,0.008));
#1207=CARTESIAN_POINT('',(0.02075,4.59242549680257E-20,0.008));
#1208=CARTESIAN_POINT('',(0.025,4.59242549680257E-20,0.008));
#1209=CARTESIAN_POINT('',(0.02575,4.59242549680257E-20,0.008));
#1210=CARTESIAN_POINT('',(0.03,4.59242549680257E-20,0.008));
#1211=CARTESIAN_POINT('',(0.03075,4.59242549680257E-20,0.008));
#1212=CARTESIAN_POINT('',(-0.012,-0.0075,0.));
#1213=CARTESIAN_POINT('',(-0.012,-0.0025,0.003));
#1214=CARTESIAN_POINT('',(-0.012,0.0015,0.));
#1215=CARTESIAN_POINT('',(-0.0155,0.0015,0.));
#1216=CARTESIAN_POINT('',(-0.0155,0.0025,0.003));
#1217=CARTESIAN_POINT('',(-0.0155,0.0015,0.));
#1218=CARTESIAN_POINT('',(-0.0005,0.0015,-2.08333333333345E-5));
#1219=CARTESIAN_POINT('',(-0.0135,0.0015,-0.0025));
#1220=CARTESIAN_POINT('',(-0.0135,0.0015,-0.00175));
#1221=CARTESIAN_POINT('',(-0.0135,0.0015,3.35274088104881E-18));
#1222=CARTESIAN_POINT('',(-0.0135,0.0015,0.000750000000000003));
#1223=CARTESIAN_POINT('',(-0.0135,0.0015,0.0025));
#1224=CARTESIAN_POINT('',(-0.0135,0.0015,0.00325));
#1225=CARTESIAN_POINT('',(0.0155,0.0015,0.));
#1226=CARTESIAN_POINT('',(0.0155,0.0025,0.003));
#1227=CARTESIAN_POINT('',(0.0155,0.0015,0.));
#1228=CARTESIAN_POINT('',(-0.0005,0.0015,-2.08333333333345E-5));
#1229=CARTESIAN_POINT('',(0.0135,0.0015,0.0025));
#1230=CARTESIAN_POINT('',(0.0135,0.0015,0.00325));
#1231=CARTESIAN_POINT('',(0.0135,0.0015,-0.0025));
#1232=CARTESIAN_POINT('',(0.0135,0.0015,-0.00175));
#1233=CARTESIAN_POINT('',(0.0135,0.0015,4.59242549680257E-20));
#1234=CARTESIAN_POINT('',(0.0135,0.0015,0.00075));
#1235=CARTESIAN_POINT('',(0.0135,-0.0398299112952151,4.59242549680257E-20));
#1236=CARTESIAN_POINT('',(0.0135,-0.0398299112952151,-0.0025));
#1237=CARTESIAN_POINT('',(0.0135,-0.0398299112952151,0.0025));
#1238=CARTESIAN_POINT('',(0.0140590169943749,-0.0075,0.003));
#1239=CARTESIAN_POINT('',(0.013917487730421,-0.0075,0.00315823452750324));
#1240=CARTESIAN_POINT('',(0.0135000427106634,-0.00748749217774945,0.00334176553405736));
#1241=CARTESIAN_POINT('',(0.0130825121583711,-0.0075,0.00315823440316907));
#1242=CARTESIAN_POINT('',(0.012940983005625,-0.0075,0.003));
#1243=CARTESIAN_POINT('',(-0.0135,-0.0398299112952151,0.0025));
#1244=CARTESIAN_POINT('',(-0.012940983005625,-0.0075,0.003));
#1245=CARTESIAN_POINT('',(-0.013082512269579,-0.0075,0.00315823452750325));
#1246=CARTESIAN_POINT('',(-0.0134999572893366,-0.00748749217774945,0.00334176553405736));
#1247=CARTESIAN_POINT('',(-0.0139174878416289,-0.0075,0.00315823440316906));
#1248=CARTESIAN_POINT('',(-0.0140590169943749,-0.0075,0.003));
#1249=CARTESIAN_POINT('',(-0.0135,-0.0398299112952151,3.35274088104881E-18));
#1250=CARTESIAN_POINT('',(-0.0135,-0.0398299112952151,-0.0025));
#1251=CARTESIAN_POINT('',(0.032,-0.007502,0.0055));
#1252=CARTESIAN_POINT('',(0.032,-0.007502,0.003));
#1253=CARTESIAN_POINT('',(0.032,-0.0025,0.003));
#1254=CARTESIAN_POINT('',(0.032,0.0025,0.003));
#1255=CARTESIAN_POINT('',(0.032,0.0025,0.008));
#1256=CARTESIAN_POINT('',(0.032,-0.0025,0.0055));
#1257=CARTESIAN_POINT('',(0.0245,-0.007502,0.003));
#1258=CARTESIAN_POINT('',(0.02,4.59242549680257E-20,0.003));
#1259=CARTESIAN_POINT('',(0.02075,4.59242549680257E-20,0.003));
#1260=CARTESIAN_POINT('',(0.025,4.59242549680257E-20,0.003));
#1261=CARTESIAN_POINT('',(0.02575,4.59242549680257E-20,0.003));
#1262=CARTESIAN_POINT('',(0.03,4.59242549680257E-20,0.003));
#1263=CARTESIAN_POINT('',(0.03075,4.59242549680257E-20,0.003));
#1264=CARTESIAN_POINT('',(0.0245,0.0075,0.003));
#1265=CARTESIAN_POINT('',(0.027,0.0075,0.003));
#1266=CARTESIAN_POINT('',(0.027,0.0025,0.003));
#1267=CARTESIAN_POINT('',(0.027,-0.0025,0.003));
#1268=CARTESIAN_POINT('',(0.027,-0.0075,0.003));
#1269=CARTESIAN_POINT('',(0.0245,-0.0075,0.003));
#1270=CARTESIAN_POINT('',(0.03,4.59242549680257E-20,0.002998));
#1271=CARTESIAN_POINT('',(0.025,4.59242549680257E-20,0.002998));
#1272=CARTESIAN_POINT('',(0.02,4.59242549680257E-20,0.002998));
#1273=CARTESIAN_POINT('',(0.0245,-0.007502,0.003));
#1274=CARTESIAN_POINT('',(0.015,4.59242549680257E-20,0.003));
#1275=CARTESIAN_POINT('',(0.01575,4.59242549680257E-20,0.003));
#1276=CARTESIAN_POINT('',(0.015,4.59242549680257E-20,0.002998));
#1277=CARTESIAN_POINT('',(0.01,4.59242549680257E-20,0.002998));
#1278=CARTESIAN_POINT('',(0.005,4.59242549680257E-20,0.002998));
#1279=CARTESIAN_POINT('',(-3.46944695195361E-18,4.59242549680257E-20,0.002998));
#1280=CARTESIAN_POINT('',(-0.005,4.59242549680257E-20,0.002998));
#1281=CARTESIAN_POINT('',(-0.01,4.59242549680257E-20,0.002998));
#1282=CARTESIAN_POINT('',(0.0245,-0.007502,0.003));
#1283=CARTESIAN_POINT('',(-0.015,4.59242549680257E-20,0.003));
#1284=CARTESIAN_POINT('',(-0.01425,4.59242549680257E-20,0.003));
#1285=CARTESIAN_POINT('',(-0.015,4.59242549680257E-20,0.002998));
#1286=CARTESIAN_POINT('',(-0.0155686223554688,0.000599886673592708,0.00729910729292126));
#1287=CARTESIAN_POINT('',(-0.0158406189781882,-2.02909097239663E-8,0.00711421354076251));
#1288=CARTESIAN_POINT('',(-0.0155689017317783,-0.000599805509953809,0.00729897817676384));
#1289=CARTESIAN_POINT('',(-0.0150274540115288,-0.000820583220536005,0.00758715080164442));
#1290=CARTESIAN_POINT('',(-0.0144354267862785,-0.00061641371035363,0.00779777344180772));
#1291=CARTESIAN_POINT('',(-0.0141578905870614,-1.16045574221623E-6,0.0078627705521924));
#1292=CARTESIAN_POINT('',(-0.0144330153153257,0.000614727134749158,0.00779851829703166));
#1293=CARTESIAN_POINT('',(-0.0150278624976956,0.000820991246830575,0.00758704892965882));
#1294=CARTESIAN_POINT('',(-0.0155686223554688,0.000599886673592708,0.00729910729292126));
#1295=CARTESIAN_POINT('',(-0.0158406189781882,-2.02909097239663E-8,0.00711421354076251));
#1296=CARTESIAN_POINT('',(-0.0155689017317783,-0.000599805509953809,0.00729897817676384));
#1297=CARTESIAN_POINT('',(-0.01575,7.10102211658468E-19,0.00717582327212252));
#1298=CARTESIAN_POINT('',(0.027,-0.0025,0.0055));
#1299=CARTESIAN_POINT('',(0.027,-0.0025,0.003));
#1300=CARTESIAN_POINT('',(-0.0005,-0.0025,0.003));
#1301=CARTESIAN_POINT('',(-0.013,-0.0025,0.003));
#1302=CARTESIAN_POINT('',(-0.013,-0.0075,0.003));
#1303=CARTESIAN_POINT('',(-0.013,0.0025,0.003));
#1304=CARTESIAN_POINT('',(-0.0005,0.0025,0.003));
#1305=CARTESIAN_POINT('',(0.027,0.0025,0.003));
#1306=CARTESIAN_POINT('',(0.027,0.0025,-2.08333333333345E-5));
#1307=MECHANICAL_DESIGN_GEOMETRIC_PRESENTATION_REPRESENTATION('',(#767),
#1308);
#1308=(
GEOMETRIC_REPRESENTATION_CONTEXT(3)
GLOBAL_UNCERTAINTY_ASSIGNED_CONTEXT((#1309))
GLOBAL_UNIT_ASSIGNED_CONTEXT((#1312,#1311,#1310))
REPRESENTATION_CONTEXT('Part 1','TOP_LEVEL_ASSEMBLY_PART')
);
#1309=UNCERTAINTY_MEASURE_WITH_UNIT(LENGTH_MEASURE(2.E-5),#1312,
'DISTANCE_ACCURACY_VALUE','Maximum Tolerance applied to model');
#1310=(
NAMED_UNIT(*)
SI_UNIT($,.STERADIAN.)
SOLID_ANGLE_UNIT()
);
#1311=(
NAMED_UNIT(*)
PLANE_ANGLE_UNIT()
SI_UNIT($,.RADIAN.)
);
#1312=(
LENGTH_UNIT()
NAMED_UNIT(*)
SI_UNIT($,.METRE.)
);
#1313=PRODUCT_DEFINITION_SHAPE('','',#1314);
#1314=PRODUCT_DEFINITION('','',#1316,#1315);
#1315=PRODUCT_DEFINITION_CONTEXT('',#1322,'design');
#1316=PRODUCT_DEFINITION_FORMATION_WITH_SPECIFIED_SOURCE('','',#1318,
 .NOT_KNOWN.);
#1317=PRODUCT_RELATED_PRODUCT_CATEGORY('','',(#1318));
#1318=PRODUCT('Part 1','Part 1','Part 1',(#1320));
#1319=PRODUCT_CATEGORY('','');
#1320=PRODUCT_CONTEXT('',#1322,'mechanical');
#1321=APPLICATION_PROTOCOL_DEFINITION('international standard',
'ap242_managed_model_based_3d_engineering',2020,#1322);
#1322=APPLICATION_CONTEXT('managed model based 3d engineering');
ENDSEC;
END-ISO-10303-21;
