ISO-10303-21;
HEADER;
/* Generated by software containing ST-Developer
 * from STEP Tools, Inc. (www.steptools.com) 
 */
/* OPTION: using custom renumber hook */

FILE_DESCRIPTION(
/* description */ ('STEP AP242 Edition 2',
'CAx-IF Rec.Pracs.---Representation and Presentation of Product Manufa
cturing Information (PMI)---4.0---2014-10-13',
'CAx-IF Rec.Pracs.---3D Tessellated Geometry---0.4---2014-09-14','2;1',
'CAx-IF Rec.Pracs.---User Defined Attributes---1.5---2016-08-15'),
/* implementation_level */ '2;1');

FILE_NAME(
/* name */ 'Spring_finger_start - Part 1',
/* time_stamp */ '2026-05-19T16:26:31Z',
/* author */ (''),
/* organization */ (''),
/* preprocessor_version */ 'ST-DEVELOPER v20',
/* originating_system */ 'ONSHAPE BY PTC INC, 1.215',
/* authorisation */ '  ');

FILE_SCHEMA (('AP242_MANAGED_MODEL_BASED_3D_ENGINEERING_MIM_LF { 1 0 10303 442 3 1 4 }'));
ENDSEC;

DATA;
#10=SHAPE_REPRESENTATION_RELATIONSHIP('','',#1191,#11);
#11=ADVANCED_BREP_SHAPE_REPRESENTATION('',(#1189),#2032);
#12=TOROIDAL_SURFACE('',#1307,0.003,0.001);
#13=TOROIDAL_SURFACE('',#1311,0.003,0.001);
#14=(
BOUNDED_SURFACE()
B_SPLINE_SURFACE(3,2,((#1989,#1990,#1991),(#1992,#1993,#1994),(#1995,#1996,
#1997),(#1998,#1999,#2000),(#2001,#2002,#2003)),.UNSPECIFIED.,.F.,.F.,.F.)
B_SPLINE_SURFACE_WITH_KNOTS((4,1,4),(3,3),(4.92366410222051,5.60342470470005,
6.28318530717959),(0.,1.),.UNSPECIFIED.)
GEOMETRIC_REPRESENTATION_ITEM()
RATIONAL_B_SPLINE_SURFACE(((1.,0.721500829764152,1.),(1.,0.736555991631752,
1.),(1.,0.763289434986376,1.),(1.,0.773342141337449,1.),(1.,0.773342141337902,
1.)))
REPRESENTATION_ITEM('')
SURFACE()
);
#15=(
BOUNDED_SURFACE()
B_SPLINE_SURFACE(3,2,((#2007,#2008,#2009),(#2010,#2011,#2012),(#2013,#2014,
#2015),(#2016,#2017,#2018),(#2019,#2020,#2021)),.UNSPECIFIED.,.F.,.F.,.F.)
B_SPLINE_SURFACE_WITH_KNOTS((4,1,4),(3,3),(3.14159265358979,3.92699081698724,
4.71238898038469),(0.,1.),.UNSPECIFIED.)
GEOMETRIC_REPRESENTATION_ITEM()
RATIONAL_B_SPLINE_SURFACE(((1.,0.773342141337902,1.),(1.,0.773342141337379,
1.),(1.,0.759788439437793,1.),(1.,0.725259303287895,1.),(1.,0.707106781186547,
1.)))
REPRESENTATION_ITEM('')
SURFACE()
);
#16=B_SPLINE_CURVE_WITH_KNOTS('',3,(#1968,#1969,#1970,#1971,#1972),
 .UNSPECIFIED.,.F.,.F.,(4,1,4),(0.,0.000799376162315778,0.00159875232463156),
 .UNSPECIFIED.);
#17=B_SPLINE_CURVE_WITH_KNOTS('',3,(#1977,#1978,#1979,#1980,#1981),
 .UNSPECIFIED.,.F.,.F.,(4,1,4),(1.95685727564344E-17,0.000772675470084723,
0.00154535094016943),.UNSPECIFIED.);
#18=CIRCLE('',#1206,0.00075);
#19=CIRCLE('',#1209,0.00075);
#20=CIRCLE('',#1212,0.00075);
#21=CIRCLE('',#1214,0.004);
#22=CIRCLE('',#1216,0.001);
#23=CIRCLE('',#1221,0.004);
#24=CIRCLE('',#1222,0.004);
#25=CIRCLE('',#1224,0.003);
#26=CIRCLE('',#1225,0.003);
#27=CIRCLE('',#1227,0.004);
#28=CIRCLE('',#1229,0.0005);
#29=CIRCLE('',#1230,0.0005);
#30=CIRCLE('',#1233,0.0005);
#31=CIRCLE('',#1234,0.0005);
#32=CIRCLE('',#1235,0.0005);
#33=CIRCLE('',#1236,0.0005);
#34=CIRCLE('',#1237,0.0035);
#35=CIRCLE('',#1240,0.0035);
#36=CIRCLE('',#1248,0.0035);
#37=CIRCLE('',#1250,0.0035);
#38=CIRCLE('',#1252,0.0035);
#39=CIRCLE('',#1255,0.0025);
#40=CIRCLE('',#1258,0.0035);
#41=CIRCLE('',#1259,0.0005);
#42=CIRCLE('',#1260,0.0005);
#43=CIRCLE('',#1261,0.0005);
#44=CIRCLE('',#1262,0.0005);
#45=CIRCLE('',#1274,0.001);
#46=CIRCLE('',#1275,0.001);
#47=CIRCLE('',#1278,0.001);
#48=CIRCLE('',#1279,0.001);
#49=CIRCLE('',#1289,0.004);
#50=CIRCLE('',#1293,0.001);
#51=CIRCLE('',#1294,0.001);
#52=CIRCLE('',#1296,0.001);
#53=CIRCLE('',#1301,0.001);
#54=CIRCLE('',#1303,0.001);
#55=CIRCLE('',#1304,0.001);
#56=CIRCLE('',#1306,0.001);
#57=CIRCLE('',#1308,0.001);
#58=CIRCLE('',#1310,0.001);
#59=CYLINDRICAL_SURFACE('',#1198,0.004);
#60=CYLINDRICAL_SURFACE('',#1204,0.00075);
#61=CYLINDRICAL_SURFACE('',#1207,0.00075);
#62=CYLINDRICAL_SURFACE('',#1210,0.00075);
#63=CYLINDRICAL_SURFACE('',#1215,0.001);
#64=CYLINDRICAL_SURFACE('',#1220,0.004);
#65=CYLINDRICAL_SURFACE('',#1228,0.0005);
#66=CYLINDRICAL_SURFACE('',#1249,0.0035);
#67=CYLINDRICAL_SURFACE('',#1251,0.0035);
#68=CYLINDRICAL_SURFACE('',#1254,0.0025);
#69=CYLINDRICAL_SURFACE('',#1263,0.0005);
#70=CYLINDRICAL_SURFACE('',#1264,0.0005);
#71=CYLINDRICAL_SURFACE('',#1265,0.0005);
#72=CYLINDRICAL_SURFACE('',#1266,0.0005);
#73=CYLINDRICAL_SURFACE('',#1269,0.0035);
#74=CYLINDRICAL_SURFACE('',#1286,0.004);
#75=CYLINDRICAL_SURFACE('',#1288,0.004);
#76=CYLINDRICAL_SURFACE('',#1298,0.001);
#77=CYLINDRICAL_SURFACE('',#1299,0.001);
#78=CYLINDRICAL_SURFACE('',#1300,0.001);
#79=CYLINDRICAL_SURFACE('',#1302,0.001);
#80=CYLINDRICAL_SURFACE('',#1305,0.001);
#81=CYLINDRICAL_SURFACE('',#1309,0.001);
#82=ELLIPSE('',#1195,0.00102709865184655,0.001);
#83=ELLIPSE('',#1196,0.00102709865184655,0.001);
#84=ELLIPSE('',#1199,0.0203960780543711,0.004);
#85=ELLIPSE('',#1200,0.0203960780543711,0.004);
#86=ELLIPSE('',#1201,0.00407921561087423,0.004);
#87=ELLIPSE('',#1202,0.0203960780543711,0.004);
#88=ELLIPSE('',#1203,0.00404474968323134,0.004);
#89=ELLIPSE('',#1205,0.000860510613313398,0.00075);
#90=ELLIPSE('',#1208,0.000860510613313398,0.00075);
#91=ELLIPSE('',#1211,0.000860510613313398,0.00075);
#92=ELLIPSE('',#1218,0.00305941170815567,0.003);
#93=ELLIPSE('',#1219,0.00305941170815567,0.003);
#94=ELLIPSE('',#1239,0.0203960780543711,0.004);
#95=ELLIPSE('',#1242,0.00407921561087423,0.004);
#96=ELLIPSE('',#1245,0.0025495097567964,0.0025);
#97=ELLIPSE('',#1284,0.00103467707069646,0.001);
#98=ELLIPSE('',#1285,0.00103467707069646,0.001);
#99=ELLIPSE('',#1287,0.00404474968323134,0.004);
#100=ORIENTED_EDGE('',*,*,#428,.T.);
#101=ORIENTED_EDGE('',*,*,#429,.T.);
#102=ORIENTED_EDGE('',*,*,#430,.T.);
#103=ORIENTED_EDGE('',*,*,#431,.F.);
#104=ORIENTED_EDGE('',*,*,#432,.T.);
#105=ORIENTED_EDGE('',*,*,#433,.F.);
#106=ORIENTED_EDGE('',*,*,#434,.T.);
#107=ORIENTED_EDGE('',*,*,#435,.F.);
#108=ORIENTED_EDGE('',*,*,#436,.F.);
#109=ORIENTED_EDGE('',*,*,#437,.F.);
#110=ORIENTED_EDGE('',*,*,#438,.T.);
#111=ORIENTED_EDGE('',*,*,#439,.T.);
#112=ORIENTED_EDGE('',*,*,#440,.T.);
#113=ORIENTED_EDGE('',*,*,#441,.F.);
#114=ORIENTED_EDGE('',*,*,#442,.T.);
#115=ORIENTED_EDGE('',*,*,#443,.F.);
#116=ORIENTED_EDGE('',*,*,#444,.F.);
#117=ORIENTED_EDGE('',*,*,#443,.T.);
#118=ORIENTED_EDGE('',*,*,#445,.T.);
#119=ORIENTED_EDGE('',*,*,#446,.F.);
#120=ORIENTED_EDGE('',*,*,#447,.T.);
#121=ORIENTED_EDGE('',*,*,#428,.F.);
#122=ORIENTED_EDGE('',*,*,#448,.F.);
#123=ORIENTED_EDGE('',*,*,#449,.F.);
#124=ORIENTED_EDGE('',*,*,#450,.F.);
#125=ORIENTED_EDGE('',*,*,#451,.T.);
#126=ORIENTED_EDGE('',*,*,#452,.F.);
#127=ORIENTED_EDGE('',*,*,#453,.F.);
#128=ORIENTED_EDGE('',*,*,#454,.F.);
#129=ORIENTED_EDGE('',*,*,#455,.F.);
#130=ORIENTED_EDGE('',*,*,#456,.F.);
#131=ORIENTED_EDGE('',*,*,#457,.F.);
#132=ORIENTED_EDGE('',*,*,#458,.T.);
#133=ORIENTED_EDGE('',*,*,#459,.T.);
#134=ORIENTED_EDGE('',*,*,#460,.F.);
#135=ORIENTED_EDGE('',*,*,#461,.T.);
#136=ORIENTED_EDGE('',*,*,#462,.F.);
#137=ORIENTED_EDGE('',*,*,#463,.T.);
#138=ORIENTED_EDGE('',*,*,#445,.F.);
#139=ORIENTED_EDGE('',*,*,#442,.F.);
#140=ORIENTED_EDGE('',*,*,#464,.F.);
#141=ORIENTED_EDGE('',*,*,#465,.T.);
#142=ORIENTED_EDGE('',*,*,#466,.F.);
#143=ORIENTED_EDGE('',*,*,#467,.T.);
#144=ORIENTED_EDGE('',*,*,#468,.T.);
#145=ORIENTED_EDGE('',*,*,#469,.T.);
#146=ORIENTED_EDGE('',*,*,#470,.T.);
#147=ORIENTED_EDGE('',*,*,#460,.T.);
#148=ORIENTED_EDGE('',*,*,#471,.T.);
#149=ORIENTED_EDGE('',*,*,#472,.T.);
#150=ORIENTED_EDGE('',*,*,#473,.F.);
#151=ORIENTED_EDGE('',*,*,#474,.F.);
#152=ORIENTED_EDGE('',*,*,#475,.T.);
#153=ORIENTED_EDGE('',*,*,#476,.T.);
#154=ORIENTED_EDGE('',*,*,#477,.T.);
#155=ORIENTED_EDGE('',*,*,#478,.T.);
#156=ORIENTED_EDGE('',*,*,#479,.T.);
#157=ORIENTED_EDGE('',*,*,#480,.T.);
#158=ORIENTED_EDGE('',*,*,#481,.T.);
#159=ORIENTED_EDGE('',*,*,#482,.T.);
#160=ORIENTED_EDGE('',*,*,#432,.F.);
#161=ORIENTED_EDGE('',*,*,#483,.T.);
#162=ORIENTED_EDGE('',*,*,#484,.T.);
#163=ORIENTED_EDGE('',*,*,#485,.F.);
#164=ORIENTED_EDGE('',*,*,#474,.T.);
#165=ORIENTED_EDGE('',*,*,#486,.T.);
#166=ORIENTED_EDGE('',*,*,#487,.T.);
#167=ORIENTED_EDGE('',*,*,#488,.T.);
#168=ORIENTED_EDGE('',*,*,#489,.F.);
#169=ORIENTED_EDGE('',*,*,#490,.T.);
#170=ORIENTED_EDGE('',*,*,#491,.F.);
#171=ORIENTED_EDGE('',*,*,#492,.F.);
#172=ORIENTED_EDGE('',*,*,#448,.T.);
#173=ORIENTED_EDGE('',*,*,#434,.F.);
#174=ORIENTED_EDGE('',*,*,#493,.T.);
#175=ORIENTED_EDGE('',*,*,#494,.T.);
#176=ORIENTED_EDGE('',*,*,#495,.T.);
#177=ORIENTED_EDGE('',*,*,#496,.T.);
#178=ORIENTED_EDGE('',*,*,#497,.T.);
#179=ORIENTED_EDGE('',*,*,#498,.T.);
#180=ORIENTED_EDGE('',*,*,#499,.T.);
#181=ORIENTED_EDGE('',*,*,#500,.F.);
#182=ORIENTED_EDGE('',*,*,#493,.F.);
#183=ORIENTED_EDGE('',*,*,#433,.T.);
#184=ORIENTED_EDGE('',*,*,#489,.T.);
#185=ORIENTED_EDGE('',*,*,#501,.F.);
#186=ORIENTED_EDGE('',*,*,#502,.F.);
#187=ORIENTED_EDGE('',*,*,#503,.T.);
#188=ORIENTED_EDGE('',*,*,#504,.T.);
#189=ORIENTED_EDGE('',*,*,#505,.T.);
#190=ORIENTED_EDGE('',*,*,#506,.T.);
#191=ORIENTED_EDGE('',*,*,#507,.F.);
#192=ORIENTED_EDGE('',*,*,#508,.F.);
#193=ORIENTED_EDGE('',*,*,#509,.F.);
#194=ORIENTED_EDGE('',*,*,#510,.T.);
#195=ORIENTED_EDGE('',*,*,#511,.T.);
#196=ORIENTED_EDGE('',*,*,#505,.F.);
#197=ORIENTED_EDGE('',*,*,#512,.F.);
#198=ORIENTED_EDGE('',*,*,#513,.F.);
#199=ORIENTED_EDGE('',*,*,#502,.T.);
#200=ORIENTED_EDGE('',*,*,#473,.T.);
#201=ORIENTED_EDGE('',*,*,#514,.T.);
#202=ORIENTED_EDGE('',*,*,#515,.T.);
#203=ORIENTED_EDGE('',*,*,#486,.F.);
#204=ORIENTED_EDGE('',*,*,#516,.T.);
#205=ORIENTED_EDGE('',*,*,#517,.T.);
#206=ORIENTED_EDGE('',*,*,#450,.T.);
#207=ORIENTED_EDGE('',*,*,#518,.T.);
#208=ORIENTED_EDGE('',*,*,#519,.T.);
#209=ORIENTED_EDGE('',*,*,#520,.F.);
#210=ORIENTED_EDGE('',*,*,#521,.F.);
#211=ORIENTED_EDGE('',*,*,#507,.T.);
#212=ORIENTED_EDGE('',*,*,#522,.T.);
#213=ORIENTED_EDGE('',*,*,#523,.T.);
#214=ORIENTED_EDGE('',*,*,#524,.T.);
#215=ORIENTED_EDGE('',*,*,#510,.F.);
#216=ORIENTED_EDGE('',*,*,#501,.T.);
#217=ORIENTED_EDGE('',*,*,#488,.F.);
#218=ORIENTED_EDGE('',*,*,#518,.F.);
#219=ORIENTED_EDGE('',*,*,#449,.T.);
#220=ORIENTED_EDGE('',*,*,#492,.T.);
#221=ORIENTED_EDGE('',*,*,#525,.F.);
#222=ORIENTED_EDGE('',*,*,#526,.T.);
#223=ORIENTED_EDGE('',*,*,#525,.T.);
#224=ORIENTED_EDGE('',*,*,#495,.F.);
#225=ORIENTED_EDGE('',*,*,#527,.F.);
#226=ORIENTED_EDGE('',*,*,#528,.T.);
#227=ORIENTED_EDGE('',*,*,#509,.T.);
#228=ORIENTED_EDGE('',*,*,#529,.F.);
#229=ORIENTED_EDGE('',*,*,#530,.F.);
#230=ORIENTED_EDGE('',*,*,#512,.T.);
#231=ORIENTED_EDGE('',*,*,#521,.T.);
#232=ORIENTED_EDGE('',*,*,#531,.F.);
#233=ORIENTED_EDGE('',*,*,#532,.F.);
#234=ORIENTED_EDGE('',*,*,#529,.T.);
#235=ORIENTED_EDGE('',*,*,#508,.T.);
#236=ORIENTED_EDGE('',*,*,#520,.T.);
#237=ORIENTED_EDGE('',*,*,#533,.F.);
#238=ORIENTED_EDGE('',*,*,#534,.F.);
#239=ORIENTED_EDGE('',*,*,#531,.T.);
#240=ORIENTED_EDGE('',*,*,#526,.F.);
#241=ORIENTED_EDGE('',*,*,#528,.F.);
#242=ORIENTED_EDGE('',*,*,#535,.T.);
#243=ORIENTED_EDGE('',*,*,#533,.T.);
#244=ORIENTED_EDGE('',*,*,#519,.F.);
#245=ORIENTED_EDGE('',*,*,#536,.F.);
#246=ORIENTED_EDGE('',*,*,#532,.T.);
#247=ORIENTED_EDGE('',*,*,#534,.T.);
#248=ORIENTED_EDGE('',*,*,#535,.F.);
#249=ORIENTED_EDGE('',*,*,#490,.F.);
#250=ORIENTED_EDGE('',*,*,#537,.F.);
#251=ORIENTED_EDGE('',*,*,#538,.F.);
#252=ORIENTED_EDGE('',*,*,#539,.F.);
#253=ORIENTED_EDGE('',*,*,#540,.F.);
#254=ORIENTED_EDGE('',*,*,#540,.T.);
#255=ORIENTED_EDGE('',*,*,#496,.F.);
#256=ORIENTED_EDGE('',*,*,#539,.T.);
#257=ORIENTED_EDGE('',*,*,#497,.F.);
#258=ORIENTED_EDGE('',*,*,#538,.T.);
#259=ORIENTED_EDGE('',*,*,#498,.F.);
#260=ORIENTED_EDGE('',*,*,#537,.T.);
#261=ORIENTED_EDGE('',*,*,#499,.F.);
#262=ORIENTED_EDGE('',*,*,#527,.T.);
#263=ORIENTED_EDGE('',*,*,#494,.F.);
#264=ORIENTED_EDGE('',*,*,#500,.T.);
#265=ORIENTED_EDGE('',*,*,#541,.T.);
#266=ORIENTED_EDGE('',*,*,#530,.T.);
#267=ORIENTED_EDGE('',*,*,#542,.F.);
#268=ORIENTED_EDGE('',*,*,#503,.F.);
#269=ORIENTED_EDGE('',*,*,#513,.T.);
#270=ORIENTED_EDGE('',*,*,#542,.T.);
#271=ORIENTED_EDGE('',*,*,#536,.T.);
#272=ORIENTED_EDGE('',*,*,#541,.F.);
#273=ORIENTED_EDGE('',*,*,#504,.F.);
#274=ORIENTED_EDGE('',*,*,#483,.F.);
#275=ORIENTED_EDGE('',*,*,#431,.T.);
#276=ORIENTED_EDGE('',*,*,#543,.T.);
#277=ORIENTED_EDGE('',*,*,#441,.T.);
#278=ORIENTED_EDGE('',*,*,#544,.T.);
#279=ORIENTED_EDGE('',*,*,#491,.T.);
#280=ORIENTED_EDGE('',*,*,#485,.T.);
#281=ORIENTED_EDGE('',*,*,#545,.F.);
#282=ORIENTED_EDGE('',*,*,#546,.F.);
#283=ORIENTED_EDGE('',*,*,#461,.F.);
#284=ORIENTED_EDGE('',*,*,#475,.F.);
#285=ORIENTED_EDGE('',*,*,#484,.F.);
#286=ORIENTED_EDGE('',*,*,#544,.F.);
#287=ORIENTED_EDGE('',*,*,#547,.T.);
#288=ORIENTED_EDGE('',*,*,#545,.T.);
#289=ORIENTED_EDGE('',*,*,#478,.F.);
#290=ORIENTED_EDGE('',*,*,#548,.F.);
#291=ORIENTED_EDGE('',*,*,#549,.T.);
#292=ORIENTED_EDGE('',*,*,#550,.T.);
#293=ORIENTED_EDGE('',*,*,#551,.T.);
#294=ORIENTED_EDGE('',*,*,#552,.T.);
#295=ORIENTED_EDGE('',*,*,#553,.F.);
#296=ORIENTED_EDGE('',*,*,#554,.T.);
#297=ORIENTED_EDGE('',*,*,#548,.T.);
#298=ORIENTED_EDGE('',*,*,#555,.T.);
#299=ORIENTED_EDGE('',*,*,#464,.T.);
#300=ORIENTED_EDGE('',*,*,#556,.T.);
#301=ORIENTED_EDGE('',*,*,#557,.F.);
#302=ORIENTED_EDGE('',*,*,#439,.F.);
#303=ORIENTED_EDGE('',*,*,#558,.T.);
#304=ORIENTED_EDGE('',*,*,#553,.T.);
#305=ORIENTED_EDGE('',*,*,#557,.T.);
#306=ORIENTED_EDGE('',*,*,#559,.T.);
#307=ORIENTED_EDGE('',*,*,#551,.F.);
#308=ORIENTED_EDGE('',*,*,#560,.T.);
#309=ORIENTED_EDGE('',*,*,#456,.T.);
#310=ORIENTED_EDGE('',*,*,#454,.T.);
#311=ORIENTED_EDGE('',*,*,#452,.T.);
#312=ORIENTED_EDGE('',*,*,#561,.F.);
#313=ORIENTED_EDGE('',*,*,#562,.T.);
#314=ORIENTED_EDGE('',*,*,#563,.T.);
#315=ORIENTED_EDGE('',*,*,#564,.F.);
#316=ORIENTED_EDGE('',*,*,#565,.T.);
#317=ORIENTED_EDGE('',*,*,#437,.T.);
#318=ORIENTED_EDGE('',*,*,#440,.F.);
#319=ORIENTED_EDGE('',*,*,#560,.F.);
#320=ORIENTED_EDGE('',*,*,#566,.T.);
#321=ORIENTED_EDGE('',*,*,#547,.F.);
#322=ORIENTED_EDGE('',*,*,#566,.F.);
#323=ORIENTED_EDGE('',*,*,#550,.F.);
#324=ORIENTED_EDGE('',*,*,#567,.T.);
#325=ORIENTED_EDGE('',*,*,#564,.T.);
#326=ORIENTED_EDGE('',*,*,#568,.T.);
#327=ORIENTED_EDGE('',*,*,#546,.T.);
#328=ORIENTED_EDGE('',*,*,#524,.F.);
#329=ORIENTED_EDGE('',*,*,#569,.T.);
#330=ORIENTED_EDGE('',*,*,#516,.F.);
#331=ORIENTED_EDGE('',*,*,#506,.F.);
#332=ORIENTED_EDGE('',*,*,#511,.F.);
#333=ORIENTED_EDGE('',*,*,#515,.F.);
#334=ORIENTED_EDGE('',*,*,#570,.T.);
#335=ORIENTED_EDGE('',*,*,#522,.F.);
#336=ORIENTED_EDGE('',*,*,#487,.F.);
#337=ORIENTED_EDGE('',*,*,#571,.F.);
#338=ORIENTED_EDGE('',*,*,#572,.T.);
#339=ORIENTED_EDGE('',*,*,#573,.T.);
#340=ORIENTED_EDGE('',*,*,#574,.F.);
#341=ORIENTED_EDGE('',*,*,#575,.F.);
#342=ORIENTED_EDGE('',*,*,#576,.T.);
#343=ORIENTED_EDGE('',*,*,#577,.T.);
#344=ORIENTED_EDGE('',*,*,#574,.T.);
#345=ORIENTED_EDGE('',*,*,#476,.F.);
#346=ORIENTED_EDGE('',*,*,#578,.T.);
#347=ORIENTED_EDGE('',*,*,#471,.F.);
#348=ORIENTED_EDGE('',*,*,#459,.F.);
#349=ORIENTED_EDGE('',*,*,#579,.T.);
#350=ORIENTED_EDGE('',*,*,#562,.F.);
#351=ORIENTED_EDGE('',*,*,#580,.F.);
#352=ORIENTED_EDGE('',*,*,#571,.T.);
#353=ORIENTED_EDGE('',*,*,#577,.F.);
#354=ORIENTED_EDGE('',*,*,#581,.T.);
#355=ORIENTED_EDGE('',*,*,#446,.T.);
#356=ORIENTED_EDGE('',*,*,#582,.T.);
#357=ORIENTED_EDGE('',*,*,#466,.T.);
#358=ORIENTED_EDGE('',*,*,#583,.T.);
#359=ORIENTED_EDGE('',*,*,#575,.T.);
#360=ORIENTED_EDGE('',*,*,#573,.F.);
#361=ORIENTED_EDGE('',*,*,#584,.T.);
#362=ORIENTED_EDGE('',*,*,#435,.T.);
#363=ORIENTED_EDGE('',*,*,#444,.T.);
#364=ORIENTED_EDGE('',*,*,#463,.F.);
#365=ORIENTED_EDGE('',*,*,#585,.T.);
#366=ORIENTED_EDGE('',*,*,#429,.F.);
#367=ORIENTED_EDGE('',*,*,#447,.F.);
#368=ORIENTED_EDGE('',*,*,#585,.F.);
#369=ORIENTED_EDGE('',*,*,#462,.T.);
#370=ORIENTED_EDGE('',*,*,#543,.F.);
#371=ORIENTED_EDGE('',*,*,#430,.F.);
#372=ORIENTED_EDGE('',*,*,#581,.F.);
#373=ORIENTED_EDGE('',*,*,#576,.F.);
#374=ORIENTED_EDGE('',*,*,#583,.F.);
#375=ORIENTED_EDGE('',*,*,#465,.F.);
#376=ORIENTED_EDGE('',*,*,#555,.F.);
#377=ORIENTED_EDGE('',*,*,#477,.F.);
#378=ORIENTED_EDGE('',*,*,#579,.F.);
#379=ORIENTED_EDGE('',*,*,#458,.F.);
#380=ORIENTED_EDGE('',*,*,#568,.F.);
#381=ORIENTED_EDGE('',*,*,#563,.F.);
#382=ORIENTED_EDGE('',*,*,#549,.F.);
#383=ORIENTED_EDGE('',*,*,#554,.F.);
#384=ORIENTED_EDGE('',*,*,#558,.F.);
#385=ORIENTED_EDGE('',*,*,#438,.F.);
#386=ORIENTED_EDGE('',*,*,#565,.F.);
#387=ORIENTED_EDGE('',*,*,#567,.F.);
#388=ORIENTED_EDGE('',*,*,#582,.F.);
#389=ORIENTED_EDGE('',*,*,#451,.F.);
#390=ORIENTED_EDGE('',*,*,#586,.F.);
#391=ORIENTED_EDGE('',*,*,#467,.F.);
#392=ORIENTED_EDGE('',*,*,#586,.T.);
#393=ORIENTED_EDGE('',*,*,#517,.F.);
#394=ORIENTED_EDGE('',*,*,#587,.F.);
#395=ORIENTED_EDGE('',*,*,#468,.F.);
#396=ORIENTED_EDGE('',*,*,#587,.T.);
#397=ORIENTED_EDGE('',*,*,#569,.F.);
#398=ORIENTED_EDGE('',*,*,#588,.F.);
#399=ORIENTED_EDGE('',*,*,#469,.F.);
#400=ORIENTED_EDGE('',*,*,#559,.F.);
#401=ORIENTED_EDGE('',*,*,#556,.F.);
#402=ORIENTED_EDGE('',*,*,#470,.F.);
#403=ORIENTED_EDGE('',*,*,#588,.T.);
#404=ORIENTED_EDGE('',*,*,#523,.F.);
#405=ORIENTED_EDGE('',*,*,#589,.F.);
#406=ORIENTED_EDGE('',*,*,#479,.F.);
#407=ORIENTED_EDGE('',*,*,#552,.F.);
#408=ORIENTED_EDGE('',*,*,#589,.T.);
#409=ORIENTED_EDGE('',*,*,#570,.F.);
#410=ORIENTED_EDGE('',*,*,#590,.F.);
#411=ORIENTED_EDGE('',*,*,#480,.F.);
#412=ORIENTED_EDGE('',*,*,#590,.T.);
#413=ORIENTED_EDGE('',*,*,#514,.F.);
#414=ORIENTED_EDGE('',*,*,#591,.F.);
#415=ORIENTED_EDGE('',*,*,#481,.F.);
#416=ORIENTED_EDGE('',*,*,#591,.T.);
#417=ORIENTED_EDGE('',*,*,#472,.F.);
#418=ORIENTED_EDGE('',*,*,#578,.F.);
#419=ORIENTED_EDGE('',*,*,#482,.F.);
#420=ORIENTED_EDGE('',*,*,#453,.T.);
#421=ORIENTED_EDGE('',*,*,#455,.T.);
#422=ORIENTED_EDGE('',*,*,#457,.T.);
#423=ORIENTED_EDGE('',*,*,#436,.T.);
#424=ORIENTED_EDGE('',*,*,#584,.F.);
#425=ORIENTED_EDGE('',*,*,#572,.F.);
#426=ORIENTED_EDGE('',*,*,#580,.T.);
#427=ORIENTED_EDGE('',*,*,#561,.T.);
#428=EDGE_CURVE('',#592,#593,#701,.F.);
#429=EDGE_CURVE('',#593,#594,#702,.T.);
#430=EDGE_CURVE('',#594,#595,#703,.T.);
#431=EDGE_CURVE('',#596,#595,#704,.T.);
#432=EDGE_CURVE('',#596,#597,#705,.T.);
#433=EDGE_CURVE('',#598,#597,#706,.T.);
#434=EDGE_CURVE('',#598,#592,#707,.T.);
#435=EDGE_CURVE('',#599,#600,#708,.F.);
#436=EDGE_CURVE('',#601,#599,#709,.F.);
#437=EDGE_CURVE('',#602,#601,#710,.T.);
#438=EDGE_CURVE('',#602,#603,#82,.F.);
#439=EDGE_CURVE('',#603,#604,#711,.T.);
#440=EDGE_CURVE('',#604,#605,#712,.T.);
#441=EDGE_CURVE('',#606,#605,#713,.T.);
#442=EDGE_CURVE('',#606,#607,#83,.F.);
#443=EDGE_CURVE('',#600,#607,#714,.T.);
#444=EDGE_CURVE('',#600,#608,#715,.F.);
#445=EDGE_CURVE('',#607,#608,#716,.T.);
#446=EDGE_CURVE('',#609,#610,#84,.F.);
#447=EDGE_CURVE('',#609,#593,#85,.F.);
#448=EDGE_CURVE('',#611,#592,#86,.T.);
#449=EDGE_CURVE('',#612,#611,#87,.T.);
#450=EDGE_CURVE('',#613,#612,#717,.T.);
#451=EDGE_CURVE('',#613,#610,#88,.T.);
#452=EDGE_CURVE('',#614,#614,#89,.F.);
#453=EDGE_CURVE('',#615,#615,#18,.F.);
#454=EDGE_CURVE('',#616,#616,#90,.F.);
#455=EDGE_CURVE('',#617,#617,#19,.F.);
#456=EDGE_CURVE('',#618,#618,#91,.F.);
#457=EDGE_CURVE('',#619,#619,#20,.F.);
#458=EDGE_CURVE('',#620,#621,#718,.T.);
#459=EDGE_CURVE('',#621,#622,#719,.T.);
#460=EDGE_CURVE('',#623,#622,#21,.F.);
#461=EDGE_CURVE('',#623,#620,#720,.T.);
#462=EDGE_CURVE('',#624,#606,#721,.T.);
#463=EDGE_CURVE('',#624,#608,#22,.F.);
#464=EDGE_CURVE('',#625,#626,#722,.T.);
#465=EDGE_CURVE('',#625,#627,#723,.T.);
#466=EDGE_CURVE('',#628,#627,#724,.T.);
#467=EDGE_CURVE('',#628,#629,#92,.T.);
#468=EDGE_CURVE('',#629,#630,#725,.T.);
#469=EDGE_CURVE('',#630,#631,#93,.T.);
#470=EDGE_CURVE('',#631,#626,#726,.F.);
#471=EDGE_CURVE('',#622,#632,#727,.T.);
#472=EDGE_CURVE('',#632,#633,#23,.F.);
#473=EDGE_CURVE('',#634,#633,#728,.F.);
#474=EDGE_CURVE('',#635,#634,#24,.F.);
#475=EDGE_CURVE('',#635,#623,#729,.T.);
#476=EDGE_CURVE('',#636,#637,#730,.T.);
#477=EDGE_CURVE('',#637,#638,#731,.T.);
#478=EDGE_CURVE('',#638,#639,#732,.T.);
#479=EDGE_CURVE('',#639,#640,#733,.F.);
#480=EDGE_CURVE('',#640,#641,#25,.T.);
#481=EDGE_CURVE('',#641,#642,#734,.F.);
#482=EDGE_CURVE('',#642,#636,#26,.T.);
#483=EDGE_CURVE('',#596,#643,#735,.T.);
#484=EDGE_CURVE('',#643,#644,#736,.T.);
#485=EDGE_CURVE('',#635,#644,#737,.T.);
#486=EDGE_CURVE('',#634,#645,#738,.T.);
#487=EDGE_CURVE('',#645,#646,#27,.F.);
#488=EDGE_CURVE('',#646,#647,#739,.T.);
#489=EDGE_CURVE('',#597,#647,#740,.T.);
#490=EDGE_CURVE('',#648,#648,#28,.T.);
#491=EDGE_CURVE('',#649,#649,#29,.F.);
#492=EDGE_CURVE('',#611,#650,#741,.T.);
#493=EDGE_CURVE('',#598,#651,#742,.T.);
#494=EDGE_CURVE('',#651,#652,#743,.T.);
#495=EDGE_CURVE('',#652,#650,#744,.T.);
#496=EDGE_CURVE('',#653,#653,#30,.T.);
#497=EDGE_CURVE('',#654,#654,#31,.T.);
#498=EDGE_CURVE('',#655,#655,#32,.T.);
#499=EDGE_CURVE('',#656,#656,#33,.T.);
#500=EDGE_CURVE('',#651,#657,#745,.T.);
#501=EDGE_CURVE('',#658,#647,#746,.T.);
#502=EDGE_CURVE('',#659,#658,#747,.T.);
#503=EDGE_CURVE('',#659,#660,#748,.T.);
#504=EDGE_CURVE('',#660,#657,#34,.T.);
#505=EDGE_CURVE('',#661,#662,#749,.T.);
#506=EDGE_CURVE('',#662,#663,#94,.T.);
#507=EDGE_CURVE('',#664,#663,#750,.T.);
#508=EDGE_CURVE('',#665,#664,#751,.T.);
#509=EDGE_CURVE('',#661,#665,#35,.T.);
#510=EDGE_CURVE('',#658,#666,#752,.T.);
#511=EDGE_CURVE('',#666,#662,#95,.T.);
#512=EDGE_CURVE('',#667,#661,#753,.T.);
#513=EDGE_CURVE('',#659,#667,#754,.T.);
#514=EDGE_CURVE('',#633,#668,#755,.T.);
#515=EDGE_CURVE('',#668,#645,#756,.T.);
#516=EDGE_CURVE('',#663,#669,#757,.F.);
#517=EDGE_CURVE('',#669,#613,#758,.F.);
#518=EDGE_CURVE('',#612,#670,#759,.T.);
#519=EDGE_CURVE('',#670,#671,#760,.T.);
#520=EDGE_CURVE('',#672,#671,#96,.T.);
#521=EDGE_CURVE('',#664,#672,#761,.T.);
#522=EDGE_CURVE('',#646,#673,#762,.F.);
#523=EDGE_CURVE('',#673,#674,#763,.T.);
#524=EDGE_CURVE('',#674,#666,#764,.T.);
#525=EDGE_CURVE('',#675,#650,#36,.T.);
#526=EDGE_CURVE('',#675,#670,#765,.T.);
#527=EDGE_CURVE('',#676,#652,#37,.T.);
#528=EDGE_CURVE('',#676,#675,#766,.T.);
#529=EDGE_CURVE('',#677,#665,#767,.T.);
#530=EDGE_CURVE('',#667,#677,#38,.T.);
#531=EDGE_CURVE('',#678,#672,#768,.T.);
#532=EDGE_CURVE('',#677,#678,#769,.T.);
#533=EDGE_CURVE('',#679,#671,#770,.T.);
#534=EDGE_CURVE('',#678,#679,#39,.T.);
#535=EDGE_CURVE('',#676,#679,#771,.T.);
#536=EDGE_CURVE('',#677,#676,#40,.T.);
#537=EDGE_CURVE('',#680,#680,#41,.T.);
#538=EDGE_CURVE('',#681,#681,#42,.T.);
#539=EDGE_CURVE('',#682,#682,#43,.T.);
#540=EDGE_CURVE('',#683,#683,#44,.T.);
#541=EDGE_CURVE('',#657,#676,#772,.T.);
#542=EDGE_CURVE('',#660,#677,#773,.T.);
#543=EDGE_CURVE('',#595,#606,#774,.T.);
#544=EDGE_CURVE('',#605,#643,#775,.T.);
#545=EDGE_CURVE('',#684,#644,#776,.T.);
#546=EDGE_CURVE('',#620,#684,#777,.T.);
#547=EDGE_CURVE('',#605,#684,#778,.T.);
#548=EDGE_CURVE('',#685,#638,#779,.T.);
#549=EDGE_CURVE('',#685,#686,#45,.F.);
#550=EDGE_CURVE('',#686,#687,#780,.T.);
#551=EDGE_CURVE('',#687,#688,#781,.T.);
#552=EDGE_CURVE('',#688,#639,#46,.F.);
#553=EDGE_CURVE('',#689,#625,#782,.T.);
#554=EDGE_CURVE('',#689,#685,#783,.T.);
#555=EDGE_CURVE('',#638,#625,#784,.T.);
#556=EDGE_CURVE('',#626,#690,#47,.T.);
#557=EDGE_CURVE('',#604,#690,#785,.T.);
#558=EDGE_CURVE('',#603,#689,#48,.T.);
#559=EDGE_CURVE('',#690,#688,#786,.F.);
#560=EDGE_CURVE('',#687,#604,#787,.T.);
#561=EDGE_CURVE('',#691,#601,#788,.F.);
#562=EDGE_CURVE('',#691,#692,#789,.F.);
#563=EDGE_CURVE('',#692,#693,#790,.T.);
#564=EDGE_CURVE('',#694,#693,#791,.T.);
#565=EDGE_CURVE('',#694,#602,#792,.T.);
#566=EDGE_CURVE('',#687,#684,#793,.T.);
#567=EDGE_CURVE('',#686,#694,#97,.T.);
#568=EDGE_CURVE('',#693,#620,#98,.T.);
#569=EDGE_CURVE('',#674,#669,#99,.T.);
#570=EDGE_CURVE('',#668,#673,#49,.F.);
#571=EDGE_CURVE('',#695,#696,#794,.T.);
#572=EDGE_CURVE('',#695,#697,#795,.T.);
#573=EDGE_CURVE('',#697,#698,#796,.T.);
#574=EDGE_CURVE('',#696,#698,#797,.T.);
#575=EDGE_CURVE('',#699,#698,#798,.T.);
#576=EDGE_CURVE('',#699,#700,#799,.F.);
#577=EDGE_CURVE('',#700,#696,#800,.T.);
#578=EDGE_CURVE('',#636,#632,#16,.T.);
#579=EDGE_CURVE('',#621,#692,#50,.F.);
#580=EDGE_CURVE('',#695,#691,#801,.T.);
#581=EDGE_CURVE('',#700,#637,#51,.F.);
#582=EDGE_CURVE('',#610,#628,#17,.T.);
#583=EDGE_CURVE('',#627,#699,#52,.T.);
#584=EDGE_CURVE('',#697,#599,#802,.T.);
#585=EDGE_CURVE('',#624,#594,#803,.T.);
#586=EDGE_CURVE('',#629,#613,#53,.T.);
#587=EDGE_CURVE('',#630,#669,#54,.T.);
#588=EDGE_CURVE('',#631,#674,#55,.T.);
#589=EDGE_CURVE('',#640,#673,#56,.T.);
#590=EDGE_CURVE('',#641,#668,#57,.T.);
#591=EDGE_CURVE('',#642,#633,#58,.T.);
#592=VERTEX_POINT('',#1661);
#593=VERTEX_POINT('',#1662);
#594=VERTEX_POINT('',#1664);
#595=VERTEX_POINT('',#1666);
#596=VERTEX_POINT('',#1668);
#597=VERTEX_POINT('',#1670);
#598=VERTEX_POINT('',#1672);
#599=VERTEX_POINT('',#1676);
#600=VERTEX_POINT('',#1677);
#601=VERTEX_POINT('',#1679);
#602=VERTEX_POINT('',#1681);
#603=VERTEX_POINT('',#1683);
#604=VERTEX_POINT('',#1685);
#605=VERTEX_POINT('',#1687);
#606=VERTEX_POINT('',#1689);
#607=VERTEX_POINT('',#1691);
#608=VERTEX_POINT('',#1695);
#609=VERTEX_POINT('',#1699);
#610=VERTEX_POINT('',#1700);
#611=VERTEX_POINT('',#1703);
#612=VERTEX_POINT('',#1705);
#613=VERTEX_POINT('',#1707);
#614=VERTEX_POINT('',#1711);
#615=VERTEX_POINT('',#1713);
#616=VERTEX_POINT('',#1716);
#617=VERTEX_POINT('',#1718);
#618=VERTEX_POINT('',#1721);
#619=VERTEX_POINT('',#1723);
#620=VERTEX_POINT('',#1726);
#621=VERTEX_POINT('',#1727);
#622=VERTEX_POINT('',#1729);
#623=VERTEX_POINT('',#1731);
#624=VERTEX_POINT('',#1735);
#625=VERTEX_POINT('',#1739);
#626=VERTEX_POINT('',#1740);
#627=VERTEX_POINT('',#1742);
#628=VERTEX_POINT('',#1744);
#629=VERTEX_POINT('',#1746);
#630=VERTEX_POINT('',#1748);
#631=VERTEX_POINT('',#1750);
#632=VERTEX_POINT('',#1754);
#633=VERTEX_POINT('',#1756);
#634=VERTEX_POINT('',#1758);
#635=VERTEX_POINT('',#1760);
#636=VERTEX_POINT('',#1764);
#637=VERTEX_POINT('',#1765);
#638=VERTEX_POINT('',#1767);
#639=VERTEX_POINT('',#1769);
#640=VERTEX_POINT('',#1771);
#641=VERTEX_POINT('',#1773);
#642=VERTEX_POINT('',#1775);
#643=VERTEX_POINT('',#1779);
#644=VERTEX_POINT('',#1781);
#645=VERTEX_POINT('',#1784);
#646=VERTEX_POINT('',#1786);
#647=VERTEX_POINT('',#1788);
#648=VERTEX_POINT('',#1792);
#649=VERTEX_POINT('',#1794);
#650=VERTEX_POINT('',#1797);
#651=VERTEX_POINT('',#1799);
#652=VERTEX_POINT('',#1801);
#653=VERTEX_POINT('',#1805);
#654=VERTEX_POINT('',#1807);
#655=VERTEX_POINT('',#1809);
#656=VERTEX_POINT('',#1811);
#657=VERTEX_POINT('',#1813);
#658=VERTEX_POINT('',#1815);
#659=VERTEX_POINT('',#1817);
#660=VERTEX_POINT('',#1819);
#661=VERTEX_POINT('',#1823);
#662=VERTEX_POINT('',#1824);
#663=VERTEX_POINT('',#1826);
#664=VERTEX_POINT('',#1828);
#665=VERTEX_POINT('',#1830);
#666=VERTEX_POINT('',#1834);
#667=VERTEX_POINT('',#1837);
#668=VERTEX_POINT('',#1841);
#669=VERTEX_POINT('',#1845);
#670=VERTEX_POINT('',#1848);
#671=VERTEX_POINT('',#1850);
#672=VERTEX_POINT('',#1852);
#673=VERTEX_POINT('',#1856);
#674=VERTEX_POINT('',#1858);
#675=VERTEX_POINT('',#1862);
#676=VERTEX_POINT('',#1866);
#677=VERTEX_POINT('',#1870);
#678=VERTEX_POINT('',#1874);
#679=VERTEX_POINT('',#1878);
#680=VERTEX_POINT('',#1885);
#681=VERTEX_POINT('',#1887);
#682=VERTEX_POINT('',#1889);
#683=VERTEX_POINT('',#1891);
#684=VERTEX_POINT('',#1906);
#685=VERTEX_POINT('',#1912);
#686=VERTEX_POINT('',#1914);
#687=VERTEX_POINT('',#1916);
#688=VERTEX_POINT('',#1918);
#689=VERTEX_POINT('',#1922);
#690=VERTEX_POINT('',#1927);
#691=VERTEX_POINT('',#1935);
#692=VERTEX_POINT('',#1937);
#693=VERTEX_POINT('',#1939);
#694=VERTEX_POINT('',#1941);
#695=VERTEX_POINT('',#1954);
#696=VERTEX_POINT('',#1955);
#697=VERTEX_POINT('',#1957);
#698=VERTEX_POINT('',#1959);
#699=VERTEX_POINT('',#1963);
#700=VERTEX_POINT('',#1965);
#701=LINE('',#1660,#804);
#702=LINE('',#1663,#805);
#703=LINE('',#1665,#806);
#704=LINE('',#1667,#807);
#705=LINE('',#1669,#808);
#706=LINE('',#1671,#809);
#707=LINE('',#1673,#810);
#708=LINE('',#1675,#811);
#709=LINE('',#1678,#812);
#710=LINE('',#1680,#813);
#711=LINE('',#1684,#814);
#712=LINE('',#1686,#815);
#713=LINE('',#1688,#816);
#714=LINE('',#1692,#817);
#715=LINE('',#1694,#818);
#716=LINE('',#1696,#819);
#717=LINE('',#1706,#820);
#718=LINE('',#1725,#821);
#719=LINE('',#1728,#822);
#720=LINE('',#1732,#823);
#721=LINE('',#1734,#824);
#722=LINE('',#1738,#825);
#723=LINE('',#1741,#826);
#724=LINE('',#1743,#827);
#725=LINE('',#1747,#828);
#726=LINE('',#1751,#829);
#727=LINE('',#1753,#830);
#728=LINE('',#1757,#831);
#729=LINE('',#1761,#832);
#730=LINE('',#1763,#833);
#731=LINE('',#1766,#834);
#732=LINE('',#1768,#835);
#733=LINE('',#1770,#836);
#734=LINE('',#1774,#837);
#735=LINE('',#1778,#838);
#736=LINE('',#1780,#839);
#737=LINE('',#1782,#840);
#738=LINE('',#1783,#841);
#739=LINE('',#1787,#842);
#740=LINE('',#1789,#843);
#741=LINE('',#1796,#844);
#742=LINE('',#1798,#845);
#743=LINE('',#1800,#846);
#744=LINE('',#1802,#847);
#745=LINE('',#1812,#848);
#746=LINE('',#1814,#849);
#747=LINE('',#1816,#850);
#748=LINE('',#1818,#851);
#749=LINE('',#1822,#852);
#750=LINE('',#1827,#853);
#751=LINE('',#1829,#854);
#752=LINE('',#1833,#855);
#753=LINE('',#1836,#856);
#754=LINE('',#1838,#857);
#755=LINE('',#1840,#858);
#756=LINE('',#1842,#859);
#757=LINE('',#1844,#860);
#758=LINE('',#1846,#861);
#759=LINE('',#1847,#862);
#760=LINE('',#1849,#863);
#761=LINE('',#1853,#864);
#762=LINE('',#1855,#865);
#763=LINE('',#1857,#866);
#764=LINE('',#1859,#867);
#765=LINE('',#1863,#868);
#766=LINE('',#1867,#869);
#767=LINE('',#1869,#870);
#768=LINE('',#1873,#871);
#769=LINE('',#1875,#872);
#770=LINE('',#1877,#873);
#771=LINE('',#1881,#874);
#772=LINE('',#1897,#875);
#773=LINE('',#1899,#876);
#774=LINE('',#1902,#877);
#775=LINE('',#1903,#878);
#776=LINE('',#1905,#879);
#777=LINE('',#1907,#880);
#778=LINE('',#1909,#881);
#779=LINE('',#1911,#882);
#780=LINE('',#1915,#883);
#781=LINE('',#1917,#884);
#782=LINE('',#1921,#885);
#783=LINE('',#1923,#886);
#784=LINE('',#1924,#887);
#785=LINE('',#1928,#888);
#786=LINE('',#1931,#889);
#787=LINE('',#1932,#890);
#788=LINE('',#1934,#891);
#789=LINE('',#1936,#892);
#790=LINE('',#1938,#893);
#791=LINE('',#1940,#894);
#792=LINE('',#1942,#895);
#793=LINE('',#1944,#896);
#794=LINE('',#1953,#897);
#795=LINE('',#1956,#898);
#796=LINE('',#1958,#899);
#797=LINE('',#1960,#900);
#798=LINE('',#1962,#901);
#799=LINE('',#1964,#902);
#800=LINE('',#1966,#903);
#801=LINE('',#1974,#904);
#802=LINE('',#1983,#905);
#803=LINE('',#1984,#906);
#804=VECTOR('',#1317,1.);
#805=VECTOR('',#1318,1.);
#806=VECTOR('',#1319,1.);
#807=VECTOR('',#1320,1.);
#808=VECTOR('',#1321,1.);
#809=VECTOR('',#1322,1.);
#810=VECTOR('',#1323,1.);
#811=VECTOR('',#1326,1.);
#812=VECTOR('',#1327,1.);
#813=VECTOR('',#1328,1.);
#814=VECTOR('',#1331,1.);
#815=VECTOR('',#1332,1.);
#816=VECTOR('',#1333,1.);
#817=VECTOR('',#1336,1.);
#818=VECTOR('',#1339,1.);
#819=VECTOR('',#1340,1.);
#820=VECTOR('',#1351,1.);
#821=VECTOR('',#1374,1.);
#822=VECTOR('',#1375,1.);
#823=VECTOR('',#1378,1.);
#824=VECTOR('',#1381,1.);
#825=VECTOR('',#1386,1.);
#826=VECTOR('',#1387,1.);
#827=VECTOR('',#1388,1.);
#828=VECTOR('',#1391,1.);
#829=VECTOR('',#1394,1.);
#830=VECTOR('',#1397,1.);
#831=VECTOR('',#1400,1.);
#832=VECTOR('',#1403,1.);
#833=VECTOR('',#1406,1.);
#834=VECTOR('',#1407,1.);
#835=VECTOR('',#1408,1.);
#836=VECTOR('',#1409,1.);
#837=VECTOR('',#1412,1.);
#838=VECTOR('',#1417,1.);
#839=VECTOR('',#1418,1.);
#840=VECTOR('',#1419,1.);
#841=VECTOR('',#1420,1.);
#842=VECTOR('',#1423,1.);
#843=VECTOR('',#1424,1.);
#844=VECTOR('',#1433,1.);
#845=VECTOR('',#1434,1.);
#846=VECTOR('',#1435,1.);
#847=VECTOR('',#1436,1.);
#848=VECTOR('',#1447,1.);
#849=VECTOR('',#1448,1.);
#850=VECTOR('',#1449,1.);
#851=VECTOR('',#1450,1.);
#852=VECTOR('',#1455,1.);
#853=VECTOR('',#1458,1.);
#854=VECTOR('',#1459,1.);
#855=VECTOR('',#1464,1.);
#856=VECTOR('',#1467,1.);
#857=VECTOR('',#1468,1.);
#858=VECTOR('',#1471,1.);
#859=VECTOR('',#1472,1.);
#860=VECTOR('',#1475,1.);
#861=VECTOR('',#1476,1.);
#862=VECTOR('',#1477,1.);
#863=VECTOR('',#1478,1.);
#864=VECTOR('',#1481,1.);
#865=VECTOR('',#1484,1.);
#866=VECTOR('',#1485,1.);
#867=VECTOR('',#1486,1.);
#868=VECTOR('',#1491,1.);
#869=VECTOR('',#1496,1.);
#870=VECTOR('',#1499,1.);
#871=VECTOR('',#1504,1.);
#872=VECTOR('',#1505,1.);
#873=VECTOR('',#1508,1.);
#874=VECTOR('',#1513,1.);
#875=VECTOR('',#1536,1.);
#876=VECTOR('',#1539,1.);
#877=VECTOR('',#1544,1.);
#878=VECTOR('',#1545,1.);
#879=VECTOR('',#1548,1.);
#880=VECTOR('',#1549,1.);
#881=VECTOR('',#1552,1.);
#882=VECTOR('',#1555,1.);
#883=VECTOR('',#1558,1.);
#884=VECTOR('',#1559,1.);
#885=VECTOR('',#1564,1.);
#886=VECTOR('',#1565,1.);
#887=VECTOR('',#1566,1.);
#888=VECTOR('',#1571,1.);
#889=VECTOR('',#1576,1.);
#890=VECTOR('',#1577,1.);
#891=VECTOR('',#1580,1.);
#892=VECTOR('',#1581,1.);
#893=VECTOR('',#1582,1.);
#894=VECTOR('',#1583,1.);
#895=VECTOR('',#1584,1.);
#896=VECTOR('',#1587,1.);
#897=VECTOR('',#1604,1.);
#898=VECTOR('',#1605,1.);
#899=VECTOR('',#1606,1.);
#900=VECTOR('',#1607,1.);
#901=VECTOR('',#1610,1.);
#902=VECTOR('',#1611,1.);
#903=VECTOR('',#1612,1.);
#904=VECTOR('',#1617,1.);
#905=VECTOR('',#1624,1.);
#906=VECTOR('',#1625,1.);
#907=EDGE_LOOP('',(#100,#101,#102,#103,#104,#105,#106));
#908=EDGE_LOOP('',(#107,#108,#109,#110,#111,#112,#113,#114,#115));
#909=EDGE_LOOP('',(#116,#117,#118));
#910=EDGE_LOOP('',(#119,#120,#121,#122,#123,#124,#125));
#911=EDGE_LOOP('',(#126));
#912=EDGE_LOOP('',(#127));
#913=EDGE_LOOP('',(#128));
#914=EDGE_LOOP('',(#129));
#915=EDGE_LOOP('',(#130));
#916=EDGE_LOOP('',(#131));
#917=EDGE_LOOP('',(#132,#133,#134,#135));
#918=EDGE_LOOP('',(#136,#137,#138,#139));
#919=EDGE_LOOP('',(#140,#141,#142,#143,#144,#145,#146));
#920=EDGE_LOOP('',(#147,#148,#149,#150,#151,#152));
#921=EDGE_LOOP('',(#153,#154,#155,#156,#157,#158,#159));
#922=EDGE_LOOP('',(#160,#161,#162,#163,#164,#165,#166,#167,#168));
#923=EDGE_LOOP('',(#169));
#924=EDGE_LOOP('',(#170));
#925=EDGE_LOOP('',(#171,#172,#173,#174,#175,#176));
#926=EDGE_LOOP('',(#177));
#927=EDGE_LOOP('',(#178));
#928=EDGE_LOOP('',(#179));
#929=EDGE_LOOP('',(#180));
#930=EDGE_LOOP('',(#181,#182,#183,#184,#185,#186,#187,#188));
#931=EDGE_LOOP('',(#189,#190,#191,#192,#193));
#932=EDGE_LOOP('',(#194,#195,#196,#197,#198,#199));
#933=EDGE_LOOP('',(#200,#201,#202,#203));
#934=EDGE_LOOP('',(#204,#205,#206,#207,#208,#209,#210,#211));
#935=EDGE_LOOP('',(#212,#213,#214,#215,#216,#217));
#936=EDGE_LOOP('',(#218,#219,#220,#221,#222));
#937=EDGE_LOOP('',(#223,#224,#225,#226));
#938=EDGE_LOOP('',(#227,#228,#229,#230));
#939=EDGE_LOOP('',(#231,#232,#233,#234,#235));
#940=EDGE_LOOP('',(#236,#237,#238,#239));
#941=EDGE_LOOP('',(#240,#241,#242,#243,#244));
#942=EDGE_LOOP('',(#245,#246,#247,#248));
#943=EDGE_LOOP('',(#249));
#944=EDGE_LOOP('',(#250));
#945=EDGE_LOOP('',(#251));
#946=EDGE_LOOP('',(#252));
#947=EDGE_LOOP('',(#253));
#948=EDGE_LOOP('',(#254));
#949=EDGE_LOOP('',(#255));
#950=EDGE_LOOP('',(#256));
#951=EDGE_LOOP('',(#257));
#952=EDGE_LOOP('',(#258));
#953=EDGE_LOOP('',(#259));
#954=EDGE_LOOP('',(#260));
#955=EDGE_LOOP('',(#261));
#956=EDGE_LOOP('',(#262,#263,#264,#265));
#957=EDGE_LOOP('',(#266,#267,#268,#269));
#958=EDGE_LOOP('',(#270,#271,#272,#273));
#959=EDGE_LOOP('',(#274,#275,#276,#277,#278));
#960=EDGE_LOOP('',(#279));
#961=EDGE_LOOP('',(#280,#281,#282,#283,#284));
#962=EDGE_LOOP('',(#285,#286,#287,#288));
#963=EDGE_LOOP('',(#289,#290,#291,#292,#293,#294));
#964=EDGE_LOOP('',(#295,#296,#297,#298));
#965=EDGE_LOOP('',(#299,#300,#301,#302,#303,#304));
#966=EDGE_LOOP('',(#305,#306,#307,#308));
#967=EDGE_LOOP('',(#309));
#968=EDGE_LOOP('',(#310));
#969=EDGE_LOOP('',(#311));
#970=EDGE_LOOP('',(#312,#313,#314,#315,#316,#317));
#971=EDGE_LOOP('',(#318,#319,#320,#321));
#972=EDGE_LOOP('',(#322,#323,#324,#325,#326,#327));
#973=EDGE_LOOP('',(#328,#329,#330,#331,#332));
#974=EDGE_LOOP('',(#333,#334,#335,#336));
#975=EDGE_LOOP('',(#337,#338,#339,#340));
#976=EDGE_LOOP('',(#341,#342,#343,#344));
#977=EDGE_LOOP('',(#345,#346,#347,#348,#349,#350,#351,#352,#353,#354));
#978=EDGE_LOOP('',(#355,#356,#357,#358,#359,#360,#361,#362,#363,#364,#365,
#366,#367));
#979=EDGE_LOOP('',(#368,#369,#370,#371));
#980=EDGE_LOOP('',(#372,#373,#374,#375,#376,#377));
#981=EDGE_LOOP('',(#378,#379,#380,#381));
#982=EDGE_LOOP('',(#382,#383,#384,#385,#386,#387));
#983=EDGE_LOOP('',(#388,#389,#390,#391));
#984=EDGE_LOOP('',(#392,#393,#394,#395));
#985=EDGE_LOOP('',(#396,#397,#398,#399));
#986=EDGE_LOOP('',(#400,#401,#402,#403,#404,#405,#406,#407));
#987=EDGE_LOOP('',(#408,#409,#410,#411));
#988=EDGE_LOOP('',(#412,#413,#414,#415));
#989=EDGE_LOOP('',(#416,#417,#418,#419));
#990=EDGE_LOOP('',(#420));
#991=EDGE_LOOP('',(#421));
#992=EDGE_LOOP('',(#422));
#993=EDGE_LOOP('',(#423,#424,#425,#426,#427));
#994=FACE_BOUND('',#907,.T.);
#995=FACE_BOUND('',#908,.T.);
#996=FACE_BOUND('',#909,.T.);
#997=FACE_BOUND('',#910,.T.);
#998=FACE_BOUND('',#911,.T.);
#999=FACE_BOUND('',#912,.T.);
#1000=FACE_BOUND('',#913,.T.);
#1001=FACE_BOUND('',#914,.T.);
#1002=FACE_BOUND('',#915,.T.);
#1003=FACE_BOUND('',#916,.T.);
#1004=FACE_BOUND('',#917,.T.);
#1005=FACE_BOUND('',#918,.T.);
#1006=FACE_BOUND('',#919,.T.);
#1007=FACE_BOUND('',#920,.T.);
#1008=FACE_BOUND('',#921,.T.);
#1009=FACE_BOUND('',#922,.T.);
#1010=FACE_BOUND('',#923,.T.);
#1011=FACE_BOUND('',#924,.T.);
#1012=FACE_BOUND('',#925,.T.);
#1013=FACE_BOUND('',#926,.T.);
#1014=FACE_BOUND('',#927,.T.);
#1015=FACE_BOUND('',#928,.T.);
#1016=FACE_BOUND('',#929,.T.);
#1017=FACE_BOUND('',#930,.T.);
#1018=FACE_BOUND('',#931,.T.);
#1019=FACE_BOUND('',#932,.T.);
#1020=FACE_BOUND('',#933,.T.);
#1021=FACE_BOUND('',#934,.T.);
#1022=FACE_BOUND('',#935,.T.);
#1023=FACE_BOUND('',#936,.T.);
#1024=FACE_BOUND('',#937,.T.);
#1025=FACE_BOUND('',#938,.T.);
#1026=FACE_BOUND('',#939,.T.);
#1027=FACE_BOUND('',#940,.T.);
#1028=FACE_BOUND('',#941,.T.);
#1029=FACE_BOUND('',#942,.T.);
#1030=FACE_BOUND('',#943,.T.);
#1031=FACE_BOUND('',#944,.T.);
#1032=FACE_BOUND('',#945,.T.);
#1033=FACE_BOUND('',#946,.T.);
#1034=FACE_BOUND('',#947,.T.);
#1035=FACE_BOUND('',#948,.T.);
#1036=FACE_BOUND('',#949,.T.);
#1037=FACE_BOUND('',#950,.T.);
#1038=FACE_BOUND('',#951,.T.);
#1039=FACE_BOUND('',#952,.T.);
#1040=FACE_BOUND('',#953,.T.);
#1041=FACE_BOUND('',#954,.T.);
#1042=FACE_BOUND('',#955,.T.);
#1043=FACE_BOUND('',#956,.T.);
#1044=FACE_BOUND('',#957,.T.);
#1045=FACE_BOUND('',#958,.T.);
#1046=FACE_BOUND('',#959,.T.);
#1047=FACE_BOUND('',#960,.T.);
#1048=FACE_BOUND('',#961,.T.);
#1049=FACE_BOUND('',#962,.T.);
#1050=FACE_BOUND('',#963,.T.);
#1051=FACE_BOUND('',#964,.T.);
#1052=FACE_BOUND('',#965,.T.);
#1053=FACE_BOUND('',#966,.T.);
#1054=FACE_BOUND('',#967,.T.);
#1055=FACE_BOUND('',#968,.T.);
#1056=FACE_BOUND('',#969,.T.);
#1057=FACE_BOUND('',#970,.T.);
#1058=FACE_BOUND('',#971,.T.);
#1059=FACE_BOUND('',#972,.T.);
#1060=FACE_BOUND('',#973,.T.);
#1061=FACE_BOUND('',#974,.T.);
#1062=FACE_BOUND('',#975,.T.);
#1063=FACE_BOUND('',#976,.T.);
#1064=FACE_BOUND('',#977,.T.);
#1065=FACE_BOUND('',#978,.T.);
#1066=FACE_BOUND('',#979,.T.);
#1067=FACE_BOUND('',#980,.T.);
#1068=FACE_BOUND('',#981,.T.);
#1069=FACE_BOUND('',#982,.T.);
#1070=FACE_BOUND('',#983,.T.);
#1071=FACE_BOUND('',#984,.T.);
#1072=FACE_BOUND('',#985,.T.);
#1073=FACE_BOUND('',#986,.T.);
#1074=FACE_BOUND('',#987,.T.);
#1075=FACE_BOUND('',#988,.T.);
#1076=FACE_BOUND('',#989,.T.);
#1077=FACE_BOUND('',#990,.T.);
#1078=FACE_BOUND('',#991,.T.);
#1079=FACE_BOUND('',#992,.T.);
#1080=FACE_BOUND('',#993,.T.);
#1081=PLANE('',#1193);
#1082=PLANE('',#1194);
#1083=PLANE('',#1197);
#1084=PLANE('',#1213);
#1085=PLANE('',#1217);
#1086=PLANE('',#1223);
#1087=PLANE('',#1226);
#1088=PLANE('',#1231);
#1089=PLANE('',#1232);
#1090=PLANE('',#1238);
#1091=PLANE('',#1241);
#1092=PLANE('',#1243);
#1093=PLANE('',#1244);
#1094=PLANE('',#1246);
#1095=PLANE('',#1247);
#1096=PLANE('',#1253);
#1097=PLANE('',#1256);
#1098=PLANE('',#1257);
#1099=PLANE('',#1267);
#1100=PLANE('',#1268);
#1101=PLANE('',#1270);
#1102=PLANE('',#1271);
#1103=PLANE('',#1272);
#1104=PLANE('',#1273);
#1105=PLANE('',#1276);
#1106=PLANE('',#1277);
#1107=PLANE('',#1280);
#1108=PLANE('',#1281);
#1109=PLANE('',#1282);
#1110=PLANE('',#1283);
#1111=PLANE('',#1290);
#1112=PLANE('',#1291);
#1113=PLANE('',#1292);
#1114=PLANE('',#1295);
#1115=PLANE('',#1297);
#1116=PLANE('',#1312);
#1117=ADVANCED_FACE('',(#994),#1081,.T.);
#1118=ADVANCED_FACE('',(#995),#1082,.T.);
#1119=ADVANCED_FACE('',(#996),#1083,.T.);
#1120=ADVANCED_FACE('',(#997),#59,.T.);
#1121=ADVANCED_FACE('',(#998,#999),#60,.F.);
#1122=ADVANCED_FACE('',(#1000,#1001),#61,.F.);
#1123=ADVANCED_FACE('',(#1002,#1003),#62,.F.);
#1124=ADVANCED_FACE('',(#1004),#1084,.T.);
#1125=ADVANCED_FACE('',(#1005),#63,.T.);
#1126=ADVANCED_FACE('',(#1006),#1085,.T.);
#1127=ADVANCED_FACE('',(#1007),#64,.T.);
#1128=ADVANCED_FACE('',(#1008),#1086,.T.);
#1129=ADVANCED_FACE('',(#1009),#1087,.F.);
#1130=ADVANCED_FACE('',(#1010,#1011),#65,.F.);
#1131=ADVANCED_FACE('',(#1012),#1088,.T.);
#1132=ADVANCED_FACE('',(#1013,#1014,#1015,#1016,#1017),#1089,.F.);
#1133=ADVANCED_FACE('',(#1018),#1090,.T.);
#1134=ADVANCED_FACE('',(#1019),#1091,.T.);
#1135=ADVANCED_FACE('',(#1020),#1092,.F.);
#1136=ADVANCED_FACE('',(#1021),#1093,.T.);
#1137=ADVANCED_FACE('',(#1022),#1094,.F.);
#1138=ADVANCED_FACE('',(#1023),#1095,.T.);
#1139=ADVANCED_FACE('',(#1024),#66,.F.);
#1140=ADVANCED_FACE('',(#1025),#67,.F.);
#1141=ADVANCED_FACE('',(#1026),#1096,.F.);
#1142=ADVANCED_FACE('',(#1027),#68,.F.);
#1143=ADVANCED_FACE('',(#1028),#1097,.T.);
#1144=ADVANCED_FACE('',(#1029,#1030,#1031,#1032,#1033,#1034),#1098,.T.);
#1145=ADVANCED_FACE('',(#1035,#1036),#69,.F.);
#1146=ADVANCED_FACE('',(#1037,#1038),#70,.F.);
#1147=ADVANCED_FACE('',(#1039,#1040),#71,.F.);
#1148=ADVANCED_FACE('',(#1041,#1042),#72,.F.);
#1149=ADVANCED_FACE('',(#1043),#1099,.T.);
#1150=ADVANCED_FACE('',(#1044),#1100,.F.);
#1151=ADVANCED_FACE('',(#1045),#73,.F.);
#1152=ADVANCED_FACE('',(#1046,#1047),#1101,.T.);
#1153=ADVANCED_FACE('',(#1048),#1102,.F.);
#1154=ADVANCED_FACE('',(#1049),#1103,.T.);
#1155=ADVANCED_FACE('',(#1050),#1104,.T.);
#1156=ADVANCED_FACE('',(#1051),#1105,.F.);
#1157=ADVANCED_FACE('',(#1052),#1106,.F.);
#1158=ADVANCED_FACE('',(#1053),#1107,.T.);
#1159=ADVANCED_FACE('',(#1054,#1055,#1056,#1057),#1108,.T.);
#1160=ADVANCED_FACE('',(#1058),#1109,.F.);
#1161=ADVANCED_FACE('',(#1059),#1110,.F.);
#1162=ADVANCED_FACE('',(#1060),#74,.T.);
#1163=ADVANCED_FACE('',(#1061),#75,.T.);
#1164=ADVANCED_FACE('',(#1062),#1111,.F.);
#1165=ADVANCED_FACE('',(#1063),#1112,.T.);
#1166=ADVANCED_FACE('',(#1064),#1113,.T.);
#1167=ADVANCED_FACE('',(#1065),#1114,.F.);
#1168=ADVANCED_FACE('',(#1066),#1115,.T.);
#1169=ADVANCED_FACE('',(#1067),#76,.T.);
#1170=ADVANCED_FACE('',(#1068),#77,.T.);
#1171=ADVANCED_FACE('',(#1069),#78,.T.);
#1172=ADVANCED_FACE('',(#1070),#14,.T.);
#1173=ADVANCED_FACE('',(#1071),#79,.T.);
#1174=ADVANCED_FACE('',(#1072),#15,.T.);
#1175=ADVANCED_FACE('',(#1073),#80,.T.);
#1176=ADVANCED_FACE('',(#1074),#12,.T.);
#1177=ADVANCED_FACE('',(#1075),#81,.T.);
#1178=ADVANCED_FACE('',(#1076),#13,.T.);
#1179=ADVANCED_FACE('',(#1077,#1078,#1079,#1080),#1116,.T.);
#1180=CLOSED_SHELL('',(#1117,#1118,#1119,#1120,#1121,#1122,#1123,#1124,
#1125,#1126,#1127,#1128,#1129,#1130,#1131,#1132,#1133,#1134,#1135,#1136,
#1137,#1138,#1139,#1140,#1141,#1142,#1143,#1144,#1145,#1146,#1147,#1148,
#1149,#1150,#1151,#1152,#1153,#1154,#1155,#1156,#1157,#1158,#1159,#1160,
#1161,#1162,#1163,#1164,#1165,#1166,#1167,#1168,#1169,#1170,#1171,#1172,
#1173,#1174,#1175,#1176,#1177,#1178,#1179));
#1181=STYLED_ITEM('',(#1182),#1189);
#1182=PRESENTATION_STYLE_ASSIGNMENT((#1183));
#1183=SURFACE_STYLE_USAGE(.BOTH.,#1184);
#1184=SURFACE_SIDE_STYLE('',(#1185));
#1185=SURFACE_STYLE_FILL_AREA(#1186);
#1186=FILL_AREA_STYLE('',(#1187));
#1187=FILL_AREA_STYLE_COLOUR('',#1188);
#1188=COLOUR_RGB('',0.513725490196078,0.737254901960784,0.407843137254902);
#1189=MANIFOLD_SOLID_BREP('Part 1',#1180);
#1190=SHAPE_DEFINITION_REPRESENTATION(#2037,#1191);
#1191=SHAPE_REPRESENTATION('Part 1',(#1192),#2032);
#1192=AXIS2_PLACEMENT_3D('',#1658,#1313,#1314);
#1193=AXIS2_PLACEMENT_3D('',#1659,#1315,#1316);
#1194=AXIS2_PLACEMENT_3D('',#1674,#1324,#1325);
#1195=AXIS2_PLACEMENT_3D('',#1682,#1329,#1330);
#1196=AXIS2_PLACEMENT_3D('',#1690,#1334,#1335);
#1197=AXIS2_PLACEMENT_3D('',#1693,#1337,#1338);
#1198=AXIS2_PLACEMENT_3D('',#1697,#1341,#1342);
#1199=AXIS2_PLACEMENT_3D('',#1698,#1343,#1344);
#1200=AXIS2_PLACEMENT_3D('',#1701,#1345,#1346);
#1201=AXIS2_PLACEMENT_3D('',#1702,#1347,#1348);
#1202=AXIS2_PLACEMENT_3D('',#1704,#1349,#1350);
#1203=AXIS2_PLACEMENT_3D('',#1708,#1352,#1353);
#1204=AXIS2_PLACEMENT_3D('',#1709,#1354,#1355);
#1205=AXIS2_PLACEMENT_3D('',#1710,#1356,#1357);
#1206=AXIS2_PLACEMENT_3D('',#1712,#1358,#1359);
#1207=AXIS2_PLACEMENT_3D('',#1714,#1360,#1361);
#1208=AXIS2_PLACEMENT_3D('',#1715,#1362,#1363);
#1209=AXIS2_PLACEMENT_3D('',#1717,#1364,#1365);
#1210=AXIS2_PLACEMENT_3D('',#1719,#1366,#1367);
#1211=AXIS2_PLACEMENT_3D('',#1720,#1368,#1369);
#1212=AXIS2_PLACEMENT_3D('',#1722,#1370,#1371);
#1213=AXIS2_PLACEMENT_3D('',#1724,#1372,#1373);
#1214=AXIS2_PLACEMENT_3D('',#1730,#1376,#1377);
#1215=AXIS2_PLACEMENT_3D('',#1733,#1379,#1380);
#1216=AXIS2_PLACEMENT_3D('',#1736,#1382,#1383);
#1217=AXIS2_PLACEMENT_3D('',#1737,#1384,#1385);
#1218=AXIS2_PLACEMENT_3D('',#1745,#1389,#1390);
#1219=AXIS2_PLACEMENT_3D('',#1749,#1392,#1393);
#1220=AXIS2_PLACEMENT_3D('',#1752,#1395,#1396);
#1221=AXIS2_PLACEMENT_3D('',#1755,#1398,#1399);
#1222=AXIS2_PLACEMENT_3D('',#1759,#1401,#1402);
#1223=AXIS2_PLACEMENT_3D('',#1762,#1404,#1405);
#1224=AXIS2_PLACEMENT_3D('',#1772,#1410,#1411);
#1225=AXIS2_PLACEMENT_3D('',#1776,#1413,#1414);
#1226=AXIS2_PLACEMENT_3D('',#1777,#1415,#1416);
#1227=AXIS2_PLACEMENT_3D('',#1785,#1421,#1422);
#1228=AXIS2_PLACEMENT_3D('',#1790,#1425,#1426);
#1229=AXIS2_PLACEMENT_3D('',#1791,#1427,#1428);
#1230=AXIS2_PLACEMENT_3D('',#1793,#1429,#1430);
#1231=AXIS2_PLACEMENT_3D('',#1795,#1431,#1432);
#1232=AXIS2_PLACEMENT_3D('',#1803,#1437,#1438);
#1233=AXIS2_PLACEMENT_3D('',#1804,#1439,#1440);
#1234=AXIS2_PLACEMENT_3D('',#1806,#1441,#1442);
#1235=AXIS2_PLACEMENT_3D('',#1808,#1443,#1444);
#1236=AXIS2_PLACEMENT_3D('',#1810,#1445,#1446);
#1237=AXIS2_PLACEMENT_3D('',#1820,#1451,#1452);
#1238=AXIS2_PLACEMENT_3D('',#1821,#1453,#1454);
#1239=AXIS2_PLACEMENT_3D('',#1825,#1456,#1457);
#1240=AXIS2_PLACEMENT_3D('',#1831,#1460,#1461);
#1241=AXIS2_PLACEMENT_3D('',#1832,#1462,#1463);
#1242=AXIS2_PLACEMENT_3D('',#1835,#1465,#1466);
#1243=AXIS2_PLACEMENT_3D('',#1839,#1469,#1470);
#1244=AXIS2_PLACEMENT_3D('',#1843,#1473,#1474);
#1245=AXIS2_PLACEMENT_3D('',#1851,#1479,#1480);
#1246=AXIS2_PLACEMENT_3D('',#1854,#1482,#1483);
#1247=AXIS2_PLACEMENT_3D('',#1860,#1487,#1488);
#1248=AXIS2_PLACEMENT_3D('',#1861,#1489,#1490);
#1249=AXIS2_PLACEMENT_3D('',#1864,#1492,#1493);
#1250=AXIS2_PLACEMENT_3D('',#1865,#1494,#1495);
#1251=AXIS2_PLACEMENT_3D('',#1868,#1497,#1498);
#1252=AXIS2_PLACEMENT_3D('',#1871,#1500,#1501);
#1253=AXIS2_PLACEMENT_3D('',#1872,#1502,#1503);
#1254=AXIS2_PLACEMENT_3D('',#1876,#1506,#1507);
#1255=AXIS2_PLACEMENT_3D('',#1879,#1509,#1510);
#1256=AXIS2_PLACEMENT_3D('',#1880,#1511,#1512);
#1257=AXIS2_PLACEMENT_3D('',#1882,#1514,#1515);
#1258=AXIS2_PLACEMENT_3D('',#1883,#1516,#1517);
#1259=AXIS2_PLACEMENT_3D('',#1884,#1518,#1519);
#1260=AXIS2_PLACEMENT_3D('',#1886,#1520,#1521);
#1261=AXIS2_PLACEMENT_3D('',#1888,#1522,#1523);
#1262=AXIS2_PLACEMENT_3D('',#1890,#1524,#1525);
#1263=AXIS2_PLACEMENT_3D('',#1892,#1526,#1527);
#1264=AXIS2_PLACEMENT_3D('',#1893,#1528,#1529);
#1265=AXIS2_PLACEMENT_3D('',#1894,#1530,#1531);
#1266=AXIS2_PLACEMENT_3D('',#1895,#1532,#1533);
#1267=AXIS2_PLACEMENT_3D('',#1896,#1534,#1535);
#1268=AXIS2_PLACEMENT_3D('',#1898,#1537,#1538);
#1269=AXIS2_PLACEMENT_3D('',#1900,#1540,#1541);
#1270=AXIS2_PLACEMENT_3D('',#1901,#1542,#1543);
#1271=AXIS2_PLACEMENT_3D('',#1904,#1546,#1547);
#1272=AXIS2_PLACEMENT_3D('',#1908,#1550,#1551);
#1273=AXIS2_PLACEMENT_3D('',#1910,#1553,#1554);
#1274=AXIS2_PLACEMENT_3D('',#1913,#1556,#1557);
#1275=AXIS2_PLACEMENT_3D('',#1919,#1560,#1561);
#1276=AXIS2_PLACEMENT_3D('',#1920,#1562,#1563);
#1277=AXIS2_PLACEMENT_3D('',#1925,#1567,#1568);
#1278=AXIS2_PLACEMENT_3D('',#1926,#1569,#1570);
#1279=AXIS2_PLACEMENT_3D('',#1929,#1572,#1573);
#1280=AXIS2_PLACEMENT_3D('',#1930,#1574,#1575);
#1281=AXIS2_PLACEMENT_3D('',#1933,#1578,#1579);
#1282=AXIS2_PLACEMENT_3D('',#1943,#1585,#1586);
#1283=AXIS2_PLACEMENT_3D('',#1945,#1588,#1589);
#1284=AXIS2_PLACEMENT_3D('',#1946,#1590,#1591);
#1285=AXIS2_PLACEMENT_3D('',#1947,#1592,#1593);
#1286=AXIS2_PLACEMENT_3D('',#1948,#1594,#1595);
#1287=AXIS2_PLACEMENT_3D('',#1949,#1596,#1597);
#1288=AXIS2_PLACEMENT_3D('',#1950,#1598,#1599);
#1289=AXIS2_PLACEMENT_3D('',#1951,#1600,#1601);
#1290=AXIS2_PLACEMENT_3D('',#1952,#1602,#1603);
#1291=AXIS2_PLACEMENT_3D('',#1961,#1608,#1609);
#1292=AXIS2_PLACEMENT_3D('',#1967,#1613,#1614);
#1293=AXIS2_PLACEMENT_3D('',#1973,#1615,#1616);
#1294=AXIS2_PLACEMENT_3D('',#1975,#1618,#1619);
#1295=AXIS2_PLACEMENT_3D('',#1976,#1620,#1621);
#1296=AXIS2_PLACEMENT_3D('',#1982,#1622,#1623);
#1297=AXIS2_PLACEMENT_3D('',#1985,#1626,#1627);
#1298=AXIS2_PLACEMENT_3D('',#1986,#1628,#1629);
#1299=AXIS2_PLACEMENT_3D('',#1987,#1630,#1631);
#1300=AXIS2_PLACEMENT_3D('',#1988,#1632,#1633);
#1301=AXIS2_PLACEMENT_3D('',#2004,#1634,#1635);
#1302=AXIS2_PLACEMENT_3D('',#2005,#1636,#1637);
#1303=AXIS2_PLACEMENT_3D('',#2006,#1638,#1639);
#1304=AXIS2_PLACEMENT_3D('',#2022,#1640,#1641);
#1305=AXIS2_PLACEMENT_3D('',#2023,#1642,#1643);
#1306=AXIS2_PLACEMENT_3D('',#2024,#1644,#1645);
#1307=AXIS2_PLACEMENT_3D('',#2025,#1646,#1647);
#1308=AXIS2_PLACEMENT_3D('',#2026,#1648,#1649);
#1309=AXIS2_PLACEMENT_3D('',#2027,#1650,#1651);
#1310=AXIS2_PLACEMENT_3D('',#2028,#1652,#1653);
#1311=AXIS2_PLACEMENT_3D('',#2029,#1654,#1655);
#1312=AXIS2_PLACEMENT_3D('',#2030,#1656,#1657);
#1313=DIRECTION('',(0.,0.,1.));
#1314=DIRECTION('',(1.,0.,0.));
#1315=DIRECTION('',(0.,0.,1.));
#1316=DIRECTION('',(1.,0.,0.));
#1317=DIRECTION('',(-0.98058067569092,-0.196116135138184,0.));
#1318=DIRECTION('',(-1.,-1.15648231731787E-16,0.));
#1319=DIRECTION('',(0.,-1.,0.));
#1320=DIRECTION('',(1.,0.,0.));
#1321=DIRECTION('',(0.,-1.,0.));
#1322=DIRECTION('',(1.,0.,0.));
#1323=DIRECTION('',(0.,-1.,0.));
#1324=DIRECTION('',(-0.228191322789329,0.973616310567801,1.05559691908493E-16));
#1325=DIRECTION('',(-0.973616310567801,-0.228191322789329,0.));
#1326=DIRECTION('',(-4.62592926927148E-16,-5.34980540107565E-32,-1.));
#1327=DIRECTION('',(0.973616310567801,0.228191322789329,0.));
#1328=DIRECTION('',(-0.853940796185373,-0.200142374105947,0.480341697854273));
#1329=DIRECTION('',(-0.228191322789329,0.973616310567801,1.05559691908493E-16));
#1330=DIRECTION('',(0.973616310567801,0.228191322789329,4.99869124391676E-16));
#1331=DIRECTION('',(0.,1.0842021724855E-16,-1.));
#1332=DIRECTION('',(-0.97181872526237,-0.227770013733368,0.0607386703288983));
#1333=DIRECTION('',(0.,-3.46944695195362E-16,-1.));
#1334=DIRECTION('',(-0.228191322789329,0.973616310567801,1.05559691908493E-16));
#1335=DIRECTION('',(0.973616310567801,0.228191322789329,4.99869124391676E-16));
#1336=DIRECTION('',(-0.853940796185373,-0.200142374105947,0.480341697854273));
#1337=DIRECTION('',(-0.490261239632559,1.88992818167131E-16,-0.871575537124549));
#1338=DIRECTION('',(-0.871575537124549,0.,0.490261239632559));
#1339=DIRECTION('',(0.871575537124549,1.00796169689137E-16,-0.490261239632559));
#1340=DIRECTION('',(1.34287474059485E-33,1.,2.16840434497101E-16));
#1341=DIRECTION('',(-0.98058067569092,-0.196116135138184,0.));
#1342=DIRECTION('',(0.196116135138184,-0.98058067569092,0.));
#1343=DIRECTION('',(0.,-1.,0.));
#1344=DIRECTION('',(-1.,0.,0.));
#1345=DIRECTION('',(-1.15648231731787E-16,1.,0.));
#1346=DIRECTION('',(-1.,-1.15648231731787E-16,0.));
#1347=DIRECTION('',(-1.,0.,0.));
#1348=DIRECTION('',(0.,-1.,0.));
#1349=DIRECTION('',(0.,-1.,0.));
#1350=DIRECTION('',(-1.,0.,0.));
#1351=DIRECTION('',(-0.98058067569092,-0.196116135138184,0.));
#1352=DIRECTION('',(-0.998823833424237,-0.0484865938555455,0.));
#1353=DIRECTION('',(0.0484865938555455,-0.998823833424237,0.));
#1354=DIRECTION('',(0.,0.,1.));
#1355=DIRECTION('',(1.,0.,0.));
#1356=DIRECTION('',(-0.490261239632559,1.88992818167131E-16,-0.871575537124549));
#1357=DIRECTION('',(-0.871575537124549,3.35987232297122E-16,0.490261239632559));
#1358=DIRECTION('',(0.,0.,1.));
#1359=DIRECTION('',(1.,0.,0.));
#1360=DIRECTION('',(0.,0.,1.));
#1361=DIRECTION('',(1.,0.,0.));
#1362=DIRECTION('',(-0.490261239632559,1.88992818167131E-16,-0.871575537124549));
#1363=DIRECTION('',(-0.871575537124549,3.35987232297122E-16,0.490261239632559));
#1364=DIRECTION('',(0.,0.,1.));
#1365=DIRECTION('',(1.,0.,0.));
#1366=DIRECTION('',(0.,0.,1.));
#1367=DIRECTION('',(1.,0.,0.));
#1368=DIRECTION('',(-0.490261239632559,1.88992818167131E-16,-0.871575537124549));
#1369=DIRECTION('',(-0.871575537124549,3.35987232297122E-16,0.490261239632559));
#1370=DIRECTION('',(0.,0.,1.));
#1371=DIRECTION('',(1.,0.,0.));
#1372=DIRECTION('',(-1.,0.,0.));
#1373=DIRECTION('',(0.,0.,1.));
#1374=DIRECTION('',(0.,-1.,-2.16840434497101E-16));
#1375=DIRECTION('',(0.,0.,1.));
#1376=DIRECTION('',(-1.,0.,0.));
#1377=DIRECTION('',(0.,0.,1.));
#1378=DIRECTION('',(0.,-8.67361737988404E-17,-1.));
#1379=DIRECTION('',(0.,1.,2.16840434497101E-16));
#1380=DIRECTION('',(0.,-2.16840434497101E-16,1.));
#1381=DIRECTION('',(0.,-1.,-2.16840434497101E-16));
#1382=DIRECTION('',(-1.15648231731787E-16,1.,0.));
#1383=DIRECTION('',(-1.,-1.15648231731787E-16,0.));
#1384=DIRECTION('',(1.,0.,0.));
#1385=DIRECTION('',(0.,0.,-1.));
#1386=DIRECTION('',(0.,1.0842021724855E-16,-1.));
#1387=DIRECTION('',(0.,-1.,0.));
#1388=DIRECTION('',(1.92747052886312E-16,0.,-1.));
#1389=DIRECTION('',(1.,0.,0.));
#1390=DIRECTION('',(0.,-1.,0.));
#1391=DIRECTION('',(0.,0.,-1.));
#1392=DIRECTION('',(1.,0.,0.));
#1393=DIRECTION('',(0.,1.,0.));
#1394=DIRECTION('',(0.,-1.,0.));
#1395=DIRECTION('',(1.,6.93889390390723E-17,0.));
#1396=DIRECTION('',(-6.93889390390723E-17,1.,0.));
#1397=DIRECTION('',(1.,6.93889390390723E-17,0.));
#1398=DIRECTION('',(1.,0.,0.));
#1399=DIRECTION('',(0.,0.,-1.));
#1400=DIRECTION('',(-1.,-6.93889390390723E-17,0.));
#1401=DIRECTION('',(1.,0.,0.));
#1402=DIRECTION('',(0.,0.,-1.));
#1403=DIRECTION('',(1.,6.93889390390723E-17,0.));
#1404=DIRECTION('',(1.,0.,0.));
#1405=DIRECTION('',(0.,0.,-1.));
#1406=DIRECTION('',(1.92747052886312E-16,0.,-1.));
#1407=DIRECTION('',(0.,-1.,0.));
#1408=DIRECTION('',(0.,1.0842021724855E-16,-1.));
#1409=DIRECTION('',(0.,-1.,0.));
#1410=DIRECTION('',(1.,0.,0.));
#1411=DIRECTION('',(0.,0.,-1.));
#1412=DIRECTION('',(0.,0.,-1.));
#1413=DIRECTION('',(1.,0.,0.));
#1414=DIRECTION('',(0.,0.,-1.));
#1415=DIRECTION('',(1.,0.,0.));
#1416=DIRECTION('',(0.,0.,-1.));
#1417=DIRECTION('',(0.,-3.46944695195362E-16,-1.));
#1418=DIRECTION('',(0.,1.,-1.7347234759768E-16));
#1419=DIRECTION('',(0.,-2.60208521396521E-16,-1.));
#1420=DIRECTION('',(0.,0.,-1.));
#1421=DIRECTION('',(1.,0.,0.));
#1422=DIRECTION('',(0.,0.,-1.));
#1423=DIRECTION('',(0.,-1.,0.));
#1424=DIRECTION('',(0.,-3.09772049281573E-16,-1.));
#1425=DIRECTION('',(0.,-1.,0.));
#1426=DIRECTION('',(0.,0.,-1.));
#1427=DIRECTION('',(0.,-1.,0.));
#1428=DIRECTION('',(0.,0.,-1.));
#1429=DIRECTION('',(0.,1.,-3.46944695195362E-16));
#1430=DIRECTION('',(0.,3.46944695195362E-16,1.));
#1431=DIRECTION('',(-1.,0.,0.));
#1432=DIRECTION('',(0.,-1.,0.));
#1433=DIRECTION('',(0.,0.,-1.));
#1434=DIRECTION('',(0.,-3.09772049281573E-16,-1.));
#1435=DIRECTION('',(0.,-1.,0.));
#1436=DIRECTION('',(0.,-1.,0.));
#1437=DIRECTION('',(0.,-1.,3.09772049281573E-16));
#1438=DIRECTION('',(0.,-3.09772049281573E-16,-1.));
#1439=DIRECTION('',(0.,-1.,3.09772049281573E-16));
#1440=DIRECTION('',(0.,-3.09772049281573E-16,-1.));
#1441=DIRECTION('',(0.,-1.,3.09772049281573E-16));
#1442=DIRECTION('',(0.,-3.09772049281573E-16,-1.));
#1443=DIRECTION('',(0.,-1.,3.09772049281573E-16));
#1444=DIRECTION('',(0.,-3.09772049281573E-16,-1.));
#1445=DIRECTION('',(0.,-1.,3.09772049281573E-16));
#1446=DIRECTION('',(0.,-3.09772049281573E-16,-1.));
#1447=DIRECTION('',(0.997412521776332,-2.22697050257941E-17,-0.0718906211113697));
#1448=DIRECTION('',(1.,0.,0.));
#1449=DIRECTION('',(0.,-3.09772049281573E-16,-1.));
#1450=DIRECTION('',(0.997412521776332,2.2269705025794E-17,0.0718906211113696));
#1451=DIRECTION('',(0.,-1.,3.09772049281573E-16));
#1452=DIRECTION('',(0.,-3.09772049281573E-16,-1.));
#1453=DIRECTION('',(0.,-1.,0.));
#1454=DIRECTION('',(0.,0.,-1.));
#1455=DIRECTION('',(0.,0.,-1.));
#1456=DIRECTION('',(0.,-1.,0.));
#1457=DIRECTION('',(1.,0.,0.));
#1458=DIRECTION('',(0.,0.,-1.));
#1459=DIRECTION('',(0.997412521776332,0.,0.0718906211113694));
#1460=DIRECTION('',(0.,-1.,0.));
#1461=DIRECTION('',(0.,0.,-1.));
#1462=DIRECTION('',(-1.,0.,0.));
#1463=DIRECTION('',(0.,-1.,0.));
#1464=DIRECTION('',(0.,-1.,0.));
#1465=DIRECTION('',(-1.,0.,0.));
#1466=DIRECTION('',(0.,1.,0.));
#1467=DIRECTION('',(0.,-1.,0.));
#1468=DIRECTION('',(0.,-1.,0.));
#1469=DIRECTION('',(6.93889390390723E-17,-1.,0.));
#1470=DIRECTION('',(1.,6.93889390390723E-17,0.));
#1471=DIRECTION('',(0.,0.,-1.));
#1472=DIRECTION('',(-1.,-6.93889390390723E-17,0.));
#1473=DIRECTION('',(0.196116135138184,-0.98058067569092,0.));
#1474=DIRECTION('',(0.98058067569092,0.196116135138184,0.));
#1475=DIRECTION('',(-0.98058067569092,-0.196116135138184,0.));
#1476=DIRECTION('',(0.,0.,-1.));
#1477=DIRECTION('',(0.,0.,-1.));
#1478=DIRECTION('',(0.978140666428718,0.195628133285743,-0.0705015612984437));
#1479=DIRECTION('',(0.196116135138184,-0.98058067569092,0.));
#1480=DIRECTION('',(-0.98058067569092,-0.196116135138184,0.));
#1481=DIRECTION('',(0.978140666428718,0.195628133285743,0.0705015612984437));
#1482=DIRECTION('',(0.,0.,1.));
#1483=DIRECTION('',(1.,0.,0.));
#1484=DIRECTION('',(-1.,-6.93889390390723E-17,0.));
#1485=DIRECTION('',(0.,-1.,0.));
#1486=DIRECTION('',(-0.98058067569092,-0.196116135138184,0.));
#1487=DIRECTION('',(0.,-1.,0.));
#1488=DIRECTION('',(0.,0.,-1.));
#1489=DIRECTION('',(0.,-1.,0.));
#1490=DIRECTION('',(0.,0.,-1.));
#1491=DIRECTION('',(0.997412521776332,0.,-0.0718906211113694));
#1492=DIRECTION('',(0.,-1.,0.));
#1493=DIRECTION('',(0.,0.,-1.));
#1494=DIRECTION('',(0.,-1.,0.));
#1495=DIRECTION('',(0.,0.,-1.));
#1496=DIRECTION('',(0.,-1.,0.));
#1497=DIRECTION('',(0.,-1.,0.));
#1498=DIRECTION('',(0.,0.,-1.));
#1499=DIRECTION('',(0.,-1.,0.));
#1500=DIRECTION('',(0.,-1.,0.));
#1501=DIRECTION('',(0.,0.,-1.));
#1502=DIRECTION('',(0.0718906211113694,0.,-0.997412521776332));
#1503=DIRECTION('',(-0.997412521776332,0.,-0.0718906211113694));
#1504=DIRECTION('',(0.,-1.,0.));
#1505=DIRECTION('',(0.997412521776332,0.,0.0718906211113694));
#1506=DIRECTION('',(0.,-1.,0.));
#1507=DIRECTION('',(0.,0.,-1.));
#1508=DIRECTION('',(0.,-1.,0.));
#1509=DIRECTION('',(0.,-1.,0.));
#1510=DIRECTION('',(0.,0.,-1.));
#1511=DIRECTION('',(-0.0718906211113694,0.,-0.997412521776332));
#1512=DIRECTION('',(-0.997412521776332,0.,0.0718906211113694));
#1513=DIRECTION('',(0.997412521776332,0.,-0.0718906211113694));
#1514=DIRECTION('',(0.,-1.,0.));
#1515=DIRECTION('',(1.,0.,0.));
#1516=DIRECTION('',(0.,-1.,0.));
#1517=DIRECTION('',(0.,0.,-1.));
#1518=DIRECTION('',(0.,-1.,0.));
#1519=DIRECTION('',(0.,0.,-1.));
#1520=DIRECTION('',(0.,-1.,0.));
#1521=DIRECTION('',(0.,0.,-1.));
#1522=DIRECTION('',(0.,-1.,0.));
#1523=DIRECTION('',(0.,0.,-1.));
#1524=DIRECTION('',(0.,-1.,0.));
#1525=DIRECTION('',(0.,0.,-1.));
#1526=DIRECTION('',(0.,-1.,0.));
#1527=DIRECTION('',(0.,0.,-1.));
#1528=DIRECTION('',(0.,-1.,0.));
#1529=DIRECTION('',(0.,0.,-1.));
#1530=DIRECTION('',(0.,-1.,0.));
#1531=DIRECTION('',(0.,0.,-1.));
#1532=DIRECTION('',(0.,-1.,0.));
#1533=DIRECTION('',(0.,0.,-1.));
#1534=DIRECTION('',(-0.0718906211113697,0.,-0.997412521776332));
#1535=DIRECTION('',(-0.997412521776332,0.,0.0718906211113697));
#1536=DIRECTION('',(0.,-1.,0.));
#1537=DIRECTION('',(0.0718906211113696,0.,-0.997412521776332));
#1538=DIRECTION('',(-0.997412521776332,0.,-0.0718906211113696));
#1539=DIRECTION('',(0.,-1.,0.));
#1540=DIRECTION('',(0.,-1.,0.));
#1541=DIRECTION('',(0.,0.,-1.));
#1542=DIRECTION('',(0.,1.,-3.46944695195362E-16));
#1543=DIRECTION('',(0.,3.46944695195362E-16,1.));
#1544=DIRECTION('',(0.,-8.67361737988404E-17,-1.));
#1545=DIRECTION('',(-1.,0.,0.));
#1546=DIRECTION('',(0.,1.,-2.60208521396521E-16));
#1547=DIRECTION('',(0.,2.60208521396521E-16,1.));
#1548=DIRECTION('',(-1.,0.,0.));
#1549=DIRECTION('',(0.,-2.60208521396521E-16,-1.));
#1550=DIRECTION('',(0.,1.73472347597681E-16,1.));
#1551=DIRECTION('',(0.,-1.,1.73472347597681E-16));
#1552=DIRECTION('',(0.,1.,-1.7347234759768E-16));
#1553=DIRECTION('',(0.,-1.,-1.0842021724855E-16));
#1554=DIRECTION('',(0.,1.0842021724855E-16,-1.));
#1555=DIRECTION('',(1.,0.,0.));
#1556=DIRECTION('',(0.,-1.,-1.0842021724855E-16));
#1557=DIRECTION('',(0.,1.0842021724855E-16,-1.));
#1558=DIRECTION('',(0.,1.0842021724855E-16,-1.));
#1559=DIRECTION('',(1.,0.,0.));
#1560=DIRECTION('',(0.,-1.,-1.0842021724855E-16));
#1561=DIRECTION('',(0.,1.0842021724855E-16,-1.));
#1562=DIRECTION('',(0.,-2.16840434497101E-16,1.));
#1563=DIRECTION('',(0.,-1.,-2.16840434497101E-16));
#1564=DIRECTION('',(1.,0.,0.));
#1565=DIRECTION('',(0.,1.,2.16840434497101E-16));
#1566=DIRECTION('',(0.,-1.,-2.16840434497101E-16));
#1567=DIRECTION('',(0.,-1.,-1.0842021724855E-16));
#1568=DIRECTION('',(0.,1.0842021724855E-16,-1.));
#1569=DIRECTION('',(0.,-1.,-1.0842021724855E-16));
#1570=DIRECTION('',(0.,1.0842021724855E-16,-1.));
#1571=DIRECTION('',(1.,0.,0.));
#1572=DIRECTION('',(0.,-1.,-1.0842021724855E-16));
#1573=DIRECTION('',(0.,1.0842021724855E-16,-1.));
#1574=DIRECTION('',(0.,0.,1.));
#1575=DIRECTION('',(1.,0.,0.));
#1576=DIRECTION('',(0.,-1.,0.));
#1577=DIRECTION('',(0.,-1.,0.));
#1578=DIRECTION('',(-0.490261239632559,1.88992818167131E-16,-0.871575537124549));
#1579=DIRECTION('',(-0.871575537124549,0.,0.490261239632559));
#1580=DIRECTION('',(3.85494105772624E-16,1.,0.));
#1581=DIRECTION('',(0.871575537124549,1.00796169689137E-16,-0.490261239632559));
#1582=DIRECTION('',(1.34287474059485E-33,1.,2.16840434497101E-16));
#1583=DIRECTION('',(-0.84911708496217,0.225546725693076,0.477628360291221));
#1584=DIRECTION('',(-1.34287474059485E-33,-1.,-2.16840434497101E-16));
#1585=DIRECTION('',(-0.0623782861551806,0.,-0.998052578482889));
#1586=DIRECTION('',(-0.998052578482889,0.,0.0623782861551807));
#1587=DIRECTION('',(-0.964726680845087,0.256255524599476,0.0602954175528179));
#1588=DIRECTION('',(0.25672261183985,0.966485126926496,1.04786527428864E-16));
#1589=DIRECTION('',(-0.966485126926496,0.25672261183985,0.));
#1590=DIRECTION('',(0.25672261183985,0.966485126926496,1.04786527428864E-16));
#1591=DIRECTION('',(-0.966485126926496,0.25672261183985,4.50158298899365E-16));
#1592=DIRECTION('',(0.25672261183985,0.966485126926496,1.04786527428864E-16));
#1593=DIRECTION('',(-0.966485126926496,0.25672261183985,4.50158298899365E-16));
#1594=DIRECTION('',(0.98058067569092,0.196116135138184,0.));
#1595=DIRECTION('',(-0.196116135138184,0.98058067569092,0.));
#1596=DIRECTION('',(-0.998823833424237,-0.0484865938555455,0.));
#1597=DIRECTION('',(-0.0484865938555455,0.998823833424237,0.));
#1598=DIRECTION('',(-1.,-6.93889390390723E-17,0.));
#1599=DIRECTION('',(6.93889390390723E-17,-1.,0.));
#1600=DIRECTION('',(1.,0.,0.));
#1601=DIRECTION('',(0.,0.,-1.));
#1602=DIRECTION('',(-1.,0.,-2.89120579329468E-16));
#1603=DIRECTION('',(-2.89120579329468E-16,0.,1.));
#1604=DIRECTION('',(2.89120579329468E-16,0.,-1.));
#1605=DIRECTION('',(3.85494105772624E-16,-1.,0.));
#1606=DIRECTION('',(2.89120579329468E-16,0.,-1.));
#1607=DIRECTION('',(0.,-1.,0.));
#1608=DIRECTION('',(-8.67361737988404E-17,0.,1.));
#1609=DIRECTION('',(1.,0.,8.67361737988404E-17));
#1610=DIRECTION('',(-1.,0.,-8.67361737988404E-17));
#1611=DIRECTION('',(0.,-1.,0.));
#1612=DIRECTION('',(-1.,0.,-8.67361737988404E-17));
#1613=DIRECTION('',(0.,-1.,0.));
#1614=DIRECTION('',(1.,0.,0.));
#1615=DIRECTION('',(-1.15648231731787E-16,1.,0.));
#1616=DIRECTION('',(-1.,-1.15648231731787E-16,0.));
#1617=DIRECTION('',(-1.,-1.15648231731787E-16,0.));
#1618=DIRECTION('',(0.,-1.,0.));
#1619=DIRECTION('',(0.,0.,-1.));
#1620=DIRECTION('',(0.,-1.,0.));
#1621=DIRECTION('',(1.,0.,0.));
#1622=DIRECTION('',(0.,-1.,0.));
#1623=DIRECTION('',(0.,0.,-1.));
#1624=DIRECTION('',(-1.,-1.15648231731787E-16,0.));
#1625=DIRECTION('',(0.,0.,1.));
#1626=DIRECTION('',(-1.,0.,0.));
#1627=DIRECTION('',(0.,0.,1.));
#1628=DIRECTION('',(0.,-1.,0.));
#1629=DIRECTION('',(0.,0.,-1.));
#1630=DIRECTION('',(0.,1.,2.16840434497101E-16));
#1631=DIRECTION('',(0.,-2.16840434497101E-16,1.));
#1632=DIRECTION('',(0.,1.,2.16840434497101E-16));
#1633=DIRECTION('',(0.,-2.16840434497101E-16,1.));
#1634=DIRECTION('',(0.,0.,-1.));
#1635=DIRECTION('',(-1.,0.,0.));
#1636=DIRECTION('',(0.,0.,-1.));
#1637=DIRECTION('',(-1.,0.,0.));
#1638=DIRECTION('',(0.,0.,-1.));
#1639=DIRECTION('',(-1.,0.,0.));
#1640=DIRECTION('',(0.,1.,0.));
#1641=DIRECTION('',(0.,0.,1.));
#1642=DIRECTION('',(0.,-1.,0.));
#1643=DIRECTION('',(0.,0.,-1.));
#1644=DIRECTION('',(0.,1.,0.));
#1645=DIRECTION('',(0.,0.,1.));
#1646=DIRECTION('',(1.,0.,0.));
#1647=DIRECTION('',(0.,0.,-1.));
#1648=DIRECTION('',(0.,0.,1.));
#1649=DIRECTION('',(1.,0.,0.));
#1650=DIRECTION('',(0.,0.,1.));
#1651=DIRECTION('',(1.,0.,0.));
#1652=DIRECTION('',(0.,0.,1.));
#1653=DIRECTION('',(1.,0.,0.));
#1654=DIRECTION('',(1.,0.,0.));
#1655=DIRECTION('',(0.,0.,-1.));
#1656=DIRECTION('',(0.,0.,1.));
#1657=DIRECTION('',(1.,0.,0.));
#1658=CARTESIAN_POINT('',(0.,0.,0.));
#1659=CARTESIAN_POINT('',(-3.46944695195361E-18,-0.0025,0.007));
#1660=CARTESIAN_POINT('',(0.000657843151754953,-0.00578921575877478,0.007));
#1661=CARTESIAN_POINT('',(-0.0255,-0.0110207843891258,0.007));
#1662=CARTESIAN_POINT('',(0.00710392194562887,-0.0045,0.007));
#1663=CARTESIAN_POINT('',(2.16840434497101E-18,-0.0045,0.007));
#1664=CARTESIAN_POINT('',(-0.0075,-0.0045,0.007));
#1665=CARTESIAN_POINT('',(-0.0075,-0.0025,0.007));
#1666=CARTESIAN_POINT('',(-0.0075,-0.00475,0.007));
#1667=CARTESIAN_POINT('',(-3.46944695195361E-18,-0.00475,0.007));
#1668=CARTESIAN_POINT('',(-0.0125,-0.00475,0.007));
#1669=CARTESIAN_POINT('',(-0.0125,-0.0025,0.007));
#1670=CARTESIAN_POINT('',(-0.0125,-0.007,0.007));
#1671=CARTESIAN_POINT('',(-0.0255,-0.007,0.007));
#1672=CARTESIAN_POINT('',(-0.0255,-0.007,0.007));
#1673=CARTESIAN_POINT('',(-0.0255,-0.0025,0.007));
#1674=CARTESIAN_POINT('',(0.000664776672066653,-0.00283638046748438,-3.07520986484202E-19));
#1675=CARTESIAN_POINT('',(-0.00643333333333332,-0.0045,2.97601449656464E-18));
#1676=CARTESIAN_POINT('',(-0.00643333333333333,-0.0045,0.005));
#1677=CARTESIAN_POINT('',(-0.00643333333333327,-0.0045,0.0054));
#1678=CARTESIAN_POINT('',(0.000664776672066653,-0.00283638046748438,0.005));
#1679=CARTESIAN_POINT('',(-0.00572222222222222,-0.00433333333333334,0.005));
#1680=CARTESIAN_POINT('',(0.0085,-0.001,-0.003));
#1681=CARTESIAN_POINT('',(0.00827168984377698,-0.00105351019286477,-0.00287157553712455));
#1682=CARTESIAN_POINT('',(0.00876195108340954,-0.000938605214825887,-0.002));
#1683=CARTESIAN_POINT('',(0.0085,-0.001,-0.00296508115197665));
#1684=CARTESIAN_POINT('',(0.0085,-0.001,-0.004));
#1685=CARTESIAN_POINT('',(0.0085,-0.001,-0.005));
#1686=CARTESIAN_POINT('',(0.0085,-0.001,-0.005));
#1687=CARTESIAN_POINT('',(-0.0075,-0.00475,-0.004));
#1688=CARTESIAN_POINT('',(-0.0075,-0.00475,0.001));
#1689=CARTESIAN_POINT('',(-0.0075,-0.00475,0.00658484748441787));
#1690=CARTESIAN_POINT('',(-0.0065,-0.004515625,0.00658484748441787));
#1691=CARTESIAN_POINT('',(-0.00699026123963256,-0.00463052997803888,0.00571327194729332));
#1692=CARTESIAN_POINT('',(0.0085,-0.001,-0.003));
#1693=CARTESIAN_POINT('',(0.00076112759643917,-2.93410202168184E-19,0.00135311572700297));
#1694=CARTESIAN_POINT('',(0.00076112759643917,-0.0045,0.00135311572700297));
#1695=CARTESIAN_POINT('',(-0.00699026123963256,-0.0045,0.00571327194729332));
#1696=CARTESIAN_POINT('',(-0.00699026123963256,0.00525,0.00571327194729332));
#1697=CARTESIAN_POINT('',(-0.000784464540552739,-0.00607767729723632,0.003));
#1698=CARTESIAN_POINT('',(0.00710392194562887,-0.0045,0.003));
#1699=CARTESIAN_POINT('',(0.0075,-0.0045,0.007));
#1700=CARTESIAN_POINT('',(0.0115426803694599,-0.0045,0.00690412712422512));
#1701=CARTESIAN_POINT('',(0.00710392194562887,-0.0045,0.003));
#1702=CARTESIAN_POINT('',(-0.0255,-0.0110207843891258,0.003));
#1703=CARTESIAN_POINT('',(-0.0255,-0.0125,0.00672774436548044));
#1704=CARTESIAN_POINT('',(-0.0328960780543712,-0.0125,0.003));
#1705=CARTESIAN_POINT('',(-0.0125,-0.0125,0.003));
#1706=CARTESIAN_POINT('',(-3.46944695195361E-18,-0.01,0.003));
#1707=CARTESIAN_POINT('',(0.0116961161351382,-0.00766077677297236,0.003));
#1708=CARTESIAN_POINT('',(0.0115,-0.00362078438912577,0.003));
#1709=CARTESIAN_POINT('',(-0.0045,-8.21437483020378E-19,-0.003002));
#1710=CARTESIAN_POINT('',(-0.0045,-8.21437483020378E-19,0.0043125));
#1711=CARTESIAN_POINT('',(-0.00525,-5.3231690369091E-19,0.004734375));
#1712=CARTESIAN_POINT('',(-0.0045,-8.21437483020378E-19,0.005));
#1713=CARTESIAN_POINT('',(-0.00375,-8.21437483020378E-19,0.005));
#1714=CARTESIAN_POINT('',(0.0005,-8.21437483020378E-19,-0.003002));
#1715=CARTESIAN_POINT('',(0.0005,-8.21437483020378E-19,0.0015));
#1716=CARTESIAN_POINT('',(-0.00025,-5.3231690369091E-19,0.001921875));
#1717=CARTESIAN_POINT('',(0.0005,-8.21437483020378E-19,0.005));
#1718=CARTESIAN_POINT('',(0.00125,-8.21437483020378E-19,0.005));
#1719=CARTESIAN_POINT('',(0.0055,-8.21437483020378E-19,-0.003002));
#1720=CARTESIAN_POINT('',(0.0055,-8.21437483020378E-19,-0.0013125));
#1721=CARTESIAN_POINT('',(0.00475,-5.3231690369091E-19,-0.000890625));
#1722=CARTESIAN_POINT('',(0.0055,-8.21437483020378E-19,0.005));
#1723=CARTESIAN_POINT('',(0.00625,-8.21437483020378E-19,0.005));
#1724=CARTESIAN_POINT('',(-0.0075,0.00025,0.031));
#1725=CARTESIAN_POINT('',(-0.0075,-0.00475,0.00658484748441787));
#1726=CARTESIAN_POINT('',(-0.0075,0.00525,0.00658484748441787));
#1727=CARTESIAN_POINT('',(-0.0075,0.0045,0.00658484748441787));
#1728=CARTESIAN_POINT('',(-0.0075,0.0045,0.005));
#1729=CARTESIAN_POINT('',(-0.0075,0.0045,0.00687298334620742));
#1730=CARTESIAN_POINT('',(-0.0075,0.0035,0.003));
#1731=CARTESIAN_POINT('',(-0.0075,0.00525,0.00659687364248454));
#1732=CARTESIAN_POINT('',(-0.0075,0.00525,0.031));
#1733=CARTESIAN_POINT('',(-0.0065,-1.42786118961831E-18,0.00658484748441787));
#1734=CARTESIAN_POINT('',(-0.0075,-0.00475,0.00658484748441787));
#1735=CARTESIAN_POINT('',(-0.0075,-0.0045,0.00658484748441787));
#1736=CARTESIAN_POINT('',(-0.0065,-0.0045,0.00658484748441787));
#1737=CARTESIAN_POINT('',(0.0125,0.,0.007));
#1738=CARTESIAN_POINT('',(0.0125,-0.001,-0.004));
#1739=CARTESIAN_POINT('',(0.0125,-0.001,-0.003));
#1740=CARTESIAN_POINT('',(0.0125,-0.001,-0.006));
#1741=CARTESIAN_POINT('',(0.0125,0.,-0.003));
#1742=CARTESIAN_POINT('',(0.0125,-0.0045,-0.003));
#1743=CARTESIAN_POINT('',(0.0125,-0.0045,0.0025));
#1744=CARTESIAN_POINT('',(0.0125,-0.0045,0.00587344939950814));
#1745=CARTESIAN_POINT('',(0.0125,-0.00362078438912577,0.003));
#1746=CARTESIAN_POINT('',(0.0125,-0.00668019609728145,0.003));
#1747=CARTESIAN_POINT('',(0.0125,-0.00668019609728145,0.007));
#1748=CARTESIAN_POINT('',(0.0125,-0.00668019609728144,-0.003));
#1749=CARTESIAN_POINT('',(0.0125,-0.00362078438912577,-0.003));
#1750=CARTESIAN_POINT('',(0.0125,-0.00362078438912577,-0.006));
#1751=CARTESIAN_POINT('',(0.0125,0.0035,-0.006));
#1752=CARTESIAN_POINT('',(-3.88578058618805E-18,0.0035,0.003));
#1753=CARTESIAN_POINT('',(-3.88578058618805E-18,0.0045,0.00687298334620742));
#1754=CARTESIAN_POINT('',(0.0115,0.0045,0.00687298334620742));
#1755=CARTESIAN_POINT('',(0.0115,0.0035,0.003));
#1756=CARTESIAN_POINT('',(0.0115,0.0075,0.003));
#1757=CARTESIAN_POINT('',(0.0125,0.0075,0.003));
#1758=CARTESIAN_POINT('',(-0.0125,0.0075,0.003));
#1759=CARTESIAN_POINT('',(-0.0125,0.0035,0.003));
#1760=CARTESIAN_POINT('',(-0.0125,0.00525,0.00659687364248454));
#1761=CARTESIAN_POINT('',(-3.88578058618805E-18,0.00525,0.00659687364248454));
#1762=CARTESIAN_POINT('',(0.0125,0.,0.007));
#1763=CARTESIAN_POINT('',(0.0125,0.0045,0.0025));
#1764=CARTESIAN_POINT('',(0.0125,0.0045,0.00582842712474619));
#1765=CARTESIAN_POINT('',(0.0125,0.0045,-0.003));
#1766=CARTESIAN_POINT('',(0.0125,0.,-0.003));
#1767=CARTESIAN_POINT('',(0.0125,0.001,-0.003));
#1768=CARTESIAN_POINT('',(0.0125,0.001,-0.004));
#1769=CARTESIAN_POINT('',(0.0125,0.001,-0.006));
#1770=CARTESIAN_POINT('',(0.0125,0.0035,-0.006));
#1771=CARTESIAN_POINT('',(0.0125,0.0035,-0.006));
#1772=CARTESIAN_POINT('',(0.0125,0.0035,-0.003));
#1773=CARTESIAN_POINT('',(0.0125,0.0065,-0.003));
#1774=CARTESIAN_POINT('',(0.0125,0.0065,0.003));
#1775=CARTESIAN_POINT('',(0.0125,0.0065,0.003));
#1776=CARTESIAN_POINT('',(0.0125,0.0035,0.003));
#1777=CARTESIAN_POINT('',(-0.0125,-0.0025,0.007));
#1778=CARTESIAN_POINT('',(-0.0125,-0.00475,0.001));
#1779=CARTESIAN_POINT('',(-0.0125,-0.00475,-0.004));
#1780=CARTESIAN_POINT('',(-0.0125,0.000249999999999995,-0.004));
#1781=CARTESIAN_POINT('',(-0.0125,0.00525,-0.004));
#1782=CARTESIAN_POINT('',(-0.0125,0.00525,0.001));
#1783=CARTESIAN_POINT('',(-0.0125,0.0075,0.007));
#1784=CARTESIAN_POINT('',(-0.0125,0.0075,-0.003));
#1785=CARTESIAN_POINT('',(-0.0125,0.0035,-0.003));
#1786=CARTESIAN_POINT('',(-0.0125,0.0035,-0.007));
#1787=CARTESIAN_POINT('',(-0.0125,-0.0025,-0.007));
#1788=CARTESIAN_POINT('',(-0.0125,-0.007,-0.007));
#1789=CARTESIAN_POINT('',(-0.0125,-0.007,0.));
#1790=CARTESIAN_POINT('',(-0.0117159512479098,0.0015,-5.80826202752444E-17));
#1791=CARTESIAN_POINT('',(-0.0117159512479098,-0.0085,-5.80826202752444E-17));
#1792=CARTESIAN_POINT('',(-0.0117159512479098,-0.0085,-0.000500000000000058));
#1793=CARTESIAN_POINT('',(-0.0117159512479098,-0.00475,-5.80826202752444E-17));
#1794=CARTESIAN_POINT('',(-0.0117159512479098,-0.00475,0.000499999999999942));
#1795=CARTESIAN_POINT('',(-0.0255,-0.0025,0.));
#1796=CARTESIAN_POINT('',(-0.0255,-0.0125,0.007));
#1797=CARTESIAN_POINT('',(-0.0255,-0.0125,0.0035));
#1798=CARTESIAN_POINT('',(-0.0255,-0.007,0.));
#1799=CARTESIAN_POINT('',(-0.0255,-0.007,0.0035));
#1800=CARTESIAN_POINT('',(-0.0255,0.0326763591625449,0.0035));
#1801=CARTESIAN_POINT('',(-0.0255,-0.0085,0.0035));
#1802=CARTESIAN_POINT('',(-0.0255,-0.0085,0.0035));
#1803=CARTESIAN_POINT('',(-0.0255,-0.007,0.));
#1804=CARTESIAN_POINT('',(-0.0197159512479098,-0.007,-5.80826202752444E-17));
#1805=CARTESIAN_POINT('',(-0.0197159512479098,-0.007,-0.000500000000000058));
#1806=CARTESIAN_POINT('',(-0.0177159512479098,-0.007,-5.80826202752444E-17));
#1807=CARTESIAN_POINT('',(-0.0177159512479098,-0.007,-0.000500000000000058));
#1808=CARTESIAN_POINT('',(-0.0157159512479098,-0.007,-5.80826202752444E-17));
#1809=CARTESIAN_POINT('',(-0.0157159512479098,-0.007,-0.000500000000000058));
#1810=CARTESIAN_POINT('',(-0.0137159512479098,-0.007,-5.80826202752444E-17));
#1811=CARTESIAN_POINT('',(-0.0137159512479098,-0.007,-0.000500000000000058));
#1812=CARTESIAN_POINT('',(-0.0252490338800684,-0.007,0.00348191108508678));
#1813=CARTESIAN_POINT('',(-0.0249980677601367,-0.007,0.00346382217017355));
#1814=CARTESIAN_POINT('',(-0.0255,-0.007,-0.007));
#1815=CARTESIAN_POINT('',(-0.0255,-0.007,-0.007));
#1816=CARTESIAN_POINT('',(-0.0255,-0.007,0.));
#1817=CARTESIAN_POINT('',(-0.0255,-0.007,-0.0035));
#1818=CARTESIAN_POINT('',(-0.0252490338800684,-0.007,-0.00348191108508678));
#1819=CARTESIAN_POINT('',(-0.0249980677601367,-0.007,-0.00346382217017356));
#1820=CARTESIAN_POINT('',(-0.0255,-0.007,-1.56125112837912E-17));
#1821=CARTESIAN_POINT('',(-0.0255,-0.0125,0.007));
#1822=CARTESIAN_POINT('',(-0.0255,-0.0125,0.007));
#1823=CARTESIAN_POINT('',(-0.0255,-0.0125,-0.0035));
#1824=CARTESIAN_POINT('',(-0.0255,-0.0125,-0.00672774436548043));
#1825=CARTESIAN_POINT('',(-0.0328960780543712,-0.0125,-0.003));
#1826=CARTESIAN_POINT('',(-0.0125,-0.0125,-0.003));
#1827=CARTESIAN_POINT('',(-0.0125,-0.0125,0.007));
#1828=CARTESIAN_POINT('',(-0.0125,-0.0125,-0.00256299745186337));
#1829=CARTESIAN_POINT('',(-0.018267146227634,-0.0125,-0.00297867673730719));
#1830=CARTESIAN_POINT('',(-0.0249980677601367,-0.0125,-0.00346382217017356));
#1831=CARTESIAN_POINT('',(-0.0255,-0.0125,-1.75640751942651E-17));
#1832=CARTESIAN_POINT('',(-0.0255,-0.0025,0.));
#1833=CARTESIAN_POINT('',(-0.0255,-0.0025,-0.007));
#1834=CARTESIAN_POINT('',(-0.0255,-0.0110207843891258,-0.007));
#1835=CARTESIAN_POINT('',(-0.0255,-0.0110207843891258,-0.003));
#1836=CARTESIAN_POINT('',(-0.0255,-0.0085,-0.0035));
#1837=CARTESIAN_POINT('',(-0.0255,-0.0085,-0.0035));
#1838=CARTESIAN_POINT('',(-0.0255,0.0326763591625449,-0.0035));
#1839=CARTESIAN_POINT('',(0.,0.0075,0.007));
#1840=CARTESIAN_POINT('',(0.0115,0.0075,-0.003));
#1841=CARTESIAN_POINT('',(0.0115,0.0075,-0.003));
#1842=CARTESIAN_POINT('',(0.,0.0075,-0.003));
#1843=CARTESIAN_POINT('',(-3.46944695195361E-18,-0.01,0.007));
#1844=CARTESIAN_POINT('',(0.0125,-0.0075,-0.003));
#1845=CARTESIAN_POINT('',(0.0116961161351382,-0.00766077677297236,-0.003));
#1846=CARTESIAN_POINT('',(0.0116961161351382,-0.00766077677297237,0.007));
#1847=CARTESIAN_POINT('',(-0.0125,-0.0125,0.007));
#1848=CARTESIAN_POINT('',(-0.0125,-0.0125,0.00256299745186337));
#1849=CARTESIAN_POINT('',(-0.000368108543245255,-0.010073621708649,0.00168856566657905));
#1850=CARTESIAN_POINT('',(-0.0115362246951313,-0.0123072449390263,0.00249353130444083));
#1851=CARTESIAN_POINT('',(-0.0117159512479098,-0.012343190249582,-5.8113236445223E-17));
#1852=CARTESIAN_POINT('',(-0.0115362246951313,-0.0123072449390263,-0.00249353130444083));
#1853=CARTESIAN_POINT('',(0.000597337674892893,-0.00988053246502142,-0.0016189790845418));
#1854=CARTESIAN_POINT('',(-3.46944695195361E-18,-0.0025,-0.007));
#1855=CARTESIAN_POINT('',(-3.88578058618805E-18,0.0035,-0.007));
#1856=CARTESIAN_POINT('',(0.0115,0.0035,-0.007));
#1857=CARTESIAN_POINT('',(0.0115,-0.00342078438912577,-0.007));
#1858=CARTESIAN_POINT('',(0.0115,-0.00362078438912577,-0.007));
#1859=CARTESIAN_POINT('',(-0.0132844645405527,-0.00857767729723632,-0.007));
#1860=CARTESIAN_POINT('',(-0.0255,-0.0125,0.007));
#1861=CARTESIAN_POINT('',(-0.0255,-0.0125,2.03830008427275E-17));
#1862=CARTESIAN_POINT('',(-0.0249980677601367,-0.0125,0.00346382217017355));
#1863=CARTESIAN_POINT('',(-0.018267146227634,-0.0125,0.00297867673730719));
#1864=CARTESIAN_POINT('',(-0.0255,-0.0085,2.03830008427275E-17));
#1865=CARTESIAN_POINT('',(-0.0255,-0.0085,2.03830008427275E-17));
#1866=CARTESIAN_POINT('',(-0.0249980677601367,-0.0085,0.00346382217017355));
#1867=CARTESIAN_POINT('',(-0.0249980677601367,-0.0085,0.00346382217017355));
#1868=CARTESIAN_POINT('',(-0.0255,-0.0085,-1.75640751942651E-17));
#1869=CARTESIAN_POINT('',(-0.0249980677601367,-0.0085,-0.00346382217017356));
#1870=CARTESIAN_POINT('',(-0.0249980677601367,-0.0085,-0.00346382217017356));
#1871=CARTESIAN_POINT('',(-0.0255,-0.0085,-1.75640751942651E-17));
#1872=CARTESIAN_POINT('',(-0.018267146227634,-0.0085,-0.00297867673730719));
#1873=CARTESIAN_POINT('',(-0.0115362246951313,-0.0085,-0.00249353130444083));
#1874=CARTESIAN_POINT('',(-0.0115362246951313,-0.0085,-0.00249353130444083));
#1875=CARTESIAN_POINT('',(-0.018267146227634,-0.0085,-0.00297867673730719));
#1876=CARTESIAN_POINT('',(-0.0117159512479098,-0.0085,-5.8113236445223E-17));
#1877=CARTESIAN_POINT('',(-0.0115362246951313,-0.0085,0.00249353130444083));
#1878=CARTESIAN_POINT('',(-0.0115362246951313,-0.0085,0.00249353130444083));
#1879=CARTESIAN_POINT('',(-0.0117159512479098,-0.0085,-5.8113236445223E-17));
#1880=CARTESIAN_POINT('',(-0.018267146227634,-0.0085,0.00297867673730719));
#1881=CARTESIAN_POINT('',(-0.018267146227634,-0.0085,0.00297867673730719));
#1882=CARTESIAN_POINT('',(-0.0173579756239549,-0.0085,0.));
#1883=CARTESIAN_POINT('',(-0.0255,-0.0085,-1.56125112837912E-17));
#1884=CARTESIAN_POINT('',(-0.0137159512479098,-0.0085,-5.80826202752444E-17));
#1885=CARTESIAN_POINT('',(-0.0137159512479098,-0.0085,-0.000500000000000058));
#1886=CARTESIAN_POINT('',(-0.0157159512479098,-0.0085,-5.80826202752444E-17));
#1887=CARTESIAN_POINT('',(-0.0157159512479098,-0.0085,-0.000500000000000058));
#1888=CARTESIAN_POINT('',(-0.0177159512479098,-0.0085,-5.80826202752444E-17));
#1889=CARTESIAN_POINT('',(-0.0177159512479098,-0.0085,-0.000500000000000058));
#1890=CARTESIAN_POINT('',(-0.0197159512479098,-0.0085,-5.80826202752444E-17));
#1891=CARTESIAN_POINT('',(-0.0197159512479098,-0.0085,-0.000500000000000058));
#1892=CARTESIAN_POINT('',(-0.0197159512479098,0.0015,-5.80826202752444E-17));
#1893=CARTESIAN_POINT('',(-0.0177159512479098,0.0015,-5.80826202752444E-17));
#1894=CARTESIAN_POINT('',(-0.0157159512479098,0.0015,-5.80826202752444E-17));
#1895=CARTESIAN_POINT('',(-0.0137159512479098,0.0015,-5.80826202752444E-17));
#1896=CARTESIAN_POINT('',(-0.0252490338800684,0.0326763591625449,0.00348191108508678));
#1897=CARTESIAN_POINT('',(-0.0249980677601367,0.0326763591625449,0.00346382217017355));
#1898=CARTESIAN_POINT('',(-0.0252490338800684,0.0326763591625449,-0.00348191108508678));
#1899=CARTESIAN_POINT('',(-0.0249980677601367,0.0326763591625449,-0.00346382217017356));
#1900=CARTESIAN_POINT('',(-0.0255,0.0326763591625449,-1.56125112837912E-17));
#1901=CARTESIAN_POINT('',(-0.0075,-0.00475,0.001));
#1902=CARTESIAN_POINT('',(-0.0075,-0.00475,0.031));
#1903=CARTESIAN_POINT('',(-0.0075,-0.00475,-0.004));
#1904=CARTESIAN_POINT('',(-0.0075,0.00525,0.001));
#1905=CARTESIAN_POINT('',(-0.0075,0.00525,-0.004));
#1906=CARTESIAN_POINT('',(-0.0075,0.00525,-0.004));
#1907=CARTESIAN_POINT('',(-0.0075,0.00525,0.001));
#1908=CARTESIAN_POINT('',(-0.0075,0.000249999999999995,-0.004));
#1909=CARTESIAN_POINT('',(-0.0075,0.000249999999999995,-0.004));
#1910=CARTESIAN_POINT('',(0.0085,0.001,-0.004));
#1911=CARTESIAN_POINT('',(0.0085,0.001,-0.003));
#1912=CARTESIAN_POINT('',(0.00876195108340954,0.001,-0.003));
#1913=CARTESIAN_POINT('',(0.00876195108340954,0.001,-0.002));
#1914=CARTESIAN_POINT('',(0.0085,0.001,-0.00296508115197664));
#1915=CARTESIAN_POINT('',(0.0085,0.001,-0.004));
#1916=CARTESIAN_POINT('',(0.0085,0.001,-0.005));
#1917=CARTESIAN_POINT('',(0.0085,0.001,-0.005));
#1918=CARTESIAN_POINT('',(0.0115,0.001,-0.005));
#1919=CARTESIAN_POINT('',(0.0115,0.001,-0.006));
#1920=CARTESIAN_POINT('',(0.0085,3.68628738645072E-18,-0.003));
#1921=CARTESIAN_POINT('',(0.0085,-0.001,-0.003));
#1922=CARTESIAN_POINT('',(0.00876195108340954,-0.001,-0.003));
#1923=CARTESIAN_POINT('',(0.00876195108340954,3.68628738645072E-18,-0.003));
#1924=CARTESIAN_POINT('',(0.0125,3.68628738645072E-18,-0.003));
#1925=CARTESIAN_POINT('',(0.0085,-0.001,-0.004));
#1926=CARTESIAN_POINT('',(0.0115,-0.001,-0.006));
#1927=CARTESIAN_POINT('',(0.0115,-0.001,-0.005));
#1928=CARTESIAN_POINT('',(0.0085,-0.001,-0.005));
#1929=CARTESIAN_POINT('',(0.00876195108340954,-0.001,-0.002));
#1930=CARTESIAN_POINT('',(0.0085,4.01154803819636E-18,-0.005));
#1931=CARTESIAN_POINT('',(0.0115,4.01154803819636E-18,-0.005));
#1932=CARTESIAN_POINT('',(0.0085,4.01154803819636E-18,-0.005));
#1933=CARTESIAN_POINT('',(0.00076112759643917,-2.93410202168184E-19,0.00135311572700297));
#1934=CARTESIAN_POINT('',(-0.00572222222222222,2.20588293858779E-18,0.005));
#1935=CARTESIAN_POINT('',(-0.00572222222222222,0.0045,0.005));
#1936=CARTESIAN_POINT('',(0.00076112759643917,0.0045,0.00135311572700297));
#1937=CARTESIAN_POINT('',(-0.00699026123963256,0.0045,0.00571327194729332));
#1938=CARTESIAN_POINT('',(-0.00699026123963256,0.00525,0.00571327194729332));
#1939=CARTESIAN_POINT('',(-0.00699026123963257,0.0051146006417774,0.00571327194729332));
#1940=CARTESIAN_POINT('',(0.0085,0.001,-0.003));
#1941=CARTESIAN_POINT('',(0.00827168984377698,0.00106064488524674,-0.00287157553712455));
#1942=CARTESIAN_POINT('',(0.00827168984377698,6.22673687161333E-19,-0.00287157553712455));
#1943=CARTESIAN_POINT('',(-0.000278210116731518,0.,-0.00445136186770428));
#1944=CARTESIAN_POINT('',(0.0085,0.001,-0.005));
#1945=CARTESIAN_POINT('',(0.000808323831242871,0.00304310148232611,3.29933723823183E-19));
#1946=CARTESIAN_POINT('',(0.00876195108340954,0.000930419243469346,-0.002));
#1947=CARTESIAN_POINT('',(-0.0065,0.004984375,0.00658484748441787));
#1948=CARTESIAN_POINT('',(0.000657843151754953,-0.00578921575877478,-0.003));
#1949=CARTESIAN_POINT('',(0.0115,-0.00362078438912577,-0.003));
#1950=CARTESIAN_POINT('',(2.77555756156289E-19,0.0035,-0.003));
#1951=CARTESIAN_POINT('',(0.0115,0.0035,-0.003));
#1952=CARTESIAN_POINT('',(0.0075,0.0045,0.0025));
#1953=CARTESIAN_POINT('',(0.0075,0.0045,0.0025));
#1954=CARTESIAN_POINT('',(0.0075,0.0045,0.005));
#1955=CARTESIAN_POINT('',(0.0075,0.0045,-0.002));
#1956=CARTESIAN_POINT('',(0.0075,0.,0.005));
#1957=CARTESIAN_POINT('',(0.0075,-0.0045,0.005));
#1958=CARTESIAN_POINT('',(0.0075,-0.0045,0.0025));
#1959=CARTESIAN_POINT('',(0.0075,-0.0045,-0.002));
#1960=CARTESIAN_POINT('',(0.0075,0.0045,-0.002));
#1961=CARTESIAN_POINT('',(0.01,0.0045,-0.002));
#1962=CARTESIAN_POINT('',(0.01,-0.0045,-0.002));
#1963=CARTESIAN_POINT('',(0.0115,-0.0045,-0.002));
#1964=CARTESIAN_POINT('',(0.0115,0.0045,-0.002));
#1965=CARTESIAN_POINT('',(0.0115,0.0045,-0.002));
#1966=CARTESIAN_POINT('',(0.01,0.0045,-0.002));
#1967=CARTESIAN_POINT('',(0.01,0.0045,0.0025));
#1968=CARTESIAN_POINT('',(0.0125,0.0045,0.00582842712474619));
#1969=CARTESIAN_POINT('',(0.0125,0.0045,0.00609858057595119));
#1970=CARTESIAN_POINT('',(0.012297728330997,0.0045,0.00663380275748509));
#1971=CARTESIAN_POINT('',(0.0117705584290635,0.0045,0.00687298334620742));
#1972=CARTESIAN_POINT('',(0.0115,0.0045,0.00687298334620742));
#1973=CARTESIAN_POINT('',(-0.0065,0.0045,0.00658484748441787));
#1974=CARTESIAN_POINT('',(8.67361737988404E-19,0.0045,0.005));
#1975=CARTESIAN_POINT('',(0.0115,0.0045,-0.003));
#1976=CARTESIAN_POINT('',(0.01,-0.0045,0.0025));
#1977=CARTESIAN_POINT('',(0.0115426803694599,-0.0045,0.00690412712422512));
#1978=CARTESIAN_POINT('',(0.0118037319798451,-0.0045,0.00689271173858339));
#1979=CARTESIAN_POINT('',(0.0123038704779034,-0.0045,0.00665181614980092));
#1980=CARTESIAN_POINT('',(0.0125,-0.0045,0.00613452447366003));
#1981=CARTESIAN_POINT('',(0.0125,-0.0045,0.00587344939950814));
#1982=CARTESIAN_POINT('',(0.0115,-0.0045,-0.003));
#1983=CARTESIAN_POINT('',(2.16840434497101E-18,-0.0045,0.005));
#1984=CARTESIAN_POINT('',(-0.0075,-0.0045,0.005));
#1985=CARTESIAN_POINT('',(-0.0075,0.00025,0.031));
#1986=CARTESIAN_POINT('',(0.0115,0.,-0.003));
#1987=CARTESIAN_POINT('',(-0.0065,-1.42786118961831E-18,0.00658484748441787));
#1988=CARTESIAN_POINT('',(0.00876195108340954,4.33680868994202E-19,-0.002));
#1989=CARTESIAN_POINT('',(0.0115411268947007,-0.00446799841996061,0.00691105723167365));
#1990=CARTESIAN_POINT('',(0.0125,-0.00445987538771385,0.00687243330414036));
#1991=CARTESIAN_POINT('',(0.0125,-0.00426236394645701,0.00593329292375524));
#1992=CARTESIAN_POINT('',(0.011584576141952,-0.00536305291332033,0.00672098996228106));
#1993=CARTESIAN_POINT('',(0.0125000000000028,-0.00532015446263329,0.00664969770969862));
#1994=CARTESIAN_POINT('',(0.0125,-0.00494017220356317,0.00579074247170491));
#1995=CARTESIAN_POINT('',(0.0116647020088031,-0.00701364577049138,0.00571518612325584));
#1996=CARTESIAN_POINT('',(0.0124999999999984,-0.00688461914747675,0.00563465320940053));
#1997=CARTESIAN_POINT('',(0.0125,-0.00619013572647375,0.0050363895924449));
#1998=CARTESIAN_POINT('',(0.0116961161351395,-0.00766077677297209,0.00390634750354268));
#1999=CARTESIAN_POINT('',(0.0125000000000005,-0.00749999999998838,0.00386919614697818));
#2000=CARTESIAN_POINT('',(0.0125,-0.00668019609727614,0.00367976062765686));
#2001=CARTESIAN_POINT('',(0.0116961161351382,-0.00766077677297236,0.00300000000000001));
#2002=CARTESIAN_POINT('',(0.0125,-0.0075,0.00300000000000001));
#2003=CARTESIAN_POINT('',(0.0125,-0.00668019609728144,0.00300000000000001));
#2004=CARTESIAN_POINT('',(0.0115,-0.00668019609728144,0.003));
#2005=CARTESIAN_POINT('',(0.0115,-0.00668019609728145,0.007));
#2006=CARTESIAN_POINT('',(0.0115,-0.00668019609728145,-0.003));
#2007=CARTESIAN_POINT('',(0.0116961161351382,-0.00766077677297236,-0.003));
#2008=CARTESIAN_POINT('',(0.0125,-0.0075,-0.003));
#2009=CARTESIAN_POINT('',(0.0125,-0.00668019609728144,-0.003));
#2010=CARTESIAN_POINT('',(0.0116961161351398,-0.00766077677297205,-0.00404719758998196));
#2011=CARTESIAN_POINT('',(0.0125000000000005,-0.00749999999998658,-0.00400427276158266));
#2012=CARTESIAN_POINT('',(0.0125,-0.00668019609727531,-0.00378539819248643));
#2013=CARTESIAN_POINT('',(0.0116536204875702,-0.00678536643308699,-0.0061332554545014));
#2014=CARTESIAN_POINT('',(0.0124999999999995,-0.0066606683804716,-0.00605045807816211));
#2015=CARTESIAN_POINT('',(0.0125,-0.00601726399523544,-0.00534994159087955));
#2016=CARTESIAN_POINT('',(0.0115513430859451,-0.00467845195959678,-0.007));
#2017=CARTESIAN_POINT('',(0.0125000000000006,-0.00465197958780288,-0.00694994198614175));
#2018=CARTESIAN_POINT('',(0.0125,-0.00442173652987046,-0.00599999999999305));
#2019=CARTESIAN_POINT('',(0.0115,-0.00362078438912577,-0.007));
#2020=CARTESIAN_POINT('',(0.0125,-0.00362078438912577,-0.007));
#2021=CARTESIAN_POINT('',(0.0125,-0.00362078438912577,-0.006));
#2022=CARTESIAN_POINT('',(0.0115,-0.00362078438912577,-0.006));
#2023=CARTESIAN_POINT('',(0.0115,0.,-0.006));
#2024=CARTESIAN_POINT('',(0.0115,0.0035,-0.006));
#2025=CARTESIAN_POINT('',(0.0115,0.0035,-0.003));
#2026=CARTESIAN_POINT('',(0.0115,0.0065,-0.003));
#2027=CARTESIAN_POINT('',(0.0115,0.0065,0.007));
#2028=CARTESIAN_POINT('',(0.0115,0.0065,0.003));
#2029=CARTESIAN_POINT('',(0.0115,0.0035,0.003));
#2030=CARTESIAN_POINT('',(-0.009,-0.00326039219456289,0.005));
#2031=MECHANICAL_DESIGN_GEOMETRIC_PRESENTATION_REPRESENTATION('',(#1181),
#2032);
#2032=(
GEOMETRIC_REPRESENTATION_CONTEXT(3)
GLOBAL_UNCERTAINTY_ASSIGNED_CONTEXT((#2033))
GLOBAL_UNIT_ASSIGNED_CONTEXT((#2036,#2035,#2034))
REPRESENTATION_CONTEXT('Part 1','TOP_LEVEL_ASSEMBLY_PART')
);
#2033=UNCERTAINTY_MEASURE_WITH_UNIT(LENGTH_MEASURE(2.E-5),#2036,
'DISTANCE_ACCURACY_VALUE','Maximum Tolerance applied to model');
#2034=(
NAMED_UNIT(*)
SI_UNIT($,.STERADIAN.)
SOLID_ANGLE_UNIT()
);
#2035=(
NAMED_UNIT(*)
PLANE_ANGLE_UNIT()
SI_UNIT($,.RADIAN.)
);
#2036=(
LENGTH_UNIT()
NAMED_UNIT(*)
SI_UNIT($,.METRE.)
);
#2037=PRODUCT_DEFINITION_SHAPE('','',#2038);
#2038=PRODUCT_DEFINITION('','',#2040,#2039);
#2039=PRODUCT_DEFINITION_CONTEXT('',#2046,'design');
#2040=PRODUCT_DEFINITION_FORMATION_WITH_SPECIFIED_SOURCE('','',#2042,
 .NOT_KNOWN.);
#2041=PRODUCT_RELATED_PRODUCT_CATEGORY('','',(#2042));
#2042=PRODUCT('Part 1','Part 1','Part 1',(#2044));
#2043=PRODUCT_CATEGORY('','');
#2044=PRODUCT_CONTEXT('',#2046,'mechanical');
#2045=APPLICATION_PROTOCOL_DEFINITION('international standard',
'ap242_managed_model_based_3d_engineering',2020,#2046);
#2046=APPLICATION_CONTEXT('managed model based 3d engineering');
ENDSEC;
END-ISO-10303-21;
