ISO-10303-21;
HEADER;
/* Generated by software containing ST-Developer
 * from STEP Tools, Inc. (www.steptools.com) 
 */
/* OPTION: using custom renumber hook */

FILE_DESCRIPTION(
/* description */ ('STEP AP242 Edition 2',
'CAx-IF Rec.Pracs.---Representation and Presentation of Product Manufa
cturing Information (PMI)---4.0---2014-10-13',
'CAx-IF Rec.Pracs.---3D Tessellated Geometry---0.4---2014-09-14','2;1',
'CAx-IF Rec.Pracs.---User Defined Attributes---1.5---2016-08-15'),
/* implementation_level */ '2;1');

FILE_NAME(
/* name */ 'Thumb_base',
/* time_stamp */ '2026-05-19T16:25:59Z',
/* author */ (''),
/* organization */ (''),
/* preprocessor_version */ 'ST-DEVELOPER v20',
/* originating_system */ 'ONSHAPE BY PTC INC, 1.215',
/* authorisation */ '  ');

FILE_SCHEMA (('AP242_MANAGED_MODEL_BASED_3D_ENGINEERING_MIM_LF { 1 0 10303 442 3 1 4 }'));
ENDSEC;

DATA;
#10=SHAPE_REPRESENTATION_RELATIONSHIP('','',#377,#11);
#11=ADVANCED_BREP_SHAPE_REPRESENTATION('',(#375),#617);
#12=CYLINDRICAL_SURFACE('',#407,0.00075);
#13=CYLINDRICAL_SURFACE('',#408,0.00075);
#14=CYLINDRICAL_SURFACE('',#409,0.00075);
#15=CYLINDRICAL_SURFACE('',#410,0.00075);
#16=CYLINDRICAL_SURFACE('',#411,0.00075);
#17=CYLINDRICAL_SURFACE('',#412,0.00075);
#18=CYLINDRICAL_SURFACE('',#413,0.002);
#19=CYLINDRICAL_SURFACE('',#414,0.002);
#20=CYLINDRICAL_SURFACE('',#415,0.001);
#21=LINE('',#526,#47);
#22=LINE('',#531,#48);
#23=LINE('',#533,#49);
#24=LINE('',#535,#50);
#25=LINE('',#539,#51);
#26=LINE('',#541,#52);
#27=LINE('',#543,#53);
#28=LINE('',#545,#54);
#29=LINE('',#559,#55);
#30=LINE('',#564,#56);
#31=LINE('',#566,#57);
#32=LINE('',#568,#58);
#33=LINE('',#570,#59);
#34=LINE('',#572,#60);
#35=LINE('',#576,#61);
#36=LINE('',#578,#62);
#37=LINE('',#586,#63);
#38=LINE('',#587,#64);
#39=LINE('',#591,#65);
#40=LINE('',#593,#66);
#41=LINE('',#595,#67);
#42=LINE('',#597,#68);
#43=LINE('',#598,#69);
#44=LINE('',#602,#70);
#45=LINE('',#604,#71);
#46=LINE('',#606,#72);
#47=VECTOR('',#426,1.);
#48=VECTOR('',#429,1.);
#49=VECTOR('',#430,1.);
#50=VECTOR('',#431,1.);
#51=VECTOR('',#434,1.);
#52=VECTOR('',#435,1.);
#53=VECTOR('',#436,1.);
#54=VECTOR('',#437,1.);
#55=VECTOR('',#452,1.);
#56=VECTOR('',#455,1.);
#57=VECTOR('',#456,1.);
#58=VECTOR('',#457,1.);
#59=VECTOR('',#458,1.);
#60=VECTOR('',#459,1.);
#61=VECTOR('',#462,1.);
#62=VECTOR('',#463,1.);
#63=VECTOR('',#472,1.);
#64=VECTOR('',#473,1.);
#65=VECTOR('',#478,1.);
#66=VECTOR('',#481,1.);
#67=VECTOR('',#484,1.);
#68=VECTOR('',#487,1.);
#69=VECTOR('',#488,1.);
#70=VECTOR('',#493,1.);
#71=VECTOR('',#496,1.);
#72=VECTOR('',#499,1.);
#73=ORIENTED_EDGE('',*,*,#161,.F.);
#74=ORIENTED_EDGE('',*,*,#162,.F.);
#75=ORIENTED_EDGE('',*,*,#163,.T.);
#76=ORIENTED_EDGE('',*,*,#164,.T.);
#77=ORIENTED_EDGE('',*,*,#165,.T.);
#78=ORIENTED_EDGE('',*,*,#166,.T.);
#79=ORIENTED_EDGE('',*,*,#167,.F.);
#80=ORIENTED_EDGE('',*,*,#168,.F.);
#81=ORIENTED_EDGE('',*,*,#169,.T.);
#82=ORIENTED_EDGE('',*,*,#170,.T.);
#83=ORIENTED_EDGE('',*,*,#171,.F.);
#84=ORIENTED_EDGE('',*,*,#172,.F.);
#85=ORIENTED_EDGE('',*,*,#173,.T.);
#86=ORIENTED_EDGE('',*,*,#174,.F.);
#87=ORIENTED_EDGE('',*,*,#175,.T.);
#88=ORIENTED_EDGE('',*,*,#176,.T.);
#89=ORIENTED_EDGE('',*,*,#177,.T.);
#90=ORIENTED_EDGE('',*,*,#178,.T.);
#91=ORIENTED_EDGE('',*,*,#179,.T.);
#92=ORIENTED_EDGE('',*,*,#180,.F.);
#93=ORIENTED_EDGE('',*,*,#181,.T.);
#94=ORIENTED_EDGE('',*,*,#182,.F.);
#95=ORIENTED_EDGE('',*,*,#183,.F.);
#96=ORIENTED_EDGE('',*,*,#184,.T.);
#97=ORIENTED_EDGE('',*,*,#185,.T.);
#98=ORIENTED_EDGE('',*,*,#186,.F.);
#99=ORIENTED_EDGE('',*,*,#187,.T.);
#100=ORIENTED_EDGE('',*,*,#188,.T.);
#101=ORIENTED_EDGE('',*,*,#189,.T.);
#102=ORIENTED_EDGE('',*,*,#190,.F.);
#103=ORIENTED_EDGE('',*,*,#191,.F.);
#104=ORIENTED_EDGE('',*,*,#192,.F.);
#105=ORIENTED_EDGE('',*,*,#185,.F.);
#106=ORIENTED_EDGE('',*,*,#193,.F.);
#107=ORIENTED_EDGE('',*,*,#171,.T.);
#108=ORIENTED_EDGE('',*,*,#194,.T.);
#109=ORIENTED_EDGE('',*,*,#195,.T.);
#110=ORIENTED_EDGE('',*,*,#184,.F.);
#111=ORIENTED_EDGE('',*,*,#196,.F.);
#112=ORIENTED_EDGE('',*,*,#172,.T.);
#113=ORIENTED_EDGE('',*,*,#193,.T.);
#114=ORIENTED_EDGE('',*,*,#183,.T.);
#115=ORIENTED_EDGE('',*,*,#197,.F.);
#116=ORIENTED_EDGE('',*,*,#173,.F.);
#117=ORIENTED_EDGE('',*,*,#196,.T.);
#118=ORIENTED_EDGE('',*,*,#182,.T.);
#119=ORIENTED_EDGE('',*,*,#198,.T.);
#120=ORIENTED_EDGE('',*,*,#164,.F.);
#121=ORIENTED_EDGE('',*,*,#197,.T.);
#122=ORIENTED_EDGE('',*,*,#166,.F.);
#123=ORIENTED_EDGE('',*,*,#199,.T.);
#124=ORIENTED_EDGE('',*,*,#180,.T.);
#125=ORIENTED_EDGE('',*,*,#200,.F.);
#126=ORIENTED_EDGE('',*,*,#201,.F.);
#127=ORIENTED_EDGE('',*,*,#189,.F.);
#128=ORIENTED_EDGE('',*,*,#202,.F.);
#129=ORIENTED_EDGE('',*,*,#167,.T.);
#130=ORIENTED_EDGE('',*,*,#200,.T.);
#131=ORIENTED_EDGE('',*,*,#188,.F.);
#132=ORIENTED_EDGE('',*,*,#203,.T.);
#133=ORIENTED_EDGE('',*,*,#168,.T.);
#134=ORIENTED_EDGE('',*,*,#202,.T.);
#135=ORIENTED_EDGE('',*,*,#170,.F.);
#136=ORIENTED_EDGE('',*,*,#204,.T.);
#137=ORIENTED_EDGE('',*,*,#186,.T.);
#138=ORIENTED_EDGE('',*,*,#194,.F.);
#139=ORIENTED_EDGE('',*,*,#174,.T.);
#140=ORIENTED_EDGE('',*,*,#179,.F.);
#141=ORIENTED_EDGE('',*,*,#175,.F.);
#142=ORIENTED_EDGE('',*,*,#190,.T.);
#143=ORIENTED_EDGE('',*,*,#163,.F.);
#144=ORIENTED_EDGE('',*,*,#191,.T.);
#145=ORIENTED_EDGE('',*,*,#176,.F.);
#146=ORIENTED_EDGE('',*,*,#192,.T.);
#147=ORIENTED_EDGE('',*,*,#162,.T.);
#148=ORIENTED_EDGE('',*,*,#178,.F.);
#149=ORIENTED_EDGE('',*,*,#161,.T.);
#150=ORIENTED_EDGE('',*,*,#177,.F.);
#151=ORIENTED_EDGE('',*,*,#165,.F.);
#152=ORIENTED_EDGE('',*,*,#198,.F.);
#153=ORIENTED_EDGE('',*,*,#181,.F.);
#154=ORIENTED_EDGE('',*,*,#199,.F.);
#155=ORIENTED_EDGE('',*,*,#169,.F.);
#156=ORIENTED_EDGE('',*,*,#203,.F.);
#157=ORIENTED_EDGE('',*,*,#187,.F.);
#158=ORIENTED_EDGE('',*,*,#204,.F.);
#159=ORIENTED_EDGE('',*,*,#201,.T.);
#160=ORIENTED_EDGE('',*,*,#195,.F.);
#161=EDGE_CURVE('',#205,#205,#239,.T.);
#162=EDGE_CURVE('',#206,#206,#240,.T.);
#163=EDGE_CURVE('',#207,#207,#241,.T.);
#164=EDGE_CURVE('',#208,#209,#21,.T.);
#165=EDGE_CURVE('',#209,#210,#242,.T.);
#166=EDGE_CURVE('',#210,#211,#22,.T.);
#167=EDGE_CURVE('',#212,#211,#23,.T.);
#168=EDGE_CURVE('',#213,#212,#24,.T.);
#169=EDGE_CURVE('',#213,#214,#243,.T.);
#170=EDGE_CURVE('',#214,#215,#25,.T.);
#171=EDGE_CURVE('',#216,#215,#26,.T.);
#172=EDGE_CURVE('',#217,#216,#27,.T.);
#173=EDGE_CURVE('',#217,#208,#28,.T.);
#174=EDGE_CURVE('',#218,#218,#244,.T.);
#175=EDGE_CURVE('',#219,#219,#245,.T.);
#176=EDGE_CURVE('',#220,#220,#246,.T.);
#177=EDGE_CURVE('',#221,#221,#247,.T.);
#178=EDGE_CURVE('',#222,#222,#248,.T.);
#179=EDGE_CURVE('',#223,#223,#249,.T.);
#180=EDGE_CURVE('',#224,#225,#29,.T.);
#181=EDGE_CURVE('',#224,#226,#250,.F.);
#182=EDGE_CURVE('',#227,#226,#30,.T.);
#183=EDGE_CURVE('',#228,#227,#31,.T.);
#184=EDGE_CURVE('',#228,#229,#32,.T.);
#185=EDGE_CURVE('',#229,#230,#33,.T.);
#186=EDGE_CURVE('',#231,#230,#34,.T.);
#187=EDGE_CURVE('',#231,#232,#251,.F.);
#188=EDGE_CURVE('',#232,#233,#35,.T.);
#189=EDGE_CURVE('',#233,#225,#36,.T.);
#190=EDGE_CURVE('',#234,#234,#252,.F.);
#191=EDGE_CURVE('',#235,#235,#253,.F.);
#192=EDGE_CURVE('',#236,#236,#254,.F.);
#193=EDGE_CURVE('',#216,#229,#37,.T.);
#194=EDGE_CURVE('',#215,#230,#38,.T.);
#195=EDGE_CURVE('',#237,#237,#255,.F.);
#196=EDGE_CURVE('',#217,#228,#39,.T.);
#197=EDGE_CURVE('',#208,#227,#40,.T.);
#198=EDGE_CURVE('',#226,#209,#41,.F.);
#199=EDGE_CURVE('',#210,#224,#42,.T.);
#200=EDGE_CURVE('',#211,#225,#43,.T.);
#201=EDGE_CURVE('',#238,#238,#256,.T.);
#202=EDGE_CURVE('',#212,#233,#44,.T.);
#203=EDGE_CURVE('',#232,#213,#45,.F.);
#204=EDGE_CURVE('',#214,#231,#46,.T.);
#205=VERTEX_POINT('',#521);
#206=VERTEX_POINT('',#523);
#207=VERTEX_POINT('',#525);
#208=VERTEX_POINT('',#527);
#209=VERTEX_POINT('',#528);
#210=VERTEX_POINT('',#530);
#211=VERTEX_POINT('',#532);
#212=VERTEX_POINT('',#534);
#213=VERTEX_POINT('',#536);
#214=VERTEX_POINT('',#538);
#215=VERTEX_POINT('',#540);
#216=VERTEX_POINT('',#542);
#217=VERTEX_POINT('',#544);
#218=VERTEX_POINT('',#547);
#219=VERTEX_POINT('',#549);
#220=VERTEX_POINT('',#551);
#221=VERTEX_POINT('',#554);
#222=VERTEX_POINT('',#556);
#223=VERTEX_POINT('',#558);
#224=VERTEX_POINT('',#560);
#225=VERTEX_POINT('',#561);
#226=VERTEX_POINT('',#563);
#227=VERTEX_POINT('',#565);
#228=VERTEX_POINT('',#567);
#229=VERTEX_POINT('',#569);
#230=VERTEX_POINT('',#571);
#231=VERTEX_POINT('',#573);
#232=VERTEX_POINT('',#575);
#233=VERTEX_POINT('',#577);
#234=VERTEX_POINT('',#580);
#235=VERTEX_POINT('',#582);
#236=VERTEX_POINT('',#584);
#237=VERTEX_POINT('',#590);
#238=VERTEX_POINT('',#601);
#239=CIRCLE('',#380,0.00075);
#240=CIRCLE('',#381,0.00075);
#241=CIRCLE('',#382,0.00075);
#242=CIRCLE('',#383,0.002);
#243=CIRCLE('',#384,0.002);
#244=CIRCLE('',#385,0.00075);
#245=CIRCLE('',#386,0.00075);
#246=CIRCLE('',#387,0.00075);
#247=CIRCLE('',#389,0.00075);
#248=CIRCLE('',#390,0.00075);
#249=CIRCLE('',#391,0.00075);
#250=CIRCLE('',#392,0.002);
#251=CIRCLE('',#393,0.002);
#252=CIRCLE('',#394,0.00075);
#253=CIRCLE('',#395,0.00075);
#254=CIRCLE('',#396,0.00075);
#255=CIRCLE('',#399,0.001);
#256=CIRCLE('',#404,0.001);
#257=EDGE_LOOP('',(#73));
#258=EDGE_LOOP('',(#74));
#259=EDGE_LOOP('',(#75));
#260=EDGE_LOOP('',(#76,#77,#78,#79,#80,#81,#82,#83,#84,#85));
#261=EDGE_LOOP('',(#86));
#262=EDGE_LOOP('',(#87));
#263=EDGE_LOOP('',(#88));
#264=EDGE_LOOP('',(#89));
#265=EDGE_LOOP('',(#90));
#266=EDGE_LOOP('',(#91));
#267=EDGE_LOOP('',(#92,#93,#94,#95,#96,#97,#98,#99,#100,#101));
#268=EDGE_LOOP('',(#102));
#269=EDGE_LOOP('',(#103));
#270=EDGE_LOOP('',(#104));
#271=EDGE_LOOP('',(#105,#106,#107,#108));
#272=EDGE_LOOP('',(#109));
#273=EDGE_LOOP('',(#110,#111,#112,#113));
#274=EDGE_LOOP('',(#114,#115,#116,#117));
#275=EDGE_LOOP('',(#118,#119,#120,#121));
#276=EDGE_LOOP('',(#122,#123,#124,#125));
#277=EDGE_LOOP('',(#126));
#278=EDGE_LOOP('',(#127,#128,#129,#130));
#279=EDGE_LOOP('',(#131,#132,#133,#134));
#280=EDGE_LOOP('',(#135,#136,#137,#138));
#281=EDGE_LOOP('',(#139));
#282=EDGE_LOOP('',(#140));
#283=EDGE_LOOP('',(#141));
#284=EDGE_LOOP('',(#142));
#285=EDGE_LOOP('',(#143));
#286=EDGE_LOOP('',(#144));
#287=EDGE_LOOP('',(#145));
#288=EDGE_LOOP('',(#146));
#289=EDGE_LOOP('',(#147));
#290=EDGE_LOOP('',(#148));
#291=EDGE_LOOP('',(#149));
#292=EDGE_LOOP('',(#150));
#293=EDGE_LOOP('',(#151,#152,#153,#154));
#294=EDGE_LOOP('',(#155,#156,#157,#158));
#295=EDGE_LOOP('',(#159));
#296=EDGE_LOOP('',(#160));
#297=FACE_BOUND('',#257,.T.);
#298=FACE_BOUND('',#258,.T.);
#299=FACE_BOUND('',#259,.T.);
#300=FACE_BOUND('',#260,.T.);
#301=FACE_BOUND('',#261,.T.);
#302=FACE_BOUND('',#262,.T.);
#303=FACE_BOUND('',#263,.T.);
#304=FACE_BOUND('',#264,.T.);
#305=FACE_BOUND('',#265,.T.);
#306=FACE_BOUND('',#266,.T.);
#307=FACE_BOUND('',#267,.T.);
#308=FACE_BOUND('',#268,.T.);
#309=FACE_BOUND('',#269,.T.);
#310=FACE_BOUND('',#270,.T.);
#311=FACE_BOUND('',#271,.T.);
#312=FACE_BOUND('',#272,.T.);
#313=FACE_BOUND('',#273,.T.);
#314=FACE_BOUND('',#274,.T.);
#315=FACE_BOUND('',#275,.T.);
#316=FACE_BOUND('',#276,.T.);
#317=FACE_BOUND('',#277,.T.);
#318=FACE_BOUND('',#278,.T.);
#319=FACE_BOUND('',#279,.T.);
#320=FACE_BOUND('',#280,.T.);
#321=FACE_BOUND('',#281,.T.);
#322=FACE_BOUND('',#282,.T.);
#323=FACE_BOUND('',#283,.T.);
#324=FACE_BOUND('',#284,.T.);
#325=FACE_BOUND('',#285,.T.);
#326=FACE_BOUND('',#286,.T.);
#327=FACE_BOUND('',#287,.T.);
#328=FACE_BOUND('',#288,.T.);
#329=FACE_BOUND('',#289,.T.);
#330=FACE_BOUND('',#290,.T.);
#331=FACE_BOUND('',#291,.T.);
#332=FACE_BOUND('',#292,.T.);
#333=FACE_BOUND('',#293,.T.);
#334=FACE_BOUND('',#294,.T.);
#335=FACE_BOUND('',#295,.T.);
#336=FACE_BOUND('',#296,.T.);
#337=PLANE('',#379);
#338=PLANE('',#388);
#339=PLANE('',#397);
#340=PLANE('',#398);
#341=PLANE('',#400);
#342=PLANE('',#401);
#343=PLANE('',#402);
#344=PLANE('',#403);
#345=PLANE('',#405);
#346=PLANE('',#406);
#347=ADVANCED_FACE('',(#297,#298,#299,#300,#301,#302,#303),#337,.T.);
#348=ADVANCED_FACE('',(#304,#305,#306,#307,#308,#309,#310),#338,.F.);
#349=ADVANCED_FACE('',(#311),#339,.T.);
#350=ADVANCED_FACE('',(#312,#313),#340,.T.);
#351=ADVANCED_FACE('',(#314),#341,.F.);
#352=ADVANCED_FACE('',(#315),#342,.F.);
#353=ADVANCED_FACE('',(#316),#343,.F.);
#354=ADVANCED_FACE('',(#317,#318),#344,.T.);
#355=ADVANCED_FACE('',(#319),#345,.T.);
#356=ADVANCED_FACE('',(#320),#346,.F.);
#357=ADVANCED_FACE('',(#321,#322),#12,.F.);
#358=ADVANCED_FACE('',(#323,#324),#13,.F.);
#359=ADVANCED_FACE('',(#325,#326),#14,.F.);
#360=ADVANCED_FACE('',(#327,#328),#15,.F.);
#361=ADVANCED_FACE('',(#329,#330),#16,.F.);
#362=ADVANCED_FACE('',(#331,#332),#17,.F.);
#363=ADVANCED_FACE('',(#333),#18,.T.);
#364=ADVANCED_FACE('',(#334),#19,.T.);
#365=ADVANCED_FACE('',(#335,#336),#20,.F.);
#366=CLOSED_SHELL('',(#347,#348,#349,#350,#351,#352,#353,#354,#355,#356,
#357,#358,#359,#360,#361,#362,#363,#364,#365));
#367=STYLED_ITEM('',(#368),#375);
#368=PRESENTATION_STYLE_ASSIGNMENT((#369));
#369=SURFACE_STYLE_USAGE(.BOTH.,#370);
#370=SURFACE_SIDE_STYLE('',(#371));
#371=SURFACE_STYLE_FILL_AREA(#372);
#372=FILL_AREA_STYLE('',(#373));
#373=FILL_AREA_STYLE_COLOUR('',#374);
#374=COLOUR_RGB('',0.972549019607843,0.529411764705882,0.00392156862745098);
#375=MANIFOLD_SOLID_BREP('Part 1',#366);
#376=SHAPE_DEFINITION_REPRESENTATION(#622,#377);
#377=SHAPE_REPRESENTATION('Part 1',(#378),#617);
#378=AXIS2_PLACEMENT_3D('',#518,#416,#417);
#379=AXIS2_PLACEMENT_3D('',#519,#418,#419);
#380=AXIS2_PLACEMENT_3D('',#520,#420,#421);
#381=AXIS2_PLACEMENT_3D('',#522,#422,#423);
#382=AXIS2_PLACEMENT_3D('',#524,#424,#425);
#383=AXIS2_PLACEMENT_3D('',#529,#427,#428);
#384=AXIS2_PLACEMENT_3D('',#537,#432,#433);
#385=AXIS2_PLACEMENT_3D('',#546,#438,#439);
#386=AXIS2_PLACEMENT_3D('',#548,#440,#441);
#387=AXIS2_PLACEMENT_3D('',#550,#442,#443);
#388=AXIS2_PLACEMENT_3D('',#552,#444,#445);
#389=AXIS2_PLACEMENT_3D('',#553,#446,#447);
#390=AXIS2_PLACEMENT_3D('',#555,#448,#449);
#391=AXIS2_PLACEMENT_3D('',#557,#450,#451);
#392=AXIS2_PLACEMENT_3D('',#562,#453,#454);
#393=AXIS2_PLACEMENT_3D('',#574,#460,#461);
#394=AXIS2_PLACEMENT_3D('',#579,#464,#465);
#395=AXIS2_PLACEMENT_3D('',#581,#466,#467);
#396=AXIS2_PLACEMENT_3D('',#583,#468,#469);
#397=AXIS2_PLACEMENT_3D('',#585,#470,#471);
#398=AXIS2_PLACEMENT_3D('',#588,#474,#475);
#399=AXIS2_PLACEMENT_3D('',#589,#476,#477);
#400=AXIS2_PLACEMENT_3D('',#592,#479,#480);
#401=AXIS2_PLACEMENT_3D('',#594,#482,#483);
#402=AXIS2_PLACEMENT_3D('',#596,#485,#486);
#403=AXIS2_PLACEMENT_3D('',#599,#489,#490);
#404=AXIS2_PLACEMENT_3D('',#600,#491,#492);
#405=AXIS2_PLACEMENT_3D('',#603,#494,#495);
#406=AXIS2_PLACEMENT_3D('',#605,#497,#498);
#407=AXIS2_PLACEMENT_3D('',#607,#500,#501);
#408=AXIS2_PLACEMENT_3D('',#608,#502,#503);
#409=AXIS2_PLACEMENT_3D('',#609,#504,#505);
#410=AXIS2_PLACEMENT_3D('',#610,#506,#507);
#411=AXIS2_PLACEMENT_3D('',#611,#508,#509);
#412=AXIS2_PLACEMENT_3D('',#612,#510,#511);
#413=AXIS2_PLACEMENT_3D('',#613,#512,#513);
#414=AXIS2_PLACEMENT_3D('',#614,#514,#515);
#415=AXIS2_PLACEMENT_3D('',#615,#516,#517);
#416=DIRECTION('',(0.,0.,1.));
#417=DIRECTION('',(1.,0.,0.));
#418=DIRECTION('',(0.,-1.,0.));
#419=DIRECTION('',(1.,0.,0.));
#420=DIRECTION('',(0.,-1.,0.));
#421=DIRECTION('',(0.,0.,-1.));
#422=DIRECTION('',(0.,-1.,0.));
#423=DIRECTION('',(0.,0.,-1.));
#424=DIRECTION('',(0.,1.,0.));
#425=DIRECTION('',(0.,0.,-1.));
#426=DIRECTION('',(1.,0.,0.));
#427=DIRECTION('',(0.,-1.,0.));
#428=DIRECTION('',(0.,0.,-1.));
#429=DIRECTION('',(2.89120579329468E-16,0.,1.));
#430=DIRECTION('',(1.,0.,0.));
#431=DIRECTION('',(2.89120579329468E-16,0.,1.));
#432=DIRECTION('',(0.,-1.,0.));
#433=DIRECTION('',(0.,0.,-1.));
#434=DIRECTION('',(1.,0.,0.));
#435=DIRECTION('',(-3.85494105772624E-16,0.,-1.));
#436=DIRECTION('',(-1.,0.,1.0842021724855E-16));
#437=DIRECTION('',(-3.85494105772624E-16,0.,-1.));
#438=DIRECTION('',(0.,-1.,0.));
#439=DIRECTION('',(0.,0.,-1.));
#440=DIRECTION('',(0.,1.,0.));
#441=DIRECTION('',(0.,0.,-1.));
#442=DIRECTION('',(0.,1.,0.));
#443=DIRECTION('',(0.,0.,-1.));
#444=DIRECTION('',(0.,-1.,0.));
#445=DIRECTION('',(1.,0.,0.));
#446=DIRECTION('',(0.,-1.,0.));
#447=DIRECTION('',(0.,0.,-1.));
#448=DIRECTION('',(0.,-1.,0.));
#449=DIRECTION('',(0.,0.,-1.));
#450=DIRECTION('',(0.,-1.,0.));
#451=DIRECTION('',(0.,0.,-1.));
#452=DIRECTION('',(2.89120579329468E-16,0.,1.));
#453=DIRECTION('',(0.,-1.,0.));
#454=DIRECTION('',(0.,0.,-1.));
#455=DIRECTION('',(1.,0.,0.));
#456=DIRECTION('',(-3.85494105772624E-16,0.,-1.));
#457=DIRECTION('',(-1.,0.,1.0842021724855E-16));
#458=DIRECTION('',(-3.85494105772624E-16,0.,-1.));
#459=DIRECTION('',(1.,0.,0.));
#460=DIRECTION('',(0.,-1.,0.));
#461=DIRECTION('',(0.,0.,-1.));
#462=DIRECTION('',(2.89120579329468E-16,0.,1.));
#463=DIRECTION('',(1.,0.,0.));
#464=DIRECTION('',(0.,-1.,0.));
#465=DIRECTION('',(0.,0.,-1.));
#466=DIRECTION('',(0.,-1.,0.));
#467=DIRECTION('',(0.,0.,-1.));
#468=DIRECTION('',(0.,-1.,0.));
#469=DIRECTION('',(0.,0.,-1.));
#470=DIRECTION('',(1.,0.,-3.85494105772624E-16));
#471=DIRECTION('',(-3.85494105772624E-16,0.,-1.));
#472=DIRECTION('',(0.,1.,0.));
#473=DIRECTION('',(0.,1.,0.));
#474=DIRECTION('',(-1.0842021724855E-16,0.,-1.));
#475=DIRECTION('',(-1.,0.,1.0842021724855E-16));
#476=DIRECTION('',(-1.0842021724855E-16,0.,-1.));
#477=DIRECTION('',(-1.,0.,1.0842021724855E-16));
#478=DIRECTION('',(0.,1.,0.));
#479=DIRECTION('',(1.,0.,-3.85494105772624E-16));
#480=DIRECTION('',(-3.85494105772624E-16,0.,-1.));
#481=DIRECTION('',(0.,1.,0.));
#482=DIRECTION('',(0.,0.,1.));
#483=DIRECTION('',(1.,0.,0.));
#484=DIRECTION('',(0.,1.,0.));
#485=DIRECTION('',(-1.,0.,2.89120579329468E-16));
#486=DIRECTION('',(2.89120579329468E-16,0.,1.));
#487=DIRECTION('',(0.,1.,0.));
#488=DIRECTION('',(0.,1.,0.));
#489=DIRECTION('',(0.,0.,1.));
#490=DIRECTION('',(1.,0.,0.));
#491=DIRECTION('',(0.,0.,1.));
#492=DIRECTION('',(1.,0.,0.));
#493=DIRECTION('',(0.,1.,0.));
#494=DIRECTION('',(-1.,0.,2.89120579329468E-16));
#495=DIRECTION('',(2.89120579329468E-16,0.,1.));
#496=DIRECTION('',(0.,1.,0.));
#497=DIRECTION('',(0.,0.,1.));
#498=DIRECTION('',(1.,0.,0.));
#499=DIRECTION('',(0.,1.,0.));
#500=DIRECTION('',(0.,-1.,0.));
#501=DIRECTION('',(0.,0.,-1.));
#502=DIRECTION('',(0.,-1.,0.));
#503=DIRECTION('',(0.,0.,-1.));
#504=DIRECTION('',(0.,-1.,0.));
#505=DIRECTION('',(0.,0.,-1.));
#506=DIRECTION('',(0.,-1.,0.));
#507=DIRECTION('',(0.,0.,-1.));
#508=DIRECTION('',(0.,-1.,0.));
#509=DIRECTION('',(0.,0.,-1.));
#510=DIRECTION('',(0.,-1.,0.));
#511=DIRECTION('',(0.,0.,-1.));
#512=DIRECTION('',(0.,1.,0.));
#513=DIRECTION('',(0.,0.,1.));
#514=DIRECTION('',(0.,-1.,0.));
#515=DIRECTION('',(0.,0.,-1.));
#516=DIRECTION('',(0.,0.,1.));
#517=DIRECTION('',(1.,0.,0.));
#518=CARTESIAN_POINT('',(0.,0.,0.));
#519=CARTESIAN_POINT('',(0.,-0.005,0.0015));
#520=CARTESIAN_POINT('',(-0.0135,-0.005,0.0025));
#521=CARTESIAN_POINT('',(-0.0135,-0.005,0.00175));
#522=CARTESIAN_POINT('',(-0.0135,-0.005,-0.0025));
#523=CARTESIAN_POINT('',(-0.0135,-0.005,-0.00325));
#524=CARTESIAN_POINT('',(0.0135,-0.005,3.73221164141874E-18));
#525=CARTESIAN_POINT('',(0.0135,-0.005,-0.000749999999999996));
#526=CARTESIAN_POINT('',(0.0135,-0.005,-0.0045));
#527=CARTESIAN_POINT('',(0.012,-0.005,-0.0045));
#528=CARTESIAN_POINT('',(0.013,-0.005,-0.0045));
#529=CARTESIAN_POINT('',(0.013,-0.005,-0.0025));
#530=CARTESIAN_POINT('',(0.015,-0.005,-0.0025));
#531=CARTESIAN_POINT('',(0.015,-0.005,0.0015));
#532=CARTESIAN_POINT('',(0.015,-0.005,0.0075));
#533=CARTESIAN_POINT('',(0.,-0.005,0.0075));
#534=CARTESIAN_POINT('',(-0.015,-0.005,0.0075));
#535=CARTESIAN_POINT('',(-0.015,-0.005,0.0015));
#536=CARTESIAN_POINT('',(-0.015,-0.005,-0.0025));
#537=CARTESIAN_POINT('',(-0.013,-0.005,-0.0025));
#538=CARTESIAN_POINT('',(-0.013,-0.005,-0.0045));
#539=CARTESIAN_POINT('',(-0.0135,-0.005,-0.0045));
#540=CARTESIAN_POINT('',(-0.012,-0.005,-0.0045));
#541=CARTESIAN_POINT('',(-0.012,-0.005,1.7347234759768E-18));
#542=CARTESIAN_POINT('',(-0.012,-0.005,0.0045));
#543=CARTESIAN_POINT('',(3.46944695195361E-18,-0.005,0.0045));
#544=CARTESIAN_POINT('',(0.012,-0.005,0.0045));
#545=CARTESIAN_POINT('',(0.012,-0.005,0.));
#546=CARTESIAN_POINT('',(-0.0135,-0.005,4.79605123962228E-19));
#547=CARTESIAN_POINT('',(-0.0135,-0.005,-0.00075));
#548=CARTESIAN_POINT('',(0.0135,-0.005,0.0025));
#549=CARTESIAN_POINT('',(0.0135,-0.005,0.00175));
#550=CARTESIAN_POINT('',(0.0135,-0.005,-0.0025));
#551=CARTESIAN_POINT('',(0.0135,-0.005,-0.00325));
#552=CARTESIAN_POINT('',(0.,0.005,0.0015));
#553=CARTESIAN_POINT('',(-0.0135,0.005,0.0025));
#554=CARTESIAN_POINT('',(-0.0135,0.005,0.00175));
#555=CARTESIAN_POINT('',(-0.0135,0.005,-0.0025));
#556=CARTESIAN_POINT('',(-0.0135,0.005,-0.00325));
#557=CARTESIAN_POINT('',(-0.0135,0.005,4.79605123962228E-19));
#558=CARTESIAN_POINT('',(-0.0135,0.005,-0.00075));
#559=CARTESIAN_POINT('',(0.015,0.005,0.0015));
#560=CARTESIAN_POINT('',(0.015,0.005,-0.0025));
#561=CARTESIAN_POINT('',(0.015,0.005,0.0075));
#562=CARTESIAN_POINT('',(0.013,0.005,-0.0025));
#563=CARTESIAN_POINT('',(0.013,0.005,-0.0045));
#564=CARTESIAN_POINT('',(0.0135,0.005,-0.0045));
#565=CARTESIAN_POINT('',(0.012,0.005,-0.0045));
#566=CARTESIAN_POINT('',(0.012,0.005,0.));
#567=CARTESIAN_POINT('',(0.012,0.005,0.0045));
#568=CARTESIAN_POINT('',(3.46944695195361E-18,0.005,0.0045));
#569=CARTESIAN_POINT('',(-0.012,0.005,0.0045));
#570=CARTESIAN_POINT('',(-0.012,0.005,1.7347234759768E-18));
#571=CARTESIAN_POINT('',(-0.012,0.005,-0.0045));
#572=CARTESIAN_POINT('',(-0.0135,0.005,-0.0045));
#573=CARTESIAN_POINT('',(-0.013,0.005,-0.0045));
#574=CARTESIAN_POINT('',(-0.013,0.005,-0.0025));
#575=CARTESIAN_POINT('',(-0.015,0.005,-0.0025));
#576=CARTESIAN_POINT('',(-0.015,0.005,0.0015));
#577=CARTESIAN_POINT('',(-0.015,0.005,0.0075));
#578=CARTESIAN_POINT('',(0.,0.005,0.0075));
#579=CARTESIAN_POINT('',(0.0135,0.005,0.0025));
#580=CARTESIAN_POINT('',(0.0135,0.005,0.00175));
#581=CARTESIAN_POINT('',(0.0135,0.005,3.73221164141874E-18));
#582=CARTESIAN_POINT('',(0.0135,0.005,-0.000749999999999996));
#583=CARTESIAN_POINT('',(0.0135,0.005,-0.0025));
#584=CARTESIAN_POINT('',(0.0135,0.005,-0.00325));
#585=CARTESIAN_POINT('',(-0.012,-0.005,1.7347234759768E-18));
#586=CARTESIAN_POINT('',(-0.012,-0.005,0.0045));
#587=CARTESIAN_POINT('',(-0.012,-0.005,-0.0045));
#588=CARTESIAN_POINT('',(3.46944695195361E-18,-0.005,0.0045));
#589=CARTESIAN_POINT('',(0.,6.12323399573677E-20,0.0045));
#590=CARTESIAN_POINT('',(-0.001,6.12323399573677E-20,0.0045));
#591=CARTESIAN_POINT('',(0.012,-0.005,0.0045));
#592=CARTESIAN_POINT('',(0.012,-0.005,0.));
#593=CARTESIAN_POINT('',(0.012,-0.005,-0.0045));
#594=CARTESIAN_POINT('',(0.0135,-0.005,-0.0045));
#595=CARTESIAN_POINT('',(0.013,-0.005,-0.0045));
#596=CARTESIAN_POINT('',(0.015,-0.005,0.0015));
#597=CARTESIAN_POINT('',(0.015,-0.005,-0.0025));
#598=CARTESIAN_POINT('',(0.015,-0.005,0.0075));
#599=CARTESIAN_POINT('',(0.,-0.005,0.0075));
#600=CARTESIAN_POINT('',(0.,6.12323399573677E-20,0.0075));
#601=CARTESIAN_POINT('',(0.001,6.12323399573677E-20,0.0075));
#602=CARTESIAN_POINT('',(-0.015,-0.005,0.0075));
#603=CARTESIAN_POINT('',(-0.015,-0.005,0.0015));
#604=CARTESIAN_POINT('',(-0.015,-0.005,-0.0025));
#605=CARTESIAN_POINT('',(-0.0135,-0.005,-0.0045));
#606=CARTESIAN_POINT('',(-0.013,0.005,-0.0045));
#607=CARTESIAN_POINT('',(-0.0135,0.0288330690505756,4.79605123962228E-19));
#608=CARTESIAN_POINT('',(0.0135,0.0288330690505756,0.0025));
#609=CARTESIAN_POINT('',(0.0135,0.0288330690505756,3.73221164141874E-18));
#610=CARTESIAN_POINT('',(0.0135,0.0288330690505756,-0.0025));
#611=CARTESIAN_POINT('',(-0.0135,0.0288330690505756,-0.0025));
#612=CARTESIAN_POINT('',(-0.0135,0.0288330690505756,0.0025));
#613=CARTESIAN_POINT('',(0.013,-0.005,-0.0025));
#614=CARTESIAN_POINT('',(-0.013,-0.005,-0.0025));
#615=CARTESIAN_POINT('',(0.,6.12323399573677E-20,0.004498));
#616=MECHANICAL_DESIGN_GEOMETRIC_PRESENTATION_REPRESENTATION('',(#367),
#617);
#617=(
GEOMETRIC_REPRESENTATION_CONTEXT(3)
GLOBAL_UNCERTAINTY_ASSIGNED_CONTEXT((#618))
GLOBAL_UNIT_ASSIGNED_CONTEXT((#621,#620,#619))
REPRESENTATION_CONTEXT('Part 1','TOP_LEVEL_ASSEMBLY_PART')
);
#618=UNCERTAINTY_MEASURE_WITH_UNIT(LENGTH_MEASURE(1.E-8),#621,
'DISTANCE_ACCURACY_VALUE','Maximum Tolerance applied to model');
#619=(
NAMED_UNIT(*)
SI_UNIT($,.STERADIAN.)
SOLID_ANGLE_UNIT()
);
#620=(
NAMED_UNIT(*)
PLANE_ANGLE_UNIT()
SI_UNIT($,.RADIAN.)
);
#621=(
LENGTH_UNIT()
NAMED_UNIT(*)
SI_UNIT($,.METRE.)
);
#622=PRODUCT_DEFINITION_SHAPE('','',#623);
#623=PRODUCT_DEFINITION('','',#625,#624);
#624=PRODUCT_DEFINITION_CONTEXT('',#631,'design');
#625=PRODUCT_DEFINITION_FORMATION_WITH_SPECIFIED_SOURCE('','',#627,
 .NOT_KNOWN.);
#626=PRODUCT_RELATED_PRODUCT_CATEGORY('','',(#627));
#627=PRODUCT('Part 1','Part 1','Part 1',(#629));
#628=PRODUCT_CATEGORY('','');
#629=PRODUCT_CONTEXT('',#631,'mechanical');
#630=APPLICATION_PROTOCOL_DEFINITION('international standard',
'ap242_managed_model_based_3d_engineering',2020,#631);
#631=APPLICATION_CONTEXT('managed model based 3d engineering');
ENDSEC;
END-ISO-10303-21;
