ISO-10303-21;
HEADER;
/* Generated by software containing ST-Developer
 * from STEP Tools, Inc. (www.steptools.com) 
 */
/* OPTION: using custom renumber hook */

FILE_DESCRIPTION(
/* description */ ('STEP AP242 Edition 2',
'CAx-IF Rec.Pracs.---Representation and Presentation of Product Manufa
cturing Information (PMI)---4.0---2014-10-13',
'CAx-IF Rec.Pracs.---3D Tessellated Geometry---0.4---2014-09-14','2;1',
'CAx-IF Rec.Pracs.---User Defined Attributes---1.5---2016-08-15'),
/* implementation_level */ '2;1');

FILE_NAME(
/* name */ 'Thumb_connector',
/* time_stamp */ '2026-05-19T16:25:48Z',
/* author */ (''),
/* organization */ (''),
/* preprocessor_version */ 'ST-DEVELOPER v20',
/* originating_system */ 'ONSHAPE BY PTC INC, 1.215',
/* authorisation */ '  ');

FILE_SCHEMA (('AP242_MANAGED_MODEL_BASED_3D_ENGINEERING_MIM_LF { 1 0 10303 442 3 1 4 }'));
ENDSEC;

DATA;
#10=SHAPE_REPRESENTATION_RELATIONSHIP('','',#675,#11);
#11=ADVANCED_BREP_SHAPE_REPRESENTATION('',(#673),#1106);
#12=B_SPLINE_CURVE_WITH_KNOTS('',3,(#1047,#1048,#1049,#1050,#1051,#1052,
#1053,#1054,#1055,#1056),.UNSPECIFIED.,.F.,.F.,(4,1,1,1,1,1,1,4),(6.02878804797657E-18,
0.000471839676084975,0.000943679352169943,0.00141551902825491,0.00188735870433988,
0.00235919838042485,0.00283103805650982,0.00377471740867975),
 .UNSPECIFIED.);
#13=B_SPLINE_CURVE_WITH_KNOTS('',3,(#1059,#1060,#1061,#1062,#1063,#1064),
 .UNSPECIFIED.,.F.,.F.,(4,1,1,4),(0.,0.000863308365681843,0.00129496254852276,
0.00172661673136369),.UNSPECIFIED.);
#14=ELLIPSE('',#699,0.00101539335209459,0.00075);
#15=ELLIPSE('',#709,0.00141911553049387,0.00075);
#16=CYLINDRICAL_SURFACE('',#694,0.01);
#17=CYLINDRICAL_SURFACE('',#695,0.003);
#18=CYLINDRICAL_SURFACE('',#700,0.002);
#19=CYLINDRICAL_SURFACE('',#710,0.0025);
#20=CYLINDRICAL_SURFACE('',#711,0.0005);
#21=CYLINDRICAL_SURFACE('',#712,0.0005);
#22=CYLINDRICAL_SURFACE('',#718,0.00075);
#23=CYLINDRICAL_SURFACE('',#721,0.00075);
#24=CYLINDRICAL_SURFACE('',#722,0.00075);
#25=CIRCLE('',#687,0.0005);
#26=CIRCLE('',#688,0.0005);
#27=CIRCLE('',#689,0.0025);
#28=CIRCLE('',#690,0.01);
#29=CIRCLE('',#692,0.003);
#30=CIRCLE('',#693,0.01);
#31=CIRCLE('',#696,0.003);
#32=CIRCLE('',#701,0.002);
#33=CIRCLE('',#702,0.002);
#34=CIRCLE('',#703,0.002);
#35=CIRCLE('',#705,0.0005);
#36=CIRCLE('',#706,0.0005);
#37=CIRCLE('',#707,0.0025);
#38=CIRCLE('',#714,0.00075);
#39=CIRCLE('',#715,0.00075);
#40=CIRCLE('',#716,0.00075);
#41=CIRCLE('',#719,0.00075);
#42=CIRCLE('',#723,0.00075);
#43=ORIENTED_EDGE('',*,*,#221,.F.);
#44=ORIENTED_EDGE('',*,*,#222,.T.);
#45=ORIENTED_EDGE('',*,*,#223,.T.);
#46=ORIENTED_EDGE('',*,*,#224,.T.);
#47=ORIENTED_EDGE('',*,*,#225,.T.);
#48=ORIENTED_EDGE('',*,*,#226,.F.);
#49=ORIENTED_EDGE('',*,*,#227,.F.);
#50=ORIENTED_EDGE('',*,*,#228,.T.);
#51=ORIENTED_EDGE('',*,*,#229,.F.);
#52=ORIENTED_EDGE('',*,*,#230,.T.);
#53=ORIENTED_EDGE('',*,*,#231,.F.);
#54=ORIENTED_EDGE('',*,*,#232,.T.);
#55=ORIENTED_EDGE('',*,*,#233,.T.);
#56=ORIENTED_EDGE('',*,*,#234,.F.);
#57=ORIENTED_EDGE('',*,*,#235,.T.);
#58=ORIENTED_EDGE('',*,*,#236,.T.);
#59=ORIENTED_EDGE('',*,*,#237,.T.);
#60=ORIENTED_EDGE('',*,*,#238,.F.);
#61=ORIENTED_EDGE('',*,*,#239,.T.);
#62=ORIENTED_EDGE('',*,*,#240,.F.);
#63=ORIENTED_EDGE('',*,*,#241,.T.);
#64=ORIENTED_EDGE('',*,*,#242,.T.);
#65=ORIENTED_EDGE('',*,*,#243,.T.);
#66=ORIENTED_EDGE('',*,*,#244,.F.);
#67=ORIENTED_EDGE('',*,*,#243,.F.);
#68=ORIENTED_EDGE('',*,*,#245,.T.);
#69=ORIENTED_EDGE('',*,*,#246,.F.);
#70=ORIENTED_EDGE('',*,*,#247,.F.);
#71=ORIENTED_EDGE('',*,*,#239,.F.);
#72=ORIENTED_EDGE('',*,*,#248,.F.);
#73=ORIENTED_EDGE('',*,*,#222,.F.);
#74=ORIENTED_EDGE('',*,*,#249,.F.);
#75=ORIENTED_EDGE('',*,*,#223,.F.);
#76=ORIENTED_EDGE('',*,*,#248,.T.);
#77=ORIENTED_EDGE('',*,*,#238,.T.);
#78=ORIENTED_EDGE('',*,*,#250,.T.);
#79=ORIENTED_EDGE('',*,*,#251,.T.);
#80=ORIENTED_EDGE('',*,*,#252,.F.);
#81=ORIENTED_EDGE('',*,*,#253,.F.);
#82=ORIENTED_EDGE('',*,*,#254,.T.);
#83=ORIENTED_EDGE('',*,*,#255,.T.);
#84=ORIENTED_EDGE('',*,*,#256,.T.);
#85=ORIENTED_EDGE('',*,*,#257,.T.);
#86=ORIENTED_EDGE('',*,*,#258,.F.);
#87=ORIENTED_EDGE('',*,*,#259,.T.);
#88=ORIENTED_EDGE('',*,*,#258,.T.);
#89=ORIENTED_EDGE('',*,*,#260,.T.);
#90=ORIENTED_EDGE('',*,*,#261,.F.);
#91=ORIENTED_EDGE('',*,*,#252,.T.);
#92=ORIENTED_EDGE('',*,*,#262,.T.);
#93=ORIENTED_EDGE('',*,*,#237,.F.);
#94=ORIENTED_EDGE('',*,*,#263,.T.);
#95=ORIENTED_EDGE('',*,*,#256,.F.);
#96=ORIENTED_EDGE('',*,*,#264,.T.);
#97=ORIENTED_EDGE('',*,*,#250,.F.);
#98=ORIENTED_EDGE('',*,*,#244,.T.);
#99=ORIENTED_EDGE('',*,*,#249,.T.);
#100=ORIENTED_EDGE('',*,*,#221,.T.);
#101=ORIENTED_EDGE('',*,*,#265,.T.);
#102=ORIENTED_EDGE('',*,*,#266,.T.);
#103=ORIENTED_EDGE('',*,*,#267,.T.);
#104=ORIENTED_EDGE('',*,*,#268,.T.);
#105=ORIENTED_EDGE('',*,*,#229,.T.);
#106=ORIENTED_EDGE('',*,*,#269,.F.);
#107=ORIENTED_EDGE('',*,*,#270,.F.);
#108=ORIENTED_EDGE('',*,*,#271,.T.);
#109=ORIENTED_EDGE('',*,*,#272,.T.);
#110=ORIENTED_EDGE('',*,*,#273,.T.);
#111=ORIENTED_EDGE('',*,*,#261,.T.);
#112=ORIENTED_EDGE('',*,*,#274,.T.);
#113=ORIENTED_EDGE('',*,*,#266,.F.);
#114=ORIENTED_EDGE('',*,*,#275,.T.);
#115=ORIENTED_EDGE('',*,*,#253,.T.);
#116=ORIENTED_EDGE('',*,*,#228,.F.);
#117=ORIENTED_EDGE('',*,*,#276,.T.);
#118=ORIENTED_EDGE('',*,*,#277,.T.);
#119=ORIENTED_EDGE('',*,*,#278,.F.);
#120=ORIENTED_EDGE('',*,*,#224,.F.);
#121=ORIENTED_EDGE('',*,*,#255,.F.);
#122=ORIENTED_EDGE('',*,*,#279,.T.);
#123=ORIENTED_EDGE('',*,*,#269,.T.);
#124=ORIENTED_EDGE('',*,*,#270,.T.);
#125=ORIENTED_EDGE('',*,*,#279,.F.);
#126=ORIENTED_EDGE('',*,*,#254,.F.);
#127=ORIENTED_EDGE('',*,*,#275,.F.);
#128=ORIENTED_EDGE('',*,*,#280,.F.);
#129=ORIENTED_EDGE('',*,*,#281,.F.);
#130=ORIENTED_EDGE('',*,*,#282,.T.);
#131=ORIENTED_EDGE('',*,*,#277,.F.);
#132=ORIENTED_EDGE('',*,*,#227,.T.);
#133=ORIENTED_EDGE('',*,*,#283,.T.);
#134=ORIENTED_EDGE('',*,*,#284,.F.);
#135=ORIENTED_EDGE('',*,*,#285,.F.);
#136=ORIENTED_EDGE('',*,*,#280,.T.);
#137=ORIENTED_EDGE('',*,*,#276,.F.);
#138=ORIENTED_EDGE('',*,*,#286,.F.);
#139=ORIENTED_EDGE('',*,*,#287,.T.);
#140=ORIENTED_EDGE('',*,*,#288,.F.);
#141=ORIENTED_EDGE('',*,*,#225,.F.);
#142=ORIENTED_EDGE('',*,*,#278,.T.);
#143=ORIENTED_EDGE('',*,*,#282,.F.);
#144=ORIENTED_EDGE('',*,*,#289,.T.);
#145=ORIENTED_EDGE('',*,*,#290,.T.);
#146=ORIENTED_EDGE('',*,*,#291,.T.);
#147=ORIENTED_EDGE('',*,*,#292,.T.);
#148=ORIENTED_EDGE('',*,*,#293,.T.);
#149=ORIENTED_EDGE('',*,*,#287,.F.);
#150=ORIENTED_EDGE('',*,*,#294,.T.);
#151=ORIENTED_EDGE('',*,*,#290,.F.);
#152=ORIENTED_EDGE('',*,*,#295,.F.);
#153=ORIENTED_EDGE('',*,*,#284,.T.);
#154=ORIENTED_EDGE('',*,*,#281,.T.);
#155=ORIENTED_EDGE('',*,*,#285,.T.);
#156=ORIENTED_EDGE('',*,*,#295,.T.);
#157=ORIENTED_EDGE('',*,*,#289,.F.);
#158=ORIENTED_EDGE('',*,*,#296,.F.);
#159=ORIENTED_EDGE('',*,*,#297,.F.);
#160=ORIENTED_EDGE('',*,*,#298,.F.);
#161=ORIENTED_EDGE('',*,*,#293,.F.);
#162=ORIENTED_EDGE('',*,*,#299,.T.);
#163=ORIENTED_EDGE('',*,*,#291,.F.);
#164=ORIENTED_EDGE('',*,*,#283,.F.);
#165=ORIENTED_EDGE('',*,*,#226,.T.);
#166=ORIENTED_EDGE('',*,*,#288,.T.);
#167=ORIENTED_EDGE('',*,*,#298,.T.);
#168=ORIENTED_EDGE('',*,*,#273,.F.);
#169=ORIENTED_EDGE('',*,*,#297,.T.);
#170=ORIENTED_EDGE('',*,*,#272,.F.);
#171=ORIENTED_EDGE('',*,*,#296,.T.);
#172=ORIENTED_EDGE('',*,*,#271,.F.);
#173=ORIENTED_EDGE('',*,*,#300,.F.);
#174=ORIENTED_EDGE('',*,*,#301,.F.);
#175=ORIENTED_EDGE('',*,*,#302,.F.);
#176=ORIENTED_EDGE('',*,*,#251,.F.);
#177=ORIENTED_EDGE('',*,*,#264,.F.);
#178=ORIENTED_EDGE('',*,*,#259,.F.);
#179=ORIENTED_EDGE('',*,*,#262,.F.);
#180=ORIENTED_EDGE('',*,*,#268,.F.);
#181=ORIENTED_EDGE('',*,*,#303,.T.);
#182=ORIENTED_EDGE('',*,*,#235,.F.);
#183=ORIENTED_EDGE('',*,*,#265,.F.);
#184=ORIENTED_EDGE('',*,*,#230,.F.);
#185=ORIENTED_EDGE('',*,*,#304,.F.);
#186=ORIENTED_EDGE('',*,*,#302,.T.);
#187=ORIENTED_EDGE('',*,*,#304,.T.);
#188=ORIENTED_EDGE('',*,*,#286,.T.);
#189=ORIENTED_EDGE('',*,*,#294,.F.);
#190=ORIENTED_EDGE('',*,*,#301,.T.);
#191=ORIENTED_EDGE('',*,*,#305,.F.);
#192=ORIENTED_EDGE('',*,*,#300,.T.);
#193=ORIENTED_EDGE('',*,*,#299,.F.);
#194=ORIENTED_EDGE('',*,*,#292,.F.);
#195=ORIENTED_EDGE('',*,*,#305,.T.);
#196=ORIENTED_EDGE('',*,*,#306,.T.);
#197=ORIENTED_EDGE('',*,*,#232,.F.);
#198=ORIENTED_EDGE('',*,*,#307,.F.);
#199=ORIENTED_EDGE('',*,*,#245,.F.);
#200=ORIENTED_EDGE('',*,*,#242,.F.);
#201=ORIENTED_EDGE('',*,*,#246,.T.);
#202=ORIENTED_EDGE('',*,*,#307,.T.);
#203=ORIENTED_EDGE('',*,*,#231,.T.);
#204=ORIENTED_EDGE('',*,*,#308,.F.);
#205=ORIENTED_EDGE('',*,*,#240,.T.);
#206=ORIENTED_EDGE('',*,*,#247,.T.);
#207=ORIENTED_EDGE('',*,*,#308,.T.);
#208=ORIENTED_EDGE('',*,*,#234,.T.);
#209=ORIENTED_EDGE('',*,*,#309,.F.);
#210=ORIENTED_EDGE('',*,*,#309,.T.);
#211=ORIENTED_EDGE('',*,*,#233,.F.);
#212=ORIENTED_EDGE('',*,*,#306,.F.);
#213=ORIENTED_EDGE('',*,*,#241,.F.);
#214=ORIENTED_EDGE('',*,*,#260,.F.);
#215=ORIENTED_EDGE('',*,*,#257,.F.);
#216=ORIENTED_EDGE('',*,*,#263,.F.);
#217=ORIENTED_EDGE('',*,*,#236,.F.);
#218=ORIENTED_EDGE('',*,*,#303,.F.);
#219=ORIENTED_EDGE('',*,*,#267,.F.);
#220=ORIENTED_EDGE('',*,*,#274,.F.);
#221=EDGE_CURVE('',#310,#311,#373,.T.);
#222=EDGE_CURVE('',#310,#312,#374,.F.);
#223=EDGE_CURVE('',#312,#313,#375,.T.);
#224=EDGE_CURVE('',#313,#314,#376,.T.);
#225=EDGE_CURVE('',#314,#315,#377,.T.);
#226=EDGE_CURVE('',#316,#315,#378,.T.);
#227=EDGE_CURVE('',#317,#316,#379,.T.);
#228=EDGE_CURVE('',#317,#318,#380,.T.);
#229=EDGE_CURVE('',#319,#318,#381,.T.);
#230=EDGE_CURVE('',#319,#311,#382,.T.);
#231=EDGE_CURVE('',#320,#321,#383,.T.);
#232=EDGE_CURVE('',#320,#322,#384,.T.);
#233=EDGE_CURVE('',#322,#323,#385,.T.);
#234=EDGE_CURVE('',#321,#323,#386,.T.);
#235=EDGE_CURVE('',#324,#325,#387,.T.);
#236=EDGE_CURVE('',#325,#326,#388,.T.);
#237=EDGE_CURVE('',#326,#327,#389,.T.);
#238=EDGE_CURVE('',#328,#327,#390,.T.);
#239=EDGE_CURVE('',#328,#329,#391,.F.);
#240=EDGE_CURVE('',#330,#329,#392,.T.);
#241=EDGE_CURVE('',#330,#331,#393,.T.);
#242=EDGE_CURVE('',#331,#332,#394,.T.);
#243=EDGE_CURVE('',#332,#333,#395,.F.);
#244=EDGE_CURVE('',#324,#333,#396,.T.);
#245=EDGE_CURVE('',#332,#334,#397,.F.);
#246=EDGE_CURVE('',#335,#334,#398,.F.);
#247=EDGE_CURVE('',#329,#335,#399,.F.);
#248=EDGE_CURVE('',#312,#328,#400,.T.);
#249=EDGE_CURVE('',#333,#310,#401,.T.);
#250=EDGE_CURVE('',#327,#336,#402,.T.);
#251=EDGE_CURVE('',#336,#337,#403,.T.);
#252=EDGE_CURVE('',#338,#337,#404,.T.);
#253=EDGE_CURVE('',#339,#338,#405,.T.);
#254=EDGE_CURVE('',#339,#340,#406,.T.);
#255=EDGE_CURVE('',#340,#313,#407,.T.);
#256=EDGE_CURVE('',#341,#342,#408,.T.);
#257=EDGE_CURVE('',#342,#343,#409,.T.);
#258=EDGE_CURVE('',#344,#343,#410,.T.);
#259=EDGE_CURVE('',#344,#341,#411,.T.);
#260=EDGE_CURVE('',#343,#345,#412,.T.);
#261=EDGE_CURVE('',#338,#345,#413,.T.);
#262=EDGE_CURVE('',#337,#344,#414,.T.);
#263=EDGE_CURVE('',#326,#342,#415,.T.);
#264=EDGE_CURVE('',#341,#336,#416,.T.);
#265=EDGE_CURVE('',#311,#324,#417,.T.);
#266=EDGE_CURVE('',#346,#347,#418,.T.);
#267=EDGE_CURVE('',#347,#348,#419,.T.);
#268=EDGE_CURVE('',#348,#319,#420,.T.);
#269=EDGE_CURVE('',#349,#318,#421,.T.);
#270=EDGE_CURVE('',#346,#349,#422,.T.);
#271=EDGE_CURVE('',#350,#350,#25,.F.);
#272=EDGE_CURVE('',#351,#351,#26,.F.);
#273=EDGE_CURVE('',#352,#352,#27,.F.);
#274=EDGE_CURVE('',#345,#347,#423,.T.);
#275=EDGE_CURVE('',#346,#339,#28,.T.);
#276=EDGE_CURVE('',#317,#353,#424,.T.);
#277=EDGE_CURVE('',#353,#354,#29,.T.);
#278=EDGE_CURVE('',#314,#354,#425,.T.);
#279=EDGE_CURVE('',#340,#349,#30,.T.);
#280=EDGE_CURVE('',#355,#353,#426,.T.);
#281=EDGE_CURVE('',#356,#355,#31,.T.);
#282=EDGE_CURVE('',#356,#354,#427,.T.);
#283=EDGE_CURVE('',#316,#357,#428,.T.);
#284=EDGE_CURVE('',#358,#357,#429,.T.);
#285=EDGE_CURVE('',#355,#358,#430,.T.);
#286=EDGE_CURVE('',#359,#360,#14,.T.);
#287=EDGE_CURVE('',#359,#361,#431,.T.);
#288=EDGE_CURVE('',#315,#361,#432,.T.);
#289=EDGE_CURVE('',#356,#362,#433,.T.);
#290=EDGE_CURVE('',#362,#360,#434,.T.);
#291=EDGE_CURVE('',#357,#363,#32,.T.);
#292=EDGE_CURVE('',#363,#364,#12,.T.);
#293=EDGE_CURVE('',#364,#361,#33,.T.);
#294=EDGE_CURVE('',#359,#360,#13,.T.);
#295=EDGE_CURVE('',#358,#362,#34,.T.);
#296=EDGE_CURVE('',#365,#365,#35,.T.);
#297=EDGE_CURVE('',#366,#366,#36,.T.);
#298=EDGE_CURVE('',#367,#367,#37,.T.);
#299=EDGE_CURVE('',#364,#363,#15,.T.);
#300=EDGE_CURVE('',#368,#368,#38,.T.);
#301=EDGE_CURVE('',#369,#369,#39,.T.);
#302=EDGE_CURVE('',#370,#370,#40,.T.);
#303=EDGE_CURVE('',#348,#325,#435,.T.);
#304=EDGE_CURVE('',#371,#371,#41,.T.);
#305=EDGE_CURVE('',#372,#372,#42,.T.);
#306=EDGE_CURVE('',#331,#322,#436,.T.);
#307=EDGE_CURVE('',#334,#320,#437,.T.);
#308=EDGE_CURVE('',#335,#321,#438,.T.);
#309=EDGE_CURVE('',#330,#323,#439,.T.);
#310=VERTEX_POINT('',#908);
#311=VERTEX_POINT('',#909);
#312=VERTEX_POINT('',#911);
#313=VERTEX_POINT('',#913);
#314=VERTEX_POINT('',#915);
#315=VERTEX_POINT('',#917);
#316=VERTEX_POINT('',#919);
#317=VERTEX_POINT('',#921);
#318=VERTEX_POINT('',#923);
#319=VERTEX_POINT('',#925);
#320=VERTEX_POINT('',#928);
#321=VERTEX_POINT('',#929);
#322=VERTEX_POINT('',#931);
#323=VERTEX_POINT('',#933);
#324=VERTEX_POINT('',#937);
#325=VERTEX_POINT('',#938);
#326=VERTEX_POINT('',#940);
#327=VERTEX_POINT('',#942);
#328=VERTEX_POINT('',#944);
#329=VERTEX_POINT('',#946);
#330=VERTEX_POINT('',#948);
#331=VERTEX_POINT('',#950);
#332=VERTEX_POINT('',#952);
#333=VERTEX_POINT('',#954);
#334=VERTEX_POINT('',#958);
#335=VERTEX_POINT('',#960);
#336=VERTEX_POINT('',#966);
#337=VERTEX_POINT('',#968);
#338=VERTEX_POINT('',#970);
#339=VERTEX_POINT('',#972);
#340=VERTEX_POINT('',#974);
#341=VERTEX_POINT('',#978);
#342=VERTEX_POINT('',#979);
#343=VERTEX_POINT('',#981);
#344=VERTEX_POINT('',#983);
#345=VERTEX_POINT('',#987);
#346=VERTEX_POINT('',#997);
#347=VERTEX_POINT('',#998);
#348=VERTEX_POINT('',#1000);
#349=VERTEX_POINT('',#1003);
#350=VERTEX_POINT('',#1007);
#351=VERTEX_POINT('',#1009);
#352=VERTEX_POINT('',#1011);
#353=VERTEX_POINT('',#1016);
#354=VERTEX_POINT('',#1018);
#355=VERTEX_POINT('',#1024);
#356=VERTEX_POINT('',#1026);
#357=VERTEX_POINT('',#1030);
#358=VERTEX_POINT('',#1032);
#359=VERTEX_POINT('',#1036);
#360=VERTEX_POINT('',#1037);
#361=VERTEX_POINT('',#1039);
#362=VERTEX_POINT('',#1042);
#363=VERTEX_POINT('',#1046);
#364=VERTEX_POINT('',#1057);
#365=VERTEX_POINT('',#1068);
#366=VERTEX_POINT('',#1070);
#367=VERTEX_POINT('',#1072);
#368=VERTEX_POINT('',#1080);
#369=VERTEX_POINT('',#1082);
#370=VERTEX_POINT('',#1084);
#371=VERTEX_POINT('',#1089);
#372=VERTEX_POINT('',#1094);
#373=LINE('',#907,#440);
#374=LINE('',#910,#441);
#375=LINE('',#912,#442);
#376=LINE('',#914,#443);
#377=LINE('',#916,#444);
#378=LINE('',#918,#445);
#379=LINE('',#920,#446);
#380=LINE('',#922,#447);
#381=LINE('',#924,#448);
#382=LINE('',#926,#449);
#383=LINE('',#927,#450);
#384=LINE('',#930,#451);
#385=LINE('',#932,#452);
#386=LINE('',#934,#453);
#387=LINE('',#936,#454);
#388=LINE('',#939,#455);
#389=LINE('',#941,#456);
#390=LINE('',#943,#457);
#391=LINE('',#945,#458);
#392=LINE('',#947,#459);
#393=LINE('',#949,#460);
#394=LINE('',#951,#461);
#395=LINE('',#953,#462);
#396=LINE('',#955,#463);
#397=LINE('',#957,#464);
#398=LINE('',#959,#465);
#399=LINE('',#961,#466);
#400=LINE('',#962,#467);
#401=LINE('',#963,#468);
#402=LINE('',#965,#469);
#403=LINE('',#967,#470);
#404=LINE('',#969,#471);
#405=LINE('',#971,#472);
#406=LINE('',#973,#473);
#407=LINE('',#975,#474);
#408=LINE('',#977,#475);
#409=LINE('',#980,#476);
#410=LINE('',#982,#477);
#411=LINE('',#984,#478);
#412=LINE('',#986,#479);
#413=LINE('',#988,#480);
#414=LINE('',#989,#481);
#415=LINE('',#991,#482);
#416=LINE('',#992,#483);
#417=LINE('',#994,#484);
#418=LINE('',#996,#485);
#419=LINE('',#999,#486);
#420=LINE('',#1001,#487);
#421=LINE('',#1002,#488);
#422=LINE('',#1004,#489);
#423=LINE('',#1012,#490);
#424=LINE('',#1015,#491);
#425=LINE('',#1019,#492);
#426=LINE('',#1023,#493);
#427=LINE('',#1027,#494);
#428=LINE('',#1029,#495);
#429=LINE('',#1031,#496);
#430=LINE('',#1033,#497);
#431=LINE('',#1038,#498);
#432=LINE('',#1040,#499);
#433=LINE('',#1041,#500);
#434=LINE('',#1043,#501);
#435=LINE('',#1086,#502);
#436=LINE('',#1097,#503);
#437=LINE('',#1098,#504);
#438=LINE('',#1100,#505);
#439=LINE('',#1102,#506);
#440=VECTOR('',#734,1.);
#441=VECTOR('',#735,1.);
#442=VECTOR('',#736,1.);
#443=VECTOR('',#737,1.);
#444=VECTOR('',#738,1.);
#445=VECTOR('',#739,1.);
#446=VECTOR('',#740,1.);
#447=VECTOR('',#741,1.);
#448=VECTOR('',#742,1.);
#449=VECTOR('',#743,1.);
#450=VECTOR('',#744,1.);
#451=VECTOR('',#745,1.);
#452=VECTOR('',#746,1.);
#453=VECTOR('',#747,1.);
#454=VECTOR('',#750,1.);
#455=VECTOR('',#751,1.);
#456=VECTOR('',#752,1.);
#457=VECTOR('',#753,1.);
#458=VECTOR('',#754,1.);
#459=VECTOR('',#755,1.);
#460=VECTOR('',#756,1.);
#461=VECTOR('',#757,1.);
#462=VECTOR('',#758,1.);
#463=VECTOR('',#759,1.);
#464=VECTOR('',#762,1.);
#465=VECTOR('',#763,1.);
#466=VECTOR('',#764,1.);
#467=VECTOR('',#765,1.);
#468=VECTOR('',#766,1.);
#469=VECTOR('',#769,1.);
#470=VECTOR('',#770,1.);
#471=VECTOR('',#771,1.);
#472=VECTOR('',#772,1.);
#473=VECTOR('',#773,1.);
#474=VECTOR('',#774,1.);
#475=VECTOR('',#777,1.);
#476=VECTOR('',#778,1.);
#477=VECTOR('',#779,1.);
#478=VECTOR('',#780,1.);
#479=VECTOR('',#783,1.);
#480=VECTOR('',#784,1.);
#481=VECTOR('',#785,1.);
#482=VECTOR('',#788,1.);
#483=VECTOR('',#789,1.);
#484=VECTOR('',#792,1.);
#485=VECTOR('',#795,1.);
#486=VECTOR('',#796,1.);
#487=VECTOR('',#797,1.);
#488=VECTOR('',#798,1.);
#489=VECTOR('',#799,1.);
#490=VECTOR('',#808,1.);
#491=VECTOR('',#813,1.);
#492=VECTOR('',#816,1.);
#493=VECTOR('',#823,1.);
#494=VECTOR('',#826,1.);
#495=VECTOR('',#829,1.);
#496=VECTOR('',#830,1.);
#497=VECTOR('',#831,1.);
#498=VECTOR('',#836,1.);
#499=VECTOR('',#837,1.);
#500=VECTOR('',#838,1.);
#501=VECTOR('',#839,1.);
#502=VECTOR('',#876,1.);
#503=VECTOR('',#893,1.);
#504=VECTOR('',#894,1.);
#505=VECTOR('',#897,1.);
#506=VECTOR('',#900,1.);
#507=EDGE_LOOP('',(#43,#44,#45,#46,#47,#48,#49,#50,#51,#52));
#508=EDGE_LOOP('',(#53,#54,#55,#56));
#509=EDGE_LOOP('',(#57,#58,#59,#60,#61,#62,#63,#64,#65,#66));
#510=EDGE_LOOP('',(#67,#68,#69,#70,#71,#72,#73,#74));
#511=EDGE_LOOP('',(#75,#76,#77,#78,#79,#80,#81,#82,#83));
#512=EDGE_LOOP('',(#84,#85,#86,#87));
#513=EDGE_LOOP('',(#88,#89,#90,#91,#92));
#514=EDGE_LOOP('',(#93,#94,#95,#96,#97));
#515=EDGE_LOOP('',(#98,#99,#100,#101));
#516=EDGE_LOOP('',(#102,#103,#104,#105,#106,#107));
#517=EDGE_LOOP('',(#108));
#518=EDGE_LOOP('',(#109));
#519=EDGE_LOOP('',(#110));
#520=EDGE_LOOP('',(#111,#112,#113,#114,#115));
#521=EDGE_LOOP('',(#116,#117,#118,#119,#120,#121,#122,#123));
#522=EDGE_LOOP('',(#124,#125,#126,#127));
#523=EDGE_LOOP('',(#128,#129,#130,#131));
#524=EDGE_LOOP('',(#132,#133,#134,#135,#136,#137));
#525=EDGE_LOOP('',(#138,#139,#140,#141,#142,#143,#144,#145));
#526=EDGE_LOOP('',(#146,#147,#148,#149,#150,#151,#152,#153));
#527=EDGE_LOOP('',(#154,#155,#156,#157));
#528=EDGE_LOOP('',(#158));
#529=EDGE_LOOP('',(#159));
#530=EDGE_LOOP('',(#160));
#531=EDGE_LOOP('',(#161,#162,#163,#164,#165,#166));
#532=EDGE_LOOP('',(#167));
#533=EDGE_LOOP('',(#168));
#534=EDGE_LOOP('',(#169));
#535=EDGE_LOOP('',(#170));
#536=EDGE_LOOP('',(#171));
#537=EDGE_LOOP('',(#172));
#538=EDGE_LOOP('',(#173));
#539=EDGE_LOOP('',(#174));
#540=EDGE_LOOP('',(#175));
#541=EDGE_LOOP('',(#176,#177,#178,#179));
#542=EDGE_LOOP('',(#180,#181,#182,#183,#184));
#543=EDGE_LOOP('',(#185));
#544=EDGE_LOOP('',(#186));
#545=EDGE_LOOP('',(#187));
#546=EDGE_LOOP('',(#188,#189));
#547=EDGE_LOOP('',(#190));
#548=EDGE_LOOP('',(#191));
#549=EDGE_LOOP('',(#192));
#550=EDGE_LOOP('',(#193,#194));
#551=EDGE_LOOP('',(#195));
#552=EDGE_LOOP('',(#196,#197,#198,#199,#200));
#553=EDGE_LOOP('',(#201,#202,#203,#204));
#554=EDGE_LOOP('',(#205,#206,#207,#208,#209));
#555=EDGE_LOOP('',(#210,#211,#212,#213));
#556=EDGE_LOOP('',(#214,#215,#216,#217,#218,#219,#220));
#557=FACE_BOUND('',#507,.T.);
#558=FACE_BOUND('',#508,.T.);
#559=FACE_BOUND('',#509,.T.);
#560=FACE_BOUND('',#510,.T.);
#561=FACE_BOUND('',#511,.T.);
#562=FACE_BOUND('',#512,.T.);
#563=FACE_BOUND('',#513,.T.);
#564=FACE_BOUND('',#514,.T.);
#565=FACE_BOUND('',#515,.T.);
#566=FACE_BOUND('',#516,.T.);
#567=FACE_BOUND('',#517,.T.);
#568=FACE_BOUND('',#518,.T.);
#569=FACE_BOUND('',#519,.T.);
#570=FACE_BOUND('',#520,.T.);
#571=FACE_BOUND('',#521,.T.);
#572=FACE_BOUND('',#522,.T.);
#573=FACE_BOUND('',#523,.T.);
#574=FACE_BOUND('',#524,.T.);
#575=FACE_BOUND('',#525,.T.);
#576=FACE_BOUND('',#526,.T.);
#577=FACE_BOUND('',#527,.T.);
#578=FACE_BOUND('',#528,.T.);
#579=FACE_BOUND('',#529,.T.);
#580=FACE_BOUND('',#530,.T.);
#581=FACE_BOUND('',#531,.T.);
#582=FACE_BOUND('',#532,.T.);
#583=FACE_BOUND('',#533,.T.);
#584=FACE_BOUND('',#534,.T.);
#585=FACE_BOUND('',#535,.T.);
#586=FACE_BOUND('',#536,.T.);
#587=FACE_BOUND('',#537,.T.);
#588=FACE_BOUND('',#538,.T.);
#589=FACE_BOUND('',#539,.T.);
#590=FACE_BOUND('',#540,.T.);
#591=FACE_BOUND('',#541,.T.);
#592=FACE_BOUND('',#542,.T.);
#593=FACE_BOUND('',#543,.T.);
#594=FACE_BOUND('',#544,.T.);
#595=FACE_BOUND('',#545,.T.);
#596=FACE_BOUND('',#546,.T.);
#597=FACE_BOUND('',#547,.T.);
#598=FACE_BOUND('',#548,.T.);
#599=FACE_BOUND('',#549,.T.);
#600=FACE_BOUND('',#550,.T.);
#601=FACE_BOUND('',#551,.T.);
#602=FACE_BOUND('',#552,.T.);
#603=FACE_BOUND('',#553,.T.);
#604=FACE_BOUND('',#554,.T.);
#605=FACE_BOUND('',#555,.T.);
#606=FACE_BOUND('',#556,.T.);
#607=PLANE('',#677);
#608=PLANE('',#678);
#609=PLANE('',#679);
#610=PLANE('',#680);
#611=PLANE('',#681);
#612=PLANE('',#682);
#613=PLANE('',#683);
#614=PLANE('',#684);
#615=PLANE('',#685);
#616=PLANE('',#686);
#617=PLANE('',#691);
#618=PLANE('',#697);
#619=PLANE('',#698);
#620=PLANE('',#704);
#621=PLANE('',#708);
#622=PLANE('',#713);
#623=PLANE('',#717);
#624=PLANE('',#720);
#625=PLANE('',#724);
#626=PLANE('',#725);
#627=PLANE('',#726);
#628=PLANE('',#727);
#629=PLANE('',#728);
#630=PLANE('',#729);
#631=ADVANCED_FACE('',(#557,#558),#607,.T.);
#632=ADVANCED_FACE('',(#559),#608,.T.);
#633=ADVANCED_FACE('',(#560),#609,.F.);
#634=ADVANCED_FACE('',(#561),#610,.T.);
#635=ADVANCED_FACE('',(#562),#611,.T.);
#636=ADVANCED_FACE('',(#563),#612,.T.);
#637=ADVANCED_FACE('',(#564),#613,.T.);
#638=ADVANCED_FACE('',(#565),#614,.T.);
#639=ADVANCED_FACE('',(#566),#615,.F.);
#640=ADVANCED_FACE('',(#567,#568,#569,#570),#616,.T.);
#641=ADVANCED_FACE('',(#571),#617,.F.);
#642=ADVANCED_FACE('',(#572),#16,.T.);
#643=ADVANCED_FACE('',(#573),#17,.F.);
#644=ADVANCED_FACE('',(#574),#618,.F.);
#645=ADVANCED_FACE('',(#575),#619,.T.);
#646=ADVANCED_FACE('',(#576),#18,.F.);
#647=ADVANCED_FACE('',(#577,#578,#579,#580),#620,.T.);
#648=ADVANCED_FACE('',(#581),#621,.F.);
#649=ADVANCED_FACE('',(#582,#583),#19,.F.);
#650=ADVANCED_FACE('',(#584,#585),#20,.F.);
#651=ADVANCED_FACE('',(#586,#587),#21,.F.);
#652=ADVANCED_FACE('',(#588,#589,#590,#591),#622,.T.);
#653=ADVANCED_FACE('',(#592),#623,.T.);
#654=ADVANCED_FACE('',(#593,#594),#22,.F.);
#655=ADVANCED_FACE('',(#595),#624,.T.);
#656=ADVANCED_FACE('',(#596,#597),#23,.F.);
#657=ADVANCED_FACE('',(#598,#599,#600),#24,.F.);
#658=ADVANCED_FACE('',(#601),#625,.T.);
#659=ADVANCED_FACE('',(#602),#626,.T.);
#660=ADVANCED_FACE('',(#603),#627,.F.);
#661=ADVANCED_FACE('',(#604),#628,.F.);
#662=ADVANCED_FACE('',(#605),#629,.T.);
#663=ADVANCED_FACE('',(#606),#630,.T.);
#664=CLOSED_SHELL('',(#631,#632,#633,#634,#635,#636,#637,#638,#639,#640,
#641,#642,#643,#644,#645,#646,#647,#648,#649,#650,#651,#652,#653,#654,#655,
#656,#657,#658,#659,#660,#661,#662,#663));
#665=STYLED_ITEM('',(#666),#673);
#666=PRESENTATION_STYLE_ASSIGNMENT((#667));
#667=SURFACE_STYLE_USAGE(.BOTH.,#668);
#668=SURFACE_SIDE_STYLE('',(#669));
#669=SURFACE_STYLE_FILL_AREA(#670);
#670=FILL_AREA_STYLE('',(#671));
#671=FILL_AREA_STYLE_COLOUR('',#672);
#672=COLOUR_RGB('',0.972549019607843,0.529411764705882,0.00392156862745098);
#673=MANIFOLD_SOLID_BREP('Part 1',#664);
#674=SHAPE_DEFINITION_REPRESENTATION(#1111,#675);
#675=SHAPE_REPRESENTATION('Part 1',(#676),#1106);
#676=AXIS2_PLACEMENT_3D('',#905,#730,#731);
#677=AXIS2_PLACEMENT_3D('',#906,#732,#733);
#678=AXIS2_PLACEMENT_3D('',#935,#748,#749);
#679=AXIS2_PLACEMENT_3D('',#956,#760,#761);
#680=AXIS2_PLACEMENT_3D('',#964,#767,#768);
#681=AXIS2_PLACEMENT_3D('',#976,#775,#776);
#682=AXIS2_PLACEMENT_3D('',#985,#781,#782);
#683=AXIS2_PLACEMENT_3D('',#990,#786,#787);
#684=AXIS2_PLACEMENT_3D('',#993,#790,#791);
#685=AXIS2_PLACEMENT_3D('',#995,#793,#794);
#686=AXIS2_PLACEMENT_3D('',#1005,#800,#801);
#687=AXIS2_PLACEMENT_3D('',#1006,#802,#803);
#688=AXIS2_PLACEMENT_3D('',#1008,#804,#805);
#689=AXIS2_PLACEMENT_3D('',#1010,#806,#807);
#690=AXIS2_PLACEMENT_3D('',#1013,#809,#810);
#691=AXIS2_PLACEMENT_3D('',#1014,#811,#812);
#692=AXIS2_PLACEMENT_3D('',#1017,#814,#815);
#693=AXIS2_PLACEMENT_3D('',#1020,#817,#818);
#694=AXIS2_PLACEMENT_3D('',#1021,#819,#820);
#695=AXIS2_PLACEMENT_3D('',#1022,#821,#822);
#696=AXIS2_PLACEMENT_3D('',#1025,#824,#825);
#697=AXIS2_PLACEMENT_3D('',#1028,#827,#828);
#698=AXIS2_PLACEMENT_3D('',#1034,#832,#833);
#699=AXIS2_PLACEMENT_3D('',#1035,#834,#835);
#700=AXIS2_PLACEMENT_3D('',#1044,#840,#841);
#701=AXIS2_PLACEMENT_3D('',#1045,#842,#843);
#702=AXIS2_PLACEMENT_3D('',#1058,#844,#845);
#703=AXIS2_PLACEMENT_3D('',#1065,#846,#847);
#704=AXIS2_PLACEMENT_3D('',#1066,#848,#849);
#705=AXIS2_PLACEMENT_3D('',#1067,#850,#851);
#706=AXIS2_PLACEMENT_3D('',#1069,#852,#853);
#707=AXIS2_PLACEMENT_3D('',#1071,#854,#855);
#708=AXIS2_PLACEMENT_3D('',#1073,#856,#857);
#709=AXIS2_PLACEMENT_3D('',#1074,#858,#859);
#710=AXIS2_PLACEMENT_3D('',#1075,#860,#861);
#711=AXIS2_PLACEMENT_3D('',#1076,#862,#863);
#712=AXIS2_PLACEMENT_3D('',#1077,#864,#865);
#713=AXIS2_PLACEMENT_3D('',#1078,#866,#867);
#714=AXIS2_PLACEMENT_3D('',#1079,#868,#869);
#715=AXIS2_PLACEMENT_3D('',#1081,#870,#871);
#716=AXIS2_PLACEMENT_3D('',#1083,#872,#873);
#717=AXIS2_PLACEMENT_3D('',#1085,#874,#875);
#718=AXIS2_PLACEMENT_3D('',#1087,#877,#878);
#719=AXIS2_PLACEMENT_3D('',#1088,#879,#880);
#720=AXIS2_PLACEMENT_3D('',#1090,#881,#882);
#721=AXIS2_PLACEMENT_3D('',#1091,#883,#884);
#722=AXIS2_PLACEMENT_3D('',#1092,#885,#886);
#723=AXIS2_PLACEMENT_3D('',#1093,#887,#888);
#724=AXIS2_PLACEMENT_3D('',#1095,#889,#890);
#725=AXIS2_PLACEMENT_3D('',#1096,#891,#892);
#726=AXIS2_PLACEMENT_3D('',#1099,#895,#896);
#727=AXIS2_PLACEMENT_3D('',#1101,#898,#899);
#728=AXIS2_PLACEMENT_3D('',#1103,#901,#902);
#729=AXIS2_PLACEMENT_3D('',#1104,#903,#904);
#730=DIRECTION('',(0.,0.,1.));
#731=DIRECTION('',(1.,0.,0.));
#732=DIRECTION('',(-3.06161699786839E-16,0.,1.));
#733=DIRECTION('',(1.,0.,3.06161699786839E-16));
#734=DIRECTION('',(0.,1.,0.));
#735=DIRECTION('',(-0.832934513816194,0.55337157109286,-2.87459215088516E-16));
#736=DIRECTION('',(1.,0.,3.06161699786839E-16));
#737=DIRECTION('',(0.,1.,0.));
#738=DIRECTION('',(-1.,1.3055027878035E-17,-3.06161699786839E-16));
#739=DIRECTION('',(0.,-1.,0.));
#740=DIRECTION('',(-1.,-1.3055027878035E-17,-3.06161699786839E-16));
#741=DIRECTION('',(0.,1.,0.));
#742=DIRECTION('',(1.,0.,3.06161699786839E-16));
#743=DIRECTION('',(-0.832934513816194,-0.55337157109286,-2.87459215088516E-16));
#744=DIRECTION('',(0.,-1.,0.));
#745=DIRECTION('',(1.,0.,3.06161699786839E-16));
#746=DIRECTION('',(0.,-1.,0.));
#747=DIRECTION('',(1.,0.,3.06161699786839E-16));
#748=DIRECTION('',(0.528498197563233,-0.707106781186548,-0.469776175611763));
#749=DIRECTION('',(0.800994956509704,0.598671094713965,0.));
#750=DIRECTION('',(0.815087612525153,0.577350269189626,0.0479463301485378));
#751=DIRECTION('',(0.66436383882992,-2.05785765160868E-16,0.74740931868366));
#752=DIRECTION('',(-0.528498197563233,-0.707106781186548,0.469776175611763));
#753=DIRECTION('',(0.66436383882992,0.,0.74740931868366));
#754=DIRECTION('',(-0.0479463301485385,-0.577350269189626,0.815087612525153));
#755=DIRECTION('',(-0.66436383882992,0.,-0.74740931868366));
#756=DIRECTION('',(2.5501264656109E-16,0.55337157109286,-0.832934513816194));
#757=DIRECTION('',(-0.66436383882992,0.,-0.74740931868366));
#758=DIRECTION('',(-0.0479463301485385,-0.577350269189626,0.815087612525153));
#759=DIRECTION('',(-0.528498197563233,-0.707106781186548,0.469776175611763));
#760=DIRECTION('',(0.469776175611763,0.707106781186547,0.528498197563233));
#761=DIRECTION('',(-0.74740931868366,0.,0.66436383882992));
#762=DIRECTION('',(0.74740931868366,0.,-0.66436383882992));
#763=DIRECTION('',(-2.45233977405695E-16,-0.598671094713965,0.800994956509704));
#764=DIRECTION('',(0.74740931868366,0.,-0.66436383882992));
#765=DIRECTION('',(0.74740931868366,0.,-0.66436383882992));
#766=DIRECTION('',(-0.74740931868366,0.,0.66436383882992));
#767=DIRECTION('',(0.,-1.,0.));
#768=DIRECTION('',(1.,0.,0.));
#769=DIRECTION('',(0.74740931868366,0.,-0.66436383882992));
#770=DIRECTION('',(0.66436383882992,0.,0.74740931868366));
#771=DIRECTION('',(1.,0.,0.));
#772=DIRECTION('',(8.67361737988403E-17,0.,-1.));
#773=DIRECTION('',(-1.,0.,-1.22464679914735E-16));
#774=DIRECTION('',(1.22464679914735E-16,0.,-1.));
#775=DIRECTION('',(0.74740931868366,0.,-0.66436383882992));
#776=DIRECTION('',(-0.66436383882992,0.,-0.74740931868366));
#777=DIRECTION('',(0.,1.,0.));
#778=DIRECTION('',(0.66436383882992,0.,0.74740931868366));
#779=DIRECTION('',(0.,1.,0.));
#780=DIRECTION('',(-0.66436383882992,1.57009245868377E-16,-0.74740931868366));
#781=DIRECTION('',(0.,0.,1.));
#782=DIRECTION('',(1.,0.,0.));
#783=DIRECTION('',(-0.800994956509704,0.598671094713965,0.));
#784=DIRECTION('',(0.,1.,0.));
#785=DIRECTION('',(0.800994956509704,0.598671094713965,0.));
#786=DIRECTION('',(-0.66436383882992,0.,-0.74740931868366));
#787=DIRECTION('',(0.74740931868366,0.,-0.66436383882992));
#788=DIRECTION('',(0.528498197563233,-0.707106781186548,-0.469776175611763));
#789=DIRECTION('',(-0.528498197563233,-0.707106781186547,0.469776175611763));
#790=DIRECTION('',(-0.66436383882992,0.,-0.74740931868366));
#791=DIRECTION('',(-0.74740931868366,0.,0.66436383882992));
#792=DIRECTION('',(0.74740931868366,0.,-0.66436383882992));
#793=DIRECTION('',(0.,-1.,0.));
#794=DIRECTION('',(1.,0.,0.));
#795=DIRECTION('',(8.67361737988403E-17,0.,-1.));
#796=DIRECTION('',(-0.66436383882992,0.,-0.74740931868366));
#797=DIRECTION('',(-0.74740931868366,0.,0.66436383882992));
#798=DIRECTION('',(1.22464679914735E-16,0.,-1.));
#799=DIRECTION('',(-1.,0.,-1.22464679914735E-16));
#800=DIRECTION('',(1.,0.,8.67361737988403E-17));
#801=DIRECTION('',(8.67361737988403E-17,0.,-1.));
#802=DIRECTION('',(1.,0.,8.67361737988403E-17));
#803=DIRECTION('',(8.67361737988403E-17,0.,-1.));
#804=DIRECTION('',(1.,0.,8.67361737988403E-17));
#805=DIRECTION('',(8.67361737988403E-17,0.,-1.));
#806=DIRECTION('',(1.,0.,8.67361737988403E-17));
#807=DIRECTION('',(8.67361737988403E-17,0.,-1.));
#808=DIRECTION('',(-3.76874731621476E-17,0.55337157109286,0.832934513816194));
#809=DIRECTION('',(1.,0.,8.67361737988403E-17));
#810=DIRECTION('',(8.67361737988403E-17,0.,-1.));
#811=DIRECTION('',(1.,0.,1.22464679914735E-16));
#812=DIRECTION('',(1.22464679914735E-16,0.,-1.));
#813=DIRECTION('',(-1.22156580466838E-16,0.0708894665184105,0.9974841770859));
#814=DIRECTION('',(1.,0.,1.22464679914735E-16));
#815=DIRECTION('',(1.22464679914735E-16,0.,-1.));
#816=DIRECTION('',(-1.22156580466838E-16,-0.0708894665184105,0.9974841770859));
#817=DIRECTION('',(-1.,0.,-1.22464679914735E-16));
#818=DIRECTION('',(-1.22464679914735E-16,0.,1.));
#819=DIRECTION('',(-1.,0.,-1.22464679914735E-16));
#820=DIRECTION('',(-1.22464679914735E-16,0.,1.));
#821=DIRECTION('',(-1.,0.,-1.22464679914735E-16));
#822=DIRECTION('',(-1.22464679914735E-16,0.,1.));
#823=DIRECTION('',(-1.,0.,-1.22464679914735E-16));
#824=DIRECTION('',(-1.,0.,-1.22464679914735E-16));
#825=DIRECTION('',(-1.22464679914735E-16,0.,1.));
#826=DIRECTION('',(-1.,0.,-1.22464679914735E-16));
#827=DIRECTION('',(8.68145582650349E-18,0.9974841770859,-0.0708894665184105));
#828=DIRECTION('',(0.,0.0708894665184105,0.9974841770859));
#829=DIRECTION('',(1.22156580466838E-16,-0.0708894665184105,-0.9974841770859));
#830=DIRECTION('',(-1.,0.,-1.22464679914735E-16));
#831=DIRECTION('',(1.22156580466838E-16,-0.0708894665184105,-0.9974841770859));
#832=DIRECTION('',(-8.68145582650348E-18,0.9974841770859,0.0708894665184105));
#833=DIRECTION('',(0.,-0.0708894665184105,0.9974841770859));
#834=DIRECTION('',(-8.68145582650348E-18,0.9974841770859,0.0708894665184105));
#835=DIRECTION('',(0.783992779356568,0.0440060500776318,-0.619208195579911));
#836=DIRECTION('',(-1.,0.,-1.22464679914735E-16));
#837=DIRECTION('',(1.22156580466838E-16,0.0708894665184105,-0.9974841770859));
#838=DIRECTION('',(1.22156580466838E-16,0.0708894665184105,-0.9974841770859));
#839=DIRECTION('',(-1.,0.,-1.22464679914735E-16));
#840=DIRECTION('',(-1.,0.,-1.22464679914735E-16));
#841=DIRECTION('',(-1.22464679914735E-16,0.,1.));
#842=DIRECTION('',(-1.,0.,-1.22464679914735E-16));
#843=DIRECTION('',(-1.22464679914735E-16,0.,1.));
#844=DIRECTION('',(-1.,0.,-1.22464679914735E-16));
#845=DIRECTION('',(-1.22464679914735E-16,0.,1.));
#846=DIRECTION('',(-1.,0.,-1.22464679914735E-16));
#847=DIRECTION('',(-1.22464679914735E-16,0.,1.));
#848=DIRECTION('',(-1.,0.,-1.22464679914735E-16));
#849=DIRECTION('',(0.,-1.,0.));
#850=DIRECTION('',(-1.,0.,-1.22464679914735E-16));
#851=DIRECTION('',(-1.22464679914735E-16,0.,1.));
#852=DIRECTION('',(-1.,0.,-1.22464679914735E-16));
#853=DIRECTION('',(-1.22464679914735E-16,0.,1.));
#854=DIRECTION('',(-1.,0.,-1.22464679914735E-16));
#855=DIRECTION('',(-1.22464679914735E-16,0.,1.));
#856=DIRECTION('',(-1.,0.,-1.22464679914735E-16));
#857=DIRECTION('',(0.,-1.,0.));
#858=DIRECTION('',(-1.,0.,-1.22464679914735E-16));
#859=DIRECTION('',(6.77684723278012E-17,-0.832934513816195,-0.553371571092859));
#860=DIRECTION('',(-1.,0.,-1.22464679914735E-16));
#861=DIRECTION('',(-1.22464679914735E-16,0.,1.));
#862=DIRECTION('',(-1.,0.,-1.22464679914735E-16));
#863=DIRECTION('',(-1.22464679914735E-16,0.,1.));
#864=DIRECTION('',(-1.,0.,-1.22464679914735E-16));
#865=DIRECTION('',(-1.22464679914735E-16,0.,1.));
#866=DIRECTION('',(0.528498197563233,-0.707106781186548,-0.469776175611763));
#867=DIRECTION('',(0.800994956509704,0.598671094713965,0.));
#868=DIRECTION('',(0.528498197563233,-0.707106781186548,-0.469776175611763));
#869=DIRECTION('',(0.800994956509704,0.598671094713965,0.));
#870=DIRECTION('',(0.528498197563233,-0.707106781186548,-0.469776175611763));
#871=DIRECTION('',(0.800994956509704,0.598671094713965,0.));
#872=DIRECTION('',(0.528498197563233,-0.707106781186548,-0.469776175611763));
#873=DIRECTION('',(0.800994956509704,0.598671094713965,0.));
#874=DIRECTION('',(-0.469776175611763,0.707106781186547,-0.528498197563233));
#875=DIRECTION('',(0.74740931868366,0.,-0.66436383882992));
#876=DIRECTION('',(0.0479463301485385,-0.577350269189626,-0.815087612525153));
#877=DIRECTION('',(0.528498197563233,-0.707106781186548,-0.469776175611763));
#878=DIRECTION('',(0.800994956509704,0.598671094713965,0.));
#879=DIRECTION('',(0.528498197563233,-0.707106781186548,-0.469776175611763));
#880=DIRECTION('',(0.800994956509704,0.598671094713965,0.));
#881=DIRECTION('',(0.528498197563233,-0.707106781186548,-0.469776175611763));
#882=DIRECTION('',(0.848934423364028,0.440204389240066,0.29245587790531));
#883=DIRECTION('',(0.528498197563233,-0.707106781186548,-0.469776175611763));
#884=DIRECTION('',(0.800994956509704,0.598671094713965,0.));
#885=DIRECTION('',(0.528498197563233,-0.707106781186548,-0.469776175611763));
#886=DIRECTION('',(0.800994956509704,0.598671094713965,0.));
#887=DIRECTION('',(0.528498197563233,-0.707106781186548,-0.469776175611763));
#888=DIRECTION('',(0.800994956509704,0.598671094713965,0.));
#889=DIRECTION('',(0.528498197563233,-0.707106781186548,-0.469776175611763));
#890=DIRECTION('',(0.848934423364028,0.440204389240066,0.29245587790531));
#891=DIRECTION('',(0.,-1.,0.));
#892=DIRECTION('',(0.,0.,-1.));
#893=DIRECTION('',(-3.06161699786839E-16,0.,1.));
#894=DIRECTION('',(-3.06161699786839E-16,0.,1.));
#895=DIRECTION('',(-1.,0.,-3.06161699786839E-16));
#896=DIRECTION('',(-3.06161699786839E-16,0.,1.));
#897=DIRECTION('',(-3.06161699786839E-16,0.,1.));
#898=DIRECTION('',(0.,-1.,0.));
#899=DIRECTION('',(0.,0.,-1.));
#900=DIRECTION('',(-3.06161699786839E-16,0.,1.));
#901=DIRECTION('',(-1.,0.,-3.06161699786839E-16));
#902=DIRECTION('',(-3.06161699786839E-16,0.,1.));
#903=DIRECTION('',(0.528498197563233,0.707106781186548,-0.469776175611763));
#904=DIRECTION('',(0.66436383882992,0.,0.74740931868366));
#905=CARTESIAN_POINT('',(0.,0.,0.));
#906=CARTESIAN_POINT('',(-0.0226039864469808,-0.01,6.92047491256628E-18));
#907=CARTESIAN_POINT('',(-0.0452079728939615,-0.01,6.93889390390723E-18));
#908=CARTESIAN_POINT('',(-0.0452079728939615,-0.002,6.93889390390723E-18));
#909=CARTESIAN_POINT('',(-0.0452079728939615,0.002,6.93889390390723E-18));
#910=CARTESIAN_POINT('',(-0.0258384030956126,-0.0148684417477151,5.93022041360229E-18));
#911=CARTESIAN_POINT('',(-0.0331663783151692,-0.01,3.68667506438702E-18));
#912=CARTESIAN_POINT('',(-0.0226039864469808,-0.01,6.92047491256628E-18));
#913=CARTESIAN_POINT('',(0.,-0.01,1.38409498251325E-17));
#914=CARTESIAN_POINT('',(0.,-0.01,1.38409498251325E-17));
#915=CARTESIAN_POINT('',(0.,-0.00228931738320391,1.38409498251325E-17));
#916=CARTESIAN_POINT('',(-0.0226039864469808,-0.00228931738320391,6.92047491256628E-18));
#917=CARTESIAN_POINT('',(-0.002,-0.00228931738320391,1.33363666821896E-17));
#918=CARTESIAN_POINT('',(-0.002,-0.01,1.32286264255589E-17));
#919=CARTESIAN_POINT('',(-0.002,0.00228931738320391,1.33363666821896E-17));
#920=CARTESIAN_POINT('',(-0.0226039864469808,0.00228931738320391,6.92047491256628E-18));
#921=CARTESIAN_POINT('',(0.,0.00228931738320391,1.38409498251325E-17));
#922=CARTESIAN_POINT('',(0.,-0.01,1.38409498251325E-17));
#923=CARTESIAN_POINT('',(0.,0.01,1.38409498251325E-17));
#924=CARTESIAN_POINT('',(-0.0226039864469808,0.01,6.92047491256628E-18));
#925=CARTESIAN_POINT('',(-0.0331663783151692,0.01,3.68667506438702E-18));
#926=CARTESIAN_POINT('',(-0.0350568487061713,0.00874403983383952,3.10788543608112E-18));
#927=CARTESIAN_POINT('',(-0.0241422227034954,-0.0065,6.44952588559801E-18));
#928=CARTESIAN_POINT('',(-0.0241422227034954,-0.005,6.44952588559801E-18));
#929=CARTESIAN_POINT('',(-0.0241422227034954,-0.008,6.44952588559801E-18));
#930=CARTESIAN_POINT('',(-0.0191422227034954,-0.005,7.9803343845322E-18));
#931=CARTESIAN_POINT('',(-0.0141422227034954,-0.005,9.51114288346639E-18));
#932=CARTESIAN_POINT('',(-0.0141422227034954,-0.0065,9.51114288346639E-18));
#933=CARTESIAN_POINT('',(-0.0141422227034954,-0.008,9.51114288346639E-18));
#934=CARTESIAN_POINT('',(-0.0191422227034954,-0.008,7.9803343845322E-18));
#935=CARTESIAN_POINT('',(-0.00621474974004688,0.000606601717798222,-0.00790154373949677));
#936=CARTESIAN_POINT('',(-0.010360208134158,0.00773773447853214,-0.0232989606319095));
#937=CARTESIAN_POINT('',(-0.0184605876558898,0.002,-0.0237754535449526));
#938=CARTESIAN_POINT('',(-0.0119571110033464,0.00660660171779821,-0.023392896094803));
#939=CARTESIAN_POINT('',(-0.00173029382794493,0.00660660171779821,-0.0118877267724763));
#940=CARTESIAN_POINT('',(-0.00173029382794493,0.00660660171779821,-0.0118877267724763));
#941=CARTESIAN_POINT('',(-0.00621474974004688,0.000606601717798222,-0.00790154373949677));
#942=CARTESIAN_POINT('',(-0.0141422227034954,-0.01,-0.000854901105320315));
#943=CARTESIAN_POINT('',(-0.0165992531786986,-0.01,-0.00361906038992395));
#944=CARTESIAN_POINT('',(-0.0221145887694544,-0.01,-0.00982381292952422));
#945=CARTESIAN_POINT('',(-0.0218595504693547,-0.00692893218813451,-0.0141594640312199));
#946=CARTESIAN_POINT('',(-0.021948497809747,-0.008,-0.0126473592445514));
#947=CARTESIAN_POINT('',(-0.0126474040661281,-0.008,-0.00218362878298016));
#948=CARTESIAN_POINT('',(-0.0141422227034954,-0.008,-0.00386529975001838));
#949=CARTESIAN_POINT('',(-0.0141422227034954,-0.00350409081398003,-0.0106325392101584));
#950=CARTESIAN_POINT('',(-0.0141422227034954,-0.005,-0.00838089771706549));
#951=CARTESIAN_POINT('',(-0.0104051761100771,-0.005,-0.00417672029946992));
#952=CARTESIAN_POINT('',(-0.0216993613701857,-0.005,-0.0168826787170921));
#953=CARTESIAN_POINT('',(-0.0218595504693547,-0.00692893218813451,-0.0141594640312199));
#954=CARTESIAN_POINT('',(-0.0214502249306245,-0.002,-0.0211179981896329));
#955=CARTESIAN_POINT('',(-0.0195020265166453,0.000606601717798222,-0.02284973011317));
#956=CARTESIAN_POINT('',(-0.0283912632235791,-0.002,-0.0149481863736732));
#957=CARTESIAN_POINT('',(-0.0263981717070894,-0.005,-0.0127059584176222));
#958=CARTESIAN_POINT('',(-0.0241422227034954,-0.005,-0.0147112464208169));
#959=CARTESIAN_POINT('',(-0.0241422227034954,-0.00381115834660918,-0.0163018629995406));
#960=CARTESIAN_POINT('',(-0.0241422227034954,-0.008,-0.0106973815612194));
#961=CARTESIAN_POINT('',(-0.0244050801905996,-0.008,-0.0104637304615712));
#962=CARTESIAN_POINT('',(-0.0206193220377366,-0.01,-0.0111529389132735));
#963=CARTESIAN_POINT('',(-0.0283912632235791,-0.002,-0.0149481863736732));
#964=CARTESIAN_POINT('',(-0.0151039864469807,-0.01,-0.00494818637367318));
#965=CARTESIAN_POINT('',(-0.0126469559717775,-0.01,-0.00218402708906954));
#966=CARTESIAN_POINT('',(-0.00357225875223072,-0.01,-0.0102504246175556));
#967=CARTESIAN_POINT('',(-0.00602928922743395,-0.01,-0.0130145839021592));
#968=CARTESIAN_POINT('',(0.00553922979670758,-0.01,-1.7347234759768E-18));
#969=CARTESIAN_POINT('',(0.01,-0.01,0.));
#970=CARTESIAN_POINT('',(0.005,-0.01,0.));
#971=CARTESIAN_POINT('',(0.005,-0.01,0.01));
#972=CARTESIAN_POINT('',(0.005,-0.01,0.01));
#973=CARTESIAN_POINT('',(0.025,-0.01,0.01));
#974=CARTESIAN_POINT('',(1.5421560767505E-18,-0.01,0.01));
#975=CARTESIAN_POINT('',(1.5421560767505E-18,-0.01,0.01));
#976=CARTESIAN_POINT('',(0.00171272322340161,-0.01,-0.0149481863736732));
#977=CARTESIAN_POINT('',(0.00171272322340161,-0.01,-0.0149481863736732));
#978=CARTESIAN_POINT('',(0.00171272322340161,-0.00292893218813453,-0.0149481863736732));
#979=CARTESIAN_POINT('',(0.00171272322340161,0.002,-0.0149481863736732));
#980=CARTESIAN_POINT('',(0.015,0.002,-7.80625564189563E-18));
#981=CARTESIAN_POINT('',(0.015,0.002,0.));
#982=CARTESIAN_POINT('',(0.015,-0.01,0.));
#983=CARTESIAN_POINT('',(0.015,-0.00292893218813453,0.));
#984=CARTESIAN_POINT('',(0.00171272322340161,-0.00292893218813453,-0.0149481863736732));
#985=CARTESIAN_POINT('',(0.01,-0.01,0.));
#986=CARTESIAN_POINT('',(0.0175464257279185,9.67776816179419E-5,0.));
#987=CARTESIAN_POINT('',(0.005,0.0094740931868366,0.));
#988=CARTESIAN_POINT('',(0.005,-0.01,0.));
#989=CARTESIAN_POINT('',(0.00840122837846599,-0.00786091558993434,0.));
#990=CARTESIAN_POINT('',(-0.00981900447134839,-0.00469669914110089,-0.00469776175611764));
#991=CARTESIAN_POINT('',(-0.00155055295273355,0.00636611652351682,-0.0120474964393308));
#992=CARTESIAN_POINT('',(-0.00471376337092743,-0.011527281758685,-0.00923575384538072));
#993=CARTESIAN_POINT('',(-0.0283912632235791,-0.01,-0.0149481863736732));
#994=CARTESIAN_POINT('',(-0.0124813131064206,0.002,-0.0290903642555919));
#995=CARTESIAN_POINT('',(-0.0151039864469807,0.01,-0.00494818637367318));
#996=CARTESIAN_POINT('',(0.005,0.01,0.01));
#997=CARTESIAN_POINT('',(0.005,0.01,0.01));
#998=CARTESIAN_POINT('',(0.005,0.01,0.000791594578792281));
#999=CARTESIAN_POINT('',(-0.00426655132606766,0.01,-0.00963327566303384));
#1000=CARTESIAN_POINT('',(-0.0122389173920267,0.01,-0.0186021874872377));
#1001=CARTESIAN_POINT('',(-0.0398930621833221,0.01,0.00597927454946928));
#1002=CARTESIAN_POINT('',(1.5421560767505E-18,0.01,0.01));
#1003=CARTESIAN_POINT('',(1.5421560767505E-18,0.01,0.01));
#1004=CARTESIAN_POINT('',(0.025,0.01,0.01));
#1005=CARTESIAN_POINT('',(0.005,-0.01,0.01));
#1006=CARTESIAN_POINT('',(0.005,4.70072552955121E-17,0.002));
#1007=CARTESIAN_POINT('',(0.005,4.70072552955121E-17,0.0015));
#1008=CARTESIAN_POINT('',(0.005,4.72521846553416E-17,0.004));
#1009=CARTESIAN_POINT('',(0.005,4.72521846553416E-17,0.0035));
#1010=CARTESIAN_POINT('',(0.005,-1.37772764904077E-18,0.01));
#1011=CARTESIAN_POINT('',(0.005,-1.37772764904077E-18,0.0075));
#1012=CARTESIAN_POINT('',(0.005,0.00811995731289327,-0.00203824439982804));
#1013=CARTESIAN_POINT('',(0.005,-5.11233613721114E-20,0.01));
#1014=CARTESIAN_POINT('',(1.5421560767505E-18,-0.01,0.01));
#1015=CARTESIAN_POINT('',(1.6547310694236E-18,0.00293467088597755,0.00908075542473573));
#1016=CARTESIAN_POINT('',(2.16840434497101E-18,0.00296984810122041,0.00957573327295498));
#1017=CARTESIAN_POINT('',(1.7347234759768E-18,2.16840434497101E-17,0.01));
#1018=CARTESIAN_POINT('',(2.16840434497101E-18,-0.00296984810122041,0.00957573327295499));
#1019=CARTESIAN_POINT('',(1.48153877300345E-18,-0.00303517721524286,0.0104949778482192));
#1020=CARTESIAN_POINT('',(1.5421560767505E-18,-5.11233613721114E-20,0.01));
#1021=CARTESIAN_POINT('',(0.025,-5.11233613721114E-20,0.01));
#1022=CARTESIAN_POINT('',(0.002,2.16840434497101E-17,0.01));
#1023=CARTESIAN_POINT('',(0.002,0.00296984810122041,0.00957573327295498));
#1024=CARTESIAN_POINT('',(0.002,0.00296984810122041,0.00957573327295498));
#1025=CARTESIAN_POINT('',(0.002,2.16840434497101E-17,0.01));
#1026=CARTESIAN_POINT('',(0.002,-0.00296984810122041,0.00957573327295499));
#1027=CARTESIAN_POINT('',(0.002,-0.00296984810122041,0.00957573327295499));
#1028=CARTESIAN_POINT('',(0.002,0.00248240822769609,0.0027169771699591));
#1029=CARTESIAN_POINT('',(-0.002,0.00248240822769609,0.0027169771699591));
#1030=CARTESIAN_POINT('',(-0.002,0.00199496835417185,-0.00414177893303681));
#1031=CARTESIAN_POINT('',(0.002,0.00199496835417185,-0.00414177893303681));
#1032=CARTESIAN_POINT('',(0.002,0.00199496835417185,-0.00414177893303681));
#1033=CARTESIAN_POINT('',(0.002,0.00248240822769609,0.0027169771699591));
#1034=CARTESIAN_POINT('',(0.002,-0.00248240822769609,0.0027169771699591));
#1035=CARTESIAN_POINT('',(0.00106950941690836,-0.00202829779052517,-0.00367280114230829));
#1036=CARTESIAN_POINT('',(0.000473309674427058,-0.00199496835417177,-0.00414177893303681));
#1037=CARTESIAN_POINT('',(0.00195426748371011,-0.00199496835417176,-0.00414177893303681));
#1038=CARTESIAN_POINT('',(0.002,-0.00199496835417176,-0.00414177893303681));
#1039=CARTESIAN_POINT('',(-0.002,-0.00199496835417176,-0.00414177893303681));
#1040=CARTESIAN_POINT('',(-0.002,-0.00248240822769609,0.00271697716995909));
#1041=CARTESIAN_POINT('',(0.002,-0.00248240822769609,0.0027169771699591));
#1042=CARTESIAN_POINT('',(0.002,-0.00199496835417176,-0.00414177893303681));
#1043=CARTESIAN_POINT('',(0.002,-0.00199496835417176,-0.00414177893303681));
#1044=CARTESIAN_POINT('',(0.002,3.29597460435593E-17,-0.004));
#1045=CARTESIAN_POINT('',(-0.002,3.29597460435593E-17,-0.004));
#1046=CARTESIAN_POINT('',(-0.002,-0.000728921163973681,-0.00586243763297222));
#1047=CARTESIAN_POINT('',(-0.002,-0.000728921163973663,-0.00586243763297222));
#1048=CARTESIAN_POINT('',(-0.00186337999202674,-0.000651249315232445,-0.00589283685461063));
#1049=CARTESIAN_POINT('',(-0.00153490608207455,-0.000610945689482481,-0.00590407667211594));
#1050=CARTESIAN_POINT('',(-0.0010839300873066,-0.000773379016407907,-0.00584896853936972));
#1051=CARTESIAN_POINT('',(-0.000707863140266689,-0.00103510698044335,-0.00572440802708819));
#1052=CARTESIAN_POINT('',(-0.000463335623327902,-0.00139831338427245,-0.00545913974848904));
#1053=CARTESIAN_POINT('',(-0.000661936247694929,-0.00169718516875685,-0.00508109806928542));
#1054=CARTESIAN_POINT('',(-0.00123962887991686,-0.00183110651338919,-0.00480330767146503));
#1055=CARTESIAN_POINT('',(-0.00175375197307063,-0.00181001541178973,-0.00487462670829168));
#1056=CARTESIAN_POINT('',(-0.002,-0.00170381001321025,-0.00504739268609456));
#1057=CARTESIAN_POINT('',(-0.002,-0.00170381001321024,-0.00504739268609456));
#1058=CARTESIAN_POINT('',(-0.002,3.29597460435593E-17,-0.004));
#1059=CARTESIAN_POINT('',(0.000473309674427058,-0.00199496835417177,-0.00414177893303681));
#1060=CARTESIAN_POINT('',(0.000676308804926341,-0.00198019095816351,-0.00434971135827154));
#1061=CARTESIAN_POINT('',(0.00108125322962257,-0.00192028043572725,-0.00455361398899505));
#1062=CARTESIAN_POINT('',(0.00167526999609276,-0.00194291436440135,-0.00448390120281602));
#1063=CARTESIAN_POINT('',(0.00190449928888664,-0.00198517026236237,-0.00427964767469205));
#1064=CARTESIAN_POINT('',(0.00195426748371012,-0.00199496835417177,-0.00414177893303681));
#1065=CARTESIAN_POINT('',(0.002,3.29597460435593E-17,-0.004));
#1066=CARTESIAN_POINT('',(0.002,0.,0.007));
#1067=CARTESIAN_POINT('',(0.002,4.70072552955121E-17,0.002));
#1068=CARTESIAN_POINT('',(0.002,4.70072552955121E-17,0.0025));
#1069=CARTESIAN_POINT('',(0.002,4.72521846553416E-17,0.004));
#1070=CARTESIAN_POINT('',(0.002,4.72521846553416E-17,0.0045));
#1071=CARTESIAN_POINT('',(0.002,-1.37772764904077E-18,0.01));
#1072=CARTESIAN_POINT('',(0.002,-1.37772764904077E-18,0.0125));
#1073=CARTESIAN_POINT('',(-0.002,0.,0.007));
#1074=CARTESIAN_POINT('',(-0.002,-0.000588099128947885,-0.00495821318687606));
#1075=CARTESIAN_POINT('',(0.015002,-1.37772764904077E-18,0.01));
#1076=CARTESIAN_POINT('',(0.015002,4.72521846553416E-17,0.004));
#1077=CARTESIAN_POINT('',(0.015002,4.70072552955121E-17,0.002));
#1078=CARTESIAN_POINT('',(0.0463386798312156,-0.00646446609406725,0.0405776980494695));
#1079=CARTESIAN_POINT('',(0.00239205142973504,-0.00646446609406727,-0.0088622589021961));
#1080=CARTESIAN_POINT('',(0.00299279764711732,-0.0060154627730318,-0.0088622589021961));
#1081=CARTESIAN_POINT('',(0.0043851429462248,-0.00646446609406727,-0.00662003094614512));
#1082=CARTESIAN_POINT('',(0.00498588916360708,-0.0060154627730318,-0.00662003094614512));
#1083=CARTESIAN_POINT('',(0.000398959913245278,-0.00646446609406727,-0.0111044868582471));
#1084=CARTESIAN_POINT('',(0.000999706130627556,-0.0060154627730318,-0.0111044868582471));
#1085=CARTESIAN_POINT('',(-0.0206193220377366,0.01,-0.0111529389132735));
#1086=CARTESIAN_POINT('',(-0.0125493027492752,0.0137375346351802,-0.013325636414013));
#1087=CARTESIAN_POINT('',(-0.00488602206238705,0.000606601717798214,-0.00640672510212945));
#1088=CARTESIAN_POINT('',(-0.00488602206238705,0.000606601717798214,-0.00640672510212945));
#1089=CARTESIAN_POINT('',(-0.00428527584500477,0.00105560503883369,-0.00640672510212945));
#1090=CARTESIAN_POINT('',(-0.000154281776645039,0.00138685747634889,-0.0022579577196991));
#1091=CARTESIAN_POINT('',(-0.000899839029407528,0.000606601717798214,-0.00192226919002749));
#1092=CARTESIAN_POINT('',(-0.00289293054589729,0.000606601717798214,-0.00416449714607847));
#1093=CARTESIAN_POINT('',(-0.00289293054589729,0.000606601717798214,-0.00416449714607847));
#1094=CARTESIAN_POINT('',(-0.00229218432851501,0.00105560503883369,-0.00416449714607847));
#1095=CARTESIAN_POINT('',(-0.000154281776645039,0.00138685747634889,-0.0022579577196991));
#1096=CARTESIAN_POINT('',(-0.0191422227034953,-0.005,-0.025));
#1097=CARTESIAN_POINT('',(-0.0141422227034954,-0.005,-0.025));
#1098=CARTESIAN_POINT('',(-0.0241422227034954,-0.005,-0.025));
#1099=CARTESIAN_POINT('',(-0.0241422227034954,-0.0065,-0.025));
#1100=CARTESIAN_POINT('',(-0.0241422227034954,-0.008,-0.025));
#1101=CARTESIAN_POINT('',(-0.0191422227034953,-0.008,-0.025));
#1102=CARTESIAN_POINT('',(-0.0141422227034954,-0.008,-0.025));
#1103=CARTESIAN_POINT('',(-0.0141422227034954,-0.0065,-0.025));
#1104=CARTESIAN_POINT('',(-0.0067235818012709,0.01,-0.0123974349476375));
#1105=MECHANICAL_DESIGN_GEOMETRIC_PRESENTATION_REPRESENTATION('',(#665),
#1106);
#1106=(
GEOMETRIC_REPRESENTATION_CONTEXT(3)
GLOBAL_UNCERTAINTY_ASSIGNED_CONTEXT((#1107))
GLOBAL_UNIT_ASSIGNED_CONTEXT((#1110,#1109,#1108))
REPRESENTATION_CONTEXT('Part 1','TOP_LEVEL_ASSEMBLY_PART')
);
#1107=UNCERTAINTY_MEASURE_WITH_UNIT(LENGTH_MEASURE(2.E-5),#1110,
'DISTANCE_ACCURACY_VALUE','Maximum Tolerance applied to model');
#1108=(
NAMED_UNIT(*)
SI_UNIT($,.STERADIAN.)
SOLID_ANGLE_UNIT()
);
#1109=(
NAMED_UNIT(*)
PLANE_ANGLE_UNIT()
SI_UNIT($,.RADIAN.)
);
#1110=(
LENGTH_UNIT()
NAMED_UNIT(*)
SI_UNIT($,.METRE.)
);
#1111=PRODUCT_DEFINITION_SHAPE('','',#1112);
#1112=PRODUCT_DEFINITION('','',#1114,#1113);
#1113=PRODUCT_DEFINITION_CONTEXT('',#1120,'design');
#1114=PRODUCT_DEFINITION_FORMATION_WITH_SPECIFIED_SOURCE('','',#1116,
 .NOT_KNOWN.);
#1115=PRODUCT_RELATED_PRODUCT_CATEGORY('','',(#1116));
#1116=PRODUCT('Part 1','Part 1','Part 1',(#1118));
#1117=PRODUCT_CATEGORY('','');
#1118=PRODUCT_CONTEXT('',#1120,'mechanical');
#1119=APPLICATION_PROTOCOL_DEFINITION('international standard',
'ap242_managed_model_based_3d_engineering',2020,#1120);
#1120=APPLICATION_CONTEXT('managed model based 3d engineering');
ENDSEC;
END-ISO-10303-21;
